<svg width="51" height="48" viewBox="0 0 51 48" fill="none" xmlns="http://www.w3.org/2000/svg">
<path d="M40.2565 0.958233C40.3532 0.863089 40.4499 0.767946 40.5466 0.671103L40.6432 0.575959C40.7077 0.511397 40.7722 0.447402 40.8366 0.383973L40.9333 0.288829C41.03 0.288829 41.03 0.191986 41.1267 0.191986L41.2234 0.0968427C41.3201 0.0968427 41.3201 0 41.4168 0H8.61281C7.06397 0 5.80691 1.24706 5.80691 2.68271V41.6763H26.0318C26.3219 41.6763 26.612 41.9652 26.612 42.2523C26.612 45.9884 29.3212 47.6177 31.7403 47.8097H32.9991C35.6116 47.6177 38.2241 45.7981 38.3208 42.2523V5.65256C38.3208 3.92808 38.9994 2.2036 40.2565 0.958233ZM10.065 11.9762H19.258C19.548 11.9762 19.8381 12.265 19.8381 12.5522C19.8381 12.8393 19.548 13.1264 19.258 13.1264H10.065C9.77487 13.1264 9.48478 12.8393 9.48478 12.5522C9.48478 12.265 9.67818 11.9762 10.065 11.9762ZM34.2579 34.7784H23.8061C23.516 34.7784 23.2259 34.4896 23.2259 34.2025C23.2259 33.9153 23.516 33.6282 23.8061 33.6282H34.1612C34.4513 33.6282 34.7413 33.9153 34.7413 34.2025C34.7413 34.4896 34.548 34.7784 34.2579 34.7784ZM34.2579 31.1375H10.065C9.77487 31.1375 9.48478 30.8503 9.48478 30.5632C9.48478 30.2761 9.77487 29.989 10.065 29.989H34.2579C34.548 29.989 34.838 30.2761 34.838 30.5632C34.838 30.8503 34.548 31.1375 34.2579 31.1375ZM34.2579 27.5934H10.065C9.77487 27.5934 9.48478 27.3045 9.48478 27.0174C9.48478 26.7303 9.77487 26.4432 10.065 26.4432H34.2579C34.548 26.4432 34.838 26.7303 34.838 27.0174C34.838 27.3045 34.548 27.5934 34.2579 27.5934ZM34.2579 23.9524H10.065C9.77487 23.9524 9.48478 23.6653 9.48478 23.3782C9.48478 23.091 9.77487 22.8039 10.065 22.8039H34.2579C34.548 22.8039 34.838 23.091 34.838 23.3782C34.838 23.6653 34.548 23.9524 34.2579 23.9524ZM34.2579 20.4083H10.065C9.77487 20.4083 9.48478 20.1195 9.48478 19.8324C9.48478 19.5452 9.77487 19.2581 10.065 19.2581H34.2579C34.548 19.2581 34.838 19.5452 34.838 19.8324C34.838 20.1195 34.548 20.4083 34.2579 20.4083ZM34.2579 16.7657H10.065C9.77487 16.7657 9.48478 16.4786 9.48478 16.1914C9.48478 15.9043 9.77487 15.6172 10.065 15.6172H34.2579C34.548 15.6172 34.838 15.9043 34.838 16.1914C34.838 16.4786 34.548 16.7657 34.2579 16.7657Z" fill="#E0C389"/>
<path d="M25.45 43.0185H0C0.193394 46.0852 2.22573 48 5.22503 48H28.2576C27.9675 47.808 27.6774 47.5209 27.3873 47.3289C26.2252 46.1787 25.645 44.6462 25.4517 43.0168L25.45 43.0185Z" fill="#E0C389"/>
<path d="M43.1591 0C43.2558 0.383973 43.1591 0.383973 43.1591 0.383973H43.0624C43.0624 0.383973 42.9657 0.383973 42.9657 0.479117H42.869C42.869 0.479117 42.7723 0.479117 42.7723 0.575959C42.7723 0.575959 42.6756 0.575959 42.6756 0.671103L42.5789 0.767946C42.5789 0.767946 42.4822 0.767946 42.4822 0.863089L42.3855 0.958233C42.3855 0.958233 42.2888 0.958233 42.2888 1.05508L42.1921 1.15022C42.1921 1.15022 42.0954 1.15022 42.0954 1.24706C41.9987 1.24706 41.9987 1.34221 41.902 1.34221H41.8053C41.7408 1.40563 41.6764 1.46963 41.6119 1.53419C41.5474 1.59762 41.483 1.66162 41.4185 1.72618C41.3541 1.78961 41.2896 1.85304 41.2251 1.91647V2.01331L41.1284 2.10845L41.0317 2.2053L40.935 2.30044C40.935 2.30044 40.935 2.39558 40.8383 2.39558L40.7416 2.49243C40.7416 2.49243 40.7416 2.58757 40.6449 2.58757L40.5482 2.68441C40.5482 2.68441 40.5482 2.77956 40.4515 2.77956L40.3549 2.8747C40.3549 2.8747 40.3549 2.97154 40.2582 2.97154L40.1615 3.06669C40.1615 3.06669 40.1615 3.16353 40.0648 3.16353C40.0648 3.16353 40.0648 3.25867 39.9681 3.25867V3.35382C39.9681 3.35382 39.9681 3.45066 39.8714 3.45066V3.5458C39.8714 3.61036 39.8391 3.67436 39.7747 3.73779V3.83293C39.7747 3.89749 39.7424 3.96149 39.678 4.02492V4.12176C39.678 4.18519 39.6457 4.24862 39.5813 4.31205V4.40889C39.5813 4.50404 39.5813 4.60088 39.4846 4.69602V5.27028H51C50.7099 2.30044 48.1941 0.0968427 44.9997 0H43.1591Z" fill="#E0C389"/>
</svg>
