<svg width="30" height="30" viewBox="0 0 30 30" fill="none" xmlns="http://www.w3.org/2000/svg">
<path d="M17.4011 14.4268C17.3538 14.6139 16.6954 14.8081 16.7071 15.079L16.7109 30H13.2213V15.1401C13.2803 14.7776 12.5606 14.6734 12.5901 14.3947C12.6002 14.2976 12.8002 13.8246 12.8592 13.7204C12.8871 13.6711 12.8429 13.621 12.953 13.6523L14.7583 14.9404L15.0483 14.9937L17.1173 13.5881L17.4011 14.4268Z" fill="white"/>
<path d="M22.938 25.0535L22.9341 30H17.3507L17.3802 15.2881L17.6702 15.0548L21.2754 23.7294C21.646 24.3574 22.2439 24.8374 22.938 25.0535Z" fill="white"/>
<path d="M12.5847 15.4314L12.5816 30H6.99818L7.00593 25.1138C7.0385 25.0175 7.42391 24.9266 7.56117 24.853C8.11563 24.5547 8.49871 24.1358 8.81123 23.5923L12.3195 15.1135C12.4497 15.1973 12.5932 15.2482 12.5847 15.4314Z" fill="white"/>
<path d="M12.4055 13.148L8.09159 23.5117C7.06487 25.1623 4.51512 24.6933 4.1049 22.8046C3.90173 21.8696 4.47635 20.8485 4.81911 19.9786C5.95052 17.1103 7.22461 14.2952 8.33664 11.4191L12.4055 13.148Z" fill="white"/>
<path d="M25.8584 22.8946C25.3489 24.77 22.8371 25.0723 21.8407 23.3942L17.5849 13.148L21.6538 11.4191C22.8395 14.5372 24.2826 17.5629 25.4621 20.6825C25.7583 21.4648 26.0933 22.0294 25.8584 22.8946Z" fill="white"/>
<path d="M11.5928 3.74051V7.93216C11.5928 9.5656 13.592 10.9524 15.1142 10.8944C16.5279 10.8404 18.3394 9.4317 18.3394 7.93216V3.74051H11.5928ZM13.8347 9.18895C13.4121 8.53589 14.0022 7.84681 14.6606 7.7411C15.2724 7.64244 16.1883 7.87422 16.2914 8.59149C16.4574 9.7504 14.445 10.1325 13.8347 9.18895Z" fill="white"/>
<path d="M18.2526 3.09606H11.5928C11.858 0.634946 14.4939 -0.795681 16.6706 0.469723C17.3515 0.865945 17.9432 1.59026 18.1812 2.34669C18.2417 2.53932 18.3883 2.95668 18.2526 3.09606Z" fill="white"/>
<path d="M17.9656 12.2428C17.5694 12.4871 16.9064 12.484 16.7862 13.0055L14.9847 14.2819L13.2019 13.0658C13.1399 12.4778 12.4342 12.4785 12 12.2389L12.6405 10.7159C13.9169 11.5334 15.3701 11.6595 16.7505 11.0197C16.8808 10.9594 17.2576 10.6564 17.3476 10.719L17.9656 12.2428Z" fill="white"/>
<path d="M20.7248 11.0957L18.7039 11.9374L18.5434 11.8881L17.8253 10.2265C18.2425 9.79895 18.5775 9.28997 18.7729 8.72069C18.8163 8.59619 18.9792 8.07624 18.9792 7.99011V5.67542C20.3657 6.26271 19.7663 8.02691 19.9245 9.20618C20.0129 9.86081 20.496 10.4849 20.7248 11.0957Z" fill="white"/>
<path d="M12.1651 10.2844L11.3804 11.9421L9.26565 11.0957C9.62159 10.2907 10.0783 9.66661 10.1412 8.75515C10.2172 7.65418 9.76505 6.28855 10.9531 5.67542C11.0112 6.39269 10.8748 7.22899 10.9531 7.93216C11.0461 8.76376 11.5905 9.69793 12.1651 10.2844Z" fill="white"/>
<path d="M6.93924 13.0603L4.32203 19.5659C4.21889 19.5769 4.26077 19.3686 4.26542 19.3044C4.28636 19.0366 4.3546 18.7139 4.39958 18.4422C4.73303 16.4079 5.04865 14.2286 6.93924 13.0603Z" fill="white"/>
<path d="M25.6668 19.4492L23.0512 13.1191C25.1845 14.4737 25.2752 17.187 25.6668 19.4492Z" fill="white"/>
<path d="M15.1553 9.06132C14.4218 9.17564 14.0038 8.51632 14.718 8.38555C15.6524 8.21406 15.9882 8.93133 15.1553 9.06132Z" fill="white"/>
</svg>
