<svg width="48" height="48" viewBox="0 0 48 48" fill="none" xmlns="http://www.w3.org/2000/svg">
<path d="M43.0921 14.0942C42.7099 11.9099 43.0489 10.52 41.9358 8.38716C39.7479 4.19484 35.5584 5.80415 32.1444 4.45077C29.0871 3.23909 27.6283 -0.370922 23.4472 0.0310671C19.6106 0.400418 18.0445 4.22312 14.0887 4.91477C11.904 5.29691 10.514 4.95802 8.38076 6.07097C4.18774 8.25851 5.79732 12.4473 4.44372 15.8607C3.70081 17.7344 1.86192 18.9594 0.94029 20.765C-2.35504 27.2216 3.99814 28.7132 4.9078 33.9135C5.28999 36.0977 4.95105 37.4876 6.06418 39.6205C8.25209 43.8128 12.4416 42.2035 15.8555 43.5568C17.7295 44.2996 18.9547 46.1382 20.7607 47.0597C27.218 50.3545 28.7101 44.0024 33.9113 43.0928C36.0959 42.7107 37.486 43.0496 39.6192 41.9366C43.8122 39.7491 42.2026 35.5603 43.5562 32.1469C44.2991 30.2733 46.138 29.0483 47.0596 27.2426C50.355 20.7863 44.0018 19.2944 43.0921 14.0942ZM24 36.2987C22.7285 36.2987 21.6978 35.2682 21.6978 33.997C21.6978 32.7257 22.7285 31.6952 24 31.6952C25.2714 31.6952 26.3021 32.7257 26.3021 33.997C26.3021 35.2682 25.2714 36.2987 24 36.2987ZM25.3549 28.1896C25.0334 29.6053 23.1279 29.7092 22.676 28.3302L20.7729 14.8217C20.9008 13.3147 21.8988 11.9411 23.4399 11.6915C25.4727 11.3621 27.0347 12.8632 27.227 14.8217L25.3549 28.1896Z" fill="#E0C389"/>
</svg>
