<svg width="48" height="48" viewBox="0 0 48 48" fill="none" xmlns="http://www.w3.org/2000/svg">
<path d="M22.4567 0.0523876C12.0374 0.716016 2.99759 8.35798 0.636595 18.4343C-1.27695 26.6016 1.1954 35.0588 7.08449 40.9864C6.12565 42.9547 0.907748 46.8802 5.44932 47.893C18.6028 47.3257 32.0894 50.8302 41.9097 39.8926C56.1004 24.0874 43.7975 -1.30662 22.4567 0.0523876ZM23.9568 36.1495C22.2784 36.1495 20.9174 34.7976 20.9174 33.1304C20.9174 31.4631 22.2784 30.1113 23.9568 30.1113C25.6353 30.1113 26.9962 31.4631 26.9962 33.1304C26.9962 34.7976 25.6353 36.1495 23.9568 36.1495ZM29.6758 22.7325C28.7727 23.7495 26.9437 24.8053 26.5931 26.1438C26.3952 26.8986 26.4199 27.8162 26.4158 28.5935H21.5598L21.3752 28.4102V26.2125C21.3752 23.435 25.1229 21.8026 26.1921 19.7626C27.8169 16.6615 23.4805 15.5524 21.501 17.911C21.2577 18.2008 20.7834 19.1972 20.4556 19.1932L16.345 16.7906C17.8894 12.5036 23.3496 10.6848 27.4829 12.3305C32.1812 14.2006 32.9317 19.0672 29.6748 22.7346L29.6758 22.7325Z" fill="#E0C389"/>
</svg>
