<svg width="30" height="30" viewBox="0 0 30 30" fill="none" xmlns="http://www.w3.org/2000/svg">
<path d="M29.9989 26.7584C29.9325 27.1333 29.7216 27.3903 29.3623 27.5044L0.707264 27.5273C0.315107 27.4201 0.0696105 27.1652 0 26.7584C0.349647 25.4532 0.283224 23.7352 0.665816 22.4764C0.738084 22.2391 1.08932 21.6542 1.33854 21.6542H13.5076C12.5448 22.9109 12.8338 24.9957 14.4147 25.563L25.6794 25.5817C26.5848 26.0472 28.3007 26.3249 28.0493 24.7936C27.9298 24.0669 27.0721 24.0957 26.8064 23.515C26.5062 22.8587 26.7947 22.2999 26.6566 21.6537H28.6615C28.9123 21.6537 29.2603 22.2391 29.3342 22.4759C29.7263 23.7315 29.6466 25.4537 30 26.7584H29.9989Z" fill="white"/>
<path d="M23.9912 22.6006L24.9769 24.9291H14.6729C14.2882 24.9291 13.7792 24.2055 13.7165 23.8307C13.4943 22.51 14.1777 21.595 15.3738 21.1408C16.664 20.6513 19.0063 20.8539 19.1997 19.0384C21.0697 19.1744 22.6144 18.0493 23.2504 16.3191C23.3663 16.004 23.7659 14.59 23.4922 14.397H23.0134C22.8115 14.9083 22.8078 15.4511 22.6255 15.9726C21.3726 19.562 17.5482 18.4012 15.0391 16.9776L15.012 16.8534C15.2941 16.4903 15.5455 15.2666 15.7899 15.008C15.9063 14.8849 15.9955 14.9147 16.1406 14.9344C16.7278 15.0134 18.5212 15.8574 18.9415 15.7454C19.8379 14.9627 20.2317 13.7844 20.6865 12.7169C21.8035 12.5842 22.7998 12.1363 23.5321 11.2704C24.4227 12.1011 24.8866 13.1899 24.9806 14.3986C24.6947 16.4338 24.7994 18.8672 24.4099 20.8507C24.234 21.747 24.056 21.9672 23.1633 22.0322C22.1771 22.1042 19.1477 21.4249 18.5419 21.8862C18.3612 22.0237 18.3788 22.4391 18.6838 22.4967C19.0308 22.5628 19.6259 22.3825 20.0813 22.4039C21.3784 22.4647 22.6861 23.0426 23.9922 22.6001L23.9912 22.6006Z" fill="white"/>
<path d="M21.6186 8.55485L21.2105 9.31091C20.5728 9.09764 20.1164 8.79639 19.3241 8.40769C18.6381 8.07072 17.7225 7.18989 17.5195 7.19736L17.4627 6.3144C17.4648 4.2371 20.5521 3.91345 21.8083 4.9505C23.0475 5.97316 22.1133 7.4197 21.6186 8.55485Z" fill="white"/>
<path d="M11.9528 6.6679C9.15936 8.38317 6.02848 5.10246 7.91115 2.47278C8.07588 4.92758 10.5664 6.41517 12.854 5.65431C12.9943 5.78121 12.083 6.58846 11.9533 6.6679H11.9528Z" fill="white"/>
<path d="M22.3099 10.1214L20.8842 11.0123C20.5006 9.04539 19.6902 9.57857 18.8251 9.82331C17.9622 10.0675 18.4 8.33945 17.4239 8.55379C17.5902 8.12137 17.8389 7.62124 17.5195 7.19682L17.7108 7.09339L19.6966 7.59671C19.9288 7.48421 20.0648 7.2752 20.0356 7.01287C20.1371 6.75001 20.389 7.26987 20.3922 7.47675C20.3975 7.86971 19.7641 8.63163 20.1732 8.64816C21.1813 8.68868 22.0394 9.78119 22.3099 10.1208V10.1214Z" fill="white"/>
<path d="M27.4016 25.2095C25.774 25.6318 24.445 23.0133 24.8318 21.7433C24.9328 21.4116 25.4689 21.0096 25.7915 21.306C26.3372 21.8078 25.5088 23.4804 26.6529 24.4172C26.9887 24.6923 27.4999 24.6886 27.401 25.21L27.4016 25.2095Z" fill="white"/>
<path d="M14.9801 15.0704L14.5709 16.14C14.0634 16.2264 12.7308 14.8203 12.5267 14.3575C12.4491 14.1821 12.1043 12.8369 12.4353 12.8609C12.8179 13.1744 13.3711 14.5527 13.8339 14.5522C14.3855 14.5522 14.3674 13.7337 14.3477 13.3269C14.5938 12.9952 14.5289 14.1187 14.5422 14.2072C14.5932 14.5585 14.7521 14.8113 14.9811 15.0704H14.9801Z" fill="white"/>
<path d="M22.9284 10.847C22.93 11.2538 21.3279 12.0579 20.8741 11.9235C20.9113 11.6154 20.7955 11.1744 20.9219 10.895C21.0075 10.7063 22.058 9.99713 22.27 10.0947C22.3753 10.1432 22.9279 10.7393 22.9284 10.847Z" fill="white"/>
</svg>
