<svg width="30" height="30" viewBox="0 0 30 30" fill="none" xmlns="http://www.w3.org/2000/svg">
<path d="M15.0475 11.2371L15 11.1549L14.9525 11.2371C14.0429 12.8135 12.6289 14.0306 10.947 14.7245C8.15298 15.8772 6.24643 18.1841 6.24643 20.8422C6.24643 22.2425 6.77562 23.5454 7.68484 24.6334H22.315C23.2242 23.5454 23.7534 22.2425 23.7534 20.8422C23.7534 18.1841 21.8469 15.877 19.0531 14.7245C17.3712 14.0306 15.9572 12.8135 15.0475 11.2371Z" fill="white"/>
<path d="M20.8031 0.0250972L20.7887 0L20.7743 0.0250972C20.4964 0.50683 20.0642 0.878623 19.5503 1.09073C18.6966 1.44298 18.1139 2.14792 18.1139 2.96013C18.1139 3.38812 18.2755 3.78612 18.5534 4.1186H23.024C23.3019 3.78612 23.4635 3.38812 23.4635 2.96013C23.4635 2.14792 22.8808 1.44298 22.0271 1.09073C21.5132 0.878623 21.081 0.50683 20.8031 0.0250972Z" fill="white"/>
<path d="M25.8284 25.2922H4.17163V30H25.8284V25.2922Z" fill="white"/>
<path d="M22.8189 4.70117V16.3327C21.9274 15.3259 20.7465 14.5028 19.3772 13.9378C19.1661 13.8507 18.9596 13.7541 18.7583 13.6486V4.70117H22.8189Z" fill="white"/>
</svg>
