<svg width="30" height="30" viewBox="0 0 30 30" fill="none" xmlns="http://www.w3.org/2000/svg">
<path d="M4.32176 26.3549H6.67013V6.25478C6.67013 5.95885 7.1356 4.49608 7.29511 4.15001C10.2176 -2.18648 22.8684 -1.17622 23.3332 6.56064L23.3568 26.1062C23.5544 26.7104 25.4849 25.9605 26.1657 26.7061C26.7819 27.3809 26.8008 30.0562 25.3844 29.9991L4.4821 29.9869C2.97443 29.9456 3.25245 26.3549 4.32176 26.3549ZM14.5482 6.48351C14.2738 6.42409 13.3774 6.27596 13.2198 6.14488C13.0058 5.96679 13.0646 5.02737 12.6545 4.81667C11.9887 5.82296 11.677 5.93932 10.4553 5.94892C10.2038 6.14769 10.3724 6.10896 10.4589 6.25213C11.1171 7.34233 11.2027 7.18957 10.7616 8.60533C11.2631 8.64472 11.6804 8.23343 12.1884 8.30228C12.6592 8.36617 12.9564 9.01264 13.4871 8.9087L13.485 7.4994C13.5369 7.28424 14.6654 7.00304 14.5482 6.48351ZM19.556 7.61211C19.0527 6.08215 17.4078 4.64852 15.7611 4.66275C15.7801 5.08579 16.1967 5.24451 16.3965 5.6179C18.0331 8.67484 15.8758 11.9221 12.5792 12.0971C15.7775 15.2391 20.9359 11.8059 19.556 7.61211ZM9.69952 19.9084L20.0534 19.9587C20.6389 19.7613 20.7739 17.3074 19.7428 17.2856H10.1114C9.10759 17.3154 9.21487 19.6725 9.69952 19.9084Z" fill="white"/>
</svg>
