<svg width="47" height="48" viewBox="0 0 47 48" fill="none" xmlns="http://www.w3.org/2000/svg">
<path d="M30.5347 23.6469C30.119 25.1368 30.1433 28.0515 30.6659 29.512C31.1315 30.8114 32.0834 31.883 33.2271 32.6208L33.2514 33.1602C31.9522 33.2275 30.5647 33.0706 29.2755 33.158C28.9975 33.1767 28.698 33.2519 28.4242 33.307V23.144C28.4242 22.9485 27.9935 22.6061 27.7803 22.6892C25.6291 23.298 23.4301 23.7851 21.3082 24.4685L21.1377 24.6891L21.0878 39.0877L21.0008 39.1471C19.8906 39.4387 18.7534 39.9659 17.6496 40.2373C17.4671 40.2825 17.2945 40.3484 17.102 40.2982L0.268099 34.8249L0 34.5312V16.0654L17.276 21.5345L34.5184 16.0654V19.5431C32.6203 20.147 31.0738 21.7121 30.534 23.6469H30.5347Z" fill="#E0C389"/>
<path d="M34.5199 6.24408L34.5127 10.5248L17.2838 15.9616L0 10.4818V6.12231L0.162571 5.89381C5.50815 3.9612 10.935 2.21197 16.3098 0.343829C16.6114 0.239248 16.9187 0.12822 17.2111 0H17.6496L34.2225 5.80785C34.3552 5.92461 34.5149 6.04996 34.5199 6.24408Z" fill="#E0C389"/>
<path d="M38.9556 34.1387H41.1496C38.6818 36.8786 35.0247 39.6535 31.1287 39.3814C30.4784 39.3362 29.7982 38.9215 29.6905 39.9408L29.6927 47.9993H26.5724C26.2794 47.831 26.1625 47.6891 26.1318 47.3403C26.2715 44.1004 25.9535 40.7137 26.1318 37.491C26.1995 36.2683 26.7564 35.2067 27.8259 34.5885C28.0891 34.4359 28.8014 34.138 29.0837 34.138H34.1541L34.2275 34.0642V32.032C32.8556 31.4396 31.7604 30.128 31.4139 28.6625C31.2898 28.1381 31.19 27.343 31.2506 26.813C31.2606 26.727 31.2542 26.7041 31.3305 26.6482C31.4595 26.5544 32.0086 26.3996 32.2125 26.3094C32.7872 26.0537 33.3783 25.77 33.8817 25.3904C33.9772 25.3187 34.1455 25.0845 34.2418 25.0859C35.8775 25.7686 37.6608 25.7614 39.3121 25.1325C40.0622 25.7779 40.915 26.4226 41.8769 26.6976C42.1179 28.9655 40.9863 31.065 38.9563 32.0556V34.1372L38.9556 34.1387Z" fill="#E0C389"/>
<path d="M34.5184 11.7554V14.8162L17.2382 20.3232L0 14.89V11.706L17.2346 17.1471L34.5184 11.7554Z" fill="#E0C389"/>
<path d="M42.2705 48H30.862V45.3547C33.8846 45.3217 36.9499 44.9457 39.8212 43.9965C40.6469 43.7229 41.4334 43.359 42.2455 43.0524L42.2705 48Z" fill="#E0C389"/>
<path d="M47 39.8204V47.6082C46.8709 47.7701 46.7519 47.909 46.5615 48H43.4413L43.4491 42.3748L45.114 41.3297L47 39.8204Z" fill="#E0C389"/>
<path d="M41.8805 25.4699C41.3721 25.1869 40.8416 24.8646 40.3952 24.4885C40.115 24.2521 39.859 23.7973 39.4669 23.8002C39.2401 23.8016 38.6561 24.1354 38.3709 24.2213C37.3171 24.5387 36.1933 24.4921 35.1423 24.1819C34.8122 24.0845 34.2696 23.7643 33.9623 23.8066C33.6507 23.8489 33.5701 24.1196 33.3747 24.2958C32.7893 24.8216 32.0392 25.1174 31.3269 25.4212C31.1872 25.3932 31.2927 24.6712 31.3148 24.5286C31.8168 21.2307 35.163 19.5531 38.2462 20.4285C40.4359 21.0502 41.9881 23.1741 41.8812 25.4706L41.8805 25.4699Z" fill="#E0C389"/>
<path d="M27.2541 29.9268V33.845C26.1995 34.4223 25.3368 35.7582 25.212 36.9609C25.1927 37.1515 25.2526 37.6937 25.1457 37.8005L22.3328 38.7231L22.2322 38.6693V31.2734L27.2541 29.9268Z" fill="#E0C389"/>
<path d="M44.0124 36.9072C40.6633 40.4515 35.5794 41.7767 30.862 42.1721V40.5067C35.3655 40.8935 39.2758 37.9179 42.1557 34.7798C42.299 34.7547 44.0295 36.7002 44.0124 36.9072Z" fill="#E0C389"/>
<path d="M46.2677 38.8656C43.8163 41.2258 40.6434 42.7079 37.347 43.4701C35.2329 43.9586 33.0325 44.1763 30.862 44.1799V43.3476C35.9366 42.9371 41.2459 41.4551 44.8859 37.7181L46.2677 38.8656Z" fill="#E0C389"/>
<path d="M27.2541 24.0494V26.0085L22.2322 27.3308V25.3961L27.2541 24.0494Z" fill="#E0C389"/>
<path d="M27.2541 27.2327V28.7019L22.2322 30.0249V28.5794L27.2541 27.2327Z" fill="#E0C389"/>
</svg>
