<svg width="355" height="335" viewBox="0 0 355 335" fill="none" xmlns="http://www.w3.org/2000/svg">
<g filter="url(#filter0_d_540_678)">
<path fill-rule="evenodd" clip-rule="evenodd" d="M344.673 323.658C343.761 323.775 342.914 323.89 342.282 323.887C336.327 323.877 331.188 324.561 325.291 323.783C325.047 323.75 324.819 323.922 324.787 324.166C324.755 324.411 324.928 324.636 325.176 324.669C331.116 325.451 336.288 324.77 342.282 324.784C343.47 324.784 345.396 324.397 347.123 324.295C348.168 324.235 349.134 324.267 349.766 324.626C349.982 324.748 350.255 324.673 350.377 324.457C350.499 324.242 350.424 323.969 350.208 323.847C349.949 323.7 349.644 323.593 349.303 323.521C349.335 323.464 349.357 323.399 349.36 323.327C349.375 323.08 349.188 322.869 348.94 322.854C345.212 322.628 341.144 322.894 337.319 322.818C333.141 322.74 328.986 322.348 324.819 322.198C324.572 322.187 324.364 322.38 324.356 322.628C324.346 322.875 324.54 323.083 324.787 323.094C328.961 323.245 333.12 323.636 337.304 323.715C339.713 323.762 342.22 323.671 344.678 323.658H344.673ZM5.72258 322.488C5.38139 322.549 5.07253 322.646 4.80676 322.782C4.58767 322.897 4.50148 323.166 4.6164 323.389C4.73133 323.608 5.00069 323.693 5.22336 323.578C5.86624 323.245 6.83594 323.245 7.87748 323.345C9.59781 323.507 11.5085 323.966 12.6973 324.009C18.6879 324.217 23.8345 325.085 29.7963 324.518C30.0441 324.493 30.2238 324.275 30.2022 324.031C30.1771 323.783 29.958 323.604 29.7138 323.625C23.7913 324.188 18.6807 323.32 12.7296 323.113C12.0939 323.091 11.2535 322.947 10.3484 322.797C12.8051 322.9 15.3083 323.08 17.7182 323.119C21.9023 323.191 26.072 322.954 30.2489 322.954C30.4967 322.954 30.6979 322.753 30.6979 322.506C30.6979 322.258 30.4967 322.058 30.2489 322.058C26.0792 322.058 21.913 322.298 17.7361 322.226C13.9148 322.161 9.8564 321.749 6.12124 321.839C5.87342 321.846 5.67589 322.051 5.68308 322.298C5.68308 322.37 5.70104 322.434 5.73335 322.492L5.72258 322.488ZM348.93 321.778C348.84 321.785 348.692 321.795 348.56 321.8C347.909 321.814 346.954 321.778 346.832 321.775C344.86 321.703 342.914 321.466 340.942 321.394C334.538 321.161 328.152 321.319 321.742 321.086C321.494 321.075 321.285 321.268 321.279 321.516C321.268 321.763 321.461 321.971 321.71 321.979C328.121 322.212 334.509 322.054 340.91 322.287C342.878 322.359 344.828 322.596 346.8 322.668C346.944 322.671 348.219 322.718 348.851 322.685C349.074 322.675 349.238 322.643 349.31 322.618C349.547 322.524 349.608 322.348 349.619 322.233C349.633 322.111 349.619 321.957 349.457 321.82C349.306 321.692 349.091 321.681 348.93 321.782V321.778ZM348.746 322.315C348.764 322.374 348.796 322.427 348.854 322.481C348.804 322.434 348.768 322.377 348.746 322.315ZM6.16074 320.763C6.00272 320.655 5.78723 320.658 5.6328 320.784C5.46758 320.917 5.44245 321.071 5.45322 321.193C5.464 321.308 5.51428 321.487 5.75132 321.588C5.82314 321.616 5.98835 321.653 6.21103 321.673C6.84313 321.731 8.11811 321.731 8.26177 321.731C10.2335 321.731 12.1908 321.563 14.159 321.563C20.5662 321.563 26.9411 321.954 33.3591 321.954C33.6069 321.954 33.8081 321.753 33.8081 321.506C33.8081 321.258 33.6069 321.056 33.3591 321.056C26.9447 321.056 20.5662 320.67 14.159 320.67C12.1873 320.67 10.2335 320.835 8.26177 320.835C8.13966 320.835 7.18072 320.835 6.53426 320.799C6.40138 320.792 6.25412 320.777 6.16434 320.767L6.16074 320.763ZM6.32237 321.305C6.29722 321.365 6.25771 321.419 6.20743 321.466C6.26489 321.412 6.30081 321.359 6.32237 321.305ZM348.531 320.221C345.324 320.225 342.001 319.984 338.758 319.924C333.547 319.827 328.332 320.046 323.121 319.855C322.873 319.844 322.665 320.038 322.657 320.285C322.651 320.533 322.841 320.741 323.089 320.748C328.307 320.939 333.525 320.72 338.741 320.817C341.991 320.877 345.32 321.118 348.531 321.114C348.779 321.114 348.98 320.914 348.98 320.666C348.98 320.419 348.779 320.218 348.531 320.218V320.221ZM6.57736 320.113C9.78816 320.235 13.1247 320.113 16.3749 320.171C21.5934 320.264 26.8011 320.673 32.0195 320.673C32.2673 320.673 32.4684 320.472 32.4684 320.225C32.4684 319.977 32.2673 319.777 32.0195 319.777C26.8046 319.777 21.6006 319.367 16.3893 319.274C13.1463 319.217 9.81329 319.339 6.60968 319.217C6.36187 319.206 6.15356 319.399 6.14279 319.647C6.13201 319.894 6.32595 320.103 6.57377 320.113H6.57736ZM347.953 318.586C344.845 318.561 341.75 318.198 338.636 318.248C334.919 318.309 331.231 318.639 327.503 318.568C324.823 318.514 322.159 318.17 319.48 318.22C319.232 318.223 319.034 318.427 319.038 318.675C319.041 318.922 319.246 319.12 319.493 319.116C322.162 319.066 324.816 319.41 327.481 319.464C331.216 319.539 334.919 319.206 338.647 319.145C341.753 319.095 344.842 319.454 347.942 319.482C348.19 319.482 348.391 319.285 348.394 319.038C348.394 318.79 348.197 318.589 347.949 318.586H347.953ZM7.22742 318.503C10.3233 318.589 13.4264 318.342 16.5294 318.503C20.2538 318.7 23.9386 319.163 27.6774 319.228C30.3458 319.27 33.0072 319.023 35.6721 319.17C35.9199 319.185 36.1318 318.994 36.1461 318.747C36.1605 318.499 35.9701 318.287 35.7223 318.273C33.043 318.126 30.3711 318.374 27.6918 318.327C23.9674 318.267 20.2896 317.8 16.5797 317.606C13.4694 317.441 10.3628 317.688 7.25615 317.606C7.00834 317.599 6.80003 317.792 6.79643 318.04C6.78925 318.288 6.98679 318.496 7.2346 318.499L7.22742 318.503ZM347.518 316.936C347.022 316.77 346.142 316.685 345.105 316.663C342.809 316.609 339.675 316.817 338.32 316.792C332.567 316.681 326.834 316.429 321.084 316.222C320.837 316.211 320.629 316.404 320.618 316.652C320.607 316.899 320.805 317.108 321.049 317.115C326.802 317.322 332.541 317.574 338.299 317.685C339.653 317.71 342.789 317.506 345.083 317.556C346.01 317.578 346.793 317.635 347.235 317.782C347.467 317.861 347.723 317.735 347.802 317.499C347.881 317.265 347.755 317.011 347.518 316.932V316.936ZM7.99959 316.835C8.44853 316.702 9.23147 316.673 10.1581 316.685C12.453 316.717 15.5776 317.036 16.9316 317.058C22.6924 317.155 28.4352 317.115 34.1924 317.115C34.4402 317.115 34.6413 316.914 34.6413 316.666C34.6413 316.419 34.4402 316.218 34.1924 316.218C28.4388 316.218 22.7032 316.257 16.9495 316.16C15.592 316.139 12.4674 315.817 10.1724 315.787C9.13091 315.773 8.251 315.824 7.74819 315.974C7.51115 316.043 7.37467 316.293 7.44291 316.53C7.51115 316.767 7.76255 316.904 7.99959 316.832V316.835ZM346.229 315.2C345.729 315.013 344.825 314.931 343.747 314.919C341.387 314.902 338.147 315.21 336.852 315.235C331.163 315.35 325.589 314.937 319.91 314.73C319.662 314.718 319.454 314.912 319.446 315.16C319.44 315.407 319.63 315.615 319.878 315.623C325.57 315.83 331.163 316.243 336.869 316.128C338.159 316.103 341.387 315.795 343.739 315.812C344.681 315.82 345.474 315.87 345.913 316.035C346.146 316.121 346.405 316.003 346.49 315.773C346.577 315.54 346.462 315.282 346.229 315.195V315.2ZM9.38232 315.135C9.82407 314.988 10.6178 314.966 11.5588 314.991C13.9112 315.059 17.1256 315.483 18.415 315.558C24.1146 315.881 29.7173 315.67 35.4134 315.67C35.6612 315.67 35.8624 315.468 35.8624 315.22C35.8624 314.973 35.6612 314.772 35.4134 314.772C29.7317 314.772 24.1469 314.984 18.4652 314.661C17.1723 314.59 13.9435 314.163 11.5839 314.095C10.5065 314.063 9.59781 314.113 9.095 314.28C8.86155 314.36 8.73226 314.615 8.81127 314.847C8.89028 315.081 9.14528 315.21 9.37872 315.131L9.38232 315.135ZM345.471 314.037C345.565 314.191 345.747 314.277 345.934 314.245C346.179 314.202 346.34 313.966 346.293 313.722C346.232 313.387 346.02 313.212 345.7 313.151C345.546 313.123 345.352 313.13 345.148 313.158C344.947 313.187 344.735 313.237 344.576 313.233C342.68 313.165 340.794 313.004 338.898 312.972C332.212 312.86 325.549 313.208 318.862 312.968C318.613 312.957 318.405 313.151 318.399 313.399C318.387 313.646 318.581 313.854 318.829 313.861C325.524 314.105 332.19 313.757 338.884 313.865C340.773 313.897 342.658 314.058 344.544 314.126C344.72 314.134 344.947 314.095 345.17 314.063C345.259 314.048 345.392 314.041 345.471 314.033V314.037ZM9.8959 313.151C9.96054 313.155 10.0539 313.165 10.1186 313.176C10.3628 313.223 10.6214 313.28 10.8153 313.28C12.7045 313.28 14.5935 313.187 16.4827 313.223C23.1772 313.355 29.8287 313.947 36.5268 313.947C36.7746 313.947 36.9758 313.747 36.9758 313.499C36.9758 313.252 36.7746 313.051 36.5268 313.051C29.8359 313.051 23.1881 312.462 16.5006 312.33C14.6044 312.29 12.7116 312.384 10.8153 312.384C10.6537 312.384 10.4454 312.322 10.2443 312.29C10.0396 312.254 9.84562 312.24 9.69118 312.262C9.36795 312.308 9.15246 312.476 9.07704 312.81C9.02316 313.051 9.1776 313.29 9.41823 313.345C9.60499 313.387 9.79174 313.305 9.88871 313.155L9.8959 313.151ZM10.4957 311.365C13.0385 312.058 17.9373 311.454 20.7638 311.558C25.6303 311.73 30.468 312.365 35.3416 312.559C35.5894 312.57 35.7978 312.376 35.8085 312.128C35.8193 311.881 35.6254 311.673 35.3776 311.663C30.5039 311.469 25.6626 310.837 20.7961 310.662C18.027 310.561 13.2252 311.178 10.7327 310.501C10.4957 310.436 10.2479 310.576 10.1832 310.815C10.1186 311.056 10.2586 311.3 10.4993 311.365H10.4957ZM344.735 311.357C342.217 311.946 337.444 311.157 334.671 311.153C329.801 311.153 324.941 311.605 320.061 311.623C319.813 311.623 319.612 311.824 319.612 312.071C319.612 312.319 319.813 312.519 320.061 312.519C324.938 312.502 329.797 312.046 334.668 312.05C337.494 312.05 342.367 312.829 344.936 312.229C345.177 312.172 345.327 311.931 345.27 311.691C345.212 311.451 344.972 311.3 344.731 311.357H344.735ZM343.883 309.834C343.733 309.822 343.488 309.808 343.388 309.8C342.476 309.725 342.533 309.665 341.624 309.571C339.272 309.324 336.894 309.13 334.531 309.091C328.433 308.983 322.216 308.882 316.125 309.148C315.877 309.158 315.686 309.367 315.698 309.615C315.708 309.862 315.917 310.051 316.165 310.041C322.234 309.775 328.437 309.879 334.517 309.987C336.855 310.026 339.208 310.22 341.534 310.464C342.454 310.561 342.397 310.622 343.319 310.698C343.47 310.708 343.811 310.74 343.977 310.74C344.074 310.74 344.149 310.73 344.181 310.719C344.437 310.647 344.497 310.461 344.516 310.354C344.526 310.289 344.566 309.956 344.164 309.829C344.07 309.8 343.973 309.804 343.887 309.829L343.883 309.834ZM11.6378 309.008C11.5516 308.976 11.4582 308.969 11.3612 308.994C10.9554 309.105 10.9841 309.439 10.9913 309.503C11.0057 309.611 11.056 309.8 11.3109 309.879C11.3433 309.891 11.4151 309.904 11.5157 309.909C11.6808 309.912 12.022 309.897 12.1765 309.891C13.0996 309.847 13.0457 309.787 13.9687 309.722C16.2996 309.564 18.6591 309.456 20.9972 309.499C27.0777 309.615 33.2766 309.737 39.3354 310.22C39.5833 310.238 39.7986 310.056 39.8202 309.808C39.8381 309.561 39.6551 309.345 39.4072 309.324C33.3305 308.839 27.1135 308.714 21.0152 308.599C18.652 308.556 16.2672 308.663 13.9076 308.822C12.9953 308.882 13.0492 308.947 12.137 308.986C12.0364 308.99 11.7886 308.998 11.6413 309.001L11.6378 309.008ZM11.6306 309.851H11.6234H11.6269H11.6306ZM342.834 307.738C342.591 307.727 342.185 307.698 341.994 307.692C341.291 307.667 340.587 307.641 339.879 307.616C338.043 307.548 336.191 307.53 334.355 307.526C328.619 307.516 322.895 307.777 317.162 307.57C316.915 307.559 316.707 307.752 316.695 308C316.685 308.247 316.883 308.456 317.127 308.463C322.87 308.671 328.606 308.409 334.352 308.419C336.179 308.424 338.018 308.441 339.847 308.509C340.55 308.534 341.254 308.56 341.959 308.585C342.242 308.596 342.975 308.642 343.075 308.631C343.41 308.588 343.463 308.323 343.473 308.244C343.478 308.205 343.503 307.814 343.05 307.724C342.975 307.71 342.899 307.713 342.827 307.735L342.834 307.738ZM12.7583 306.953C12.6901 306.927 12.6147 306.921 12.5392 306.931C12.0831 307.003 12.0939 307.394 12.0975 307.434C12.1047 307.513 12.1513 307.782 12.4818 307.835C12.5859 307.852 13.3186 307.832 13.6023 307.832H15.7177C17.5457 307.832 19.3847 307.879 21.2127 307.943C26.9555 308.14 32.6767 308.61 38.4232 308.61C38.671 308.61 38.8721 308.409 38.8721 308.162C38.8721 307.914 38.671 307.713 38.4232 307.713C32.6876 307.713 26.9734 307.243 21.2414 307.046C19.4061 306.981 17.5529 306.934 15.7177 306.934H13.6023C13.412 306.934 13.0061 306.949 12.7619 306.949L12.7583 306.953ZM342.325 306.16C342.325 306.16 342.131 306.178 341.969 306.182C341.611 306.182 341.097 306.16 340.493 306.117C338.094 305.956 334.344 305.536 333.507 305.493C327.532 305.18 321.479 305.539 315.492 305.561C315.245 305.561 315.044 305.762 315.044 306.009C315.044 306.257 315.245 306.458 315.496 306.454C321.466 306.432 327.5 306.074 333.46 306.382C334.416 306.432 339.175 306.971 341.377 307.056C342.016 307.081 342.469 307.056 342.623 306.996C342.856 306.909 342.975 306.651 342.889 306.422C342.806 306.192 342.555 306.074 342.325 306.153V306.16ZM13.3293 305.392C13.1031 305.306 12.8481 305.417 12.7547 305.643C12.6614 305.872 12.7691 306.135 12.999 306.228C13.1498 306.289 13.6023 306.336 14.2416 306.332C16.4468 306.325 21.2199 305.959 22.1752 305.944C28.1443 305.852 34.1601 306.429 40.1256 306.665C40.3734 306.677 40.5816 306.483 40.5924 306.235C40.6032 305.988 40.4092 305.78 40.1614 305.769C34.1815 305.528 28.1443 304.951 22.1609 305.044C21.324 305.058 17.5638 305.339 15.1574 305.414C14.554 305.432 14.037 305.439 13.6777 305.424C13.5161 305.417 13.3365 305.392 13.3222 305.392H13.3293ZM340.938 305.113C341.057 305.23 341.236 305.281 341.402 305.224C341.646 305.141 341.718 304.991 341.746 304.916C341.815 304.74 341.803 304.538 341.585 304.374C341.534 304.337 341.43 304.284 341.276 304.252C341.01 304.195 340.458 304.155 340.209 304.126C339.39 304.029 339.447 304.065 338.575 304.011C336.273 303.864 333.982 303.678 331.673 303.591C325.9 303.384 320.144 303.506 314.365 303.297C314.117 303.29 313.909 303.484 313.901 303.728C313.891 303.976 314.085 304.183 314.333 304.19C320.111 304.399 325.868 304.277 331.64 304.484C333.939 304.568 336.223 304.757 338.518 304.901C339.365 304.954 339.312 304.919 340.105 305.013C340.274 305.03 340.691 305.08 340.935 305.113H340.938ZM14.7516 304.399C14.9958 304.377 15.416 304.345 15.5848 304.331C16.3821 304.266 16.3282 304.299 17.1759 304.277C19.4744 304.215 21.7623 304.108 24.0644 304.108C29.8395 304.108 35.5894 304.442 41.3717 304.442C41.6195 304.442 41.8207 304.24 41.8207 303.993C41.8207 303.745 41.6195 303.545 41.3717 303.545C35.5894 303.545 29.8395 303.212 24.0644 303.212C21.7551 303.212 19.46 303.315 17.1507 303.38C16.278 303.401 16.3354 303.369 15.513 303.437C15.2652 303.456 14.7121 303.477 14.4427 303.528C14.2883 303.553 14.1842 303.603 14.1303 303.638C13.904 303.796 13.886 303.993 13.9471 304.173C13.9722 304.248 14.0405 304.402 14.2811 304.492C14.4463 304.556 14.6295 304.513 14.7516 304.399ZM339.979 303.484C340.095 303.628 340.292 303.692 340.478 303.628C340.712 303.548 340.784 303.401 340.813 303.315C340.866 303.161 340.856 302.989 340.705 302.831C340.659 302.781 340.562 302.713 340.418 302.663C340.188 302.583 339.713 302.508 339.494 302.483C338.503 302.369 338.543 302.397 337.513 302.247C335.038 301.887 332.585 301.719 330.088 301.586C323.814 301.249 317.572 301.744 311.316 301.515C311.068 301.508 310.859 301.702 310.849 301.946C310.839 302.193 311.036 302.401 311.28 302.408C317.529 302.633 323.767 302.143 330.035 302.476C332.502 302.608 334.929 302.774 337.376 303.128C338.421 303.28 338.378 303.255 339.384 303.369C339.502 303.384 339.789 303.441 339.973 303.476L339.979 303.484ZM15.7715 302.806C15.9547 302.774 16.2421 302.73 16.3642 302.72C17.3734 302.641 17.3303 302.666 18.379 302.551C20.8356 302.286 23.2706 302.207 25.738 302.163C32.0123 302.056 38.2328 302.774 44.4856 302.774C44.7334 302.774 44.9345 302.573 44.9345 302.325C44.9345 302.078 44.7334 301.877 44.4856 301.877C38.2256 301.877 32.0051 301.16 25.7236 301.267C23.2276 301.31 20.7673 301.389 18.282 301.658C17.2477 301.769 17.2872 301.744 16.2924 301.824C16.0732 301.841 15.5956 301.899 15.3622 301.966C15.215 302.01 15.1179 302.078 15.0677 302.125C14.9096 302.279 14.8952 302.448 14.9456 302.605C14.9742 302.692 15.0389 302.842 15.2687 302.931C15.4519 303.003 15.6495 302.946 15.7715 302.806ZM338.888 300.468L338.838 300.461C337.635 300.334 336.435 300.173 335.232 300.051C333.162 299.844 331.109 299.697 329.029 299.657C322.554 299.535 316.046 300.242 309.589 300.008C309.341 300.001 309.132 300.192 309.125 300.439C309.114 300.687 309.308 300.894 309.556 300.901C316.021 301.138 322.532 300.431 329.011 300.553C331.066 300.593 333.099 300.737 335.142 300.941C336.345 301.063 337.541 301.224 338.744 301.349C338.78 301.354 338.884 301.374 338.97 301.371C339.074 301.371 339.171 301.346 339.243 301.31C339.397 301.235 339.491 301.11 339.519 300.941C339.559 300.697 339.394 300.468 339.15 300.428C339.06 300.414 338.967 300.428 338.892 300.464L338.888 300.468ZM16.9711 299.829C16.8921 299.789 16.806 299.772 16.7126 299.786C16.4683 299.819 16.2924 300.041 16.3247 300.288C16.3463 300.456 16.436 300.586 16.5869 300.665C16.655 300.7 16.7521 300.729 16.8562 300.733C16.9424 300.737 17.0501 300.722 17.0825 300.718C18.2892 300.64 19.4924 300.518 20.6991 300.442C22.7499 300.314 24.7863 300.242 26.8406 300.277C33.3196 300.392 39.8023 301.335 46.2706 301.335C46.5184 301.335 46.7196 301.135 46.7196 300.887C46.7196 300.64 46.5184 300.439 46.2706 300.439C39.8095 300.439 33.3305 299.495 26.855 299.384C24.7754 299.349 22.7139 299.419 20.6417 299.553C19.4349 299.628 18.2318 299.75 17.0215 299.829H16.9711ZM338.636 300.779C338.636 300.779 338.636 300.794 338.632 300.801V300.779H338.636ZM17.2082 300.152V300.173C17.2082 300.173 17.2082 300.158 17.2082 300.152ZM337.878 299.628C337.971 299.717 338.102 299.772 338.241 299.754C338.489 299.729 338.669 299.506 338.64 299.262C338.629 299.172 338.597 299.076 338.51 298.979C338.45 298.914 338.299 298.807 338.022 298.727C337.235 298.498 334.916 298.172 331.112 297.953C327.89 297.77 324.727 298.053 321.516 297.993C317.788 297.924 314.07 297.665 310.347 297.53C310.098 297.519 309.89 297.712 309.88 297.96C309.872 298.207 310.066 298.416 310.31 298.423C314.038 298.559 317.759 298.817 321.494 298.886C324.694 298.946 327.844 298.66 331.059 298.842C333.982 299.011 336.01 299.237 337.113 299.438C337.454 299.499 337.774 299.592 337.874 299.621L337.878 299.628ZM337.749 299.374V299.352C337.749 299.352 337.749 299.366 337.749 299.374ZM18.0091 299.025C18.1133 299 18.4364 298.918 18.7776 298.867C19.8875 298.707 21.9238 298.551 24.8509 298.494C28.0653 298.426 31.2079 298.827 34.4042 298.882C38.1394 298.95 41.8674 298.824 45.599 298.824C45.8468 298.824 46.0479 298.623 46.0479 298.376C46.0479 298.128 45.8468 297.928 45.599 297.928C41.871 297.928 38.1502 298.05 34.4222 297.985C31.2114 297.928 28.0617 297.53 24.8329 297.598C21.026 297.677 18.6951 297.917 17.8978 298.122C17.6212 298.193 17.4632 298.29 17.4021 298.354C17.3123 298.448 17.2765 298.545 17.2621 298.635C17.2261 298.879 17.3985 299.108 17.6428 299.14C17.7828 299.158 17.9122 299.115 18.0091 299.025ZM18.1456 298.777C18.1456 298.777 18.1456 298.764 18.1456 298.757V298.777ZM336.696 297.917C336.827 298.039 337.021 298.078 337.193 298.003C337.422 297.903 337.48 297.749 337.501 297.665C337.545 297.498 337.519 297.314 337.325 297.17C337.272 297.132 337.168 297.078 337.016 297.049C336.772 297.003 336.28 296.988 336.054 296.97C335.35 296.916 334.643 296.881 333.935 296.837C331.601 296.697 329.28 296.733 326.946 296.751C320.873 296.802 314.728 296.339 308.665 296.643C308.417 296.655 308.227 296.866 308.242 297.113C308.252 297.361 308.464 297.551 308.712 297.536C314.764 297.232 320.894 297.695 326.953 297.645C329.267 297.626 331.564 297.595 333.882 297.73C334.581 297.774 335.286 297.809 335.985 297.863C336.129 297.874 336.477 297.902 336.693 297.921L336.696 297.917ZM19.2518 297.357C19.4672 297.347 19.8156 297.332 19.9593 297.325C20.6632 297.3 21.3635 297.285 22.0675 297.272C24.3875 297.217 26.6826 297.336 28.9955 297.436C35.0508 297.705 41.1958 297.469 47.2295 297.993C47.4773 298.014 47.6928 297.831 47.7144 297.583C47.7359 297.336 47.5527 297.12 47.3049 297.1C41.2569 296.575 35.0975 296.812 29.0314 296.543C26.7005 296.439 24.384 296.324 22.0459 296.378C21.3384 296.392 20.6309 296.407 19.9233 296.436C19.6971 296.443 19.2051 296.443 18.9608 296.478C18.81 296.5 18.7023 296.55 18.6484 296.59C18.4508 296.73 18.4185 296.909 18.4545 297.078C18.4724 297.16 18.5263 297.317 18.7525 297.429C18.9213 297.511 19.1188 297.479 19.2481 297.361L19.2518 297.357ZM336.069 295.779C335.86 295.743 335.515 295.682 335.368 295.672C334.269 295.59 334.319 295.55 333.177 295.481C331.044 295.356 328.921 295.09 326.78 294.976C320.902 294.66 315.025 294.879 309.139 294.663C308.891 294.653 308.683 294.846 308.677 295.093C308.669 295.341 308.863 295.55 309.107 295.556C314.99 295.772 320.858 295.553 326.734 295.869C328.87 295.983 330.99 296.245 333.124 296.374C334.262 296.443 334.208 296.483 335.304 296.565C335.526 296.583 335.968 296.7 336.208 296.705C336.37 296.708 336.496 296.672 336.571 296.63C336.7 296.558 336.776 296.453 336.812 296.332C336.844 296.224 336.855 296.073 336.743 295.891C336.614 295.678 336.338 295.61 336.126 295.74C336.107 295.75 336.09 295.765 336.072 295.775L336.069 295.779ZM19.9593 295.249C19.9593 295.249 19.927 295.22 19.9089 295.209C19.7043 295.073 19.4242 295.13 19.2876 295.334C19.1692 295.513 19.1763 295.665 19.2015 295.772C19.2338 295.894 19.3056 296.001 19.4314 296.077C19.5067 296.123 19.6288 296.167 19.7941 296.167C20.0347 296.167 20.48 296.066 20.7027 296.058C21.7981 296.016 21.7479 295.976 22.8864 295.948C25.0232 295.897 27.153 295.71 29.29 295.675C35.1728 295.571 41.0305 296.005 46.917 296.005C47.1648 296.005 47.366 295.804 47.366 295.556C47.366 295.309 47.1648 295.108 46.917 295.108C41.027 295.108 35.1621 294.678 29.2756 294.779C27.1351 294.814 25.0053 295.001 22.8648 295.051C21.7191 295.076 21.7693 295.119 20.6668 295.162C20.5195 295.165 20.1711 295.215 19.9628 295.245L19.9593 295.249ZM335.009 294.846H335.026C335.214 294.879 335.86 294.103 335.157 293.961C335.07 293.949 334.988 293.961 334.912 293.993C334.969 293.956 335.048 293.943 335.157 293.961H335.127C334.815 293.903 332.915 293.588 332.56 293.548C330.06 293.25 327.488 293.254 324.975 293.16C318.499 292.924 312.012 293.128 305.53 292.891C305.282 292.884 305.074 293.075 305.066 293.322C305.056 293.57 305.253 293.777 305.498 293.785C311.98 294.021 318.462 293.817 324.941 294.053C327.431 294.143 329.981 294.137 332.451 294.434C332.801 294.478 334.671 294.785 334.976 294.836L335.009 294.843V294.846ZM20.9397 293.461C21.0295 293.454 21.0834 293.469 21.105 293.476C21.0511 293.461 20.9972 293.458 20.9397 293.461C20.2322 293.576 20.8463 294.373 21.0367 294.355H21.0546L21.087 294.347C21.3958 294.309 23.2743 294.065 23.6262 294.036C26.1079 293.827 28.6579 293.928 31.1468 293.928C37.6294 293.928 44.1013 294.366 50.5876 294.366C50.8354 294.366 51.0365 294.165 51.0365 293.918C51.0365 293.67 50.8354 293.469 50.5876 293.469C44.1013 293.469 37.6294 293.031 31.1468 293.031C28.6327 293.031 26.0612 292.934 23.5544 293.143C23.1988 293.172 21.2881 293.416 20.9721 293.458H20.9434L20.9397 293.461ZM21.3205 294.208C21.2917 294.244 21.2558 294.272 21.2127 294.297C21.263 294.269 21.2953 294.237 21.3205 294.208ZM21.184 293.508C21.2702 293.551 21.3384 293.62 21.3851 293.705C21.3528 293.638 21.2953 293.563 21.184 293.508ZM334.121 292.232C332.394 292.224 330.207 291.575 328.383 291.478C325.028 291.299 321.685 291.424 318.33 291.443C314.078 291.464 309.843 291.134 305.598 290.98C305.35 290.973 305.141 291.162 305.131 291.41C305.124 291.658 305.318 291.866 305.563 291.873C309.818 292.027 314.067 292.357 318.333 292.336C321.67 292.317 324.996 292.192 328.332 292.371C330.171 292.471 332.373 293.121 334.114 293.128C334.362 293.128 334.563 292.928 334.563 292.68C334.563 292.433 334.362 292.232 334.114 292.232H334.121ZM22.0029 292.669C23.7411 292.727 25.9678 292.157 27.8103 292.123C31.154 292.066 34.4689 292.314 37.8054 292.451C42.0649 292.626 46.3245 292.451 50.5839 292.451C50.8317 292.451 51.0329 292.249 51.0329 292.001C51.0329 291.754 50.8317 291.553 50.5839 291.553C46.3352 291.553 42.0901 291.729 37.8449 291.553C34.4904 291.414 31.1575 291.167 27.7959 291.224C25.9678 291.256 23.7627 291.826 22.0352 291.769C21.7874 291.762 21.579 291.956 21.5719 292.203C21.5647 292.451 21.7586 292.658 22.0064 292.665L22.0029 292.669ZM333.127 290.757C333.045 290.685 332.911 290.607 332.729 290.538C332.434 290.428 331.971 290.324 331.421 290.23C329.693 289.936 327.068 289.732 326.397 289.657C321.34 289.09 316.243 289.434 311.168 289.484C308.683 289.509 306.227 289.247 303.749 289.157C303.501 289.15 303.292 289.344 303.285 289.588C303.274 289.836 303.468 290.043 303.716 290.05C306.209 290.14 308.68 290.402 311.18 290.377C316.215 290.324 321.275 289.979 326.295 290.542C326.961 290.617 329.561 290.814 331.27 291.108C331.687 291.18 332.049 291.256 332.307 291.339C332.416 291.371 332.498 291.396 332.542 291.431C332.729 291.593 333.012 291.571 333.174 291.384C333.335 291.199 333.313 290.915 333.127 290.754V290.757ZM23.6406 291.033C23.6837 290.998 23.7699 290.98 23.8776 290.948C24.1397 290.876 24.5025 290.811 24.9227 290.757C26.6394 290.528 29.2469 290.424 29.9149 290.374C34.9538 289.993 39.9962 290.521 45.0279 290.757C47.524 290.876 50.0021 290.704 52.4982 290.704C52.746 290.704 52.9471 290.503 52.9471 290.255C52.9471 290.008 52.746 289.807 52.4982 289.807C50.0201 289.807 47.5527 289.979 45.071 289.861C40.0034 289.623 34.9215 289.097 29.8467 289.48C29.175 289.53 26.5389 289.638 24.8042 289.871C24.2511 289.946 23.7843 290.033 23.4861 290.133C23.3029 290.194 23.1665 290.269 23.0803 290.337C22.8864 290.491 22.8576 290.775 23.0121 290.969C23.1665 291.162 23.4502 291.192 23.6441 291.037L23.6406 291.033ZM331.201 289.677C331.298 289.789 331.45 289.846 331.604 289.824C331.849 289.789 332.018 289.56 331.981 289.316C331.967 289.219 331.921 289.107 331.809 289.006C331.718 288.924 331.482 288.813 331.134 288.727C329.884 288.418 326.774 288.095 326.21 288.063C319.627 287.683 313.039 287.475 306.45 287.235C306.202 287.224 305.993 287.418 305.986 287.665C305.979 287.913 306.169 288.12 306.416 288.128C313 288.368 319.58 288.576 326.159 288.953C326.759 288.989 330.401 289.351 331.201 289.674V289.677ZM25.0448 289.326C25.86 289.032 29.509 288.799 30.1124 288.787C36.6992 288.648 43.2824 288.677 49.8729 288.677C50.1207 288.677 50.3217 288.476 50.3217 288.229C50.3217 287.981 50.1207 287.78 49.8729 287.78C43.2788 287.78 36.6885 287.752 30.0945 287.891C29.5306 287.902 26.4096 288.11 25.149 288.376C24.797 288.451 24.56 288.551 24.4666 288.63C24.3517 288.727 24.3014 288.838 24.2834 288.935C24.2367 289.179 24.3984 289.412 24.6425 289.459C24.797 289.488 24.9479 289.434 25.0485 289.329L25.0448 289.326ZM330.376 288.16C330.465 288.254 330.592 288.311 330.731 288.304C331.072 288.286 331.163 288.042 331.184 287.956C331.213 287.844 331.238 287.63 330.994 287.458C330.947 287.425 330.825 287.364 330.609 287.296C330.264 287.185 329.596 287.001 328.534 286.732C326.347 286.18 324.249 285.965 322.004 285.883C315.5 285.645 308.971 285.682 302.456 285.445C302.208 285.438 301.999 285.628 301.992 285.876C301.982 286.123 302.179 286.331 302.424 286.338C308.938 286.575 315.464 286.538 321.971 286.776C324.152 286.854 326.188 287.063 328.315 287.597C329.409 287.873 330.07 288.053 330.376 288.157V288.16ZM25.9248 287.841C26.23 287.747 26.898 287.593 28.0042 287.357C30.1484 286.898 32.1883 286.765 34.3719 286.765C40.8833 286.765 47.4019 287.038 53.9205 287.038C54.1683 287.038 54.3694 286.837 54.3694 286.59C54.3694 286.342 54.1683 286.14 53.9205 286.14C47.4019 286.14 40.8797 285.868 34.3719 285.868C32.1237 285.868 30.0227 286.008 27.8139 286.481C26.7436 286.711 26.0684 286.869 25.72 286.969C25.5046 287.03 25.3788 287.088 25.3321 287.12C25.0808 287.282 25.0987 287.496 25.1238 287.608C25.1418 287.697 25.2244 287.941 25.5655 287.974C25.7056 287.988 25.8349 287.934 25.9248 287.844V287.841ZM329.69 286.413C329.69 286.413 329.712 286.424 329.722 286.428C329.956 286.513 330.214 286.392 330.297 286.159C330.343 286.033 330.368 285.843 330.175 285.67C330.157 285.657 330.056 285.581 329.856 285.528C329.065 285.323 324.988 284.473 323.782 284.358C319.292 283.931 316.359 284.394 312.092 284.591C308.967 284.735 305.785 284.416 302.66 284.301C302.412 284.294 302.204 284.483 302.196 284.731C302.19 284.978 302.38 285.187 302.628 285.197C305.777 285.312 308.985 285.632 312.134 285.488C316.351 285.294 319.257 284.828 323.696 285.251C324.874 285.362 328.857 286.195 329.628 286.396C329.647 286.399 329.672 286.406 329.687 286.409L329.69 286.413ZM329.543 286.306C329.434 286.187 329.396 286.011 329.453 285.851C329.409 285.968 329.384 286.14 329.543 286.306ZM26.6754 286.12C26.6754 286.12 26.7112 286.112 26.7328 286.105C27.5122 285.933 31.5203 285.247 32.7018 285.175C37.1518 284.914 40.0393 285.484 44.2486 285.832C47.3911 286.094 50.6091 285.889 53.7588 285.889C54.0066 285.889 54.2078 285.689 54.2078 285.441C54.2078 285.194 54.0066 284.993 53.7588 284.993C50.6343 284.993 47.4414 285.197 44.3204 284.939C40.068 284.588 37.1481 284.018 32.648 284.282C31.4377 284.354 27.3326 285.053 26.5353 285.23C26.3342 285.272 26.23 285.344 26.2121 285.359C26.011 285.528 26.0289 285.714 26.072 285.843C26.1474 286.08 26.4024 286.209 26.6395 286.13C26.6502 286.127 26.6646 286.123 26.6754 286.115V286.12ZM26.8513 285.983C26.9734 285.832 26.9663 285.685 26.9268 285.563C26.9734 285.71 26.9411 285.868 26.8513 285.983ZM328.332 284.695C328.4 284.839 328.544 284.943 328.713 284.953C328.961 284.968 329.173 284.777 329.187 284.53C329.198 284.304 329.14 284.175 329.073 284.082C328.993 283.978 328.857 283.884 328.566 283.827C326.612 283.429 324.568 283.26 322.589 283.006C315.176 282.048 307.725 282.729 300.29 282.195C300.042 282.177 299.827 282.364 299.808 282.612C299.79 282.859 299.977 283.073 300.225 283.092C307.641 283.627 315.076 282.941 322.475 283.899C324.414 284.15 326.414 284.315 328.332 284.702V284.695ZM28.094 284.451C30.0262 284.135 32.0303 284.043 33.9769 283.863C41.4041 283.178 48.8097 284.128 56.2405 283.863C56.4883 283.856 56.6823 283.648 56.6715 283.401C56.6643 283.153 56.456 282.959 56.2082 282.966C48.7595 283.232 41.3359 282.281 33.8942 282.966C31.9082 283.149 29.861 283.246 27.8929 283.573C27.6019 283.619 27.4619 283.709 27.3792 283.809C27.3039 283.899 27.2428 284.028 27.2464 284.254C27.25 284.501 27.4583 284.699 27.7062 284.695C27.8785 284.695 28.0258 284.591 28.0976 284.451H28.094ZM326.971 283.02C327.065 283.142 327.215 283.217 327.381 283.199C327.625 283.17 327.804 282.951 327.776 282.704C327.758 282.546 327.639 282.331 327.344 282.202C326.928 282.02 325.915 281.901 325.79 281.872C324.061 281.492 322.374 281.165 320.611 281.018C313.173 280.401 305.735 281.184 298.322 280.592C298.073 280.57 297.859 280.757 297.837 281.005C297.815 281.252 298.003 281.466 298.25 281.488C305.663 282.08 313.101 281.299 320.535 281.915C322.259 282.058 323.911 282.378 325.596 282.747C325.674 282.765 326.141 282.819 326.554 282.906C326.698 282.934 326.889 282.995 326.968 283.023L326.971 283.02ZM29.5127 282.826C29.5917 282.801 29.7856 282.747 29.9293 282.726C30.3458 282.654 30.8128 282.618 30.8953 282.604C32.5942 282.296 34.257 282.033 35.9845 281.955C43.4369 281.607 50.8426 282.662 58.2734 282.339C58.5212 282.328 58.7115 282.12 58.7007 281.872C58.6899 281.625 58.4817 281.434 58.2339 281.445C50.8031 281.769 43.3974 280.717 35.945 281.062C34.178 281.144 32.4756 281.409 30.7374 281.725C30.6117 281.747 29.5952 281.829 29.1715 281.998C28.8698 282.117 28.7441 282.328 28.7225 282.486C28.6866 282.729 28.8554 282.959 29.0996 282.995C29.2649 283.02 29.4193 282.951 29.5162 282.829L29.5127 282.826ZM326.896 282.854V282.866V282.848V282.859V282.854ZM326.892 282.829V282.844V282.826V282.829ZM29.5952 282.658V282.675V282.665V282.654V282.658ZM29.6024 282.632V282.65V282.637V282.632ZM326.332 280.585C319.598 279.067 313.158 279.354 306.281 279.347C303.565 279.343 300.864 278.931 298.15 278.834C297.901 278.827 297.693 279.017 297.683 279.264C297.675 279.512 297.866 279.72 298.113 279.727C300.836 279.827 303.547 280.24 306.277 280.244C313.086 280.251 319.461 279.96 326.131 281.46C326.372 281.513 326.612 281.363 326.666 281.122C326.72 280.882 326.569 280.642 326.325 280.588L326.332 280.585ZM30.4069 281.299C37.1266 280.04 43.4871 280.567 50.2931 280.804C53.019 280.9 55.7413 280.585 58.4673 280.585C58.7151 280.585 58.9163 280.384 58.9163 280.137C58.9163 279.889 58.7151 279.687 58.4673 279.687C55.7521 279.687 53.037 280.003 50.3217 279.906C43.4476 279.667 37.0261 279.145 30.2381 280.416C29.9939 280.463 29.8323 280.695 29.879 280.94C29.9257 281.184 30.1591 281.341 30.4034 281.299H30.4069ZM324.5 279.648C324.618 279.77 324.798 279.821 324.967 279.759C325.214 279.677 325.276 279.508 325.301 279.419C325.336 279.275 325.326 279.1 325.15 278.949C325.107 278.913 325.025 278.859 324.891 278.816C324.684 278.752 324.224 278.669 323.721 278.562C322.568 278.314 322.622 278.311 321.479 278.095C319.537 277.732 317.604 277.51 315.629 277.438C312.139 277.313 308.615 277.679 305.124 277.769C302.118 277.848 299.069 277.603 296.067 277.493C295.819 277.485 295.61 277.675 295.6 277.923C295.588 278.17 295.782 278.378 296.03 278.386C299.054 278.497 302.121 278.741 305.146 278.662C308.618 278.572 312.124 278.206 315.597 278.332C317.529 278.403 319.418 278.619 321.315 278.974C322.446 279.185 322.391 279.192 323.534 279.436C323.886 279.512 324.295 279.602 324.503 279.645L324.5 279.648ZM32.1057 279.548C32.3176 279.508 32.7271 279.436 33.0826 279.372C34.2319 279.172 34.178 279.16 35.3165 278.991C37.2271 278.705 39.1235 278.558 41.0558 278.558C44.5287 278.558 48.0196 279.053 51.489 279.267C54.5095 279.455 57.5838 279.322 60.6078 279.322C60.8556 279.322 61.0568 279.12 61.0568 278.873C61.0568 278.625 60.8556 278.425 60.6078 278.425C57.6017 278.425 54.5454 278.558 51.5465 278.371C48.0591 278.152 44.5503 277.66 41.0593 277.66C39.0804 277.66 37.1409 277.812 35.1872 278.102C34.0379 278.274 34.0918 278.282 32.9317 278.486C32.4254 278.575 31.9621 278.64 31.7537 278.697C31.6209 278.734 31.5347 278.787 31.488 278.819C31.3048 278.966 31.2869 279.139 31.3192 279.282C31.3407 279.376 31.3946 279.545 31.6388 279.637C31.8076 279.702 31.9908 279.659 32.1093 279.54L32.1057 279.548ZM324.63 278.934C324.63 278.934 324.618 278.938 324.615 278.941L324.637 278.931H324.63V278.934ZM324.644 278.928H324.637L324.655 278.924H324.644V278.928ZM324.658 278.92L324.68 278.913C324.68 278.913 324.665 278.916 324.658 278.92ZM32.0159 278.834L32.0303 278.844L32.0195 278.838C32.0195 278.838 32.0087 278.831 32.0051 278.831H31.998L32.0159 278.838V278.834ZM31.9764 278.816L31.9944 278.827H31.9872L31.9764 278.816ZM31.9764 278.816C31.9764 278.816 31.9621 278.809 31.9549 278.809L31.9764 278.816ZM323.757 277.04C321.361 276.729 318.973 276.162 316.513 275.996C309.958 275.555 301.831 276.018 295.528 276.205C295.28 276.212 295.086 276.42 295.093 276.667C295.1 276.915 295.309 277.108 295.556 277.102C301.831 276.915 309.925 276.448 316.451 276.89C318.891 277.055 321.26 277.615 323.638 277.926C323.882 277.958 324.108 277.787 324.141 277.538C324.173 277.296 324.001 277.069 323.753 277.037L323.757 277.04ZM33.0251 277.858C35.4134 277.632 37.7982 277.159 40.2441 277.083C46.7914 276.879 53.3422 277.632 59.8895 277.632C60.1373 277.632 60.3384 277.431 60.3384 277.184C60.3384 276.936 60.1373 276.736 59.8895 276.736C53.3315 276.736 46.7734 275.986 40.2153 276.19C37.7515 276.266 35.3453 276.742 32.9389 276.968C32.6911 276.99 32.5116 277.212 32.5331 277.456C32.5546 277.704 32.7738 277.883 33.0216 277.862L33.0251 277.858Z" fill="#525252"/>
<path fill-rule="evenodd" clip-rule="evenodd" d="M304.251 275.921L54.6638 276.453L24.2617 324.712H325.689L304.251 275.921Z" fill="#525252"/>
<path fill-rule="evenodd" clip-rule="evenodd" d="M250.422 258.072C250.422 258.072 250.433 269.048 244.039 272.374C244.039 272.374 236.469 276.065 230.826 278.424C230.826 278.424 219.718 281.897 223.855 285.19C223.855 285.19 221.312 287.138 224.379 289.516C224.379 289.516 225.338 290.219 228.489 290.29C228.489 290.29 236.559 290.352 257.184 281.976L268.861 267.657L257.561 253.405L250.418 258.065L250.422 258.072Z" fill="#E2BEA0"/>
<mask id="mask0_540_678" style="mask-type:luminance" maskUnits="userSpaceOnUse" x="222" y="253" width="47" height="38">
<path d="M250.422 258.072C250.422 258.072 250.433 269.048 244.039 272.374C244.039 272.374 236.469 276.065 230.826 278.424C230.826 278.424 219.718 281.897 223.855 285.19C223.855 285.19 221.312 287.138 224.379 289.516C224.379 289.516 225.338 290.219 228.489 290.29C228.489 290.29 236.559 290.352 257.184 281.976L268.861 267.657L257.561 253.405L250.418 258.065L250.422 258.072Z" fill="white"/>
</mask>
<g mask="url(#mask0_540_678)">
<path fill-rule="evenodd" clip-rule="evenodd" d="M248.989 259.14C248.989 259.14 253.838 264.184 257.949 265.203L258.848 255.368L247.944 250.88L248.992 259.14H248.989Z" fill="#E2BEA0"/>
<path fill-rule="evenodd" clip-rule="evenodd" d="M233.887 281.725C233.887 281.725 230.909 281.947 227.849 282.675C225.755 283.17 223.629 283.913 222.343 284.949C222.113 285.136 222.078 285.477 222.264 285.707C222.451 285.936 222.793 285.972 223.022 285.785C224.204 284.832 226.171 284.178 228.097 283.72C231.071 283.016 233.965 282.797 233.965 282.797C234.26 282.775 234.486 282.518 234.461 282.22C234.439 281.922 234.181 281.7 233.883 281.725H233.887Z" fill="#A38C79"/>
</g>
<path fill-rule="evenodd" clip-rule="evenodd" d="M258.2 270.261L256.724 281.56C256.724 281.56 256.48 283.863 253.245 286.14L224.574 300.596C224.574 300.596 219.147 303.355 221.438 306.138C221.438 306.138 222.355 306.924 223.195 306.992C223.195 306.992 222.408 308.18 224.118 309.442C224.118 309.442 224.965 310.148 227.957 308.951C227.957 308.951 225.328 312.068 227.368 313.456C227.368 313.456 228.345 314.238 230.263 313.578C230.263 313.578 229.915 315.27 232.192 316.064C232.192 316.064 233.75 316.569 236.626 314.83C236.626 314.83 236.163 315.83 237.018 316.752C237.018 316.752 238.064 317.746 243.189 316.62C243.189 316.62 253.769 314.126 264.155 310.536L279.204 304.847C279.204 304.847 285.324 302.347 285.396 295.912C285.396 295.912 285.385 291.812 283.873 289.247L283.367 276.775L267.586 265.659L258.205 270.261H258.2Z" fill="#F6CEAE"/>
<mask id="mask1_540_678" style="mask-type:luminance" maskUnits="userSpaceOnUse" x="220" y="265" width="66" height="53">
<path d="M258.2 270.261L256.724 281.56C256.724 281.56 256.48 283.863 253.245 286.14L224.574 300.596C224.574 300.596 219.147 303.355 221.438 306.138C221.438 306.138 222.355 306.924 223.195 306.992C223.195 306.992 222.408 308.18 224.118 309.442C224.118 309.442 224.965 310.148 227.957 308.951C227.957 308.951 225.328 312.068 227.368 313.456C227.368 313.456 228.345 314.238 230.263 313.578C230.263 313.578 229.915 315.27 232.192 316.064C232.192 316.064 233.75 316.569 236.626 314.83C236.626 314.83 236.163 315.83 237.018 316.752C237.018 316.752 238.064 317.746 243.189 316.62C243.189 316.62 253.769 314.126 264.155 310.536L279.204 304.847C279.204 304.847 285.324 302.347 285.396 295.912C285.396 295.912 285.385 291.812 283.873 289.247L283.367 276.775L267.586 265.659L258.205 270.261H258.2Z" fill="white"/>
</mask>
<g mask="url(#mask1_540_678)">
<path fill-rule="evenodd" clip-rule="evenodd" d="M241.288 310.762C241.288 310.762 239.205 311.325 237.532 312.416C236.303 313.215 235.323 314.305 235.305 315.608C235.301 315.906 235.539 316.15 235.837 316.153C236.135 316.156 236.379 315.92 236.382 315.623C236.397 314.658 237.209 313.911 238.121 313.315C239.658 312.315 241.573 311.799 241.573 311.799C241.859 311.72 242.028 311.426 241.953 311.138C241.874 310.852 241.579 310.683 241.292 310.762H241.288ZM235.772 308.083C235.772 308.083 232.331 309.65 230.42 311.536C229.483 312.462 228.931 313.484 229.088 314.435C229.135 314.73 229.415 314.927 229.706 314.88C230 314.83 230.198 314.553 230.147 314.26C230.04 313.603 230.525 312.942 231.175 312.305C232.97 310.533 236.213 309.065 236.213 309.065C236.483 308.944 236.605 308.624 236.479 308.352C236.357 308.083 236.037 307.961 235.765 308.086L235.772 308.083ZM232.13 305.471C232.13 305.471 226.613 308.121 225.209 309.632C225.009 309.85 225.019 310.192 225.238 310.392C225.457 310.593 225.798 310.583 225.999 310.364C227.336 308.929 232.594 306.439 232.594 306.439C232.863 306.31 232.974 305.991 232.848 305.722C232.719 305.453 232.4 305.342 232.13 305.467V305.471ZM228.959 302.031C228.959 302.031 226.028 303.294 223.956 304.8C222.994 305.499 222.221 306.27 221.923 306.984C221.808 307.257 221.938 307.573 222.214 307.688C222.487 307.802 222.803 307.673 222.918 307.397C223.158 306.824 223.816 306.235 224.592 305.668C226.578 304.223 229.386 303.018 229.386 303.018C229.659 302.899 229.784 302.583 229.667 302.31C229.548 302.038 229.232 301.912 228.959 302.031Z" fill="#E2BEA0"/>
<path fill-rule="evenodd" clip-rule="evenodd" d="M257.25 273.199C257.25 273.199 259.939 277.137 273.554 279.214C273.554 279.214 277.907 280.279 284.617 290.23L287.292 282.829L285.367 268.475L264.116 267.065L256.599 264.425L255.992 272.556L257.246 273.195L257.25 273.199Z" fill="#E2BEA0"/>
</g>
<path fill-rule="evenodd" clip-rule="evenodd" d="M260.359 116.513L259.713 126.923L256.383 167.897L249.589 257.849C249.589 257.849 252.387 260.063 254.146 260.996L253.471 266.627C253.471 266.627 261.746 279.598 292.065 277.302L300.138 169.62L323.031 85.7729C323.031 85.7729 284.196 96.5663 282.645 97.3303C281.093 98.0979 260.359 116.52 260.359 116.52V116.513Z" fill="#5C6248"/>
<mask id="mask2_540_678" style="mask-type:luminance" maskUnits="userSpaceOnUse" x="249" y="85" width="75" height="193">
<path d="M260.359 116.513L259.713 126.923L256.383 167.897L249.589 257.849C249.589 257.849 252.387 260.063 254.146 260.996L253.471 266.627C253.471 266.627 261.746 279.598 292.065 277.302L300.138 169.62L323.031 85.7729C323.031 85.7729 284.196 96.5663 282.645 97.3303C281.093 98.0979 260.359 116.52 260.359 116.52V116.513Z" fill="white"/>
</mask>
<g mask="url(#mask2_540_678)">
<path fill-rule="evenodd" clip-rule="evenodd" d="M268.39 103.629C280.831 91.9174 315.913 59.1536 318.955 59.0891C322.661 59.0101 338.949 83.6422 338.949 83.6422L323.653 139.873L300.746 183.954C295.589 165.229 300.498 147.484 300.498 147.484L313.488 102.883C288.708 119.147 269.586 120.191 265.858 120.229L262.159 164.498L260.729 183.444L256.405 238.659C256.405 238.659 255.356 254.374 254.143 261L246.338 264.267L240.416 212.402L251.502 114.15L265.474 98.9444L268.386 103.633L268.39 103.629Z" fill="#454A34"/>
</g>
<path fill-rule="evenodd" clip-rule="evenodd" d="M248.17 140.02C248.17 140.02 247.595 146.229 248.425 149.827C248.425 149.827 249.057 152.46 252.961 154.906C256.865 157.352 256.758 149.117 256.758 149.117L251.689 140.572C251.689 140.572 249.484 139.711 249.101 140.059" fill="#E2BEA0"/>
<path fill-rule="evenodd" clip-rule="evenodd" d="M252.846 149.382L252.337 155.62C252.337 155.62 252.268 157.015 253.64 160.071C253.64 160.071 255.454 163.626 256.617 171.962L257.849 180.008C257.849 180.008 258.496 183.595 260.205 183.538C260.205 183.538 262.313 183.634 262.679 181.051C262.679 181.051 264.906 180.596 264.336 172.328C264.336 172.328 265.276 175.618 267.122 174.603C267.122 174.603 268.315 173.899 267.98 170.574L266.712 159.498C266.712 159.498 265.84 150.125 266.076 143.155L254.089 146.361L252.846 149.382Z" fill="#F6CEAE"/>
<mask id="mask3_540_678" style="mask-type:luminance" maskUnits="userSpaceOnUse" x="252" y="143" width="17" height="41">
<path d="M252.846 149.382L252.337 155.62C252.337 155.62 252.268 157.015 253.64 160.071C253.64 160.071 255.454 163.626 256.617 171.962L257.849 180.008C257.849 180.008 258.496 183.595 260.205 183.538C260.205 183.538 262.313 183.634 262.679 181.051C262.679 181.051 264.906 180.596 264.336 172.328C264.336 172.328 265.276 175.618 267.122 174.603C267.122 174.603 268.315 173.899 267.98 170.574L266.712 159.498C266.712 159.498 265.84 150.125 266.076 143.155L254.089 146.361L252.846 149.382Z" fill="white"/>
</mask>
<g mask="url(#mask3_540_678)">
<path fill-rule="evenodd" clip-rule="evenodd" d="M255.766 157.715C255.766 157.715 258.84 172.834 259.44 178.157C259.45 178.282 259.537 179.265 259.964 180.198C260.467 181.299 261.415 182.314 263.136 182.059C263.431 182.016 263.635 181.744 263.592 181.45C263.548 181.156 263.275 180.954 262.981 180.998C261.868 181.163 261.275 180.467 260.948 179.753C260.575 178.939 260.521 178.074 260.521 178.074C260.521 178.068 260.521 178.056 260.521 178.049C259.922 172.708 256.829 157.503 256.829 157.503C256.771 157.212 256.484 157.023 256.194 157.083C255.903 157.14 255.712 157.428 255.774 157.718L255.766 157.715ZM260.345 156.645C260.345 156.645 261.85 163.001 262.64 168.544C262.665 168.734 263.372 174.115 264.259 176.029C264.385 176.299 264.704 176.417 264.974 176.292C265.243 176.166 265.362 175.847 265.236 175.578C264.371 173.713 263.707 168.404 263.707 168.404V168.397C262.909 162.809 261.394 156.398 261.394 156.398C261.326 156.108 261.035 155.928 260.747 155.996C260.456 156.065 260.277 156.355 260.349 156.645H260.345Z" fill="#E2BEA0"/>
</g>
<path fill-rule="evenodd" clip-rule="evenodd" d="M180.542 68.4439C180.542 68.4439 180.542 70.5675 181.996 72.3646C181.996 72.3646 183.271 73.6559 186.141 76.0055C186.141 76.0055 196.74 88.621 203.595 93.4814C203.595 93.4814 212.032 98.9803 221.679 101.305L247.254 139.513C247.254 139.513 250.587 144.754 251.991 149.78C251.991 149.78 260.981 151.58 268.121 141.842C268.121 141.842 263.868 131.386 257.347 118.935L248.411 102.133C248.411 102.133 253.306 103.36 255.662 102.363C255.662 102.363 257.662 112.468 261.282 120.159C261.282 120.159 293.505 125.187 334.822 72.9708C334.822 72.9708 326.856 40.2858 263.19 29.2199C263.19 29.2199 221.266 22.6664 192.71 33.1154L184.183 35.734L179.005 35.8953L179.013 36.1106L175.542 58.6801L180.542 68.4404V68.4439Z" fill="#8F9B87"/>
<mask id="mask4_540_678" style="mask-type:luminance" maskUnits="userSpaceOnUse" x="175" y="27" width="160" height="123">
<path d="M180.542 68.4439C180.542 68.4439 180.542 70.5675 181.996 72.3646C181.996 72.3646 183.271 73.6559 186.141 76.0055C186.141 76.0055 196.74 88.621 203.595 93.4814C203.595 93.4814 212.032 98.9803 221.679 101.305L247.254 139.513C247.254 139.513 250.587 144.754 251.991 149.78C251.991 149.78 260.981 151.58 268.121 141.842C268.121 141.842 263.868 131.386 257.347 118.935L248.411 102.133C248.411 102.133 253.306 103.36 255.662 102.363C255.662 102.363 257.662 112.468 261.282 120.159C261.282 120.159 293.505 125.187 334.822 72.9708C334.822 72.9708 326.856 40.2858 263.19 29.2199C263.19 29.2199 221.266 22.6664 192.71 33.1154L184.183 35.734L179.005 35.8953L179.013 36.1106L175.542 58.6801L180.542 68.4404V68.4439Z" fill="white"/>
</mask>
<g mask="url(#mask4_540_678)">
<path fill-rule="evenodd" clip-rule="evenodd" d="M248.41 102.137C248.41 102.137 227.249 59.828 214.82 42.083C214.82 42.083 237.413 73.1395 246.971 88.7394C246.971 88.7394 254.807 100.734 260.061 99.8485C260.061 99.8485 263.707 100.444 274.158 86.2823C274.158 86.2823 282.393 74.4416 293.427 67.0093C293.427 67.0093 263.746 104.364 262.611 122.117L248.41 102.133V102.137ZM186.001 72.0634C186.001 72.0634 199.613 86.5441 203.208 85.9953C203.208 85.9953 209.106 86.8742 201.735 70.9657L221.682 101.308L206.419 120.858L183.139 92.1507L182.37 74.1976L185.355 70.2412L186.004 72.0634H186.001Z" fill="#747F6C"/>
<path fill-rule="evenodd" clip-rule="evenodd" d="M248.396 141.684C248.396 141.684 256.83 141.745 264.651 132.113L268.483 136.587L270.352 148.416C270.352 148.416 258.56 157.768 257.917 157.973C257.275 158.177 247.843 155.06 247.843 155.06L248.393 141.684H248.396ZM184.166 35.741C184.166 35.741 186.31 61.6179 186.113 76.0197L175.402 81.4362L173.24 57.9089L175.909 31.0527L185.517 31.4617L184.166 35.741Z" fill="#E0C389"/>
</g>
<path fill-rule="evenodd" clip-rule="evenodd" d="M123.8 58.2605C123.8 58.2605 147.245 77.5301 161.679 78.9684C161.679 78.9684 171.172 80.3962 172.885 67.9993C172.885 67.9993 173.564 67.2855 180.56 68.4871L179.008 36.1143L175.812 34.5108L155.717 24.6357L128.706 29.776L122.442 54.0925L123.797 58.2642L123.8 58.2605Z" fill="#F6CEAE"/>
<path fill-rule="evenodd" clip-rule="evenodd" d="M134.837 39.8015C134.837 39.8015 140.533 43.819 144.739 39.7764C144.739 39.7764 150.65 33.4309 155.391 37.4449C155.391 37.4449 152.625 30.4286 157.944 30.4179C157.944 30.4179 163.429 30.2564 168.339 40.709C168.339 40.709 172.494 42.4344 175.414 37.7318C175.414 37.7318 176.764 35.3357 175.651 33.5135C175.651 33.5135 173.854 30.7299 168.546 25.8659C168.546 25.8659 160.071 18.5376 155.786 15.5425L142.533 21.0055L134.837 36.4584V39.8015Z" fill="#7E4210"/>
<path fill-rule="evenodd" clip-rule="evenodd" d="M100.955 40.8454C100.955 40.8454 107.455 17.9423 131.163 0C131.163 0 142.756 5.23347 156.033 15.6466C156.033 15.6466 139.068 30.9202 123.696 58.7985C123.696 58.7985 110.896 50.6918 100.958 40.8454H100.955Z" fill="#5C6248"/>
<mask id="mask5_540_678" style="mask-type:luminance" maskUnits="userSpaceOnUse" x="100" y="0" width="57" height="59">
<path d="M100.955 40.8454C100.955 40.8454 107.455 17.9423 131.163 0C131.163 0 142.756 5.23347 156.033 15.6466C156.033 15.6466 139.068 30.9202 123.696 58.7985C123.696 58.7985 110.896 50.6918 100.958 40.8454H100.955Z" fill="white"/>
</mask>
<g mask="url(#mask5_540_678)">
<path fill-rule="evenodd" clip-rule="evenodd" d="M102.082 37.1688C102.082 37.1688 114.103 48.5468 118.305 48.6473C118.305 48.6473 120.596 48.945 125.348 44.0165C125.348 44.0165 137.682 28.7966 156.224 13.2039L168.166 17.3469L149.365 64.6813C149.365 64.6813 118.449 78.0429 117.077 77.8421C115.705 77.6413 97.5823 56.0043 97.5823 56.0043L92.7983 41.1001L102.079 37.1652L102.082 37.1688Z" fill="#454A34"/>
</g>
</g>
<defs>
<filter id="filter0_d_540_678" x="0.56543" y="0" width="353.87" height="333.045" filterUnits="userSpaceOnUse" color-interpolation-filters="sRGB">
<feFlood flood-opacity="0" result="BackgroundImageFix"/>
<feColorMatrix in="SourceAlpha" type="matrix" values="0 0 0 0 0 0 0 0 0 0 0 0 0 0 0 0 0 0 127 0" result="hardAlpha"/>
<feOffset dy="4"/>
<feGaussianBlur stdDeviation="2"/>
<feComposite in2="hardAlpha" operator="out"/>
<feColorMatrix type="matrix" values="0 0 0 0 0 0 0 0 0 0 0 0 0 0 0 0 0 0 0.25 0"/>
<feBlend mode="normal" in2="BackgroundImageFix" result="effect1_dropShadow_540_678"/>
<feBlend mode="normal" in="SourceGraphic" in2="effect1_dropShadow_540_678" result="shape"/>
</filter>
</defs>
</svg>
