<svg width="355" height="139" viewBox="0 0 355 139" fill="none" xmlns="http://www.w3.org/2000/svg">
<g filter="url(#filter0_d_540_390)">
<path fill-rule="evenodd" clip-rule="evenodd" d="M345.823 127.145C344.438 127.283 343.05 127.508 342.119 127.506C336.166 127.495 331.027 128.126 325.128 127.408C324.94 127.386 324.773 127.517 324.751 127.703C324.729 127.891 324.859 128.058 325.047 128.08C330.974 128.801 336.135 128.172 342.119 128.183C343.304 128.183 345.227 127.826 346.946 127.734C348.02 127.677 349.01 127.714 349.657 128.053C349.823 128.139 350.029 128.075 350.116 127.909C350.202 127.744 350.137 127.539 349.972 127.451C349.689 127.305 349.35 127.202 348.971 127.136C349.034 127.079 349.074 126.998 349.08 126.906C349.091 126.719 348.947 126.56 348.76 126.549C345.037 126.343 340.973 126.584 337.155 126.516C332.98 126.443 328.832 126.082 324.666 125.944C324.48 125.938 324.322 126.085 324.317 126.272C324.311 126.459 324.458 126.616 324.644 126.621C328.812 126.763 332.966 127.121 337.145 127.193C339.981 127.243 342.954 127.121 345.823 127.142V127.145ZM6.05276 126.194C5.67047 126.247 5.32612 126.337 5.03871 126.475C4.87061 126.557 4.79741 126.759 4.87874 126.928C4.96009 127.096 5.16343 127.167 5.33154 127.088C5.99312 126.77 6.98547 126.766 8.05645 126.86C9.77274 127.009 11.6761 127.432 12.8637 127.471C18.845 127.66 23.9776 128.463 29.929 127.94C30.116 127.923 30.2543 127.758 30.2381 127.574C30.2218 127.386 30.0564 127.248 29.872 127.265C23.9476 127.784 18.8395 126.982 12.8853 126.792C11.9554 126.763 10.5753 126.492 9.19793 126.308C12.0665 126.383 15.0355 126.606 17.8742 126.652C22.0525 126.717 26.2171 126.497 30.3899 126.497C30.5769 126.497 30.7288 126.345 30.7288 126.158C30.7288 125.971 30.5769 125.819 30.3899 125.819C26.2226 125.819 22.0606 126.039 17.8851 125.973C14.0675 125.914 10.0168 125.535 6.28865 125.616C6.10157 125.622 5.95244 125.776 5.95786 125.962C5.95786 126.056 5.99853 126.137 6.05818 126.196L6.05276 126.194ZM348.809 125.556C348.717 125.565 348.546 125.575 348.394 125.578C347.742 125.589 346.78 125.559 346.662 125.554C344.693 125.488 342.746 125.269 340.777 125.204C334.381 124.989 328.002 125.133 321.595 124.919C321.407 124.913 321.251 125.06 321.245 125.247C321.24 125.434 321.386 125.591 321.573 125.596C327.978 125.811 334.36 125.668 340.756 125.881C342.724 125.946 344.671 126.166 346.64 126.234C346.783 126.24 348.047 126.28 348.678 126.251C348.881 126.24 349.034 126.218 349.098 126.194C349.291 126.126 349.337 125.984 349.348 125.9C349.361 125.806 349.348 125.681 349.212 125.572C349.093 125.48 348.931 125.478 348.814 125.556H348.809ZM348.684 125.968C348.7 126.014 348.732 126.06 348.787 126.104C348.741 126.066 348.706 126.019 348.684 125.968ZM6.27781 124.617C6.16121 124.534 6.00125 124.531 5.87924 124.617C5.74096 124.722 5.72469 124.845 5.73283 124.938C5.74096 125.024 5.78163 125.166 5.97142 125.241C6.03649 125.266 6.18562 125.296 6.38897 125.312C7.018 125.364 8.28421 125.364 8.42519 125.364C10.3936 125.364 12.3485 125.209 14.317 125.209C20.7185 125.209 27.0874 125.567 33.497 125.567C33.6842 125.567 33.836 125.415 33.836 125.228C33.836 125.041 33.6842 124.889 33.497 124.889C27.0874 124.889 20.7158 124.531 14.317 124.531C12.3485 124.531 10.3936 124.685 8.42519 124.685C8.30318 124.685 7.34065 124.685 6.68993 124.654C6.5381 124.645 6.36728 124.626 6.27509 124.615L6.27781 124.617ZM6.38626 125.035C6.36728 125.079 6.33474 125.119 6.29678 125.155C6.34288 125.117 6.36999 125.077 6.38626 125.035ZM348.364 124.124C345.159 124.127 341.837 123.905 338.597 123.85C333.389 123.761 328.181 123.962 322.972 123.789C322.785 123.783 322.628 123.929 322.622 124.116C322.617 124.304 322.763 124.461 322.951 124.466C328.162 124.643 333.375 124.439 338.586 124.529C341.832 124.582 345.159 124.808 348.366 124.803C348.554 124.803 348.706 124.65 348.706 124.463C348.706 124.277 348.554 124.124 348.366 124.124H348.364ZM6.7523 123.878C9.95711 123.989 13.2894 123.878 16.5376 123.932C21.7488 124.019 26.9518 124.393 32.1658 124.393C32.3529 124.393 32.5047 124.241 32.5047 124.054C32.5047 123.867 32.3529 123.715 32.1658 123.715C26.9546 123.715 21.7569 123.338 16.5484 123.254C13.3056 123.2 9.9788 123.311 6.7767 123.2C6.58961 123.195 6.43235 123.34 6.42693 123.528C6.4215 123.715 6.56791 123.872 6.755 123.878H6.7523ZM347.786 122.617C344.684 122.593 341.591 122.262 338.481 122.308C334.766 122.365 331.079 122.672 327.354 122.601C324.677 122.552 322.02 122.234 319.345 122.28C319.157 122.284 319.008 122.438 319.01 122.625C319.013 122.812 319.168 122.961 319.355 122.959C322.022 122.913 324.675 123.23 327.343 123.279C331.073 123.346 334.769 123.04 338.492 122.985C341.596 122.939 344.684 123.27 347.781 123.294C347.968 123.294 348.119 123.145 348.123 122.959C348.123 122.772 347.974 122.619 347.786 122.617ZM7.3976 122.392C10.494 122.47 13.593 122.243 16.6921 122.392C20.4094 122.573 24.0913 123.002 27.8222 123.059C30.4902 123.099 33.15 122.871 35.8153 123.007C36.0024 123.018 36.1623 122.875 36.1704 122.687C36.1787 122.501 36.0349 122.341 35.8506 122.332C33.1772 122.194 30.5064 122.424 27.833 122.384C24.1077 122.327 20.4365 121.898 16.7247 121.717C13.6202 121.565 10.5156 121.793 7.41386 121.717C7.22677 121.712 7.07223 121.861 7.0668 122.048C7.06139 122.234 7.21051 122.389 7.3976 122.394V122.392ZM347.309 121.088C345.729 120.6 340.111 120.995 338.156 120.96C332.407 120.855 326.679 120.627 320.936 120.434C320.749 120.429 320.592 120.575 320.586 120.762C320.581 120.949 320.727 121.107 320.914 121.112C326.662 121.305 332.391 121.535 338.145 121.638C340.058 121.673 345.56 121.256 347.109 121.736C347.287 121.789 347.477 121.69 347.532 121.511C347.586 121.331 347.486 121.142 347.306 121.088H347.309ZM8.12966 120.857C9.69682 120.432 15.1765 121.031 17.0934 121.061C22.8469 121.15 28.5814 121.112 34.3322 121.112C34.5193 121.112 34.6711 120.96 34.6711 120.773C34.6711 120.586 34.5193 120.434 34.3322 120.434C28.5841 120.434 22.8524 120.472 17.1015 120.383C15.1467 120.353 9.55041 119.767 7.95071 120.204C7.77176 120.253 7.6633 120.44 7.7121 120.619C7.76092 120.8 7.948 120.906 8.12695 120.857H8.12966ZM346.016 119.485C345.528 119.317 344.641 119.244 343.584 119.236C341.225 119.22 337.993 119.504 336.697 119.529C331.009 119.634 325.439 119.252 319.764 119.062C319.577 119.057 319.42 119.203 319.415 119.39C319.409 119.577 319.556 119.735 319.742 119.74C325.428 119.93 331.011 120.312 336.711 120.206C338.001 120.182 341.228 119.897 343.578 119.914C344.541 119.919 345.348 119.971 345.793 120.125C345.97 120.185 346.162 120.093 346.224 119.916C346.287 119.74 346.192 119.548 346.016 119.485ZM9.50702 119.29C9.95711 119.152 10.7678 119.127 11.7303 119.152C14.0811 119.214 17.294 119.607 18.5819 119.675C24.2731 119.973 29.8666 119.778 35.5577 119.778C35.7448 119.778 35.8966 119.626 35.8966 119.439C35.8966 119.252 35.7448 119.1 35.5577 119.1C29.8801 119.1 24.2974 119.295 18.6199 118.997C17.3266 118.929 14.1082 118.536 11.7493 118.474C10.6919 118.447 9.80257 118.487 9.30909 118.642C9.13015 118.696 9.02983 118.886 9.08405 119.065C9.13828 119.244 9.32808 119.344 9.50702 119.29ZM345.381 118.273C345.446 118.412 345.598 118.496 345.755 118.463C345.94 118.425 346.06 118.249 346.021 118.065C345.967 117.799 345.791 117.65 345.514 117.604C345.374 117.579 345.194 117.587 345.004 117.612C344.798 117.639 344.577 117.688 344.408 117.682C342.516 117.62 340.632 117.468 338.735 117.441C332.052 117.341 325.396 117.661 318.715 117.435C318.528 117.43 318.371 117.576 318.366 117.764C318.36 117.951 318.506 118.108 318.693 118.113C325.38 118.338 332.041 118.018 338.728 118.119C340.617 118.146 342.5 118.298 344.386 118.36C344.614 118.368 344.934 118.298 345.205 118.273C345.26 118.268 345.335 118.273 345.379 118.273H345.381ZM9.98964 117.454C10.033 117.454 10.1117 117.454 10.1659 117.46C10.437 117.492 10.7542 117.574 10.982 117.574C12.8718 117.574 14.7562 117.487 16.646 117.522C23.3323 117.644 29.9778 118.189 36.6667 118.189C36.8538 118.189 37.0056 118.037 37.0056 117.85C37.0056 117.663 36.8538 117.511 36.6667 117.511C29.9805 117.511 23.3404 116.969 16.6596 116.844C14.7671 116.809 12.8746 116.896 10.982 116.896C10.8166 116.896 10.5943 116.842 10.3882 116.806C10.2011 116.777 10.0222 116.76 9.87848 116.779C9.60193 116.817 9.41755 116.958 9.35518 117.221C9.31181 117.403 9.42297 117.587 9.60463 117.631C9.7619 117.669 9.91915 117.59 9.98694 117.454H9.98964ZM10.6973 115.811C13.2297 116.449 18.1101 115.893 20.9246 115.985C25.786 116.145 30.6203 116.728 35.4899 116.907C35.6771 116.915 35.8342 116.768 35.8424 116.581C35.8478 116.394 35.7041 116.237 35.517 116.232C30.6475 116.053 25.8104 115.47 20.9489 115.31C18.1752 115.218 13.3626 115.784 10.8654 115.158C10.6838 115.112 10.4994 115.223 10.4533 115.405C10.4072 115.586 10.5184 115.771 10.7 115.817L10.6973 115.811ZM344.601 115.944C342.079 116.487 337.294 115.76 334.517 115.76C329.653 115.757 324.797 116.177 319.922 116.194C319.735 116.194 319.582 116.345 319.582 116.533C319.582 116.72 319.735 116.872 319.922 116.872C324.795 116.855 329.65 116.435 334.514 116.438C337.331 116.438 342.185 117.159 344.741 116.609C344.923 116.568 345.039 116.389 345.002 116.207C344.961 116.026 344.783 115.909 344.598 115.947L344.601 115.944ZM343.741 114.545C343.591 114.537 343.318 114.521 343.215 114.513C342.301 114.445 342.361 114.388 341.449 114.298C339.105 114.071 336.733 113.894 334.374 113.856C328.284 113.759 322.075 113.664 315.994 113.908C315.806 113.916 315.659 114.073 315.668 114.26C315.676 114.447 315.834 114.594 316.02 114.586C322.088 114.342 328.284 114.437 334.363 114.534C336.702 114.572 339.055 114.748 341.383 114.974C342.299 115.063 342.242 115.117 343.161 115.188C343.367 115.204 343.898 115.234 343.977 115.212C344.178 115.163 344.224 115.014 344.237 114.938C344.246 114.889 344.275 114.624 343.955 114.534C343.882 114.513 343.806 114.518 343.741 114.542V114.545ZM11.7737 113.783C11.7086 113.756 11.6327 113.748 11.5595 113.767C11.2369 113.848 11.2559 114.114 11.264 114.16C11.2748 114.236 11.3155 114.388 11.5134 114.445C11.5893 114.467 12.1235 114.456 12.3296 114.445C13.2514 114.407 13.1944 114.347 14.1163 114.29C16.4508 114.144 18.8097 114.046 21.1496 114.087C27.2258 114.193 33.4238 114.307 39.4784 114.751C39.6654 114.765 39.8281 114.624 39.8417 114.437C39.8552 114.25 39.7143 114.087 39.5272 114.073C33.4591 113.626 27.2501 113.512 21.1605 113.406C18.8016 113.366 16.4237 113.463 14.073 113.612C13.1592 113.669 13.2161 113.726 12.3024 113.767C12.1967 113.772 11.9256 113.778 11.7737 113.781V113.783ZM342.702 112.609C342.483 112.598 342.019 112.574 341.83 112.569C341.125 112.544 340.422 112.523 339.717 112.498C337.885 112.436 336.036 112.419 334.203 112.417C328.471 112.406 322.749 112.647 317.021 112.457C316.833 112.452 316.676 112.598 316.671 112.785C316.666 112.973 316.811 113.13 316.999 113.135C322.736 113.328 328.466 113.086 334.203 113.097C336.03 113.1 337.871 113.119 339.696 113.179C340.398 113.203 341.103 113.225 341.808 113.249C342.084 113.257 342.8 113.303 342.903 113.292C343.158 113.263 343.201 113.057 343.21 113.002C343.215 112.972 343.226 112.666 342.871 112.601C342.814 112.59 342.754 112.596 342.702 112.612V112.609ZM12.8881 111.883C12.8365 111.864 12.7797 111.856 12.72 111.864C12.362 111.915 12.3648 112.222 12.3675 112.251C12.373 112.308 12.4082 112.514 12.6658 112.555C12.7661 112.571 13.4846 112.55 13.7611 112.55H15.8733C17.7007 112.55 19.5418 112.593 21.3664 112.653C27.101 112.834 32.8166 113.268 38.5564 113.268C38.7435 113.268 38.8953 113.116 38.8953 112.929C38.8953 112.742 38.7435 112.59 38.5564 112.59C32.8219 112.59 27.1145 112.156 21.3881 111.975C19.5553 111.918 17.7089 111.872 15.8733 111.872H13.7611C13.574 111.872 13.1105 111.88 12.8881 111.883ZM342.198 111.15C342.082 111.191 341.734 111.18 341.247 111.161C339.048 111.08 334.3 110.584 333.349 110.538C327.38 110.25 321.337 110.581 315.359 110.6C315.171 110.6 315.019 110.752 315.019 110.939C315.019 111.126 315.171 111.278 315.359 111.278C321.323 111.259 327.356 110.928 333.313 111.213C334.267 111.259 339.018 111.755 341.219 111.836C341.832 111.858 342.266 111.836 342.413 111.79C342.588 111.731 342.684 111.538 342.623 111.362C342.564 111.186 342.371 111.091 342.196 111.15H342.198ZM13.2134 111.077C13.3598 111.132 13.791 111.167 14.4037 111.164C16.6053 111.156 21.3746 110.82 22.3291 110.806C28.294 110.719 34.3078 111.254 40.27 111.473C40.4571 111.481 40.6143 111.335 40.6198 111.148C40.6279 110.961 40.4816 110.803 40.2945 110.798C34.3213 110.578 28.294 110.044 22.3208 110.131C21.3664 110.145 16.6027 110.481 14.4037 110.489C13.9157 110.489 13.5687 110.489 13.4548 110.446C13.2785 110.381 13.0833 110.467 13.0183 110.643C12.9532 110.82 13.0399 111.015 13.2161 111.08L13.2134 111.077ZM340.831 110.036C340.916 110.145 341.062 110.193 341.201 110.15C341.398 110.088 341.46 109.971 341.482 109.917C341.515 109.833 341.517 109.751 341.491 109.67C341.471 109.61 341.431 109.543 341.35 109.486C341.306 109.456 341.217 109.415 341.09 109.391C340.824 109.339 340.281 109.301 340.038 109.277C339.224 109.19 339.278 109.22 338.411 109.171C336.111 109.036 333.822 108.865 331.518 108.786C325.754 108.594 320 108.708 314.228 108.515C314.04 108.51 313.884 108.656 313.878 108.843C313.873 109.03 314.019 109.187 314.206 109.193C319.979 109.388 325.732 109.272 331.496 109.464C333.796 109.543 336.076 109.714 338.373 109.849C339.221 109.898 339.167 109.868 339.964 109.952C340.161 109.974 340.569 109.998 340.831 110.036ZM14.8619 109.375C15.1277 109.345 15.5344 109.334 15.7322 109.32C16.5321 109.261 16.4779 109.291 17.3293 109.269C19.6285 109.212 21.9142 109.114 24.2161 109.114C29.9859 109.114 35.7286 109.421 41.5065 109.421C41.6935 109.421 41.8453 109.269 41.8453 109.082C41.8453 108.895 41.6935 108.743 41.5065 108.743C35.7286 108.743 29.9859 108.434 24.2161 108.434C21.9088 108.434 19.6176 108.531 17.313 108.588C16.4454 108.61 16.5023 108.58 15.6835 108.64C15.4367 108.659 14.8945 108.675 14.626 108.718C14.4986 108.74 14.4064 108.775 14.363 108.802C14.279 108.857 14.2383 108.922 14.2166 108.981C14.1868 109.06 14.1841 109.144 14.2166 109.228C14.2383 109.285 14.2953 109.404 14.4905 109.472C14.626 109.521 14.7752 109.475 14.8619 109.369V109.375ZM339.894 108.55C339.977 108.667 340.13 108.724 340.273 108.678C340.461 108.618 340.52 108.504 340.544 108.442C340.59 108.317 340.585 108.182 340.455 108.054C340.417 108.016 340.336 107.962 340.214 107.924C339.992 107.853 339.53 107.788 339.319 107.767C338.326 107.661 338.365 107.685 337.334 107.547C334.867 107.216 332.418 107.062 329.929 106.937C323.663 106.628 317.424 107.083 311.177 106.872C310.991 106.866 310.833 107.013 310.828 107.2C310.822 107.387 310.969 107.544 311.156 107.55C317.4 107.759 323.634 107.303 329.897 107.615C332.365 107.737 334.796 107.891 337.245 108.219C338.286 108.361 338.245 108.333 339.248 108.442C339.381 108.455 339.707 108.518 339.896 108.553L339.894 108.55ZM15.8597 107.921C16.0496 107.891 16.3775 107.84 16.5131 107.832C17.5191 107.759 17.4784 107.783 18.5223 107.677C20.9815 107.43 23.4162 107.36 25.889 107.319C32.1604 107.219 38.3722 107.883 44.6191 107.883C44.8061 107.883 44.958 107.731 44.958 107.544C44.958 107.357 44.8061 107.205 44.6191 107.205C38.3667 107.205 32.1523 106.541 25.8782 106.641C23.3864 106.682 20.9354 106.753 18.4545 107.002C17.4188 107.105 17.4594 107.081 16.4616 107.154C16.2474 107.17 15.7865 107.219 15.5615 107.281C15.4395 107.314 15.3581 107.365 15.3175 107.401C15.1819 107.523 15.171 107.658 15.2144 107.783C15.2361 107.848 15.293 107.965 15.4774 108.03C15.6185 108.081 15.773 108.03 15.8597 107.916V107.921ZM338.755 105.907C338.72 105.901 338.676 105.896 338.665 105.896C337.462 105.782 336.266 105.63 335.064 105.519C333.004 105.326 330.952 105.194 328.878 105.156C322.41 105.044 315.906 105.695 309.453 105.478C309.267 105.473 309.109 105.619 309.103 105.806C309.098 105.993 309.245 106.151 309.432 106.156C315.887 106.373 322.394 105.722 328.867 105.833C330.924 105.869 332.958 106.004 335.002 106.194C336.207 106.305 337.399 106.457 338.603 106.571C338.636 106.574 338.733 106.593 338.814 106.593C338.899 106.593 338.974 106.574 339.029 106.549C339.156 106.492 339.23 106.395 339.254 106.265C339.287 106.08 339.164 105.904 338.98 105.871C338.901 105.858 338.823 105.871 338.757 105.907H338.755ZM17.0988 105.318C17.0364 105.28 16.9606 105.264 16.8819 105.275C16.6975 105.299 16.5674 105.47 16.5918 105.657C16.6108 105.787 16.6813 105.888 16.806 105.953C16.8602 105.98 16.9361 105.999 17.0202 106.004C17.1015 106.007 17.2018 105.993 17.2344 105.991C18.4409 105.918 19.6421 105.806 20.8459 105.733C22.8957 105.611 24.9346 105.546 26.9925 105.579C33.4646 105.684 39.9392 106.552 46.4004 106.552C46.5874 106.552 46.7394 106.4 46.7394 106.213C46.7394 106.026 46.5874 105.874 46.4004 105.874C39.9447 105.874 33.47 105.004 27.0034 104.901C24.9292 104.868 22.874 104.933 20.8079 105.055C19.6014 105.126 18.4003 105.237 17.1937 105.313C17.1801 105.313 17.1395 105.318 17.1043 105.321L17.0988 105.318ZM17.2587 105.549V105.562C17.2587 105.562 17.2587 105.552 17.2587 105.549ZM17.2561 105.535V105.541V105.538V105.535ZM337.795 104.998C337.865 105.069 337.966 105.11 338.074 105.096C338.262 105.074 338.394 104.906 338.373 104.722C338.365 104.651 338.337 104.573 338.262 104.497C338.207 104.443 338.069 104.358 337.824 104.293C337.042 104.082 334.733 103.784 330.952 103.583C327.733 103.412 324.574 103.675 321.369 103.621C317.641 103.559 313.93 103.32 310.209 103.195C310.023 103.19 309.865 103.336 309.86 103.523C309.854 103.711 310.001 103.868 310.188 103.873C313.913 103.998 317.628 104.236 321.359 104.299C324.556 104.353 327.706 104.09 330.917 104.261C334.853 104.47 337.548 104.952 337.795 104.998ZM337.703 104.814V104.798C337.703 104.798 337.703 104.809 337.703 104.814ZM18.0966 104.443C18.3434 104.405 21.0547 104.011 24.9997 103.936C28.2154 103.873 31.3524 104.242 34.5491 104.293C38.28 104.356 42.0026 104.242 45.7307 104.242C45.9178 104.242 46.0696 104.09 46.0696 103.903C46.0696 103.716 45.9178 103.564 45.7307 103.564C42.0081 103.564 38.2881 103.678 34.56 103.616C31.3552 103.564 28.2073 103.195 24.9861 103.258C21.1984 103.331 18.8802 103.55 18.0885 103.738C17.8418 103.794 17.7007 103.873 17.6465 103.925C17.5678 103.998 17.538 104.077 17.5272 104.144C17.5001 104.329 17.6248 104.502 17.8118 104.529C17.9204 104.546 18.0234 104.51 18.0966 104.44V104.443ZM18.1942 104.264C18.1942 104.264 18.1942 104.253 18.1969 104.247V104.264H18.1942ZM336.602 103.407C336.694 103.507 336.846 103.545 336.982 103.491C337.169 103.415 337.217 103.293 337.237 103.231C337.274 103.098 337.256 102.951 337.092 102.837C337.049 102.808 336.963 102.767 336.838 102.745C336.599 102.705 336.113 102.688 335.892 102.675C335.187 102.626 334.481 102.591 333.776 102.553C331.448 102.425 329.132 102.455 326.806 102.474C320.741 102.52 314.603 102.094 308.548 102.376C308.36 102.385 308.217 102.545 308.225 102.732C308.233 102.919 308.393 103.062 308.58 103.054C314.627 102.772 320.754 103.198 326.811 103.155C329.127 103.138 331.426 103.109 333.741 103.233C334.444 103.271 335.147 103.306 335.846 103.355C336 103.366 336.387 103.396 336.602 103.412V103.407ZM19.3519 102.892C19.5689 102.881 19.9566 102.865 20.1111 102.859C20.8133 102.835 21.5156 102.824 22.2178 102.808C24.536 102.759 26.8353 102.867 29.1453 102.962C35.1944 103.212 41.3356 102.989 47.3683 103.475C47.5555 103.491 47.7181 103.35 47.7343 103.163C47.7479 102.976 47.6097 102.813 47.4226 102.797C41.3844 102.311 35.2324 102.531 29.1724 102.284C26.8462 102.189 24.536 102.081 22.2016 102.13C21.4966 102.143 20.789 102.157 20.084 102.181C19.8616 102.189 19.3764 102.187 19.1377 102.222C19.013 102.241 18.9236 102.276 18.8802 102.306C18.7147 102.414 18.6904 102.558 18.723 102.694C18.7392 102.756 18.7852 102.881 18.9697 102.965C19.1026 103.024 19.2544 102.992 19.3519 102.894V102.892ZM335.957 101.587C335.751 101.555 335.363 101.493 335.2 101.482C334.102 101.406 334.157 101.371 333.012 101.308C330.878 101.192 328.758 100.948 326.624 100.842C320.751 100.549 314.884 100.75 309.003 100.554C308.816 100.549 308.659 100.695 308.654 100.882C308.648 101.07 308.794 101.227 308.982 101.232C314.859 101.43 320.725 101.227 326.591 101.52C328.725 101.625 330.845 101.869 332.977 101.986C334.116 102.048 334.061 102.084 335.154 102.16C335.342 102.173 335.688 102.257 335.927 102.282C336.117 102.301 336.269 102.273 336.347 102.235C336.453 102.181 336.512 102.1 336.542 102.008C336.569 101.921 336.58 101.794 336.481 101.642C336.378 101.484 336.166 101.444 336.01 101.547C335.992 101.56 335.973 101.574 335.957 101.59V101.587ZM20.0651 101.094C20.0488 101.078 20.0325 101.061 20.0136 101.048C19.8616 100.939 19.6502 100.975 19.5418 101.127C19.436 101.273 19.4415 101.4 19.4658 101.487C19.4929 101.582 19.5499 101.663 19.6529 101.723C19.7288 101.766 19.878 101.799 20.0705 101.785C20.3117 101.769 20.6615 101.696 20.8486 101.691C21.944 101.652 21.8925 101.615 23.0313 101.59C25.1679 101.544 27.2935 101.373 29.43 101.338C35.3056 101.243 41.1593 101.642 47.0403 101.642C47.2274 101.642 47.3792 101.49 47.3792 101.303C47.3792 101.116 47.2274 100.964 47.0403 100.964C41.1567 100.964 35.3001 100.565 29.4193 100.66C27.2799 100.695 25.1515 100.866 23.0177 100.912C21.8735 100.937 21.925 100.975 20.8243 101.013C20.6615 101.018 20.2738 101.067 20.0651 101.094ZM334.875 100.571H334.889C335.029 100.592 335.498 100.004 334.976 99.901C334.913 99.8929 334.851 99.9036 334.799 99.9281C334.84 99.9036 334.897 99.8902 334.976 99.901C334.976 99.901 334.956 99.8955 334.948 99.8955C334.637 99.8467 332.744 99.5593 332.389 99.5187C329.897 99.2421 327.329 99.2476 324.821 99.1635C318.349 98.9466 311.874 99.1337 305.397 98.9168C305.21 98.9113 305.053 99.0577 305.047 99.2448C305.042 99.432 305.188 99.5891 305.375 99.5946C311.852 99.8116 318.331 99.6244 324.799 99.8414C327.288 99.9253 329.84 99.92 332.315 100.194C332.665 100.232 334.536 100.519 334.845 100.565L334.878 100.571H334.875ZM21.1116 99.4428C21.1658 99.4373 21.2011 99.4454 21.2174 99.4509C21.1822 99.4428 21.1469 99.4401 21.1089 99.4428C20.5829 99.5295 21.0302 100.131 21.1713 100.118H21.1848L21.2174 100.113C21.5265 100.074 23.4081 99.8522 23.7606 99.825C26.2442 99.6353 28.7929 99.7247 31.2846 99.7247C37.7593 99.7247 44.2259 100.129 50.706 100.129C50.8931 100.129 51.0449 99.9769 51.0449 99.7899C51.0449 99.6027 50.8931 99.4509 50.706 99.4509C44.2259 99.4509 37.7593 99.0469 31.2846 99.0469C28.7766 99.0469 26.209 98.9574 23.7091 99.1499C23.354 99.177 21.4505 99.402 21.136 99.4401C21.1279 99.4401 21.1171 99.4401 21.1089 99.4428H21.1116ZM21.3746 100.023C21.3583 100.039 21.3394 100.053 21.3204 100.066C21.3421 100.053 21.3611 100.037 21.3746 100.023ZM21.2906 99.478C21.3475 99.5078 21.3963 99.5512 21.4288 99.6081C21.4045 99.5621 21.3611 99.5133 21.2906 99.478ZM333.969 98.3094C332.242 98.304 330.054 97.7047 328.23 97.6126C324.881 97.4472 321.543 97.5638 318.195 97.58C313.946 97.6017 309.711 97.2953 305.471 97.1516C305.283 97.1461 305.125 97.2926 305.121 97.4797C305.115 97.6668 305.261 97.824 305.449 97.8295C309.7 97.9732 313.941 98.2768 318.2 98.2579C321.538 98.2416 324.861 98.125 328.199 98.2904C330.035 98.3826 332.234 98.9819 333.969 98.9872C334.157 98.9872 334.308 98.8354 334.308 98.6483C334.308 98.4612 334.157 98.3094 333.969 98.3094ZM22.1609 98.5616C23.8962 98.6158 26.1168 98.0871 27.955 98.0573C31.2954 98.003 34.6141 98.2308 37.9491 98.3582C42.2032 98.5208 46.4547 98.3582 50.7087 98.3582C50.8958 98.3582 51.0477 98.2063 51.0477 98.0192C51.0477 97.8322 50.8958 97.6803 50.7087 97.6803C46.4628 97.6803 42.2223 97.8431 37.9735 97.6803C34.6277 97.5529 31.2982 97.3224 27.9442 97.3767C26.1168 97.4065 23.9097 97.9325 22.1826 97.881C21.9955 97.8755 21.8382 98.022 21.8328 98.2091C21.8275 98.3962 21.9738 98.5534 22.1609 98.5589V98.5616ZM332.893 96.9212C332.817 96.8615 332.696 96.7965 332.53 96.7395C332.24 96.6392 331.787 96.5444 331.248 96.4603C329.526 96.1891 326.904 96.002 326.234 95.9342C321.185 95.4137 316.101 95.7282 311.037 95.7769C308.553 95.8014 306.097 95.56 303.618 95.476C303.432 95.4706 303.274 95.617 303.268 95.8041C303.263 95.9911 303.41 96.1484 303.596 96.1539C306.083 96.2379 308.551 96.4765 311.045 96.4548C316.082 96.406 321.142 96.0888 326.166 96.6094C326.83 96.6771 329.433 96.8616 331.141 97.1327C331.564 97.2004 331.933 97.271 332.196 97.3496C332.324 97.3875 332.422 97.4173 332.47 97.458C332.617 97.5746 332.83 97.5502 332.948 97.4037C333.064 97.2574 333.04 97.0432 332.893 96.9266V96.9212ZM23.7145 97.0784C23.766 97.0405 23.8663 97.0134 23.9938 96.9808C24.2595 96.913 24.631 96.8534 25.0566 96.7992C26.7757 96.5877 29.384 96.4901 30.051 96.444C35.0914 96.0942 40.1344 96.5795 45.1667 96.7965C47.6585 96.9049 50.1339 96.7477 52.6229 96.7477C52.8101 96.7477 52.9619 96.5958 52.9619 96.4088C52.9619 96.2216 52.8101 96.0698 52.6229 96.0698C50.1448 96.0698 47.6775 96.227 45.1965 96.1213C40.1399 95.9017 35.0697 95.4163 30.0048 95.7688C29.3325 95.815 26.7051 95.9125 24.9753 96.1267C24.433 96.1946 23.9748 96.2732 23.6819 96.3654C23.5166 96.4169 23.3919 96.4765 23.3133 96.5334C23.1641 96.6445 23.1316 96.8561 23.2427 97.0079C23.354 97.1571 23.5654 97.1897 23.7172 97.0784H23.7145ZM331.13 95.8257C331.206 95.9098 331.32 95.9559 331.439 95.937C331.624 95.9072 331.749 95.7309 331.719 95.5465C331.706 95.4706 331.667 95.3784 331.572 95.2998C331.489 95.2293 331.268 95.1397 330.952 95.0666C329.71 94.7818 326.616 94.4891 326.057 94.4592C319.479 94.1095 312.902 93.917 306.319 93.6947C306.132 93.6892 305.975 93.8356 305.969 94.0226C305.964 94.2098 306.111 94.3671 306.297 94.3724C312.877 94.5921 319.45 94.7846 326.022 95.1344C326.57 95.1642 329.59 95.4489 330.803 95.7254C330.933 95.7552 331.077 95.8041 331.134 95.8231L331.13 95.8257ZM25.119 95.5004C25.176 95.4842 25.3223 95.4407 25.4552 95.4137C26.678 95.1778 29.7066 94.9934 30.2543 94.9825C36.8374 94.8523 43.4126 94.8821 49.9983 94.8821C50.1854 94.8821 50.3374 94.7303 50.3374 94.5433C50.3374 94.3562 50.1854 94.2044 49.9983 94.2044C43.4098 94.2044 36.8293 94.1772 30.2407 94.3047C29.6795 94.3155 26.5777 94.5053 25.3251 94.7494C25.0025 94.8118 24.7828 94.8957 24.6961 94.9608C24.5984 95.0368 24.555 95.1235 24.5415 95.1995C24.5035 95.3838 24.6229 95.5627 24.8045 95.598C24.9238 95.6224 25.0404 95.5817 25.119 95.4976V95.5004ZM330.301 94.4213C330.366 94.4972 330.466 94.5406 330.572 94.5351C330.835 94.5216 330.908 94.34 330.924 94.2749C330.948 94.1881 330.97 94.0145 330.767 93.8817C330.656 93.8112 329.919 93.5943 328.352 93.2283C326.175 92.7213 324.092 92.5233 321.858 92.4474C315.359 92.2304 308.838 92.263 302.33 92.0461C302.144 92.0407 301.986 92.1871 301.981 92.3741C301.975 92.5613 302.122 92.7186 302.309 92.7239C308.816 92.9409 315.337 92.9083 321.836 93.1252C324.024 93.1984 326.068 93.3909 328.199 93.8872C329.235 94.1284 329.888 94.2938 330.225 94.3941C330.249 94.4024 330.276 94.4105 330.301 94.4186V94.4213ZM26.0029 94.1231C26.0272 94.1148 26.0544 94.1067 26.0815 94.1013C26.4204 94.0119 27.0821 93.8708 28.1259 93.6648C30.276 93.2391 32.3258 93.1171 34.5166 93.1171C41.0211 93.1171 47.5365 93.3692 54.0464 93.3692C54.2335 93.3692 54.3853 93.2174 54.3853 93.0303C54.3853 92.8433 54.2335 92.6914 54.0464 92.6914C47.5338 92.6914 41.0184 92.4392 34.5166 92.4392C32.2797 92.4392 30.1892 92.5667 27.9957 93.0005C26.4177 93.3123 25.6721 93.5021 25.5582 93.5699C25.3495 93.6947 25.3657 93.8682 25.3874 93.9549C25.4036 94.02 25.4688 94.2044 25.7317 94.2287C25.8375 94.2368 25.9378 94.1963 26.0083 94.1231H26.0029ZM329.585 92.7971L329.601 92.8053C329.774 92.8731 329.973 92.789 330.041 92.6155C330.081 92.5178 330.105 92.3633 329.943 92.2278C329.929 92.2142 329.84 92.16 329.675 92.122C328.889 91.9323 324.83 91.154 323.628 91.0483C319.152 90.6551 316.224 91.0809 311.97 91.2625C308.843 91.3954 305.66 91.0999 302.534 90.9941C302.347 90.9887 302.19 91.135 302.184 91.3222C302.179 91.5093 302.325 91.6666 302.512 91.6719C305.655 91.7777 308.854 92.0732 311.999 91.9376C316.221 91.756 319.127 91.3303 323.569 91.7207C324.751 91.8238 328.742 92.5938 329.515 92.7782C329.542 92.7837 329.568 92.7918 329.585 92.7971ZM329.482 92.7267C329.393 92.6345 329.36 92.4935 329.412 92.366C329.376 92.4582 329.349 92.5965 329.482 92.7267ZM26.7811 92.5261C26.7973 92.5233 26.8271 92.5152 26.8515 92.5097C27.6324 92.3498 31.6507 91.7153 32.8355 91.6502C37.2903 91.409 40.1778 91.9323 44.3886 92.2549C47.5256 92.4935 50.7359 92.3064 53.8783 92.3064C54.0655 92.3064 54.2173 92.1546 54.2173 91.9675C54.2173 91.7804 54.0655 91.6285 53.8783 91.6285C50.7521 91.6285 47.5582 91.8184 44.4401 91.5798C40.1968 91.2544 37.2849 90.7311 32.7976 90.9751C31.591 91.0402 27.505 91.6828 26.7133 91.8455C26.5479 91.8808 26.4585 91.9295 26.4421 91.943C26.274 92.0732 26.2931 92.2251 26.3282 92.3254C26.3906 92.5016 26.5831 92.5938 26.7594 92.5314C26.7647 92.5314 26.7702 92.5261 26.7757 92.5233L26.7811 92.5261ZM26.9084 92.4311C27.0142 92.3145 27.0034 92.1925 26.9708 92.0976C27.0116 92.217 26.9844 92.3417 26.9084 92.4311ZM328.27 91.2219C328.313 91.3466 328.429 91.4388 328.569 91.4469C328.755 91.4577 328.915 91.3168 328.926 91.1297C328.937 90.9398 328.889 90.8314 328.823 90.7528C328.755 90.6687 328.633 90.6009 328.387 90.5549C326.438 90.1888 324.401 90.0315 322.427 89.7957C315.025 88.9117 307.58 89.5408 300.159 89.0473C299.971 89.0337 299.811 89.1774 299.798 89.3618C299.785 89.5489 299.928 89.7116 300.113 89.7224C307.523 90.2159 314.954 89.5842 322.346 90.468C324.303 90.7013 326.326 90.8557 328.259 91.2191H328.267L328.27 91.2219ZM28.1557 90.9941H28.1639C30.1106 90.6931 32.1387 90.6091 34.1044 90.441C41.5254 89.8065 48.9274 90.6877 56.3538 90.441C56.5409 90.4356 56.6873 90.2783 56.6819 90.0912C56.6765 89.9041 56.5192 89.7577 56.3321 89.7631C48.8948 90.0071 41.482 89.1286 34.0475 89.7631C32.0655 89.9312 30.0238 90.018 28.0608 90.3217C27.8141 90.3596 27.6893 90.4247 27.6188 90.5033C27.5511 90.5793 27.4996 90.6877 27.5023 90.8748C27.505 91.0618 27.6623 91.211 27.8494 91.2055C27.9903 91.2029 28.1096 91.1133 28.1585 90.9913L28.1557 90.9941ZM326.906 89.679C326.977 89.7794 327.095 89.8391 327.226 89.8227C327.413 89.801 327.544 89.633 327.522 89.4459C327.509 89.3211 327.4 89.145 327.145 89.0419C326.736 88.8765 325.741 88.768 325.616 88.7437C323.897 88.3966 322.215 88.0956 320.458 87.96C313.03 87.3907 305.598 88.1118 298.193 87.5668C298.006 87.5534 297.844 87.6943 297.829 87.8814C297.816 88.0684 297.958 88.2312 298.142 88.2447C305.546 88.7897 312.978 88.0685 320.407 88.6379C322.134 88.7707 323.791 89.0663 325.48 89.4107C325.562 89.4269 326.024 89.4757 326.438 89.5544C326.611 89.5868 326.83 89.6573 326.904 89.6818L326.906 89.679ZM29.5792 89.5001C29.6524 89.4784 29.8747 89.4161 30.051 89.389C30.4685 89.3239 30.9322 89.2913 31.0135 89.2778C32.7163 88.993 34.3837 88.7518 36.1135 88.6758C43.5589 88.356 50.9555 89.3266 58.3791 89.0283C58.5662 89.0202 58.7127 88.8629 58.7046 88.6758C58.6965 88.4888 58.5392 88.3424 58.3521 88.3505C50.9284 88.6487 43.5318 87.6781 36.0865 87.9981C34.3267 88.0739 32.6322 88.3179 30.9024 88.6081C30.7776 88.6298 29.7798 88.7003 29.365 88.8548C29.1074 88.9497 28.9963 89.1205 28.9746 89.2453C28.9447 89.4296 29.0695 89.6032 29.2565 89.633C29.3867 89.6547 29.5087 89.5977 29.5818 89.5001H29.5792ZM326.155 87.5615C319.437 86.1651 313.015 86.4309 306.154 86.4227C303.439 86.4199 300.739 86.0377 298.028 85.9481C297.84 85.9428 297.684 86.0892 297.678 86.2762C297.673 86.4633 297.818 86.6206 298.006 86.626C300.725 86.7182 303.434 87.0978 306.157 87.1005C312.969 87.1086 319.35 86.8376 326.02 88.2257C326.204 88.2638 326.383 88.1471 326.421 87.9628C326.459 87.7811 326.342 87.5994 326.158 87.5615H326.155ZM30.5281 88.0739C37.2496 86.9108 43.6132 87.3961 50.4241 87.6157C53.1436 87.7024 55.8658 87.415 58.5852 87.415C58.7723 87.415 58.9241 87.2632 58.9241 87.0761C58.9241 86.8891 58.7723 86.7373 58.5852 86.7373C55.8711 86.7373 53.1571 87.0273 50.4458 86.9379C43.5887 86.7156 37.1818 86.2357 30.4116 87.4042C30.2271 87.4367 30.1025 87.6102 30.1349 87.7946C30.1675 87.979 30.3438 88.1037 30.5254 88.0712L30.5281 88.0739ZM324.425 86.5636C324.512 86.6613 324.65 86.7047 324.78 86.6613C324.979 86.5989 325.03 86.4688 325.049 86.401C325.082 86.2871 325.073 86.1461 324.924 86.0268C324.889 85.9998 324.815 85.9564 324.707 85.9265C324.501 85.8668 324.046 85.7937 323.549 85.696C322.401 85.4684 322.454 85.4629 321.315 85.2677C319.382 84.9342 317.457 84.7308 315.488 84.6658C312.005 84.5491 308.485 84.8881 305.001 84.9694C301.997 85.0426 298.946 84.8176 295.943 84.7145C295.755 84.7092 295.599 84.8555 295.593 85.0426C295.588 85.2297 295.734 85.3869 295.921 85.3924C298.939 85.4927 302 85.7177 305.018 85.6473C308.491 85.5632 311.994 85.227 315.467 85.3409C317.403 85.4059 319.298 85.6038 321.199 85.9347C322.329 86.1299 322.278 86.1353 323.419 86.3603C323.791 86.4335 324.225 86.5203 324.428 86.5636H324.425ZM32.1821 86.4688C32.3882 86.4335 32.8247 86.3603 33.1989 86.3007C34.3484 86.1137 34.2943 86.1054 35.4329 85.9481C37.3473 85.6824 39.2479 85.547 41.1865 85.547C44.6598 85.547 48.1492 86.0024 51.6171 86.2031C54.6293 86.3766 57.6986 86.2546 60.7191 86.2546C60.9062 86.2546 61.058 86.1027 61.058 85.9157C61.058 85.7286 60.9062 85.5768 60.7191 85.5768C57.7121 85.5768 54.6565 85.6988 51.6578 85.528C48.179 85.3273 44.676 84.8718 41.1891 84.8718C39.2208 84.8718 37.2903 85.0101 35.3435 85.2785C34.1966 85.4358 34.2509 85.4439 33.0931 85.6337C32.5915 85.715 32.1332 85.7746 31.9272 85.8261C31.816 85.8533 31.7429 85.8913 31.7076 85.9183C31.553 86.0322 31.5422 86.1733 31.5694 86.2872C31.5856 86.3549 31.6316 86.4878 31.8268 86.5555C31.9571 86.6017 32.0953 86.5636 32.1847 86.4688H32.1821ZM324.552 86.0241H324.561H324.556H324.552ZM324.563 86.0214L324.578 86.016C324.578 86.016 324.567 86.0187 324.563 86.0214ZM32.071 85.9238H32.0791H32.0763H32.071ZM32.0655 85.9211C32.0655 85.9211 32.0546 85.9157 32.0519 85.9157L32.0655 85.9211ZM323.595 84.2915C321.205 84.0041 318.824 83.4835 316.367 83.329C309.825 82.9196 301.706 83.348 295.417 83.5215C295.229 83.527 295.082 83.6815 295.086 83.8685C295.091 84.0556 295.246 84.2021 295.433 84.1993C301.704 84.0258 309.797 83.5974 316.321 84.0041C318.761 84.1559 321.131 84.6739 323.509 84.9613C323.696 84.983 323.864 84.8501 323.886 84.6658C323.908 84.4814 323.774 84.3105 323.59 84.2889L323.595 84.2915ZM33.1555 84.9016C35.5442 84.6928 37.9302 84.2563 40.3758 84.1857C46.9183 83.996 53.4635 84.6901 60.006 84.6901C60.193 84.6901 60.345 84.5383 60.345 84.3513C60.345 84.1641 60.193 84.0122 60.006 84.0122C53.4581 84.0122 46.9048 83.3181 40.3568 83.508C37.8976 83.5785 35.4981 84.0177 33.0957 84.2265C32.9087 84.2427 32.7704 84.4082 32.7867 84.5925C32.803 84.7795 32.9684 84.9179 33.1527 84.9016H33.1555Z" fill="#525252"/>
<path fill-rule="evenodd" clip-rule="evenodd" d="M304.126 83.188L54.7837 83.6787L24.4111 128.192H325.542L304.126 83.188Z" fill="#525252"/>
<path fill-rule="evenodd" clip-rule="evenodd" d="M258.304 67.6549C258.304 67.6549 261.139 67.0177 264.635 65.079C264.635 65.079 271.949 60.768 275.009 65.8599C275.009 65.8599 278.693 64.8703 280.626 67.739C280.626 67.739 282.708 70.6591 286.542 80.8295C286.542 80.8295 290.092 89.2863 294.631 95.7068L296.979 99.0121C296.979 99.0121 298.988 101.78 299.167 105.625C299.167 105.625 302.748 109.944 301.305 111.842C301.305 111.842 302.298 113.325 301.235 114.879C301.235 114.879 301.94 115.237 301.878 116.628C301.878 116.628 301.607 118.303 299.104 118.024C299.104 118.024 297.735 118.07 295.01 115.595C295.01 115.595 291.236 116.915 289.595 114.499C289.595 114.499 286.933 114.293 286.39 111.503C286.39 111.503 285.976 109.033 285.77 105.693C285.77 105.693 279.587 98.5158 272.693 94.0773C272.693 94.0773 270.665 92.6972 268.42 92.399L263.84 92.2336L256.167 82.6813L254.576 69.7725L258.304 67.6576V67.6549Z" fill="#F6CEAE"/>
<mask id="mask0_540_390" style="mask-type:luminance" maskUnits="userSpaceOnUse" x="254" y="63" width="48" height="56">
<path d="M258.304 67.6549C258.304 67.6549 261.139 67.0177 264.635 65.079C264.635 65.079 271.949 60.768 275.009 65.8599C275.009 65.8599 278.693 64.8703 280.626 67.739C280.626 67.739 282.708 70.6591 286.542 80.8295C286.542 80.8295 290.092 89.2863 294.631 95.7068L296.979 99.0121C296.979 99.0121 298.988 101.78 299.167 105.625C299.167 105.625 302.748 109.944 301.305 111.842C301.305 111.842 302.298 113.325 301.235 114.879C301.235 114.879 301.94 115.237 301.878 116.628C301.878 116.628 301.607 118.303 299.104 118.024C299.104 118.024 297.735 118.07 295.01 115.595C295.01 115.595 291.236 116.915 289.595 114.499C289.595 114.499 286.933 114.293 286.39 111.503C286.39 111.503 285.976 109.033 285.77 105.693C285.77 105.693 279.587 98.5158 272.693 94.0773C272.693 94.0773 270.665 92.6972 268.42 92.399L263.84 92.2336L256.167 82.6813L254.576 69.7725L258.304 67.6576V67.6549Z" fill="white"/>
</mask>
<g mask="url(#mask0_540_390)">
<path fill-rule="evenodd" clip-rule="evenodd" d="M260.408 73.17C260.408 73.17 262.319 72.9802 266.725 69.5937C266.725 69.5937 268.856 67.4897 275.013 65.8575L280.719 57.7856C280.719 57.7856 258.057 64.0137 257.582 64.1601C257.108 64.3065 252.39 69.469 252.39 69.469L258.003 75.2469L260.405 73.1728L260.408 73.17Z" fill="#E2BEA0"/>
<path fill-rule="evenodd" clip-rule="evenodd" d="M284.818 105.821C284.818 105.821 287.139 108.792 288.22 112.238C288.267 112.461 288.655 114.324 289.196 115.549C289.359 115.918 289.538 116.232 289.722 116.447C289.893 116.644 290.081 116.766 290.263 116.813C290.48 116.869 290.701 116.739 290.758 116.522C290.815 116.306 290.686 116.083 290.469 116.026C290.397 116.007 290.344 115.929 290.278 115.836C290.16 115.677 290.048 115.462 289.943 115.221C289.398 113.982 289.015 112.057 289.015 112.057C289.012 112.043 289.01 112.03 289.004 112.013C287.882 108.424 285.457 105.319 285.457 105.319C285.319 105.143 285.065 105.11 284.888 105.248C284.712 105.387 284.68 105.642 284.818 105.818V105.821ZM280.647 97.9007C280.647 97.9007 288.579 105.137 290.237 108.903C290.241 108.912 290.246 108.92 290.248 108.925C290.248 108.925 290.633 109.676 291.569 112.382C291.575 112.398 291.582 112.415 291.588 112.431C291.588 112.431 292.675 114.619 294.983 116.715C295.148 116.867 295.406 116.853 295.557 116.688C295.709 116.522 295.696 116.265 295.531 116.113C293.481 114.25 292.445 112.317 292.328 112.092C291.439 109.522 291.03 108.676 290.975 108.567C289.267 104.712 281.195 97.3015 281.195 97.3015C281.03 97.1496 280.772 97.1604 280.621 97.3259C280.469 97.4913 280.48 97.7489 280.645 97.9007H280.647ZM288.245 102.288C288.245 102.288 292.51 107.095 294.004 109.654C294.007 109.66 294.011 109.665 294.015 109.674C294.015 109.674 296.097 112.851 298.405 114.543C300.107 115.793 301.921 116.224 303.241 114.478C303.377 114.299 303.342 114.044 303.163 113.909C302.983 113.773 302.729 113.808 302.593 113.987C301.582 115.327 300.191 114.844 298.887 113.887C296.751 112.32 294.823 109.419 294.703 109.237C293.179 106.631 288.857 101.748 288.857 101.748C288.708 101.58 288.451 101.564 288.283 101.713C288.115 101.862 288.099 102.12 288.248 102.288H288.245ZM289.928 101.957C289.928 101.957 293.47 105.655 296.504 109.871C296.572 109.969 297.71 111.588 299.069 112.377C299.695 112.74 300.365 112.927 301.013 112.794C301.454 112.702 301.894 112.458 302.295 111.997C302.442 111.829 302.425 111.571 302.254 111.422C302.087 111.276 301.829 111.292 301.68 111.463C301.005 112.238 300.197 112.095 299.476 111.674C298.212 110.94 297.168 109.408 297.168 109.408C297.168 109.405 297.165 109.402 297.163 109.4C294.096 105.137 290.515 101.396 290.515 101.396C290.36 101.233 290.103 101.228 289.939 101.382C289.777 101.537 289.772 101.794 289.926 101.957H289.928ZM297.016 103.229C297.016 103.229 299.513 106.1 300.137 106.821C300.284 106.992 300.541 107.008 300.712 106.862C300.882 106.715 300.899 106.458 300.753 106.29C300.129 105.568 297.629 102.694 297.629 102.694C297.483 102.526 297.225 102.507 297.054 102.654C296.887 102.8 296.867 103.058 297.014 103.229H297.016Z" fill="#E2BEA0"/>
</g>
<path fill-rule="evenodd" clip-rule="evenodd" d="M131.036 85.1836C131.036 85.1836 131.014 85.3274 123.771 87.0789C123.771 87.0789 117.354 88.7546 116.21 89.511L112.734 92.8704C112.734 92.8704 112.444 93.4182 112.799 94.0797C112.799 94.0797 113.786 95.6903 121.147 93.0955C121.147 93.0955 116.974 95.0476 117.658 96.6663C117.658 96.6663 118.081 98.2552 122.939 96.4223C122.939 96.4223 125.976 95.1724 129.157 94.9175C129.157 94.9175 137.058 94.5624 139.088 91.7452L140.997 89.9584L134.178 84.9424L131.036 85.1836Z" fill="#E2BEA0"/>
<mask id="mask1_540_390" style="mask-type:luminance" maskUnits="userSpaceOnUse" x="112" y="84" width="29" height="14">
<path d="M131.036 85.1836C131.036 85.1836 131.014 85.3274 123.771 87.0789C123.771 87.0789 117.354 88.7546 116.21 89.511L112.734 92.8704C112.734 92.8704 112.444 93.4182 112.799 94.0797C112.799 94.0797 113.786 95.6903 121.147 93.0955C121.147 93.0955 116.974 95.0476 117.658 96.6663C117.658 96.6663 118.081 98.2552 122.939 96.4223C122.939 96.4223 125.976 95.1724 129.157 94.9175C129.157 94.9175 137.058 94.5624 139.088 91.7452L140.997 89.9584L134.178 84.9424L131.036 85.1836Z" fill="white"/>
</mask>
<g mask="url(#mask1_540_390)">
<path fill-rule="evenodd" clip-rule="evenodd" d="M115.348 95.6114C115.348 95.6114 120.502 92.7727 128.568 90.7336C128.785 90.6795 128.918 90.4572 128.864 90.2402C128.809 90.0233 128.587 89.8904 128.371 89.9447C120.187 92.0107 114.957 94.8983 114.957 94.8983C114.759 95.0069 114.689 95.2535 114.797 95.4515C114.906 95.6494 115.152 95.7199 115.35 95.6114H115.348ZM114.499 91.623L124.612 88.5862C124.827 88.5211 124.949 88.2961 124.886 88.0793C124.821 87.8651 124.596 87.743 124.38 87.8053L114.266 90.8421C114.052 90.9072 113.929 91.1323 113.992 91.3491C114.057 91.5634 114.285 91.6854 114.499 91.6203V91.623Z" fill="#A38C79"/>
</g>
<path fill-rule="evenodd" clip-rule="evenodd" d="M138.974 97.542L129.328 98.3094C129.328 98.3094 123.547 98.7486 120.41 101.802C120.41 101.802 110.733 104.996 114.141 107.455C114.141 107.455 114.67 107.84 115.909 107.799C115.909 107.799 115.283 108.247 115.632 109.253C115.632 109.253 116.069 110.44 118.273 110.183C118.273 110.183 122.17 109.694 124.835 108.678C124.835 108.678 122.538 109.453 123.078 110.736C123.078 110.736 123.617 112.048 128.984 110.855C128.984 110.855 133.291 110.145 137.101 110.38C137.101 110.38 147.659 111.5 151.373 106.251L138.972 97.542H138.974Z" fill="#F6CEAE"/>
<mask id="mask2_540_390" style="mask-type:luminance" maskUnits="userSpaceOnUse" x="113" y="97" width="39" height="15">
<path d="M138.974 97.542L129.328 98.3094C129.328 98.3094 123.547 98.7486 120.41 101.802C120.41 101.802 110.733 104.996 114.141 107.455C114.141 107.455 114.67 107.84 115.909 107.799C115.909 107.799 115.283 108.247 115.632 109.253C115.632 109.253 116.069 110.44 118.273 110.183C118.273 110.183 122.17 109.694 124.835 108.678C124.835 108.678 122.538 109.453 123.078 110.736C123.078 110.736 123.617 112.048 128.984 110.855C128.984 110.855 133.291 110.145 137.101 110.38C137.101 110.38 147.659 111.5 151.373 106.251L138.972 97.542H138.974Z" fill="white"/>
</mask>
<g mask="url(#mask2_540_390)">
<path fill-rule="evenodd" clip-rule="evenodd" d="M120.952 110.595C120.952 110.595 124.127 108.32 135.146 106.378C135.369 106.34 135.515 106.129 135.477 105.907C135.439 105.684 135.227 105.538 135.005 105.576C123.715 107.566 120.475 109.933 120.475 109.933C120.293 110.066 120.252 110.318 120.383 110.5C120.516 110.681 120.768 110.722 120.949 110.592L120.952 110.595ZM115.06 108.783C115.245 108.783 115.407 108.659 115.453 108.477C115.462 108.463 115.668 108.095 116.248 107.685C116.945 107.197 118.159 106.576 120.274 105.92L132.958 102.696C133.174 102.642 133.308 102.42 133.251 102.203C133.196 101.986 132.975 101.853 132.758 101.91L120.065 105.134C120.065 105.134 120.052 105.137 120.044 105.139C117.547 105.915 116.234 106.655 115.543 107.195C114.705 107.851 114.659 108.298 114.659 108.298C114.616 108.518 114.762 108.732 114.982 108.773C115.006 108.778 115.033 108.781 115.058 108.781L115.06 108.783ZM119.228 102.002C119.228 102.002 130.734 100.332 134.771 100.308C134.997 100.308 135.178 100.123 135.176 99.8981C135.176 99.6731 134.992 99.4915 134.767 99.4942C130.699 99.5185 119.108 101.197 119.108 101.197C118.886 101.229 118.731 101.436 118.764 101.658C118.796 101.88 119.003 102.035 119.225 102.002H119.228Z" fill="#E2BEA0"/>
</g>
<path fill-rule="evenodd" clip-rule="evenodd" d="M178.46 83.0174C178.46 83.0174 175.802 96.6828 181.134 103.195C181.134 103.195 185.146 107.837 202.837 108.757C202.837 108.757 221.066 108.963 235.281 108.626L262.14 107.783C262.14 107.783 267.791 87.3475 260.408 73.1127H258.29C258.29 73.1127 258.296 67.6656 258.311 67.6439L221.887 68.3597C221.887 68.3597 237.8 39.2259 234.238 16.9465C234.238 16.9465 233.132 10.892 227.755 6.47783C227.755 6.47783 223.893 2.93406 218.691 2.09082C218.691 2.09082 202.263 21.4528 201.647 22.5048C201.032 23.5569 182.912 70.6535 182.912 70.6535L178.457 83.0174H178.46Z" fill="#5C6248"/>
<mask id="mask3_540_390" style="mask-type:luminance" maskUnits="userSpaceOnUse" x="177" y="2" width="88" height="107">
<path d="M178.46 83.0174C178.46 83.0174 175.802 96.6828 181.134 103.195C181.134 103.195 185.146 107.837 202.837 108.757C202.837 108.757 221.066 108.963 235.281 108.626L262.14 107.783C262.14 107.783 267.791 87.3475 260.408 73.1127H258.29C258.29 73.1127 258.296 67.6656 258.311 67.6439L221.887 68.3597C221.887 68.3597 237.8 39.2259 234.238 16.9465C234.238 16.9465 233.132 10.892 227.755 6.47783C227.755 6.47783 223.893 2.93406 218.691 2.09082C218.691 2.09082 202.263 21.4528 201.647 22.5048C201.032 23.5569 182.912 70.6535 182.912 70.6535L178.457 83.0174H178.46Z" fill="white"/>
</mask>
<g mask="url(#mask3_540_390)">
<path fill-rule="evenodd" clip-rule="evenodd" d="M221.891 68.3573C221.891 68.3573 220.597 70.4342 217.863 73.1617L258.298 73.1103L266.037 54.0303L225.109 65.8004L221.891 68.3573Z" fill="#454A34"/>
<path fill-rule="evenodd" clip-rule="evenodd" d="M218.951 72.2589C218.951 72.2589 212.612 77.8823 204.762 83.6142C204.399 83.8799 204.32 84.387 204.583 84.7502C204.849 85.1136 205.356 85.1922 205.719 84.9265C213.637 79.1486 220.03 73.4737 220.03 73.4737C220.366 73.1754 220.396 72.6602 220.097 72.324C219.799 71.9878 219.284 71.958 218.951 72.2563V72.2589Z" fill="#454A34"/>
</g>
<path fill-rule="evenodd" clip-rule="evenodd" d="M102.572 58.5662C102.572 58.5662 99.4156 54.9628 99.0251 54.2822L101.731 51.24C101.731 51.24 116.291 26.0079 156.345 6.74893C156.345 6.74893 180.262 -4.54127 218.693 2.08807C218.693 2.08807 203.426 60.9983 178.459 83.0228C178.459 83.0228 179.169 78.7469 181.06 70.583C181.06 70.583 173.514 74.0102 170.038 74.2894C170.038 74.2894 165.166 91.7535 153.881 107.938C153.881 107.938 141.501 104.795 137.146 95.1048L138.817 91.2736C138.817 91.2736 132.25 88.0958 130.555 84.7554L132.833 79.8885C132.833 79.8885 127.35 77.779 125.521 76.5019C125.521 76.5019 121.532 76.9087 118.775 74.5199L109.637 73.072L102.572 58.5689V58.5662Z" fill="#8F9B87"/>
<mask id="mask4_540_390" style="mask-type:luminance" maskUnits="userSpaceOnUse" x="99" y="0" width="120" height="108">
<path d="M102.572 58.5662C102.572 58.5662 99.4156 54.9628 99.0251 54.2822L101.731 51.24C101.731 51.24 116.291 26.0079 156.345 6.74893C156.345 6.74893 180.262 -4.54127 218.693 2.08807C218.693 2.08807 203.426 60.9983 178.459 83.0228C178.459 83.0228 179.169 78.7469 181.06 70.583C181.06 70.583 173.514 74.0102 170.038 74.2894C170.038 74.2894 165.166 91.7535 153.881 107.938C153.881 107.938 141.501 104.795 137.146 95.1048L138.817 91.2736C138.817 91.2736 132.25 88.0958 130.555 84.7554L132.833 79.8885C132.833 79.8885 127.35 77.779 125.521 76.5019C125.521 76.5019 121.532 76.9087 118.775 74.5199L109.637 73.072L102.572 58.5689V58.5662Z" fill="white"/>
</mask>
<g mask="url(#mask4_540_390)">
<path fill-rule="evenodd" clip-rule="evenodd" d="M141.802 83.2315C141.802 83.2315 150.484 82.6866 158.689 77.3099C159.065 77.0631 159.168 76.5589 158.921 76.1846C158.675 75.8078 158.171 75.7047 157.797 75.9515C149.975 81.0788 141.699 81.6102 141.699 81.6102C141.252 81.6372 140.911 82.025 140.94 82.4723C140.968 82.9198 141.355 83.2613 141.802 83.2315Z" fill="#747F6C"/>
<path fill-rule="evenodd" clip-rule="evenodd" d="M140.598 85.9731C140.598 85.9731 143.269 91.6237 159.8 100.43L155.815 117.037C155.815 117.037 138.734 108.54 138.025 108.526C137.315 108.515 132.592 93.4945 132.592 93.4945L140.598 85.9705V85.9731ZM101.693 51.094C101.693 51.094 103.727 57.5714 114.103 67.1534C114.103 67.1534 120.328 72.804 125.521 76.5077L119.092 91.9111C119.092 91.9111 92.6019 54.1008 92.3715 53.1924C92.141 52.2842 99.9037 47.3169 99.9037 47.3169L101.69 51.094H101.693Z" fill="#E0C389"/>
<path fill-rule="evenodd" clip-rule="evenodd" d="M132.833 79.8887C132.833 79.8887 136.545 81.2497 143.472 81.3907L138.809 91.2765L129.791 96.1298L125.67 85.2653L132.833 79.8914V79.8887ZM175.588 65.9902C181.474 67.2157 185.171 53.8024 193.847 22.5483L182.096 66.554L182.085 66.5595L181.06 70.5886L173.213 82.1906L170.044 74.3032C170.044 74.3032 172.044 67.7986 164.594 61.2289C164.594 61.2289 144.197 47.4714 116.646 49.505C116.646 49.505 138.408 42.3577 169.314 63.1974C169.314 63.1974 172.059 64.9625 175.588 65.9902Z" fill="#747F6C"/>
</g>
<mask id="mask5_540_390" style="mask-type:luminance" maskUnits="userSpaceOnUse" x="116" y="22" width="78" height="75">
<mask id="mask6_540_390" style="mask-type:luminance" maskUnits="userSpaceOnUse" x="116" y="22" width="78" height="75">
<path d="M132.833 79.8887C132.833 79.8887 136.545 81.2497 143.472 81.3907L138.809 91.2765L129.791 96.1298L125.67 85.2653L132.833 79.8914V79.8887ZM175.588 65.9902C181.475 67.2157 185.171 53.8024 193.847 22.5483L182.096 66.554L182.085 66.5595L181.06 70.5886L173.213 82.1906L170.044 74.3032C170.044 74.3032 172.045 67.7986 164.594 61.2289C164.594 61.2289 144.197 47.4714 116.646 49.505C116.646 49.505 138.408 42.3577 169.314 63.1974C169.314 63.1974 172.059 64.9625 175.588 65.9902Z" fill="white"/>
</mask>
<g mask="url(#mask6_540_390)">
<path d="M102.572 58.5662C102.572 58.5662 99.4159 54.9628 99.0254 54.2822L101.731 51.24C101.731 51.24 116.291 26.0079 156.346 6.74893C156.346 6.74893 180.263 -4.54127 218.693 2.08807C218.693 2.08807 203.426 60.9983 178.46 83.0228C178.46 83.0228 179.17 78.7469 181.06 70.583C181.06 70.583 173.514 74.0102 170.038 74.2894C170.038 74.2894 165.166 91.7535 153.881 107.938C153.881 107.938 141.501 104.795 137.146 95.1048L138.817 91.2736C138.817 91.2736 132.25 88.0958 130.555 84.7554L132.833 79.8885C132.833 79.8885 127.351 77.779 125.521 76.5019C125.521 76.5019 121.533 76.9087 118.775 74.5199L109.638 73.072L102.572 58.5689V58.5662Z" fill="white"/>
</g>
</mask>
<g mask="url(#mask5_540_390)">
<path fill-rule="evenodd" clip-rule="evenodd" d="M137.884 82.169C137.884 82.169 141.417 85.0594 142.659 85.6558L139.847 96.7996L130.498 90.3574L128.417 82.8631L131.26 76.8574L137.887 82.1718L137.884 82.169Z" fill="#E0C389"/>
</g>
<path fill-rule="evenodd" clip-rule="evenodd" d="M82.711 99.1553C82.711 99.1553 107.544 98.8407 115.57 90.9723C115.57 90.9723 117.932 88.7598 117.744 85.1971C117.636 83.1582 116.796 81.6777 116.394 80.5823C116.394 80.5823 116.324 78.2099 118.78 74.5169C114.071 70.1707 106.549 63.2322 102.572 58.5659L98.4179 62.6628L83.3889 64.1812L71.459 81.1219L80.8728 97.6586L82.7084 99.1553H82.711Z" fill="#F6CEAE"/>
<path fill-rule="evenodd" clip-rule="evenodd" d="M80.0646 83.3805C80.0646 83.3805 85.2677 82.5888 85.4168 78.1828C85.4168 78.1828 85.509 72.2666 90.1942 71.9737C90.1942 71.9737 84.7552 69.9999 86.7752 66.9496C87.3419 66.0927 90.2648 63.8396 98.5588 67.1774C98.5588 67.1774 102.032 65.9599 101.135 61.8685C101.135 61.8685 100.576 59.6533 98.8868 59.2004C98.8868 59.2004 95.9395 58.5632 90.5007 58.6907C90.5007 58.6907 82.4776 58.8425 78.576 59.4499L74.3328 69.1024L78.3022 81.5585L80.0646 83.3805Z" fill="#7E4210"/>
<path fill-rule="evenodd" clip-rule="evenodd" d="M60.1035 98.0709C60.1035 98.0709 54.876 85.2704 57.1074 63.6011C57.1074 63.6011 65.7079 61.1553 78.8634 59.4092C78.8634 59.4092 77.7002 75.645 82.7515 99.1608C82.7515 99.1608 71.9766 99.2395 60.1035 98.0709Z" fill="#5C6248"/>
<mask id="mask7_540_390" style="mask-type:luminance" maskUnits="userSpaceOnUse" x="56" y="59" width="27" height="41">
<path d="M60.1035 98.0709C60.1035 98.0709 54.876 85.2704 57.1074 63.6011C57.1074 63.6011 65.7079 61.1553 78.8634 59.4092C78.8634 59.4092 77.7002 75.645 82.7515 99.1608C82.7515 99.1608 71.9766 99.2395 60.1035 98.0709Z" fill="white"/>
</mask>
<g mask="url(#mask7_540_390)">
<path fill-rule="evenodd" clip-rule="evenodd" d="M60.9304 99.0903C60.9304 99.0903 73.4379 99.0036 75.767 96.8589C75.767 96.8589 77.1661 95.8231 77.1444 90.647C77.1444 90.647 75.8104 75.8917 77.646 57.6821L86.3006 53.6909L101.048 89.3456C101.048 89.3456 91.3329 112.813 90.4843 113.42C89.6355 114.027 68.4192 111.715 68.4192 111.715L57.9751 106.091L60.9304 99.0903Z" fill="#454A34"/>
</g>
</g>
<defs>
<filter id="filter0_d_540_390" x="0.845459" y="0.00195312" width="353.308" height="136.425" filterUnits="userSpaceOnUse" color-interpolation-filters="sRGB">
<feFlood flood-opacity="0" result="BackgroundImageFix"/>
<feColorMatrix in="SourceAlpha" type="matrix" values="0 0 0 0 0 0 0 0 0 0 0 0 0 0 0 0 0 0 127 0" result="hardAlpha"/>
<feOffset dy="4"/>
<feGaussianBlur stdDeviation="2"/>
<feComposite in2="hardAlpha" operator="out"/>
<feColorMatrix type="matrix" values="0 0 0 0 0 0 0 0 0 0 0 0 0 0 0 0 0 0 0.25 0"/>
<feBlend mode="normal" in2="BackgroundImageFix" result="effect1_dropShadow_540_390"/>
<feBlend mode="normal" in="SourceGraphic" in2="effect1_dropShadow_540_390" result="shape"/>
</filter>
</defs>
</svg>
