<svg width="356" height="301" viewBox="0 0 356 301" fill="none" xmlns="http://www.w3.org/2000/svg">
<path d="M0 10C0 4.47716 4.47715 0 10 0H346C351.523 0 356 4.47715 356 10V291C356 296.523 351.523 301 346 301H10C4.47715 301 0 296.523 0 291V10Z" fill="#8F9B87"/>
<path d="M218.698 128.268C215.022 127.249 211.753 125.934 207.838 125.629C185.871 123.929 163.1 138.53 138.847 139.424C137.555 139.472 134.543 139.581 133.667 138.748L132.422 129.338C142.693 131.535 153.937 130.84 163.592 126.674C163.82 125.29 163.332 125.591 162.19 125.603C158.357 125.639 153.079 127.457 148.837 127.736C143.672 128.075 138.174 127.495 132.975 127.744C133.022 124.332 133.166 120.803 133.54 117.409C134.548 108.225 136.342 95.7325 139.649 87.1829C140.321 85.4416 144.77 77.6815 144.67 77.1328C144.25 74.8361 140.823 79.6752 140.54 80.0815C139.198 82.0014 137.662 84.6372 137.426 86.9241C136.452 87.047 136.905 85.7217 136.875 85.0779C136.516 77.082 141.204 72.3215 147.497 67.6232C148.536 66.8483 154.078 63.9029 154.12 63.3394C154.204 62.1681 152.613 63.0019 152.207 63.0887C148.355 63.9127 143.029 67.5953 140.189 70.223C134.142 75.8157 129.543 83.4741 129.643 91.6977L130.908 91.1719L133.538 86.1329C134.193 97.4903 130.825 108.507 130.19 119.787L126.142 106.423L123.235 100.182C122.251 107.783 126.23 115.156 127.963 122.441C124.331 120.857 121.081 118.211 116.839 118.203C115.924 118.983 119.543 120.995 120.008 121.276C122.762 122.946 126.122 124.238 129.132 125.431L129.349 136.742C118.312 145.533 105.786 152.47 94.0502 160.376C87.5922 164.726 80.9931 169.437 75.1906 173.814C70.1226 177.639 64.8034 181.301 60.2222 185.663C59.1987 186.634 58.2129 187.642 57.2754 188.694C58.6912 188.759 60.2188 187.848 61.7034 186.684C63.8796 184.977 65.9612 182.721 67.4527 182.193C68.3249 181.884 68.7016 181.666 70.3565 180.229C77.7332 173.831 87.6163 168.195 95.4781 162.82C105.261 156.13 118.303 148.865 126.891 141.282C127.479 140.763 128.928 140.238 129.955 140.938C131.274 141.836 134.622 142.633 136.497 143.737C139.922 145.756 142.511 149.212 145.821 151.293C150 153.919 154.318 154.567 159.121 155.59C166.465 157.151 174.411 158.417 181.89 159.085L185.799 166.062C179.888 172.438 173.573 178.516 167.76 184.98C162.857 190.433 154.557 199.053 150.891 204.961C150.602 205.426 149.038 207.726 150.509 207.769C151.536 207.798 153.786 204.997 154.527 204.219C154.871 203.858 154.883 202.669 155.794 203.798C154.202 207.549 152.423 211.279 150.918 215.058C149.575 218.433 148.369 223.423 146.705 226.15C146.554 226.399 145.104 228.393 145 228.496C144.066 229.441 141.568 230.228 140.197 230.822C137.178 232.13 134.049 233.244 130.916 234.354C126.296 235.993 121.67 237.621 117.395 239.852C123.11 240.427 128.442 237.796 133.942 236.438C134.971 236.183 136.007 235.974 137.051 235.839C137.464 236.941 140.23 239.433 140.553 240.992C140.639 241.405 140.553 241.751 140.211 241.99C130.19 241.657 98.8671 240.483 94.9878 239.544C88.2029 237.904 78.8497 236.07 70.907 235.35C66.5684 234.959 62.1971 234.679 57.8327 234.82L99.0236 243.295L144.668 243.826L144.164 244.429H40.0225C32.4463 242.173 30 232.161 30 232.161V164.847L42.3277 141.595C42.3277 141.595 50.5111 128.848 54.5951 123.334C75.3918 95.2591 106.624 69.7954 137.016 50.7238C150.409 42.3184 163.979 38.2148 176.969 50.0604C178.194 51.1776 185.39 59.1309 184.741 59.8943C180.404 57.6467 174.899 59.1309 170.277 59.9074C170.277 59.9074 170.991 60.9542 171.108 60.9542H180.571C182.035 60.9542 186.821 62.9872 187.764 64.1749C189.897 66.8565 193.618 75.0785 195.431 78.6071C200.17 87.8251 204.198 97.4264 208.76 106.73C210.04 109.341 212.887 113.43 213.683 115.826C213.797 116.172 213.795 116.722 213.417 116.608C205.486 112.352 193.969 111.623 185.87 115.815C186.587 116.831 187.22 116.609 188.29 116.567C191.51 116.437 195.034 115.487 198.373 115.549C203.558 115.646 209.46 117.261 214.373 118.741C216.143 119.673 215.856 122.105 216.269 122.977C216.945 124.402 219.133 126.008 218.698 128.268Z" fill="#60615A"/>
<path d="M195.704 176.145C198.17 178.123 201.246 182.098 203.934 184.472C206.176 186.451 208.937 188.012 210.907 190.284C209.928 190.247 208.97 190.27 207.998 190.435C195.225 192.606 183.098 196.057 171.397 200.89L166.989 191.194C172.179 186.875 175.345 179.841 181.576 176.935C185.175 175.257 192.372 173.475 195.703 176.145H195.704Z" fill="#60615A"/>
<path d="M273.21 196.866L267.197 198.594C271.355 198.267 269.975 200.689 270.826 202.828C273.694 210.041 283.302 223.183 288.786 229.156C289.984 230.461 291.495 231.549 292.722 232.835C293.506 232.486 292.24 231.081 293.771 231.314C296.59 231.744 299.43 234.388 301.979 235.205C305.067 236.194 308.72 235.154 310.679 237.573L310.948 236.528L312.633 236.523C313.281 239.382 310.759 240.494 308.988 242.302C308.713 242.302 305.595 238.975 304.224 239.945C309.613 245.496 315.993 249.702 315.448 258.115L316.841 254.96C320.522 259.552 321.669 264.547 321.607 270.233C319.282 268.664 318.162 265.769 316.731 263.474C316.329 262.829 317.057 262.02 315.445 262.336C315.442 266.665 319.034 269.831 320.473 273.692L317.68 281.823C315.627 282.202 317.253 280.332 317.109 278.991C316.822 276.279 311.773 269.922 308.86 272.486C308.51 272.793 307.704 274.25 308.425 274.446L310.188 272.906C312.265 273.785 314.717 276.516 315.076 278.738C315.325 280.282 312.354 291.328 311.459 292.567C310.93 293.299 310.573 293.586 309.573 293.397C306.669 289.747 309.782 283.925 311.511 280.244L309.28 281.296L308.458 279.699L305.346 277.083C304.937 280.877 304.964 285.463 303.837 289.098C303.446 290.361 299.721 297.26 298.877 297.61C298.027 297.962 297.476 297.883 297.467 296.824C297.438 292.889 300.41 289.788 299.681 284.763C298.426 276.108 280.511 268.06 277.002 258.128C275.991 255.27 276.197 252.549 275.601 249.696L275.041 251.272C272.877 248.625 270.941 245.486 268.773 242.677C256.086 226.234 238.658 212.609 222.877 198.86C232.326 197.561 240.879 193.408 250.078 191.22C250.857 191.728 249.287 192.172 248.979 192.295C245.475 193.665 233.051 195.925 232.407 199.413C231.868 202.334 234.301 203.405 237.096 203.302C244.381 203.03 252.335 197.873 260.122 198.658C261.927 198.84 265.009 200.707 264.122 198.58L265.509 197.549L261.589 197.01C261.193 196.328 266.174 196.086 263.541 195.42C255.713 196.275 248.037 199.278 240.383 200.545C238.446 200.865 236.53 201.404 234.66 200.694C234.479 199.568 234.665 199.315 235.568 198.659C238.798 196.317 248.343 194.736 252.632 192.56C253.258 192.242 254.154 191.979 254.291 191.227L252.046 190.173L259.898 187.54C248.894 188.524 238.703 193.641 228.038 195.806C224.883 196.446 220.659 197.636 217.825 195.687C217.356 193.496 223.719 190.994 225.479 190.243C233.657 186.75 242.71 185.158 250.922 181.733L250.919 180.688L248.393 181.727C247.488 181.168 247.339 180.592 248.499 180.253C250.683 179.617 254.149 179.597 256.647 178.946C257.225 178.795 258.345 178.818 258.215 178.061C251.829 178.64 245.36 179.291 239.039 180.328C232.563 181.391 217.402 185.925 211.98 184.334C211.059 184.064 210.402 183.926 210.047 182.954C209.846 182.176 210.304 181.294 210.841 180.712C212.485 178.936 231.046 174.689 234.862 173.775C240.367 172.453 246.044 171.719 251.486 170.151C252.029 167.958 249.281 170.146 248.695 169.622L246.999 166.731L250.922 166.464C250.917 165.977 250.42 165.656 249.955 165.534C246.914 164.737 240.027 164.139 236.614 163.838C231.891 163.421 225.308 163.898 221.043 163.184C220.153 163.034 218.506 162.494 218.074 161.737V160.14C229.58 154.779 246.685 156.656 258.364 161.326C264.295 163.698 265.216 166.944 269.148 171.217C272.442 174.794 276.272 176.607 277.708 181.616C279.344 187.331 277.139 192.495 273.208 196.866H273.21Z" fill="#F6CEAE"/>
<path d="M282.8 48.3162C276.745 39.2442 270.086 44.1326 261.329 44.2921C252.942 44.4435 248.904 42.3045 239.828 44.6486C235.584 45.7442 232.425 47.849 228.489 49.0096C228.656 43.6019 225.694 35.0036 219.527 33.4572C208.466 30.6849 211.751 44.2693 210.553 50.2842C211.642 54.0657 215.248 54.8992 218.948 53.7564C216.167 57.831 212.642 54.8048 209.66 54.3115C205.118 53.5578 199.152 57.6958 194.4 58.3551C191.879 58.7035 189.408 58.5895 186.972 57.9693L208.837 96.717L212.8 95.0094C213.859 90.8828 210.943 87.1762 211.373 83.2498C214.419 87.2641 222.168 101.949 227.218 102.647L252.051 91.6707L251.489 89.5724C252.157 89.0319 256.216 90.4791 257.396 90.3863C260.98 90.1031 261.138 80.8015 264.113 79.0353L265.221 80.082C267.175 78.6137 269.091 77.6321 270.847 75.8789C273.994 72.7372 279.719 65.9539 282.238 62.3433C285.829 57.1945 286.461 53.802 282.8 48.3162ZM220.073 53.7483C222.99 47.8701 217.809 46.1414 212.783 49.0096C211.6 45.0409 214.816 42.5178 217.825 40.3169L215.583 39.0081L218.952 39L218.619 37.3803L215.028 37.4226C215.815 33.9992 221.096 35.7899 221.207 38.7884C221.251 39.9962 220.118 40.5676 220.087 41.3701C220.047 42.355 222.022 47.4225 222.289 48.7752C222.606 50.3787 222.442 53.6832 220.073 53.7483Z" fill="#F6CEAE"/>
<path d="M245.851 166.757C244.608 166.015 238.061 164.572 236.716 164.896C235.296 165.238 236.886 165.42 233.28 165.388C228.905 165.349 214.087 167.009 215.711 160.026C216.495 156.663 225.015 155.598 228.184 155.388C236.291 154.851 245.778 156.179 253.728 157.511L246.973 152.536L234.498 138.418L233.312 138.066C232.078 138.333 231.362 142.258 231.253 143.459L239.705 151.19C238.656 151.419 238.37 150.643 237.741 150.143C235.043 147.998 232.458 145.58 229.885 143.296L228.775 144.343C224.63 140.944 221.407 136.674 219.366 131.849C204.579 127.964 188.019 130.479 174.674 137.29C179.903 149.816 185.027 160.524 194.28 170.932C195.833 172.681 207.075 184.553 208.017 184.901C208.261 184.992 208.585 184.885 208.851 184.901C206.129 182.005 208.573 179.226 211.651 177.792C216.16 175.689 230.2 172.879 235.674 171.904C239.611 171.203 243.519 170.374 247.562 170.685C247.781 168.935 247.479 167.73 245.851 166.759V166.757ZM197.073 162.253C196.307 161.619 201.246 156.796 202.668 159.358C201.031 160.591 199.403 162.581 197.073 162.253Z" fill="#F6CEAE"/>
<path d="M224.923 204.051C229.8 208.638 234.351 213.688 238.562 218.825C238.226 220.406 222.173 226.663 219.628 227.417C211.411 229.851 210.622 229.633 204.097 224.394C195.046 217.131 192.891 209.501 190.382 198.905C196.891 195.578 204.646 194.673 211.93 193.332C212.793 193.416 223.397 202.615 224.923 204.051Z" fill="#F6CEAE"/>
<path d="M245.874 181.22C246.234 182.593 244.899 182.469 243.93 182.796C235.018 185.801 224.377 186.682 216.906 192.763L209.414 186.213L209.686 185.433C212.531 187.32 216.462 186.815 219.72 186.42C228.253 185.383 237.037 181.393 245.872 181.219L245.874 181.22Z" fill="#F6CEAE"/>
<path d="M319.935 280.246C320.912 280.112 320.509 281.465 320.433 282.028C320.201 283.736 318.971 289.84 316.291 289.196C314.237 288.701 317.278 285.692 317.779 284.809C318.602 283.355 319.509 281.859 319.935 280.246Z" fill="#F6CEAE"/>
<path d="M230.458 142.788C230.077 143.936 229.371 146.654 230.595 149.494C232.328 153.514 237.212 156.117 242.794 155.837C242.545 155.65 242.182 155.367 241.763 155.002C239.034 152.627 237.825 150.17 237.163 149.037C236.139 147.288 234.252 145.001 230.457 142.786L230.458 142.788Z" fill="#6EB8D8"/>
<path d="M236.849 165.195C236.849 165.195 243.165 166.203 244.382 169.589C254.261 172.45 246.416 161.217 236.849 165.195Z" fill="#6EB8D8"/>
<path d="M251.991 144.518C251.33 145.652 255.368 148.711 256.099 146.678C256.8 143.65 253.6 142.623 251.991 144.518Z" fill="#6EB8D8"/>
<path d="M266.449 146.103C266.647 146.712 272.376 149.849 271.852 147.615C271.184 144.208 268.053 144.934 266.449 146.103Z" fill="#6EB8D8"/>
<path d="M265.154 156.333C265.154 156.333 264.317 158.998 266.449 157.63C268.58 156.261 267.818 154.603 267.818 154.603L265.154 156.333Z" fill="#6EB8D8"/>
<path d="M278.471 164.402C278.471 164.402 279.916 163.754 280.525 165.843C281.135 167.932 282.655 165.075 282.655 165.075C282.273 162.116 279.89 161.966 278.471 164.402Z" fill="#6EB8D8"/>
<path d="M278.471 140.123C278.471 140.123 279.308 137.601 281.438 136.448C283.567 135.296 280.563 133.422 280.563 133.422C277.573 135.348 276.569 136.928 278.471 140.121V140.123Z" fill="#6EB8D8"/>
<path d="M293.764 156.312C294.603 154.898 299.832 150.126 299.7 155.396C298.339 156.685 294.259 159.708 293.764 156.312Z" fill="#6EB8D8"/>
<path d="M294.449 181.26C294.449 181.26 296.961 182.772 297.873 184.069C303.733 183.547 296.599 178.448 294.449 181.26Z" fill="#6EB8D8"/>
<path d="M292.242 204.529C292.242 204.529 293.917 207.987 293.764 209.932C297.692 212.281 295.658 204.81 294.906 204.529C294.449 204.529 292.242 204.529 292.242 204.529Z" fill="#6EB8D8"/>
<path d="M279.08 198.19C279.08 198.19 280.525 201.431 280.564 203.161C281.362 206.296 287.414 202.137 279.08 198.19Z" fill="#6EB8D8"/>
<path d="M262.758 197.857C263.624 199.282 264.863 201.023 266.61 202.801C268.529 204.754 270.457 206.139 272.003 207.087C275.579 207.455 270.376 198.979 269.188 197.865C268.965 197.7 266.695 196.066 264.327 196.883C263.627 197.125 263.112 197.514 262.758 197.856V197.857Z" fill="#6EB8D8"/>
<path d="M233.653 234.679C230.628 235.566 228.388 237.806 232.626 239.327C233.311 239.109 233.653 234.679 233.653 234.679Z" fill="#6EB8D8"/>
<path d="M242.862 218.074C238.68 217.878 240.439 220.925 241.948 222.109C241.948 222.109 241.263 232.267 242.023 233.564C246.204 236.54 246.89 226.498 248.875 230.97C246.839 232.316 243.834 244.506 249.936 239.349C248.87 235.966 251.958 234.287 254.807 234.214C264.048 235.258 242.093 219.199 242.862 218.076V218.074Z" fill="#6EB8D8"/>
<path d="M264.014 258.057C264.014 258.057 263.557 261.947 264.624 262.884C265.69 263.821 268.428 263.965 267.972 262.884C267.443 260.556 265.865 258.512 264.016 258.057H264.014Z" fill="#6EB8D8"/>
<path d="M245.295 248.404C244.694 248.91 244.908 253.215 247.122 251.286C246.916 251.134 245.814 247.995 245.295 248.404Z" fill="#6EB8D8"/>
<path d="M233.653 251.733C233.653 251.733 229.772 253.878 230.381 255.319C230.991 256.76 232.131 258.85 232.893 257.697C233.655 256.544 234.035 254.022 234.567 253.158C235.1 252.294 233.655 251.733 233.655 251.733H233.653Z" fill="#6EB8D8"/>
<path d="M213.718 240.417C213.718 240.417 209.762 241.56 211.131 243.001C212.501 244.442 212.576 246.747 213.718 245.091C217.332 242.298 213.877 242.727 213.718 240.417Z" fill="#6EB8D8"/>
<path d="M323.283 258.862C322.142 256.48 318.813 253.615 317.916 251.815C317.499 250.979 317.697 249.9 317.336 249.201C316.282 247.16 314.829 244.181 312.605 243.394C314.366 241.353 316.403 239.864 316.305 236.897C316.1 230.674 308.458 232.885 304.113 231.667C300.285 230.591 296.362 226.849 291.524 227.5L273.06 200.188C279.794 196.716 282.717 189.079 281.958 181.99C281.189 174.795 271.95 168.209 266.925 163.007C262.742 158.675 263.007 159.589 258.292 156.415C255.567 154.58 251.399 150.662 249.087 148.257C244.031 142.999 235.706 126.808 228.214 137.427C223.239 133.541 223.642 127.514 221.506 122.17L211.227 99.7373L215.598 97.9711C219.392 102.457 222.979 108.431 230.182 106.611C232.317 106.072 234.124 103.848 235.89 103.055C238.063 102.079 240.824 101.823 243.355 100.629C245.802 99.475 252.277 94.0102 253.392 93.7658C254.374 93.5507 256.858 94.4469 258.813 94.1699C262.841 93.5996 264.618 89.673 265.682 86.4388C266.071 85.2575 265.365 84.0437 266.37 82.8738C267.004 82.1341 269.841 81.2298 271.015 80.4152C272.006 79.7292 274.54 77.106 274.854 76.9398C275.418 76.64 280.483 76.1024 282.092 75.6103C289.31 73.4058 297.58 65.9435 299.522 58.8951C300.2 56.4365 299.973 54.0153 300.467 51.8809C300.98 49.6601 302.75 47.1901 303.072 44.3306C305.001 27.1771 282.38 10.1035 267.217 4.5703C256.422 0.630606 235.682 -1.33924 224.444 1.01513C214.205 3.16094 203.887 12.5621 198.521 20.7641C192.183 30.4553 188.726 42.3494 191.174 53.6112L186.719 53.3456C176.919 41.1322 161.854 33.8068 146.201 41.3375C130.326 48.9758 109.317 64.3338 95.1031 75.2421C71.0664 93.6876 49.4742 117.888 35.1139 143.936C34.0862 145.798 30.4883 151.983 30.1957 153.516C29.5828 156.733 30.6467 161.446 30.1957 164.851L42.5316 141.725C42.5316 141.725 50.7206 129.047 54.8073 123.563C75.6179 95.6395 106.871 70.3134 137.284 51.3448C150.685 42.9848 164.264 38.9033 177.263 50.685C178.488 51.7962 185.689 59.7065 185.04 60.4658C180.701 58.2303 175.192 59.7065 170.566 60.4788C170.566 60.4788 171.281 61.5199 171.398 61.5199H180.868C182.332 61.5199 187.122 63.5419 188.065 64.7232C190.2 67.3904 193.923 75.5679 195.737 79.0775C200.48 88.2457 204.51 97.7951 209.075 107.048C210.356 109.645 213.205 113.712 214.002 116.096C214.116 116.439 214.114 116.987 213.735 116.873C205.799 112.64 194.274 111.915 186.17 116.084C186.887 117.094 187.521 116.874 188.592 116.832C191.814 116.703 195.34 115.758 198.681 115.82C203.87 115.916 209.776 117.523 214.692 118.994C216.464 119.921 216.176 122.341 216.589 123.208C217.266 124.625 219.456 126.222 219.02 128.47C215.341 127.457 212.071 126.149 208.153 125.846C186.171 124.154 163.384 138.676 139.115 139.566C137.823 139.613 134.808 139.722 133.932 138.893L132.686 129.534C142.965 131.719 154.216 131.028 163.877 126.885C164.106 125.508 163.617 125.808 162.474 125.819C158.638 125.855 153.357 127.664 149.112 127.941C143.944 128.278 138.442 127.701 133.24 127.949C133.287 124.555 133.431 121.046 133.805 117.67C134.814 108.536 136.609 96.1104 139.918 87.607C140.591 85.875 145.042 78.1569 144.943 77.6111C144.523 75.3268 141.093 80.1398 140.809 80.5439C139.467 82.4534 137.929 85.075 137.694 87.3496C136.719 87.4718 137.172 86.1536 137.143 85.5133C136.783 77.5606 141.474 72.8258 147.771 68.1529C148.811 67.3822 154.357 64.4527 154.398 63.8922C154.483 62.7273 152.89 63.5566 152.484 63.6429C148.63 64.4625 143.3 68.1252 140.458 70.7386C134.407 76.3011 129.806 83.9182 129.906 92.0974L131.171 91.5744L133.803 86.5626C134.459 97.8587 131.088 108.816 130.453 120.035L126.403 106.743L123.493 100.536C122.509 108.096 126.49 115.429 128.224 122.675C124.59 121.099 121.338 118.468 117.093 118.46C116.177 119.235 119.799 121.236 120.264 121.516C123.02 123.177 126.382 124.462 129.394 125.648L129.611 136.899C118.566 145.642 106.033 152.542 94.2888 160.405C87.8265 164.731 81.223 169.417 75.4165 173.77C70.3451 177.575 65.0224 181.216 60.4382 185.555C59.4139 186.521 58.4275 187.523 57.4893 188.569C58.9061 188.635 60.4347 187.729 61.9203 186.57C64.098 184.873 66.1809 182.629 67.6734 182.104C68.5462 181.796 68.9232 181.58 70.5792 180.151C77.9608 173.787 87.8506 168.182 95.7176 162.836C105.508 156.182 118.558 148.956 127.151 141.414C127.74 140.897 129.19 140.376 130.217 141.072C131.538 141.964 134.888 142.758 136.764 143.856C140.191 145.863 142.782 149.301 146.094 151.37C150.276 153.982 154.596 154.627 159.403 155.644C166.752 157.197 174.703 158.456 182.188 159.121L186.099 166.06C180.184 172.402 173.865 178.447 168.048 184.876C163.142 190.3 154.836 198.873 151.167 204.749C150.878 205.211 149.313 207.499 150.785 207.541C151.813 207.571 154.065 204.784 154.806 204.011C155.151 203.652 155.163 202.469 156.073 203.592C154.481 207.323 152.701 211.033 151.195 214.792C149.85 218.148 148.644 223.111 146.979 225.824C146.828 226.072 145.376 228.054 145.273 228.157C144.338 229.097 141.839 229.879 140.467 230.471C137.446 231.771 134.314 232.879 131.18 233.984C126.556 235.613 121.927 237.232 117.649 239.452C123.368 240.023 128.704 237.407 134.208 236.056C135.237 235.802 136.273 235.595 137.318 235.46C137.731 236.556 140.499 239.034 140.823 240.586C140.909 240.996 140.823 241.34 140.481 241.578C130.453 241.247 99.1089 240.079 95.227 239.145C88.4376 237.514 79.078 235.689 71.1301 234.974C66.7886 234.585 62.4144 234.306 58.0471 234.446L99.2655 242.876L144.941 243.404C146.241 239.73 143.479 237.768 141.599 234.974C144.584 234.515 149.255 232.843 150.978 230.402C156.075 220.954 158.008 208.698 162.732 199.354C162.939 198.948 164.753 195.724 165.543 196.481C166.395 199.54 168.015 204.724 171.088 206.267C176.48 208.973 183.587 207.787 189.447 208.133C190.542 215.934 196.299 223.349 202.742 228.094C211.659 234.66 216.383 232.594 226.081 228.734C228.677 227.701 238.712 223.09 240.204 221.505C241.072 220.582 239.566 218.142 241.02 218.111C242.539 218.08 246.975 224.16 248.257 225.487C252.644 230.018 257.021 234.665 260.832 238.915C264.174 242.643 269.474 247.618 271.938 252.103C273.239 254.471 273.062 257.456 274.062 260.11C277.57 269.41 295.298 279.407 295.337 286.365C295.36 289.92 290.164 297.648 295.117 300.281C299.846 302.793 302.998 298.203 304.253 294.542C304.836 294.123 310.448 299.541 313.975 294.526C314.53 293.739 314.795 292.066 314.905 291.978C315.695 291.349 319.21 292.481 321.429 288.927C325.177 282.93 326.268 265.1 323.283 258.862ZM208.982 96.0892L187.273 57.3065C189.692 57.9273 192.145 58.0413 194.648 57.6927C199.366 57.0328 205.29 52.8911 209.8 53.6454C212.761 54.1391 216.261 57.168 219.022 53.0898C215.348 54.2336 211.768 53.3994 210.687 49.6145C211.876 43.5942 208.614 29.9975 219.597 32.7722C225.72 34.3201 228.66 42.9261 228.495 48.3387C232.403 47.177 235.539 45.0703 239.753 43.9738C248.765 41.6276 252.774 43.7685 261.101 43.617C269.796 43.4573 276.408 38.5644 282.419 47.6446C286.055 53.1355 285.427 56.531 281.862 61.6845C279.36 65.2983 273.676 72.0877 270.552 75.2323C268.808 76.9871 266.906 77.9696 264.966 79.4392L263.866 78.3915C260.912 80.1594 260.755 89.4693 257.197 89.7528C256.024 89.8457 251.995 88.3972 251.332 88.9381L251.89 91.0383L227.233 102.025C222.219 101.326 214.525 86.6278 211.501 82.6099C211.074 86.5398 213.969 90.2497 212.918 94.3801L208.982 96.0892ZM175.063 136.698C188.313 129.881 204.754 127.364 219.437 131.253C221.463 136.083 224.663 140.356 228.779 143.758L241.719 155.255L239.631 150.611L231.239 142.874C231.347 141.671 232.058 137.743 233.284 137.476L234.462 137.828L246.847 151.959L253.554 156.938C249.846 156.312 245.801 155.687 241.719 155.255C237.113 154.768 232.459 154.528 228.192 154.813C225.045 155.023 216.586 156.089 215.808 159.455C214.195 166.445 228.908 164.783 233.251 164.822C236.832 164.855 244.499 165.449 245.734 166.192C247.35 167.165 247.65 168.371 247.433 170.122C243.418 169.811 239.538 170.64 235.629 171.343C230.194 172.319 216.254 175.131 211.776 177.236C208.721 178.671 206.293 181.453 208.996 184.351C208.733 184.336 208.411 184.444 208.168 184.351C207.233 184.002 196.071 172.12 194.529 170.37C185.342 159.952 180.255 149.234 175.063 136.697V136.698ZM209.829 184.887C212.652 186.776 216.555 186.27 219.791 185.875C228.264 184.837 236.983 180.843 245.756 180.669C246.114 182.044 244.79 181.92 243.828 182.248C234.978 185.255 224.413 186.137 216.996 192.224L209.557 185.668L209.829 184.887ZM171.689 200.7L167.278 191.056C172.472 186.761 175.64 179.765 181.875 176.876C185.476 175.206 192.678 173.433 196.011 176.089C198.478 178.055 201.556 182.01 204.247 184.371C206.49 186.339 209.253 187.892 211.224 190.152C210.246 190.114 209.285 190.137 208.314 190.301C195.533 192.46 183.398 195.892 171.689 200.7ZM219.697 226.907C211.54 229.343 210.757 229.125 204.278 223.883C195.292 216.613 193.152 208.977 190.661 198.371C197.123 195.041 204.823 194.135 212.053 192.791C212.912 192.876 223.439 202.085 224.954 203.52C229.798 208.112 234.317 213.167 238.498 218.309C238.164 219.892 222.224 226.153 219.697 226.907ZM319.785 281.568C319.555 283.277 318.334 289.387 315.673 288.742C313.635 288.246 316.654 285.235 317.151 284.351C317.969 282.896 318.87 281.398 319.291 279.784C320.262 279.652 319.861 281.004 319.785 281.568ZM320.951 269.763C318.642 268.193 317.53 265.296 316.11 262.998C315.711 262.353 316.434 261.542 314.831 261.858C314.828 266.192 318.396 269.359 319.823 273.224L317.052 281.363C315.013 281.742 316.626 279.87 316.485 278.528C316.2 275.815 311.187 269.451 308.295 272.017C307.947 272.326 307.146 273.783 307.863 273.978L309.613 272.437C311.676 273.317 314.108 276.051 314.464 278.277C314.712 279.821 311.762 290.876 310.873 292.116C310.348 292.849 309.994 293.138 309.002 292.947C306.119 289.296 309.21 283.468 310.927 279.784L308.711 280.835L307.895 279.238L304.805 276.62C304.399 280.418 304.427 285.007 303.308 288.646C302.919 289.912 299.221 296.817 298.382 297.165C297.539 297.517 296.992 297.439 296.985 296.378C296.955 292.439 299.906 289.335 299.181 284.305C297.935 275.644 280.149 267.588 276.663 257.646C275.661 254.785 275.864 252.064 275.274 249.206L274.718 250.783C272.569 248.136 270.646 244.994 268.495 242.182C255.897 225.723 238.593 212.087 222.924 198.326C232.306 197.024 240.798 192.869 249.932 190.679C250.705 191.188 249.147 191.633 248.841 191.755C245.362 193.127 233.026 195.388 232.387 198.88C231.852 201.803 234.267 202.875 237.042 202.772C244.276 202.5 252.172 197.338 259.905 198.124C261.697 198.306 264.757 200.175 263.874 198.046L265.251 197.016C265.251 197.016 265.912 195.551 263.298 194.885C255.525 195.74 247.904 198.746 240.304 200.015C238.381 200.336 236.479 200.876 234.622 200.165C234.443 199.036 234.627 198.785 235.524 198.129C238.731 195.786 248.207 194.204 252.466 192.024C253.089 191.706 259.682 186.999 259.682 186.999C248.756 187.985 238.638 193.105 228.047 195.272C224.914 195.913 220.721 197.104 217.908 195.154C217.442 192.96 223.761 190.456 225.508 189.703C233.627 186.207 242.616 184.613 250.771 181.185C250.771 181.185 258.142 178.267 258.011 177.51C251.669 178.09 245.248 178.74 238.972 179.778C232.542 180.842 217.488 185.379 212.105 183.787C211.191 183.517 210.537 183.378 210.186 182.404C209.986 181.627 210.44 180.744 210.974 180.162C212.606 178.385 231.036 174.134 234.825 173.216C240.29 171.895 245.926 171.159 251.33 169.59C251.869 167.395 250.772 165.899 250.772 165.899C250.767 165.412 250.273 165.091 249.812 164.969C246.791 164.172 239.953 163.574 236.565 163.273C231.876 162.856 225.34 163.333 221.105 162.616C220.222 162.468 218.586 161.925 218.156 161.169V159.571C229.579 154.205 246.563 156.084 258.159 160.759C264.048 163.132 264.962 166.381 268.866 170.657C272.137 174.238 275.94 176.051 277.365 181.066C278.99 186.785 276.801 191.955 272.898 196.33L266.928 198.059C271.056 197.731 269.686 200.156 270.531 202.296C273.378 209.516 282.917 222.67 288.364 228.648C289.555 229.954 291.053 231.043 292.273 232.33C293.049 231.981 291.793 230.575 293.315 230.808C296.114 231.24 298.933 233.884 301.462 234.702C304.53 235.693 308.155 234.652 310.1 237.073L310.367 236.027L312.04 236.023C312.684 238.883 310.18 239.997 308.422 241.806C308.15 241.804 305.053 238.476 303.691 239.447C309.042 245.003 315.375 249.213 314.836 257.635L316.218 254.477C319.873 259.073 321.013 264.072 320.951 269.763Z" fill="black"/>
<path d="M61.8807 214.133C61.1784 214.987 47.4653 224.69 47.4653 224.69C47.8939 225.206 49.2849 224.995 49.9631 224.946C55.6938 224.533 66.4013 223.905 71.6069 222.841C72.0976 222.741 72.6949 222.495 74.3045 222.212C77.1759 221.708 80.0162 220.936 82.8257 220.199L83.1097 221.252C80.3898 222.037 77.7818 223.277 74.981 223.846C67.6528 225.33 57.596 226.23 49.9683 227.057C48.2176 227.246 40.2249 227.585 40.2249 227.585C41.1837 225.695 86.0258 194.881 106.441 178.759C109.422 176.405 112.545 171.737 116.533 171.709C104.39 184.312 89.3844 194.006 75.1962 204.423C72.3696 206.498 69.2399 208.509 66.2773 210.74C65.4579 211.356 62.1596 213.795 61.8807 214.133Z" fill="black"/>
<path d="M141.617 195.183C139.597 200.068 126.793 210.052 121.729 212.736C120.944 213.151 115.23 215.818 114.864 215.46C114.371 214.974 114.779 214.231 115.571 213.746C118.859 211.73 122.49 209.824 125.573 207.558C131.324 203.328 135.58 198.132 140.472 193.721C140.954 193.285 141.513 192.972 142.15 192.793C142.254 193.643 141.935 194.414 141.617 195.183Z" fill="black"/>
<path d="M220.139 53.0817C223.035 47.1982 217.891 45.4679 212.899 48.3387C211.725 44.3681 214.92 41.8426 217.905 39.6382L215.679 38.3282L219.024 38.32L218.693 36.6989L215.128 36.7412C215.909 33.3148 221.153 35.107 221.263 38.1082C221.308 39.3172 220.182 39.8891 220.151 40.6923C220.111 41.6781 222.072 46.7502 222.337 48.1041C222.652 49.709 222.489 53.0165 220.137 53.0817H220.139Z" fill="black"/>
<path d="M197.302 161.684C196.541 161.05 201.446 156.221 202.859 158.787C201.234 160.02 199.618 162.012 197.302 161.684Z" fill="black"/>
</svg>
