<svg width="49" height="43" viewBox="0 0 49 43" fill="none" xmlns="http://www.w3.org/2000/svg">
<path d="M36.1407 42.9858L11.1598 43C6.56164 42.4608 3.52053 38.1124 4.74245 33.6295C5.79223 29.7776 10.0461 27.3119 13.944 28.4795C14.8477 25.0323 19.0912 23.191 22.1936 25.0892C26.4723 16.9897 38.6784 21.726 36.0103 30.5612C36.5097 30.7901 37.0953 30.8586 37.6352 31.0745C43.4983 33.4252 42.3546 42.0897 36.1407 42.9858Z" fill="#E0C389"/>
<path d="M47.477 29.0613C45.8443 30.9582 43.5883 31.4107 41.1509 31.1689C40.3502 30.3427 39.4322 29.7582 38.3967 29.254C38.2729 28.6993 38.398 28.1187 38.3485 27.5614C37.9416 22.9828 34.1507 19.1646 29.4664 18.9939C29.6907 16.8436 29.2734 14.6377 28.2954 12.7034L29.7585 13.1443C34.2276 5.18321 46.0595 9.99581 43.5635 18.8038C48.4342 19.5602 50.7463 25.2637 47.477 29.0613Z" fill="#E0C389"/>
<path d="M27.5103 19.087C25.0626 19.4284 22.9578 20.7989 21.402 22.648C18.3779 21.8812 15.5272 22.9091 13.5045 25.1874C13.3637 25.3478 13.1251 25.8689 12.9399 25.8533C10.5026 24.4724 8.85029 21.7778 8.49167 19.0301C7.88658 14.4102 10.8807 9.91564 15.4098 8.68599C22.1127 6.86801 28.3214 12.34 27.5103 19.087Z" fill="#E0C389"/>
<path d="M10.3878 6.69733C10.1413 6.43226 8.75248 4.01303 8.60252 3.62772C8.38995 3.07818 8.62338 2.39935 9.23369 2.26746C9.55971 2.19764 9.95745 2.29591 10.1935 2.53383C10.4008 2.74329 11.967 5.44699 12.0453 5.73145C12.3309 6.77621 11.062 7.41883 10.3878 6.69733Z" fill="#E0C389"/>
<path d="M25.6024 6.69475C24.8291 7.39685 23.6698 6.7594 23.9489 5.73145C24.0206 5.4625 25.4942 2.90492 25.712 2.63985C25.8359 2.48728 26.1293 2.30755 26.3171 2.27005C26.8557 2.16532 27.4308 2.56098 27.496 3.09758C27.5833 3.81391 25.9285 5.92411 25.6024 6.69475Z" fill="#E0C389"/>
<path d="M5.79223 11.934C5.48447 11.8461 2.84111 10.3527 2.61811 10.1419C2.04562 9.60532 2.21646 8.63685 2.98456 8.46359C3.24276 8.4054 3.42533 8.43773 3.6705 8.51919C4.04868 8.64332 6.21997 9.91177 6.57468 10.1872C7.52274 10.9229 6.89418 12.2482 5.79223 11.934Z" fill="#E0C389"/>
<path d="M4.50511 18.7793C4.07476 18.8749 1.19145 18.8672 0.741545 18.778C-0.289979 18.5724 -0.202606 17.0958 0.738937 16.885C1.19406 16.7828 3.91175 16.7997 4.40469 16.8876C5.47925 17.0789 5.40883 18.5788 4.50511 18.7793Z" fill="#E0C389"/>
<path d="M18.9986 4.21087C18.7887 5.44828 17.2368 5.43794 17.0751 4.42163C16.9825 3.84106 16.9786 1.23305 17.0751 0.657661C17.1899 -0.0263433 18.2462 -0.202193 18.6948 0.250362C18.7782 0.335701 18.8499 0.47276 18.8917 0.585253C19.0912 1.12573 19.1029 3.5928 18.9986 4.21087Z" fill="#E0C389"/>
<path d="M6.78594 25.3491L3.52836 27.1981C2.46162 27.4606 1.82523 26.2839 2.62854 25.5327C2.78894 25.3827 5.54315 23.7974 5.71659 23.7574C6.79767 23.5091 7.41581 24.4802 6.78594 25.3491Z" fill="#E0C389"/>
</svg>
