<svg width="57" height="43" viewBox="0 0 57 43" fill="none" xmlns="http://www.w3.org/2000/svg">
<path d="M28.2787 40.6026C27.8862 41.3905 27.7841 42.1418 27.9851 42.9951L5.36328 42.9855C2.85985 42.0795 2.58222 40.3649 3.71986 38.1399C6.37168 32.9578 9.90105 27.9703 12.5991 22.7802C13.9633 20.7131 17.0252 20.5025 18.5474 22.5234L26.4997 36.1829C27.2767 37.167 28.6489 36.3424 28.1303 35.1493L20.1477 21.3271L24.5244 13.8084C25.8933 12.3298 27.9484 11.9821 29.6956 13.0507C30.5524 13.5739 30.9545 14.3953 31.4698 15.2167C33.4834 18.4354 35.2018 21.8981 37.1771 25.1455L28.2787 40.6026Z" fill="#E0C389"/>
<path d="M53.8475 42.9998H30.7869C29.8551 43.0142 29.5248 42.0126 30.0737 41.3219L41.2969 22.0975C41.8154 21.5935 42.8892 21.115 43.6072 21.0576C45.1629 20.9348 46.2575 21.8232 47.0712 23.021C50.3756 27.8889 52.9094 33.8079 56.1563 38.7715C57.1376 40.6042 55.909 42.8435 53.8475 42.9998Z" fill="#E0C389"/>
<path d="M25.8327 10.7013C25.3014 10.9884 24.7605 11.1607 24.2435 11.4972C23.2128 12.1703 22.7421 13.0156 22.1119 14.0237C20.9168 15.9329 19.8669 17.9713 18.7803 19.9459C17.9873 19.7752 17.2933 19.3222 16.4588 19.2377C14.5234 19.0431 12.7029 19.6508 11.4424 21.1453C10.9063 21.7817 10.6191 22.6239 10.1707 23.2188C10.0686 23.3544 10.0447 23.4612 9.83245 23.415C4.61018 13.2597 17.1417 3.24633 25.8327 10.7013Z" fill="#E0C389"/>
<path d="M9.11285 9.98675C8.66769 9.65818 6.16106 7.17479 5.88982 6.76169C5.62655 6.36134 5.56273 5.78236 5.92332 5.42189C6.32541 5.01995 6.90619 5.14277 7.32742 5.44263C7.70397 5.71059 10.3861 8.39177 10.6031 8.73629C11.27 9.79695 10.2058 10.797 9.11285 9.98675Z" fill="#E0C389"/>
<path d="M19.977 5.67868C19.7983 6.80475 18.2426 6.82867 18.0799 5.79831C17.9538 5.004 17.9554 1.59392 18.0799 0.798019C18.198 0.0340185 19.1856 -0.275413 19.7058 0.290808C19.8526 0.451902 19.9611 0.807589 19.9866 1.0277C20.0871 1.92568 20.111 4.82696 19.977 5.67868Z" fill="#E0C389"/>
<path d="M6.18181 19.469C5.32818 19.6045 2.42746 19.579 1.52756 19.4785C1.30737 19.4546 0.951563 19.3446 0.792007 19.1994C0.223988 18.6794 0.533526 17.6921 1.29939 17.5725C2.09558 17.4481 5.50529 17.4481 6.29988 17.5725C7.33061 17.7352 7.30668 19.2919 6.18181 19.469Z" fill="#E0C389"/>
<path d="M32.3554 6.23055C32.1703 7.31036 29.2775 9.23073 28.5803 10.2196C27.6134 10.5769 26.798 9.67732 27.3884 8.78891C27.6852 8.34072 30.2492 5.80469 30.7295 5.44582C30.8747 5.33736 30.9848 5.20976 31.1778 5.16988C31.7762 5.04547 32.4623 5.59894 32.3554 6.23055Z" fill="#E0C389"/>
</svg>
