<svg width="30" height="30" viewBox="0 0 30 30" fill="none" xmlns="http://www.w3.org/2000/svg">
<path d="M28.8412 14.0957C27.8582 13.2322 26.9272 12.4119 25.6562 11.9916C19.7021 10.0224 14.1114 15.5292 16.0511 21.5263C17.2287 25.1686 21.1829 27.3884 24.9012 26.4481C25.5337 28.189 24.1245 29.8848 22.3017 29.3083L14.9615 25.4656L7.69083 29.3083C6.13415 29.7286 4.90633 28.7204 4.9865 27.0968C5.10337 24.7243 6.15232 21.9127 6.27916 19.5589C6.28736 19.402 6.32691 19.2479 6.27061 19.0924C4.54647 17.2361 2.5551 15.6049 0.828468 13.7568C-0.297087 12.5524 -0.346613 11.1968 1.11957 10.2708C3.898 9.57706 6.81041 9.44589 9.62661 8.89192L13.3115 1.52272C14.1231 0.330077 15.6253 0.268247 16.582 1.32079L20.3246 8.85797L28.6039 10.1392C30.4774 10.8573 30.373 13.0413 28.8412 14.0957Z" fill="#E0C389"/>
<path d="M23.1696 12.6607C19.6116 12.6607 16.7273 15.5538 16.7273 19.1228C16.7273 22.6918 19.6116 25.585 23.1696 25.585C26.7276 25.585 29.6119 22.6918 29.6119 19.1228C29.6119 15.5538 26.7276 12.6607 23.1696 12.6607ZM26.9037 20.0249H24.0019V22.9356C23.9285 22.9624 23.8822 22.8355 23.8519 22.8355H22.301V20.0249H19.5492L19.3989 19.8744V18.3687L19.5492 18.2182H22.301V15.4077L24.0019 15.3072V18.2182H26.9037V20.0249Z" fill="white"/>
</svg>
