<svg width="30" height="30" viewBox="0 0 30 30" fill="none" xmlns="http://www.w3.org/2000/svg">
<path d="M29.9986 24.2487C29.9859 24.6967 29.6596 24.9182 29.2873 25.0712L0.782798 25.0935C0.381845 24.9532 0.0141157 24.7194 0.000462399 24.2487C-0.0168318 23.624 0.455573 20.6016 0.648085 19.9733C0.837866 19.3528 1.28797 19.1008 1.92877 19.1544C1.89418 20.371 2.78392 22.3221 4.13059 22.4987C5.06585 22.6212 6.30238 22.1074 7.20259 21.854C7.32957 21.854 7.08745 22.417 7.67636 22.4987C9.01803 22.6852 10.7497 22.3943 12.1333 22.4882C12.5087 22.3788 13.4112 20.6438 13.7398 20.2716C13.8062 21.3365 14.6186 22.4855 15.7227 22.6716C17.702 23.0048 20.4554 22.4669 22.5184 22.6957C22.7656 22.762 23.3099 22.2612 23.3099 22.0883V20.5517C23.9461 20.4795 24.4404 20.7537 24.4349 21.4387C24.4326 21.7224 24.1978 21.8836 24.246 22.2658C24.3553 23.1369 26.4119 23.0666 26.8438 22.3539C27.4395 21.371 26.634 21.0964 26.5061 20.3905C26.4347 19.9974 26.5116 19.5552 26.4843 19.1548C27.1005 19.2393 28.0107 19.04 28.5851 19.1548C28.946 19.227 29.2482 19.6328 29.3519 19.9733C29.5435 20.6016 30.0168 23.6254 29.9995 24.2487H29.9986Z" fill="white"/>
<path d="M22.6559 21.8091C22.65 21.845 22.5544 22.0406 22.502 22.0483C20.2356 21.8087 17.9123 22.0361 15.6262 21.929C14.6268 21.5622 14.3392 20.4481 14.4338 19.4744C14.5258 18.5334 16.3285 17.0222 16.4714 15.8228C16.592 14.8105 15.8351 14.7156 15.7487 14.2635L15.7409 7.85045C17.798 7.32613 21.0066 7.14728 21.7516 9.67263C22.538 12.3382 19.1597 15.6739 18.0583 17.9718C17.8868 18.2946 18.0747 18.4644 18.4029 18.507C19.2457 18.6169 20.7394 18.5656 21.6651 18.5865C21.9445 18.5928 22.3933 18.3182 22.6554 18.6423C22.5462 19.6083 22.8024 20.8849 22.6554 21.8087L22.6559 21.8091Z" fill="white"/>
<path d="M15.7254 15.92L12.1037 21.5758C12.0181 21.6352 11.6822 21.3629 11.5944 21.2939C11.4215 21.1577 10.6159 20.4541 10.6136 20.321C10.6032 19.7731 12.2803 17.7948 12.3007 17.0585C12.0841 16.0838 11.006 16.9282 10.3501 17.078C9.3184 17.3136 7.39283 17.2782 7.35278 15.8401C7.3373 15.2844 7.83701 13.9611 8.07367 13.41C9.34161 10.4571 11.959 8.58132 15.0933 7.97937V13.9393C13.8204 13.3601 12.6598 12.7309 11.218 12.637C10.8626 12.6138 10.2232 12.5048 10.3451 13.0355C10.3629 13.1118 10.4475 13.208 10.519 13.2412C10.7975 13.3719 11.8106 13.4046 12.2202 13.4995C13.0116 13.6833 14.9053 14.5395 15.5002 15.0706C15.7819 15.3221 15.7883 15.5654 15.7259 15.9195L15.7254 15.92Z" fill="white"/>
<path d="M9.16002 19.5234C8.9534 20.1149 8.36403 20.2053 7.96581 20.4736C7.73826 20.627 7.60946 20.8458 7.36734 20.9943C6.88947 21.2862 4.9375 21.8722 4.40958 21.8491C2.79621 21.7782 1.8869 18.3159 3.37556 17.2918C3.9754 16.8792 4.26667 17.2033 4.82646 17.0621C5.0927 16.9949 6.6155 16.0071 6.68968 16.0816C6.77069 16.7616 7.08563 17.0834 7.59444 17.4652C7.67545 17.526 7.86114 17.5437 7.88844 17.5873C7.94032 17.6704 7.87615 17.8824 7.99221 18.0894C8.32034 18.6736 9.45675 18.675 9.16048 19.523L9.16002 19.5234Z" fill="white"/>
<path d="M7.06333 9.19053C6.44529 11.2628 3.85662 11.9728 2.16224 10.68C0.742293 9.59682 0.516103 7.18041 1.92786 6.02374C2.17316 8.5155 4.71768 9.9913 7.06333 9.19053Z" fill="white"/>
<path d="M24.8968 22.1341C25.377 21.4532 25.0006 20.164 24.1527 19.9438C23.9616 19.8943 23.3203 19.9302 23.3081 19.8467C23.3517 19.4908 23.2266 19.0245 23.3599 18.6932C23.5129 18.3132 24.3999 17.4702 24.8522 17.4757C26.1352 17.4902 25.6601 19.3051 25.7488 20.1213C25.8808 21.3365 27.3349 22.3253 24.8968 22.1341Z" fill="white"/>
<path d="M11.0783 21.7623H7.90392C8.02224 20.8672 9.16321 20.7387 9.8882 20.76L11.0783 21.7623Z" fill="white"/>
<path d="M6.03569 6.39598C5.6229 6.13723 5.41992 6.24209 5.00987 6.39553C5.18235 5.93158 4.93432 5.75227 4.72952 5.37277C5.14048 5.41362 5.32298 5.22705 5.52414 4.90656H5.66158C5.70345 5.23476 6.01521 5.36777 6.31694 5.37277C6.18542 5.7382 5.94011 5.95564 6.03569 6.39643V6.39598Z" fill="white"/>
</svg>
