<svg width="50" height="48" viewBox="0 0 50 48" fill="none" xmlns="http://www.w3.org/2000/svg">
<mask id="mask0_521_11453" style="mask-type:luminance" maskUnits="userSpaceOnUse" x="0" y="0" width="50" height="49">
<path d="M29.7786 48H3.02738C1.35824 48 0 46.6411 0 44.9701V5.6749C0 4.00436 1.35824 2.64484 3.02738 2.64484H7.22599V5.94477C7.22599 6.73146 7.86342 7.36972 8.6496 7.36972C9.43578 7.36972 10.0734 6.73146 10.0734 5.94477V2.64484H14.9794V5.94477C14.9794 6.73146 15.6168 7.36972 16.403 7.36972C17.1892 7.36972 17.8267 6.73146 17.8267 5.94477V2.64484H22.7325V5.94477C22.7325 6.73146 23.3702 7.36972 24.1562 7.36972C24.9423 7.36972 25.58 6.73146 25.58 5.94477V2.64484H29.7786C31.4477 2.64484 32.806 4.00436 32.806 5.6749V25.9284L28.4023 36.0621C28.3117 36.2707 28.2732 36.4966 28.2874 36.7197L28.5757 44.335C28.5961 44.8827 28.9288 45.3702 29.4309 45.5883C29.61 45.6662 29.8032 45.7061 29.9984 45.7061C30.3398 45.7061 30.6699 45.5829 30.9288 45.3594L32.806 43.7362V44.9707C32.806 46.6413 31.4477 48.0002 29.7786 48.0002V48ZM45.8874 27.6204C45.8001 27.6204 45.7118 27.6028 45.6269 27.566C45.2949 27.4216 45.1436 27.0352 45.2872 26.7033L47.6826 21.1907L44.2884 19.7133L44.2814 19.7101L38.2098 17.0673C38.0501 16.998 37.9255 16.8685 37.8613 16.7067C37.7976 16.5448 37.8012 16.3645 37.8703 16.2049L38.9422 13.7383C39.4721 12.5177 40.6789 11.7285 42.015 11.7285C42.4733 11.7285 42.9192 11.8214 43.3403 12.0046L44.4894 12.5052C46.1797 13.2409 46.9567 15.2151 46.2219 16.9068L45.4109 18.773L48.8055 20.2506C49.1371 20.3948 49.2888 20.7811 49.1449 21.1126L46.4888 27.2257C46.3816 27.473 46.1406 27.6206 45.8877 27.6206L45.8874 27.6204ZM29.6115 35.2088C29.8356 35.1936 30.0633 35.2311 30.2756 35.3235L36.3547 37.9694C36.567 38.0618 36.75 38.2026 36.8916 38.3773L44.6456 20.5341C44.6135 20.5362 44.5814 20.5374 44.5489 20.5374C44.3537 20.5374 44.1609 20.4969 43.9819 20.419L37.9026 17.7728C37.6918 17.6808 37.508 17.5403 37.3657 17.3648L29.6117 35.2086L29.6115 35.2088ZM29.9984 44.9364C30.152 44.9364 30.3049 44.8816 30.4259 44.7767L36.2151 39.7718C36.3852 39.6243 36.4686 39.4 36.4345 39.1772C36.4004 38.9546 36.2546 38.7647 36.0481 38.6747L29.969 36.0291C29.763 35.9396 29.5247 35.9622 29.3391 36.0886C29.1532 36.2158 29.0457 36.4295 29.0544 36.6546L29.3438 44.3055C29.3536 44.5575 29.5066 44.7815 29.7372 44.8824C29.8209 44.9184 29.9096 44.9363 29.9984 44.9363V44.9364ZM24.1561 6.60017C24.5179 6.60017 24.8109 6.30675 24.8109 5.94477V0.655248C24.8109 0.293424 24.5178 0 24.1561 0C23.7944 0 23.5012 0.293424 23.5012 0.655248V5.94477C23.5012 6.3069 23.7946 6.60017 24.1561 6.60017ZM16.4028 6.60017C16.7647 6.60017 17.0575 6.30675 17.0575 5.94477V0.655248C17.0575 0.293424 16.7647 0 16.4028 0C16.041 0 15.7481 0.293424 15.7481 0.655248V5.94477C15.7481 6.3069 16.0413 6.60017 16.4028 6.60017ZM8.6496 6.60017C9.01142 6.60017 9.30445 6.30675 9.30445 5.94477V0.655248C9.30445 0.293424 9.01127 0 8.6496 0C8.28793 0 7.9949 0.293424 7.9949 0.655248V5.94477C7.9949 6.3069 8.28808 6.60017 8.6496 6.60017ZM20.6497 39.1447C20.852 39.1447 21.0161 38.9803 21.0161 38.778C21.0161 38.5756 20.852 38.4112 20.6497 38.4112H14.058C13.8554 38.4112 13.6914 38.5753 13.6914 38.778C13.6914 38.9806 13.8555 39.1447 14.058 39.1447H20.6497ZM26.7606 36.354C26.9632 36.354 27.127 36.1899 27.127 35.9872C27.127 35.7846 26.9632 35.6201 26.7606 35.6201H14.058C13.8557 35.6201 13.6914 35.7844 13.6914 35.9872C13.6914 36.1901 13.8555 36.354 14.058 36.354H26.7606ZM6.62102 39.2715C6.71885 39.2715 6.81131 39.2332 6.88055 39.1642L9.92282 36.1194C10.0658 35.9762 10.0658 35.744 9.92282 35.6008C9.77929 35.4576 9.5476 35.4576 9.40421 35.6008L6.62132 38.3858L5.82427 37.588C5.68118 37.4448 5.4489 37.4451 5.30596 37.5885C5.16287 37.7317 5.16257 37.9642 5.30581 38.1075L6.36194 39.1644C6.43118 39.2337 6.52364 39.2717 6.62117 39.2717L6.62102 39.2715ZM20.6497 31.1051C20.8519 31.1051 21.0161 30.9408 21.0161 30.7384C21.0161 30.536 20.8522 30.3717 20.6497 30.3717H14.058C13.8554 30.3717 13.6914 30.5357 13.6914 30.7384C13.6914 30.9411 13.8555 31.1051 14.058 31.1051H20.6497ZM27.2412 28.3137C27.4439 28.3137 27.6077 28.1496 27.6077 27.9469C27.6077 27.7443 27.4439 27.5802 27.2412 27.5802H14.058C13.8554 27.5802 13.6914 27.7441 13.6914 27.9469C13.6914 28.1498 13.8555 28.3137 14.058 28.3137H27.2412ZM6.62102 31.2324C6.71796 31.2324 6.81191 31.1937 6.88055 31.1248L9.92282 28.0797C10.0656 27.9368 10.0658 27.7043 9.92282 27.5614C9.77944 27.4182 9.5476 27.4178 9.40421 27.561L6.62132 30.3466L5.82427 29.5489C5.68118 29.4057 5.44905 29.4053 5.30566 29.5485C5.16257 29.6917 5.16272 29.9239 5.30581 30.0671L6.36194 31.1247C6.43058 31.1935 6.52364 31.2323 6.62102 31.2323V31.2324ZM20.6497 23.0653C20.852 23.0653 21.0161 22.9011 21.0161 22.6985C21.0161 22.496 20.852 22.3318 20.6497 22.3318H14.058C13.8554 22.3318 13.6914 22.4959 13.6914 22.6985C13.6914 22.9012 13.8555 23.0653 14.058 23.0653H20.6497ZM27.2412 20.2746C27.4439 20.2746 27.6077 20.1105 27.6077 19.9078C27.6077 19.7051 27.4439 19.5409 27.2412 19.5409H14.058C13.8554 19.5409 13.6914 19.7051 13.6914 19.9078C13.6914 20.1105 13.8555 20.2746 14.058 20.2746H27.2412ZM6.62102 23.1924C6.719 23.1924 6.81117 23.1542 6.88055 23.0849L9.92282 20.0401C10.0659 19.8969 10.0659 19.6646 9.92282 19.5214C9.77944 19.3779 9.54745 19.3779 9.40421 19.5214L6.62132 22.3066L5.82427 21.509C5.68088 21.3655 5.44905 21.3655 5.30566 21.5089C5.16257 21.6524 5.16257 21.8846 5.30566 22.0279L6.36179 23.0849C6.43103 23.1542 6.52335 23.1924 6.62102 23.1924ZM20.6497 15.0254C20.852 15.0254 21.0161 14.8612 21.0161 14.6587C21.0161 14.4561 20.852 14.2918 20.6497 14.2918H14.058C13.8554 14.2918 13.6914 14.456 13.6914 14.6587C13.6914 14.8613 13.8555 15.0254 14.058 15.0254H20.6497ZM27.2412 12.2347C27.4439 12.2347 27.6077 12.0708 27.6077 11.8679C27.6077 11.6651 27.4439 11.501 27.2412 11.501H14.058C13.8554 11.501 13.6914 11.6651 13.6914 11.8679C13.6914 12.0708 13.8555 12.2347 14.058 12.2347H27.2412ZM6.62102 15.1522C6.719 15.1522 6.81131 15.1135 6.88055 15.0443L9.92282 11.9997C10.0659 11.8562 10.0659 11.624 9.92282 11.4806C9.77944 11.3371 9.54745 11.3371 9.40436 11.4806L6.62117 14.2664L5.82412 13.4687C5.68074 13.3252 5.44875 13.3257 5.30551 13.4687C5.16242 13.6119 5.16242 13.8443 5.30551 13.9878L6.36164 15.0446C6.43103 15.1139 6.5229 15.1521 6.62087 15.1521L6.62102 15.1522Z" fill="white"/>
</mask>
<g mask="url(#mask0_521_11453)">
<path d="M49.2886 0H0V0.0937346H49.2886V0Z" fill="#E0C389"/>
<path d="M49.2886 0H0V0.281204H49.2886V0Z" fill="#E0C389"/>
<path d="M49.2886 0.18747H0V0.468674H49.2886V0.18747Z" fill="#E0C389"/>
<path d="M49.2886 0.375093H0V0.656148H49.2886V0.375093Z" fill="#E0C389"/>
<path d="M49.2886 0.56238H0V0.843584H49.2886V0.56238Z" fill="#E0C389"/>
<path d="M49.2886 0.749881H0V1.03123H49.2886V0.749881Z" fill="#E0C389"/>
<path d="M49.2886 0.937626H0V1.21883H49.2886V0.937626Z" fill="#E0C389"/>
<path d="M49.2886 1.12513H0V1.40618H49.2886V1.12513Z" fill="#E0C389"/>
<path d="M49.2886 1.31241H0V1.59377H49.2886V1.31241Z" fill="#E0C389"/>
<path d="M49.2886 1.50004H0V1.78124H49.2886V1.50004Z" fill="#E0C389"/>
<path d="M49.2886 1.68754H0V1.96874H49.2886V1.68754Z" fill="#E0C389"/>
<path d="M49.2886 1.87501H0V2.15621H49.2886V1.87501Z" fill="#E0C389"/>
<path d="M49.2886 2.0626H0V2.3438H49.2886V2.0626Z" fill="#E0C389"/>
<path d="M49.2886 2.2501H0V2.5313H49.2886V2.2501Z" fill="#E0C389"/>
<path d="M49.2886 2.43754H0V2.71874H49.2886V2.43754Z" fill="#E0C389"/>
<path d="M49.2886 2.62501H0V2.90621H49.2886V2.62501Z" fill="#E0C389"/>
<path d="M49.2886 2.81248H0V3.09368H49.2886V2.81248Z" fill="#E0C389"/>
<path d="M49.2886 2.99992H0V3.28112H49.2886V2.99992Z" fill="#E0C389"/>
<path d="M49.2886 3.18742H0V3.46862H49.2886V3.18742Z" fill="#E0C389"/>
<path d="M49.2886 3.37517H0V3.65622H49.2886V3.37517Z" fill="#E0C389"/>
<path d="M49.2886 3.56236H0V3.84357H49.2886V3.56236Z" fill="#E0C389"/>
<path d="M49.2886 3.74986H0V4.03121H49.2886V3.74986Z" fill="#E0C389"/>
<path d="M49.2886 3.93761H0V4.21881H49.2886V3.93761Z" fill="#E0C389"/>
<path d="M49.2886 4.12511H0V4.40616H49.2886V4.12511Z" fill="#E0C389"/>
<path d="M49.2886 4.31239H0V4.5939H49.2886V4.31239Z" fill="#E0C389"/>
<path d="M49.2886 4.50002H0V4.78122H49.2886V4.50002Z" fill="#E0C389"/>
<path d="M49.2886 4.68749H0V4.96869H49.2886V4.68749Z" fill="#E0C389"/>
<path d="M49.2886 4.87493H0V5.15613H49.2886V4.87493Z" fill="#E0C389"/>
<path d="M49.2886 5.06255H0V5.34375H49.2886V5.06255Z" fill="#E0C389"/>
<path d="M49.2886 5.25002H0V5.53122H49.2886V5.25002Z" fill="#E0C389"/>
<path d="M49.2886 5.43752H0V5.71872H49.2886V5.43752Z" fill="#E0C389"/>
<path d="M49.2886 5.62499H0V5.90619H49.2886V5.62499Z" fill="#E0C389"/>
<path d="M49.2886 5.81243H0V6.09363H49.2886V5.81243Z" fill="#E0C389"/>
<path d="M49.2886 5.9999H0V6.2811H49.2886V5.9999Z" fill="#E0C389"/>
<path d="M49.2886 6.18737H0V6.46857H49.2886V6.18737Z" fill="#E0C389"/>
<path d="M49.2886 6.37487H0V6.65608H49.2886V6.37487Z" fill="#E0C389"/>
<path d="M49.2886 6.56262H0V6.84367H49.2886V6.56262Z" fill="#E0C389"/>
<path d="M49.2886 6.74993H0V7.03129H49.2886V6.74993Z" fill="#E0C389"/>
<path d="M49.2886 6.93756H0V7.21861H49.2886V6.93756Z" fill="#E0C389"/>
<path d="M49.2886 7.12503H0V7.40623H49.2886V7.12503Z" fill="#E0C389"/>
<path d="M49.2886 7.3125H0V7.5937H49.2886V7.3125Z" fill="#E0C389"/>
<path d="M49.2886 7.49994H0V7.78114H49.2886V7.49994Z" fill="#E0C389"/>
<path d="M49.2886 7.68741H0V7.96861H49.2886V7.68741Z" fill="#E0C389"/>
<path d="M49.2886 7.87506H0V8.15626H49.2886V7.87506Z" fill="#E0C389"/>
<path d="M49.2886 8.06253H0V8.34373H49.2886V8.06253Z" fill="#E0C389"/>
<path d="M49.2886 8.25H0V8.5312H49.2886V8.25Z" fill="#E0C389"/>
<path d="M49.2886 8.43744H0V8.71864H49.2886V8.43744Z" fill="#E0C389"/>
<path d="M49.2886 8.62491H0V8.90611H49.2886V8.62491Z" fill="#E0C389"/>
<path d="M49.2886 8.81241H0V9.09362H49.2886V8.81241Z" fill="#E0C389"/>
<path d="M49.2886 8.99988H0V9.28109H49.2886V8.99988Z" fill="#E0C389"/>
<path d="M49.2886 9.18732H0V9.46867H49.2886V9.18732Z" fill="#E0C389"/>
<path d="M49.2886 9.37513H0V9.65618H49.2886V9.37513Z" fill="#E0C389"/>
<path d="M49.2886 9.56241H0V9.84362H49.2886V9.56241Z" fill="#E0C389"/>
<path d="M49.2886 9.74992H0V10.0313H49.2886V9.74992Z" fill="#E0C389"/>
<path d="M49.2886 9.93751H0V10.2187H49.2886V9.93751Z" fill="#E0C389"/>
<path d="M49.2886 10.125H0V10.406H49.2886V10.125Z" fill="#E0C389"/>
<path d="M49.2886 10.3125H0V10.5937H49.2886V10.3125Z" fill="#E0C389"/>
<path d="M49.2886 10.4999H0V10.7811H49.2886V10.4999Z" fill="#E0C389"/>
<path d="M49.2886 10.6875H0V10.9687H49.2886V10.6875Z" fill="#E0C389"/>
<path d="M49.2886 10.875H0V11.1562H49.2886V10.875Z" fill="#E0C389"/>
<path d="M49.2886 11.0625H0V11.3437H49.2886V11.0625Z" fill="#E0C389"/>
<path d="M49.2886 11.25H0V11.5312H49.2886V11.25Z" fill="#E0C389"/>
<path d="M49.2886 11.4374H0V11.7186H49.2886V11.4374Z" fill="#E0C389"/>
<path d="M49.2886 11.6249H0V11.9061H49.2886V11.6249Z" fill="#E0C389"/>
<path d="M49.2886 11.8124H0V12.0936H49.2886V11.8124Z" fill="#E0C389"/>
<path d="M49.2886 11.9999H0V12.2811H49.2886V11.9999Z" fill="#E0C389"/>
<path d="M49.2886 12.1873H0V12.4687H49.2886V12.1873Z" fill="#E0C389"/>
<path d="M49.2886 12.375H0V12.6561H49.2886V12.375Z" fill="#E0C389"/>
<path d="M49.2886 12.5624H0V12.8436H49.2886V12.5624Z" fill="#E0C389"/>
<path d="M49.2886 12.7499H0V13.0312H49.2886V12.7499Z" fill="#E0C389"/>
<path d="M49.2886 12.9375H0V13.2187H49.2886V12.9375Z" fill="#E0C389"/>
<path d="M49.2886 13.1249H0V13.406H49.2886V13.1249Z" fill="#E0C389"/>
<path d="M49.2886 13.3124H0V13.5936H49.2886V13.3124Z" fill="#E0C389"/>
<path d="M49.2886 13.4999H0V13.7811H49.2886V13.4999Z" fill="#E0C389"/>
<path d="M49.2886 13.6875H0V13.9687H49.2886V13.6875Z" fill="#E0C389"/>
<path d="M49.2886 13.875H0V14.1562H49.2886V13.875Z" fill="#E0C389"/>
<path d="M49.2886 14.0624H0V14.3436H49.2886V14.0624Z" fill="#E0C389"/>
<path d="M49.2886 14.2499H0V14.5311H49.2886V14.2499Z" fill="#E0C389"/>
<path d="M49.2886 14.4374H0V14.7186H49.2886V14.4374Z" fill="#E0C389"/>
<path d="M49.2886 14.6249H0V14.9061H49.2886V14.6249Z" fill="#E0C389"/>
<path d="M49.2886 14.8126H0V15.0937H49.2886V14.8126Z" fill="#E0C389"/>
<path d="M49.2886 14.9998H0V15.281H49.2886V14.9998Z" fill="#E0C389"/>
<path d="M49.2886 15.1873H0V15.4686H49.2886V15.1873Z" fill="#E0C389"/>
<path d="M49.2886 15.375H0V15.6562H49.2886V15.375Z" fill="#E0C389"/>
<path d="M49.2886 15.5625H0V15.8436H49.2886V15.5625Z" fill="#E0C389"/>
<path d="M49.2886 15.7498H0V16.0312H49.2886V15.7498Z" fill="#E0C389"/>
<path d="M49.2886 15.9374H0V16.2186H49.2886V15.9374Z" fill="#E0C389"/>
<path d="M49.2886 16.1249H0V16.4061H49.2886V16.1249Z" fill="#E0C389"/>
<path d="M49.2886 16.3124H0V16.5936H49.2886V16.3124Z" fill="#E0C389"/>
<path d="M49.2886 16.5H0V16.7812H49.2886V16.5Z" fill="#E0C389"/>
<path d="M49.2886 16.6874H0V16.9686H49.2886V16.6874Z" fill="#E0C389"/>
<path d="M49.2886 16.8749H0V17.1561H49.2886V16.8749Z" fill="#E0C389"/>
<path d="M49.2886 17.0624H0V17.3436H49.2886V17.0624Z" fill="#E0C389"/>
<path d="M49.2886 17.2499H0V17.5311H49.2886V17.2499Z" fill="#E0C389"/>
<path d="M49.2886 17.4373H0V17.7187H49.2886V17.4373Z" fill="#E0C389"/>
<path d="M49.2886 17.6248H0V17.906H49.2886V17.6248Z" fill="#E0C389"/>
<path d="M49.2886 17.8123H0V18.0935H49.2886V17.8123Z" fill="#E0C389"/>
<path d="M49.2886 17.9997H0V18.2809H49.2886V17.9997Z" fill="#E0C389"/>
<path d="M49.2886 18.1874H0V18.4687H49.2886V18.1874Z" fill="#E0C389"/>
<path d="M49.2886 18.3749H0V18.656H49.2886V18.3749Z" fill="#E0C389"/>
<path d="M49.2886 18.5624H0V18.8435H49.2886V18.5624Z" fill="#E0C389"/>
<path d="M49.2886 18.7498H0V19.0311H49.2886V18.7498Z" fill="#E0C389"/>
<path d="M49.2886 18.9374H0V19.2186H49.2886V18.9374Z" fill="#E0C389"/>
<path d="M49.2886 19.1249H0V19.4061H49.2886V19.1249Z" fill="#E0C389"/>
<path d="M49.2886 19.3125H0V19.5937H49.2886V19.3125Z" fill="#E0C389"/>
<path d="M49.2886 19.5H0V19.7812H49.2886V19.5Z" fill="#E0C389"/>
<path d="M49.2886 19.6874H0V19.9686H49.2886V19.6874Z" fill="#E0C389"/>
<path d="M49.2886 19.8749H0V20.1561H49.2886V19.8749Z" fill="#E0C389"/>
<path d="M49.2886 20.0623H0V20.3435H49.2886V20.0623Z" fill="#E0C389"/>
<path d="M49.2886 20.2498H0V20.531H49.2886V20.2498Z" fill="#E0C389"/>
<path d="M49.2886 20.4373H0V20.7186H49.2886V20.4373Z" fill="#E0C389"/>
<path d="M49.2886 20.6248H0V20.906H49.2886V20.6248Z" fill="#E0C389"/>
<path d="M49.2886 20.8122H0V21.0934H49.2886V20.8122Z" fill="#E0C389"/>
<path d="M49.2886 20.9998H0V21.2812H49.2886V20.9998Z" fill="#E0C389"/>
<path d="M49.2886 21.1873H0V21.4686H49.2886V21.1873Z" fill="#E0C389"/>
<path d="M49.2886 21.3749H0V21.6561H49.2886V21.3749Z" fill="#E0C389"/>
<path d="M49.2886 21.5624H0V21.8435H49.2886V21.5624Z" fill="#E0C389"/>
<path d="M49.2886 21.7498H0V22.031H49.2886V21.7498Z" fill="#E0C389"/>
<path d="M49.2886 21.9373H0V22.2185H49.2886V21.9373Z" fill="#E0C389"/>
<path d="M49.2886 22.1248H0V22.406H49.2886V22.1248Z" fill="#E0C389"/>
<path d="M49.2886 22.3124H0V22.5936H49.2886V22.3124Z" fill="#E0C389"/>
<path d="M49.2886 22.4999H0V22.7811H49.2886V22.4999Z" fill="#E0C389"/>
<path d="M49.2886 22.6873H0V22.9685H49.2886V22.6873Z" fill="#E0C389"/>
<path d="M49.2886 22.8748H0V23.156H49.2886V22.8748Z" fill="#E0C389"/>
<path d="M49.2886 23.0623H0V23.3435H49.2886V23.0623Z" fill="#E0C389"/>
<path d="M49.2886 23.2498H0V23.531H49.2886V23.2498Z" fill="#E0C389"/>
<path d="M49.2886 23.4372H0V23.7184H49.2886V23.4372Z" fill="#E0C389"/>
<path d="M49.2886 23.6247H0V23.906H49.2886V23.6247Z" fill="#E0C389"/>
<path d="M49.2886 23.8125H0V24.0935H49.2886V23.8125Z" fill="#E0C389"/>
<path d="M49.2886 23.9998H0V24.281H49.2886V23.9998Z" fill="#E0C389"/>
<path d="M49.2886 24.1873H0V24.4685H49.2886V24.1873Z" fill="#E0C389"/>
<path d="M49.2886 24.3749H0V24.656H49.2886V24.3749Z" fill="#E0C389"/>
<path d="M49.2886 24.5623H0V24.8434H49.2886V24.5623Z" fill="#E0C389"/>
<path d="M49.2886 24.7498H0V25.0308H49.2886V24.7498Z" fill="#E0C389"/>
<path d="M49.2886 24.9373H0V25.2183H49.2886V24.9373Z" fill="#E0C389"/>
<path d="M49.2886 25.1249H0V25.406H49.2886V25.1249Z" fill="#E0C389"/>
<path d="M49.2886 25.3124H0V25.5938H49.2886V25.3124Z" fill="#E0C389"/>
<path d="M49.2886 25.4999H0V25.7812H49.2886V25.4999Z" fill="#E0C389"/>
<path d="M49.2886 25.6873H0V25.9683H49.2886V25.6873Z" fill="#E0C389"/>
<path d="M49.2886 25.8748H0V26.1563H49.2886V25.8748Z" fill="#E0C389"/>
<path d="M49.2886 26.0623H0V26.3436H49.2886V26.0623Z" fill="#E0C389"/>
<path d="M49.2886 26.2497H0V26.5311H49.2886V26.2497Z" fill="#E0C389"/>
<path d="M49.2886 26.4372H0V26.7185H49.2886V26.4372Z" fill="#E0C389"/>
<path d="M49.2886 26.6247H0V26.906H49.2886V26.6247Z" fill="#E0C389"/>
<path d="M49.2886 26.8123H0V27.0937H49.2886V26.8123Z" fill="#E0C389"/>
<path d="M49.2886 26.9997H0V27.2811H49.2886V26.9997Z" fill="#E0C389"/>
<path d="M49.2886 27.1872H0V27.4685H49.2886V27.1872Z" fill="#E0C389"/>
<path d="M49.2886 27.3747H0V27.656H49.2886V27.3747Z" fill="#E0C389"/>
<path d="M49.2886 27.5622H0V27.8435H49.2886V27.5622Z" fill="#E0C389"/>
<path d="M49.2886 27.7496H0V28.031H49.2886V27.7496Z" fill="#E0C389"/>
<path d="M49.2886 27.9371H0V28.2184H49.2886V27.9371Z" fill="#E0C389"/>
<path d="M49.2886 28.1246H0V28.4059H49.2886V28.1246Z" fill="#E0C389"/>
<path d="M49.2886 28.3121H0V28.5934H49.2886V28.3121Z" fill="#E0C389"/>
<path d="M49.2886 28.4999H0V28.781H49.2886V28.4999Z" fill="#E0C389"/>
<path d="M49.2886 28.6874H0V28.9685H49.2886V28.6874Z" fill="#E0C389"/>
<path d="M49.2886 28.8746H0V29.1559H49.2886V28.8746Z" fill="#E0C389"/>
<path d="M49.2886 29.0621H0V29.3434H49.2886V29.0621Z" fill="#E0C389"/>
<path d="M49.2886 29.2499H0V29.531H49.2886V29.2499Z" fill="#E0C389"/>
<path d="M49.2886 29.4374H0V29.7185H49.2886V29.4374Z" fill="#E0C389"/>
<path d="M49.2886 29.6249H0V29.906H49.2886V29.6249Z" fill="#E0C389"/>
<path d="M49.2886 29.8124H0V30.0934H49.2886V29.8124Z" fill="#E0C389"/>
<path d="M49.2886 29.9999H0V30.2809H49.2886V29.9999Z" fill="#E0C389"/>
<path d="M49.2886 30.1873H0V30.4684H49.2886V30.1873Z" fill="#E0C389"/>
<path d="M49.2886 30.3748H0V30.6559H49.2886V30.3748Z" fill="#E0C389"/>
<path d="M49.2886 30.5623H0V30.8433H49.2886V30.5623Z" fill="#E0C389"/>
<path d="M49.2886 30.7499H0V31.0312H49.2886V30.7499Z" fill="#E0C389"/>
<path d="M49.2886 30.9373H0V31.2184H49.2886V30.9373Z" fill="#E0C389"/>
<path d="M49.2886 31.1248H0V31.4059H49.2886V31.1248Z" fill="#E0C389"/>
<path d="M49.2886 31.3123H0V31.5937H49.2886V31.3123Z" fill="#E0C389"/>
<path d="M49.2886 31.4998H0V31.7811H49.2886V31.4998Z" fill="#E0C389"/>
<path d="M49.2886 31.6872H0V31.9685H49.2886V31.6872Z" fill="#E0C389"/>
<path d="M49.2886 31.8747H0V32.156H49.2886V31.8747Z" fill="#E0C389"/>
<path d="M49.2886 32.0621H0V32.3435H49.2886V32.0621Z" fill="#E0C389"/>
<path d="M49.2886 32.2496H0V32.531H49.2886V32.2496Z" fill="#E0C389"/>
<path d="M49.2886 32.4371H0V32.7184H49.2886V32.4371Z" fill="#E0C389"/>
<path d="M49.2886 32.6247H0V32.906H49.2886V32.6247Z" fill="#E0C389"/>
<path d="M49.2886 32.8122H0V33.0935H49.2886V32.8122Z" fill="#E0C389"/>
<path d="M49.2886 32.9996H0V33.281H49.2886V32.9996Z" fill="#E0C389"/>
<path d="M49.2886 33.1871H0V33.4685H49.2886V33.1871Z" fill="#E0C389"/>
<path d="M49.2886 33.3746H0V33.6559H49.2886V33.3746Z" fill="#E0C389"/>
<path d="M49.2886 33.5621H0V33.8434H49.2886V33.5621Z" fill="#E0C389"/>
<path d="M49.2886 33.7495H0V34.0309H49.2886V33.7495Z" fill="#E0C389"/>
<path d="M49.2886 33.9374H0V34.2185H49.2886V33.9374Z" fill="#E0C389"/>
<path d="M49.2886 34.1246H0V34.406H49.2886V34.1246Z" fill="#E0C389"/>
<path d="M49.2886 34.3121H0V34.5934H49.2886V34.3121Z" fill="#E0C389"/>
<path d="M49.2886 34.4998H0V34.7809H49.2886V34.4998Z" fill="#E0C389"/>
<path d="M49.2886 34.6873H0V34.9684H49.2886V34.6873Z" fill="#E0C389"/>
<path d="M49.2886 34.8749H0V35.156H49.2886V34.8749Z" fill="#E0C389"/>
<path d="M49.2886 35.062H0V35.3433H49.2886V35.062Z" fill="#E0C389"/>
<path d="M49.2886 35.2499H0V35.5309H49.2886V35.2499Z" fill="#E0C389"/>
<path d="M49.2886 35.4373H0V35.7184H49.2886V35.4373Z" fill="#E0C389"/>
<path d="M49.2886 35.6248H0V35.9059H49.2886V35.6248Z" fill="#E0C389"/>
<path d="M49.2886 35.8123H0V36.0933H49.2886V35.8123Z" fill="#E0C389"/>
<path d="M49.2886 35.9998H0V36.2808H49.2886V35.9998Z" fill="#E0C389"/>
<path d="M49.2886 36.1872H0V36.4683H49.2886V36.1872Z" fill="#E0C389"/>
<path d="M49.2886 36.3747H0V36.6558H49.2886V36.3747Z" fill="#E0C389"/>
<path d="M49.2886 36.5623H0V36.8434H49.2886V36.5623Z" fill="#E0C389"/>
<path d="M49.2886 36.7498H0V37.0311H49.2886V36.7498Z" fill="#E0C389"/>
<path d="M49.2886 36.9373H0V37.2186H49.2886V36.9373Z" fill="#E0C389"/>
<path d="M49.2886 37.1247H0V37.4058H49.2886V37.1247Z" fill="#E0C389"/>
<path d="M49.2886 37.3122H0V37.5936H49.2886V37.3122Z" fill="#E0C389"/>
<path d="M49.2886 37.4997H0V37.781H49.2886V37.4997Z" fill="#E0C389"/>
<path d="M49.2886 37.6871H0V37.9684H49.2886V37.6871Z" fill="#E0C389"/>
<path d="M49.2886 37.8746H0V38.1559H49.2886V37.8746Z" fill="#E0C389"/>
<path d="M49.2886 38.0621H0V38.3435H49.2886V38.0621Z" fill="#E0C389"/>
<path d="M49.2886 38.2497H0V38.5311H49.2886V38.2497Z" fill="#E0C389"/>
<path d="M49.2886 38.4372H0V38.7185H49.2886V38.4372Z" fill="#E0C389"/>
<path d="M49.2886 38.6246H0V38.906H49.2886V38.6246Z" fill="#E0C389"/>
<path d="M49.2886 38.8121H0V39.0935H49.2886V38.8121Z" fill="#E0C389"/>
<path d="M49.2886 38.9996H0V39.281H49.2886V38.9996Z" fill="#E0C389"/>
<path d="M49.2886 39.187H0V39.4684H49.2886V39.187Z" fill="#E0C389"/>
<path d="M49.2886 39.3745H0V39.6558H49.2886V39.3745Z" fill="#E0C389"/>
<path d="M49.2886 39.562H0V39.8433H49.2886V39.562Z" fill="#E0C389"/>
<path d="M49.2886 39.7495H0V40.0308H49.2886V39.7495Z" fill="#E0C389"/>
<path d="M49.2886 39.9373H0V40.2184H49.2886V39.9373Z" fill="#E0C389"/>
<path d="M49.2886 40.1248H0V40.4059H49.2886V40.1248Z" fill="#E0C389"/>
<path d="M49.2886 40.312H0V40.5933H49.2886V40.312Z" fill="#E0C389"/>
<path d="M49.2886 40.4997H0V40.7808H49.2886V40.4997Z" fill="#E0C389"/>
<path d="M49.2886 40.6874H0V40.9685H49.2886V40.6874Z" fill="#E0C389"/>
<path d="M49.2886 40.8749H0V41.1559H49.2886V40.8749Z" fill="#E0C389"/>
<path d="M49.2886 41.0624H0V41.3434H49.2886V41.0624Z" fill="#E0C389"/>
<path d="M49.2886 41.2498H0V41.5308H49.2886V41.2498Z" fill="#E0C389"/>
<path d="M49.2886 41.4372H0V41.7183H49.2886V41.4372Z" fill="#E0C389"/>
<path d="M49.2886 41.6247H0V41.9058H49.2886V41.6247Z" fill="#E0C389"/>
<path d="M49.2886 41.8122H0V42.0933H49.2886V41.8122Z" fill="#E0C389"/>
<path d="M49.2886 41.9997H0V42.281H49.2886V41.9997Z" fill="#E0C389"/>
<path d="M49.2886 42.1871H0V42.4682H49.2886V42.1871Z" fill="#E0C389"/>
<path d="M49.2886 42.3747H0V42.6558H49.2886V42.3747Z" fill="#E0C389"/>
<path d="M49.2886 42.5622H0V42.8433H49.2886V42.5622Z" fill="#E0C389"/>
<path d="M49.2886 42.7497H0V43.0311H49.2886V42.7497Z" fill="#E0C389"/>
<path d="M49.2886 42.9372H0V43.2182H49.2886V42.9372Z" fill="#E0C389"/>
<path d="M49.2886 43.1246H0V43.4057H49.2886V43.1246Z" fill="#E0C389"/>
<path d="M49.2886 43.3121H0V43.5935H49.2886V43.3121Z" fill="#E0C389"/>
<path d="M49.2886 43.4996H0V43.781H49.2886V43.4996Z" fill="#E0C389"/>
<path d="M49.2886 43.6871H0V43.9684H49.2886V43.6871Z" fill="#E0C389"/>
<path d="M49.2886 43.8745H0V44.1559H49.2886V43.8745Z" fill="#E0C389"/>
<path d="M49.2886 44.0621H0V44.3435H49.2886V44.0621Z" fill="#E0C389"/>
<path d="M49.2886 44.2496H0V44.531H49.2886V44.2496Z" fill="#E0C389"/>
<path d="M49.2886 44.4371H0V44.7184H49.2886V44.4371Z" fill="#E0C389"/>
<path d="M49.2886 44.6245H0V44.9059H49.2886V44.6245Z" fill="#E0C389"/>
<path d="M49.2886 44.812H0V45.0934H49.2886V44.812Z" fill="#E0C389"/>
<path d="M49.2886 44.9995H0V45.2809H49.2886V44.9995Z" fill="#E0C389"/>
<path d="M49.2886 45.1869H0V45.4683H49.2886V45.1869Z" fill="#E0C389"/>
<path d="M49.2886 45.3749H0V45.6559H49.2886V45.3749Z" fill="#E0C389"/>
<path d="M49.2886 45.5619H0V45.8432H49.2886V45.5619Z" fill="#E0C389"/>
<path d="M49.2886 45.7495H0V46.0309H49.2886V45.7495Z" fill="#E0C389"/>
<path d="M49.2886 45.9372H0V46.2183H49.2886V45.9372Z" fill="#E0C389"/>
<path d="M49.2886 46.1247H0V46.4058H49.2886V46.1247Z" fill="#E0C389"/>
<path d="M49.2886 46.3122H0V46.5933H49.2886V46.3122Z" fill="#E0C389"/>
<path d="M49.2886 46.4998H0V46.7809H49.2886V46.4998Z" fill="#E0C389"/>
<path d="M49.2886 46.6873H0V46.9683H49.2886V46.6873Z" fill="#E0C389"/>
<path d="M49.2886 46.8748H0V47.1558H49.2886V46.8748Z" fill="#E0C389"/>
<path d="M49.2886 47.0623H0V47.3433H49.2886V47.0623Z" fill="#E0C389"/>
<path d="M49.2886 47.2497H0V47.5307H49.2886V47.2497Z" fill="#E0C389"/>
<path d="M49.2886 47.4371H0V47.7182H49.2886V47.4371Z" fill="#E0C389"/>
<path d="M49.2886 47.6246H0V48H49.2886V47.6246Z" fill="#E0C389"/>
</g>
</svg>
