<svg width="30" height="30" viewBox="0 0 30 30" fill="none" xmlns="http://www.w3.org/2000/svg">
<path d="M7.92552 13.1023C3.5484 13.1023 0 16.6507 0 21.0278C0 25.4049 3.5484 28.9533 7.92552 28.9533C12.3026 28.9533 15.851 25.4049 15.851 21.0278C15.851 16.6507 12.3026 13.1023 7.92552 13.1023ZM12.7104 16.7114C13.0114 16.7114 13.2555 16.9556 13.2555 17.2565C13.2555 17.5574 13.0114 17.8017 12.7104 17.8017C12.4094 17.8017 12.1653 17.5576 12.1653 17.2565C12.1653 16.9555 12.4094 16.7114 12.7104 16.7114ZM2.85191 20.694C2.71753 20.694 2.60857 20.5851 2.60857 20.4507C2.60857 20.3163 2.71753 20.2072 2.85191 20.2072C2.98628 20.2072 3.09537 20.3162 3.09537 20.4507C3.09537 20.5852 2.9864 20.694 2.85191 20.694ZM6.11993 26.1414C5.59801 26.1414 5.17479 25.7182 5.17479 25.1963C5.17479 24.6743 5.59801 24.2511 6.11993 24.2511C6.64185 24.2511 7.06507 24.6742 7.06507 25.1963C7.06507 25.7183 6.64196 26.1414 6.11993 26.1414ZM7.45013 17.1888C7.04283 17.1888 6.71265 16.8586 6.71265 16.4513C6.71265 16.044 7.04283 15.7138 7.45013 15.7138C7.85743 15.7138 8.1875 16.044 8.1875 16.4513C8.1875 16.8586 7.85743 17.1888 7.45013 17.1888ZM10.6 20.7864C10.4146 20.7864 10.2643 20.6361 10.2643 20.4507C10.2643 20.2653 10.4146 20.115 10.6 20.115C10.7854 20.115 10.9357 20.2653 10.9357 20.4507C10.9357 20.6361 10.7854 20.7864 10.6 20.7864ZM11.8926 27.0923C11.6887 27.0923 11.5234 26.927 11.5234 26.7232C11.5234 26.5193 11.6887 26.3539 11.8926 26.3539C12.0966 26.3539 12.2618 26.5192 12.2618 26.7232C12.2618 26.9271 12.0964 27.0923 11.8926 27.0923ZM13.0208 24.5054C12.4436 24.5054 11.9756 24.0375 11.9756 23.4602C11.9756 22.883 12.4436 22.4149 13.0208 22.4149C13.5981 22.4149 14.0661 22.883 14.0661 23.4602C14.0661 24.0375 13.5982 24.5054 13.0208 24.5054Z" fill="white"/>
<path d="M23.9946 15.8055C23.1823 19.222 19.8562 21.6657 16.3395 21.3732C16.5736 17.3122 13.6109 13.5144 9.61571 12.7814C10.0711 10.1111 12.0263 7.87059 14.6084 7.06649C20.0995 5.35642 25.3259 10.2068 23.9946 15.8055Z" fill="white"/>
<path d="M19.4236 1.61866C19.388 2.65989 18.9286 3.96152 18.8467 5.02986C18.599 5.6132 17.8169 5.47093 17.7969 4.82807L18.3827 1.37848C18.4247 1.24986 18.5838 1.09482 18.7157 1.06445C19.0951 0.97682 19.4372 1.22174 19.4236 1.61866Z" fill="white"/>
<path d="M27.1973 6.65715L24.4754 8.76571C23.9328 9.05648 23.3974 8.46862 23.7842 7.97538L26.4531 5.8631C26.521 5.82199 26.61 5.76 26.686 5.74543C27.2212 5.6429 27.5622 6.23788 27.1973 6.65715Z" fill="white"/>
<path d="M11.2839 6.63253C10.5832 5.87868 10.0253 4.60325 9.34481 3.79079C9.21326 3.44796 9.41776 3.03377 9.79774 3.01187C9.9215 3.00475 10.1269 3.07702 10.2144 3.17007C10.724 4.10166 11.6976 5.08993 12.1474 6.0178C12.4594 6.66144 11.7489 7.13277 11.2839 6.63253Z" fill="white"/>
<path d="M7.6046 12.3533C6.59103 12.2475 5.36924 11.7483 4.33692 11.5875C3.84933 11.3865 3.98088 10.6451 4.47536 10.5754C4.68641 10.5456 5.33852 10.726 5.59293 10.7796C6.23387 10.9149 7.40869 11.1159 7.97193 11.339C8.58576 11.582 8.44902 12.4416 7.6046 12.3533Z" fill="white"/>
<path d="M25.0295 23.7144C24.4192 22.8667 23.3415 22.0826 22.7638 21.2489C22.5629 20.9589 22.6293 20.4722 22.9988 20.3877C23.1597 20.3507 23.36 20.3607 23.4864 20.4765L25.8019 22.942C26.2496 23.531 25.6237 24.1609 25.0295 23.7144Z" fill="white"/>
<path d="M29.8704 15.4312C29.725 15.5957 29.4653 15.6061 29.2612 15.5979C28.2028 15.5555 27.1417 15.3716 26.0804 15.3426C25.4422 15.243 25.4489 14.3681 26.0251 14.2999C26.4078 14.2548 27.0151 14.3246 27.4203 14.3514C28.0094 14.3903 29.0167 14.4329 29.5584 14.5539C29.9646 14.6446 30.1409 15.1253 29.8704 15.4312Z" fill="white"/>
<path d="M17.3825 26.7733C17.2891 27.3778 16.406 27.3477 16.3386 26.7776C16.2102 25.6917 16.4344 24.3564 16.3426 23.2434C16.3732 23.051 16.5823 22.855 16.7763 22.827C17.0484 22.7877 17.3679 23.0048 17.3868 23.2893C17.2702 24.3533 17.5403 25.7499 17.3825 26.7733Z" fill="white"/>
<path d="M27.4212 11.413C27.2823 11.5071 26.0013 11.8948 25.82 11.9073C25.2403 11.9469 25.0409 11.2256 25.4556 10.9415C25.6001 10.8424 26.9502 10.4394 27.1224 10.4428C27.6546 10.4532 27.8312 11.1357 27.4212 11.413Z" fill="white"/>
<path d="M26.3465 19.2602C26.1845 19.2232 24.9662 18.6179 24.8537 18.5116C24.5414 18.2166 24.7278 17.6577 25.143 17.5976C25.2081 17.5883 25.2508 17.5886 25.3158 17.5977C25.461 17.6181 26.7389 18.2525 26.8503 18.3577C27.2289 18.7159 26.9252 19.3918 26.3465 19.2602Z" fill="white"/>
<path d="M20.3013 24.309C20.2082 24.169 19.7848 23.0949 19.7484 22.92C19.6733 22.5602 19.8099 22.2176 20.2115 22.1802C20.3737 22.165 20.6043 22.2869 20.6932 22.4232C20.7835 22.5618 21.2135 23.6413 21.2482 23.8102C21.3996 24.5482 20.6455 24.827 20.3013 24.309Z" fill="white"/>
<path d="M9.01599 9.19909C8.93198 9.1729 7.96312 8.47505 7.85009 8.37308C7.60347 8.15063 7.42404 7.84405 7.68974 7.54335C7.83022 7.38447 8.12324 7.34111 8.32402 7.40152C8.43434 7.43483 9.3604 8.10987 9.49037 8.22685C9.58646 8.31335 9.72479 8.42909 9.75517 8.55929C9.86492 9.03028 9.46372 9.33889 9.01599 9.19909Z" fill="white"/>
<path d="M15.4348 4.96459C15.4247 5.48549 14.7326 5.69722 14.4468 5.26259C14.3667 5.14086 14.0436 3.78729 14.0447 3.61791C14.0457 3.41657 14.1836 3.16002 14.3848 3.10819C14.7568 3.01243 14.9934 3.16148 15.1097 3.50397C15.1839 3.72225 15.4385 4.77737 15.4348 4.96459Z" fill="white"/>
<path d="M22.7903 5.03946C22.7557 5.17293 22.0752 6.30891 21.9697 6.40974C21.5327 6.82789 20.9387 6.41324 21.0945 5.83295C21.1181 5.74476 21.79 4.60234 21.8671 4.51438C21.9541 4.41524 22.1218 4.31349 22.2533 4.30119C22.6628 4.26302 22.888 4.66321 22.7903 5.03946Z" fill="white"/>
</svg>
