<svg width="30" height="30" viewBox="0 0 30 30" fill="none" xmlns="http://www.w3.org/2000/svg">
<path d="M24.7909 2.44372L12.1344 0V30L24.8042 27.5495L24.7909 2.44372ZM13.4984 14.8199C13.583 13.9733 14.3519 13.6857 14.621 14.5985C14.2741 14.5652 13.7182 14.5921 13.8674 15.0922C13.9701 15.4352 14.6166 15.1769 14.6567 15.3441C14.262 16.6781 13.3909 15.8964 13.4984 14.8199ZM15.1099 15.1159C15.0939 15.1307 15.0778 15.1456 15.0622 15.1604C14.8135 15.1159 14.3362 15.2206 14.1197 15.1604C14.0009 15.1275 13.9195 14.8769 14.0463 14.7963C14.1846 14.7084 14.4642 14.7898 14.7582 14.7562C14.7838 14.7533 14.8885 14.7401 15.0209 14.7497C15.0445 14.7513 15.0622 14.7533 15.0915 14.757C15.2346 14.773 15.3064 14.781 15.3201 14.8023C15.3638 14.8689 15.146 15.081 15.1099 15.1159Z" fill="white"/>
<path d="M11.0916 2.2861V4.36845H7.32153V27.6337H5.19586V2.2861H11.0916Z" fill="white"/>
</svg>
