<svg width="8" height="9" viewBox="0 0 8 9" fill="none" xmlns="http://www.w3.org/2000/svg">
<path d="M6.25292 1.31613C5.75529 0.441749 4.78568 -0.0832269 3.75521 0.0108423C2.8232 0.0958551 2.01231 0.702046 1.63789 1.53085C1.24378 2.40289 1.51199 2.98103 1.93623 3.76105C2.52665 4.84723 3.3074 5.82969 3.91393 6.90769C3.9557 6.9778 4.04639 6.97576 4.08607 6.90769C4.6929 5.82794 5.48648 4.83057 6.07391 3.74206C6.54649 2.8671 6.78367 2.24864 6.25292 1.31613ZM4.00045 3.70817C3.23491 3.70817 2.61466 3.10081 2.61466 2.35118C2.61466 1.60155 3.23491 0.994187 4.00045 0.994187C4.76599 0.994187 5.38594 1.60184 5.38594 2.35118C5.38594 3.10052 4.76569 3.70817 4.00045 3.70817Z" fill="white"/>
<path d="M2.71699 5.61146L1.84404 7.96962L0.152154 8.72393L0.0301324 8.72451L0 8.63541L1.09163 6.22525L2.71699 5.61146Z" fill="white"/>
<path d="M8 8.63541L7.96957 8.72451L7.84785 8.72393L6.17684 7.96407L5.28301 5.61146L6.90748 6.22584L8 8.63541Z" fill="white"/>
<path d="M5.94145 7.93106L4.08935 9V7.29098C4.15588 7.1785 5.02763 5.64097 5.10341 5.69881L5.94145 7.93106Z" fill="white"/>
<path d="M3.91035 7.29098V8.97079L2.05944 7.93164L2.89659 5.69881C2.96729 5.68304 2.94462 5.71108 2.96282 5.73679C3.30651 6.2273 3.61201 6.77243 3.91035 7.29098Z" fill="white"/>
</svg>
