<svg width="30" height="30" viewBox="0 0 30 30" fill="none" xmlns="http://www.w3.org/2000/svg">
<path d="M10.5161 16.8087C10.1794 17.2134 9.89206 17.6739 9.6881 18.1591L3.54461 18.1559C3.14599 18.1312 2.90482 17.8221 2.63931 17.5687V18.6258H9.55212C9.58612 18.7063 9.49344 18.7989 9.49344 18.8297V20.0907H2.63896V24.0153H0V14.0556H1.17438V13.4097H2.63931V16.4566C2.85866 16.2405 3.09661 16.1446 3.39647 16.0734C5.65864 15.5481 8.65005 15.99 10.9891 15.8075C11.6318 15.888 10.6678 16.6266 10.5161 16.8087Z" fill="white"/>
<path d="M23.3498 5.56015L16.9652 10.3038L16.9466 16.3267C18.1982 17.2013 18.8502 18.3942 18.7482 19.9422C18.6401 21.6605 18.1424 24.4447 17.7377 26.1351C17.6511 26.4875 17.5645 26.8271 17.2464 27.0529C16.3193 27.7048 15.2687 26.9509 15.3582 25.8663C15.5249 23.8825 16.3408 21.5832 16.4059 19.5901C16.4306 18.9102 15.862 18.4683 15.3646 18.1069C14.6694 18.2769 14.0328 18.3388 13.3375 18.1101C12.9235 18.4035 12.3303 18.932 12.3177 19.4727C12.3084 19.8592 12.4845 20.7244 12.5496 21.1663C12.7597 22.6466 13.2234 24.303 13.3529 25.7522C13.3962 26.222 13.3744 26.6854 12.979 27.0039C12.4383 27.4332 11.7087 27.3778 11.2793 26.8278C10.9455 26.4045 10.7909 24.9768 10.6828 24.3774C10.4327 22.993 9.76503 19.9307 10.0463 18.6819C10.2781 17.6714 11.0196 17.0102 11.7059 16.3024L11.6504 10.1095L5.50692 5.53296C4.61701 4.58114 5.6615 3.31409 6.78006 3.96604L12.6731 8.32649C12.9389 8.441 13.3622 8.03308 13.6743 8.02986L14.3262 8.6632L14.9689 8.0388L16.0506 8.45924L22.3021 3.86406C23.4146 3.39746 24.2612 4.80049 23.3498 5.56051V5.56015Z" fill="white"/>
<path d="M30 24.0149H27.3639V20.0903H19.218C19.3261 19.6051 19.2892 19.0984 19.1594 18.6254H27.3639V17.5684C27.098 17.8217 26.8572 18.1309 26.4554 18.1556H19.1314C18.9461 18.1216 18.7947 17.6117 18.6802 17.4324C18.4916 17.1326 18.1764 16.7432 17.9324 16.4838C17.7316 16.2677 17.3792 16.1965 17.4625 15.81H26.279C26.5109 15.81 26.9188 16.0079 27.098 16.1621C27.1939 16.2455 27.2279 16.4126 27.3639 16.4555V13.4087H28.8288V14.0545H30V24.0149Z" fill="white"/>
<path d="M16.8943 5.28498C16.8943 6.70948 15.7385 7.86526 14.314 7.86526C12.8896 7.86526 11.7338 6.70948 11.7338 5.28498C11.7338 3.86048 12.8896 2.70471 14.314 2.70471C15.7385 2.70471 16.8943 3.86048 16.8943 5.28498Z" fill="white"/>
<path d="M6.83552 15.0285C6.74284 15.1244 6.55427 15.211 6.4183 15.2264C5.95491 15.2819 4.22125 15.2944 3.7822 15.2232C2.97245 15.0872 3.01896 13.8356 3.72352 13.706C4.07276 13.6413 6.11236 13.6441 6.4709 13.706C7.09208 13.808 7.25596 14.6052 6.83552 15.0285Z" fill="white"/>
<path d="M15.8219 20.0903H12.8924C12.8892 19.8123 12.7844 19.6083 12.8616 19.3239C12.8989 19.1879 13.2416 18.7678 13.3622 18.712C13.495 18.6533 14.4035 18.7553 14.6819 18.7428C15.127 18.7209 15.195 18.4862 15.5872 18.888C15.9518 19.2652 15.955 19.5958 15.8219 20.09V20.0903Z" fill="white"/>
</svg>
