<svg width="30" height="30" viewBox="0 0 30 30" fill="none" xmlns="http://www.w3.org/2000/svg">
<path d="M18.9833 20.3923V20.2407C18.9823 20.2904 18.9824 20.3409 18.9833 20.3923ZM18.9833 19.6857V19.5957C18.9755 19.6325 18.9764 19.6616 18.9833 19.6857ZM18.9833 20.3923V20.2407C18.9823 20.2904 18.9824 20.3409 18.9833 20.3923ZM18.9833 19.6857V19.5957C18.9755 19.6325 18.9764 19.6616 18.9833 19.6857Z" fill="white"/>
<path d="M18.2349 19.3524L18.2397 19.9362C18.2462 19.7905 18.2418 19.5821 18.2349 19.3524ZM18.2349 19.3524L18.2397 19.9362C18.2462 19.7905 18.2418 19.5821 18.2349 19.3524Z" fill="white"/>
<path d="M22.0369 18.8005C22.0291 17.9687 22.1241 17.1823 21.9615 16.3521C21.5739 14.3737 19.7139 13.0784 17.7211 13.2781C17.1825 16.2703 12.8801 16.3063 12.3248 13.3234C10.1726 12.9687 8.14165 14.6681 7.9763 16.8297C7.86997 18.2194 8.01374 19.6787 8.02243 21.0672C8.03037 22.3189 7.6537 23.586 8.80167 24.4827C9.03666 24.6664 9.53239 24.8953 9.82593 24.9301H13.6603L13.7272 24.8632V22.2967H11.8769C11.8599 22.2967 11.6044 22.1876 11.5632 22.1645C11.301 22.0174 11.0859 21.7291 11.0519 21.4265C10.9324 20.3622 11.1392 19.0801 11.0548 17.9922C11.1219 17.5627 11.7561 17.6116 11.8111 18.0778C11.9243 19.0399 11.7244 20.2198 11.8083 21.2051C11.8145 21.279 11.8162 21.3519 11.8508 21.4193C11.8966 21.4904 12.1422 21.5324 12.2318 21.5399C13.1969 21.6203 14.2045 21.47 15.1686 21.5105C16.5824 21.5699 17.5484 23.0184 17.0483 24.3494C16.9716 24.5533 16.8174 24.7234 16.759 24.9301H20.1698C21.0209 24.9301 21.8502 23.996 22.0079 23.1996C22.233 22.0628 22.0485 20.0302 22.0369 18.8005ZM15.323 17.9804C15.2367 18.2777 14.698 18.3134 14.5942 17.9696C14.5512 17.8269 14.5486 16.7744 14.5839 16.6154C14.6183 16.4605 14.8012 16.3415 14.9525 16.3375C15.072 16.3342 15.2637 16.4306 15.3089 16.54C15.3473 16.6328 15.3561 17.8666 15.323 17.9804ZM18.9833 19.4331L18.9833 20.3923C18.9938 21.0598 19.1217 21.8586 18.4108 22.1873C18.1196 22.3219 17.0383 22.4389 16.9471 22.0419C16.7822 21.3231 17.6568 21.6035 18.0657 21.4849C18.212 21.4424 18.2493 21.128 18.2475 20.882V20.8601L18.2397 19.9362L18.2349 19.3524C18.2174 18.7555 18.1836 18.0158 18.2797 17.8606C18.4428 17.5978 18.8806 17.6778 18.9683 17.9649C19.0521 18.2389 18.9324 19.1878 18.9833 19.4331Z" fill="white"/>
<path d="M4.00132 15.7356L4.00731 15.7359V15.7356H4.00132Z" fill="white"/>
<path d="M8.74266 9.36629C8.57313 9.33225 7.85574 9.24155 7.77397 9.35189C7.26401 11.7045 3.89304 11.7033 3.36226 9.35189L3.31089 9.31411C1.65266 9.13974 0.159032 10.4509 0.0378702 12.0962C-0.0793979 13.6882 0.119493 15.4332 0.0510497 17.0408C0.126083 17.6393 0.706583 18.3194 1.31015 18.4137H4.45347V16.4944H3.0491C3.02918 16.4944 2.78341 16.3788 2.74402 16.3533C2.52281 16.2102 2.36241 15.9628 2.32497 15.7016C2.24694 15.1574 2.25683 13.6862 2.31119 13.1222C2.37724 12.4346 3.11589 12.6498 3.11589 13.0799V15.691L4.00132 15.7356H5.99173C6.05403 15.7356 6.5571 15.9728 6.63528 16.0286C6.87012 16.1958 7.03351 16.4584 7.21728 16.6728C7.27329 16.0775 7.46844 15.5091 7.72963 14.9759C7.80871 14.8143 8.02258 14.5644 8.05478 14.4087C8.12862 14.05 7.97121 13.0943 8.1072 12.8544C8.22716 12.6424 8.54272 12.6229 8.71361 12.7876C8.90366 12.9703 8.77471 13.364 8.84495 13.593C9.47652 13.0378 10.2652 12.7198 11.0769 12.5246C11.2417 11.089 10.1484 9.64741 8.74266 9.36629ZM5.91535 12.9366C5.81815 13.367 5.18463 13.3603 5.12233 12.812C5.08324 12.468 5.02528 11.6571 5.46844 11.5935C5.63768 11.5692 5.82459 11.6542 5.89094 11.8193C5.94425 11.9515 5.9504 12.7816 5.91535 12.9366Z" fill="white"/>
<path d="M29.9578 11.9625C29.8311 10.345 28.2457 9.13809 26.6612 9.31276C26.1879 11.7155 22.7202 11.7185 22.239 9.31276C21.9929 9.36329 21.7507 9.30227 21.5207 9.31951C20.0326 9.43076 18.7287 11.0854 18.9439 12.5663C19.7922 12.6631 20.5457 13.0952 21.2176 13.5931V12.946C21.2176 12.6946 21.7963 12.5478 21.9418 12.8904C22.0802 13.2159 21.8962 14.0573 21.9848 14.4542C22.0097 14.5654 22.1608 14.723 22.2216 14.842C22.3685 15.1302 22.4894 15.4301 22.6436 15.7139C23.4368 15.8481 24.5539 15.5434 25.2766 15.8901C26.0323 16.2527 26.394 17.1178 26.1891 17.923C26.1424 18.1068 26.0585 18.2447 25.9881 18.4137H28.7302C29.1629 18.4137 29.9158 17.6291 29.9456 17.1754C29.8656 15.4852 30.0887 13.6344 29.9578 11.9625ZM24.8624 12.9796C24.782 13.2984 24.2718 13.3348 24.1491 13.0463C24.1012 12.9334 24.088 11.9656 24.1248 11.8394C24.1481 11.7596 24.3327 11.6097 24.4158 11.5923C24.5804 11.5581 24.7775 11.6649 24.8397 11.8193C24.8921 11.9493 24.9 12.8307 24.8624 12.9796ZM27.6797 15.7998C27.562 16.5535 26.2755 16.8007 26.4349 15.9823C26.4916 15.6904 26.866 15.7824 26.9155 15.6151L26.9271 12.9933C26.9454 12.8171 27.1356 12.682 27.3026 12.6775C27.4648 12.673 27.6326 12.7891 27.6814 12.9469L27.6797 15.7998Z" fill="white"/>
<path d="M20.5933 25.6427H9.40239V28.7686H20.5933V25.6427Z" fill="white"/>
<path d="M18.1412 7.21059V9.28607C18.1412 9.73062 17.6025 10.5698 17.2728 10.8716C16.1589 11.892 13.6561 11.8614 12.5662 10.8053C12.2276 10.4773 11.7654 9.62357 11.7654 9.15219V7.21059H18.1412Z" fill="white"/>
<path d="M29.7973 19.1767V23.193H28.2547V23.1894H22.8226V19.217L28.2547 19.1767H29.7973Z" fill="white"/>
<path d="M28.8416 19.1723V19.1767H28.2559L28.8416 19.1723Z" fill="white"/>
<path d="M7.22192 19.1753L7.21953 23.193L1.67258 23.1897V23.193H0.0817521V19.1719L7.22192 19.1753Z" fill="white"/>
<path d="M1.44973 19.1719H1.19872V19.1717L1.44973 19.1719Z" fill="white"/>
<path d="M18.1412 5.44756V6.45179H11.7654V5.58144C11.7654 5.12011 12.2195 4.27735 12.546 3.9526C13.6944 2.80953 16.3527 2.82572 17.4506 4.04106C17.6925 4.30898 18.1412 5.09657 18.1412 5.44756Z" fill="white"/>
<path d="M26.9701 5.69494C26.9695 5.74742 26.9683 5.79449 26.9659 5.83378V5.83423C26.9638 5.85971 26.9613 5.88505 26.9586 5.91009C26.9586 5.91054 26.9586 5.91084 26.9586 5.91129C26.7769 7.55933 25.326 7.92036 23.8713 7.79007C23.0657 7.7178 22.0202 6.79288 22.0202 5.93843V4.48785H26.9241C26.9241 4.48785 26.9301 4.58201 26.9378 4.72264C26.9417 4.79281 26.9459 4.87467 26.9501 4.96223C26.9616 5.20497 26.9721 5.49149 26.9703 5.69494H26.9701Z" fill="white"/>
<path d="M26.9683 5.80394C26.9676 5.81399 26.9668 5.82388 26.9659 5.83378C26.9683 5.79449 26.9695 5.74742 26.9701 5.69494C26.9715 5.73167 26.971 5.76811 26.9683 5.80394Z" fill="white"/>
<path d="M7.9757 4.48785V6.11699C7.9757 6.57803 7.32661 7.30939 6.93542 7.53039C6.19781 7.94705 4.58392 7.92141 3.89618 7.38915C3.58826 7.15077 3.07126 6.46663 3.07126 6.07247V4.48785H7.9757Z" fill="white"/>
<path d="M26.9021 3.72905H22.087C21.9303 3.68078 22.0554 2.96051 22.0967 2.80158C22.4822 1.32312 23.8108 1.17754 25.1207 1.27229C25.9743 1.33421 26.7271 2.04803 26.912 2.87115C26.9667 3.11389 27.0332 3.5172 26.9021 3.72905Z" fill="white"/>
<path d="M7.9757 2.94807V3.72905H3.13821L3.07126 3.66218V2.99259C3.07126 2.67969 3.48058 2.02659 3.71676 1.80889C4.51577 1.07244 6.40404 1.0369 7.23915 1.72163C7.51022 1.94398 7.9757 2.59753 7.9757 2.94807Z" fill="white"/>
<path d="M16.9373 13.2585C16.9373 13.8081 16.1199 14.5605 15.6091 14.696C15.3383 14.7677 14.7025 14.7701 14.4313 14.696C13.7825 14.5189 13.0584 13.7792 13.0584 13.0798V12.0755C13.2309 12.0895 13.3796 12.189 13.5486 12.2319C14.2546 12.4114 15.6525 12.4106 16.3582 12.2322C16.5563 12.182 16.7415 12.0856 16.9373 12.0309V13.2585Z" fill="white"/>
<path d="M7.03936 8.37105V9.15219C7.03936 9.21216 6.90921 9.52986 6.86907 9.60648C6.35971 10.5813 4.81785 10.5839 4.28288 9.63526C4.23661 9.55325 4.09672 9.22116 4.09672 9.15219V8.37105C4.71751 8.59969 5.55351 8.59804 6.21668 8.55157C6.51622 8.53058 6.7545 8.43087 7.03936 8.37105Z" fill="white"/>
<path d="M25.943 8.88381C25.8192 10.8206 23.0932 10.8382 22.9571 8.88381C22.9496 8.77616 22.9174 8.45891 23.0296 8.42143C23.2709 8.39819 23.4931 8.52683 23.7374 8.54902C24.2289 8.5937 25.1132 8.58455 25.5872 8.48305C25.6835 8.46236 25.7889 8.41768 25.8773 8.37315C25.9734 8.38124 25.9492 8.78906 25.943 8.88396V8.88381Z" fill="white"/>
<path d="M15.7185 24.7589C15.6183 24.8129 15.3645 24.9301 15.2653 24.9301H14.4852V22.2967H15.31C15.3804 22.2967 15.7605 22.475 15.8376 22.5273C16.6368 23.0677 16.5701 24.3012 15.7185 24.7589Z" fill="white"/>
<path d="M6.2372 18.2131C6.17759 18.2624 5.96058 18.4137 5.90247 18.4137H5.21144V16.5613C5.3064 16.4614 5.54408 16.4808 5.68156 16.4926C6.57223 16.5691 6.93047 17.6409 6.2372 18.2131Z" fill="white"/>
<path d="M25.3718 17.9081C25.2924 18.0822 24.9493 18.4137 24.7621 18.4137H24.1156V16.4944C24.9865 16.3333 25.7706 17.0331 25.3718 17.9081Z" fill="white"/>
<path d="M23.3131 16.4944V18.4137H22.8223L22.7763 16.5617C22.7678 16.4685 22.7826 16.5033 22.8436 16.4941C22.985 16.4727 23.1656 16.5099 23.3131 16.4944Z" fill="white"/>
</svg>
