<svg width="30" height="30" viewBox="0 0 30 30" fill="none" xmlns="http://www.w3.org/2000/svg">
<path d="M7.50004 14.9509C7.49814 14.6235 7.56116 14.2989 7.68549 13.9957C7.80981 13.6926 7.993 13.4168 8.22455 13.1843L18.2177 3.23174C18.4506 2.99975 18.7272 2.81573 19.0315 2.69017C19.3359 2.56462 19.6621 2.5 19.9915 2.5C20.3209 2.5 20.6471 2.56462 20.9515 2.69017C21.2558 2.81573 21.5323 2.99975 21.7653 3.23174C21.9982 3.46373 22.183 3.73915 22.3091 4.04226C22.4351 4.34537 22.5 4.67024 22.5 4.99833C22.5 5.32641 22.4351 5.65129 22.3091 5.9544C22.183 6.25751 21.9982 6.53292 21.7653 6.76491L13.4959 14.9509L21.4405 23.1618C21.696 23.3907 21.9014 23.6696 22.0438 23.9812C22.1862 24.2927 22.2625 24.6302 22.2679 24.9724C22.2733 25.3147 22.2078 25.6544 22.0754 25.9703C21.9431 26.2861 21.7466 26.5714 21.4985 26.8083C21.2504 27.0451 20.9558 27.2284 20.6333 27.3467C20.3108 27.465 19.9672 27.5157 19.6241 27.4958C19.281 27.4758 18.9458 27.3855 18.6393 27.2306C18.3328 27.0757 18.0617 26.8595 17.843 26.5954L8.19956 16.6429C7.75908 16.1878 7.50898 15.5829 7.50004 14.9509Z" fill="#E0C389"/>
</svg>
