<svg width="48" height="48" viewBox="0 0 48 48" fill="none" xmlns="http://www.w3.org/2000/svg">
<path d="M5.17405 46.8367C5.07881 47.2457 4.77055 47.5594 4.35578 47.6242C3.76933 47.7156 1.38468 47.7182 0.803237 47.6254C0.350868 47.553 0.241848 47.1834 0 46.8684V36.7708C0.255632 36.3516 0.454875 36.0709 0.982431 36.0061C1.61399 35.9299 3.75178 35.9172 4.35578 36.0138C4.92844 36.1065 5.21039 36.7581 5.25676 37.2902C5.5174 40.2967 5.11766 43.7972 5.17405 46.8367Z" fill="#E0C389"/>
<path d="M31.4603 39.809C25.874 47.2457 20.8203 49.1445 11.6288 47.3943C10.3619 47.1529 8.98097 46.843 7.74541 46.4798C7.54617 46.4213 6.9121 46.2969 6.85947 46.1419L6.85195 37.2991C8.73411 34.4172 12.4658 34.5848 15.165 36.1827C15.8931 36.6133 16.4206 37.2204 17.1399 37.6065C19.5596 37.8809 22.5433 37.3106 24.8953 37.637C26.1046 37.8034 26.9542 39.3695 26.6196 40.5139C26.5895 40.6193 25.5507 41.6735 25.4467 41.7053C24.7036 41.657 23.933 41.7993 23.2187 41.8234C20.507 41.9174 17.0885 41.5084 14.5034 41.831C13.1413 42 13.353 43.5267 14.5861 43.5343C14.764 43.5343 14.9457 43.4352 15.145 43.4352C18.7927 43.4251 22.4493 43.5267 26.0808 43.3019L32.3588 37.1023L33.2986 36.6755C33.6081 36.993 31.7435 39.4305 31.4603 39.809Z" fill="#E0C389"/>
<path d="M40.4275 9.24032V15.1465H26.686C25.9805 15.1465 24.6698 16.2795 24.6698 17.0047V20.2906H19.3228V11.5736C19.3228 11.2687 19.7263 10.452 19.9306 10.1904C20.1762 9.87666 21.0659 9.24032 21.433 9.24032H40.4275Z" fill="#E0C389"/>
<path d="M48 7.12044L47.9712 17.3337C47.8722 17.669 47.4499 17.7821 47.1341 17.8138C46.1279 17.918 43.9199 17.918 42.9124 17.8138C42.4099 17.763 42.019 17.5738 42.0152 17.0098C42.2395 13.9107 41.7408 10.433 42.0177 7.37828C42.0653 6.8499 42.2834 6.63525 42.8172 6.57047C43.7482 6.4587 46.292 6.46378 47.2306 6.57047C47.4035 6.59079 47.6817 6.67716 47.8083 6.79402C47.8897 6.87023 47.9461 7.01756 48 7.12044Z" fill="#E0C389"/>
<path d="M18.5572 30.641C18.1374 29.0229 18.4218 28.0055 19.6022 26.9093C20.4957 26.0812 21.5596 25.441 22.2901 24.3932C22.7901 24.8199 23.2262 25.4017 23.73 25.8653C24.5495 26.6185 25.8928 27.2891 26.1284 28.478C27.2236 33.9866 19.7915 35.3965 18.5572 30.641Z" fill="#E0C389"/>
<path d="M36.8637 0H25.7951V3.04835H36.8637V0Z" fill="#E0C389"/>
<path d="M32.642 4.38201V7.8114H30.0155V4.52426L30.1559 4.38201H32.642Z" fill="#E0C389"/>
</svg>
