<svg width="22" height="25" viewBox="0 0 22 25" fill="none" xmlns="http://www.w3.org/2000/svg">
<path d="M2.04066 2.5L2 2.54003V20.9805C2 21.1974 2.1781 21.6193 2.30334 21.8027C3.17108 23.0705 5.0947 22.4981 5.19988 20.9815C5.24027 20.4016 5.16627 19.7785 5.20042 19.1938C5.20015 19.1121 5.39506 18.9122 5.45633 18.9122H17.3976L17.5331 2.5H2.04066ZM12.125 16.2703H7.24548C6.81934 16.2222 6.7681 15.6597 7.17039 15.5292L12.1527 15.5222C12.6102 15.601 12.5804 16.2188 12.125 16.2703ZM14.6195 9.73259L13.3639 10.9783C13.3091 11.5393 13.4183 12.1835 13.3584 12.7343C13.3362 12.9395 13.2009 13.0727 12.9925 13.0946C12.4332 13.1535 11.7788 13.0457 11.2087 13.0999L9.92895 14.3486C9.78364 14.4652 9.5684 14.4623 9.42717 14.336L8.16175 13.0999C7.59166 13.0457 6.93726 13.1535 6.37801 13.0946C6.14542 13.07 6.03482 12.9278 6.01232 12.7071C5.95648 12.1603 6.05786 11.5339 6.00663 10.9783L4.73768 9.71872C4.64633 9.59009 4.61922 9.43024 4.71545 9.296L6.00663 8.00517C6.06139 7.44422 5.95214 6.80001 6.01205 6.2492C6.03265 6.05999 6.17578 5.88813 6.37747 5.87665C6.93997 5.84463 7.55886 5.9359 8.1284 5.87772L8.23602 5.82328C8.58355 5.49797 8.89747 5.12676 9.24744 4.80439C9.53777 4.53699 9.67223 4.40676 10.0249 4.70084C10.0675 4.73633 10.0843 4.78464 10.1149 4.81239C10.499 5.16119 10.8455 5.54601 11.2364 5.88546L13.0472 5.88839C13.2191 5.90841 13.3408 6.08774 13.3584 6.2492C13.4183 6.79761 13.3142 7.44582 13.3579 8.00517L14.5924 9.19753C14.7342 9.35978 14.7716 9.56073 14.6195 9.73259Z" fill="white"/>
<path d="M5.95783 19.6595V20.5401H10.0919C10.1233 20.5401 10.2469 20.5962 10.2819 20.6199C10.5478 20.7992 10.4584 21.2204 10.1445 21.2855L5.9478 21.2908C5.89684 21.3079 5.88139 21.4939 5.86268 21.5539C5.75452 21.9033 5.58455 22.1992 5.36145 22.4882H19.0648C19.4464 22.4882 20 21.8857 20 21.5142V19.6595H5.95783ZM11.977 21.2751C11.8862 21.3007 11.4958 21.3004 11.3993 21.2812C11.1336 21.2284 11.0417 20.8444 11.2426 20.6589C11.4164 20.4988 11.9333 20.49 12.1022 20.6559C12.2798 20.8302 12.2359 21.202 11.977 21.2751Z" fill="white"/>
<path d="M13.7903 9.48201C13.4314 9.9242 12.9339 10.2685 12.5994 10.7328V12.3473H10.9593C10.9452 12.3473 10.8338 12.4215 10.8094 12.4399L9.70855 13.5194C9.62154 13.5346 8.59901 12.3473 8.41114 12.3473H6.77108V10.7061C6.77108 10.5791 5.71792 9.65974 5.57886 9.47854L6.67702 8.39827C6.69572 8.37452 6.77108 8.26457 6.77108 8.25096V6.64976L6.81175 6.60973H8.43825C8.45235 6.60973 8.56377 6.53554 8.58816 6.51686L9.68524 5.43579C9.86172 5.57296 10.8089 6.60973 10.9322 6.60973H12.5994V8.22427C12.5994 8.25976 12.6913 8.38786 12.7211 8.42469C12.8539 8.58854 13.777 9.40862 13.7903 9.48201Z" fill="white"/>
</svg>
