<svg width="30" height="30" viewBox="0 0 30 30" fill="none" xmlns="http://www.w3.org/2000/svg">
<path d="M13.272 7.79719C12.9121 7.80916 12.5472 8.27368 12.5442 9.13992V12.9049C12.5442 13.1272 12.3627 13.3077 12.1392 13.3077C11.9157 13.3077 11.7342 13.1272 11.7342 12.9049V6.95587C11.6731 6.03679 11.2149 5.53339 10.7949 5.56928C10.3659 5.58224 9.90173 6.0976 9.89872 7.19611V12.2241C9.89872 12.4464 9.71727 12.6268 9.49373 12.6268C9.27018 12.6268 9.08874 12.4464 9.08874 12.2241V5.64105C9.01556 4.54454 8.4592 4.04313 7.97 4.06307C7.45975 4.07902 6.9084 4.66316 6.90539 5.90621V7.41541C6.9094 7.50114 6.9084 7.58985 6.90539 7.67857V10.3939V10.3949V12.1454C6.90539 12.3677 6.72395 12.5481 6.5004 12.5481C6.27685 12.5481 6.09541 12.3677 6.09541 12.1454V7.73539C6.1305 7.11536 5.96008 6.67078 5.61624 6.46045C5.34858 6.29697 5.00474 6.29597 4.72005 6.45845C4.52858 6.5681 4.2098 6.84423 4.22684 7.46525C4.22684 8.76013 4.23285 14.1639 4.23386 15.5535C5.17616 15.6861 6.55453 16.1845 7.89281 17.7814C8.03616 17.9529 8.0131 18.2061 7.84068 18.3486C7.66826 18.4912 7.41364 18.4683 7.27029 18.2968C5.82776 16.5753 4.38222 16.3161 3.64542 16.3161H3.6374C3.067 16.3161 2.58282 15.8915 2.51164 15.3272C2.25802 13.3077 1.78988 12.0337 1.11923 11.5413C0.845564 11.3399 0.530794 11.2741 0.160889 11.3379C-0.258137 11.4107 0.24309 14.2686 0.511747 15.8027C0.638057 16.5244 0.772385 17.291 0.893682 18.0765C1.28564 20.6025 2.92465 21.4916 3.86596 21.7957C4.33711 21.9482 4.65388 22.4047 4.63684 22.9061L4.56968 25.456L11.5067 25.9375C11.4836 25.0772 11.4926 23.1643 11.7402 22.7556C11.8184 22.625 11.9517 22.4715 12.1362 22.2602C12.6725 21.6432 13.5697 20.6094 13.7401 19.3604C13.9366 17.922 14.0368 16.1975 14.0368 14.2327V8.92959C13.9857 8.17798 13.6268 7.80118 13.273 7.79321L13.272 7.79719Z" fill="white"/>
<path d="M29.8365 11.3389C29.4666 11.2731 29.1518 11.3409 28.8782 11.5423C28.2085 12.0347 27.7404 13.3077 27.4868 15.3272C27.4156 15.8924 26.9324 16.3171 26.362 16.3171H26.355C25.6172 16.3171 24.1716 16.5753 22.7291 18.2978C22.5848 18.4693 22.3301 18.4912 22.1587 18.3496C21.9863 18.2071 21.9632 17.9529 22.1066 17.7824C23.4449 16.1855 24.8232 15.6871 25.7665 15.5545C25.7675 14.1659 25.7736 8.76312 25.7736 7.47721C25.7896 6.84522 25.4718 6.5691 25.2804 6.45945C24.9947 6.29597 24.6518 6.29796 24.3852 6.46144C24.0453 6.66978 23.8759 7.10839 23.906 7.69552V10.3949V10.3959V12.1464C23.906 12.3687 23.7246 12.5491 23.501 12.5491C23.2775 12.5491 23.096 12.3687 23.096 12.1464V7.73639C23.089 7.62175 23.09 7.50911 23.096 7.39946V5.90621C23.093 4.66416 22.5427 4.08002 22.0324 4.06407C21.5412 4.03915 20.9889 4.54354 20.9147 5.66797V7.18215C20.9147 7.18215 20.9157 7.18913 20.9157 7.19411V12.2241C20.9157 12.4464 20.7342 12.6268 20.5107 12.6268C20.2871 12.6268 20.1057 12.4464 20.1057 12.2241V7.19511C20.1027 6.0976 19.6355 5.58324 19.2025 5.56928C18.8055 5.54934 18.3203 5.99293 18.2552 6.98179V9.12697C18.2552 9.12697 18.2562 9.13295 18.2562 9.13594V12.903C18.2562 13.1252 18.0747 13.3057 17.8512 13.3057C17.6276 13.3057 17.4462 13.1252 17.4462 12.903V9.13594C17.4442 8.27069 17.0783 7.80617 16.7184 7.7942C16.7144 7.7942 16.7094 7.7942 16.7044 7.7942C16.3675 7.7942 16.0047 8.18995 15.9535 8.9575C15.9545 10.1009 15.9736 14.2317 15.9736 14.2317C15.9736 16.2722 16.0678 17.9489 16.2603 19.3604C16.4307 20.6104 17.3289 21.6432 17.8652 22.2602C18.0497 22.4725 18.182 22.625 18.2612 22.7556C18.5078 23.1643 18.5168 25.0762 18.4938 25.9375L25.4307 25.456L25.3636 22.9061C25.3465 22.4047 25.6633 21.9472 26.1354 21.7947C27.0768 21.4896 28.7138 20.6015 29.1057 18.0755C29.228 17.29 29.3623 16.5244 29.4877 15.8037C29.7573 14.2686 30.2585 11.4097 29.8385 11.3369L29.8365 11.3389Z" fill="white"/>
</svg>
