<svg width="25" height="25" viewBox="0 0 25 25" fill="none" xmlns="http://www.w3.org/2000/svg">
<path d="M12.5004 25C19.4034 25 25 19.4036 25 12.5C25 5.5964 19.4034 1.41808e-06 12.5004 8.146e-07C5.59741 2.11121e-07 1.69632e-06 5.5964 1.09278e-06 12.5C4.89252e-07 19.4036 5.59658 25 12.5004 25ZM6.55124 11.7574C7.47763 10.5899 8.97782 9.49059 9.94329 8.30229C10.5861 7.70939 11.663 8.33638 11.5507 9.1588C11.4618 9.81157 9.96241 10.8635 9.57074 11.4472L17.9432 11.4472C18.3149 11.4472 18.7747 12.1133 18.7864 12.4767C18.7989 12.8584 18.3373 13.5636 17.9432 13.5636L9.63311 13.5636C9.999 14.139 11.5058 15.1743 11.6115 15.788C11.7345 16.5056 11.0601 17.0703 10.3624 16.9114C10.2252 16.8807 10.0248 16.7085 9.91169 16.6154C9.07511 15.9177 7.21485 14.0899 6.55124 13.2534C6.09886 12.6821 6.09803 12.3295 6.55124 11.7574Z" fill="#525252"/>
</svg>
