<svg width="12" height="15" viewBox="0 0 12 15" fill="none" xmlns="http://www.w3.org/2000/svg">
<path fill-rule="evenodd" clip-rule="evenodd" d="M9.89377 14.9997H2.10649C0.944878 14.9997 0 14.0886 0 12.9687V2.03134C0 0.911172 0.944878 0 2.10649 0H9.89377C11.0554 0 12 0.91092 12 2.03134V12.9689C12 14.0883 11.058 14.9985 9.89403 14.9987V15L9.89377 14.9997ZM5.26245 10.2927C5.10805 10.1439 4.87333 10.3702 5.02773 10.5191L5.53003 11.0035C5.59654 11.0676 5.70138 11.0643 5.76736 11.001L6.97253 9.83879C7.12692 9.6899 6.89246 9.46356 6.73781 9.61244L5.64739 10.6639L5.26245 10.2927ZM3.27228 5.34329C3.05373 5.34329 3.05373 5.66345 3.27228 5.66345H8.72798C8.94654 5.66345 8.94654 5.34329 8.72798 5.34329H3.27228ZM3.27228 3.75283C3.05373 3.75283 3.05373 4.07298 3.27228 4.07298H8.72798C8.94654 4.07298 8.94654 3.75283 8.72798 3.75283H3.27228ZM3.27228 2.16237C3.05373 2.16237 3.05373 2.48252 3.27228 2.48252H8.72798C8.94654 2.48252 8.94654 2.16237 8.72798 2.16237H3.27228ZM3.71903 10.214L3.72529 10.3783C3.74719 10.9469 4.01921 11.5173 4.39763 11.9471C4.81022 12.4159 5.37068 12.7501 6.00652 12.8369C6.04929 12.8344 6.08763 12.8316 6.13092 12.8205C6.71277 12.6729 7.22185 12.3857 7.61253 11.9418C7.96983 11.5361 8.2541 10.9089 8.27549 10.3717C8.29922 9.76887 8.27445 9.16176 8.27445 8.55817V8.5212C8.24811 8.17363 7.85273 7.95634 7.52856 8.11428L7.50274 8.12862C7.16917 8.31422 6.71903 8.14194 6.42432 7.95785C6.16274 7.79438 5.94836 7.67416 5.67556 7.88919C5.43067 8.08184 4.96566 8.26845 4.64853 8.18923C4.46623 8.1437 4.35929 8.02575 4.14309 8.06675C3.90289 8.11252 3.72346 8.32227 3.72346 8.55817C3.72346 9.1097 3.70468 9.66249 3.71877 10.214H3.71903ZM6.04538 12.513C6.57976 12.4023 7.0552 12.093 7.39998 11.6885C7.7106 11.3241 7.94271 10.845 7.94427 10.3664C7.94636 9.76762 7.94558 9.16855 7.94558 8.56974C7.94558 8.41909 7.79562 8.3356 7.65974 8.40903C7.33713 8.58332 6.97279 8.54484 6.64053 8.41909C6.5083 8.36905 6.38024 8.30517 6.26002 8.23223C6.20238 8.19753 6.08789 8.10799 6.02321 8.09969L5.94784 8.09014L5.8876 8.13515C5.47266 8.445 4.83265 8.67084 4.33426 8.40526C4.20308 8.33535 4.05494 8.42337 4.05494 8.56672L4.05442 10.3609C4.05442 11.4036 4.94532 12.2562 5.94628 12.5112C5.99661 12.524 5.99582 12.5235 6.04485 12.5135L6.04538 12.513Z" fill="#212121"/>
</svg>
