<svg width="30" height="30" viewBox="0 0 30 30" fill="none" xmlns="http://www.w3.org/2000/svg">
<path fill-rule="evenodd" clip-rule="evenodd" d="M27.7726 1.64354C29.0829 3.16771 29.1919 5.44195 28.2763 7.61373C26.071 5.03559 23.5247 2.80409 20.719 0.891124C23.3585 -0.394726 26.2007 -0.185687 27.7726 1.64354ZM15.9939 12.4526C16.3761 12.6575 16.685 12.9749 16.8782 13.3614L20.5912 13.297C21.1379 13.287 21.5892 13.7198 21.5992 14.2637C21.6081 14.8071 21.1727 15.2556 20.6259 15.2656L16.8105 15.3317C16.4476 15.9489 15.7741 16.3641 15.0029 16.3641C13.8476 16.3641 12.9108 15.4325 12.9108 14.2842C12.9108 13.492 13.3568 12.8034 14.0125 12.4526L14.0131 6.83905C14.0131 6.29509 14.4556 5.85417 15.0029 5.85417C15.5503 5.85417 15.9939 6.29509 15.9939 6.83905V12.4526ZM23.7267 5.61469C25.9591 7.8333 27.3395 10.8992 27.3395 14.2842C27.3395 17.6698 25.9591 20.7351 23.7267 22.9537C21.4938 25.1729 18.4095 26.5455 15.0029 26.5455C11.5964 26.5455 8.51264 25.1729 6.2797 22.9537C4.04734 20.7351 2.66692 17.6698 2.66692 14.2842C2.66692 10.8986 4.04793 7.8333 6.2797 5.61469C8.27992 3.62736 10.9636 2.32043 13.9495 2.06806C14.8521 1.99136 15.7812 2.01536 16.6762 2.13598C19.4134 2.50488 21.8656 3.76555 23.7267 5.61469ZM6.48944 24.9124L9.40641 26.8534L7.808 29.2261C7.26832 30.0265 6.17777 30.2408 5.37238 29.705C4.56698 29.1687 4.35194 28.086 4.89103 27.285L6.48944 24.9124ZM25.1154 27.285C25.6551 28.086 25.44 29.1687 24.6341 29.705C23.8287 30.2408 22.7381 30.0265 22.1984 29.2261L20.6 26.8534L23.517 24.9124L25.1154 27.285ZM2.24802 1.60197C3.84938 -0.261808 6.74514 -0.474945 9.43528 0.835497C6.57664 2.78476 3.98135 5.05784 1.73544 7.68516C0.802199 5.4724 0.912963 3.15483 2.24802 1.60197Z" fill="white"/>
</svg>
