<svg width="24" height="24" viewBox="0 0 24 24" fill="none" xmlns="http://www.w3.org/2000/svg">
<path d="M11.9823 11.0008C11.8644 11.0001 11.7476 11.0253 11.6385 11.075C11.5293 11.1247 11.4301 11.198 11.3464 11.2906L7.76343 15.2873C7.67991 15.3805 7.61366 15.4911 7.56846 15.6128C7.52326 15.7345 7.5 15.865 7.5 15.9967C7.5 16.1285 7.52326 16.2589 7.56846 16.3807C7.61366 16.5024 7.67991 16.613 7.76343 16.7062C7.84694 16.7993 7.94609 16.8732 8.05521 16.9236C8.16433 16.9741 8.28129 17 8.3994 17C8.51751 17 8.63446 16.9741 8.74358 16.9236C8.8527 16.8732 8.95185 16.7993 9.03537 16.7062L11.9823 13.3989L14.9383 16.5763C15.0207 16.6785 15.1211 16.7606 15.2332 16.8175C15.3454 16.8745 15.4669 16.905 15.5901 16.9072C15.7133 16.9093 15.8356 16.8831 15.9493 16.8302C16.063 16.7773 16.1657 16.6987 16.251 16.5995C16.3362 16.5002 16.4022 16.3824 16.4448 16.2534C16.4874 16.1244 16.5057 15.987 16.4985 15.8498C16.4913 15.7126 16.4588 15.5785 16.403 15.4559C16.3472 15.3333 16.2694 15.2249 16.1744 15.1374L12.5914 11.2806C12.4276 11.1044 12.2098 11.0044 11.9823 11.0008Z" fill="white"/>
<path d="M11.9823 12.9992C11.8644 12.9999 11.7476 12.9747 11.6385 12.925C11.5293 12.8753 11.4301 12.802 11.3464 12.7094L7.76343 8.71268C7.67991 8.61952 7.61366 8.50892 7.56846 8.3872C7.52326 8.26548 7.5 8.13502 7.5 8.00327C7.5 7.87152 7.52326 7.74105 7.56846 7.61933C7.61366 7.49761 7.67991 7.38701 7.76343 7.29385C7.84694 7.20069 7.94609 7.12679 8.05521 7.07637C8.16433 7.02595 8.28129 7 8.3994 7C8.51751 7 8.63446 7.02595 8.74358 7.07637C8.8527 7.12679 8.95185 7.20069 9.03537 7.29385L11.9823 10.6011L14.9383 7.42374C15.0207 7.32154 15.1211 7.2394 15.2332 7.18246C15.3454 7.12552 15.4669 7.09501 15.5901 7.09283C15.7133 7.09065 15.8356 7.11685 15.9493 7.1698C16.063 7.22275 16.1657 7.3013 16.251 7.40054C16.3362 7.49979 16.4022 7.61759 16.4448 7.74657C16.4874 7.87556 16.5057 8.01297 16.4985 8.15019C16.4913 8.28741 16.4588 8.4215 16.403 8.54408C16.3472 8.66665 16.2694 8.77507 16.1744 8.86256L12.5914 12.7194C12.4276 12.8956 12.2098 12.9956 11.9823 12.9992Z" fill="white"/>
</svg>
