<svg width="17" height="25" viewBox="0 0 17 25" fill="none" xmlns="http://www.w3.org/2000/svg">
<path d="M14.0733 4.3206H1.50048V21.6144C1.50048 22.036 2.10669 22.5452 2.52953 22.4968L13.0686 22.495C13.4304 22.5323 14.0473 22.056 14.0473 21.6933V4.36005C14.0473 4.35453 14.0864 4.33007 14.0733 4.3206ZM11.4398 19.8269C11.4213 20.0386 11.3057 20.1872 11.0879 20.2085H4.4598C4.3119 20.2074 4.21982 20.1117 4.15539 19.9894L4.14731 16.5767C4.18956 16.4609 4.27121 16.3839 4.38885 16.3468L11.0877 16.3397C11.2825 16.3386 11.4203 16.5099 11.4388 16.6956C11.3725 17.7058 11.5269 18.8303 11.4398 19.8269ZM11.4646 11.2773L10.5571 12.2034C10.5107 12.6177 10.6009 13.1092 10.5524 13.5138C10.5284 13.7145 10.3583 13.8226 10.1734 13.8415C9.77822 13.882 9.328 13.8078 8.92682 13.8473L8.00889 14.7629C7.86099 14.867 7.71231 14.8668 7.56493 14.7629L6.64701 13.8473C6.23956 13.8052 5.77421 13.8854 5.37407 13.842C5.23321 13.8268 5.04671 13.7124 5.02349 13.5643C4.96637 13.2018 5.05271 12.6881 5.02297 12.3023C5.01854 12.2431 5.0188 12.22 4.98619 12.1679C4.82394 11.9062 4.35651 11.5834 4.14418 11.3338C4.01401 11.1773 3.95689 11.0153 4.08262 10.8302L5.01071 9.87222C5.06758 9.45849 4.97315 8.97295 5.02141 8.56763C5.0441 8.37562 5.19591 8.2641 5.37694 8.24253C5.77526 8.19493 6.24113 8.27646 6.64701 8.23412L7.56493 7.3188C7.71283 7.21464 7.86152 7.2149 8.00889 7.3188L8.92682 8.23412C9.328 8.27383 9.77822 8.19966 10.1734 8.2399C10.3583 8.25884 10.5284 8.36694 10.5524 8.56763C10.6009 8.97216 10.5107 9.46375 10.5571 9.87801C10.5876 9.98138 11.3227 10.6203 11.4523 10.7902C11.5739 10.9496 11.5841 11.1134 11.4646 11.2773Z" fill="white" fill-opacity="0.5"/>
<path d="M14.0733 3.55783H1.50048C1.48562 3.07624 1.81428 2.64935 2.27781 2.53993C5.88559 2.46076 9.50773 2.52757 13.1207 2.506C13.5545 2.55072 13.9515 2.87687 14.0413 3.31401C14.0577 3.39476 14.0295 3.48103 14.0733 3.55783Z" fill="white" fill-opacity="0.5"/>
<path d="M15.4819 3.71565V7.83195C15.4819 7.85773 15.3776 8.05789 15.352 8.08787C15.2146 8.24884 14.9988 8.25069 14.8037 8.23964V3.74195L15.4819 3.71565Z" fill="white" fill-opacity="0.5"/>
<path d="M15.4832 12.5677C15.4754 12.6484 15.4574 12.7134 15.4039 12.777C15.3799 12.8055 15.2565 12.8951 15.2341 12.8951H14.8037V10.5279H15.2341C15.3092 10.5279 15.4738 10.7173 15.4806 10.8054C15.4417 11.3699 15.5367 12.0127 15.4832 12.5677Z" fill="white" fill-opacity="0.5"/>
<path d="M10.6557 11.0408C10.5477 11.1831 9.82152 11.8186 9.82152 11.9351V13.0793H8.76509C8.51129 13.0793 8.0162 13.7621 7.7963 13.9191C7.70579 13.9351 7.07193 13.0793 6.80873 13.0793H5.7523V11.9614C5.7523 11.8049 5.04149 11.2021 4.91811 11.0408C5.04149 10.8796 5.7523 10.2768 5.7523 10.1203V9.00241H6.83482C7.03567 9.00241 7.58971 8.29856 7.77752 8.16257C7.86569 8.14679 8.51442 9.00241 8.73901 9.00241H9.82152V10.1466C9.82152 10.2628 10.5477 10.8983 10.6557 11.0408Z" fill="white" fill-opacity="0.5"/>
<path d="M10.6823 17.0772H4.86542V19.4707H10.6823V17.0772Z" fill="white" fill-opacity="0.5"/>
</svg>
