<svg width="33" height="29" viewBox="0 0 33 29" fill="none" xmlns="http://www.w3.org/2000/svg">
<path d="M24.1488 20.7961L20.9647 17.6119C21.7607 16.454 22.2671 15.079 22.2671 13.5593C22.2671 9.79611 19.1553 6.68425 15.3922 6.68425C11.629 6.68425 8.51717 9.79611 8.51717 13.5593C8.51717 17.3224 11.629 20.4342 15.3922 20.4342C16.9119 20.4342 18.287 19.9276 19.4449 19.1316L22.629 22.3158L24.1488 20.7961ZM10.6882 13.6316C10.6882 11.0264 12.7869 8.92767 15.3922 8.92767C17.9974 8.92767 20.0961 11.0264 20.0961 13.6316C20.0961 16.2369 17.9974 18.3355 15.3922 18.3355C12.7869 18.3355 10.6882 16.2369 10.6882 13.6316Z" fill="#8F9B87"/>
</svg>
