<svg width="30" height="30" viewBox="0 0 30 30" fill="none" xmlns="http://www.w3.org/2000/svg">
<path d="M24.0122 29.8444C24.0122 29.9336 24.0077 29.9428 23.9299 30H5.96709V19.2071C5.96709 19.1789 6.19515 18.7754 6.23863 18.7159C6.51627 18.3345 6.91519 18.153 7.37894 18.1019L22.4829 18.098C23.2129 18.1232 23.8589 18.6274 23.968 19.3596C23.9108 22.853 24.0237 26.3525 24.0122 29.8444Z" fill="white"/>
<path d="M24.5599 12.4384C24.6209 13.4643 23.1381 12.6612 22.7438 12.2691C22.5302 12.0571 22.1748 11.3416 21.9429 11.3103L18.3999 12.1516C18.3496 12.096 18.7927 10.9351 18.8393 10.7222C18.8888 10.4965 18.8393 10.26 18.8911 10.0114C18.9743 9.60634 19.3686 9.03428 19.5044 8.56519C19.988 6.89324 19.853 4.53253 17.9827 3.83461C17.8179 3.77359 17.3305 3.71028 17.2726 3.66833C17.2413 3.64545 17.1673 3.41205 17.0666 3.30145C16.043 2.17258 14.6174 2.22292 13.2292 2.5959C10.1531 3.4212 9.77016 5.85208 10.5993 8.62544C10.8144 9.34396 10.9334 9.67423 11.0859 10.4263C11.2102 11.0373 11.3529 11.5826 11.6107 12.1516L8.07152 11.3134C7.71302 11.3477 7.60547 11.8153 7.37894 12.0761C6.98841 12.5239 5.39884 13.5665 5.42706 12.4186C5.43926 11.9022 5.85573 11.3309 6.23176 11.006C6.4522 10.8153 6.99909 10.5842 7.0357 10.3554C7.08223 10.0632 6.74128 9.11208 6.67416 8.73681C6.41787 7.30589 6.42321 5.71097 6.67568 4.27929C6.74662 3.87503 7.07231 2.96279 7.0418 2.65387C7.00824 2.31063 6.61619 2.27555 6.3866 2.08333C6.04641 1.79883 5.59563 1.28473 5.48503 0.849204C5.07543 -0.770116 6.9068 0.310702 7.44759 0.94531C7.56734 1.08642 7.72294 1.4472 7.81904 1.52729C7.95329 1.63941 8.10965 1.62797 8.27136 1.60967C8.74274 1.55551 9.4704 1.23287 9.99288 1.11388C13.4398 0.325957 16.5739 0.308413 20.0192 1.11235C20.4555 1.2138 21.6019 1.68213 21.9429 1.62721C22.19 1.58755 22.4303 1.01777 22.6217 0.813354C22.9528 0.460201 23.8543 -0.176696 24.3494 0.0620451C25.0557 0.402232 23.9039 1.78815 23.5485 2.08333C23.3517 2.24656 22.949 2.32284 22.9139 2.59514C22.8689 2.94906 23.2701 4.04055 23.3387 4.50507C23.6194 6.40431 23.4325 8.44391 22.904 10.2783C22.9101 10.6109 23.3555 10.6963 23.5881 10.8908C23.9718 11.2119 24.5294 11.9266 24.5599 12.4384Z" fill="white"/>
<path d="M18.0933 8.75893C18.0056 7.94736 17.6776 7.19681 16.9232 6.81773C16.2032 7.58887 14.9111 8.18305 13.8516 8.2517C13.3475 8.2845 12.7716 8.06482 12.3216 8.43857C11.3071 9.28294 11.9295 11.4232 12.6404 12.305C13.7876 13.729 15.879 13.8648 17.1521 12.5063C18.062 11.5353 18.2306 10.0274 18.0933 8.75893ZM13.6899 10.4583C12.6717 10.6566 11.9318 9.26539 12.7296 9.19293C13.0843 9.1609 13.1194 9.7177 13.4802 9.71847C13.876 9.71847 14.0141 8.78638 14.5488 9.40574C14.7624 9.83593 14.0637 10.3851 13.6899 10.4583ZM17.5372 9.69482C17.5273 9.71313 17.4839 9.85576 17.448 9.93585C17.3275 10.2013 16.7402 10.4744 16.4549 10.4751C15.9881 10.4766 15.0499 9.8161 15.4664 9.33328C15.8607 8.87639 16.0934 9.58804 16.2627 9.67346C16.7684 9.92822 16.8142 9.15784 17.2055 9.19293C17.3908 9.21047 17.6356 9.50718 17.5372 9.69482Z" fill="white"/>
<path d="M18.8568 8.18534C18.631 7.91227 18.6005 7.54386 18.4144 7.21741C18.1886 6.8223 17.2108 5.88946 16.7577 5.89098C16.3695 5.89251 16.4427 6.23346 16.3168 6.40813C15.9675 6.88866 14.5221 7.43021 13.9287 7.48971C13.2201 7.55988 12.4993 7.30665 11.9226 7.84896L11.3071 8.41416C10.825 6.95121 10.6305 4.87348 12.1049 3.91241C13.1507 3.23051 15.6105 2.64701 16.4923 3.79952C16.6181 3.96428 16.6914 4.26938 16.8431 4.36472C17.0346 4.48447 17.4244 4.46083 17.6669 4.53253C19.1642 4.97797 19.0849 6.94587 18.8568 8.18534Z" fill="white"/>
<path d="M21.2221 17.3383H8.71299C9.45057 16.2957 10.4749 15.4734 11.7228 15.1241C12.317 15.5688 12.8273 16.0943 13.5412 16.3613C15.0759 16.9364 16.4252 16.5611 17.673 15.5817C17.8027 15.4795 17.9918 15.2118 18.0971 15.163C18.4556 14.9982 19.663 15.7656 19.9933 16.0112C20.4799 16.3735 20.9231 16.8044 21.2221 17.3383Z" fill="white"/>
<path d="M17.255 14.9357C15.9355 16.169 14.0057 16.1607 12.6793 14.9357L13.6396 14.7519L13.7471 14.0585C14.6052 14.2477 15.3298 14.2477 16.1879 14.0585C16.0323 14.9868 16.5861 14.7923 17.255 14.9357Z" fill="white"/>
</svg>
