<svg width="30" height="30" viewBox="0 0 30 30" fill="none" xmlns="http://www.w3.org/2000/svg">
<path d="M29.7521 14.1424L20.9254 14.1538C20.6122 13.7603 20.5498 13.1591 19.9063 13.2177C19.3351 13.2705 19.1559 14.5629 18.9058 14.5087C18.508 14.423 17.6745 11.8117 16.8252 13.2241L15.4277 18.9372H15.2134L13.4883 8.33782C13.2669 7.70445 12.3101 7.88225 12.3072 8.57917L10.9835 17.2942C10.9369 17.3285 10.8208 17.1542 10.7879 17.0978C10.3743 16.3781 10.1658 15.2698 9.74796 14.5629C9.51576 14.1695 9.1567 14.1752 8.73027 14.1488C6.0556 13.9824 3.29421 14.248 0.626705 14.2252C0.173043 14.2216 0.143659 13.6311 0.099941 13.2512C-0.388839 9.02617 0.833111 3.48869 5.59334 2.39047C8.91374 1.62358 11.4393 2.66039 13.5629 5.19313C14.1061 5.84149 14.5218 6.59767 15.0686 7.22604C16.7729 4.33056 19.1523 1.98346 22.7737 2.15698C26.5722 2.33906 28.8971 4.66188 29.6718 8.27927C30.0681 10.1265 30.1183 12.2958 29.7521 14.1424Z" fill="white"/>
<path d="M29.393 15.5305C26.9886 21.6471 20.8265 25.3658 15.0342 27.8572C10.3579 25.9092 5.39481 22.9845 2.39764 18.8158C1.66303 17.794 0.971431 16.5801 0.664689 15.3662H8.7274C8.89081 15.6055 9.01479 15.9082 9.13376 16.1746C9.39822 16.7651 10.5972 19.9526 10.8739 20.1533C11.2136 20.3996 11.7059 20.2118 11.8271 19.8112C12.2141 17.5163 12.4771 15.1992 12.8476 12.902C12.8648 12.7964 12.8512 12.6821 12.991 12.6528L14.587 22.3097C14.8271 22.8688 15.4822 22.9616 15.7509 22.364L17.6136 15.0085C17.6996 14.89 17.7204 14.9742 17.792 15.0456C18.1009 15.3541 18.465 16.3081 18.9108 16.3645C19.6432 16.4573 19.6719 15.5655 20.0503 15.1542C20.1249 15.1727 20.3198 15.3662 20.3377 15.3662H29.2963L29.393 15.5305Z" fill="white"/>
</svg>
