<svg width="43" height="43" viewBox="0 0 43 43" fill="none" xmlns="http://www.w3.org/2000/svg">
<path d="M17.5525 36.0722C18.5578 38.288 19.4789 40.5856 20.6636 42.7027L21.1651 43H21.8372L22.3375 42.7027C23.5156 40.5699 24.4782 38.2745 25.4475 36.0296C23.5919 36.4312 21.7755 36.6433 19.8738 36.4379C19.0974 36.3549 18.3031 36.1025 17.5525 36.0722Z" fill="#E0C389"/>
<path d="M36.0295 25.4477C36.08 25.5038 37.2703 24.9451 37.4297 24.8744C38.1881 24.5367 42.42 22.6856 42.7027 22.3378C42.8205 22.193 42.8351 21.9563 43 21.8363V21.1654L42.7027 20.6639C40.5856 19.4791 38.2879 18.5581 36.0721 17.5528C35.9779 17.5506 36.329 19.1291 36.3515 19.2895C36.6443 21.4178 36.5153 23.361 36.0295 25.4477Z" fill="#E0C389"/>
<path d="M21.5017 34.009C14.5929 34.009 8.99227 28.4084 8.99227 21.4997C8.99227 14.591 14.5929 8.99039 21.5017 8.99039C28.4105 8.99039 34.0112 14.591 34.0112 21.4997C34.0112 28.4084 28.4105 34.009 21.5017 34.009Z" fill="#E0C389"/>
<path d="M28.8918 8.40139L31.5384 10.3288L33.172 12.0555L34.6002 14.1097L37.0179 7.5824C37.2546 6.5839 36.5063 5.77275 35.4887 5.97021L28.8918 8.40139Z" fill="#E0C389"/>
<path d="M28.8918 34.5184L35.4192 37.0168C36.4827 37.2199 37.2479 36.4873 37.0179 35.4193L34.6002 28.892L33.172 30.9462C31.9636 32.3665 30.5635 33.6646 28.8918 34.5184Z" fill="#E0C389"/>
<path d="M5.98439 7.5824L8.48291 14.1097C9.3367 12.438 10.6359 11.0379 12.0551 9.82958L14.1094 8.40139L7.58201 5.98479C7.12651 5.92421 6.67998 5.91524 6.32994 6.2462C5.97205 6.58389 5.90025 7.11568 5.98439 7.5824Z" fill="#E0C389"/>
<path d="M6.32994 36.7554C6.6452 37.0427 7.17699 37.0943 7.58313 37.0168L14.1094 34.6003L12.0551 33.1721C10.6359 31.9638 9.3367 30.5636 8.48291 28.892L5.98439 35.4193C5.898 35.8725 5.97541 36.4346 6.32994 36.7554Z" fill="#E0C389"/>
<path d="M0.425262 22.4634L6.97168 25.4477C6.3378 22.8146 6.3378 20.1871 6.97168 17.5539C6.85164 17.5293 6.76525 17.582 6.65979 17.6201C5.11153 18.1822 3.00457 19.2559 1.48324 20.0008C1.18481 20.1478 0.485847 20.4384 0.298485 20.6639C-0.160381 21.217 -0.0683861 21.9687 0.425262 22.4634Z" fill="#E0C389"/>
<path d="M17.5537 6.97208C20.1902 6.33371 22.811 6.33371 25.4475 6.97208C24.6465 5.14336 23.8791 3.2765 23.0006 1.48369C22.8536 1.18526 22.563 0.486309 22.3375 0.298949C21.7844 -0.159912 21.0327 -0.0690374 20.538 0.424603L17.5537 6.97208Z" fill="#E0C389"/>
</svg>
