<svg width="30" height="31" viewBox="0 0 30 31" fill="none" xmlns="http://www.w3.org/2000/svg">
<path d="M30 12.3162V15.212L29.8263 15.3857H0.173745L0 15.212V12.3162C0 12.2954 0.269884 12.0266 0.289575 12.0266H4.28571V8.95714C4.28571 8.34208 5.3861 7.37027 5.94208 7.13861C6.24556 7.01235 6.71931 7.0054 6.9417 6.86409C7.10849 6.75869 7.21274 6.40888 7.53475 6.29884C7.87876 6.18069 9.61969 6.17838 9.96834 6.28726C10.8243 6.55483 10.9089 8.17297 10.0286 8.561C9.66718 8.71969 8.25521 8.72896 7.82548 8.66062C7.07954 8.54247 6.91622 7.3332 5.78687 8.37336C5.64556 8.50309 5.21236 9.15985 5.21236 9.30463V12.0266H29.7104C29.7313 12.0266 30 12.2954 30 12.3162Z" fill="white"/>
<path d="M20.9653 16.0807C23.5239 18.6 24.6127 21.9405 23.5714 25.4629C23.0154 27.3429 21.8108 28.8139 20.3861 30.0961H27.973C27.9938 30.0961 28.2625 29.8274 28.2625 29.8066V16.0807H20.9653ZM26.9884 28.8232H26.4093V20.7475H26.9884V28.8232ZM26.978 19.8892L26.6965 19.9888C26.2992 19.9448 26.3015 18.6035 26.5842 18.5143C27.1842 18.3255 26.9676 19.5903 26.978 19.8892Z" fill="white"/>
<path d="M9.30347 29.7695C8.32587 28.8788 7.62278 28.178 7.00541 26.971C5.09073 23.2263 6.00927 18.9069 9.03475 16.0807H1.73745V29.8066C1.73745 29.8274 2.00734 30.0961 2.02703 30.0961H9.49807C9.55135 29.8714 9.41699 29.8737 9.30347 29.7695ZM2.89112 17.0421H3.59073V25.1178H2.89112V17.0421ZM3.1888 27.4309C2.77413 27.0544 2.83552 26.4151 3.0278 25.9425H3.45985C3.67992 26.2529 3.68687 27.5444 3.1888 27.4309Z" fill="white"/>
<path d="M19.8625 16.083L10.0483 16.1085C5.12664 19.4143 5.58185 27.3788 10.8371 30.0892C11.1336 30.0892 11.5784 30.0927 12.117 30.0961C13.4792 30.1066 14.3479 30.1216 14.9803 30.1297C17.5228 30.1633 18.7842 30.139 19.0598 30.1008C20.0514 29.9641 21.7552 27.922 22.2591 27.0463C24.3846 23.3525 23.4035 18.4714 19.8625 16.083ZM14.9826 29.4486C11.3375 29.4486 8.38263 26.4938 8.38263 22.8486C8.38263 19.2035 11.3375 16.2486 14.9826 16.2486C18.6278 16.2486 21.5826 19.2035 21.5826 22.8486C21.5826 26.4938 18.6278 29.4486 14.9826 29.4486Z" fill="white"/>
<path d="M25.5985 11.4475H23.3977C23.3803 11.122 23.4232 10.7861 23.3977 10.4606C23.3849 10.2846 23.4892 10.1293 23.2228 10.171C22.529 10.2811 22.9668 11.4174 22.7525 11.4498H17.4903L17.4718 10.3656C16.7687 9.70193 16.9019 10.983 16.9112 11.4475H14.8263V9.76795C14.8263 9.71467 15.0915 9.16795 15.1529 9.05212C15.8305 7.76178 17.422 7.05637 18.8247 6.93243C22.0934 6.64054 26.0027 7.30309 25.5985 11.4475Z" fill="white"/>
<path d="M22.5845 4.58338C23.1322 3.26127 22.5043 1.74555 21.1822 1.19792C19.8601 0.650282 18.3444 1.27811 17.7968 2.60022C17.2491 3.92232 17.877 5.43805 19.1991 5.98568C20.5212 6.53331 22.0369 5.90548 22.5845 4.58338Z" fill="white"/>
<path d="M14.9803 16.8266C11.6537 16.8266 8.95714 19.5232 8.95714 22.8498C8.95714 26.1764 11.6537 28.8718 14.9803 28.8718C18.3069 28.8718 21.0023 26.1753 21.0023 22.8498C21.0023 19.5243 18.3058 16.8266 14.9803 16.8266ZM14.3293 17.9583C14.7869 17.8552 15.8467 17.8714 16.1571 18.2826C16.4444 18.6602 16.456 20.0849 15.9857 20.3085C15.7842 20.4046 14.4521 20.4116 14.1927 20.3629C13.4201 20.2193 13.361 18.1761 14.3293 17.9583ZM16.3263 26.9039C16.1432 28.0645 13.8394 27.9058 13.6714 27.0243C13.844 25.361 13.4259 23.188 13.6749 21.5896C13.7293 21.2444 13.9819 20.9317 14.3305 20.8541C15.0834 20.6861 16.1247 20.7139 16.3054 21.6093C16.4467 22.3089 16.4432 26.1625 16.3263 26.9039Z" fill="white"/>
<path d="M15.7506 21.8178L15.7031 26.9757L15.5629 27.0683C15.2629 27.0579 14.3734 27.2293 14.2633 26.8946L14.2981 21.5178L14.4371 21.4251C14.8645 21.4193 15.6382 21.2189 15.7506 21.8178Z" fill="white"/>
<path d="M15.7552 18.6266H14.2459V19.7896H15.7552V18.6266Z" fill="white"/>
</svg>
