<svg width="59" height="48" viewBox="0 0 59 48" fill="none" xmlns="http://www.w3.org/2000/svg">
<path d="M48.6217 40.1997C45.4089 39.6328 42.2004 36.1796 39.0094 36.4848C36.3919 36.7377 33.7262 39.4148 31.0473 40.0819C25.8779 41.3769 22.56 35.1724 17.7582 36.7769C14.4403 37.8844 11.9672 41.0368 8.07152 40.0994C5.2176 39.4148 2.94146 36.9208 0 36.5677V47.8605L0.14007 48H59V36.4717C55.4589 37.2217 52.443 40.8668 48.6261 40.1953L48.6217 40.1997ZM6.01424 45.7153C5.7166 45.6717 4.55664 44.8563 4.50849 44.5773C4.41657 44.0061 4.76675 43.7924 5.30514 43.8796C5.4277 43.9014 6.36442 44.5511 6.45634 44.6558C6.84153 45.1049 6.57015 45.7938 6.01424 45.7109V45.7153ZM12.5494 42.9335C12.4706 43.0599 11.3413 43.8273 11.2143 43.8578C10.6234 44.0061 10.2295 43.3957 10.5446 42.903C10.6322 42.7634 11.6564 42.0571 11.8271 42.0222C12.4662 41.8827 12.9127 42.3449 12.5494 42.9335ZM19.6404 40.6662C19.1983 41.0804 17.6444 39.9817 17.5919 39.6067C17.5525 39.332 17.7363 38.9527 18.0208 38.9091C18.5417 38.8262 20.402 39.9468 19.6404 40.6662ZM21.8246 46.1775C21.4394 46.3955 20.3014 45.7066 20.065 45.4449C19.6579 44.9958 19.9774 44.3113 20.5465 44.3505C20.9492 44.3767 22.8007 45.6281 21.8246 46.1775ZM26.4819 41.2548C26.4294 41.3726 25.3614 42.0876 25.2082 42.1399C24.5516 42.3841 24.1226 41.7693 24.4684 41.2156C24.556 41.0761 25.6765 40.361 25.8472 40.3305C26.3856 40.2389 26.7052 40.7621 26.4776 41.2505L26.4819 41.2548ZM35.6565 46.0772C34.8511 46.7574 32.6275 44.6296 34.1289 44.3593C34.3915 44.3113 35.5514 45.0874 35.7003 45.288C35.871 45.5234 35.8929 45.8722 35.6565 46.0772ZM40.1256 41.2505C40.0337 41.39 39.0182 42.1356 38.8825 42.1748C38.3572 42.3318 37.8144 41.8783 38.0552 41.3507C38.1471 41.1502 39.2589 40.3741 39.4909 40.3348C40.003 40.2476 40.4276 40.797 40.1212 41.2505H40.1256ZM49.3746 46.1077C48.7837 46.7007 46.3675 44.974 47.6325 44.4203C48.0527 44.2372 48.486 44.6252 48.8231 44.8781C49.1689 45.1354 49.8736 45.615 49.3746 46.112V46.1077ZM53.9093 41.1109C53.8349 41.5077 52.2854 42.4975 51.8652 42.0745C51.6463 41.8565 51.7426 41.3028 51.9659 41.0935C52.0403 41.0237 53.1565 40.3436 53.2309 40.3305C53.7167 40.2433 54.0013 40.64 53.9137 41.1109H53.9093Z" fill="#E0C389"/>
<path d="M41.627 12.2031H27.8914C27.0116 12.0941 26.924 11.0738 27.6988 10.9735C31.1655 10.7904 34.9036 11.2307 38.3397 10.9822C40.2876 10.8427 40.5983 8.72801 38.8606 8.01731C35.6084 7.82982 32.2642 8.13067 29.0163 7.98242C28.7274 7.96934 28.4517 7.86906 28.1671 7.82546C27.6375 8.50128 27.1954 9.13351 26.2675 9.26431C25.7947 9.32971 23.3129 9.35588 22.9758 9.21635C22.4987 9.01578 22.5731 8.21787 23.0196 8.08707C23.8863 7.83854 25.821 8.3792 26.5607 7.8647C27.1867 7.43304 27.0816 6.51305 27.7032 5.91135C29.0338 4.6251 32.5006 4.0234 33.2272 2.78947C33.6561 2.06568 33.643 0.583227 32.9514 0.0207655C32.3386 -0.162361 30.8504 0.918959 30.1938 1.17621C27.4186 2.26625 23.431 2.10928 20.4589 2.35345C17.9902 2.55402 15.5477 4.10624 14.1252 6.07267L14.0989 20.0252C14.1689 20.5484 15.4952 21.3071 15.9855 21.5164C18.0208 22.384 20.3495 21.9131 22.5075 22.0396C22.9889 19.8072 25.8866 19.0572 27.1035 21.1283C27.2479 21.3768 27.3968 21.9916 27.5937 22.057L36.4969 21.996C37.4511 21.4989 37.4424 20.3304 36.4969 19.829L27.4055 19.6982C27.051 19.4235 27.086 18.9482 27.458 18.7084C30.1281 18.5994 32.8245 18.6823 35.5033 18.6648C35.7047 18.6648 35.8929 18.5645 36.068 18.5645C36.9828 18.5558 38.1033 18.8 39.0532 18.6387C40.4101 18.4119 40.4714 16.4629 38.8912 16.3147H27.6944C27.1954 16.3147 26.9853 15.6127 27.2873 15.3119C27.3924 15.2072 27.6331 15.2029 27.7776 15.1898C32.076 14.8279 36.8865 15.4688 41.2374 15.1898C43.032 14.9892 43.3385 12.7394 41.6095 12.1943L41.627 12.2031ZM19.172 16.9426C17.9552 16.9426 16.9703 15.9572 16.9703 14.745C16.9703 13.5329 17.9596 12.5519 19.172 12.5519C20.3845 12.5519 21.3781 13.5373 21.3781 14.745C21.3781 15.9528 20.3889 16.9426 19.172 16.9426Z" fill="#E0C389"/>
<path d="M12.8864 6.57409H6.7715V19.8857H12.8864V6.57409Z" fill="#E0C389"/>
<path d="M23.3566 28.0915C23.3566 28.7804 22.7964 29.3429 22.1004 29.3429C21.4044 29.3429 20.8441 28.7804 20.8441 28.0915C20.8441 27.4026 21.4088 26.8401 22.1004 26.8401C22.792 26.8401 23.3566 27.3982 23.3566 28.0915Z" fill="#E0C389"/>
<path d="M26.2631 22.4189C26.2631 23.1078 25.7028 23.6616 25.0156 23.6616C24.3284 23.6616 23.7681 23.1078 23.7681 22.4189C23.7681 21.73 24.3284 21.1763 25.0156 21.1763C25.7028 21.1763 26.2631 21.7344 26.2631 22.4189Z" fill="#E0C389"/>
<path d="M20.17 14.6927C20.17 15.2421 19.7236 15.6868 19.172 15.6868C18.6205 15.6868 18.174 15.2421 18.174 14.6927C18.174 14.1433 18.6205 13.6986 19.172 13.6986C19.7236 13.6986 20.17 14.1433 20.17 14.6927Z" fill="#E0C389"/>
</svg>
