<svg width="28" height="48" viewBox="0 0 28 48" fill="none" xmlns="http://www.w3.org/2000/svg">
<path d="M22.095 24.346L0.246015 24.3231C-0.0107933 24.2031 -0.0392444 23.8569 0.0371243 23.6115C0.216067 23.033 1.26876 23.2905 1.72173 23.2294C1.89917 18.5894 5.51845 14.7374 10.0699 14.4408C12.9846 14.2513 15.5033 14.7664 17.7165 16.7689C19.5059 18.3884 20.5698 20.7921 20.6672 23.234C21.076 23.2676 22.223 23.072 22.3742 23.5932C22.4513 23.8599 22.3795 24.252 22.095 24.346Z" fill="#E0C389"/>
<path d="M26.1732 3.59402C22.6123 3.8791 18.7055 3.35939 15.108 3.60931C14.0628 3.77592 12.8813 5.06146 12.8813 6.15134V8.71171H9.51209V5.61633C9.51209 5.43214 9.72023 4.67244 9.78986 4.4485C10.5842 1.90265 12.8761 0.237262 15.4606 0.0721756C19.0155 -0.154819 22.807 0.240319 26.3858 0.0851685C28.5189 0.319806 28.6275 3.3976 26.1732 3.59402Z" fill="#E0C389"/>
<path d="M15.2023 10.8899V14.1382C12.641 13.3326 9.81906 13.273 7.26595 14.1382C7.31087 12.9168 7.18434 11.6726 7.30114 10.4673C7.52051 9.99266 7.9031 9.67701 8.42271 9.62504C10.2353 9.4439 12.3422 9.7649 14.1871 9.63268C14.6617 9.71369 15.2023 10.4077 15.2023 10.8899Z" fill="#E0C389"/>
<path d="M5.50797 40.4313C3.40484 41.5685 1.01419 40.0522 1.89169 37.5048C2.10208 36.8934 3.52762 34.6792 4.10114 34.5577C4.19623 34.5378 4.2711 34.5378 4.36543 34.5577C4.6739 34.6234 5.6637 35.9067 5.87409 36.233C6.74335 37.5858 7.19108 39.521 5.50797 40.4313Z" fill="#E0C389"/>
<path d="M9.22533 36.8124C9.45294 36.3759 10.7295 34.6448 11.139 34.5577C11.6594 34.4476 12.4568 35.5956 12.748 36.0183C13.1014 36.5311 13.4556 37.1364 13.5948 37.7524C14.5816 42.1188 6.66997 41.7176 9.22533 36.8124Z" fill="#E0C389"/>
<path d="M20.5758 32.044C19.7193 34.5363 14.7486 33.9593 15.948 30.2998C16.1434 29.7029 17.545 27.5071 18.1006 27.3764C18.597 27.2603 18.895 27.6951 19.2087 28.0475C20.1154 29.0648 21.0587 30.64 20.5758 32.044Z" fill="#E0C389"/>
<path d="M15.9301 37.6187C16.121 36.9729 17.5675 34.6701 18.1769 34.5569C18.2728 34.5394 18.3349 34.5554 18.4248 34.5745C18.7475 34.6441 19.5336 35.6552 19.7567 35.9716C20.1116 36.4753 20.4882 37.1479 20.6327 37.7524C21.5783 41.7176 14.6602 41.9064 15.9301 37.6187Z" fill="#E0C389"/>
<path d="M15.9301 44.803C16.0184 44.5202 16.1951 44.1832 16.3396 43.9225C16.568 43.5098 17.7142 41.9125 18.1006 41.8215C18.597 41.7053 18.895 42.1402 19.2087 42.4926C19.7126 43.0581 20.3317 43.9829 20.5519 44.7136C21.8531 49.0234 14.5719 49.1365 15.9301 44.803Z" fill="#E0C389"/>
<path d="M1.75842 45.1645C1.95383 44.2328 3.00427 42.6989 3.69833 42.0623C4.35121 41.4638 4.75027 42.0386 5.20774 42.569C5.83291 43.2928 6.57189 44.469 6.65725 45.445C6.95673 48.8774 0.971518 48.9126 1.75842 45.1645Z" fill="#E0C389"/>
<path d="M2.2638 29.4775C2.48691 29.077 3.66763 27.4781 4.02702 27.3795C4.51293 27.2465 4.90376 27.7746 5.20774 28.1239C5.64723 28.6276 6.16609 29.4079 6.40343 30.0369C8.23254 34.8886 -0.641959 34.6983 2.2638 29.4775Z" fill="#E0C389"/>
<path d="M8.79632 45.1645C8.97301 44.3223 9.61017 43.3753 10.147 42.7218C10.3252 42.5048 10.8366 41.875 11.0627 41.8215C11.5591 41.7053 11.8571 42.1402 12.1708 42.4926C12.614 42.9901 13.2085 43.8553 13.4413 44.4812C15.0638 48.8446 7.94129 49.2389 8.79632 45.1645Z" fill="#E0C389"/>
<path d="M9.3017 29.4775C9.52482 29.0777 10.6995 27.462 11.0627 27.3764C11.172 27.3512 11.3083 27.3397 11.4183 27.3611C11.9267 27.4597 13.2429 29.4889 13.4413 30.0362C15.218 34.9269 6.40942 34.6632 9.3017 29.4775Z" fill="#E0C389"/>
</svg>
