<svg width="22" height="30" viewBox="0 0 22 30" fill="none" xmlns="http://www.w3.org/2000/svg">
<path d="M11 13.641C14.7984 13.641 17.8776 10.5873 17.8776 6.82048C17.8776 3.05363 14.7984 0 11 0C7.20161 0 4.12241 3.05363 4.12241 6.82048C4.12241 10.5873 7.20161 13.641 11 13.641Z" fill="white"/>
<path d="M20.1197 19.4111C17.4932 17.4437 14.2915 16.3793 11 16.3793C7.70849 16.3793 4.50676 17.4437 1.88031 19.4111C1.29551 19.8556 0.821734 20.4276 0.495668 21.0828C0.169602 21.7381 0 22.459 0 23.1896C0 23.9203 0.169602 24.6412 0.495668 25.2964C0.821734 25.9517 1.29551 26.5237 1.88031 26.9682C4.50676 28.9356 7.70849 30 11 30C14.2915 30 17.4932 28.9356 20.1197 26.9682C20.7045 26.5237 21.1783 25.9517 21.5043 25.2964C21.8304 24.6412 22 23.9203 22 23.1896C22 22.459 21.8304 21.7381 21.5043 21.0828C21.1783 20.4276 20.7045 19.8556 20.1197 19.4111Z" fill="white"/>
</svg>
