<svg width="33" height="29" viewBox="0 0 33 29" fill="none" xmlns="http://www.w3.org/2000/svg">
<path d="M24.1489 20.7961L20.9647 17.6118C21.7608 16.4539 22.2672 15.0789 22.2672 13.5592C22.2672 9.79603 19.1554 6.68416 15.3922 6.68416C11.6291 6.68416 8.51721 9.79603 8.51721 13.5592C8.51721 17.3224 11.6291 20.4342 15.3922 20.4342C16.912 20.4342 18.287 19.9276 19.4449 19.1315L22.6291 22.3158L24.1489 20.7961ZM10.6883 13.6315C10.6883 11.0263 12.787 8.92759 15.3922 8.92759C17.9975 8.92759 20.0962 11.0263 20.0962 13.6315C20.0962 16.2368 17.9975 18.3355 15.3922 18.3355C12.787 18.3355 10.6883 16.2368 10.6883 13.6315Z" fill="#5C6248"/>
</svg>
