<svg width="24" height="24" viewBox="0 0 24 24" fill="none" xmlns="http://www.w3.org/2000/svg">
<path d="M11.9706 6.99997C11.7741 6.99883 11.5793 7.03666 11.3974 7.11131C11.2155 7.18596 11.0501 7.29594 10.9106 7.43497L4.93905 13.435C4.79985 13.5748 4.68944 13.7409 4.6141 13.9236C4.53877 14.1063 4.5 14.3022 4.5 14.5C4.5 14.6978 4.53877 14.8936 4.6141 15.0763C4.68944 15.2591 4.79985 15.4251 4.93905 15.565C5.07824 15.7048 5.24349 15.8158 5.42536 15.8915C5.60722 15.9671 5.80215 16.0061 5.999 16.0061C6.19585 16.0061 6.39077 15.9671 6.57264 15.8915C6.75451 15.8158 6.91975 15.7048 7.05895 15.565L11.9706 10.6L16.8971 15.37C17.0344 15.5234 17.2018 15.6467 17.3887 15.7322C17.5756 15.8177 17.7781 15.8635 17.9835 15.8667C18.1888 15.87 18.3926 15.8307 18.5822 15.7512C18.7717 15.6717 18.9429 15.5538 19.085 15.4048C19.2271 15.2558 19.337 15.079 19.408 14.8853C19.479 14.6917 19.5094 14.4854 19.4975 14.2794C19.4855 14.0734 19.4313 13.8721 19.3384 13.6881C19.2454 13.5041 19.1157 13.3413 18.9573 13.21L12.9857 7.41997C12.7127 7.15549 12.3497 7.00533 11.9706 6.99997Z" fill="white"/>
</svg>
