<svg width="25" height="25" viewBox="0 0 25 25" fill="none" xmlns="http://www.w3.org/2000/svg">
<path d="M21.517 10.8248L11.8505 10.8225C11.0384 10.8867 10.4123 11.5008 10.3273 12.3075V22.0167C10.4019 22.7787 10.9684 23.3436 11.7013 23.5H21.6255C22.3492 23.3442 22.8427 22.848 23 22.125V12.1992C22.9105 11.4974 22.2195 10.8701 21.517 10.8248ZM19.6506 20.7729C18.7352 21.7016 16.8235 21.8597 15.6544 21.4152C12.9742 20.3959 12.6741 17.116 15.1804 15.7009C14.0876 14.4577 15.185 12.8586 16.6324 12.6839C16.8803 12.6541 17.2625 12.6301 17.4726 12.7653C17.8462 13.0059 17.8319 13.6241 17.4456 13.8406C17.1472 14.0085 16.7764 13.9168 16.4407 14.0824C15.9001 14.3488 15.8966 14.8174 16.4407 15.0856C16.7759 15.2506 17.3136 15.2563 17.6597 15.1291C17.8175 15.0707 17.9897 14.9034 18.1337 14.873C18.85 14.7223 19.2569 15.5095 18.7042 16.0022C17.996 16.6342 17.0628 16.4021 16.2547 16.6462C13.7065 17.4151 14.572 20.5924 17.4382 20.365C18.1395 20.3094 18.3662 20.0121 18.9057 19.7273C19.6236 19.3486 20.205 20.2109 19.6506 20.7729Z" fill="white"/>
<path d="M13.6778 2.89677V9.53516H11.637C11.5245 9.53516 11.047 9.66922 10.9167 9.71677C10.6952 9.79698 10.5029 9.95109 10.2831 10.0307L8.05861 4.17667C7.75214 3.63984 6.96071 3.61635 6.65137 4.16177C6.59799 4.25573 6.55839 4.39151 6.5142 4.49693C5.68718 6.46891 4.76604 8.82188 4.09686 10.8448C4.02167 11.0723 3.94936 11.2018 4.01421 11.4441C4.16687 12.0107 4.89116 12.0726 5.18902 11.5936C5.31873 11.3862 5.63151 10.2731 5.75835 10.2295L8.88792 10.2227C8.9413 10.2238 8.96253 10.2507 8.99123 10.2908C9.02911 10.3435 9.32353 11.1422 9.32123 11.1897C9.31492 11.3439 9.03829 11.8228 9.03829 12.0921V14.1758H2.40093C1.74666 14.1758 0.951785 13.2746 1.00229 12.6094L1.00975 2.9449C1.06485 2.26484 1.70477 1.58594 2.37912 1.5H12.3027C12.9002 1.57047 13.6778 2.28432 13.6778 2.89677Z" fill="white"/>
<path d="M8.4793 8.93359H6.20257L7.31999 5.96875L8.4793 8.93359Z" fill="white"/>
</svg>
