<svg width="14" height="15" viewBox="0 0 14 15" fill="none" xmlns="http://www.w3.org/2000/svg">
<path d="M13.0353 14.202C11.5137 15.954 8.6509 14.595 8.91028 12.3135L3.80176 9.37154C2.75994 10.0951 1.41061 9.9962 0.574699 9.01696C-0.962351 7.21678 0.8282 4.54967 3.06532 5.24332C3.32256 5.32301 3.66324 5.61395 3.89321 5.54389L8.86643 2.65216C8.9429 2.35159 8.92739 2.04836 9.00815 1.72426C9.48734 -0.203738 12.1293 -0.625706 13.2193 1.02526C14.4204 2.84469 12.7764 5.15454 10.6837 4.63096C10.335 4.54379 10.0874 4.33307 9.774 4.25178L4.70291 7.17934C4.66548 7.23817 4.65424 7.7901 4.80239 7.83769L9.88631 10.73C12.1609 9.11215 14.8804 12.0777 13.0353 14.202Z" fill="#212121"/>
</svg>
