<svg width="20" height="25" viewBox="0 0 20 25" fill="none" xmlns="http://www.w3.org/2000/svg">
<path d="M19.8279 3.03664C19.3995 1.45731 18.0219 0.29225 16.3872 0L3.52474 0.0147601C1.55954 0.429027 0.191957 1.907 0.0236554 3.87797C0.103271 10.4216 -0.14767 17.0086 0.150638 23.5286C0.489257 24.6228 1.60892 25.2004 2.74571 24.9367L10.1329 20.7734C12.609 22.09 14.8846 23.7815 17.4293 24.9593C18.8513 25.1433 19.8601 24.2351 19.98 22.8713C19.8762 16.2656 20.1715 9.61866 19.8279 3.03664ZM14.671 11.0907C14.671 11.5896 14.2568 11.9941 13.7458 11.9941H6.25486C5.74391 11.9941 5.3297 11.5896 5.3297 11.0907V11.0346C5.3297 11.013 5.3297 10.9904 5.3297 10.9677V10.9353C5.3297 10.5495 5.57762 10.2199 5.92632 10.091C5.97872 10.0713 6.03415 10.0556 6.0916 10.0467C6.14501 10.0369 6.19943 10.0319 6.25486 10.0319H13.7559C13.8224 10.0329 13.8879 10.0408 13.9504 10.0546C14.3626 10.1451 14.671 10.5053 14.671 10.9353V11.0907Z" fill="#8F9B87"/>
</svg>
