<svg width="35" height="19" viewBox="0 0 35 19" fill="none" xmlns="http://www.w3.org/2000/svg">
<path d="M33.8198 4.99837L17.4686 11.7105L1.18279 4.99837C1.13321 4.06467 1.96307 3.95617 2.65809 4.33642V0.723031C2.73145 0.282059 3.18356 -0.116112 3.6436 0.031211C4.79766 0.540868 5.93983 1.09432 7.12859 1.52534C10.7712 2.84627 14.7242 2.48593 17.0412 6.25062C17.184 6.48155 17.2732 6.7762 17.4091 6.99718C17.4368 7.04297 17.4051 7.13953 17.538 7.09374C17.6074 7.06985 18.0912 6.0366 18.2568 5.80367C20.4856 2.66012 23.8229 2.85821 27.059 1.82397C27.8849 1.56018 28.7673 1.17993 29.5743 0.847459C30.0314 0.659324 31.236 -0.0185606 31.6296 0.01827C31.8983 0.044151 32.3445 0.399519 32.3445 0.648375V4.33642C33.0435 3.96313 33.8624 4.04177 33.8198 4.99837Z" fill="#E0C389"/>
<path d="M34.6219 7.33165L21.138 12.906L21.2609 13.117L30.7532 18.4137L30.8632 18.6098L30.5846 19L26.1984 18.9642L17.531 14.4688L8.80417 18.9642L4.41793 19L4.13834 18.6098L4.24839 18.4137L13.939 13.0175L0.428284 7.35852C-0.399588 6.88769 0.055494 5.3408 1.08662 5.72901L17.5271 12.5108L34.1648 5.67427C35.0403 5.60558 35.2852 6.90063 34.6219 7.33165Z" fill="#E0C389"/>
</svg>
