<svg width="30" height="30" viewBox="0 0 30 30" fill="none" xmlns="http://www.w3.org/2000/svg">
<path d="M15.8851 9.98208C15.9922 10.471 15.2712 11.3025 15.1572 11.8086L17.5344 15.4066C17.5935 15.6476 17.4678 15.8797 17.2543 15.9916L8.79751 16.0493C7.93646 16.2203 7.37135 16.9248 7.31641 17.7941C8.42947 21.653 9.64072 25.5154 10.9934 29.2913C12.1435 30.6921 14.3408 29.8846 14.1843 28.0217L11.7233 20.1788C11.6574 19.7078 11.9479 19.5807 12.3592 19.5423C15.4058 19.2594 18.8892 19.7641 21.9784 19.5485C24.175 19.3946 25.4048 17.2118 24.4256 15.2411L18.6049 6.50421C18.0267 5.78941 17.2659 5.31494 16.3218 5.27992C13.5127 5.17486 13.1797 8.46047 11.9733 10.2293C11.632 10.7292 11.3862 10.6275 11.0257 10.2389C10.1633 9.30848 9.47386 7.91253 8.61761 6.9471C8.13078 6.39778 7.55537 6.14235 6.8543 6.55296C6.1189 6.98418 6.10929 7.76833 6.50342 8.44331C7.39538 9.96835 9.09758 12.0681 10.212 13.5245C10.9247 14.4563 11.4651 15.3043 12.7396 14.3601L15.0426 9.86604C15.2664 9.55361 15.7979 9.58726 15.8851 9.98208Z" fill="white"/>
<path d="M15.9668 21.2273V29.9821H24.7559V21.09C24.7559 21.046 24.5458 20.7302 24.4799 20.6794C24.357 20.5853 24.1221 20.5235 23.9669 20.5063C21.7491 20.2585 19.0883 20.6938 16.8224 20.5036C16.4742 20.4301 15.9668 20.9266 15.9668 21.2273Z" fill="white"/>
<path d="M6.14774 5.78255L6.23975 5.8052C7.4201 4.98123 8.94995 5.45501 9.59196 6.6951C12.6702 5.90957 12.9442 1.5116 9.99159 0.285931C6.57209 -1.13406 3.70121 3.05655 6.14774 5.78255Z" fill="white"/>
</svg>
