<svg width="39" height="39" viewBox="0 0 39 39" fill="none" xmlns="http://www.w3.org/2000/svg">
<path d="M31.1358 0.445777C31.1358 0.445777 31.1276 0.443426 31.1229 0.442251C30.6309 0.314132 30.1283 0.225977 29.6211 0.183663C26.0515 -0.118414 22.263 0.0144057 18.4814 0.142524H10.3571C9.97405 0.142524 9.59683 0.163681 9.22429 0.20482C8.99234 0.229503 8.7639 0.262415 8.53663 0.302378C8.53195 0.303554 8.52843 0.303554 8.52375 0.304729C3.67847 1.17335 0 5.42241 0 10.5342V28.6071C0 33.3369 3.14779 37.3286 7.45769 38.5863C8.06335 38.7637 8.69127 38.8872 9.33793 38.9495C9.67297 38.9835 10.0127 39 10.3571 39H28.6429C30.0697 39 31.4298 38.7109 32.6669 38.1866C32.6693 38.1866 32.6716 38.1843 32.6751 38.1831C36.3923 36.6057 39 32.9114 39 28.6071V10.5342C39 5.65749 35.6519 1.56476 31.1358 0.445777ZM29.4899 20.9435C29.3446 21.1222 28.6183 21.6782 28.4648 21.6782H21.7873L21.6116 21.8545V28.4367C21.6116 28.6447 21.1418 29.3641 20.9497 29.5357C20.1777 30.2221 18.8984 30.2868 18.1042 29.605C17.9589 29.4805 17.3943 28.6636 17.3943 28.5542V21.8545L17.2185 21.6782H10.541C10.4321 21.6782 9.61792 21.1116 9.49374 20.9659C8.80256 20.1548 8.86582 18.8995 9.56285 18.1108C9.6882 17.971 10.4333 17.4467 10.541 17.4467H17.3943V10.5707C17.3943 10.4167 17.9484 9.68793 18.1264 9.54218C18.8457 8.94978 19.9704 8.91922 20.7342 9.45285C20.9989 9.63856 21.6116 10.3838 21.6116 10.6882V17.4467H28.3477C28.6511 17.4467 29.3938 18.0615 29.5789 18.3271C30.1108 19.0935 30.0803 20.2218 29.4899 20.9435Z" fill="#5C6248" fill-opacity="0.1"/>
<path d="M29.4899 20.9435C29.3446 21.1222 28.6183 21.6782 28.4648 21.6782H21.7873L21.6116 21.8545V28.4367C21.6116 28.6447 21.1418 29.3641 20.9497 29.5357C20.1777 30.2221 18.8984 30.2868 18.1042 29.605C17.9589 29.4805 17.3943 28.6636 17.3943 28.5542V21.8545L17.2185 21.6782H10.541C10.4321 21.6782 9.61792 21.1116 9.49374 20.9659C8.80256 20.1548 8.86582 18.8995 9.56285 18.1108C9.6882 17.971 10.4333 17.4467 10.541 17.4467H17.3943V10.5707C17.3943 10.4167 17.9484 9.68793 18.1264 9.54218C18.8457 8.94978 19.9704 8.91922 20.7342 9.45285C20.9989 9.63856 21.6116 10.3838 21.6116 10.6882V17.4467H28.3477C28.6511 17.4467 29.3938 18.0615 29.5789 18.3271C30.1108 19.0935 30.0803 20.2218 29.4899 20.9435Z" fill="#8F9B87"/>
</svg>
