<svg width="30" height="30" viewBox="0 0 30 30" fill="none" xmlns="http://www.w3.org/2000/svg">
<path d="M26.4852 27.9783C26.2114 29.8942 23.3825 30.873 22.8211 28.9794C22.8278 24.7559 23.3546 21.6162 21.6158 17.6366C21.5552 17.4976 21.489 17.1732 21.3119 17.1703V29.5703C21.3119 29.7402 21.1648 29.8779 20.9833 29.8779H9.13121C8.97135 29.8779 8.84227 29.7562 8.84293 29.6068C8.863 25.8716 8.88552 22.1372 8.8708 18.4074C9.27523 17.2422 13.0045 13.2055 13.0252 12.3811C13.0301 12.1897 12.8638 11.9608 12.9191 11.7411C13.9168 11.8555 14.7831 12.3172 15.8172 12.3272C17.2398 12.341 18.1151 11.6326 19.6298 11.7555C26.6087 12.3216 26.5606 27.4522 26.4852 27.9783Z" fill="white"/>
<path d="M17.3624 2.3251C13.1084 1.20022 9.47098 5.02997 11.0751 8.84783C11.2343 8.95675 13.0979 8.19535 13.7859 8.90647C14.5537 9.70021 13.789 10.8366 12.6716 10.702C15.4899 13.0171 19.9749 11.5416 20.881 8.16009C21.5471 5.67348 20.0307 3.03059 17.3624 2.3251ZM19.4684 8.57094C18.073 8.60621 17.0024 9.10449 15.9215 9.87528L15.5182 9.58858C16.3674 8.44053 18.1403 7.93223 19.5843 8.04428L19.4684 8.57094Z" fill="white"/>
<path d="M10.9438 10.8149C11.531 10.9674 12.6952 11.9308 12.4571 12.5119C10.8657 14.6887 9.2788 16.8696 7.73154 19.0739C6.9617 20.1708 6.68057 21.5375 4.86132 21.1866C4.44931 21.1071 3.73766 20.5372 3.60456 20.1687C3.22979 19.1302 3.94411 18.248 4.47361 17.4111C5.39728 15.9511 9.00858 10.6411 10.2107 9.84168C11.0011 9.31607 14.0985 8.26087 13.42 10.0731C12.5931 10.1991 11.5239 10.1851 10.9438 10.8149Z" fill="white"/>
<path d="M9.42624 4.11947C8.95561 4.23604 8.58849 3.47426 8.56748 3.1257C8.52236 2.37407 9.82055 1.63491 8.79399 0.98593L8.05575 1.13846L8.22447 1.93243L7.30328 2.10816L6.93339 0.975201C7.67133 0.145565 9.72197 -0.642025 10.1991 0.801212C10.5585 1.88777 9.84774 2.12556 9.76431 2.83253C9.69911 3.38147 10.2334 3.9188 9.42624 4.11947Z" fill="white"/>
<path d="M6.33241 4.26788C6.26717 4.81849 6.80175 5.35803 5.99417 5.55913C5.52359 5.67641 5.15567 4.9119 5.13495 4.5621C5.09167 3.83398 6.93748 2.08438 4.62264 2.56718L4.79176 3.36428L3.87009 3.54092L3.5 2.40392C4.57595 1.12781 7.16813 0.949125 6.83761 3.11196C6.77238 3.53801 6.37972 3.86512 6.33241 4.26788Z" fill="white"/>
<path d="M10.6789 4.92425C10.6789 5.24701 10.3894 5.50864 10.0325 5.50864C9.67565 5.50864 9.38581 5.24701 9.38581 4.92425C9.38581 4.60148 9.67533 4.34014 10.0325 4.34014C10.3897 4.34014 10.6789 4.60177 10.6789 4.92425Z" fill="white"/>
<path d="M6.61012 6.96926C6.96104 6.96926 7.24552 6.70301 7.24552 6.37458C7.24552 6.04615 6.96104 5.7799 6.61012 5.7799C6.25919 5.7799 5.97472 6.04615 5.97472 6.37458C5.97472 6.70301 6.25919 6.96926 6.61012 6.96926Z" fill="white"/>
</svg>
