<svg width="30" height="30" viewBox="0 0 30 30" fill="none" xmlns="http://www.w3.org/2000/svg">
<path d="M19.9041 25.6683C19.2101 27.2073 18.1001 27.307 16.5833 27.3878C11.8243 27.641 6.83665 27.1979 2.05417 27.3726C-0.131934 26.9143 -0.768425 24.1081 1.10471 22.8105C1.77285 22.3487 2.67191 22.5268 2.96495 22.3346C3.25917 22.1424 3.48071 21.1249 3.9191 20.7029C4.52629 20.118 5.40777 20.0055 6.20719 19.9422C6.73467 18.4277 7.82127 17.2919 9.53851 17.7783C10.7576 18.1241 10.8431 18.8978 11.5629 19.7499C11.9215 19.8472 12.1372 19.5014 12.4525 19.3889C13.6552 18.9552 14.9282 19.2377 15.6069 20.3841C15.8683 20.8272 15.9409 21.8212 16.0781 21.963C16.4086 22.2994 17.0053 21.9149 17.3979 21.8739C19.638 21.6383 20.7808 23.7224 19.9041 25.6683Z" fill="white"/>
<path d="M30 22.3428C27.6978 24.3285 24.3056 24.9462 21.3247 24.5711C21.3224 22.0533 19.3578 20.4837 16.8845 20.8049C16.4461 18.8767 14.4476 17.7479 12.5405 18.2367C9.81046 12.5704 11.8266 5.38142 17.5152 2.53186L16.2539 5.256C14.0901 11.4814 16.9959 18.4664 22.9705 21.2245C23.7969 21.6067 25.922 22.3428 26.7765 22.3428H30Z" fill="white"/>
</svg>
