<svg width="35" height="31" viewBox="0 0 35 31" fill="none" xmlns="http://www.w3.org/2000/svg">
<path d="M22.3241 27.6734L10.7774 27.6973C10.2514 27.5383 10.243 26.683 10.3464 26.2496C10.4539 25.7955 10.7753 25.7518 11.1573 25.6573C12.8148 25.2447 14.612 25.122 16.2726 24.6824C17.0199 24.3852 17.1065 23.5289 16.3133 23.2743L7.22878 23.2192C6.29153 22.4948 5.85212 21.0752 5.77802 19.9175C5.65173 17.9388 5.97006 15.3688 6.2623 13.3932C6.48879 11.8707 7.05344 8.00053 8.12429 7.00078C8.47185 6.6755 10.2117 5.7329 10.6094 5.96673C10.6397 5.9844 10.9308 6.44063 11.0175 6.53208C11.8024 7.35828 12.7511 7.98598 13.7061 8.60121L16.5252 16.2958L19.9152 17.9762L19.2952 19.798L15.5096 18.8627C14.2582 17.6863 13.4493 16.0287 12.342 14.7036C11.7105 14.2318 10.9924 14.8658 11.3108 15.5756C12.4641 17.0128 13.3304 18.8294 14.7404 20.0173C16.9437 20.6356 19.196 21.0867 21.3273 21.9378C22.0496 22.2267 23.0734 22.4803 23.2467 23.294C23.5243 24.5993 23.5389 26.8191 22.3241 27.6734Z" fill="white"/>
<path d="M35 31H0L2.85143 24.6211H4.92112C4.41075 25.2675 3.5382 25.8807 3.43696 26.7599C3.20317 28.7802 5.1497 29.834 6.75598 28.5869C7.27888 28.1805 7.47093 27.5674 8.24223 27.5705C8.51256 27.5705 8.77661 27.6734 9.05007 27.6671C9.36631 28.591 10.1053 29.0504 11.0561 29.1314C14.5598 28.962 18.2828 29.3611 21.7615 29.1366C24.329 28.9714 24.6818 26.7578 24.7653 24.6201L32.6871 24.6159L35 31Z" fill="white"/>
<path d="M17.2652 1.63413V3.30626H11.2502V1.63413C11.2502 1.11555 12.0153 0.338189 12.5006 0.156321C13.0099 -0.0338601 14.9022 -0.0182687 15.5107 0.0357719C16.14 0.091891 16.7631 0.512784 17.0449 1.07501C17.0815 1.14776 17.2652 1.60399 17.2652 1.63413Z" fill="white"/>
<path d="M17.0314 4.70613C16.6598 5.68094 15.8948 7.95168 14.4743 7.44661C14.0787 7.30527 12.893 6.41672 12.5413 6.10495C12.0883 5.7038 11.6781 5.25069 11.4057 4.70613H17.0314Z" fill="white"/>
<path d="M9.30995 25.2177C9.13774 25.5398 8.95092 25.8734 8.98327 26.2538C8.08672 26.1821 7.42605 26.1426 6.68083 26.7235C6.15167 27.1361 5.88239 27.9218 5.05159 27.7202C4.59444 27.2712 4.73221 26.9033 5.07977 26.4512C5.55466 25.8329 6.27274 25.253 6.75807 24.6211H9.92157L9.30995 25.2177Z" fill="white"/>
<path d="M22.5777 20.9651L20.6291 20.2605L21.1687 18.5863C22.3042 18.6819 22.8449 19.9373 22.5777 20.9651Z" fill="white"/>
</svg>
