<svg width="26" height="22" viewBox="0 0 26 22" fill="none" xmlns="http://www.w3.org/2000/svg">
<path d="M4.50978 18.8457C4.50978 18.8457 4.47633 18.819 4.41136 18.7673C4.37893 18.7414 4.33874 18.7091 4.2909 18.6709C4.24398 18.6314 4.18974 18.5856 4.1282 18.5338C4.06643 18.4824 4.00055 18.4214 3.92633 18.3563C3.85223 18.291 3.77493 18.2159 3.68941 18.1369C3.5226 17.9743 3.33181 17.7865 3.13074 17.5641C2.72747 17.1212 2.26722 16.5544 1.81508 15.8532C1.3643 15.1525 0.915242 14.3191 0.565288 13.3541C0.47897 13.1127 0.396191 12.8642 0.325744 12.6068C0.287951 12.4788 0.257694 12.3476 0.224126 12.2159C0.195581 12.0831 0.163497 11.9497 0.139977 11.8134C0.112688 11.6778 0.0932781 11.5396 0.0716985 11.4007C0.0550286 11.2612 0.0361894 11.1206 0.0261417 10.978C0.00342041 10.6933 -0.0077691 10.4028 0.00604639 10.1086C0.0316222 9.52134 0.135067 8.91673 0.35817 8.33701C0.469836 8.04771 0.610274 7.76544 0.779828 7.49742C0.949153 7.22929 1.14771 6.97577 1.37115 6.74205C1.5946 6.50833 1.84236 6.29351 2.11114 6.10393C2.37923 5.91344 2.66513 5.74469 2.9629 5.59495C3.26182 5.44736 3.57341 5.32218 3.89117 5.21058C4.05159 5.15942 4.21143 5.10442 4.37516 5.06163L4.55865 5.01036L4.62042 4.99531C4.70286 4.9755 4.78541 4.95569 4.86796 4.93589C4.95028 4.91461 5.0342 4.90046 5.11743 4.88281L5.3209 4.84161C5.32798 4.84014 5.33186 4.83968 5.33757 4.83878L5.36897 4.83357C5.53704 4.80663 5.70305 4.77709 5.87009 4.74495C6.20383 4.68111 6.53632 4.60608 6.868 4.5247C7.53126 4.36104 8.18995 4.16795 8.8435 3.95879C10.1505 3.53967 11.4372 3.05899 12.7065 2.59211C13.9756 2.12479 15.2283 1.66945 16.4658 1.29935C17.0851 1.11667 17.7001 0.954484 18.3108 0.830776C18.9209 0.706502 19.5271 0.619012 20.1224 0.594905C20.7168 0.569325 21.3018 0.607355 21.8499 0.736722C21.9872 0.767847 22.1209 0.808253 22.2525 0.850583C22.3834 0.895629 22.5117 0.944071 22.6356 1.0001C22.7592 1.05623 22.8799 1.11622 22.9948 1.18379C23.1107 1.24955 23.2205 1.32289 23.3265 1.39872C23.5367 1.55299 23.7285 1.72299 23.8963 1.90657C24.0644 2.09004 24.2116 2.28358 24.3404 2.48108C24.5978 2.87677 24.7836 3.28524 24.9266 3.67776C25.2096 4.46562 25.3323 5.18659 25.4101 5.77796C25.4488 6.07427 25.4728 6.33991 25.4904 6.57114C25.499 6.68681 25.5068 6.79377 25.5117 6.8919C25.5175 6.99003 25.5221 7.0791 25.5248 7.15901C25.5318 7.31871 25.5348 7.44128 25.5366 7.52379C25.5387 7.6063 25.5397 7.64897 25.5397 7.64897L25.526 7.64931C25.526 7.64931 25.524 7.60676 25.5203 7.52436C25.5167 7.44196 25.5113 7.31961 25.5009 7.16025C25.4966 7.08057 25.4898 6.99161 25.4824 6.89382C25.4759 6.79592 25.4663 6.6893 25.4558 6.57397C25.4343 6.34353 25.406 6.07891 25.3625 5.7843C25.3194 5.48969 25.2626 5.16474 25.1824 4.81535C25.1033 4.46573 24.9978 4.09189 24.8531 3.70435C24.7072 3.31772 24.5189 2.91717 24.2618 2.53213C24.1331 2.33994 23.9869 2.1524 23.821 1.97539C23.6551 1.79848 23.4682 1.6338 23.2628 1.48553C22.8507 1.19036 22.3584 0.971801 21.8226 0.851715C21.2871 0.729252 20.7136 0.69541 20.1284 0.724611C19.8355 0.738306 19.5392 0.768413 19.2406 0.809498C18.9419 0.849791 18.6412 0.902986 18.3387 0.965123C17.7336 1.08906 17.1225 1.25125 16.5065 1.43426C15.2738 1.79939 14.0221 2.25132 12.7509 2.71163C11.4796 3.1724 10.1892 3.64765 8.87673 4.06178C8.22078 4.26902 7.55912 4.46041 6.89221 4.62226C6.5587 4.70273 6.22427 4.77698 5.88836 4.83991C5.72075 4.8716 5.55165 4.90091 5.38427 4.92717L5.35287 4.93227C5.34807 4.93306 5.34134 4.93396 5.33814 4.93476L5.32261 4.93781L5.13627 4.97482C5.05372 4.99203 4.97037 5.00572 4.88874 5.02655C4.80676 5.0459 4.72489 5.06525 4.64314 5.0845L4.58183 5.09921L4.39994 5.14935C4.23747 5.19111 4.07922 5.2451 3.92017 5.29501C3.60538 5.40423 3.29687 5.52692 3.00115 5.67157C2.41291 5.96449 1.86817 6.33448 1.42824 6.79603C1.20742 7.02523 1.01127 7.27389 0.843539 7.53715C0.675698 7.8003 0.536401 8.07771 0.425306 8.36236C0.203345 8.93291 0.0986444 9.52972 0.0701 10.1112C0.0549144 10.4025 0.0646194 10.6906 0.0857423 10.9731C0.0949907 11.1146 0.113031 11.2543 0.128902 11.3929C0.149682 11.531 0.168293 11.6683 0.194668 11.8032C0.217389 11.9388 0.24856 12.0716 0.276305 12.2036C0.309074 12.3347 0.338417 12.4654 0.375411 12.593C0.444146 12.8493 0.525326 13.0972 0.610046 13.338C0.95372 14.3006 1.39719 15.1337 1.84328 15.8349C2.29074 16.5365 2.74722 17.1044 3.14753 17.5484C3.347 17.7714 3.53664 17.96 3.70232 18.1229C3.78726 18.2023 3.86411 18.2777 3.93775 18.3432C4.01151 18.4086 4.07693 18.4699 4.13836 18.5215C4.19945 18.5734 4.25334 18.6194 4.29992 18.659C4.34753 18.6975 4.38761 18.7298 4.41981 18.756C4.48443 18.808 4.51777 18.8349 4.51777 18.8349L4.50921 18.8454L4.50978 18.8457Z" fill="#5C6248"/>
<path d="M18.8295 19.6656C18.58 19.7418 18.3311 19.8162 18.0829 19.8886C17.1234 20.1683 16.1734 20.4175 15.239 20.6165C13.1923 21.0518 11.2209 21.2462 9.38939 20.9922C8.6679 20.8921 7.96822 20.7225 7.29423 20.4707C6.8825 20.3169 6.48037 20.1324 6.08874 19.9144C4.55819 19.0624 3.18772 17.6978 2.03099 15.6492C1.59894 14.7379 1.31304 13.9018 1.15079 13.1346C-0.120919 7.12471 6.19059 5.33214 9.29873 4.73193C11.2013 4.27174 12.4713 3.78437 14.1013 2.39008C16.6088 -0.0328029 19.6347 -1.38431 23.0869 2.16508C28.8267 8.72103 25.385 17.0303 18.8295 19.6656Z" fill="#8F9B87"/>
<path d="M9.38939 20.9921C6.50526 20.592 3.96824 19.0805 2.03099 15.6491C1.59894 14.7378 1.31292 13.9018 1.15068 13.1346C3.51038 17.6047 6.29734 19.6872 9.38939 20.9922L9.38939 20.9921Z" fill="#5C6248"/>
<path d="M22.6148 21.0298L18.0065 21.7921L16.8855 22C15.4453 21.6883 13.8871 21.4383 12.0691 18.9809C10.9742 17.5499 9.9452 16.5221 9.02208 15.7385C6.89952 13.936 5.3338 13.422 4.79739 12.264C4.46685 11.4359 4.67089 10.5789 5.78903 11.4214L13.5738 7.03066L13.6274 6.88115C13.6752 6.75948 13.7375 6.6747 13.8045 6.61856C13.9599 6.48795 14.1412 6.509 14.2319 6.57227C14.5615 7.09653 14.9237 7.58616 15.2943 8.04058C16.6769 9.73548 18.178 10.9422 18.5383 11.6555C19.3883 13.2316 20.0965 15.5405 20.427 17.3427C20.6873 18.1674 21.9746 20.0722 22.6149 21.0299L22.6148 21.0298Z" fill="#F9BBAC"/>
<path d="M23.4018 21.9999H17.5781C18.1476 17.8901 16.5314 15.5405 17.3422 12.3576C17.8393 10.6603 13.5094 7.95762 14.021 6.72507C14.1918 6.61506 14.1412 6.509 14.2319 6.57216C14.5615 7.09642 14.9237 7.58604 15.2943 8.04047C16.2403 8.69093 18.178 10.9421 18.5383 11.6554C19.3883 13.2315 20.0965 15.5404 20.427 17.3426C20.6873 18.1673 22.7615 21.0423 23.4018 21.9999Z" fill="#F9BBAC"/>
<path d="M15.2942 8.04047C14.8853 7.94121 14.406 7.54337 13.8044 6.61845C13.9598 6.48784 14.1411 6.50889 14.2318 6.57216C14.5614 7.09642 14.9236 7.58604 15.2942 8.04047Z" fill="#FAD4CC"/>
<path d="M18.0065 21.7921L17.5781 21.9999H16.8855C15.4453 21.6882 13.8871 21.4382 12.0691 18.9808C10.9742 17.5498 9.9452 16.522 9.02208 15.7384L13.8044 11.6709C14.2648 15.1201 14.3706 15.9131 14.4301 16.3596C14.2388 17.0004 13.0962 17.1385 11.7386 17.1633C12.6358 18.8483 16.0781 22.3673 17.6756 20.7291L18.0065 21.7921Z" fill="#F9BBAC"/>
<path d="M13.4228 7.28136C13.6344 9.17818 14.6161 10.1438 15.2663 10.8911C14.7004 11.3987 15.0623 12.8746 15.9649 15.34C16.1514 15.8596 16.1931 17.0876 15.9412 17.495C15.4431 18.4891 14.6821 16.8978 14.6034 16.1332C14.3474 16.8353 12.6119 19.2551 10.1 16.4765C9.71285 16.0482 13.5444 13.9511 13.5032 12.9294L13.4228 7.28125V7.28136Z" fill="#FBAC99"/>
<path d="M17.0585 12.5152L16.9803 12.5035L16.9023 12.49L16.8246 12.4746L16.7474 12.4573L16.6707 12.438C16.6454 12.4309 16.6198 12.4241 16.5946 12.4167C16.5694 12.4087 16.544 12.4015 16.519 12.3931C16.4941 12.3845 16.4689 12.3766 16.4442 12.3673C16.3946 12.3492 16.3454 12.33 16.2971 12.3087C16.273 12.2979 16.2487 12.2876 16.2252 12.2757C16.2014 12.2643 16.1776 12.2529 16.1544 12.2403L16.1194 12.2219L16.0849 12.2024L16.0505 12.1828L16.0168 12.162C16.0056 12.155 15.9942 12.1483 15.9833 12.1411L15.9504 12.1191C15.9282 12.1048 15.907 12.0891 15.8856 12.0737C15.8429 12.0428 15.8017 12.0099 15.7615 11.9757C15.7214 11.9415 15.6827 11.9056 15.6453 11.8685C15.6263 11.8502 15.6088 11.8306 15.5904 11.8117C15.5722 11.7927 15.5552 11.7724 15.5376 11.7528C15.5202 11.7331 15.5039 11.7123 15.487 11.6922C15.4703 11.6719 15.4548 11.6505 15.4387 11.6297C15.4073 11.5874 15.3772 11.5442 15.3488 11.5C15.334 11.4783 15.3208 11.4555 15.307 11.4331C15.2931 11.4108 15.2801 11.3878 15.2674 11.365L15.2481 11.3306L15.2298 11.2956C15.2177 11.2723 15.2052 11.2491 15.1942 11.2253C15.183 11.2015 15.171 11.1781 15.1605 11.1541L15.1286 11.082L15.1302 11.0846C15.0689 11.0091 15.0072 10.9339 14.9474 10.8571L14.9022 10.7998L14.8578 10.742C14.8283 10.7033 14.7984 10.6649 14.7694 10.6259L14.6824 10.5087C14.6535 10.4697 14.6255 10.4299 14.5969 10.3905L14.5543 10.3312L14.5126 10.2713C14.485 10.2312 14.4566 10.1918 14.4296 10.1513L14.3481 10.0303L14.2685 9.90797C14.2417 9.86734 14.2165 9.8258 14.1907 9.78461L14.1521 9.72269C14.1392 9.7021 14.1271 9.68093 14.1145 9.6601C14.0898 9.61811 14.0643 9.5768 14.0404 9.53436L13.9687 9.40714L13.9003 9.27812C13.8777 9.23499 13.8569 9.19097 13.8351 9.14739L13.8189 9.11468L13.774 9.01474C13.7533 8.9706 13.7365 8.92487 13.7179 8.87971L13.7042 8.84576C13.6996 8.83444 13.6959 8.82278 13.6918 8.81135L13.6676 8.74231C13.6636 8.73054 13.6595 8.71979 13.6556 8.70723L13.6456 8.67225L13.6257 8.60231C13.6189 8.5791 13.613 8.55545 13.6073 8.53168L13.5899 8.4606C13.5837 8.43695 13.579 8.41307 13.5741 8.3893L13.5592 8.31788C13.5497 8.27023 13.5423 8.22201 13.5337 8.17425C13.5267 8.12615 13.5201 8.07793 13.5139 8.02972L13.5066 7.95717C13.5042 7.93295 13.5014 7.90884 13.5002 7.88451C13.4976 7.83595 13.4936 7.78751 13.4933 7.73884L13.4917 7.66595L13.4928 7.59306C13.4927 7.54439 13.497 7.49595 13.4993 7.4474C13.501 7.42318 13.5039 7.39895 13.5062 7.37485C13.5085 7.35063 13.5107 7.32641 13.5148 7.30241L13.5257 7.23031L13.54 7.15878C13.5606 7.06382 13.5874 6.97 13.6251 6.88047L13.6283 6.88171C13.5931 6.97203 13.569 7.06609 13.551 7.16093L13.5388 7.23235L13.53 7.30422C13.5287 7.31622 13.5268 7.3281 13.5259 7.34021L13.523 7.37632C13.5211 7.40043 13.5187 7.42442 13.5175 7.44853C13.516 7.49674 13.5126 7.54496 13.5136 7.59329V7.66572L13.5167 7.73805C13.5204 7.83448 13.5302 7.93068 13.5412 8.02655C13.5478 8.07431 13.5549 8.12207 13.5623 8.16984C13.5714 8.21726 13.5791 8.26491 13.5891 8.31211L13.6046 8.38285C13.6098 8.40639 13.6146 8.43004 13.621 8.45336L13.639 8.52342C13.6448 8.54673 13.6508 8.57005 13.6579 8.59336L13.6784 8.6632L13.6885 8.69817C13.6918 8.7087 13.6963 8.72069 13.7002 8.73179L13.7243 8.79992C13.7284 8.81124 13.732 8.82267 13.7366 8.83388L13.7502 8.86738C13.7853 8.95724 13.8254 9.04519 13.8669 9.13256C13.8883 9.17591 13.9088 9.21971 13.931 9.26272L13.9984 9.3913L14.069 9.51829C14.0924 9.56073 14.1176 9.60215 14.1418 9.64403C14.1541 9.66486 14.166 9.68602 14.1787 9.70662L14.2167 9.76865C14.2422 9.80996 14.2671 9.8515 14.2934 9.89224L14.3719 10.0148L14.4524 10.1361C14.4789 10.1768 14.5071 10.2163 14.5343 10.2565L14.5756 10.3164L14.6177 10.3759C14.6459 10.4154 14.6736 10.4552 14.7023 10.4944L14.7884 10.6117C14.8172 10.6509 14.8468 10.6893 14.876 10.7281L14.9199 10.7862L14.9647 10.8436C15.0239 10.9206 15.0851 10.9961 15.1459 11.0718L15.1468 11.073L15.1474 11.0743L15.1786 11.1461C15.1889 11.1701 15.2007 11.1934 15.2118 11.217C15.2226 11.2408 15.2348 11.2638 15.2467 11.2871L15.2646 11.3218L15.2836 11.356C15.2961 11.3789 15.3088 11.4017 15.3225 11.4239C15.336 11.4462 15.349 11.4689 15.3635 11.4906C15.3915 11.5347 15.4212 11.5776 15.452 11.6197C15.4679 11.6404 15.483 11.6617 15.4996 11.682C15.5163 11.7021 15.5321 11.7228 15.5493 11.7425C15.5666 11.7621 15.5833 11.7823 15.6012 11.8013C15.6193 11.8202 15.6366 11.8398 15.6553 11.8581C15.6922 11.8952 15.7304 11.9311 15.7699 11.9654C15.8095 11.9997 15.8502 12.0326 15.8924 12.0636C15.9135 12.0791 15.9345 12.0949 15.9564 12.1093L15.989 12.1313C15.9998 12.1387 16.0111 12.1454 16.0222 12.1524L16.0555 12.1733L16.0896 12.1931L16.1237 12.2128L16.1584 12.2314C16.1814 12.2441 16.205 12.2556 16.2286 12.2671C16.252 12.2791 16.2761 12.2895 16.3 12.3004C16.3479 12.3219 16.3967 12.3415 16.446 12.3599C16.4706 12.3693 16.4956 12.3774 16.5205 12.3862C16.5454 12.3947 16.5706 12.4022 16.5956 12.4102C16.6208 12.4178 16.6462 12.4248 16.6714 12.432L16.7479 12.4519L16.8249 12.4696L16.9023 12.4856L16.98 12.4996L17.0581 12.512L17.0576 12.5153L17.0585 12.5152Z" fill="#DD796C"/>
<path d="M15.7035 15.5412C15.7035 15.5412 15.6723 15.4734 15.6179 15.3549C15.5903 15.2958 15.5586 15.2231 15.5214 15.1402C15.4838 15.0573 15.4442 14.9628 15.3997 14.8601C15.3777 14.8088 15.3557 14.7548 15.3326 14.6991C15.321 14.6712 15.3093 14.6428 15.2974 14.6141C15.2859 14.5851 15.2742 14.5558 15.2623 14.526C15.2387 14.4665 15.2139 14.4055 15.1904 14.3423C15.1784 14.3109 15.1664 14.2791 15.1542 14.2469C15.1482 14.2308 15.142 14.2148 15.1358 14.1985C15.1299 14.1822 15.1241 14.1658 15.1181 14.1494C15.0702 14.018 15.0225 13.8816 14.9775 13.7417C14.9663 13.7067 14.955 13.6716 14.9437 13.6364C14.9327 13.6011 14.9223 13.5654 14.9116 13.5299C14.9012 13.4943 14.8898 13.4587 14.8802 13.4227C14.8704 13.3867 14.8604 13.3507 14.8505 13.3149C14.8402 13.279 14.8314 13.2427 14.8223 13.2065C14.8134 13.1703 14.8038 13.1343 14.7955 13.0981C14.7795 13.0255 14.7621 12.9535 14.749 12.881C14.7455 12.863 14.7419 12.8449 14.7385 12.8271L14.7332 12.8001L14.7288 12.7731C14.723 12.7371 14.7171 12.7013 14.7113 12.6657C14.7061 12.63 14.702 12.5943 14.6973 12.559C14.6951 12.5414 14.6925 12.5238 14.6908 12.5062C14.6892 12.4885 14.6876 12.471 14.686 12.4536C14.6736 12.3139 14.6685 12.1778 14.6769 12.0491C14.6845 11.9205 14.7024 11.7994 14.7304 11.6901C14.7576 11.5806 14.7988 11.4845 14.8431 11.4044C14.8486 11.3943 14.854 11.3844 14.8593 11.3747C14.8649 11.3651 14.8713 11.3563 14.877 11.3472C14.889 11.3294 14.8996 11.3117 14.9115 11.2958C14.9364 11.2648 14.9578 11.2354 14.9815 11.2122C14.9928 11.2002 15.0034 11.1889 15.0134 11.1782C15.0244 11.1685 15.0346 11.1593 15.0441 11.1507C15.0536 11.1422 15.0624 11.1343 15.0705 11.1271C15.0789 11.1202 15.087 11.1145 15.0939 11.1092C15.1221 11.0881 15.1372 11.0769 15.1372 11.0769L15.1393 11.0796C15.1393 11.0796 15.1249 11.0915 15.0978 11.1138C15.0912 11.1195 15.0834 11.1254 15.0754 11.1326C15.0677 11.1401 15.0593 11.1482 15.0502 11.1571C15.0411 11.1659 15.0314 11.1753 15.021 11.1853C15.0115 11.1962 15.0013 11.2079 14.9906 11.2201C14.9682 11.2437 14.9481 11.2737 14.9248 11.305C14.9135 11.3209 14.9036 11.3387 14.8923 11.3565C14.8868 11.3655 14.8809 11.3744 14.8756 11.384C14.8707 11.3937 14.8656 11.4036 14.8604 11.4136C14.8188 11.4934 14.782 11.589 14.7569 11.6968C14.7311 11.8046 14.7153 11.924 14.7098 12.051C14.7091 12.0828 14.7073 12.1149 14.7074 12.1475C14.7078 12.1801 14.7081 12.2132 14.7083 12.2465C14.7114 12.3133 14.7142 12.3815 14.7215 12.4506C14.723 12.4679 14.7244 12.4852 14.7259 12.5028C14.7274 12.5202 14.73 12.5376 14.732 12.5552C14.7364 12.5902 14.7402 12.6256 14.7452 12.661C14.7507 12.6964 14.7562 12.732 14.7617 12.7677L14.7658 12.7946L14.7707 12.8214C14.774 12.8393 14.7773 12.8573 14.7806 12.8752C14.793 12.9473 14.8094 13.0191 14.8246 13.0916C14.8326 13.1277 14.8416 13.1637 14.8502 13.1999C14.8588 13.236 14.8672 13.2722 14.877 13.3081C14.8866 13.3441 14.8961 13.3799 14.9056 13.4158C14.9149 13.4518 14.926 13.4872 14.936 13.5229C14.9464 13.5584 14.9563 13.5941 14.9671 13.6294C14.978 13.6646 14.989 13.6998 14.9998 13.7348C15.0435 13.8747 15.0899 14.0113 15.1366 14.1429C15.1425 14.1594 15.1482 14.1757 15.1539 14.1921C15.1598 14.2083 15.1659 14.2245 15.1718 14.2406C15.1837 14.2727 15.1954 14.3046 15.2071 14.3361C15.23 14.3993 15.2542 14.4605 15.2771 14.5203C15.2886 14.5501 15.2999 14.5796 15.3111 14.6086C15.3226 14.6375 15.334 14.6659 15.3452 14.694C15.3678 14.7499 15.3891 14.804 15.4105 14.8557C15.4538 14.9588 15.4924 15.0538 15.5289 15.137C15.5651 15.2203 15.596 15.2933 15.6229 15.3527C15.676 15.4719 15.7064 15.54 15.7064 15.54L15.7033 15.5414L15.7035 15.5412Z" fill="#DD796C"/>
<path d="M14.6016 16.1339C14.6016 16.1339 14.5812 16.0747 14.5454 15.9711C14.5274 15.9194 14.5074 15.8559 14.4834 15.7834C14.4712 15.7471 14.4598 15.7082 14.447 15.6674C14.4346 15.6264 14.4205 15.5836 14.4077 15.5384C14.3946 15.4933 14.381 15.4463 14.3668 15.3976C14.3536 15.3487 14.3399 15.2982 14.3259 15.2462C14.3118 15.1943 14.2991 15.1404 14.2854 15.0855C14.2717 15.0306 14.2599 14.9741 14.2466 14.9168C14.2339 14.8595 14.2228 14.8008 14.2105 14.7415C14.2052 14.7118 14.1998 14.6818 14.1944 14.6518C14.1892 14.6217 14.1832 14.5914 14.1789 14.5609C14.1697 14.4999 14.1595 14.4384 14.1524 14.3764C14.1488 14.3454 14.1441 14.3144 14.1411 14.2832C14.138 14.252 14.1351 14.2209 14.132 14.1896C14.1284 14.1584 14.1272 14.1271 14.1248 14.0958C14.1227 14.0646 14.12 14.0333 14.1193 14.002C14.1182 13.9708 14.117 13.9395 14.1159 13.9084C14.1158 13.8773 14.1157 13.8461 14.1155 13.8152C14.1166 13.6915 14.1235 13.5696 14.1392 13.4525C14.1561 13.3356 14.1795 13.2234 14.2116 13.1196C14.2428 13.0157 14.2828 12.9205 14.3263 12.8364C14.3317 12.8259 14.337 12.8155 14.3423 12.8051C14.3477 12.7948 14.3538 12.7851 14.3595 12.7753C14.3713 12.756 14.382 12.7365 14.3939 12.7185C14.406 12.7006 14.4178 12.6832 14.4292 12.6662C14.432 12.662 14.4349 12.6578 14.4377 12.6537C14.4408 12.6497 14.4438 12.6456 14.4469 12.6418C14.4529 12.6338 14.4589 12.6262 14.4647 12.6185C14.4873 12.5873 14.5116 12.5606 14.5333 12.5353C14.5439 12.5224 14.5556 12.5114 14.5662 12.5004C14.5769 12.4895 14.5871 12.4791 14.5968 12.4693C14.6371 12.4315 14.6692 12.4024 14.6928 12.3846C14.7159 12.3662 14.7282 12.3563 14.7282 12.3563L14.7304 12.3589C14.7304 12.3589 14.7187 12.3695 14.6968 12.389C14.6744 12.4082 14.6436 12.4384 14.6055 12.4775C14.5687 12.5181 14.5244 12.5676 14.4807 12.6299C14.4752 12.6376 14.4696 12.6455 14.4639 12.6534C14.461 12.6574 14.4582 12.6615 14.4553 12.6654C14.4527 12.6696 14.45 12.6738 14.4473 12.6781C14.4366 12.6952 14.4255 12.7127 14.4142 12.7307C14.4032 12.7488 14.3932 12.7683 14.3823 12.7878C14.377 12.7976 14.3711 12.8072 14.366 12.8174C14.361 12.8277 14.356 12.838 14.3509 12.8486C14.3096 12.9321 14.2722 13.0262 14.2433 13.129C14.2142 13.2317 14.1903 13.3418 14.1748 13.4574C14.1585 13.5728 14.1508 13.6932 14.148 13.8158C14.1477 13.8465 14.1474 13.8773 14.1472 13.9081C14.1479 13.939 14.1487 13.9698 14.1494 14.001C14.1498 14.032 14.1521 14.0631 14.1537 14.0941C14.1557 14.1252 14.1565 14.1564 14.1596 14.1875C14.1624 14.2186 14.1651 14.2496 14.1677 14.2806C14.1703 14.3117 14.1746 14.3426 14.178 14.3735C14.1844 14.4353 14.1939 14.4966 14.2024 14.5574C14.2064 14.5878 14.212 14.6179 14.2169 14.648C14.222 14.678 14.2271 14.708 14.2321 14.7377C14.2438 14.7969 14.2543 14.8555 14.2663 14.9128C14.2788 14.97 14.2901 15.0265 14.3032 15.0814C14.3165 15.1363 14.3286 15.1902 14.3417 15.2422C14.3551 15.2943 14.3681 15.3449 14.3807 15.3939C14.3941 15.4427 14.4071 15.4898 14.4196 15.535C14.4317 15.5804 14.4453 15.6233 14.457 15.6644C14.4693 15.7054 14.4802 15.7445 14.4919 15.7808C14.5148 15.8535 14.534 15.9171 14.5512 15.9692C14.5855 16.0733 14.6051 16.1328 14.6051 16.1328L14.6019 16.1339H14.6016Z" fill="#DD796C"/>
<path d="M12.0569 16.7465C12.0569 16.7465 12.0863 16.7456 12.1375 16.7442C12.1503 16.7437 12.1646 16.7433 12.18 16.7428C12.1954 16.7418 12.2121 16.7408 12.2299 16.7396C12.2477 16.7385 12.2667 16.7373 12.2865 16.736C12.3065 16.7343 12.3274 16.7318 12.3492 16.7297C12.371 16.7271 12.3939 16.7256 12.4171 16.7219C12.4406 16.7182 12.4646 16.7146 12.4894 16.7108C12.5143 16.7076 12.5394 16.7014 12.5652 16.6964C12.591 16.691 12.6175 16.6864 12.6438 16.6786C12.6702 16.6714 12.6971 16.6647 12.7241 16.6569C12.7507 16.648 12.7776 16.6389 12.8047 16.6297C12.8184 16.6256 12.8315 16.6197 12.8449 16.6142C12.8581 16.6087 12.8715 16.6033 12.8848 16.5977C12.8981 16.5919 12.9119 16.5873 12.9247 16.5805L12.9636 16.561L13.0024 16.5416C13.0089 16.5385 13.0152 16.5349 13.0214 16.5312L13.04 16.5201C13.0524 16.5127 13.0648 16.5054 13.0771 16.498L13.0956 16.487C13.1018 16.4835 13.1078 16.4797 13.1136 16.4755C13.137 16.4593 13.1603 16.4432 13.1834 16.4274C13.1891 16.4233 13.195 16.4197 13.2005 16.4154L13.2168 16.4026C13.2277 16.3941 13.2384 16.3856 13.2492 16.3772C13.2933 16.3457 13.3313 16.3091 13.3697 16.2774C13.3745 16.2733 13.3792 16.2694 13.3839 16.2654C13.3883 16.2612 13.3928 16.2569 13.3971 16.2527C13.4059 16.2444 13.4145 16.2361 13.4231 16.2281C13.4402 16.212 13.4567 16.1965 13.4726 16.1815C13.5031 16.1504 13.5311 16.1218 13.5558 16.0965C13.562 16.0902 13.5681 16.0841 13.5739 16.0781C13.5794 16.0719 13.5847 16.066 13.5898 16.0602C13.6001 16.0489 13.6096 16.0385 13.6182 16.029C13.6524 15.9912 13.6726 15.9699 13.6726 15.9699L13.6754 15.9719C13.6754 15.9719 13.6584 15.9956 13.6275 16.0364C13.6199 16.0467 13.6113 16.0581 13.6021 16.0704C13.5974 16.0765 13.5925 16.0828 13.5874 16.0895C13.582 16.0959 13.5764 16.1024 13.5706 16.1092C13.5473 16.1362 13.5218 16.1675 13.4924 16.2002C13.4615 16.2316 13.4293 16.2669 13.3923 16.3014C13.3737 16.3185 13.3543 16.3358 13.3343 16.3533C13.3149 16.3716 13.2931 16.3878 13.2713 16.4048C13.2603 16.4132 13.2492 16.4217 13.238 16.4302C13.2324 16.4345 13.2268 16.4387 13.2212 16.443C13.2156 16.4473 13.2094 16.4509 13.2035 16.4549C13.1796 16.4705 13.1555 16.4862 13.1312 16.5022C13.1253 16.5063 13.119 16.51 13.1125 16.5134L13.0933 16.524C13.0805 16.5312 13.0677 16.5383 13.0548 16.5454L13.0355 16.5562C13.0291 16.5599 13.0226 16.5633 13.0159 16.5662L12.9758 16.585L12.9357 16.6039C12.9225 16.6105 12.9085 16.615 12.8949 16.6206C12.8812 16.6259 12.8675 16.6312 12.8539 16.6365C12.8402 16.6417 12.8268 16.6475 12.8128 16.6515C12.785 16.6602 12.7575 16.6688 12.7303 16.6773C12.7029 16.6846 12.6754 16.6909 12.6486 16.6975C12.6219 16.7048 12.595 16.7089 12.5689 16.7137C12.5427 16.7182 12.5173 16.7239 12.492 16.7263C12.4669 16.7293 12.4425 16.7324 12.419 16.7353C12.3955 16.7384 12.3724 16.7392 12.3505 16.7412C12.3284 16.7428 12.3074 16.7447 12.2874 16.7458C12.2673 16.7464 12.2483 16.7471 12.2305 16.7478C12.2125 16.7485 12.1959 16.749 12.1803 16.7495C12.1649 16.7495 12.1507 16.7495 12.1379 16.7496C12.0866 16.7496 12.0573 16.7496 12.0573 16.7496V16.7462L12.0569 16.7465Z" fill="#DD796C"/>
<path d="M14.4314 10.7203C14.4314 10.7203 14.4197 10.7354 14.3995 10.7619C14.3893 10.7752 14.377 10.7912 14.3628 10.8097C14.3489 10.8284 14.3322 10.8486 14.3142 10.8709C14.2961 10.8931 14.2771 10.9178 14.2556 10.9427C14.2343 10.9677 14.2116 10.994 14.1879 11.0209C14.1634 11.0471 14.1387 11.0748 14.1125 11.102C14.0991 11.1154 14.0857 11.129 14.0723 11.1426L14.0519 11.1629L14.0308 11.1825C14.0168 11.1956 14.0026 11.2088 13.9886 11.2218C13.974 11.2342 13.9593 11.2467 13.9448 11.2589C13.9306 11.2715 13.9155 11.283 13.9005 11.2941C13.8855 11.3052 13.8711 11.3167 13.8556 11.3265C13.8401 11.3361 13.8254 11.3464 13.81 11.355C13.7945 11.3634 13.7794 11.3716 13.7644 11.3793C13.7493 11.3865 13.7342 11.3929 13.7198 11.3994C13.7054 11.4058 13.6906 11.41 13.6769 11.4151C13.6632 11.4204 13.6495 11.4236 13.6366 11.427C13.6301 11.4287 13.6238 11.4303 13.6177 11.4319C13.6116 11.4333 13.6055 11.4342 13.5997 11.4354C13.5879 11.4374 13.5771 11.4397 13.5669 11.4409C13.5568 11.4419 13.5474 11.4429 13.5389 11.4437C13.5305 11.4448 13.523 11.4452 13.5164 11.4454C13.5099 11.4457 13.5043 11.4459 13.4998 11.4461C13.4908 11.4463 13.486 11.4466 13.486 11.4466L13.4856 11.4432C13.4856 11.4432 13.4903 11.4422 13.4991 11.4402C13.5079 11.438 13.5209 11.4365 13.537 11.432C13.5451 11.4299 13.554 11.4277 13.5637 11.4252C13.5734 11.4227 13.5837 11.4193 13.5948 11.416C13.6003 11.4142 13.606 11.4127 13.6118 11.4108C13.6175 11.4087 13.6234 11.4065 13.6295 11.4044C13.6416 11.3998 13.6544 11.3956 13.6672 11.3896C13.6933 11.379 13.7205 11.3651 13.749 11.3503C13.7628 11.342 13.7772 11.3336 13.792 11.3252C13.8063 11.3164 13.8207 11.3067 13.8357 11.2972C13.8509 11.2882 13.8651 11.2772 13.8801 11.2668C13.8949 11.2562 13.9102 11.246 13.9247 11.2342C13.9395 11.2228 13.9543 11.2113 13.9692 11.1996C13.9834 11.1873 13.9978 11.1749 14.0122 11.1625L14.0338 11.1438L14.0546 11.1243C14.0684 11.1113 14.0821 11.0984 14.0958 11.0856C14.1226 11.0596 14.1482 11.0329 14.1734 11.0077C14.1977 10.9815 14.2213 10.9563 14.2436 10.9323C14.2661 10.9084 14.286 10.8847 14.3052 10.8635C14.3241 10.8421 14.3416 10.8225 14.3565 10.8045C14.3714 10.7867 14.3844 10.7711 14.3952 10.7583C14.4166 10.7327 14.429 10.7181 14.429 10.7181L14.4316 10.7203H14.4314Z" fill="#DD796C"/>
<path d="M15.4463 9.8541C15.4463 9.8541 15.4379 9.86451 15.4233 9.88273C15.4164 9.89213 15.4064 9.90243 15.3956 9.91454C15.385 9.92699 15.3716 9.93966 15.3571 9.95381C15.35 9.96105 15.3421 9.96796 15.3339 9.97498C15.3257 9.982 15.3173 9.98958 15.3084 9.99693C15.29 10.0109 15.2708 10.0261 15.2494 10.0397C15.2288 10.0542 15.2058 10.0669 15.1829 10.0802C15.1592 10.0923 15.1354 10.105 15.1104 10.1154L15.0919 10.1238C15.0857 10.1264 15.0793 10.1288 15.073 10.1313C15.0605 10.136 15.048 10.1412 15.0355 10.1457C15.0102 10.154 14.9853 10.1626 14.9607 10.1687C14.9361 10.1752 14.9122 10.1803 14.8893 10.1844C14.8666 10.189 14.8447 10.1912 14.8246 10.194C14.8045 10.1967 14.7859 10.1973 14.7695 10.1987C14.7532 10.2003 14.7388 10.2004 14.7271 10.2007C14.7036 10.2012 14.6901 10.2011 14.6901 10.2011V10.1989C14.6901 10.1989 14.7032 10.1964 14.7264 10.1927C14.7379 10.1907 14.7521 10.189 14.7681 10.1859C14.784 10.183 14.8022 10.1801 14.8218 10.1761C14.8317 10.1741 14.8418 10.172 14.8524 10.1699C14.8631 10.168 14.8739 10.1658 14.885 10.163C14.8961 10.1603 14.9076 10.1577 14.9192 10.1552C14.931 10.1527 14.9426 10.1491 14.9547 10.146C14.9791 10.1406 15.0035 10.1326 15.0287 10.1255C15.0412 10.1217 15.0535 10.1171 15.0661 10.1129C15.0723 10.1108 15.0786 10.1088 15.0848 10.1064L15.1033 10.0989C15.1282 10.0894 15.1519 10.0777 15.1756 10.0665C15.1985 10.0541 15.2215 10.0424 15.2424 10.0287C15.2639 10.0162 15.283 10.0016 15.3018 9.98856C15.311 9.98166 15.3195 9.97464 15.328 9.96796C15.3364 9.96139 15.3445 9.95483 15.3519 9.94804C15.3667 9.93468 15.3805 9.92269 15.3916 9.9108C15.4029 9.89926 15.4132 9.88941 15.4206 9.88036C15.4359 9.8627 15.4447 9.85274 15.4447 9.85274L15.4464 9.85421L15.4463 9.8541Z" fill="#DD796C"/>
<path d="M15.9656 10.564C15.9656 10.564 15.956 10.5751 15.9391 10.5945C15.9307 10.6043 15.9206 10.6162 15.9079 10.6289C15.9017 10.6354 15.8951 10.6423 15.8881 10.6497C15.8846 10.6533 15.8811 10.657 15.8774 10.6609C15.8735 10.6645 15.8696 10.6682 15.8657 10.6721C15.8494 10.6871 15.8325 10.7042 15.8127 10.7202C15.803 10.7283 15.793 10.7369 15.7826 10.7452C15.7719 10.7531 15.761 10.7613 15.7498 10.7695C15.7388 10.7781 15.7268 10.7856 15.7147 10.7933C15.7025 10.8008 15.6908 10.8095 15.6778 10.8163C15.6649 10.8233 15.652 10.8304 15.639 10.8375C15.6258 10.8443 15.6119 10.85 15.5985 10.8563C15.5851 10.863 15.571 10.8679 15.5569 10.8729C15.5429 10.8778 15.5291 10.8835 15.5147 10.8868C15.5004 10.8905 15.4864 10.8947 15.4722 10.8977C15.4579 10.9001 15.4438 10.9025 15.4298 10.9048L15.4194 10.9062L15.4091 10.9068C15.4021 10.9071 15.3952 10.9076 15.3885 10.9079C15.3749 10.9087 15.3617 10.9097 15.3488 10.9084C15.3359 10.9077 15.3233 10.9069 15.3112 10.9062C15.2991 10.9052 15.2876 10.9026 15.2765 10.901C15.2654 10.8991 15.2547 10.8977 15.2449 10.8951C15.235 10.8924 15.2257 10.8898 15.2169 10.8873C15.2081 10.8848 15.2 10.8826 15.1925 10.8805C15.185 10.8778 15.1784 10.875 15.1724 10.8726C15.1482 10.863 15.1347 10.8571 15.1347 10.8571L15.1355 10.855C15.1355 10.855 15.15 10.8584 15.1748 10.8649C15.1809 10.8665 15.1879 10.8683 15.1953 10.8702C15.203 10.8716 15.2112 10.8732 15.2199 10.8748C15.2287 10.8764 15.2379 10.8781 15.2477 10.8799C15.2575 10.8815 15.268 10.8818 15.2789 10.8832C15.2897 10.8841 15.301 10.8859 15.3127 10.8861C15.3245 10.8862 15.3366 10.8864 15.349 10.8865C15.3614 10.8872 15.3742 10.8859 15.3872 10.8851C15.3938 10.8846 15.4004 10.8842 15.407 10.8837L15.417 10.883L15.4271 10.8815C15.4406 10.8795 15.4542 10.8775 15.468 10.8756C15.4817 10.8727 15.4954 10.8693 15.5093 10.8662C15.5233 10.8635 15.5369 10.8585 15.5508 10.8542C15.5646 10.8498 15.5785 10.8456 15.5917 10.8396C15.6051 10.8338 15.6188 10.8286 15.6318 10.8224C15.6447 10.8158 15.6576 10.8091 15.6704 10.8027C15.6833 10.7965 15.6951 10.7882 15.7073 10.7812C15.7194 10.7739 15.7314 10.7668 15.7425 10.7588C15.7538 10.751 15.7648 10.7433 15.7757 10.7357C15.7862 10.7278 15.7962 10.7196 15.8062 10.7119C15.8264 10.6969 15.8438 10.6807 15.8605 10.6663C15.8646 10.6627 15.8687 10.6592 15.8726 10.6557C15.8764 10.652 15.8802 10.6484 15.8837 10.645C15.8909 10.638 15.8977 10.6314 15.9041 10.6252C15.9171 10.613 15.9278 10.6016 15.9366 10.5922C15.9541 10.5734 15.9642 10.5627 15.9642 10.5627L15.9659 10.5642L15.9656 10.564Z" fill="#DD796C"/>
<path d="M12.3984 0.23442H6.80224C6.14618 0.23442 5.61433 0.761625 5.61433 1.41197V15.2991C5.61433 15.9494 6.14618 16.4766 6.80224 16.4766H12.3984C13.0545 16.4766 13.5863 15.9494 13.5863 15.2991V1.41197C13.5863 0.761625 13.0545 0.23442 12.3984 0.23442Z" fill="black"/>
<path d="M12.6078 16.1333H6.61978C6.26675 16.1333 5.97788 15.847 5.97788 15.497V1.24581C5.97788 0.895856 6.26675 0.609505 6.61978 0.609505H7.63585L7.67513 0.664512C7.82801 0.878878 8.07703 1.00564 8.34192 1.00383L10.7744 0.986288C11.0515 0.984477 11.3084 0.842321 11.4554 0.609505H12.6078C12.9609 0.609505 13.2497 0.895856 13.2497 1.24581V15.4971C13.2497 15.8471 12.9609 16.1334 12.6078 16.1334V16.1333Z" fill="#5C6248"/>
<path fill-rule="evenodd" clip-rule="evenodd" d="M10.7163 7.09036L9.70083 6.51202L10.7188 7.09538L10.7163 7.09036ZM8.47841 7.0895L8.47541 7.09538L9.59724 6.45301L9.59657 6.45264L8.47841 7.0895ZM10.7163 7.09036L9.70083 6.51202L10.7188 7.09538L10.7163 7.09036ZM8.47841 7.0895L8.47541 7.09538L9.59724 6.45301L9.59657 6.45264L8.47841 7.0895ZM10.0594 5.25584L10.1983 5.52817C11.6236 5.80406 12.6988 7.04288 12.6988 8.52997C12.6988 10.22 11.3106 11.5896 9.59756 11.5896C7.88454 11.5896 6.49629 10.22 6.49629 8.52997C6.49629 7.04288 7.57155 5.80406 8.99679 5.52817L9.1357 5.25584C7.50298 5.47745 6.24642 6.85866 6.24642 8.52997C6.24642 10.3561 7.74654 11.8361 9.59756 11.8361C11.4486 11.8361 12.9487 10.3561 12.9487 8.52997C12.9487 6.85866 11.6912 5.47745 10.0594 5.25584Z" fill="black"/>
<path fill-rule="evenodd" clip-rule="evenodd" d="M10.7233 6.80969L10.7238 6.81052L10.5119 6.68985L9.59756 4.89808L8.68257 6.68963L8.28854 6.91404L8.28867 6.91382L7.54448 7.33743V9.67624L9.59756 10.8447L11.6498 9.67624V7.33743L10.7233 6.80969ZM8.47841 7.0895L9.59657 6.45264L9.59724 6.45301L9.59756 6.45284L9.70083 6.51202L10.7163 7.09036L11.1798 7.35435L11.1799 7.35415L11.2754 7.40863C10.9182 7.61244 10.9227 7.60888 10.4987 7.85094L9.59756 8.36444L8.69641 7.85094C8.27153 7.60888 8.27694 7.61244 7.91974 7.40863L8.0839 7.3152L8.08461 7.31379L8.47841 7.0895ZM11.3999 8.3342L9.59756 9.36118L7.79435 8.3342V7.90702L9.59756 8.93401L11.3999 7.90702V8.3342Z" fill="#E0C389"/>
</svg>
