<svg width="30" height="30" viewBox="0 0 30 30" fill="none" xmlns="http://www.w3.org/2000/svg">
<path d="M26.3772 11.5682L26.2303 11.8757L15.2903 16.8866L14.8664 16.8844C12.1902 14.99 8.005 15.9097 6.67144 18.9622C3.36321 17.5196 3.58357 12.8054 6.7976 11.3168L23.8169 5.71197L24.0788 5.8088L26.3772 11.5682Z" fill="white"/>
<path d="M11.6342 16.2906C8.73431 16.2906 6.38355 18.6307 6.38355 21.5175C6.38355 24.4043 8.73431 26.7442 11.6342 26.7442C14.5341 26.7442 16.8847 24.4041 16.8847 21.5175C16.8847 18.6309 14.534 16.2906 11.6342 16.2906ZM11.637 25.7459C9.28679 25.7459 7.38149 23.8493 7.38149 21.5097C7.38149 19.1702 9.28679 17.2735 11.637 17.2735C13.9872 17.2735 15.8925 19.17 15.8925 21.5097C15.8925 23.8494 13.9873 25.7459 11.637 25.7459Z" fill="white"/>
<path d="M30 11.9617L26.8224 11.6265L24.5901 5.98634C24.3547 4.93166 26.0736 4.07618 26.6569 3.25586L30 11.9617Z" fill="white"/>
<path d="M6.11881 20.2037C5.59549 21.7791 4.31412 23.4697 3.70498 25.057C3.02494 25.8104 -0.451452 25.5558 0.329065 24.7691C1.19792 24.6703 2.46771 25.0427 3.16296 24.4312C3.7788 23.8897 5.08962 20.5858 5.68146 19.5886C5.78249 19.4183 5.76156 18.9973 6.07165 19.1354C6.53845 19.3435 6.21664 19.9092 6.11881 20.2037Z" fill="white"/>
<path d="M2.19223 18.7758C2.19223 19.3783 1.70142 19.8668 1.09604 19.8668C0.490666 19.8668 0 19.3783 0 18.7758C0 18.1733 0.490806 17.6847 1.09604 17.6847C1.70128 17.6847 2.19223 18.1731 2.19223 18.7758Z" fill="white"/>
<path d="M7.70357 9.57062C6.97678 9.57618 6.73145 8.8863 6.05657 8.5672C5.51009 8.30881 4.63481 8.49705 4.61723 7.86593C5.89497 7.68603 7.18514 8.4005 7.70357 9.57062Z" fill="white"/>
<path d="M8.73179 9.74399L8.63076 10.2704L6.95543 10.7817L6.67549 10.3397L8.73179 9.74399Z" fill="white"/>
<path d="M4.44433 17.5948L2.38746 18.2793L2.50273 17.7653L4.1916 17.1062L4.44433 17.5948Z" fill="white"/>
</svg>
