<svg width="35" height="33" viewBox="0 0 35 33" fill="none" xmlns="http://www.w3.org/2000/svg">
<path d="M35 18.8087C34.8435 21.0405 31.3395 24.1375 30.1395 26.222C29.7774 26.852 29.1378 28.5113 29.1378 29.2071V33H19.2969V28.4245C19.1341 27.062 18.3922 25.5783 18.2816 24.0445C18.1094 21.6475 18.9087 20.6382 19.3386 18.5339C19.9125 15.7232 17.9967 11.2428 17.7421 8.31299C17.6263 6.68404 19.9167 6.03623 20.5417 7.85952C21.3097 10.1018 21.5768 12.8028 22.3031 15.09C22.589 15.7921 23.3747 15.4473 23.1817 14.7577L20.644 4.3937C20.3466 2.49414 22.7006 1.86513 23.3361 3.81067C24.221 6.51896 24.5131 9.74445 25.4471 12.4141C25.5399 12.6784 25.5451 12.832 25.8968 12.8247C26.3674 12.8143 26.382 12.4945 26.3058 12.0985C25.6265 8.86886 24.6039 5.6444 23.9424 2.421C23.7817 1.6363 23.4874 0.885046 24.2565 0.308281C24.9827 -0.236094 25.7966 -0.0250309 26.3142 0.670849L28.6735 9.33696C29.0063 9.59399 29.4623 9.28889 29.4341 8.89289L27.5705 1.44091C27.703 -0.00935796 29.6147 -0.388644 30.2136 0.989533L32.4164 8.98484C31.8404 9.18649 31.256 9.78625 30.9722 10.317C30.2616 11.6482 30.5089 15.3178 30.3117 17.0084C30.2804 17.2717 30.1604 17.4994 29.9465 17.6593C29.0032 18.3635 27.8752 18.4806 26.9006 19.4972C26.5959 19.8138 25.3865 21.3226 26.2265 21.5671C26.7274 21.7134 27.0696 20.704 27.3889 20.3383C27.8074 19.8577 28.4543 19.4617 29.0074 19.143C30.1541 18.4827 31.086 18.5171 31.2456 16.9269C31.3593 15.79 31.327 14.5561 31.4042 13.4088C31.495 12.0432 31.352 10.5062 32.7837 9.7852C33.2741 9.53861 34.8091 9.14052 34.9791 9.90536L35 18.8087Z" fill="white"/>
<path d="M15.5487 16.8506C15.363 19.259 16.9188 21.2495 16.7174 24.0445C16.6235 25.3547 15.7031 27.4957 15.7031 28.4245V33H5.8622C5.77664 31.7806 5.97698 30.4087 5.8622 29.2071C5.77768 28.3326 5.29977 26.9858 4.85943 26.222C3.66049 24.1375 0.15652 21.0405 0 18.8087L0.0208706 9.90536C0.175304 9.42995 0.541559 9.43935 0.970424 9.46861C2.44902 9.57101 3.39127 10.4351 3.51753 11.923C3.65735 13.5718 3.58953 15.2812 3.7544 16.9269C3.91405 18.5171 4.84482 18.4827 5.99264 19.143C6.54567 19.4617 7.19263 19.8577 7.61106 20.3383C7.93453 20.7093 8.25905 21.6998 8.7547 21.5483C9.29939 21.3832 9.01452 20.8503 8.84339 20.5128C8.42705 19.6926 7.59853 19.003 6.82219 18.5474C6.3422 18.2643 5.00969 17.7826 4.80308 17.3626C4.74047 17.234 4.70604 17.1546 4.6883 17.0084C4.49109 15.3188 4.73213 11.7161 4.05596 10.3672C3.77944 9.81759 3.1711 9.19381 2.58363 8.98484L4.78535 0.989533C5.38534 -0.388644 7.29697 -0.00935796 7.42949 1.44091L5.56586 8.89289C5.53768 9.28889 5.99368 9.59399 6.32655 9.33696L8.68478 0.670849C9.20339 -0.0250309 10.0173 -0.236094 10.7435 0.308281C11.5126 0.885046 11.2173 1.6363 11.0566 2.421C10.3961 5.64545 9.36722 8.86781 8.69627 12.0996C8.61592 12.4956 8.63365 12.8143 9.10321 12.8247C9.45486 12.832 9.46008 12.6784 9.55295 12.4141C10.4869 9.74445 10.779 6.51896 11.6639 3.81067C12.2994 1.86513 14.6388 2.49205 14.355 4.3937L11.8183 14.7577C11.6242 15.4473 12.411 15.7921 12.6969 15.09C13.419 12.8028 13.6903 10.1008 14.4583 7.85952C15.0833 6.03623 17.3737 6.68404 17.2579 8.31299C16.9177 11.0526 15.7574 14.1423 15.5487 16.8506Z" fill="white"/>
</svg>
