<svg width="30" height="30" viewBox="0 0 30 30" fill="none" xmlns="http://www.w3.org/2000/svg">
<path d="M29.0709 1.85357C29.4457 0.141006 29.0296 0.158356 29.0296 0.158356C29.0296 0.158356 29.0122 -0.257793 27.3369 0.25914C26.5546 0.500512 24.9423 1.99671 23.4456 3.52353C22.5431 4.39359 21.4488 5.48053 20.1741 6.80195C19.3645 6.72285 18.0183 6.59247 16.4249 6.44244L17.373 5.41138C17.6167 5.14628 17.5996 4.73396 17.3345 4.49004L17.1488 4.31909C16.8837 4.07542 16.4713 4.09251 16.2274 4.35761L14.4771 6.26078C13.5159 6.17249 12.5145 6.08192 11.5214 5.99491L12.3864 5.05417C12.63 4.78907 12.613 4.37675 12.3479 4.13283L12.1621 3.96188C11.897 3.71821 11.4847 3.7353 11.2408 4.0004L9.56161 5.82625C6.35744 5.55835 3.61407 5.3675 3.15965 5.45527C3.15965 5.45527 2.11711 6.15387 1.89181 6.46107C1.66651 6.76827 1.94029 6.90554 2.35618 6.88819C2.5899 6.87849 5.98135 8.02335 8.96278 9.04752L8.92527 9.08835C8.82653 9.19576 8.83342 9.36289 8.94084 9.46188L9.01611 9.53103C9.12352 9.62977 9.29065 9.62288 9.38964 9.51547L9.61392 9.27154C9.93694 9.38279 10.2513 9.49123 10.5526 9.59558L10.5021 9.6507C10.4034 9.75811 10.4102 9.92524 10.5177 10.0242L10.5929 10.0934C10.7003 10.1921 10.8675 10.1852 10.9665 10.0778L11.2027 9.82088C11.4883 9.91988 11.7556 10.0125 12.0003 10.0977L11.9503 10.1521C11.8516 10.2595 11.8585 10.4266 11.9659 10.5256L12.0412 10.5948C12.1486 10.6935 12.3157 10.6866 12.4147 10.5792L12.6497 10.3235C13.1381 10.4935 13.4486 10.6021 13.497 10.6192C13.5619 10.642 13.7042 10.7152 13.8877 10.8157L13.7989 10.9122C13.6144 11.1127 13.6274 11.4248 13.828 11.6092L13.9686 11.7386C14.1691 11.9231 14.4812 11.91 14.6656 11.7095L14.9346 11.4168C15.1752 11.5585 15.3964 11.6901 15.5528 11.7837C14.2594 13.2292 12.8615 14.8315 11.3637 16.6007C11.3637 16.6007 10.1508 18.1092 8.92221 19.897L2.38884 19.3193C2.38884 19.3193 0.41883 19.908 0.828856 20.4563C0.828856 20.4563 3.91489 21.6369 4.34074 21.8573C4.66197 22.0234 6.27324 22.6605 7.04558 22.9637C6.97695 23.0994 6.91214 23.2326 6.85243 23.3627C6.51513 23.9406 6.25896 24.4213 6.25896 24.4213L6.35464 24.5091L5.71931 25.1998C5.642 25.2837 5.64762 25.4146 5.73156 25.4917C5.81551 25.569 5.9464 25.5634 6.02345 25.4794L6.65878 24.7887L6.75446 24.8765C6.75446 24.8765 7.21219 24.5808 7.75975 24.1965C7.88426 24.1261 8.01158 24.0506 8.1412 23.9707C8.50785 24.7153 9.27738 26.2673 9.47002 26.5738C9.72517 26.98 11.1596 29.9563 11.1596 29.9563C11.7403 30.3189 12.1624 28.3067 12.1624 28.3067L11.0402 21.8446C12.7191 20.4708 14.1209 19.1359 14.1209 19.1359C15.7587 17.4953 17.2386 15.9682 18.5707 14.5585C18.6768 14.7065 18.8266 14.916 18.9879 15.1438L18.7189 15.4365C18.5345 15.637 18.5475 15.9491 18.748 16.1335L18.8886 16.2629C19.0892 16.4474 19.4012 16.4344 19.5857 16.2338L19.6745 16.1374C19.7901 16.3119 19.8748 16.4476 19.9031 16.5104C19.9243 16.5573 20.0585 16.8577 20.2687 17.3302L20.0337 17.5859C19.935 17.6933 19.9419 17.8604 20.0493 17.9594L20.1246 18.0285C20.232 18.1273 20.3991 18.1204 20.4981 18.013L20.5481 17.9586C20.6532 18.1954 20.7681 18.4541 20.8905 18.7305L20.6543 18.9874C20.5555 19.0948 20.5624 19.2619 20.6698 19.3609L20.7451 19.4301C20.8525 19.5288 21.0196 19.5219 21.1186 19.4145L21.1691 19.3594C21.2983 19.651 21.4327 19.9552 21.5705 20.2677L21.3462 20.5117C21.2475 20.6191 21.2544 20.7862 21.3618 20.8852L21.4371 20.9543C21.5445 21.0531 21.7116 21.0462 21.8106 20.9388L21.8481 20.898C23.1182 23.7832 24.5427 27.0672 24.5524 27.3009C24.5698 27.7171 24.7295 27.9781 25.0168 27.7281C25.3041 27.4778 25.9129 26.3806 25.9129 26.3806C25.9624 25.9206 25.5427 23.2027 25.0076 20.0322L26.6868 18.2064C26.9304 17.9413 26.9133 17.529 26.6482 17.285L26.4625 17.1141C26.1974 16.8704 25.7851 16.8875 25.5411 17.1526L24.6762 18.0934C24.5063 17.111 24.3325 16.1205 24.1641 15.1704L25.9144 13.2672C26.1581 13.0021 26.141 12.5898 25.8759 12.3458L25.6902 12.1749C25.4251 11.9312 25.0127 11.9483 24.7688 12.2134L23.8207 13.2445C23.538 11.6692 23.2956 10.3386 23.1489 9.53843C24.359 8.15756 25.3505 6.97647 26.142 6.00435C27.5382 4.38517 28.8946 2.65321 29.0694 1.85357H29.0709Z" fill="white"/>
</svg>
