<svg width="30" height="30" viewBox="0 0 30 30" fill="none" xmlns="http://www.w3.org/2000/svg">
<path d="M24.3192 20.8914L19.9154 25.3536L17.63 23.1995C16.7546 22.3122 16.4216 21.8151 16.2158 20.5549C15.8295 18.1959 15.7937 15.7064 15.4437 13.3346C15.6633 11.5102 18.1587 11.5314 18.2909 13.4058L18.8187 18.7126C19.0686 19.1499 19.5771 19.0847 19.6923 18.5932C19.4957 17.0798 19.4314 15.547 19.2482 14.0328C19.1041 12.8345 19.0076 11.7872 17.7408 11.2594C17.1731 8.51651 16.1461 5.76196 15.6013 3.02825C15.3335 1.68255 15.2767 -0.592455 17.3452 0.142946C18.3612 0.503945 18.5408 1.26496 18.8697 2.17073C20.028 5.35598 20.9567 8.63326 22.0844 11.8313C22.4734 14.0015 22.3876 16.3748 22.7444 18.5295C22.9223 19.608 23.5519 20.1953 24.3189 20.8911L24.3192 20.8914Z" fill="white"/>
<path d="M14.4951 13.9086C14.4111 15.8702 14.1028 18.6105 13.7841 20.5552C13.5807 21.7975 13.2367 22.3244 12.369 23.1998L10.0845 25.3539L5.6807 20.8917C5.90617 20.5849 6.24752 20.4003 6.49831 20.1197C7.10146 19.4468 7.21614 18.7064 7.32455 17.8378C7.57296 15.8449 7.60751 13.8171 7.9152 11.8319C9.0804 8.57816 9.99302 5.22016 11.1928 1.9807C11.5055 1.13688 11.7146 0.477436 12.6543 0.143542C14.7226 -0.591859 14.6661 1.68315 14.3983 3.02885C13.8535 5.76225 12.8265 8.5171 12.2579 11.26C10.992 11.7878 10.8955 12.8354 10.7505 14.0334C10.5682 15.5476 10.5038 17.0804 10.3073 18.5938C10.4225 19.0852 10.931 19.1505 11.1809 18.7132L11.7087 13.4064C11.7519 12.3311 12.867 11.5981 13.8398 12.1488C14.5135 12.5301 14.5246 13.2208 14.4948 13.9088L14.4951 13.9086Z" fill="white"/>
<path d="M10.461 28.0777C10.3269 28.2776 8.82127 29.7716 8.63839 29.8708C8.22586 30.0945 7.78861 30.0215 7.45114 29.6996L0.906106 23.1158C0.714586 22.792 0.748541 22.4337 0.955252 22.1245C1.10775 21.8958 2.49396 20.506 2.72629 20.3434C2.83739 20.2653 2.99078 20.1867 3.12363 20.167C3.38544 20.1298 3.63802 20.2019 3.83877 20.3738L10.5098 27.0856C10.7004 27.4094 10.6674 27.7686 10.4607 28.0777H10.461Z" fill="white"/>
<path d="M29.1158 23.075L22.5482 29.6996C22.2244 30.0087 21.8101 30.0895 21.4026 29.8929C21.2188 29.8047 19.6774 28.2839 19.5392 28.0777C19.3427 27.7829 19.3013 27.443 19.468 27.127L26.1611 20.3738C26.2713 20.2746 26.4482 20.1882 26.5915 20.1671C26.8235 20.134 27.0422 20.1873 27.2382 20.3154C27.4755 20.4697 28.832 21.8362 29.0166 22.0879C29.2385 22.3896 29.2904 22.7396 29.1158 23.075Z" fill="white"/>
</svg>
