<svg width="30" height="30" viewBox="0 0 30 30" fill="none" xmlns="http://www.w3.org/2000/svg">
<path d="M5.21538 27.8953C5.81714 29.477 8.31136 29.6563 9.75803 29.8614L20.1218 29.9732L20.6314 26.973C20.2974 26.7814 17.4851 26.9865 16.8944 27.054C16.3909 27.1105 15.8333 27.3254 15.374 27.3783C14.6581 27.463 14.8128 27.0761 15.3446 26.8539C15.6651 26.72 16.4105 26.596 16.7728 26.5628C18.0819 26.4425 19.4365 26.6254 20.7469 26.4228C21.3621 22.6195 22.3851 18.8431 22.0965 14.9428C21.9049 12.3454 20.9925 9.4115 17.7319 10.4517C15.0216 11.3162 14.8693 14.3717 14.2381 16.7222L10.264 14.664C10.1522 14.6775 10.0626 14.7229 9.97786 14.7954C9.83908 14.9121 8.50662 16.8045 8.48575 16.9335C8.36785 17.6715 10.4838 18.8603 11.0868 19.1993C13.8549 20.7565 16.0716 21.438 18.4111 18.7461C18.6432 18.4784 18.739 17.9466 19.089 18.0743C19.5053 18.2266 18.8225 19.0322 18.6567 19.2373C17.4237 20.7638 15.5337 21.3521 13.6277 20.8977C13.4693 21.5633 13.2151 22.3812 12.5531 22.7116C11.8298 23.0751 10.0061 23.3231 9.05435 23.6351C7.05626 24.2896 4.17274 25.1591 5.21538 27.8953Z" fill="white"/>
<path d="M16.1637 8.59606C20.7456 10.9196 21.997 5.31955 22.826 2.12041L16.5788 0.0756632C15.5865 -0.32469 15.3716 0.959878 15.0965 1.67585C14.1128 4.23024 13.0505 7.01675 16.1637 8.59606Z" fill="white"/>
<path d="M20.7653 29.8455C21.1693 30.0248 21.6139 30.0063 22.0437 29.9904C22.5681 29.9719 24.4274 29.859 24.7442 29.6232C25.4418 29.1062 24.5785 28.1225 24.0504 27.8486C23.607 27.619 21.6139 27.1228 21.2872 27.3942C21.1398 27.517 20.6548 29.6686 20.7653 29.8455Z" fill="white"/>
<path d="M7.52171 15.897C8.00434 16.0922 9.25943 14.987 9.18452 14.5903C8.55943 13.7429 6.8696 13.3708 6.55889 12.3048C6.45574 11.9499 6.54539 11.5533 6.3624 11.2131H5.90433C5.31977 12.2606 6.52205 15.4892 7.52171 15.897Z" fill="white"/>
</svg>
