<svg width="355" height="459" viewBox="0 0 355 459" fill="none" xmlns="http://www.w3.org/2000/svg">
<g clip-path="url(#clip0_540_445)">
<g filter="url(#filter0_d_540_445)">
<path fill-rule="evenodd" clip-rule="evenodd" d="M343.039 444.566C342.137 444.684 341.297 444.798 340.672 444.793C334.774 444.784 329.685 445.461 323.846 444.69C323.603 444.659 323.38 444.829 323.349 445.075C323.316 445.316 323.486 445.539 323.732 445.572C329.615 446.347 334.735 445.671 340.672 445.685C341.848 445.685 343.754 445.302 345.465 445.202C346.5 445.142 347.457 445.173 348.083 445.529C348.296 445.651 348.566 445.575 348.688 445.363C348.808 445.148 348.733 444.879 348.521 444.759C348.264 444.612 347.962 444.505 347.625 444.435C347.656 444.378 347.678 444.314 347.681 444.242C347.695 443.998 347.51 443.789 347.265 443.775C343.573 443.551 339.541 443.814 335.756 443.739C331.62 443.66 327.505 443.272 323.38 443.124C323.134 443.117 322.928 443.305 322.917 443.551C322.911 443.795 323.098 444.001 323.344 444.008C327.477 444.158 331.595 444.544 335.739 444.623C338.126 444.67 340.608 444.58 343.039 444.566ZM7.40048 443.408C7.06262 443.468 6.75678 443.565 6.49361 443.699C6.27667 443.814 6.19131 444.08 6.30511 444.3C6.41892 444.516 6.68565 444.602 6.90614 444.488C7.54273 444.158 8.50297 444.158 9.53433 444.256C11.2378 444.418 13.1299 444.871 14.307 444.915C20.2391 445.12 25.3355 445.981 31.2391 445.419C31.4845 445.397 31.6623 445.178 31.6409 444.936C31.616 444.69 31.3991 444.513 31.1573 444.535C25.2928 445.092 20.2319 444.233 14.339 444.026C13.7096 444.004 12.8774 443.862 11.9811 443.713C14.4137 443.817 16.8926 443.994 19.2753 444.033C23.4185 444.105 27.5476 443.87 31.6836 443.87C31.9289 443.87 32.1282 443.671 32.1282 443.426C32.1282 443.18 31.9289 442.981 31.6836 442.981C27.5546 442.981 23.4293 443.219 19.2931 443.145C15.5091 443.081 11.4903 442.673 7.79169 442.762C7.5463 442.768 7.35069 442.97 7.35781 443.216C7.35781 443.288 7.37559 443.35 7.4076 443.408H7.40048ZM347.254 442.704C347.165 442.712 347.019 442.723 346.888 442.726C346.244 442.737 345.298 442.704 345.177 442.701C343.225 442.631 341.297 442.396 339.345 442.324C333.004 442.094 326.68 442.25 320.332 442.019C320.086 442.008 319.88 442.2 319.874 442.444C319.863 442.69 320.055 442.897 320.301 442.903C326.648 443.135 332.976 442.978 339.313 443.21C341.261 443.28 343.193 443.515 345.146 443.585C345.288 443.59 346.55 443.635 347.176 443.604C347.396 443.593 347.56 443.56 347.631 443.537C347.865 443.443 347.926 443.269 347.941 443.156C347.955 443.034 347.941 442.883 347.781 442.746C347.631 442.62 347.418 442.609 347.257 442.707L347.254 442.704ZM347.073 443.238C347.09 443.294 347.123 443.347 347.179 443.401C347.13 443.355 347.094 443.297 347.073 443.238ZM7.83437 441.7C7.67789 441.592 7.46449 441.596 7.30801 441.72C7.14443 441.851 7.12308 442.005 7.13375 442.125C7.14443 442.24 7.19421 442.416 7.42893 442.516C7.50006 442.545 7.66365 442.584 7.88416 442.601C8.51009 442.654 9.7726 442.659 9.91487 442.659C11.8673 442.659 13.8056 442.495 15.7545 442.495C22.099 442.495 28.4118 442.878 34.7671 442.878C35.0124 442.878 35.2115 442.679 35.2115 442.435C35.2115 442.189 35.0124 441.991 34.7671 441.991C28.4152 441.991 22.099 441.607 15.7545 441.607C13.802 441.607 11.8673 441.77 9.91487 441.77C9.79395 441.77 8.84438 441.77 8.20424 441.734C8.07264 441.728 7.92684 441.709 7.83792 441.703L7.83437 441.7ZM7.9944 442.235C7.96952 442.296 7.93039 442.349 7.88059 442.396C7.9375 442.343 7.97307 442.29 7.9944 442.235ZM346.86 441.163C343.684 441.166 340.393 440.928 337.179 440.867C332.019 440.772 326.855 440.988 321.694 440.8C321.448 440.789 321.242 440.981 321.236 441.227C321.225 441.471 321.417 441.678 321.663 441.686C326.83 441.873 331.997 441.656 337.165 441.753C340.384 441.812 343.681 442.05 346.86 442.047C347.105 442.047 347.304 441.848 347.304 441.603C347.304 441.359 347.105 441.158 346.86 441.158V441.163ZM8.2469 441.057C11.4263 441.177 14.7302 441.057 17.9452 441.113C23.1127 441.205 28.2695 441.611 33.437 441.611C33.6824 441.611 33.8814 441.412 33.8814 441.166C33.8814 440.92 33.6824 440.722 33.437 440.722C28.2731 440.722 23.1234 440.316 17.9595 440.229C14.748 440.171 11.4477 440.291 8.27536 440.171C8.02996 440.16 7.8237 440.352 7.81303 440.598C7.80235 440.842 7.9944 441.049 8.2398 441.06L8.2469 441.057ZM346.288 439.542C343.21 439.517 340.145 439.159 337.062 439.209C333.381 439.268 329.728 439.595 326.037 439.525C323.383 439.472 320.745 439.13 318.092 439.18C317.847 439.184 317.651 439.385 317.654 439.631C317.658 439.877 317.861 440.072 318.106 440.068C320.748 440.019 323.377 440.36 326.015 440.413C329.714 440.487 333.381 440.157 337.072 440.097C340.148 440.047 343.207 440.403 346.277 440.431C346.522 440.431 346.721 440.235 346.724 439.989C346.724 439.745 346.528 439.547 346.283 439.542H346.288ZM8.89062 439.461C11.9562 439.547 15.029 439.301 18.1018 439.461C21.7897 439.656 25.4385 440.115 29.1409 440.179C31.7832 440.221 34.4185 439.975 37.061 440.121C37.3063 440.137 37.5162 439.947 37.5304 439.703C37.5445 439.457 37.3561 439.248 37.1107 439.234C34.4576 439.088 31.8116 439.332 29.1585 439.287C25.467 439.226 21.8288 438.764 18.1515 438.572C15.0716 438.409 11.9954 438.655 8.91907 438.572C8.67368 438.566 8.46741 438.758 8.46384 439.002C8.45674 439.248 8.65234 439.45 8.89417 439.457L8.89062 439.461ZM345.856 437.908C345.366 437.744 344.494 437.66 343.466 437.638C341.194 437.584 338.09 437.791 336.748 437.766C331.051 437.656 325.375 437.408 319.681 437.201C319.436 437.193 319.229 437.383 319.223 437.627C319.212 437.872 319.404 438.079 319.65 438.085C325.347 438.292 331.03 438.541 336.731 438.65C338.071 438.675 341.177 438.47 343.449 438.523C344.367 438.544 345.141 438.602 345.579 438.747C345.811 438.825 346.062 438.7 346.141 438.465C346.219 438.235 346.095 437.983 345.861 437.905L345.856 437.908ZM9.65525 437.808C10.0998 437.677 10.8751 437.649 11.7926 437.66C14.0652 437.691 17.1592 438.007 18.5001 438.032C24.2045 438.129 29.8912 438.09 35.5922 438.09C35.8375 438.09 36.0366 437.891 36.0366 437.646C36.0366 437.4 35.8375 437.201 35.5922 437.201C29.8948 437.201 24.2151 437.24 18.5178 437.145C17.177 437.123 14.083 436.804 11.8069 436.776C10.7755 436.76 9.90419 436.81 9.4063 436.96C9.17157 437.031 9.03642 437.276 9.10757 437.511C9.17869 437.744 9.42408 437.88 9.6588 437.808H9.65525ZM344.58 436.189C344.086 436.004 343.193 435.923 342.123 435.912C339.786 435.893 336.577 436.2 335.293 436.225C329.66 436.337 324.141 435.929 318.518 435.722C318.274 435.716 318.067 435.904 318.06 436.15C318.049 436.395 318.241 436.6 318.486 436.611C324.123 436.818 329.66 437.226 335.312 437.112C336.588 437.087 339.785 436.782 342.115 436.799C343.047 436.807 343.832 436.857 344.267 437.02C344.498 437.106 344.753 436.988 344.839 436.76C344.925 436.53 344.811 436.273 344.58 436.189ZM11.0245 436.125C11.4619 435.979 12.2479 435.957 13.1832 435.982C15.5126 436.049 18.6956 436.469 19.9723 436.544C25.6163 436.863 31.1644 436.653 36.8048 436.653C37.0502 436.653 37.2494 436.455 37.2494 436.211C37.2494 435.965 37.0502 435.766 36.8048 435.766C31.1786 435.766 25.6484 435.976 20.0222 435.655C18.7419 435.585 15.5482 435.162 13.2081 435.095C12.1412 435.062 11.2414 435.112 10.7435 435.28C10.5123 435.358 10.3843 435.61 10.4626 435.84C10.5408 436.071 10.7933 436.2 11.0245 436.121V436.125ZM343.829 435.04C343.921 435.194 344.103 435.28 344.289 435.247C344.53 435.205 344.689 434.97 344.644 434.729C344.583 434.397 344.373 434.223 344.057 434.164C343.904 434.134 343.712 434.142 343.508 434.173C343.31 434.203 343.1 434.252 342.944 434.248C341.066 434.181 339.198 434.022 337.322 433.989C330.699 433.879 324.098 434.223 317.479 433.986C317.234 433.979 317.029 434.167 317.021 434.413C317.01 434.657 317.203 434.863 317.448 434.87C324.077 435.112 330.678 434.768 337.306 434.874C339.178 434.906 341.045 435.065 342.911 435.134C343.086 435.14 343.31 435.101 343.53 435.07C343.62 435.056 343.751 435.045 343.829 435.04ZM11.533 434.159C11.597 434.164 11.6895 434.173 11.7535 434.184C11.9954 434.231 12.2514 434.288 12.4435 434.288C14.3141 434.288 16.1848 434.195 18.0555 434.231C24.6846 434.363 31.271 434.948 37.9037 434.948C38.1491 434.948 38.3483 434.749 38.3483 434.505C38.3483 434.259 38.1491 434.061 37.9037 434.061C31.2782 434.061 24.6988 433.477 18.0733 433.346C16.1954 433.307 14.3212 433.399 12.4435 433.399C12.2834 433.399 12.0772 433.339 11.878 433.307C11.6753 433.272 11.4832 433.253 11.3303 433.278C11.0102 433.325 10.7968 433.493 10.7257 433.823C10.6724 434.061 10.8253 434.299 11.0636 434.352C11.2485 434.394 11.4334 434.313 11.5295 434.164L11.533 434.159ZM12.1269 432.391C14.6449 433.077 19.4958 432.479 22.2947 432.582C27.1136 432.753 31.9041 433.382 36.7302 433.574C36.9756 433.585 37.1818 433.393 37.1925 433.147C37.2031 432.903 37.0111 432.696 36.7657 432.685C31.9397 432.493 27.1457 431.869 22.3267 431.695C19.5848 431.595 14.8298 432.207 12.3617 431.534C12.1234 431.471 11.8816 431.609 11.8175 431.847C11.7535 432.084 11.8922 432.327 12.1305 432.394L12.1269 432.391ZM343.1 432.383C340.608 432.965 335.881 432.185 333.135 432.182C328.312 432.182 323.5 432.629 318.668 432.646C318.422 432.646 318.224 432.845 318.224 433.091C318.224 433.336 318.422 433.535 318.668 433.535C323.497 433.516 328.309 433.066 333.132 433.069C335.93 433.069 340.756 433.843 343.299 433.247C343.538 433.191 343.687 432.951 343.63 432.714C343.573 432.476 343.335 432.327 343.097 432.383H343.1ZM342.257 430.873C342.109 430.862 341.866 430.848 341.766 430.842C340.864 430.767 340.92 430.706 340.021 430.614C337.694 430.37 335.337 430.177 332.996 430.138C326.958 430.032 320.801 429.931 314.771 430.194C314.525 430.205 314.336 430.412 314.347 430.657C314.358 430.902 314.564 431.091 314.81 431.08C320.823 430.82 326.961 430.92 332.982 431.027C335.298 431.066 337.627 431.257 339.927 431.499C340.839 431.595 340.781 431.656 341.696 431.729C341.845 431.74 342.182 431.773 342.347 431.773C342.442 431.773 342.517 431.762 342.548 431.751C342.805 431.684 342.863 431.495 342.88 431.388C342.891 431.324 342.93 430.994 342.531 430.87C342.439 430.842 342.343 430.845 342.257 430.87V430.873ZM13.2579 430.057C13.1725 430.024 13.0801 430.018 12.984 430.043C12.5822 430.152 12.6106 430.482 12.6177 430.546C12.6319 430.653 12.6817 430.842 12.9342 430.92C12.9663 430.93 13.0374 430.944 13.137 430.948C13.3006 430.952 13.6384 430.938 13.7878 430.93C14.7018 430.887 14.6484 430.828 15.5624 430.764C17.8705 430.607 20.2071 430.501 22.5224 430.543C28.5433 430.657 34.6817 430.778 40.6813 431.257C40.9267 431.276 41.1402 431.094 41.1614 430.848C41.1793 430.604 40.9979 430.39 40.7525 430.37C34.735 429.889 28.579 429.766 22.54 429.651C20.2 429.609 17.8386 429.715 15.502 429.872C14.5986 429.931 14.652 429.996 13.7487 430.035C13.6491 430.038 13.4037 430.046 13.2579 430.049V430.057ZM13.2508 430.891H13.2437H13.2472H13.2508ZM341.219 428.799C340.977 428.788 340.575 428.759 340.387 428.753C339.69 428.728 338.992 428.703 338.291 428.678C336.474 428.611 334.64 428.592 332.823 428.589C327.143 428.578 321.473 428.838 315.798 428.631C315.553 428.62 315.346 428.813 315.338 429.058C315.329 429.302 315.52 429.509 315.765 429.517C321.453 429.722 327.132 429.464 332.823 429.473C334.632 429.478 336.454 429.495 338.263 429.562C338.961 429.587 339.658 429.612 340.354 429.637C340.636 429.648 341.358 429.694 341.461 429.683C341.791 429.64 341.845 429.378 341.855 429.299C341.863 429.26 341.884 428.874 341.436 428.784C341.361 428.77 341.286 428.774 341.216 428.795L341.219 428.799ZM14.3675 428.021C14.2999 427.996 14.2252 427.988 14.1505 427.999C13.6989 428.071 13.7096 428.457 13.7131 428.497C13.7202 428.575 13.7664 428.841 14.0936 428.894C14.1968 428.913 14.9223 428.891 15.2032 428.891H17.2979C19.1081 428.891 20.9291 428.938 22.7393 429C28.426 429.196 34.0913 429.662 39.7816 429.662C40.027 429.662 40.2261 429.464 40.2261 429.218C40.2261 428.972 40.027 428.774 39.7816 428.774C34.1019 428.774 28.4437 428.309 22.7677 428.113C20.9504 428.049 19.1153 428.002 17.2979 428.002H15.2032C15.0147 428.002 14.6129 428.016 14.371 428.016L14.3675 428.021ZM340.714 427.235C340.714 427.235 340.521 427.257 340.362 427.257C340.007 427.257 339.497 427.235 338.9 427.193C336.524 427.029 332.812 426.617 331.983 426.575C326.065 426.268 320.072 426.62 314.144 426.642C313.898 426.642 313.699 426.841 313.699 427.087C313.699 427.331 313.898 427.53 314.144 427.526C320.055 427.506 326.029 427.149 331.933 427.459C332.879 427.509 337.591 428.041 339.771 428.127C340.404 428.152 340.853 428.127 341.006 428.071C341.236 427.985 341.353 427.73 341.269 427.501C341.186 427.275 340.938 427.157 340.711 427.235H340.714ZM14.933 426.475C14.7089 426.39 14.4564 426.5 14.3639 426.724C14.2715 426.951 14.3782 427.21 14.6058 427.303C14.7551 427.364 15.2032 427.409 15.8363 427.406C18.02 427.398 22.7463 427.037 23.6923 427.023C29.6031 426.93 35.5601 427.501 41.4673 427.736C41.7127 427.747 41.919 427.555 41.9296 427.311C41.9402 427.065 41.7482 426.858 41.5028 426.847C35.5814 426.61 29.6031 426.038 23.6781 426.131C22.8495 426.145 19.1259 426.422 16.7432 426.497C16.1457 426.514 15.6336 426.522 15.2779 426.506C15.1179 426.5 14.9401 426.475 14.9258 426.475H14.933ZM339.341 426.201C339.458 426.318 339.633 426.369 339.801 426.312C340.041 426.229 340.113 426.081 340.141 426.006C340.209 425.832 340.198 425.633 339.977 425.469C339.927 425.434 339.826 425.381 339.672 425.348C339.408 425.292 338.861 425.253 338.615 425.225C337.805 425.128 337.861 425.164 336.998 425.111C334.715 424.965 332.449 424.78 330.162 424.694C324.446 424.489 318.746 424.61 313.024 424.403C312.778 424.397 312.572 424.585 312.566 424.83C312.558 425.075 312.747 425.281 312.991 425.289C318.713 425.494 324.415 425.373 330.13 425.58C332.41 425.661 334.668 425.849 336.94 425.991C337.78 426.045 337.727 426.01 338.512 426.103C338.679 426.12 339.092 426.17 339.335 426.201H339.341ZM16.3413 425.491C16.5831 425.469 16.9992 425.438 17.1664 425.423C17.9559 425.359 17.9025 425.392 18.7419 425.37C21.0179 425.309 23.2834 425.206 25.563 425.206C31.2818 425.206 36.9756 425.538 42.7014 425.538C42.9468 425.538 43.1458 425.337 43.1458 425.093C43.1458 424.848 42.9468 424.649 42.7014 424.649C36.9756 424.649 31.2818 424.319 25.563 424.319C23.2763 424.319 21.0037 424.422 18.717 424.486C17.8528 424.507 17.9097 424.475 17.0953 424.543C16.8499 424.563 16.3022 424.582 16.0354 424.627C15.8825 424.652 15.7794 424.702 15.7261 424.738C15.502 424.895 15.4842 425.09 15.5447 425.27C15.5695 425.345 15.6371 425.499 15.8754 425.586C16.039 425.65 16.2204 425.608 16.3377 425.494L16.3413 425.491ZM338.392 424.585C338.506 424.727 338.701 424.791 338.886 424.727C339.117 424.649 339.188 424.503 339.217 424.417C339.27 424.266 339.259 424.095 339.109 423.939C339.064 423.889 338.967 423.821 338.826 423.771C338.598 423.693 338.129 423.618 337.911 423.594C336.929 423.48 336.968 423.508 335.949 423.36C333.498 423.004 331.069 422.837 328.597 422.706C322.384 422.371 316.203 422.862 310.007 422.635C309.763 422.624 309.557 422.815 309.549 423.061C309.543 423.306 309.73 423.511 309.976 423.522C316.164 423.746 322.341 423.259 328.547 423.59C330.991 423.721 333.395 423.885 335.817 424.237C336.851 424.386 336.809 424.358 337.805 424.475C337.922 424.489 338.207 424.546 338.388 424.582L338.392 424.585ZM17.3513 423.914C17.5327 423.882 17.8171 423.838 17.9382 423.827C18.9375 423.749 18.8948 423.774 19.9332 423.662C22.3658 423.399 24.777 423.321 27.2239 423.277C33.437 423.17 39.5966 423.885 45.7883 423.885C46.0337 423.885 46.2329 423.687 46.2329 423.441C46.2329 423.195 46.0337 422.997 45.7883 422.997C39.593 422.997 33.4298 422.283 27.2096 422.39C24.7379 422.432 22.3019 422.51 19.8408 422.776C18.8166 422.887 18.8557 422.862 17.8705 422.94C17.6536 422.957 17.1806 423.014 16.9495 423.083C16.8036 423.125 16.7076 423.192 16.6578 423.239C16.5049 423.391 16.4871 423.558 16.5369 423.712C16.5654 423.796 16.6294 423.945 16.8569 424.034C17.0383 424.106 17.2376 424.048 17.3549 423.91L17.3513 423.914ZM337.311 421.598L337.261 421.59C336.069 421.465 334.882 421.305 333.69 421.185C331.642 420.978 329.607 420.833 327.548 420.793C321.139 420.673 314.691 421.372 308.298 421.142C308.052 421.135 307.846 421.324 307.838 421.568C307.827 421.814 308.019 422.02 308.265 422.026C314.667 422.258 321.115 421.559 327.53 421.679C329.565 421.718 331.578 421.861 333.601 422.062C334.793 422.183 335.977 422.343 337.169 422.468C337.203 422.471 337.306 422.493 337.392 422.488C337.495 422.488 337.591 422.465 337.663 422.429C337.816 422.354 337.908 422.23 337.936 422.062C337.976 421.821 337.811 421.593 337.57 421.551C337.481 421.537 337.389 421.551 337.314 421.587L337.311 421.598ZM18.5392 420.964C18.4644 420.925 18.3756 420.908 18.283 420.922C18.0412 420.955 17.867 421.174 17.8989 421.419C17.9204 421.587 18.0092 421.714 18.1587 421.792C18.2262 421.828 18.3223 421.856 18.4253 421.864C18.5107 421.867 18.6174 421.853 18.6529 421.85C19.8478 421.771 21.0393 421.651 22.2343 421.576C24.265 421.448 26.2815 421.377 28.3158 421.412C34.7314 421.526 41.1508 422.46 47.5558 422.46C47.8012 422.46 48.0004 422.261 48.0004 422.016C48.0004 421.771 47.8012 421.573 47.5558 421.573C41.1578 421.573 34.7422 420.637 28.33 420.527C26.2708 420.492 24.2293 420.563 22.1774 420.695C20.9824 420.773 19.7911 420.891 18.5925 420.972H18.5428L18.5392 420.964ZM337.062 421.906C337.062 421.906 337.062 421.92 337.057 421.928V421.906H337.062ZM18.7739 421.285V421.305C18.7739 421.305 18.7739 421.291 18.7739 421.285ZM336.312 420.765C336.404 420.854 336.532 420.908 336.67 420.891C336.915 420.865 337.09 420.645 337.065 420.404C337.054 420.315 337.023 420.215 336.937 420.122C336.876 420.058 336.728 419.952 336.454 419.873C335.675 419.647 333.378 419.323 329.61 419.107C326.42 418.925 323.288 419.205 320.108 419.146C316.413 419.079 312.736 418.822 309.048 418.687C308.803 418.676 308.597 418.869 308.589 419.113C308.582 419.359 308.77 419.565 309.016 419.571C312.708 419.708 316.391 419.963 320.091 420.03C323.259 420.086 326.378 419.806 329.557 419.988C332.457 420.155 334.461 420.379 335.553 420.578C335.891 420.637 336.208 420.729 336.307 420.759L336.312 420.765ZM336.183 420.517V420.496C336.183 420.496 336.183 420.51 336.183 420.517ZM19.567 420.172C19.67 420.147 19.9901 420.066 20.3279 420.016C21.4305 419.856 23.4435 419.703 26.3418 419.643C29.5284 419.576 32.6367 419.974 35.8019 420.03C39.5006 420.094 43.1921 419.974 46.8873 419.974C47.1326 419.974 47.3319 419.775 47.3319 419.529C47.3319 419.284 47.1326 419.085 46.8873 419.085C43.1957 419.085 39.5112 419.205 35.8197 419.143C32.6403 419.085 29.5213 418.69 26.3242 418.758C22.5543 418.836 20.2461 419.074 19.4567 419.277C19.1829 419.348 19.0263 419.448 18.966 419.507C18.877 419.6 18.8379 419.697 18.8272 419.784C18.7916 420.027 18.9624 420.254 19.2041 420.286C19.3394 420.304 19.4709 420.261 19.567 420.172ZM19.7021 419.927C19.7021 419.927 19.7021 419.913 19.7057 419.906V419.927H19.7021ZM335.142 419.071C335.268 419.191 335.461 419.23 335.631 419.157C335.86 419.057 335.916 418.903 335.938 418.819C335.98 418.651 335.955 418.47 335.764 418.329C335.709 418.29 335.606 418.235 335.458 418.207C335.215 418.162 334.729 418.143 334.504 418.129C333.808 418.08 333.107 418.041 332.407 417.997C330.095 417.86 327.798 417.896 325.485 417.913C319.472 417.963 313.387 417.504 307.383 417.806C307.137 417.817 306.95 418.027 306.961 418.271C306.975 418.517 307.181 418.705 307.427 418.694C313.415 418.392 319.489 418.85 325.49 418.802C327.779 418.783 330.056 418.752 332.349 418.886C333.043 418.928 333.741 418.964 334.433 419.017C334.576 419.028 334.921 419.057 335.134 419.074L335.142 419.071ZM20.7974 418.52C21.0109 418.509 21.3559 418.495 21.498 418.489C22.1951 418.464 22.8886 418.45 23.5857 418.435C25.8831 418.382 28.1556 418.5 30.4461 418.598C36.4421 418.864 42.5272 418.626 48.5018 419.149C48.7473 419.171 48.9606 418.989 48.9819 418.744C49.0033 418.5 48.8219 418.285 48.5766 418.265C42.5875 417.745 36.4883 417.98 30.4816 417.714C28.1734 417.611 25.8795 417.497 23.5644 417.547C22.8638 417.561 22.1631 417.575 21.4625 417.603C21.2384 417.611 20.7513 417.611 20.5094 417.647C20.36 417.667 20.2533 417.717 20.2 417.756C20.0044 417.896 19.9723 418.072 20.008 418.24C20.0258 418.321 20.0791 418.478 20.3031 418.587C20.4703 418.67 20.6623 418.637 20.794 418.52H20.7974ZM334.519 416.957C334.313 416.921 333.97 416.861 333.822 416.85C332.733 416.769 332.787 416.73 331.653 416.663C329.537 416.537 327.438 416.275 325.318 416.16C319.497 415.849 313.678 416.062 307.849 415.852C307.603 415.844 307.397 416.034 307.391 416.278C307.38 416.523 307.572 416.73 307.818 416.736C313.643 416.951 319.453 416.733 325.272 417.046C327.388 417.16 329.487 417.423 331.6 417.547C332.726 417.614 332.672 417.653 333.758 417.731C333.978 417.749 334.416 417.866 334.654 417.871C334.813 417.874 334.938 417.838 335.014 417.795C335.142 417.725 335.212 417.622 335.251 417.5C335.284 417.393 335.293 417.245 335.184 417.063C335.056 416.854 334.782 416.786 334.573 416.915C334.554 416.925 334.537 416.935 334.522 416.951L334.519 416.957ZM21.498 416.428C21.498 416.428 21.4661 416.4 21.4483 416.389C21.2456 416.254 20.9682 416.311 20.8331 416.512C20.7156 416.691 20.7228 416.839 20.7477 416.946C20.7797 417.066 20.8507 417.174 20.9752 417.248C21.05 417.295 21.1709 417.337 21.3309 417.337C21.5692 417.337 22.0102 417.237 22.2307 417.231C23.3154 417.188 23.2657 417.149 24.3929 417.124C26.509 417.074 28.618 416.889 30.7341 416.854C36.5594 416.75 42.36 417.181 48.1889 417.181C48.4342 417.181 48.6335 416.982 48.6335 416.736C48.6335 416.492 48.4342 416.292 48.1889 416.292C42.3564 416.292 36.5488 415.866 30.7199 415.969C28.6002 416.005 26.4913 416.19 24.3717 416.239C23.2372 416.264 23.287 416.307 22.1951 416.35C22.0493 416.356 21.7043 416.403 21.498 416.431V416.428ZM333.47 416.029H333.487C333.672 416.062 334.313 415.294 333.615 415.153C333.529 415.142 333.448 415.153 333.373 415.184C333.431 415.148 333.509 415.134 333.615 415.153H333.587C333.278 415.095 331.396 414.782 331.044 414.743C328.569 414.449 326.023 414.452 323.533 414.359C317.121 414.125 310.698 414.328 304.279 414.093C304.033 414.082 303.827 414.275 303.82 414.519C303.81 414.765 304.002 414.971 304.246 414.977C310.666 415.212 317.085 415.01 323.5 415.245C325.965 415.333 328.491 415.329 330.938 415.621C331.282 415.664 333.135 415.969 333.437 416.02H333.47V416.029ZM22.469 414.658C22.5579 414.647 22.6112 414.666 22.6326 414.672C22.5793 414.658 22.5258 414.655 22.469 414.658C21.7684 414.772 22.3765 415.561 22.5651 415.539H22.5827L22.6148 415.533C22.9207 415.494 24.7806 415.254 25.1292 415.223C27.5867 415.017 30.1117 415.117 32.5762 415.117C38.9956 415.117 45.4042 415.55 51.8271 415.55C52.0724 415.55 52.2717 415.351 52.2717 415.106C52.2717 414.86 52.0724 414.661 51.8271 414.661C45.4042 414.661 38.9956 414.228 32.5762 414.228C30.0868 414.228 27.5404 414.132 25.0544 414.339C24.7024 414.367 22.8104 414.608 22.4974 414.65H22.469V414.658ZM22.8459 415.397C22.8175 415.433 22.7784 415.461 22.7393 415.483C22.789 415.455 22.8211 415.422 22.8459 415.397ZM22.7108 414.705C22.7962 414.747 22.8638 414.815 22.9099 414.899C22.878 414.832 22.8211 414.758 22.7108 414.705ZM332.591 413.442C330.88 413.439 328.714 412.793 326.908 412.698C323.586 412.519 320.276 412.644 316.954 412.662C312.742 412.684 308.546 412.357 304.346 412.203C304.1 412.192 303.894 412.385 303.883 412.629C303.877 412.874 304.069 413.081 304.31 413.092C308.525 413.244 312.731 413.571 316.957 413.55C320.261 413.532 323.555 413.408 326.858 413.585C328.678 413.685 330.86 414.328 332.583 414.334C332.829 414.334 333.029 414.136 333.029 413.892C333.029 413.646 332.829 413.447 332.583 413.447L332.591 413.442ZM23.5217 413.873C25.2429 413.931 27.448 413.366 29.2724 413.333C32.5834 413.277 35.866 413.521 39.1698 413.657C43.3878 413.83 47.6057 413.657 51.8235 413.657C52.069 413.657 52.2681 413.458 52.2681 413.212C52.2681 412.967 52.069 412.768 51.8235 412.768C47.6163 412.768 43.4126 412.942 39.2055 412.768C35.8837 412.629 32.5834 412.385 29.2545 412.441C27.4444 412.474 25.2607 413.039 23.5502 412.981C23.3048 412.975 23.0985 413.165 23.0913 413.411C23.0843 413.657 23.2763 413.862 23.5217 413.87V413.873ZM331.606 411.979C331.525 411.909 331.393 411.831 331.212 411.762C330.919 411.652 330.461 411.549 329.917 411.457C328.206 411.166 325.607 410.964 324.941 410.889C319.933 410.327 314.888 410.668 309.862 410.718C307.402 410.743 304.968 410.484 302.515 410.394C302.269 410.388 302.063 410.576 302.056 410.822C302.049 411.066 302.238 411.272 302.483 411.283C304.951 411.372 307.397 411.63 309.873 411.607C314.863 411.552 319.871 411.213 324.842 411.77C325.499 411.845 328.075 412.04 329.767 412.327C330.18 412.399 330.539 412.474 330.796 412.555C330.902 412.587 330.983 412.612 331.026 412.648C331.212 412.807 331.492 412.785 331.653 412.601C331.812 412.416 331.79 412.136 331.606 411.976V411.979ZM25.1434 412.253C25.1861 412.217 25.2714 412.2 25.3782 412.167C25.6378 412.097 25.997 412.033 26.413 411.979C28.1129 411.753 30.6949 411.649 31.3564 411.599C36.3461 411.222 41.3392 411.745 46.3218 411.979C48.7935 412.097 51.2473 411.926 53.7156 411.926C53.961 411.926 54.1601 411.728 54.1601 411.482C54.1601 411.236 53.961 411.037 53.7156 411.037C51.2616 411.037 48.8183 411.208 46.3609 411.091C41.3428 410.856 36.3104 410.335 31.2852 410.715C30.6203 410.764 28.0099 410.872 26.2921 411.102C25.7444 411.177 25.2821 411.261 24.9869 411.361C24.8055 411.421 24.6704 411.496 24.585 411.563C24.3929 411.717 24.3645 411.997 24.5174 412.189C24.6704 412.382 24.9514 412.41 25.1434 412.256V412.253ZM329.699 410.911C329.796 411.017 329.945 411.077 330.098 411.052C330.341 411.017 330.506 410.789 330.472 410.548C330.458 410.452 330.411 410.341 330.3 410.243C330.212 410.16 329.978 410.05 329.632 409.966C328.395 409.659 325.314 409.34 324.756 409.307C318.233 408.931 311.715 408.725 305.189 408.487C304.943 408.479 304.737 408.672 304.731 408.913C304.723 409.158 304.912 409.365 305.158 409.371C311.676 409.609 318.191 409.815 324.706 410.189C325.3 410.224 328.907 410.584 329.699 410.903V410.911ZM26.5339 410.562C27.3413 410.271 30.9545 410.039 31.552 410.028C38.0745 409.891 44.5934 409.922 51.1194 409.922C51.3648 409.922 51.5639 409.723 51.5639 409.477C51.5639 409.233 51.3648 409.035 51.1194 409.035C44.5898 409.035 38.0639 409.005 31.5342 409.144C30.9759 409.155 27.8854 409.362 26.6371 409.625C26.2885 409.698 26.0538 409.798 25.9613 409.876C25.8475 409.972 25.7978 410.081 25.7799 410.178C25.7338 410.419 25.8938 410.651 26.1356 410.696C26.2885 410.725 26.4378 410.671 26.5411 410.57L26.5339 410.562ZM328.882 409.407C328.971 409.499 329.096 409.556 329.233 409.549C329.571 409.532 329.66 409.29 329.682 409.2C329.71 409.091 329.735 408.878 329.493 408.708C329.448 408.675 329.326 408.615 329.116 408.548C328.775 408.437 328.114 408.255 327.061 407.989C324.895 407.442 322.818 407.229 320.595 407.148C314.155 406.913 307.689 406.949 301.238 406.714C300.993 406.706 300.786 406.896 300.779 407.14C300.768 407.385 300.96 407.592 301.206 407.598C307.657 407.833 314.119 407.797 320.563 408.032C322.721 408.11 324.739 408.316 326.844 408.845C327.929 409.119 328.583 409.297 328.885 409.401L328.882 409.407ZM27.4053 409.091C27.7076 408.999 28.3727 408.845 29.4644 408.611C31.5875 408.157 33.6076 408.025 35.77 408.025C42.2141 408.025 48.6726 408.294 55.1275 408.294C55.3728 408.294 55.5719 408.096 55.5719 407.852C55.5719 407.606 55.3728 407.407 55.1275 407.407C48.6726 407.407 42.2141 407.137 35.77 407.137C33.5436 407.137 31.4631 407.276 29.276 407.741C28.2161 407.968 27.5476 408.124 27.2026 408.224C26.9891 408.285 26.8646 408.341 26.8185 408.373C26.5695 408.532 26.5874 408.747 26.6122 408.856C26.6335 408.945 26.7118 409.186 27.0496 409.219C27.1884 409.233 27.3163 409.18 27.4053 409.091ZM328.203 407.676C328.203 407.676 328.223 407.687 328.234 407.691C328.466 407.777 328.722 407.656 328.803 407.428C328.85 407.304 328.875 407.116 328.683 406.946C328.664 406.93 328.566 406.857 328.365 406.803C327.584 406.6 323.547 405.758 322.352 405.644C317.906 405.221 315.001 405.68 310.777 405.875C307.682 406.018 304.53 405.702 301.437 405.588C301.192 405.581 300.985 405.769 300.979 406.015C300.968 406.259 301.16 406.465 301.404 406.473C304.524 406.586 307.7 406.902 310.819 406.76C314.994 406.569 317.872 406.107 322.266 406.526C323.433 406.636 327.377 407.461 328.139 407.659C328.156 407.662 328.181 407.67 328.195 407.673L328.203 407.676ZM328.057 407.573C327.949 407.456 327.91 407.282 327.968 407.123C327.924 407.24 327.899 407.41 328.057 407.573ZM28.1486 407.385C28.1486 407.385 28.1841 407.379 28.2055 407.371C28.9773 407.201 32.9461 406.522 34.1162 406.451C38.5226 406.192 41.3819 406.756 45.55 407.101C48.6619 407.36 51.8485 407.159 54.9673 407.159C55.2129 407.159 55.4119 406.96 55.4119 406.714C55.4119 406.468 55.2129 406.27 54.9673 406.27C51.8734 406.27 48.7117 406.473 45.6247 406.217C41.414 405.869 38.5225 405.303 34.0664 405.567C32.8679 405.638 28.8029 406.331 28.0135 406.504C27.8142 406.547 27.7112 406.619 27.6933 406.633C27.4942 406.799 27.5119 406.983 27.5546 407.112C27.6294 407.346 27.8818 407.475 28.1165 407.396C28.1271 407.393 28.1379 407.389 28.1522 407.382L28.1486 407.385ZM28.3228 407.254C28.4437 407.105 28.4366 406.96 28.3975 406.838C28.4473 406.988 28.4118 407.14 28.3228 407.254ZM326.858 405.979C326.925 406.121 327.067 406.224 327.235 406.234C327.48 406.248 327.69 406.06 327.704 405.814C327.715 405.591 327.659 405.464 327.591 405.372C327.513 405.268 327.377 405.176 327.089 405.118C325.155 404.724 323.131 404.558 321.172 404.304C313.831 403.356 306.451 404.032 299.09 403.502C298.844 403.485 298.632 403.669 298.613 403.915C298.596 404.159 298.78 404.373 299.026 404.391C306.37 404.919 313.731 404.242 321.057 405.19C322.978 405.439 324.959 405.602 326.858 405.985V405.979ZM29.5534 405.733C31.4667 405.42 33.4512 405.328 35.3787 405.151C42.7334 404.472 50.0666 405.414 57.4248 405.151C57.6703 405.143 57.8624 404.938 57.8516 404.693C57.841 404.447 57.6347 404.256 57.3929 404.262C50.0169 404.525 42.6657 403.585 35.2969 404.262C33.3302 404.444 31.3031 404.539 29.3542 404.863C29.0661 404.913 28.9274 404.998 28.8456 405.098C28.771 405.187 28.7105 405.314 28.7141 405.537C28.7175 405.783 28.9203 405.979 29.1693 405.976C29.3399 405.976 29.4822 405.872 29.5568 405.733H29.5534ZM325.51 404.315C325.602 404.436 325.752 404.511 325.916 404.494C326.16 404.466 326.336 404.248 326.307 404.002C326.289 403.848 326.171 403.633 325.88 403.506C325.468 403.325 324.465 403.208 324.34 403.179C322.634 402.802 320.957 402.478 319.212 402.338C311.846 401.726 304.482 402.5 297.141 401.914C296.896 401.896 296.681 402.078 296.661 402.322C296.642 402.568 296.824 402.78 297.069 402.802C304.41 403.389 311.776 402.615 319.137 403.225C320.845 403.367 322.481 403.683 324.148 404.049C324.226 404.067 324.689 404.12 325.097 404.206C325.239 404.234 325.429 404.295 325.507 404.323L325.51 404.315ZM30.9581 404.125C31.0364 404.103 31.2285 404.046 31.3706 404.024C31.7832 403.954 32.2455 403.918 32.3273 403.904C34.0095 403.599 35.6561 403.339 37.3667 403.261C44.7463 402.92 52.0796 403.96 59.4342 403.641C59.6796 403.63 59.8682 403.424 59.8574 403.179C59.8468 402.934 59.6405 402.741 59.3951 402.752C52.0369 403.073 44.7036 402.031 37.3242 402.372C35.5743 402.453 33.8886 402.716 32.1673 403.029C32.0428 403.051 31.0364 403.133 30.6167 403.3C30.318 403.417 30.1935 403.627 30.1721 403.783C30.1366 404.024 30.3038 404.251 30.5455 404.287C30.7057 404.312 30.8621 404.245 30.9581 404.125ZM325.436 404.156V404.167V404.15V404.159V404.156ZM325.432 404.128V404.142V404.12V404.128ZM31.0399 403.957V403.974V403.963V403.954V403.957ZM31.0471 403.935V403.957V403.943V403.935ZM324.876 401.904C318.21 400.401 311.832 400.685 305.022 400.677C302.333 400.674 299.659 400.266 296.971 400.169C296.725 400.163 296.519 400.35 296.511 400.596C296.505 400.842 296.692 401.047 296.938 401.058C299.634 401.158 302.319 401.566 305.018 401.569C311.762 401.58 318.074 401.289 324.678 402.774C324.917 402.827 325.155 402.679 325.208 402.436C325.261 402.198 325.113 401.961 324.87 401.907L324.876 401.904ZM31.8437 402.61C38.4977 401.363 44.796 401.885 51.5354 402.12C54.2348 402.216 56.9305 401.904 59.6299 401.904C59.8752 401.904 60.0743 401.704 60.0743 401.46C60.0743 401.214 59.8752 401.015 59.6299 401.015C56.9413 401.015 54.2526 401.328 51.5675 401.231C44.7605 400.994 38.4017 400.479 31.6801 401.737C31.4382 401.782 31.2782 402.014 31.3245 402.255C31.3706 402.497 31.6018 402.654 31.8437 402.61ZM323.064 400.976C323.181 401.097 323.358 401.147 323.525 401.086C323.771 401.001 323.832 400.837 323.857 400.749C323.893 400.607 323.882 400.432 323.707 400.283C323.664 400.247 323.583 400.194 323.452 400.152C323.245 400.088 322.79 400.006 322.291 399.9C321.15 399.654 321.203 399.651 320.072 399.438C318.149 399.078 316.234 398.859 314.28 398.787C310.822 398.664 307.333 399.025 303.877 399.114C300.901 399.193 297.881 398.952 294.908 398.84C294.662 398.83 294.456 399.022 294.448 399.268C294.442 399.512 294.63 399.718 294.875 399.726C297.87 399.836 300.907 400.077 303.902 399.998C307.341 399.911 310.811 399.548 314.25 399.673C316.164 399.74 318.035 399.953 319.913 400.308C321.032 400.518 320.979 400.526 322.11 400.767C322.459 400.842 322.864 400.929 323.07 400.973L323.064 400.976ZM33.5258 400.876C33.7357 400.837 34.141 400.767 34.4932 400.702C35.6313 400.504 35.5779 400.493 36.7053 400.325C38.5973 400.042 40.475 399.897 42.3885 399.897C45.8274 399.897 49.2842 400.386 52.7161 400.599C55.7072 400.784 58.7514 400.652 61.746 400.652C61.9913 400.652 62.1904 400.454 62.1904 400.208C62.1904 399.964 61.9913 399.765 61.746 399.765C58.7693 399.765 55.7427 399.897 52.7731 399.712C49.3199 399.495 45.8452 399.005 42.3885 399.005C40.4288 399.005 38.5083 399.153 36.5736 399.441C35.4356 399.612 35.4889 399.62 34.3403 399.822C33.8387 399.911 33.3801 399.975 33.1738 400.031C33.0421 400.067 32.9569 400.12 32.9106 400.152C32.7292 400.297 32.7115 400.468 32.7434 400.61C32.7648 400.703 32.8182 400.87 33.0599 400.962C33.2271 401.026 33.4085 400.983 33.5258 400.867V400.876ZM323.188 400.269C323.188 400.269 323.177 400.277 323.173 400.277L323.195 400.266H323.188V400.269ZM323.206 400.261H323.198L323.216 400.258H323.206V400.261ZM323.22 400.258L323.241 400.252C323.241 400.252 323.227 400.255 323.22 400.258ZM33.437 400.174L33.4512 400.185L33.4404 400.177C33.4404 400.177 33.4298 400.174 33.4262 400.169H33.4192L33.437 400.177V400.174ZM33.3979 400.152L33.4156 400.163H33.4085L33.3979 400.152ZM33.3979 400.152C33.3979 400.152 33.3837 400.145 33.3765 400.145L33.3979 400.152ZM322.327 398.393C319.955 398.085 317.59 397.523 315.157 397.359C308.667 396.919 300.619 397.381 294.378 397.568C294.132 397.576 293.94 397.783 293.948 398.027C293.954 398.272 294.16 398.465 294.406 398.457C300.619 398.272 308.636 397.811 315.098 398.247C317.515 398.412 319.86 398.969 322.213 399.274C322.456 399.307 322.679 399.136 322.712 398.891C322.743 398.65 322.573 398.426 322.327 398.393ZM34.4363 399.203C36.8013 398.98 39.1628 398.51 41.5846 398.435C48.068 398.233 54.5548 398.977 61.0382 398.977C61.2835 398.977 61.4828 398.776 61.4828 398.532C61.4828 398.287 61.2835 398.088 61.0382 398.088C54.5442 398.088 48.0502 397.345 41.5562 397.548C39.1165 397.622 36.7338 398.094 34.3509 398.318C34.1055 398.34 33.9277 398.557 33.949 398.801C33.9704 399.047 34.1873 399.224 34.4327 399.203H34.4363Z" fill="#525252"/>
<path fill-rule="evenodd" clip-rule="evenodd" d="M303.012 397.285L55.8637 397.814L25.7588 445.611H324.242L303.012 397.285Z" fill="#525252"/>
<path fill-rule="evenodd" clip-rule="evenodd" d="M249.365 393.693C249.365 393.693 247.543 395.999 244.446 397.683C244.446 397.683 242.319 398.955 233.681 401.609C233.681 401.609 220.827 405.439 225.344 409.147C225.344 409.147 223.73 410.252 224.288 411.904C224.288 411.904 224.964 413.76 229.733 413.173C229.733 413.173 237.134 412.505 250.214 408.523C250.214 408.523 246.772 410.452 233.681 416.165C233.681 416.165 214.526 423.975 223.336 427.325C223.336 427.325 222.41 428.614 223.953 429.971C223.953 429.971 225.678 431.382 229.05 429.385C229.05 429.385 226.016 432.188 227.752 433.918C227.752 433.918 228.93 434.945 230.608 433.918C230.608 433.918 229.608 435.493 230.917 436.693C230.917 436.693 232.684 438.395 236.5 435.951C236.5 435.951 236.098 437.084 237.396 438.278C237.396 438.278 239.179 440.126 246.426 437.414C246.426 437.414 267.986 430.135 276.335 426.642C276.335 426.642 286.166 423.03 284.865 415.603C284.865 415.603 282.866 403.331 283.338 398.902L255.723 392.255L249.371 393.693H249.365Z" fill="#F6CEAE"/>
<mask id="mask0_540_445" style="mask-type:luminance" maskUnits="userSpaceOnUse" x="221" y="392" width="64" height="47">
<path d="M249.365 393.693C249.365 393.693 247.543 395.999 244.446 397.683C244.446 397.683 242.319 398.955 233.681 401.609C233.681 401.609 220.827 405.439 225.344 409.147C225.344 409.147 223.73 410.252 224.288 411.904C224.288 411.904 224.964 413.76 229.733 413.173C229.733 413.173 237.134 412.505 250.214 408.523C250.214 408.523 246.772 410.452 233.681 416.165C233.681 416.165 214.526 423.975 223.336 427.325C223.336 427.325 222.41 428.614 223.953 429.971C223.953 429.971 225.678 431.382 229.05 429.385C229.05 429.385 226.016 432.188 227.752 433.918C227.752 433.918 228.93 434.945 230.608 433.918C230.608 433.918 229.608 435.493 230.917 436.693C230.917 436.693 232.684 438.395 236.5 435.951C236.5 435.951 236.098 437.084 237.396 438.278C237.396 438.278 239.179 440.126 246.426 437.414C246.426 437.414 267.986 430.135 276.335 426.642C276.335 426.642 286.166 423.03 284.865 415.603C284.865 415.603 282.866 403.331 283.338 398.902L255.723 392.255L249.371 393.693H249.365Z" fill="white"/>
</mask>
<g mask="url(#mask0_540_445)">
<path fill-rule="evenodd" clip-rule="evenodd" d="M250.186 408.551C250.186 408.551 256.129 404.919 256.709 401.53C256.709 401.53 276.329 402.394 284.715 411.748L288.932 406.65C288.932 406.65 284.285 393.365 283.925 392.946C283.567 392.527 258.177 394.084 258.177 394.084L244.709 382.927L218.691 401.527V418.204L250.189 408.548L250.186 408.551Z" fill="#E2BEA0"/>
</g>
<mask id="mask1_540_445" style="mask-type:luminance" maskUnits="userSpaceOnUse" x="221" y="392" width="64" height="27">
<mask id="mask2_540_445" style="mask-type:luminance" maskUnits="userSpaceOnUse" x="218" y="382" width="71" height="37">
<path d="M250.186 408.551C250.186 408.551 256.129 404.919 256.709 401.53C256.709 401.53 276.329 402.394 284.715 411.748L288.932 406.65C288.932 406.65 284.285 393.365 283.925 392.946C283.567 392.527 258.177 394.084 258.177 394.084L244.709 382.927L218.691 401.527V418.204L250.189 408.548L250.186 408.551Z" fill="white"/>
</mask>
<g mask="url(#mask2_540_445)">
<path d="M249.365 393.693C249.365 393.693 247.543 395.999 244.446 397.683C244.446 397.683 242.319 398.955 233.681 401.609C233.681 401.609 220.827 405.439 225.344 409.147C225.344 409.147 223.73 410.252 224.288 411.904C224.288 411.904 224.964 413.76 229.733 413.173C229.733 413.173 237.134 412.505 250.214 408.523C250.214 408.523 246.772 410.452 233.681 416.165C233.681 416.165 214.526 423.975 223.336 427.325C223.336 427.325 222.41 428.614 223.953 429.971C223.953 429.971 225.678 431.382 229.05 429.385C229.05 429.385 226.016 432.188 227.752 433.918C227.752 433.918 228.93 434.945 230.608 433.918C230.608 433.918 229.608 435.493 230.917 436.693C230.917 436.693 232.684 438.395 236.5 435.951C236.5 435.951 236.098 437.084 237.396 438.278C237.396 438.278 239.179 440.126 246.426 437.414C246.426 437.414 267.986 430.135 276.335 426.642C276.335 426.642 286.166 423.03 284.865 415.603C284.865 415.603 282.866 403.331 283.338 398.902L255.723 392.255L249.371 393.693H249.365Z" fill="white"/>
</g>
</mask>
<g mask="url(#mask1_540_445)">
<path fill-rule="evenodd" clip-rule="evenodd" d="M233.834 405.118C233.834 405.118 229.21 406.404 226.016 407.777C224.54 408.409 223.37 409.094 222.973 409.656C222.801 409.897 222.862 410.227 223.104 410.398C223.345 410.568 223.677 410.509 223.847 410.266C223.964 410.103 224.182 409.933 224.458 409.756C224.964 409.429 225.658 409.091 226.44 408.753C229.577 407.407 234.122 406.142 234.122 406.142C234.406 406.063 234.574 405.769 234.491 405.484C234.413 405.201 234.119 405.034 233.834 405.115V405.118Z" fill="#A38C79"/>
</g>
<mask id="mask3_540_445" style="mask-type:luminance" maskUnits="userSpaceOnUse" x="221" y="392" width="64" height="47">
<path d="M249.365 393.693C249.365 393.693 247.543 395.999 244.446 397.683C244.446 397.683 242.319 398.955 233.681 401.609C233.681 401.609 220.827 405.439 225.344 409.147C225.344 409.147 223.73 410.252 224.288 411.904C224.288 411.904 224.964 413.76 229.733 413.173C229.733 413.173 237.134 412.505 250.214 408.523C250.214 408.523 246.772 410.452 233.681 416.165C233.681 416.165 214.526 423.975 223.336 427.325C223.336 427.325 222.41 428.614 223.953 429.971C223.953 429.971 225.678 431.382 229.05 429.385C229.05 429.385 226.016 432.188 227.752 433.918C227.752 433.918 228.93 434.945 230.608 433.918C230.608 433.918 229.608 435.493 230.917 436.693C230.917 436.693 232.684 438.395 236.5 435.951C236.5 435.951 236.098 437.084 237.396 438.278C237.396 438.278 239.179 440.126 246.426 437.414C246.426 437.414 267.986 430.135 276.335 426.642C276.335 426.642 286.166 423.03 284.865 415.603C284.865 415.603 282.866 403.331 283.338 398.902L255.723 392.255L249.371 393.693H249.365Z" fill="white"/>
</mask>
<g mask="url(#mask3_540_445)">
<path fill-rule="evenodd" clip-rule="evenodd" d="M240.754 431.911C240.754 431.911 237.934 432.98 236.355 434.501C235.573 435.258 235.099 436.128 235.221 437.023C235.26 437.315 235.526 437.52 235.822 437.481C236.114 437.442 236.319 437.176 236.28 436.882C236.231 436.516 236.374 436.167 236.604 435.837C236.885 435.432 237.298 435.054 237.756 434.715C239.218 433.627 241.131 432.906 241.131 432.906C241.405 432.803 241.547 432.493 241.444 432.221C241.341 431.942 241.032 431.805 240.759 431.908L240.754 431.911ZM235.448 429.584C235.448 429.584 233.393 430.451 231.526 431.776C230.217 432.703 229.019 433.862 228.589 435.084C228.489 435.361 228.637 435.666 228.916 435.762C229.192 435.859 229.499 435.713 229.594 435.435C229.965 434.388 231.028 433.432 232.145 432.639C233.915 431.385 235.864 430.561 235.864 430.561C236.134 430.448 236.263 430.135 236.148 429.861C236.036 429.59 235.721 429.464 235.448 429.576V429.584ZM232.234 426.531C232.234 426.531 226.906 428.703 225.078 431.606C224.921 431.855 224.996 432.185 225.245 432.341C225.494 432.498 225.825 432.423 225.982 432.174C227.674 429.492 232.631 427.523 232.631 427.523C232.905 427.412 233.036 427.104 232.927 426.83C232.816 426.556 232.508 426.425 232.234 426.536V426.531ZM228.784 422.908C228.784 422.908 225.678 423.956 223.673 425.547C222.724 426.305 222.027 427.189 221.891 428.127C221.848 428.419 222.052 428.689 222.343 428.731C222.635 428.774 222.906 428.572 222.948 428.279C223.012 427.832 223.282 427.412 223.645 427.018C224.061 426.567 224.601 426.156 225.181 425.785C226.981 424.638 229.125 423.917 229.125 423.917C229.402 423.824 229.555 423.519 229.46 423.242C229.367 422.965 229.061 422.812 228.784 422.908Z" fill="#E2BEA0"/>
</g>
<path fill-rule="evenodd" clip-rule="evenodd" d="M238.876 242.899C238.876 242.899 245.446 297.14 248.969 303.695V393.757C248.969 393.757 250.345 394.621 252.255 394.965V397.335C252.255 397.335 268.377 404.749 287.397 398.586C287.397 398.586 289.239 313.121 284.722 293.695L287.397 240.543L245.217 237.089C245.217 237.089 242.404 239.083 241.056 240.543" fill="#5C6248"/>
<mask id="mask4_540_445" style="mask-type:luminance" maskUnits="userSpaceOnUse" x="238" y="237" width="50" height="165">
<path d="M238.876 242.899C238.876 242.899 245.446 297.14 248.969 303.695V393.757C248.969 393.757 250.345 394.621 252.255 394.965V397.335C252.255 397.335 268.377 404.749 287.397 398.586C287.397 398.586 289.239 313.121 284.722 293.695L287.397 240.543L245.217 237.089C245.217 237.089 242.404 239.083 241.056 240.543" fill="white"/>
</mask>
<g mask="url(#mask4_540_445)">
<path fill-rule="evenodd" clip-rule="evenodd" d="M241.409 243.45C241.409 243.45 251.512 301.595 253.273 307.483L252.259 394.965L223.442 407.542C223.442 407.542 220.43 250.961 219.509 248.302C218.588 245.645 235.632 231.018 235.632 231.018L241.409 243.45Z" fill="#454A34"/>
</g>
<path fill-rule="evenodd" clip-rule="evenodd" d="M240.512 82.5933C240.512 82.5933 238.613 83.3785 237.714 87.7344C237.714 87.7344 233.667 90.6441 227.961 114.438C227.961 114.438 222.599 138.661 222.239 141.976C222.239 141.976 211.115 138.96 206.281 147.916C206.281 147.916 198.326 162.892 216.425 167.304L227.45 174.745L225.237 239.211C225.237 239.211 260.338 253.397 297.671 240.248C297.671 240.248 294.37 144.427 290.75 112.704C290.75 112.704 289.039 92.8363 270.705 71.1211L268.064 65.2661L266.484 66.6481L246.493 78.1168L240.512 82.5933Z" fill="#8F9B87"/>
<mask id="mask5_540_445" style="mask-type:luminance" maskUnits="userSpaceOnUse" x="204" y="65" width="94" height="181">
<path d="M240.512 82.5933C240.512 82.5933 238.613 83.3785 237.714 87.7344C237.714 87.7344 233.667 90.6441 227.961 114.438C227.961 114.438 222.599 138.661 222.239 141.976C222.239 141.976 211.115 138.96 206.281 147.916C206.281 147.916 198.326 162.892 216.425 167.304L227.45 174.745L225.237 239.211C225.237 239.211 260.338 253.397 297.671 240.248C297.671 240.248 294.37 144.427 290.75 112.704C290.75 112.704 289.039 92.8363 270.705 71.1211L268.064 65.2661L266.484 66.6481L246.493 78.1168L240.512 82.5933Z" fill="white"/>
</mask>
<g mask="url(#mask5_540_445)">
<path fill-rule="evenodd" clip-rule="evenodd" d="M283.992 110.32C283.992 110.32 276.944 132.721 267.57 150.546C263.604 158.08 259.241 164.799 254.802 168.58C254.791 168.591 254.777 168.602 254.766 168.613C254.766 168.613 247.163 175.621 234.544 173.562C233.965 173.465 233.413 173.859 233.318 174.443C233.221 175.022 233.617 175.572 234.2 175.668C247.582 177.857 255.769 170.59 256.204 170.193C260.798 166.27 265.357 159.343 269.461 151.54C278.917 133.559 286.035 110.963 286.035 110.963C286.211 110.402 285.898 109.805 285.337 109.627C284.776 109.45 284.178 109.762 284 110.323L283.992 110.32ZM234.672 147.771C234.672 147.771 240.634 148.879 244.425 140.935C244.592 140.598 250.445 128.557 261.181 89.1272C261.335 88.5587 261 87.9724 260.432 87.8197C259.863 87.667 259.275 88.0009 259.123 88.5694C248.311 128.269 242.507 140.001 242.507 140.001C242.507 140.004 242.504 140.011 242.501 140.015C239.512 146.279 235.015 145.671 235.015 145.671C234.434 145.575 233.882 145.97 233.787 146.552C233.692 147.131 234.086 147.682 234.669 147.778L234.672 147.771Z" fill="#747F6C"/>
<path fill-rule="evenodd" clip-rule="evenodd" d="M237.218 90.3208C237.218 90.3208 230.156 101.914 229.43 144.832L232.908 147.717C232.908 147.717 226.166 149.309 226.635 159.288C226.635 159.288 218.295 157.864 217.723 157.907C217.151 157.946 217.723 121.881 217.723 121.881L229.43 83.6592L239.25 84.4267L240.138 87.7805L237.218 90.3208Z" fill="#747F6C"/>
<path fill-rule="evenodd" clip-rule="evenodd" d="M222.236 141.976C222.236 141.976 224.882 143.084 225.885 143.951L217.477 156.322L220.159 170.076L217.477 181.406C217.477 181.406 192.174 170.498 191.476 170.076C190.779 169.653 200.336 136.984 200.652 136.306C200.969 135.627 218.946 132.863 218.946 132.863L222.236 141.98V141.976ZM237.709 87.7344L237.215 90.3209C237.215 90.3209 257.846 84.6541 270.71 71.0857L274.454 66.1081L263.479 59.4644L237.218 81.2931L237.714 87.7308L237.709 87.7344Z" fill="#E0C389"/>
</g>
<path fill-rule="evenodd" clip-rule="evenodd" d="M239.182 147.003C239.182 147.003 230.415 142.942 219.942 143.784C219.942 143.784 216.439 144.104 212.562 149.202C212.562 149.202 210.091 152.311 211.655 159.534C211.655 159.534 212.42 164.53 218.197 169.567C218.197 169.567 224.982 174.133 228.318 175.302C228.318 175.302 235.249 181.462 238.136 177.487C238.136 177.487 239.392 175.593 236.12 174.371C236.12 174.371 230.999 173.056 226.831 165.965C226.831 165.965 231.297 170.69 233.645 168.63C233.645 168.63 235.593 166.437 232.397 164.014C232.397 164.014 226.443 159.05 224.327 155.676C224.327 155.676 222.802 153.541 224.327 150.99C224.327 150.99 224.885 149.679 229.402 148.36C229.402 148.36 230.808 147.923 234.247 147.788C234.247 147.788 237.842 147.653 239.179 147.007L239.182 147.003Z" fill="#F6CEAE"/>
<mask id="mask6_540_445" style="mask-type:luminance" maskUnits="userSpaceOnUse" x="211" y="143" width="29" height="36">
<path d="M239.182 147.003C239.182 147.003 230.415 142.942 219.942 143.784C219.942 143.784 216.439 144.104 212.562 149.202C212.562 149.202 210.091 152.311 211.655 159.534C211.655 159.534 212.42 164.53 218.197 169.567C218.197 169.567 224.982 174.133 228.318 175.302C228.318 175.302 235.249 181.462 238.136 177.487C238.136 177.487 239.392 175.593 236.12 174.371C236.12 174.371 230.999 173.056 226.831 165.965C226.831 165.965 231.297 170.69 233.645 168.63C233.645 168.63 235.593 166.437 232.397 164.014C232.397 164.014 226.443 159.05 224.327 155.676C224.327 155.676 222.802 153.541 224.327 150.99C224.327 150.99 224.885 149.679 229.402 148.36C229.402 148.36 230.808 147.923 234.247 147.788C234.247 147.788 237.842 147.653 239.179 147.007L239.182 147.003Z" fill="white"/>
</mask>
<g mask="url(#mask6_540_445)">
<path fill-rule="evenodd" clip-rule="evenodd" d="M214.786 162.017C214.786 162.017 221.572 171.319 228.204 176.591C228.435 176.775 228.769 176.736 228.955 176.506C229.139 176.275 229.1 175.941 228.869 175.757C222.332 170.562 215.649 161.393 215.649 161.393C215.476 161.155 215.141 161.1 214.903 161.275C214.664 161.449 214.611 161.782 214.786 162.022V162.017ZM218.761 158.866C218.761 158.866 226.546 167.919 231.497 171.163C231.743 171.322 232.073 171.255 232.237 171.009C232.397 170.765 232.329 170.434 232.084 170.271C227.216 167.08 219.573 158.169 219.573 158.169C219.381 157.946 219.043 157.921 218.822 158.113C218.599 158.306 218.574 158.642 218.764 158.863L218.761 158.866Z" fill="#E2BEA0"/>
</g>
<path fill-rule="evenodd" clip-rule="evenodd" d="M206.549 39.0921C206.549 39.0921 211.375 68.8296 221.193 79.3175C221.193 79.3175 227.616 86.775 237.038 78.6C237.038 78.6 237.215 78.5396 240.512 82.5933C247.074 81.1331 255.634 76.2834 266.513 66.6161L260.94 55.2007L252.441 34.6936L228.922 20.9333L208.28 35.0809L206.552 39.0921H206.549Z" fill="#F6CEAE"/>
<path fill-rule="evenodd" clip-rule="evenodd" d="M226.906 32.4482C226.906 32.4482 228.517 39.1738 234.306 38.886C234.306 38.886 242.884 37.9835 243.785 44.0839C243.785 44.0839 246.331 37.0207 250.306 40.4813C250.306 40.4813 254.504 43.9346 251.296 54.9734C251.296 54.9734 253.262 58.9775 258.526 57.3538C258.526 57.3538 261.108 56.4372 261.474 54.3445C261.474 54.3445 261.965 51.0866 261.2 43.9773C261.2 43.9773 259.692 32.9562 258.465 27.9147L244.994 23.3706L229.103 29.9363L226.909 32.4447L226.906 32.4482Z" fill="#7E4210"/>
<path fill-rule="evenodd" clip-rule="evenodd" d="M200.95 11.1418C200.95 11.1418 220.841 -1.79415 250.311 0.209664C250.311 0.209664 255.517 11.6961 258.579 28.1601C258.579 28.1601 235.897 28.5474 206.114 39.4262C206.114 39.4262 201.896 25.0016 200.95 11.1383V11.1418Z" fill="#5C6248"/>
<mask id="mask7_540_445" style="mask-type:luminance" maskUnits="userSpaceOnUse" x="200" y="-1" width="59" height="41">
<path d="M200.95 11.1418C200.95 11.1418 220.841 -1.79415 250.311 0.209664C250.311 0.209664 255.517 11.6961 258.579 28.1601C258.579 28.1601 235.897 28.5474 206.114 39.4262C206.114 39.4262 201.896 25.0016 200.95 11.1383V11.1418Z" fill="white"/>
</mask>
<g mask="url(#mask7_540_445)">
<path fill-rule="evenodd" clip-rule="evenodd" d="M204.205 9.12034C204.205 9.12034 205.695 25.4884 208.76 28.3022C208.76 28.3022 210.273 30.0219 217.054 29.4249C217.054 29.4249 236.252 26.0569 260.321 26.4584L266.506 37.3513L221.39 60.5836C221.39 60.5836 189.559 50.4436 188.668 49.3956C187.775 48.351 188.475 20.3118 188.475 20.3118L194.698 6.01514L204.202 9.11678L204.205 9.12034Z" fill="#454A34"/>
</g>
</g>
</g>
<defs>
<filter id="filter0_d_540_445" x="2.25464" y="-0.0012207" width="350.491" height="453.946" filterUnits="userSpaceOnUse" color-interpolation-filters="sRGB">
<feFlood flood-opacity="0" result="BackgroundImageFix"/>
<feColorMatrix in="SourceAlpha" type="matrix" values="0 0 0 0 0 0 0 0 0 0 0 0 0 0 0 0 0 0 127 0" result="hardAlpha"/>
<feOffset dy="4"/>
<feGaussianBlur stdDeviation="2"/>
<feComposite in2="hardAlpha" operator="out"/>
<feColorMatrix type="matrix" values="0 0 0 0 0 0 0 0 0 0 0 0 0 0 0 0 0 0 0.25 0"/>
<feBlend mode="normal" in2="BackgroundImageFix" result="effect1_dropShadow_540_445"/>
<feBlend mode="normal" in="SourceGraphic" in2="effect1_dropShadow_540_445" result="shape"/>
</filter>
<clipPath id="clip0_540_445">
<rect width="355" height="458.463" fill="white"/>
</clipPath>
</defs>
</svg>
