<svg width="355" height="456" viewBox="0 0 355 456" fill="none" xmlns="http://www.w3.org/2000/svg">
<g filter="url(#filter0_d_540_553)">
<path fill-rule="evenodd" clip-rule="evenodd" d="M343.067 442.06C342.162 442.177 341.323 442.291 340.697 442.287C334.801 442.277 329.709 442.955 323.869 442.185C323.628 442.152 323.403 442.323 323.371 442.564C323.34 442.806 323.511 443.03 323.755 443.061C329.639 443.836 334.76 443.16 340.697 443.174C341.874 443.174 343.782 442.792 345.493 442.692C346.527 442.631 347.484 442.664 348.11 443.019C348.323 443.139 348.594 443.065 348.719 442.852C348.839 442.639 348.764 442.368 348.551 442.249C348.295 442.102 347.993 441.997 347.656 441.925C347.687 441.869 347.708 441.805 347.712 441.734C347.726 441.489 347.542 441.279 347.296 441.265C343.604 441.044 339.57 441.304 335.785 441.229C331.648 441.152 327.533 440.764 323.407 440.615C323.162 440.606 322.955 440.797 322.949 441.041C322.941 441.287 323.129 441.492 323.375 441.503C327.508 441.653 331.628 442.039 335.768 442.116C338.155 442.163 340.637 442.074 343.07 442.06H343.067ZM7.37333 440.903C7.03541 440.963 6.72951 441.06 6.46629 441.194C6.24932 441.307 6.16395 441.573 6.27779 441.794C6.3916 442.011 6.65838 442.096 6.8789 441.983C7.5156 441.653 8.47598 441.656 9.50751 441.751C11.2113 441.911 13.1036 442.365 14.281 442.407C20.214 442.614 25.3112 443.473 31.2157 442.911C31.4612 442.887 31.639 442.67 31.6177 442.429C31.5964 442.185 31.3758 442.007 31.134 442.028C25.2685 442.586 20.207 441.726 14.313 441.52C13.687 441.499 12.8511 441.357 11.9547 441.205C14.3877 441.307 16.8668 441.485 19.2536 441.524C23.3974 441.595 27.5271 441.36 31.664 441.36C31.9093 441.36 32.1085 441.163 32.1085 440.917C32.1085 440.672 31.9093 440.473 31.664 440.473C27.5343 440.473 23.4082 440.711 19.2713 440.637C15.4868 440.573 11.4674 440.165 7.76815 440.254C7.52271 440.26 7.32709 440.462 7.33421 440.708C7.33421 440.775 7.35199 440.842 7.384 440.9L7.37333 440.903ZM347.282 440.199C347.193 440.207 347.047 440.218 346.914 440.221C346.271 440.232 345.325 440.199 345.205 440.196C343.251 440.126 341.323 439.891 339.371 439.82C333.029 439.59 326.704 439.745 320.355 439.515C320.11 439.504 319.903 439.697 319.897 439.941C319.889 440.185 320.078 440.392 320.324 440.402C326.672 440.634 333.001 440.476 339.34 440.708C341.287 440.778 343.22 441.013 345.172 441.085C345.314 441.088 346.577 441.133 347.202 441.102C347.424 441.091 347.587 441.06 347.659 441.035C347.894 440.942 347.954 440.767 347.968 440.654C347.983 440.534 347.969 440.381 347.808 440.246C347.659 440.119 347.445 440.108 347.285 440.207L347.282 440.199ZM347.1 440.733C347.118 440.789 347.15 440.842 347.207 440.897C347.157 440.85 347.121 440.792 347.1 440.733ZM7.80728 439.196C7.65078 439.088 7.43736 439.093 7.28085 439.218C7.11722 439.348 7.09589 439.501 7.10656 439.622C7.11722 439.736 7.16703 439.913 7.40178 440.013C7.47292 440.041 7.63655 440.08 7.85707 440.097C8.4831 440.151 9.74582 440.154 9.8881 440.154C11.8409 440.154 13.7794 439.991 15.7322 439.991C22.0779 439.991 28.3914 440.374 34.7478 440.374C34.9932 440.374 35.1925 440.175 35.1925 439.93C35.1925 439.686 34.9932 439.487 34.7478 439.487C28.395 439.487 22.0779 439.104 15.7322 439.104C13.7794 439.104 11.8409 439.271 9.8881 439.271C9.76717 439.271 8.81745 439.271 8.17721 439.235C8.04559 439.227 7.89976 439.213 7.81084 439.202L7.80728 439.196ZM7.96734 439.731C7.94244 439.792 7.90331 439.845 7.85352 439.891C7.91043 439.838 7.94601 439.786 7.96734 439.731ZM346.886 438.659C343.71 438.664 340.42 438.426 337.205 438.365C332.043 438.269 326.879 438.486 321.717 438.298C321.473 438.287 321.266 438.482 321.258 438.723C321.252 438.969 321.44 439.174 321.686 439.185C326.854 439.373 332.022 439.157 337.191 439.252C340.409 439.313 343.707 439.551 346.886 439.548C347.132 439.548 347.332 439.348 347.332 439.104C347.332 438.858 347.132 438.659 346.886 438.659ZM8.21989 438.556C11.3998 438.678 14.7043 438.556 17.9233 438.614C23.0916 438.706 28.2493 439.107 33.4175 439.107C33.6629 439.107 33.8622 438.908 33.8622 438.664C33.8622 438.418 33.6629 438.219 33.4175 438.219C28.2528 438.219 23.0987 437.814 17.9376 437.726C14.7256 437.67 11.4247 437.789 8.2519 437.67C8.00646 437.659 7.80016 437.85 7.78949 438.096C7.77883 438.34 7.9709 438.546 8.21633 438.556H8.21989ZM346.313 437.041C343.237 437.013 340.171 436.658 337.086 436.708C333.406 436.767 329.753 437.094 326.061 437.024C323.407 436.969 320.767 436.629 318.114 436.678C317.868 436.683 317.674 436.885 317.677 437.13C317.68 437.374 317.884 437.57 318.128 437.567C320.772 437.517 323.4 437.858 326.039 437.908C329.739 437.982 333.406 437.651 337.097 437.592C340.174 437.542 343.234 437.897 346.304 437.925C346.548 437.925 346.748 437.73 346.751 437.484C346.751 437.24 346.556 437.041 346.31 437.038L346.313 437.041ZM8.8637 436.96C11.9298 437.044 15.003 436.8 18.0763 436.96C21.7649 437.151 25.4142 437.617 29.1136 437.676C31.7564 437.719 34.3922 437.473 37.0349 437.62C37.2804 437.634 37.4902 437.445 37.5045 437.201C37.5187 436.955 37.3301 436.747 37.0847 436.733C34.4312 436.587 31.7848 436.828 29.1313 436.786C25.4392 436.725 21.8004 436.263 18.126 436.072C15.0457 435.913 11.9689 436.154 8.89216 436.072C8.64673 436.065 8.44042 436.26 8.43687 436.501C8.42976 436.747 8.62183 436.952 8.87081 436.955L8.8637 436.96ZM345.884 435.409C345.393 435.245 344.521 435.16 343.494 435.138C341.22 435.085 338.116 435.29 336.774 435.266C331.076 435.152 325.4 434.908 319.704 434.702C319.46 434.691 319.252 434.883 319.245 435.127C319.235 435.373 319.427 435.578 319.673 435.589C325.37 435.795 331.055 436.044 336.756 436.154C338.097 436.179 341.203 435.972 343.475 436.026C344.394 436.047 345.169 436.104 345.607 436.249C345.837 436.328 346.089 436.204 346.169 435.969C346.246 435.739 346.122 435.487 345.887 435.409H345.884ZM9.62846 435.309C10.0731 435.177 10.8485 435.149 11.7662 435.16C14.0391 435.188 17.1337 435.508 18.4746 435.529C24.18 435.625 29.8676 435.581 35.5694 435.581C35.815 435.581 36.0141 435.384 36.0141 435.138C36.0141 434.894 35.815 434.695 35.5694 434.695C29.8712 434.695 24.1907 434.733 18.4924 434.642C17.1479 434.62 14.0569 434.301 11.7804 434.273C10.7489 434.257 9.87744 434.307 9.37946 434.457C9.14471 434.528 9.00954 434.772 9.07712 435.007C9.14826 435.241 9.39369 435.376 9.62846 435.309ZM344.607 433.689C344.112 433.506 343.216 433.423 342.148 433.414C339.811 433.395 336.604 433.7 335.319 433.725C329.684 433.839 324.165 433.431 318.541 433.226C318.296 433.215 318.089 433.406 318.082 433.651C318.072 433.896 318.264 434.102 318.51 434.11C324.146 434.315 329.684 434.723 335.336 434.609C336.615 434.584 339.811 434.279 342.142 434.298C343.073 434.304 343.86 434.354 344.294 434.517C344.524 434.603 344.781 434.489 344.867 434.257C344.951 434.027 344.837 433.772 344.607 433.686V433.689ZM10.9979 433.626C11.4354 433.481 12.2215 433.459 13.1534 433.484C15.4832 433.551 18.6668 433.971 19.9437 434.046C25.5886 434.365 31.1375 434.155 36.7789 434.155C37.0243 434.155 37.2234 433.957 37.2234 433.711C37.2234 433.467 37.0243 433.268 36.7789 433.268C31.1517 433.268 25.6206 433.478 19.9935 433.157C18.713 433.087 15.5188 432.664 13.1783 432.597C12.1112 432.565 11.2113 432.614 10.7133 432.781C10.4821 432.86 10.3541 433.112 10.4323 433.342C10.5106 433.573 10.7631 433.7 10.9943 433.623L10.9979 433.626ZM343.856 432.544C343.948 432.697 344.13 432.781 344.314 432.75C344.557 432.708 344.717 432.473 344.671 432.232C344.61 431.902 344.4 431.724 344.084 431.667C343.931 431.639 343.738 431.645 343.536 431.678C343.336 431.706 343.126 431.755 342.97 431.752C341.093 431.684 339.224 431.525 337.347 431.493C330.725 431.387 324.123 431.727 317.502 431.489C317.256 431.479 317.051 431.675 317.043 431.916C317.034 432.16 317.225 432.367 317.471 432.373C324.101 432.614 330.703 432.27 337.333 432.381C339.204 432.412 341.071 432.572 342.938 432.639C343.112 432.647 343.336 432.608 343.557 432.575C343.646 432.561 343.779 432.551 343.856 432.547V432.544ZM11.5065 431.664C11.5706 431.667 11.663 431.678 11.7271 431.689C11.9689 431.734 12.225 431.791 12.4171 431.791C14.2881 431.791 16.159 431.699 18.0301 431.734C24.6602 431.866 31.2478 432.448 37.8814 432.448C38.127 432.448 38.3261 432.249 38.3261 432.004C38.3261 431.759 38.127 431.561 37.8814 431.561C31.2549 431.561 24.6709 430.979 18.0478 430.847C16.1698 430.811 14.2952 430.904 12.4171 430.904C12.2571 430.904 12.0508 430.844 11.8516 430.811C11.6488 430.775 11.4567 430.758 11.3038 430.783C10.9837 430.83 10.7702 430.996 10.6991 431.326C10.6457 431.564 10.7987 431.802 11.037 431.855C11.222 431.897 11.4069 431.816 11.503 431.667L11.5065 431.664ZM12.1005 429.896C14.6189 430.581 19.4706 429.988 22.27 430.088C27.0896 430.257 31.8809 430.886 36.7078 431.077C36.9532 431.088 37.1595 430.897 37.17 430.652C37.1808 430.406 36.9886 430.201 36.7433 430.19C31.9165 429.999 27.1217 429.37 22.3019 429.201C19.5596 429.104 14.8038 429.711 12.3353 429.04C12.097 428.977 11.8551 429.115 11.7911 429.353C11.7271 429.59 11.8658 429.832 12.1041 429.896H12.1005ZM343.126 429.888C340.633 430.47 335.906 429.689 333.16 429.686C328.338 429.686 323.525 430.134 318.69 430.151C318.444 430.151 318.247 430.354 318.247 430.595C318.247 430.841 318.444 431.038 318.69 431.038C323.52 431.021 328.333 430.57 333.157 430.573C335.956 430.573 340.783 431.343 343.325 430.752C343.564 430.694 343.713 430.456 343.657 430.218C343.599 429.98 343.361 429.832 343.123 429.888H343.126ZM342.284 428.381C342.134 428.373 341.893 428.356 341.793 428.348C340.89 428.273 340.946 428.213 340.046 428.121C337.72 427.877 335.361 427.684 333.021 427.645C326.981 427.539 320.825 427.439 314.792 427.702C314.547 427.713 314.359 427.919 314.368 428.163C314.379 428.409 314.586 428.597 314.831 428.586C320.845 428.326 326.986 428.426 333.007 428.533C335.322 428.572 337.653 428.763 339.958 429.005C340.868 429.101 340.811 429.16 341.725 429.235C341.874 429.249 342.212 429.278 342.376 429.278C342.472 429.278 342.547 429.268 342.58 429.257C342.835 429.185 342.893 429.002 342.91 428.894C342.921 428.83 342.96 428.5 342.561 428.376C342.469 428.348 342.373 428.351 342.287 428.376L342.284 428.381ZM13.2317 427.564C13.1463 427.531 13.0538 427.525 12.9578 427.55C12.5558 427.659 12.5843 427.99 12.5914 428.054C12.6056 428.16 12.6554 428.348 12.908 428.426C12.94 428.437 13.0111 428.451 13.1107 428.454C13.2744 428.458 13.6123 428.444 13.7652 428.437C14.6794 428.395 14.626 428.334 15.5401 428.27C17.8485 428.113 20.1856 428.007 22.5011 428.049C28.5231 428.163 34.6625 428.284 40.6631 428.763C40.9084 428.785 41.1219 428.6 41.1432 428.356C41.161 428.11 40.9796 427.897 40.7342 427.88C34.7159 427.4 28.5586 427.276 22.519 427.162C20.1785 427.12 17.8166 427.226 15.4797 427.383C14.5762 427.442 14.6296 427.506 13.7261 427.545C13.6265 427.55 13.3811 427.556 13.2352 427.561L13.2317 427.564ZM13.2246 428.398H13.2174H13.221H13.2246ZM341.245 426.307C340.999 426.296 340.602 426.268 340.412 426.262C339.716 426.237 339.019 426.212 338.318 426.187C336.5 426.118 334.665 426.101 332.847 426.098C327.167 426.087 321.498 426.346 315.821 426.14C315.575 426.129 315.368 426.321 315.361 426.566C315.351 426.811 315.542 427.018 315.788 427.027C321.476 427.234 327.156 426.974 332.847 426.985C334.658 426.985 336.479 427.007 338.29 427.074C338.986 427.099 339.684 427.124 340.384 427.148C340.666 427.159 341.387 427.204 341.491 427.195C341.821 427.152 341.874 426.889 341.885 426.811C341.893 426.772 341.913 426.384 341.466 426.296C341.392 426.282 341.317 426.286 341.245 426.311V426.307ZM14.3414 425.53C14.2739 425.505 14.1992 425.498 14.1209 425.508C13.6692 425.58 13.6798 425.971 13.6834 426.009C13.6905 426.087 13.7368 426.353 14.064 426.406C14.1671 426.425 14.8928 426.403 15.1738 426.403H17.2689C19.0794 426.403 20.9005 426.448 22.711 426.514C28.3986 426.708 34.0649 427.173 39.7561 427.173C40.0015 427.173 40.2006 426.974 40.2006 426.73C40.2006 426.484 40.0015 426.286 39.7561 426.286C34.0755 426.286 28.4163 425.821 22.7394 425.625C20.9218 425.561 19.0864 425.516 17.2689 425.516H15.1738C14.9853 425.516 14.5833 425.53 14.3414 425.53ZM340.741 424.744C340.741 424.744 340.548 424.766 340.387 424.766C340.032 424.766 339.523 424.745 338.927 424.703C336.549 424.539 332.836 424.127 332.008 424.085C326.089 423.777 320.095 424.131 314.166 424.152C313.921 424.152 313.722 424.351 313.722 424.597C313.722 424.841 313.921 425.04 314.166 425.037C320.078 425.015 326.053 424.66 331.958 424.969C332.904 425.018 337.617 425.55 339.797 425.636C340.431 425.661 340.879 425.636 341.032 425.58C341.262 425.494 341.381 425.239 341.295 425.012C341.213 424.785 340.965 424.667 340.736 424.744H340.741ZM14.907 423.985C14.6829 423.9 14.4304 424.01 14.3379 424.234C14.2454 424.461 14.3521 424.72 14.5798 424.813C14.7292 424.874 15.1773 424.919 15.8104 424.916C17.9944 424.908 22.7217 424.547 23.6679 424.533C29.5796 424.44 35.5375 425.012 41.4456 425.246C41.691 425.256 41.8973 425.065 41.908 424.819C41.9186 424.575 41.7267 424.37 41.4811 424.359C35.5588 424.121 29.5796 423.55 23.6536 423.644C22.8248 423.658 19.1007 423.935 16.7175 424.01C16.1199 424.029 15.6077 424.035 15.252 424.021C15.092 424.015 14.9141 423.99 14.8999 423.99L14.907 423.985ZM339.368 423.713C339.484 423.83 339.662 423.879 339.825 423.822C340.068 423.741 340.14 423.592 340.168 423.517C340.235 423.343 340.224 423.145 340.004 422.982C339.955 422.943 339.85 422.893 339.698 422.86C339.431 422.804 338.886 422.764 338.642 422.736C337.831 422.641 337.887 422.675 337.023 422.622C334.743 422.478 332.473 422.292 330.187 422.211C324.47 422.005 318.768 422.126 313.046 421.92C312.8 421.91 312.593 422.101 312.587 422.345C312.579 422.591 312.767 422.796 313.013 422.804C318.737 423.013 324.439 422.888 330.155 423.095C332.434 423.176 334.693 423.364 336.967 423.506C337.806 423.559 337.753 423.525 338.539 423.616C338.706 423.634 339.118 423.683 339.36 423.713H339.368ZM16.3155 423.002C16.5575 422.982 16.9737 422.949 17.1407 422.935C17.9304 422.871 17.877 422.902 18.7166 422.882C20.9929 422.821 23.2587 422.719 25.5388 422.719C31.2584 422.719 36.9532 423.049 42.6799 423.049C42.9252 423.049 43.1245 422.849 43.1245 422.605C43.1245 422.359 42.9252 422.162 42.6799 422.162C36.9532 422.162 31.2584 421.83 25.5388 421.83C23.2517 421.83 20.9788 421.935 18.6917 421.998C17.8272 422.023 17.8842 421.99 17.0696 422.054C16.8242 422.073 16.2764 422.093 16.0097 422.14C15.8567 422.165 15.7536 422.215 15.7002 422.25C15.4761 422.403 15.4583 422.602 15.5188 422.779C15.5437 422.854 15.6113 423.007 15.8496 423.095C16.0133 423.159 16.1947 423.115 16.3121 423.002H16.3155ZM338.418 422.098C338.531 422.239 338.728 422.303 338.911 422.239C339.143 422.162 339.215 422.015 339.243 421.93C339.296 421.777 339.285 421.608 339.136 421.451C339.09 421.401 338.994 421.334 338.852 421.284C338.623 421.206 338.155 421.135 337.937 421.107C336.956 420.993 336.995 421.021 335.973 420.872C333.522 420.517 331.094 420.351 328.621 420.22C322.407 419.885 316.226 420.375 310.029 420.148C309.784 420.142 309.577 420.329 309.571 420.575C309.563 420.819 309.755 421.026 309.997 421.032C316.187 421.256 322.365 420.769 328.576 421.099C331.019 421.231 333.423 421.395 335.846 421.746C336.881 421.896 336.839 421.866 337.834 421.984C337.952 421.998 338.236 422.054 338.418 422.09V422.098ZM17.3257 421.426C17.5071 421.395 17.7917 421.351 17.9127 421.342C18.9121 421.262 18.8695 421.287 19.9082 421.174C22.341 420.912 24.7527 420.833 27.1998 420.791C33.4139 420.685 39.5747 421.398 45.7673 421.398C46.0128 421.398 46.212 421.199 46.212 420.954C46.212 420.71 46.0128 420.511 45.7673 420.511C39.5711 420.511 33.4069 419.797 27.1857 419.907C24.7136 419.949 22.277 420.029 19.8157 420.295C18.7912 420.403 18.8304 420.379 17.8451 420.458C17.6281 420.475 17.155 420.533 16.9238 420.6C16.7779 420.642 16.6819 420.71 16.6322 420.755C16.4791 420.908 16.4614 421.076 16.5112 421.231C16.5361 421.317 16.6037 421.465 16.8313 421.555C17.0127 421.625 17.2083 421.569 17.3293 421.43L17.3257 421.426ZM337.336 419.112L337.286 419.104C336.095 418.981 334.907 418.821 333.716 418.7C331.667 418.494 329.632 418.348 327.572 418.309C321.163 418.189 314.714 418.888 308.319 418.658C308.073 418.647 307.866 418.838 307.857 419.084C307.849 419.328 308.04 419.534 308.283 419.541C314.686 419.776 321.135 419.073 327.551 419.193C329.585 419.233 331.598 419.375 333.622 419.577C334.815 419.697 335.998 419.857 337.191 419.982C337.227 419.985 337.329 420.007 337.415 420.004C337.518 420.004 337.614 419.979 337.684 419.943C337.837 419.868 337.93 419.744 337.958 419.577C337.997 419.336 337.834 419.109 337.593 419.07C337.504 419.054 337.41 419.07 337.336 419.104V419.112ZM18.5137 418.48C18.4355 418.441 18.3502 418.423 18.2577 418.437C18.0158 418.469 17.8415 418.689 17.8735 418.935C17.8948 419.101 17.9838 419.229 18.1332 419.307C18.2007 419.342 18.2968 419.37 18.3999 419.375C18.4889 419.378 18.592 419.364 18.6277 419.361C19.8227 419.282 21.0143 419.162 22.2094 419.087C24.2406 418.96 26.2574 418.888 28.2919 418.924C34.7087 419.037 41.1291 419.968 47.5351 419.968C47.7805 419.968 47.9798 419.769 47.9798 419.524C47.9798 419.279 47.7805 419.079 47.5351 419.079C41.1361 419.079 34.7193 418.146 28.3061 418.037C26.2466 418.001 24.2049 418.073 22.1526 418.203C20.9574 418.278 19.7659 418.398 18.5707 418.477H18.5209L18.5137 418.48ZM337.086 419.42C337.086 419.42 337.086 419.436 337.083 419.442V419.42H337.086ZM18.7485 418.799V418.821C18.7485 418.821 18.7485 418.807 18.7485 418.799ZM336.336 418.281C336.429 418.37 336.557 418.42 336.696 418.406C336.942 418.381 337.116 418.161 337.091 417.919C337.08 417.83 337.048 417.73 336.962 417.639C336.903 417.575 336.753 417.469 336.479 417.39C335.699 417.162 333.403 416.84 329.635 416.624C326.444 416.442 323.312 416.724 320.131 416.663C316.436 416.595 312.758 416.339 309.07 416.206C308.824 416.195 308.616 416.386 308.61 416.63C308.602 416.876 308.791 417.082 309.037 417.092C312.729 417.228 316.414 417.483 320.113 417.55C323.282 417.611 326.402 417.326 329.582 417.508C332.481 417.674 334.486 417.898 335.579 418.096C335.917 418.157 336.233 418.25 336.333 418.278L336.336 418.281ZM336.208 418.032V418.012C336.208 418.012 336.208 418.026 336.208 418.032ZM19.5418 417.688C19.6449 417.66 19.965 417.583 20.3029 417.533C21.402 417.373 23.4188 417.22 26.3178 417.159C29.5048 417.092 32.6136 417.486 35.7793 417.544C39.4786 417.611 43.1708 417.489 46.8664 417.489C47.1119 417.489 47.3111 417.292 47.3111 417.046C47.3111 416.802 47.1119 416.602 46.8664 416.602C43.1742 416.602 39.4892 416.724 35.7971 416.66C32.6172 416.602 29.4977 416.209 26.3 416.276C22.5296 416.353 20.2211 416.591 19.4314 416.794C19.1575 416.865 19.001 416.96 18.9406 417.026C18.8517 417.117 18.8161 417.212 18.8019 417.301C18.7662 417.544 18.9371 417.771 19.1789 417.802C19.3142 417.824 19.4457 417.777 19.5418 417.688ZM19.677 417.444C19.677 417.444 19.677 417.43 19.677 417.422V417.444ZM335.167 416.588C335.294 416.708 335.486 416.749 335.657 416.674C335.884 416.571 335.942 416.422 335.964 416.339C336.006 416.173 335.981 415.992 335.79 415.849C335.735 415.81 335.632 415.757 335.483 415.729C335.241 415.683 334.754 415.666 334.53 415.652C333.829 415.602 333.132 415.563 332.431 415.519C330.119 415.386 327.821 415.417 325.509 415.434C319.494 415.484 313.409 415.026 307.404 415.328C307.159 415.339 306.971 415.547 306.982 415.793C306.996 416.038 307.201 416.226 307.447 416.212C313.437 415.91 319.512 416.367 325.513 416.319C327.804 416.301 330.08 416.269 332.373 416.403C333.068 416.447 333.765 416.481 334.458 416.535C334.602 416.546 334.946 416.574 335.159 416.591L335.167 416.588ZM20.7725 416.038C20.9859 416.027 21.331 416.013 21.4731 416.006C22.1704 415.982 22.864 415.968 23.5611 415.954C25.8554 415.899 28.1319 416.017 30.419 416.117C36.416 416.383 42.502 416.145 48.4777 416.666C48.7231 416.688 48.9366 416.506 48.9579 416.262C48.9792 416.017 48.7979 415.804 48.5525 415.782C42.5625 415.264 36.4622 415.499 30.4545 415.232C28.146 415.129 25.8518 415.015 23.5362 415.065C22.8355 415.084 22.1347 415.093 21.434 415.123C21.21 415.129 20.7226 415.129 20.4808 415.165C20.3314 415.186 20.2247 415.236 20.1713 415.275C19.9757 415.414 19.9437 415.591 19.9793 415.757C19.9971 415.84 20.0503 415.996 20.2745 416.106C20.4416 416.187 20.6373 416.156 20.7653 416.038H20.7725ZM334.544 414.477C334.338 414.441 333.996 414.38 333.846 414.37C332.758 414.289 332.808 414.248 331.677 414.181C329.56 414.057 327.463 413.795 325.342 413.68C319.519 413.369 313.7 413.582 307.871 413.372C307.625 413.364 307.419 413.553 307.411 413.799C307.4 414.043 307.593 414.25 307.838 414.259C313.664 414.472 319.477 414.256 325.295 414.569C327.413 414.682 329.512 414.945 331.623 415.068C332.752 415.137 332.697 415.176 333.779 415.256C334 415.275 334.438 415.389 334.676 415.395C334.835 415.4 334.96 415.364 335.034 415.32C335.164 415.25 335.238 415.148 335.273 415.026C335.305 414.924 335.316 414.771 335.206 414.591C335.078 414.38 334.804 414.314 334.594 414.441C334.577 414.452 334.558 414.461 334.544 414.477ZM21.4731 413.948C21.4731 413.948 21.4412 413.923 21.4235 413.907C21.2206 413.774 20.9431 413.83 20.808 414.032C20.6906 414.209 20.6977 414.359 20.7226 414.466C20.7547 414.586 20.8259 414.693 20.9503 414.768C21.025 414.813 21.146 414.852 21.3095 414.857C21.5479 414.857 21.989 414.757 22.2094 414.749C23.2944 414.707 23.2445 414.668 24.3721 414.643C26.4886 414.594 28.5977 414.409 30.7142 414.373C36.5405 414.27 42.342 414.699 48.1718 414.699C48.4173 414.699 48.6165 414.5 48.6165 414.256C48.6165 414.012 48.4173 413.813 48.1718 413.813C42.3384 413.813 36.5298 413.386 30.7 413.486C28.58 413.525 26.4707 413.705 24.3508 413.755C23.2161 413.78 23.2659 413.823 22.1739 413.865C22.028 413.873 21.683 413.918 21.4767 413.948H21.4731ZM333.494 413.55H333.513C333.697 413.582 334.338 412.815 333.641 412.674C333.555 412.663 333.473 412.674 333.398 412.705C333.456 412.669 333.533 412.655 333.641 412.674H333.613C333.303 412.616 331.421 412.303 331.069 412.261C328.593 411.967 326.046 411.97 323.556 411.879C317.14 411.644 310.72 411.846 304.299 411.611C304.053 411.602 303.847 411.793 303.84 412.037C303.83 412.283 304.022 412.489 304.268 412.496C310.687 412.73 317.108 412.527 323.525 412.762C325.99 412.851 328.515 412.843 330.963 413.137C331.307 413.181 333.16 413.486 333.463 413.536L333.494 413.543V413.55ZM22.4442 412.184C22.5331 412.173 22.5865 412.19 22.6079 412.198C22.5545 412.184 22.5011 412.179 22.4442 412.184C21.74 412.297 22.3517 413.088 22.5403 413.067H22.5581L22.5901 413.06C22.8959 413.021 24.7563 412.779 25.1049 412.751C27.5628 412.545 30.0881 412.644 32.5532 412.644C38.9735 412.644 45.3832 413.078 51.8071 413.078C52.0525 413.078 52.2516 412.879 52.2516 412.633C52.2516 412.389 52.0525 412.19 51.8071 412.19C45.3832 412.19 38.9735 411.757 32.5532 411.757C30.0633 411.757 27.5165 411.661 25.0301 411.868C24.6781 411.896 22.7857 412.137 22.4727 412.179H22.4442V412.184ZM22.8213 412.918C22.7929 412.954 22.7536 412.982 22.7145 413.004C22.7644 412.976 22.7964 412.943 22.8213 412.918ZM22.686 412.226C22.7715 412.268 22.8391 412.336 22.8853 412.417C22.8533 412.35 22.7964 412.275 22.686 412.226ZM332.616 410.965C330.905 410.959 328.739 410.316 326.932 410.217C323.611 410.039 320.299 410.164 316.976 410.181C312.764 410.203 308.571 409.876 304.366 409.724C304.121 409.716 303.914 409.904 303.905 410.15C303.894 410.394 304.089 410.6 304.332 410.607C308.546 410.76 312.753 411.087 316.979 411.065C320.285 411.048 323.578 410.923 326.882 411.101C328.704 411.2 330.883 411.843 332.609 411.849C332.855 411.849 333.054 411.651 333.054 411.406C333.054 411.161 332.855 410.962 332.609 410.962L332.616 410.965ZM23.4971 411.399C25.2187 411.455 27.424 410.891 29.2487 410.859C32.5603 410.802 35.8433 411.048 39.1478 411.182C43.3663 411.356 47.5849 411.182 51.8035 411.182C52.0489 411.182 52.2482 410.984 52.2482 410.738C52.2482 410.494 52.0489 410.295 51.8035 410.295C47.5991 410.295 43.3913 410.469 39.1868 410.295C35.8646 410.156 32.5638 409.912 29.2345 409.968C27.424 410.001 25.24 410.564 23.5292 410.508C23.2836 410.5 23.0773 410.693 23.0703 410.937C23.0632 411.182 23.2553 411.388 23.5007 411.395L23.4971 411.399ZM331.631 409.503C331.55 409.433 331.417 409.355 331.235 409.286C330.944 409.176 330.485 409.073 329.941 408.978C328.23 408.687 325.63 408.485 324.965 408.41C319.956 407.849 314.91 408.189 309.884 408.239C307.422 408.264 304.989 408.009 302.535 407.917C302.289 407.906 302.083 408.098 302.075 408.342C302.069 408.588 302.258 408.793 302.502 408.801C304.971 408.89 307.419 409.148 309.895 409.123C314.885 409.07 319.892 408.729 324.865 409.286C325.524 409.361 328.099 409.557 329.792 409.848C330.204 409.918 330.564 409.993 330.82 410.075C330.927 410.106 331.008 410.131 331.052 410.167C331.235 410.327 331.517 410.306 331.677 410.12C331.838 409.937 331.816 409.655 331.631 409.496V409.503ZM25.119 409.777C25.1617 409.741 25.2472 409.724 25.3538 409.691C25.6135 409.621 25.9728 409.557 26.3889 409.5C28.0892 409.272 30.6715 409.17 31.3331 409.12C36.3235 408.743 41.3175 409.265 46.3009 409.5C48.7729 409.616 51.2273 409.447 53.6958 409.447C53.9413 409.447 54.1404 409.248 54.1404 409.003C54.1404 408.757 53.9413 408.558 53.6958 408.558C51.2414 408.558 48.7978 408.729 46.3399 408.613C41.321 408.378 36.288 407.857 31.2619 408.233C30.5968 408.283 27.986 408.389 26.268 408.619C25.7202 408.694 25.2578 408.779 24.9626 408.879C24.7812 408.939 24.646 409.009 24.5607 409.081C24.3686 409.234 24.3401 409.514 24.4931 409.705C24.646 409.898 24.9271 409.926 25.119 409.773V409.777ZM329.725 408.435C329.82 408.541 329.969 408.602 330.122 408.58C330.365 408.544 330.531 408.317 330.496 408.076C330.482 407.981 330.435 407.871 330.326 407.771C330.237 407.69 330.002 407.58 329.656 407.494C328.419 407.189 325.339 406.87 324.78 406.837C318.256 406.461 311.737 406.256 305.21 406.017C304.964 406.01 304.758 406.198 304.75 406.444C304.744 406.688 304.933 406.895 305.177 406.901C311.698 407.139 318.214 407.345 324.73 407.721C325.325 407.757 328.931 408.115 329.725 408.435ZM26.5099 408.087C27.3172 407.796 30.9312 407.566 31.5288 407.555C38.0522 407.416 44.5721 407.444 51.0993 407.444C51.3447 407.444 51.5438 407.245 51.5438 407.001C51.5438 406.756 51.3447 406.557 51.0993 406.557C44.5687 406.557 38.0415 406.529 31.5109 406.668C30.9526 406.677 27.8616 406.884 26.613 407.147C26.2644 407.22 26.0297 407.32 25.9373 407.398C25.8234 407.494 25.7736 407.604 25.7557 407.699C25.7096 407.942 25.8697 408.172 26.1115 408.218C26.2644 408.247 26.4139 408.194 26.5169 408.087H26.5099ZM328.906 406.934C328.995 407.026 329.119 407.082 329.258 407.075C329.596 407.054 329.684 406.816 329.706 406.727C329.734 406.618 329.759 406.405 329.518 406.234C329.471 406.203 329.351 406.142 329.138 406.075C328.795 405.965 328.134 405.782 327.081 405.516C324.915 404.97 322.838 404.757 320.615 404.676C314.173 404.441 307.707 404.477 301.255 404.242C301.009 404.233 300.802 404.424 300.796 404.668C300.785 404.914 300.976 405.12 301.222 405.126C307.674 405.361 314.138 405.325 320.582 405.56C322.742 405.638 324.758 405.843 326.865 406.372C327.95 406.646 328.604 406.823 328.906 406.926V406.934ZM27.3814 406.618C27.6836 406.525 28.3488 406.372 29.4409 406.139C31.5643 405.684 33.5847 405.552 35.7474 405.552C42.1961 405.552 48.652 405.823 55.108 405.823C55.3534 405.823 55.5525 405.624 55.5525 405.378C55.5525 405.134 55.3534 404.935 55.108 404.935C48.652 404.935 42.1925 404.665 35.7474 404.665C33.5207 404.665 31.4398 404.804 29.2559 405.272C28.1959 405.499 27.5271 405.655 27.1821 405.754C26.9688 405.815 26.8442 405.873 26.798 405.904C26.549 406.064 26.5668 406.277 26.5917 406.386C26.613 406.475 26.6913 406.716 27.0292 406.749C27.1679 406.763 27.2959 406.71 27.3848 406.621L27.3814 406.618ZM328.227 405.205C328.227 405.205 328.247 405.215 328.258 405.219C328.49 405.303 328.746 405.183 328.828 404.956C328.875 404.832 328.9 404.644 328.707 404.474C328.69 404.455 328.59 404.385 328.391 404.331C327.607 404.129 323.57 403.288 322.376 403.175C317.929 402.752 315.024 403.209 310.798 403.405C307.702 403.547 304.551 403.231 301.457 403.117C301.211 403.106 301.006 403.302 300.998 403.543C300.987 403.788 301.18 403.995 301.425 404.006C304.545 404.119 307.721 404.435 310.84 404.292C315.016 404.101 317.893 403.64 322.29 404.059C323.456 404.167 327.402 404.992 328.163 405.19C328.18 405.194 328.205 405.201 328.219 405.205H328.227ZM328.081 405.101C327.975 404.984 327.934 404.81 327.992 404.651C327.95 404.768 327.925 404.939 328.081 405.101ZM28.1247 404.914C28.1247 404.914 28.1604 404.906 28.1817 404.899C28.9535 404.729 32.9231 404.051 34.0934 403.981C38.5004 403.721 41.3603 404.286 45.529 404.63C48.6414 404.885 51.8284 404.687 54.9479 404.687C55.1933 404.687 55.3924 404.488 55.3924 404.242C55.3924 403.998 55.1933 403.799 54.9479 403.799C51.8533 403.799 48.6912 404.001 45.6036 403.746C41.3922 403.397 38.5004 402.834 34.0436 403.095C32.8448 403.167 28.7793 403.859 27.9896 404.034C27.7904 404.076 27.6872 404.147 27.6694 404.161C27.4703 404.328 27.4916 404.513 27.5307 404.64C27.6054 404.874 27.858 405.003 28.0928 404.924C28.1034 404.921 28.1141 404.917 28.1283 404.91L28.1247 404.914ZM28.2991 404.782C28.4199 404.637 28.4129 404.488 28.3737 404.367C28.4235 404.513 28.388 404.668 28.2991 404.782ZM326.882 403.508C326.95 403.649 327.092 403.754 327.259 403.763C327.505 403.778 327.715 403.59 327.729 403.344C327.74 403.12 327.682 402.993 327.615 402.901C327.537 402.798 327.402 402.706 327.114 402.649C325.178 402.255 323.154 402.089 321.194 401.832C313.853 400.884 306.472 401.56 299.109 401.031C298.863 401.012 298.65 401.197 298.633 401.441C298.614 401.687 298.799 401.9 299.045 401.918C306.39 402.447 313.753 401.768 321.08 402.716C323.002 402.965 324.982 403.128 326.882 403.508ZM29.5298 403.267C31.4397 402.954 33.4282 402.862 35.3561 402.685C42.7119 402.003 50.0464 402.948 57.4058 402.685C57.6512 402.677 57.8432 402.472 57.8362 402.227C57.8254 401.981 57.6227 401.79 57.3773 401.801C50.0002 402.064 42.6478 401.122 35.2778 401.801C33.3108 401.981 31.2833 402.078 29.334 402.4C29.046 402.45 28.9073 402.535 28.8255 402.635C28.7508 402.724 28.6902 402.851 28.6938 403.075C28.6974 403.319 28.9001 403.515 29.1456 403.511C29.3163 403.508 29.4586 403.408 29.5333 403.27L29.5298 403.267ZM325.533 401.846C325.627 401.967 325.776 402.042 325.94 402.025C326.186 401.995 326.359 401.779 326.331 401.535C326.314 401.378 326.195 401.165 325.904 401.034C325.491 400.853 324.489 400.735 324.364 400.707C322.656 400.331 320.981 400.008 319.235 399.865C311.867 399.255 304.501 400.029 297.16 399.444C296.915 399.422 296.701 399.607 296.68 399.851C296.659 400.097 296.844 400.31 297.088 400.331C304.431 400.917 311.797 400.142 319.161 400.754C320.867 400.895 322.503 401.211 324.171 401.577C324.25 401.594 324.713 401.648 325.121 401.732C325.264 401.762 325.452 401.821 325.53 401.851L325.533 401.846ZM30.9348 401.655C31.013 401.63 31.2051 401.577 31.3474 401.552C31.76 401.48 32.2223 401.446 32.3042 401.432C33.9866 401.126 35.6334 400.867 37.3444 400.79C44.7252 400.444 52.0596 401.488 59.4155 401.169C59.6609 401.158 59.853 400.953 59.8422 400.707C59.8317 400.463 59.6254 400.275 59.3798 400.285C52.0204 400.604 44.6861 399.565 37.3053 399.906C35.5553 399.987 33.8692 400.25 32.1477 400.562C32.0232 400.583 31.0166 400.665 30.5968 400.832C30.298 400.948 30.1736 401.158 30.1523 401.314C30.1166 401.555 30.2838 401.782 30.5256 401.818C30.6893 401.843 30.8423 401.776 30.9382 401.655H30.9348ZM325.459 401.687V401.698V401.68V401.69V401.687ZM325.456 401.659V401.673V401.652V401.659ZM31.0166 401.488V401.505V401.496V401.485V401.488ZM31.0237 401.466V401.485V401.471V401.466ZM324.901 399.436C318.231 397.934 311.853 398.219 305.043 398.211C302.354 398.211 299.679 397.801 296.989 397.701C296.744 397.693 296.537 397.885 296.531 398.127C296.523 398.372 296.711 398.577 296.957 398.585C299.654 398.684 302.339 399.092 305.038 399.095C311.783 399.103 318.097 398.812 324.702 400.299C324.94 400.352 325.178 400.203 325.231 399.962C325.286 399.724 325.136 399.486 324.893 399.433L324.901 399.436ZM31.8204 400.142C38.4754 398.898 44.775 399.419 51.5155 399.654C54.2152 399.749 56.9113 399.436 59.611 399.436C59.8566 399.436 60.0557 399.238 60.0557 398.992C60.0557 398.748 59.8566 398.549 59.611 398.549C56.9221 398.549 54.2329 398.862 51.5438 398.765C44.7357 398.527 38.3759 398.014 31.6532 399.269C31.4114 399.316 31.2514 399.546 31.2976 399.788C31.3438 400.029 31.5751 400.189 31.8169 400.142H31.8204ZM323.087 398.513C323.204 398.635 323.382 398.684 323.55 398.624C323.794 398.543 323.855 398.375 323.88 398.286C323.916 398.144 323.905 397.97 323.73 397.821C323.688 397.787 323.606 397.732 323.475 397.69C323.268 397.626 322.813 397.544 322.315 397.438C321.174 397.194 321.227 397.189 320.095 396.976C318.172 396.618 316.258 396.399 314.301 396.327C310.845 396.203 307.354 396.565 303.897 396.654C300.92 396.732 297.9 396.491 294.926 396.38C294.681 396.369 294.474 396.565 294.468 396.806C294.46 397.051 294.648 397.258 294.894 397.268C297.889 397.377 300.926 397.619 303.922 397.541C307.361 397.452 310.834 397.09 314.273 397.214C316.187 397.286 318.057 397.499 319.936 397.85C321.055 398.059 321.003 398.067 322.133 398.308C322.482 398.383 322.888 398.471 323.094 398.513H323.087ZM33.5028 398.411C33.7127 398.372 34.1183 398.3 34.4703 398.241C35.6087 398.042 35.5553 398.031 36.6829 397.864C38.5751 397.58 40.4532 397.435 42.3669 397.435C45.8065 397.435 49.2639 397.925 52.6999 398.137C55.6876 398.325 58.736 398.194 61.7311 398.194C61.9764 398.194 62.1756 397.995 62.1756 397.751C62.1756 397.505 61.9764 397.307 61.7311 397.307C58.7539 397.307 55.7269 397.438 52.7567 397.253C49.3029 397.037 45.8278 396.551 42.3705 396.551C40.4141 396.551 38.4898 396.701 36.5547 396.987C35.4165 397.158 35.4699 397.164 34.321 397.367C33.8195 397.455 33.3606 397.521 33.1543 397.577C33.0226 397.612 32.9373 397.665 32.891 397.698C32.7097 397.843 32.6919 398.014 32.7238 398.158C32.7417 398.25 32.7986 398.418 33.0405 398.51C33.2076 398.574 33.389 398.532 33.5064 398.414L33.5028 398.411ZM323.212 397.804C323.212 397.804 323.201 397.807 323.198 397.812L323.187 397.818L323.201 397.812L323.223 397.801H323.215L323.212 397.804ZM323.229 397.796H323.223L323.24 397.793H323.229V397.796ZM323.243 397.793L323.265 397.787C323.265 397.787 323.251 397.79 323.243 397.793ZM33.4139 397.707L33.4282 397.718L33.4139 397.712C33.4139 397.712 33.4033 397.704 33.3997 397.704H33.3926L33.4103 397.712L33.4139 397.707ZM33.3748 397.687L33.3926 397.693H33.3856L33.3748 397.687ZM33.3748 397.687C33.3748 397.687 33.3606 397.679 33.3535 397.679L33.3748 397.687ZM322.351 395.929C319.978 395.621 317.613 395.064 315.176 394.897C308.685 394.457 300.635 394.917 294.393 395.103C294.147 395.109 293.956 395.316 293.962 395.56C293.97 395.806 294.175 395.997 294.421 395.99C300.635 395.801 308.652 395.344 315.115 395.781C317.535 395.944 319.878 396.501 322.233 396.806C322.475 396.838 322.7 396.668 322.731 396.424C322.763 396.181 322.592 395.958 322.348 395.926L322.351 395.929ZM34.4135 396.743C36.7789 396.519 39.1406 396.05 41.563 395.976C48.0474 395.773 54.5353 396.519 61.0197 396.519C61.265 396.519 61.4642 396.319 61.4642 396.075C61.4642 395.831 61.265 395.632 61.0197 395.632C54.5281 395.632 48.0296 394.886 41.5345 395.092C39.0944 395.166 36.7112 395.638 34.328 395.862C34.0826 395.884 33.9048 396.1 33.9262 396.344C33.9475 396.59 34.168 396.767 34.4099 396.746L34.4135 396.743Z" fill="#525252"/>
<path fill-rule="evenodd" clip-rule="evenodd" d="M303.033 394.823L55.8444 395.352L25.7346 443.105H324.265L303.033 394.823Z" fill="#525252"/>
<path fill-rule="evenodd" clip-rule="evenodd" d="M249.377 391.233C249.377 391.233 247.555 393.538 244.456 395.216C244.456 395.216 242.33 396.488 233.69 399.139C233.69 399.139 220.835 402.965 225.352 406.671C225.352 406.671 223.737 407.774 224.296 409.425C224.296 409.425 224.972 411.278 229.741 410.693C229.741 410.693 237.143 410.026 250.227 406.046C250.227 406.046 246.783 407.973 233.69 413.681C233.69 413.681 214.532 421.48 223.343 424.83C223.343 424.83 222.418 426.115 223.961 427.475C223.961 427.475 225.687 428.883 229.059 426.889C229.059 426.889 226.024 429.689 227.761 431.418C227.761 431.418 228.938 432.445 230.616 431.418C230.616 431.418 229.616 432.991 230.926 434.191C230.926 434.191 232.693 435.891 236.506 433.448C236.506 433.448 236.105 434.581 237.403 435.775C237.403 435.775 239.186 437.62 246.434 434.911C246.434 434.911 267.997 427.639 276.349 424.149C276.349 424.149 286.18 420.539 284.878 413.12C284.878 413.12 282.879 400.86 283.355 396.433L255.735 389.792L249.383 391.23L249.377 391.233Z" fill="#F6CEAE"/>
<mask id="mask0_540_553" style="mask-type:luminance" maskUnits="userSpaceOnUse" x="221" y="389" width="64" height="48">
<path d="M249.377 391.233C249.377 391.233 247.555 393.538 244.456 395.216C244.456 395.216 242.33 396.488 233.69 399.139C233.69 399.139 220.835 402.965 225.352 406.671C225.352 406.671 223.737 407.774 224.296 409.425C224.296 409.425 224.972 411.278 229.741 410.693C229.741 410.693 237.143 410.026 250.227 406.046C250.227 406.046 246.783 407.973 233.69 413.681C233.69 413.681 214.532 421.48 223.343 424.83C223.343 424.83 222.418 426.115 223.961 427.475C223.961 427.475 225.687 428.883 229.059 426.889C229.059 426.889 226.024 429.689 227.761 431.418C227.761 431.418 228.938 432.445 230.616 431.418C230.616 431.418 229.616 432.991 230.926 434.191C230.926 434.191 232.693 435.891 236.506 433.448C236.506 433.448 236.105 434.581 237.403 435.775C237.403 435.775 239.186 437.62 246.434 434.911C246.434 434.911 267.997 427.639 276.349 424.149C276.349 424.149 286.18 420.539 284.878 413.12C284.878 413.12 282.879 400.86 283.355 396.433L255.735 389.792L249.383 391.23L249.377 391.233Z" fill="white"/>
</mask>
<g mask="url(#mask0_540_553)">
<path fill-rule="evenodd" clip-rule="evenodd" d="M250.197 406.078C250.197 406.078 256.142 402.45 256.721 399.064C256.721 399.064 276.346 399.926 284.732 409.272L288.951 404.178C288.951 404.178 284.302 390.906 283.942 390.488C283.583 390.072 258.191 391.624 258.191 391.624L244.719 380.479L218.697 399.061V415.722L250.202 406.075L250.197 406.078Z" fill="#E2BEA0"/>
</g>
<mask id="mask1_540_553" style="mask-type:luminance" maskUnits="userSpaceOnUse" x="221" y="389" width="64" height="27">
<mask id="mask2_540_553" style="mask-type:luminance" maskUnits="userSpaceOnUse" x="218" y="380" width="71" height="36">
<path d="M250.197 406.078C250.197 406.078 256.142 402.45 256.721 399.064C256.721 399.064 276.346 399.926 284.732 409.272L288.951 404.178C288.951 404.178 284.302 390.906 283.942 390.488C283.583 390.072 258.191 391.624 258.191 391.624L244.719 380.479L218.697 399.061V415.722L250.202 406.073L250.197 406.078Z" fill="white"/>
</mask>
<g mask="url(#mask2_540_553)">
<path d="M249.377 391.233C249.377 391.233 247.555 393.538 244.456 395.216C244.456 395.216 242.33 396.488 233.69 399.139C233.69 399.139 220.835 402.965 225.352 406.671C225.352 406.671 223.737 407.774 224.296 409.425C224.296 409.425 224.972 411.278 229.741 410.693C229.741 410.693 237.143 410.026 250.227 406.046C250.227 406.046 246.783 407.973 233.69 413.681C233.69 413.681 214.532 421.48 223.343 424.83C223.343 424.83 222.418 426.115 223.961 427.475C223.961 427.475 225.687 428.883 229.059 426.889C229.059 426.889 226.024 429.689 227.761 431.418C227.761 431.418 228.938 432.445 230.616 431.418C230.616 431.418 229.616 432.991 230.926 434.191C230.926 434.191 232.693 435.891 236.506 433.448C236.506 433.448 236.105 434.581 237.403 435.775C237.403 435.775 239.186 437.62 246.434 434.911C246.434 434.911 267.997 427.639 276.349 424.149C276.349 424.149 286.18 420.539 284.878 413.12C284.878 413.12 282.879 400.86 283.355 396.433L255.735 389.792L249.383 391.23L249.377 391.233Z" fill="white"/>
</g>
</mask>
<g mask="url(#mask1_540_553)">
<path fill-rule="evenodd" clip-rule="evenodd" d="M233.842 402.649C233.842 402.649 229.218 403.934 226.024 405.303C224.548 405.935 223.374 406.621 222.979 407.181C222.809 407.422 222.87 407.752 223.111 407.923C223.352 408.093 223.684 408.034 223.854 407.793C223.972 407.625 224.189 407.458 224.466 407.281C224.972 406.954 225.665 406.616 226.448 406.28C229.585 404.934 234.13 403.671 234.13 403.671C234.415 403.593 234.578 403.298 234.501 403.014C234.423 402.73 234.127 402.563 233.842 402.646V402.649Z" fill="#A38C79"/>
</g>
<mask id="mask3_540_553" style="mask-type:luminance" maskUnits="userSpaceOnUse" x="221" y="389" width="64" height="48">
<path d="M249.377 391.233C249.377 391.233 247.555 393.538 244.456 395.216C244.456 395.216 242.33 396.488 233.69 399.139C233.69 399.139 220.835 402.965 225.352 406.671C225.352 406.671 223.737 407.774 224.296 409.425C224.296 409.425 224.972 411.278 229.741 410.693C229.741 410.693 237.143 410.026 250.227 406.046C250.227 406.046 246.783 407.973 233.69 413.681C233.69 413.681 214.532 421.48 223.343 424.83C223.343 424.83 222.418 426.115 223.961 427.475C223.961 427.475 225.687 428.883 229.059 426.889C229.059 426.889 226.024 429.689 227.761 431.418C227.761 431.418 228.938 432.445 230.616 431.418C230.616 431.418 229.616 432.991 230.926 434.191C230.926 434.191 232.693 435.891 236.506 433.448C236.506 433.448 236.105 434.581 237.403 435.775C237.403 435.775 239.186 437.62 246.434 434.911C246.434 434.911 267.997 427.639 276.349 424.149C276.349 424.149 286.18 420.539 284.878 413.12C284.878 413.12 282.879 400.86 283.355 396.433L255.735 389.792L249.383 391.23L249.377 391.233Z" fill="white"/>
</mask>
<g mask="url(#mask3_540_553)">
<path fill-rule="evenodd" clip-rule="evenodd" d="M240.765 429.417C240.765 429.417 237.943 430.484 236.365 432.005C235.583 432.758 235.11 433.63 235.23 434.525C235.268 434.816 235.536 435.021 235.827 434.983C236.119 434.944 236.326 434.678 236.287 434.382C236.237 434.016 236.379 433.669 236.611 433.339C236.891 432.935 237.303 432.558 237.763 432.218C239.225 431.132 241.138 430.411 241.138 430.411C241.412 430.307 241.554 429.999 241.451 429.725C241.349 429.453 241.039 429.31 240.765 429.412V429.417ZM235.458 427.091C235.458 427.091 233.402 427.958 231.535 429.282C230.225 430.207 229.026 431.365 228.597 432.59C228.497 432.867 228.646 433.171 228.924 433.268C229.201 433.364 229.507 433.218 229.602 432.941C229.973 431.894 231.036 430.939 232.153 430.148C233.925 428.894 235.874 428.071 235.874 428.071C236.143 427.958 236.273 427.645 236.159 427.373C236.044 427.102 235.731 426.974 235.458 427.088V427.091ZM232.242 424.043C232.242 424.043 226.913 426.212 225.086 429.112C224.928 429.359 225.003 429.689 225.252 429.846C225.501 430.002 225.833 429.927 225.989 429.68C227.683 426.999 232.64 425.032 232.64 425.032C232.914 424.923 233.047 424.614 232.936 424.34C232.826 424.068 232.516 423.935 232.242 424.046V424.043ZM228.791 420.422C228.791 420.422 225.687 421.469 223.681 423.06C222.731 423.811 222.034 424.699 221.898 425.636C221.856 425.927 222.059 426.198 222.35 426.24C222.643 426.282 222.912 426.08 222.956 425.789C223.019 425.342 223.289 424.923 223.652 424.528C224.069 424.079 224.609 423.666 225.185 423.301C226.985 422.154 229.129 421.434 229.129 421.434C229.408 421.342 229.56 421.04 229.464 420.76C229.372 420.483 229.065 420.329 228.788 420.425L228.791 420.422Z" fill="#E2BEA0"/>
</g>
<path fill-rule="evenodd" clip-rule="evenodd" d="M238.716 242.448C238.716 242.448 245.285 296.641 248.81 303.19V393.169C248.81 393.169 250.183 394.031 252.097 394.375V396.743C252.097 396.743 268.224 404.15 287.243 397.992C287.243 397.992 289.085 312.606 284.568 293.198L287.243 240.096L245.057 236.642C245.057 236.642 242.244 238.633 240.895 240.096" fill="#5C6248"/>
<mask id="mask4_540_553" style="mask-type:luminance" maskUnits="userSpaceOnUse" x="238" y="236" width="50" height="165">
<path d="M238.716 242.448C238.716 242.448 245.285 296.641 248.81 303.19V393.169C248.81 393.169 250.183 394.031 252.097 394.375V396.743C252.097 396.743 268.224 404.15 287.243 397.992C287.243 397.992 289.085 312.606 284.568 293.198L287.243 240.096L245.057 236.642C245.057 236.642 242.244 238.633 240.895 240.096" fill="white"/>
</mask>
<g mask="url(#mask4_540_553)">
<path fill-rule="evenodd" clip-rule="evenodd" d="M241.249 242.994C241.249 242.994 251.354 301.088 253.115 306.969L252.1 394.372L223.278 406.934C223.278 406.934 220.265 250.499 219.345 247.84C218.423 245.185 235.472 230.572 235.472 230.572L241.249 242.991V242.994Z" fill="#454A34"/>
</g>
<path fill-rule="evenodd" clip-rule="evenodd" d="M200.453 141.91C200.453 141.91 197.859 130.384 194.772 125.56C194.772 125.56 187.698 117.513 186.926 113.474C186.926 113.474 181.9 106.875 183.966 96.5741C183.966 96.5741 185.044 89.514 185.888 89.1625C185.888 89.1625 186.004 85.329 187.491 85.0947C187.491 85.0947 187.619 82.1876 189.579 82.7661C189.579 82.7661 191.038 83.0821 191.443 85.0947C191.443 85.0947 192.963 81.5522 194.464 84.3279C194.464 84.3279 197.668 83.0785 197.81 97C197.81 97 199.435 96.709 202.154 102.296C202.154 102.296 204.632 106.605 206.119 108.664C206.119 108.664 208.958 112.916 209.453 115.398C209.453 115.398 209.869 117.758 210.284 119.089C210.284 119.089 210.918 121.354 212.217 123.2C213.514 125.045 207.468 141.913 207.468 141.913L202.154 146.922L200.453 141.913V141.91Z" fill="#F6CEAE"/>
<mask id="mask5_540_553" style="mask-type:luminance" maskUnits="userSpaceOnUse" x="183" y="82" width="30" height="65">
<path d="M200.453 141.91C200.453 141.91 197.859 130.384 194.772 125.56C194.772 125.56 187.698 117.513 186.926 113.474C186.926 113.474 181.9 106.875 183.966 96.5741C183.966 96.5741 185.044 89.514 185.888 89.1625C185.888 89.1625 186.004 85.329 187.491 85.0947C187.491 85.0947 187.619 82.1876 189.579 82.7661C189.579 82.7661 191.038 83.0821 191.443 85.0947C191.443 85.0947 192.963 81.5522 194.464 84.3279C194.464 84.3279 197.668 83.0785 197.81 97C197.81 97 199.435 96.709 202.154 102.296C202.154 102.296 204.632 106.605 206.119 108.664C206.119 108.664 208.958 112.916 209.453 115.398C209.453 115.398 209.869 117.758 210.284 119.089C210.284 119.089 210.918 121.354 212.217 123.2C213.514 125.045 207.468 141.913 207.468 141.913L202.154 146.922L200.453 141.913V141.91Z" fill="white"/>
</mask>
<g mask="url(#mask5_540_553)">
<path fill-rule="evenodd" clip-rule="evenodd" d="M202.135 111.862C202.135 111.862 196.986 104.444 196.306 99.8967C196.156 98.8992 196.206 98.0509 196.701 97.529C197.014 97.199 197.501 97.0215 198.18 96.9966C198.476 96.986 198.703 96.7375 198.693 96.443C198.682 96.1483 198.433 95.9211 198.138 95.9317C197.106 95.9708 196.394 96.2974 195.921 96.7979C195.239 97.522 195.043 98.6686 195.25 100.053C195.951 104.763 201.254 112.469 201.254 112.469C201.42 112.711 201.755 112.771 201.997 112.604C202.239 112.437 202.3 112.104 202.132 111.862H202.135ZM188.41 98.1716L187.63 92.1373C187.591 91.8462 187.325 91.6403 187.034 91.6758C186.741 91.7149 186.535 91.9811 186.571 92.2722L188.036 103.613C187.948 105.093 187.904 106.02 187.904 106.02C187.89 106.314 188.117 106.563 188.413 106.577C188.709 106.591 188.957 106.364 188.972 106.069C188.972 106.069 189.011 105.2 189.092 103.805C189.114 103.737 189.122 103.663 189.111 103.585V103.56C189.285 100.521 189.637 95.2715 190.166 90.9872C190.501 88.2824 190.9 85.9645 191.379 84.8783C191.498 84.6085 191.376 84.2962 191.105 84.1755C190.836 84.0548 190.523 84.1791 190.401 84.4489C189.487 86.5218 188.823 92.8862 188.41 98.168V98.1716ZM194.524 83.0857C194.524 83.0857 193.888 83.1993 193.315 84.3495C192.863 85.2545 192.404 86.9371 192.447 90.0466V105.793C192.447 106.087 192.686 106.325 192.98 106.325C193.276 106.325 193.514 106.087 193.514 105.793V90.0359C193.475 87.1892 193.858 85.6486 194.271 84.8215C194.52 84.321 194.841 84.0974 194.841 84.0974L194.666 84.1293C195.093 84.03 195.261 83.7389 195.178 83.455C195.101 83.171 194.805 83.0042 194.524 83.0822V83.0857Z" fill="#E2BEA0"/>
<path fill-rule="evenodd" clip-rule="evenodd" d="M194.738 125.55C194.738 125.55 197.452 127.743 199.213 129.404C199.213 129.404 202.299 131.925 203.829 134.399L205.547 144.448L194.738 148.849L191.471 129.404L194.738 125.55ZM191.451 85.0771C191.451 85.0771 190.861 86.3655 190.742 87.3381C190.742 87.3381 190.233 85.9254 188.95 85.8863C188.95 85.8863 187.424 85.8118 187.466 89.5141C187.466 89.5141 187.541 90.515 187.907 94.203C187.907 94.203 187.494 93.4577 186.744 93.8375C186.744 93.8375 185.749 94.2421 186.018 98.7394C186.018 98.7394 186.356 102.282 186.744 108.295C186.744 108.295 186.965 111.255 186.932 113.481H179.087L177.27 88.4705L190.742 73.5054L191.451 85.0771Z" fill="#E2BEA0"/>
</g>
<mask id="mask6_540_553" style="mask-type:luminance" maskUnits="userSpaceOnUse" x="183" y="82" width="23" height="65">
<mask id="mask7_540_553" style="mask-type:luminance" maskUnits="userSpaceOnUse" x="177" y="73" width="29" height="76">
<path d="M194.738 125.549C194.738 125.549 197.452 127.743 199.213 129.404C199.213 129.404 202.299 131.924 203.829 134.399L205.547 144.447L194.738 148.849L191.471 129.404L194.738 125.549ZM191.451 85.0768C191.451 85.0768 190.861 86.3653 190.742 87.3379C190.742 87.3379 190.233 85.9251 188.95 85.8861C188.95 85.8861 187.424 85.8115 187.466 89.5138C187.466 89.5138 187.541 90.5148 187.907 94.2028C187.907 94.2028 187.494 93.4575 186.744 93.8373C186.744 93.8373 185.749 94.2418 186.018 98.7392C186.018 98.7392 186.356 102.282 186.744 108.295C186.744 108.295 186.965 111.255 186.932 113.481H179.087L177.27 88.4703L190.742 73.5051L191.451 85.0768Z" fill="white"/>
</mask>
<g mask="url(#mask7_540_553)">
<path d="M200.453 141.909C200.453 141.909 197.859 130.384 194.772 125.56C194.772 125.56 187.698 117.513 186.926 113.474C186.926 113.474 181.9 106.875 183.966 96.5739C183.966 96.5739 185.044 89.5137 185.888 89.1622C185.888 89.1622 186.004 85.3288 187.491 85.0944C187.491 85.0944 187.619 82.1874 189.579 82.7659C189.579 82.7659 191.038 83.0819 191.443 85.0944C191.443 85.0944 192.963 81.5519 194.464 84.3277C194.464 84.3277 197.668 83.0783 197.81 96.9997C197.81 96.9997 199.435 96.7088 202.154 102.296C202.154 102.296 204.632 106.605 206.119 108.664C206.119 108.664 208.958 112.916 209.453 115.397C209.453 115.397 209.869 117.758 210.284 119.089C210.284 119.089 210.918 121.354 212.217 123.199C213.514 125.045 207.468 141.913 207.468 141.913L202.154 146.921L200.453 141.913V141.909Z" fill="white"/>
</g>
</mask>
<g mask="url(#mask6_540_553)">
<path fill-rule="evenodd" clip-rule="evenodd" d="M185.625 89.244C185.625 89.244 186.232 89.0452 186.901 89.0914C187.306 89.1197 187.737 89.2368 188.039 89.5883C188.167 89.7374 188.391 89.7515 188.541 89.6238C188.69 89.4961 188.704 89.2723 188.577 89.1233C188.142 88.6193 187.53 88.424 186.951 88.385C186.14 88.3282 185.4 88.5731 185.4 88.5731C185.215 88.6335 185.112 88.8357 185.173 89.0204C185.232 89.2049 185.436 89.3078 185.62 89.2476L185.625 89.244ZM187.35 85.0838C187.35 85.0838 188.961 85.0732 189.668 87.0467C189.737 87.2314 189.939 87.3273 190.124 87.2597C190.308 87.1924 190.405 86.9899 190.338 86.8054C189.433 84.2923 187.331 84.3704 187.331 84.3704C187.136 84.374 186.979 84.5372 186.982 84.736C186.987 84.9311 187.15 85.0874 187.35 85.0804V85.0838Z" fill="#A38C79"/>
</g>
<path fill-rule="evenodd" clip-rule="evenodd" d="M239.804 83.508C239.804 83.508 236.346 85.084 236.357 87.3699L236.642 91.3987C236.642 91.3987 236.713 92.8575 235.969 96.0344C235.969 96.0344 231.161 111.969 229.439 136.887L213.743 121.45C213.743 121.45 203.459 129.702 200.844 138.722L202.677 141.388L198.158 142.179C198.158 142.179 206.945 169.728 228.01 170.708L225.604 239.324C225.604 239.324 244.165 251.404 296.658 242.036L292.451 123.771C292.451 123.771 292.444 109.452 283.737 91.3987C283.737 91.3987 276.131 77.5161 271.002 71.2831L268.385 66.1042L265.702 68.1523L248.536 74.027L239.804 83.508Z" fill="#8F9B87"/>
<mask id="mask8_540_553" style="mask-type:luminance" maskUnits="userSpaceOnUse" x="198" y="66" width="99" height="180">
<path d="M239.804 83.508C239.804 83.508 236.346 85.084 236.357 87.3699L236.642 91.3987C236.642 91.3987 236.713 92.8575 235.969 96.0344C235.969 96.0344 231.161 111.969 229.439 136.887L213.743 121.45C213.743 121.45 203.459 129.702 200.844 138.722L202.677 141.388L198.158 142.179C198.158 142.179 206.945 169.728 228.01 170.708L225.604 239.324C225.604 239.324 244.165 251.404 296.658 242.036L292.451 123.771C292.451 123.771 292.444 109.452 283.737 91.3987C283.737 91.3987 276.131 77.5161 271.002 71.2831L268.385 66.1042L265.702 68.1523L248.536 74.027L239.804 83.508Z" fill="white"/>
</mask>
<g mask="url(#mask8_540_553)">
<path fill-rule="evenodd" clip-rule="evenodd" d="M283.128 111.596C283.128 111.596 273.467 150.226 254.456 169.503C254.437 169.522 250.294 173.675 243.396 174.47C238.716 175.01 232.79 173.983 226.014 169.174C225.534 168.833 224.869 168.946 224.527 169.426C224.186 169.905 224.299 170.569 224.779 170.91C232.125 176.124 238.566 177.171 243.642 176.586C251.365 175.697 255.978 170.999 255.978 170.999C275.321 151.387 285.202 112.114 285.202 112.114C285.344 111.543 284.995 110.964 284.427 110.822C283.854 110.68 283.274 111.028 283.131 111.596H283.128ZM240.629 144.746C234.706 138.874 229.536 133.987 229.536 133.987C229.109 133.582 228.433 133.6 228.027 134.029C227.622 134.455 227.639 135.13 228.07 135.534C228.07 135.534 245.985 152.459 253.218 161.067C253.595 161.517 254.27 161.574 254.722 161.198C255.173 160.821 255.234 160.148 254.854 159.696C251.827 156.093 246.943 151.043 242.266 146.371C249.543 128.996 261.182 90.6461 261.182 90.6461C261.352 90.0853 261.032 89.4889 260.47 89.3186C259.908 89.1482 259.31 89.4676 259.141 90.0285C259.141 90.0285 247.901 127.079 240.632 144.742L240.629 144.746Z" fill="#747F6C"/>
<path fill-rule="evenodd" clip-rule="evenodd" d="M208.57 150.031C208.57 150.031 213.657 138.963 223.859 129.181L213.038 113.956C213.038 113.956 198.781 132.826 198.576 133.596C198.369 134.366 198.576 142.392 198.576 142.392L208.57 150.031ZM236.536 91.5548C236.536 91.5548 258.82 83.9445 271.035 71.2476C283.25 58.5506 273.208 60.0202 273.208 60.0202C273.208 60.0202 233.086 77.8107 232.366 78.51C231.649 79.2058 230.009 89.8864 230.009 89.8864L236.531 91.5584L236.536 91.5548Z" fill="#E0C389"/>
<path fill-rule="evenodd" clip-rule="evenodd" d="M202.669 141.377C202.669 141.377 205.632 145.963 217.182 159.023C217.182 159.023 224.457 167.622 228.005 170.708L210.78 188.232L194.94 141.374L198.49 136.443L202.669 141.374V141.377Z" fill="#747F6C"/>
</g>
<mask id="mask9_540_553" style="mask-type:luminance" maskUnits="userSpaceOnUse" x="198" y="136" width="31" height="53">
<mask id="mask10_540_553" style="mask-type:luminance" maskUnits="userSpaceOnUse" x="194" y="136" width="35" height="53">
<path d="M202.669 141.377C202.669 141.377 205.632 145.963 217.182 159.023C217.182 159.023 224.455 167.623 228.005 170.708L210.778 188.232L194.94 141.374L198.49 136.443L202.669 141.374V141.377Z" fill="white"/>
</mask>
<g mask="url(#mask10_540_553)">
<path d="M239.804 83.5082C239.804 83.5082 236.346 85.0842 236.357 87.3702L236.642 91.3989C236.642 91.3989 236.713 92.8578 235.969 96.0346C235.969 96.0346 231.159 111.969 229.439 136.887L213.741 121.45C213.741 121.45 203.459 129.703 200.844 138.722L202.675 141.388L198.158 142.18C198.158 142.18 206.945 169.728 228.008 170.708L225.604 239.324C225.604 239.324 244.165 251.404 296.658 242.036L292.45 123.771C292.45 123.771 292.444 109.452 283.735 91.3989C283.735 91.3989 276.131 77.5164 271.002 71.2834L268.385 66.1045L265.702 68.1525L248.536 74.0272L239.804 83.5082Z" fill="white"/>
</g>
</mask>
<g mask="url(#mask9_540_553)">
<path fill-rule="evenodd" clip-rule="evenodd" d="M204.287 155.359C204.287 155.359 208.587 153.13 212.39 152.906L206.862 139.734C206.862 139.734 200.243 133.976 198.472 134.413C196.7 134.853 192.215 140.657 192.069 141.136C191.923 141.615 198.472 150.01 198.472 150.01L204.284 155.359H204.287Z" fill="#E0C389"/>
</g>
<path fill-rule="evenodd" clip-rule="evenodd" d="M209.268 35.4215C209.268 35.4215 210.854 65.5505 219.525 76.998C219.525 76.998 222.397 81.325 228.279 80.8599C230.73 80.6683 234.91 78.4391 237.797 76.178C237.797 76.178 238.622 78.4285 239.804 83.508C247.189 80.7499 260.36 72.923 265.727 68.1489L261.872 55.6117L255.373 35.8403L233.419 19.7146L211.406 31.6199L209.263 35.425L209.268 35.4215Z" fill="#F6CEAE"/>
<path fill-rule="evenodd" clip-rule="evenodd" d="M230.211 30.9455C230.211 30.9455 231.111 37.7962 236.897 38.1156C236.897 38.1156 245.523 38.1156 245.78 44.2707C245.78 44.2707 249.051 37.5192 252.645 41.3706C252.645 41.3706 256.455 45.2397 252.111 55.8743C252.111 55.8743 253.647 60.0592 259.053 58.9944C259.053 58.9944 261.719 58.3519 262.301 56.3109C262.301 56.3109 263.13 53.1234 263.113 45.9816C263.113 45.9816 262.767 34.8748 262.074 29.735L249.148 23.8142L232.654 28.6808L230.207 30.9455H230.211Z" fill="#7E4210"/>
<path fill-rule="evenodd" clip-rule="evenodd" d="M206.624 7.06737C206.624 7.06737 227.764 -3.70921 256.863 1.35607C256.863 1.35607 260.844 13.3111 262.167 29.9907C262.167 29.9907 239.563 28.01 208.805 35.7126C208.805 35.7126 206.12 20.9392 206.629 7.06737H206.624Z" fill="#5C6248"/>
<mask id="mask11_540_553" style="mask-type:luminance" maskUnits="userSpaceOnUse" x="206" y="0" width="57" height="36">
<path d="M206.624 7.06737C206.624 7.06737 227.764 -3.70921 256.863 1.35607C256.863 1.35607 260.844 13.3111 262.167 29.9907C262.167 29.9907 239.563 28.01 208.805 35.7126C208.805 35.7126 206.12 20.9392 206.629 7.06737H206.624Z" fill="white"/>
</mask>
<g mask="url(#mask11_540_553)">
<path fill-rule="evenodd" clip-rule="evenodd" d="M210.071 5.3955C210.071 5.3955 209.841 21.816 212.597 24.9325C212.597 24.9325 213.923 26.796 220.732 26.9132C220.732 26.9132 240.178 25.5679 264.076 28.4786L269.088 39.9473L221.782 58.3236C221.782 58.3236 191.18 44.9273 190.401 43.7951C189.626 42.6627 193.254 14.8765 193.254 14.8765L200.941 1.32056L210.071 5.3955Z" fill="#454A34"/>
</g>
</g>
<defs>
<filter id="filter0_d_540_553" x="2.22729" y="0.00195312" width="350.549" height="451.432" filterUnits="userSpaceOnUse" color-interpolation-filters="sRGB">
<feFlood flood-opacity="0" result="BackgroundImageFix"/>
<feColorMatrix in="SourceAlpha" type="matrix" values="0 0 0 0 0 0 0 0 0 0 0 0 0 0 0 0 0 0 127 0" result="hardAlpha"/>
<feOffset dy="4"/>
<feGaussianBlur stdDeviation="2"/>
<feComposite in2="hardAlpha" operator="out"/>
<feColorMatrix type="matrix" values="0 0 0 0 0 0 0 0 0 0 0 0 0 0 0 0 0 0 0.25 0"/>
<feBlend mode="normal" in2="BackgroundImageFix" result="effect1_dropShadow_540_553"/>
<feBlend mode="normal" in="SourceGraphic" in2="effect1_dropShadow_540_553" result="shape"/>
</filter>
</defs>
</svg>
