<svg width="355" height="460" viewBox="0 0 355 460" fill="none" xmlns="http://www.w3.org/2000/svg">
<g clip-path="url(#clip0_540_497)">
<g filter="url(#filter0_d_540_497)">
<path fill-rule="evenodd" clip-rule="evenodd" d="M343.039 445.654C342.137 445.772 341.297 445.886 340.672 445.881C334.774 445.872 329.685 446.551 323.846 445.778C323.603 445.747 323.38 445.918 323.349 446.164C323.316 446.405 323.486 446.63 323.732 446.663C329.615 447.439 334.735 446.761 340.672 446.776C341.848 446.776 343.754 446.391 345.465 446.292C346.5 446.231 347.457 446.263 348.083 446.62C348.295 446.741 348.566 446.666 348.688 446.452C348.808 446.238 348.733 445.968 348.521 445.847C348.264 445.701 347.962 445.593 347.625 445.522C347.656 445.466 347.678 445.402 347.681 445.329C347.695 445.085 347.51 444.874 347.265 444.859C343.573 444.635 339.544 444.898 335.756 444.824C331.62 444.746 327.505 444.357 323.38 444.208C323.134 444.197 322.928 444.39 322.917 444.635C322.908 444.881 323.103 445.088 323.344 445.094C327.477 445.245 331.595 445.632 335.739 445.711C338.126 445.758 340.607 445.668 343.039 445.654ZM7.40048 444.493C7.06262 444.553 6.75678 444.649 6.49361 444.785C6.27667 444.898 6.19131 445.166 6.30511 445.387C6.41892 445.604 6.68565 445.69 6.90614 445.576C7.54273 445.245 8.50297 445.248 9.53433 445.343C11.2378 445.505 13.1299 445.96 14.307 446.004C20.2391 446.209 25.3355 447.072 31.2391 446.509C31.4845 446.488 31.6623 446.267 31.6374 446.024C31.6126 445.778 31.3955 445.601 31.1537 445.623C25.2892 446.181 20.2285 445.318 14.3355 445.116C13.706 445.094 12.8738 444.953 11.9776 444.799C14.4102 444.903 16.889 445.08 19.2753 445.119C23.4185 445.191 27.5476 444.956 31.6836 444.956C31.9291 444.956 32.1282 444.757 32.1282 444.511C32.1282 444.264 31.9291 444.065 31.6836 444.065C27.5546 444.065 23.4293 444.304 19.2931 444.228C15.5091 444.166 11.4903 443.755 7.79169 443.844C7.5463 443.852 7.35069 444.054 7.35781 444.3C7.35781 444.368 7.37559 444.435 7.4076 444.493H7.40048ZM347.254 443.787C347.165 443.794 347.016 443.805 346.885 443.808C346.241 443.822 345.294 443.787 345.174 443.784C343.221 443.712 341.294 443.477 339.341 443.406C333.001 443.174 326.676 443.331 320.329 443.099C320.083 443.089 319.877 443.281 319.87 443.527C319.86 443.773 320.052 443.979 320.296 443.987C326.645 444.219 332.971 444.062 339.309 444.293C341.258 444.365 343.189 444.6 345.141 444.671C345.283 444.674 346.547 444.721 347.173 444.688C347.393 444.678 347.556 444.645 347.628 444.62C347.862 444.528 347.923 444.354 347.937 444.239C347.951 444.118 347.937 443.965 347.776 443.83C347.628 443.701 347.413 443.69 347.254 443.791V443.787ZM347.073 444.321C347.091 444.376 347.123 444.432 347.179 444.485C347.13 444.438 347.094 444.382 347.073 444.321ZM7.83437 442.776C7.67789 442.669 7.46449 442.672 7.30801 442.796C7.14443 442.928 7.12308 443.082 7.13375 443.199C7.14443 443.314 7.19421 443.491 7.42893 443.591C7.50006 443.62 7.6601 443.659 7.88416 443.676C8.51009 443.734 9.7726 443.734 9.91487 443.734C11.8673 443.734 13.8056 443.566 15.758 443.566C22.1026 443.566 28.4152 443.955 34.7707 443.955C35.016 443.955 35.2151 443.755 35.2151 443.51C35.2151 443.264 35.016 443.064 34.7707 443.064C28.4188 443.064 22.1026 442.675 15.758 442.675C13.8056 442.675 11.8709 442.843 9.91487 442.843C9.79395 442.843 8.84438 442.843 8.20424 442.807C8.07264 442.801 7.92684 442.787 7.83792 442.776H7.83437ZM7.99796 443.317C7.97307 443.378 7.93394 443.431 7.88416 443.477C7.94462 443.427 7.97662 443.37 7.99796 443.317ZM346.86 442.238C343.684 442.241 340.393 442.002 337.183 441.941C332.022 441.846 326.858 442.062 321.697 441.874C321.453 441.863 321.247 442.056 321.236 442.302C321.228 442.547 321.417 442.754 321.663 442.765C326.83 442.953 331.997 442.737 337.161 442.832C340.379 442.893 343.676 443.132 346.855 443.129C347.101 443.129 347.301 442.928 347.301 442.683C347.301 442.437 347.101 442.238 346.855 442.238H346.86ZM8.2469 442.134C11.4263 442.255 14.7302 442.134 17.9488 442.191C23.1162 442.283 28.2731 442.686 33.4404 442.686C33.6859 442.686 33.885 442.487 33.885 442.241C33.885 441.995 33.6859 441.795 33.4404 441.795C28.2767 441.795 23.1234 441.389 17.963 441.3C14.7516 441.243 11.4512 441.364 8.27891 441.243C8.03353 441.232 7.82725 441.425 7.81658 441.672C7.80592 441.916 7.99796 442.123 8.24335 442.134H8.2469ZM346.287 440.616C343.21 440.591 340.145 440.232 337.062 440.282C333.381 440.341 329.728 440.669 326.037 440.599C323.383 440.545 320.748 440.203 318.092 440.254C317.847 440.257 317.651 440.459 317.654 440.705C317.658 440.952 317.861 441.148 318.106 441.143C320.748 441.094 323.377 441.436 326.015 441.49C329.718 441.563 333.381 441.232 337.072 441.173C340.148 441.123 343.207 441.479 346.277 441.507C346.522 441.507 346.724 441.311 346.724 441.065C346.724 440.82 346.528 440.621 346.283 440.616H346.287ZM8.89062 440.534C11.9562 440.621 15.029 440.374 18.1018 440.534C21.7897 440.73 25.4385 441.19 29.1409 441.254C31.7832 441.297 34.4185 441.05 37.0574 441.196C37.3027 441.212 37.5126 441.022 37.5268 440.776C37.5411 440.531 37.3525 440.321 37.1071 440.307C34.4541 440.161 31.808 440.406 29.1551 440.36C25.4634 440.299 21.8252 439.836 18.1479 439.643C15.0681 439.48 11.9918 439.725 8.91551 439.643C8.67012 439.637 8.46384 439.833 8.46029 440.078C8.45318 440.324 8.64879 440.526 8.89062 440.534ZM345.856 438.977C345.366 438.814 344.494 438.732 343.463 438.707C341.191 438.654 338.087 438.859 336.745 438.836C331.048 438.724 325.372 438.475 319.678 438.268C319.433 438.262 319.226 438.45 319.215 438.696C319.209 438.942 319.4 439.148 319.642 439.159C325.339 439.366 331.022 439.615 336.724 439.725C338.065 439.75 341.169 439.545 343.441 439.598C344.359 439.618 345.135 439.676 345.571 439.822C345.803 439.901 346.056 439.775 346.134 439.54C346.212 439.309 346.087 439.055 345.853 438.977H345.856ZM9.65525 438.878C10.0998 438.746 10.8751 438.718 11.7926 438.727C14.0652 438.76 17.1592 439.077 18.5001 439.099C24.2009 439.195 29.8912 439.152 35.5922 439.152C35.8375 439.152 36.0366 438.953 36.0366 438.707C36.0366 438.461 35.8375 438.262 35.5922 438.262C29.8948 438.262 24.2151 438.301 18.5178 438.205C17.1734 438.183 14.083 437.862 11.8069 437.833C10.7755 437.819 9.90419 437.869 9.4063 438.018C9.17157 438.091 9.03642 438.337 9.10756 438.571C9.17512 438.806 9.42408 438.942 9.6588 438.875L9.65525 438.878ZM344.58 437.25C344.086 437.065 343.189 436.982 342.123 436.972C339.786 436.953 336.577 437.261 335.293 437.286C329.66 437.399 324.141 436.989 318.518 436.782C318.274 436.776 318.067 436.964 318.056 437.211C318.049 437.457 318.238 437.662 318.483 437.67C324.12 437.877 329.657 438.287 335.308 438.172C336.585 438.147 339.782 437.841 342.112 437.858C343.044 437.866 343.829 437.916 344.264 438.08C344.494 438.166 344.75 438.048 344.836 437.819C344.921 437.589 344.803 437.331 344.577 437.247L344.58 437.25ZM11.0245 437.189C11.4619 437.043 12.2479 437.021 13.1832 437.046C15.5126 437.113 18.6956 437.535 19.9723 437.609C25.6163 437.931 31.1608 437.72 36.8048 437.72C37.0502 437.72 37.2494 437.52 37.2494 437.275C37.2494 437.029 37.0502 436.829 36.8048 436.829C31.1786 436.829 25.6484 437.04 20.0222 436.718C18.7419 436.648 15.5447 436.224 13.2081 436.155C12.1412 436.124 11.2414 436.177 10.7435 436.342C10.5123 436.42 10.3843 436.673 10.4626 436.903C10.5408 437.135 10.7933 437.264 11.0245 437.185V437.189ZM343.829 436.099C343.921 436.252 344.103 436.337 344.289 436.306C344.53 436.263 344.689 436.028 344.644 435.785C344.583 435.454 344.373 435.28 344.057 435.219C343.904 435.19 343.712 435.197 343.508 435.23C343.313 435.258 343.1 435.308 342.944 435.305C341.069 435.236 339.198 435.076 337.322 435.044C330.699 434.933 324.102 435.28 317.479 435.041C317.234 435.033 317.029 435.222 317.021 435.468C317.01 435.714 317.203 435.921 317.448 435.928C324.077 436.171 330.682 435.824 337.306 435.935C339.178 435.967 341.045 436.127 342.911 436.194C343.086 436.202 343.31 436.163 343.53 436.131C343.62 436.116 343.751 436.11 343.829 436.102V436.099ZM11.533 435.219C11.597 435.222 11.6895 435.233 11.7535 435.244C11.9954 435.291 12.2514 435.347 12.4435 435.347C14.3141 435.347 16.1848 435.255 18.0555 435.291C24.6846 435.422 31.271 436.006 37.9037 436.006C38.1491 436.006 38.3483 435.807 38.3483 435.561C38.3483 435.314 38.1491 435.115 37.9037 435.115C31.2782 435.115 24.6988 434.532 18.0733 434.4C16.1954 434.361 14.3212 434.453 12.4435 434.453C12.2834 434.453 12.0772 434.392 11.878 434.361C11.6753 434.324 11.4832 434.307 11.3303 434.332C11.0138 434.378 10.7968 434.546 10.7257 434.877C10.6724 435.115 10.8253 435.353 11.0636 435.407C11.2485 435.446 11.4335 435.368 11.5295 435.219H11.533ZM12.1269 433.445C14.6449 434.132 19.4958 433.537 22.2947 433.637C27.1136 433.808 31.9041 434.439 36.7302 434.63C36.9756 434.641 37.1818 434.448 37.1925 434.204C37.2031 433.957 37.0111 433.75 36.7657 433.739C31.9397 433.548 27.1457 432.921 22.3267 432.747C19.5848 432.646 14.8298 433.259 12.3617 432.587C12.1234 432.522 11.8816 432.66 11.8175 432.899C11.7535 433.139 11.8922 433.38 12.1305 433.445H12.1269ZM343.1 433.434C340.607 434.019 335.881 433.234 333.135 433.231C328.312 433.231 323.5 433.68 318.668 433.697C318.422 433.697 318.224 433.896 318.227 434.143C318.227 434.389 318.425 434.588 318.671 434.588C323.5 434.571 328.312 434.117 333.135 434.122C335.935 434.122 340.761 434.899 343.304 434.299C343.541 434.243 343.69 434.004 343.634 433.765C343.577 433.526 343.338 433.377 343.1 433.434ZM342.257 431.923C342.112 431.912 341.863 431.898 341.766 431.892C340.864 431.816 340.92 431.755 340.021 431.663C337.691 431.418 335.337 431.225 332.996 431.186C326.958 431.079 320.801 430.979 314.771 431.242C314.525 431.253 314.333 431.46 314.344 431.707C314.353 431.951 314.56 432.141 314.805 432.13C320.82 431.867 326.958 431.97 332.979 432.077C335.293 432.116 337.624 432.307 339.924 432.55C340.834 432.646 340.778 432.707 341.691 432.781C341.841 432.792 342.179 432.825 342.343 432.825C342.442 432.825 342.514 432.814 342.545 432.803C342.802 432.736 342.858 432.547 342.877 432.439C342.888 432.376 342.927 432.044 342.528 431.92C342.436 431.892 342.339 431.895 342.254 431.92L342.257 431.923ZM13.2579 431.104C13.1725 431.071 13.0801 431.065 12.984 431.09C12.5822 431.2 12.6106 431.531 12.6177 431.595C12.632 431.702 12.6817 431.892 12.9342 431.97C12.9663 431.98 13.0374 431.995 13.137 431.998C13.3006 432.002 13.642 431.987 13.7878 431.98C14.7053 431.937 14.6484 431.878 15.5624 431.813C17.8705 431.656 20.2071 431.55 22.5224 431.592C28.5433 431.707 34.6817 431.827 40.6813 432.307C40.9267 432.326 41.1402 432.144 41.1614 431.898C41.1827 431.652 40.9979 431.438 40.7525 431.418C34.735 430.936 28.579 430.811 22.54 430.698C20.2 430.654 17.8386 430.762 15.502 430.919C14.5986 430.979 14.652 431.043 13.7487 431.082C13.6526 431.085 13.4073 431.093 13.2579 431.096V431.104ZM341.219 429.843C340.977 429.832 340.575 429.804 340.387 429.796C339.689 429.771 338.992 429.746 338.296 429.721C336.479 429.653 334.643 429.636 332.826 429.633C327.146 429.622 321.477 429.882 315.801 429.675C315.556 429.664 315.349 429.857 315.343 430.102C315.335 430.348 315.524 430.555 315.77 430.566C321.456 430.772 327.136 430.513 332.826 430.522C334.637 430.527 336.457 430.544 338.266 430.612C338.964 430.637 339.661 430.662 340.359 430.687C340.639 430.698 341.364 430.744 341.464 430.733C341.794 430.69 341.848 430.427 341.859 430.348C341.866 430.309 341.888 429.922 341.439 429.832C341.364 429.818 341.289 429.821 341.219 429.843ZM14.3675 429.062C14.2999 429.037 14.2252 429.031 14.147 429.042C13.6953 429.112 13.706 429.501 13.7096 429.54C13.7167 429.617 13.7629 429.886 14.0901 429.939C14.1932 429.956 14.9187 429.936 15.1997 429.936H17.2943C19.1047 429.936 20.9255 429.981 22.7357 430.046C28.4224 430.242 34.0877 430.709 39.778 430.709C40.0234 430.709 40.2225 430.508 40.2225 430.264C40.2225 430.017 40.0234 429.818 39.778 429.818C34.0985 429.818 28.4402 429.351 22.7641 429.155C20.9468 429.09 19.1117 429.045 17.2943 429.045H15.1997C15.0112 429.045 14.6093 429.059 14.3675 429.059V429.062ZM340.714 428.272C340.714 428.272 340.521 428.289 340.362 428.293C340.007 428.293 339.497 428.272 338.9 428.229C336.524 428.064 332.812 427.652 331.983 427.608C326.065 427.302 320.072 427.655 314.144 427.677C313.898 427.677 313.699 427.876 313.703 428.123C313.703 428.367 313.903 428.566 314.148 428.566C320.058 428.546 326.034 428.19 331.937 428.496C332.882 428.546 337.595 429.079 339.775 429.166C340.407 429.191 340.856 429.166 341.009 429.109C341.241 429.023 341.358 428.767 341.272 428.538C341.191 428.311 340.942 428.193 340.714 428.272ZM14.933 427.512C14.7089 427.428 14.4564 427.537 14.3639 427.762C14.2715 427.989 14.3817 428.25 14.6058 428.342C14.7551 428.403 15.2032 428.449 15.8363 428.446C18.02 428.435 22.7463 428.075 23.6923 428.061C29.6031 427.969 35.5601 428.543 41.4673 428.777C41.7127 428.788 41.919 428.596 41.9296 428.35C41.9402 428.104 41.7482 427.897 41.5028 427.887C35.5814 427.647 29.6031 427.078 23.6781 427.17C22.8495 427.185 19.1259 427.462 16.7432 427.537C16.1457 427.555 15.6336 427.563 15.2779 427.548C15.1179 427.541 14.9401 427.515 14.9258 427.515L14.933 427.512ZM339.341 427.235C339.458 427.352 339.633 427.403 339.801 427.345C340.041 427.263 340.113 427.114 340.141 427.039C340.209 426.865 340.198 426.664 339.982 426.501C339.932 426.465 339.829 426.411 339.675 426.38C339.413 426.322 338.865 426.283 338.62 426.254C337.808 426.159 337.866 426.195 337.001 426.141C334.718 425.994 332.452 425.809 330.165 425.724C324.451 425.517 318.749 425.638 313.027 425.432C312.781 425.425 312.575 425.618 312.569 425.859C312.558 426.105 312.75 426.312 312.996 426.322C318.718 426.529 324.418 426.408 330.134 426.615C332.41 426.697 334.671 426.885 336.945 427.028C337.783 427.081 337.73 427.046 338.517 427.139C338.684 427.156 339.095 427.206 339.338 427.238L339.341 427.235ZM16.3413 426.526C16.5831 426.504 16.9992 426.472 17.1664 426.458C17.9559 426.394 17.9025 426.425 18.7419 426.405C21.0179 426.344 23.2834 426.237 25.563 426.237C31.2818 426.237 36.9756 426.568 42.7014 426.568C42.9468 426.568 43.146 426.369 43.146 426.123C43.146 425.878 42.9468 425.677 42.7014 425.677C36.9756 425.677 31.2818 425.346 25.563 425.346C23.2763 425.346 21.0037 425.45 18.717 425.514C17.8528 425.534 17.9097 425.503 17.0953 425.57C16.8499 425.589 16.3022 425.61 16.0354 425.657C15.8825 425.685 15.7794 425.73 15.7261 425.767C15.502 425.923 15.4842 426.119 15.5447 426.298C15.5695 426.372 15.6371 426.526 15.8754 426.615C16.039 426.679 16.2204 426.636 16.3413 426.523V426.526ZM338.391 425.618C338.506 425.76 338.701 425.823 338.886 425.76C339.117 425.682 339.187 425.534 339.217 425.45C339.27 425.296 339.259 425.125 339.109 424.968C339.064 424.92 338.967 424.851 338.826 424.802C338.598 424.723 338.129 424.648 337.911 424.623C336.929 424.509 336.968 424.537 335.949 424.388C333.498 424.032 331.069 423.864 328.597 423.732C322.384 423.398 316.203 423.889 310.007 423.662C309.763 423.654 309.557 423.847 309.549 424.088C309.538 424.335 309.733 424.542 309.976 424.548C316.164 424.772 322.341 424.284 328.547 424.615C330.991 424.747 333.395 424.912 335.817 425.265C336.851 425.414 336.809 425.389 337.805 425.503C337.922 425.517 338.207 425.574 338.388 425.61L338.391 425.618ZM17.3513 424.94C17.5327 424.909 17.8171 424.865 17.9382 424.855C18.9375 424.772 18.8948 424.802 19.9332 424.687C22.3658 424.424 24.777 424.345 27.2203 424.303C33.4334 424.195 39.593 424.909 45.7847 424.909C46.0301 424.909 46.2293 424.709 46.2293 424.463C46.2293 424.217 46.0301 424.018 45.7847 424.018C39.586 424.018 33.4262 423.306 27.2062 423.412C24.7345 423.455 22.2983 423.533 19.8372 423.8C18.813 423.911 18.8521 423.886 17.867 423.964C17.6501 423.982 17.177 424.038 16.9459 424.107C16.8 424.149 16.704 424.217 16.6542 424.264C16.4977 424.416 16.4836 424.584 16.5334 424.738C16.5618 424.822 16.6258 424.973 16.8535 425.061C17.0347 425.133 17.2304 425.075 17.3513 424.937V424.94ZM337.311 422.617L337.261 422.611C336.069 422.485 334.882 422.325 333.69 422.204C331.642 421.997 329.607 421.851 327.548 421.812C321.136 421.691 314.691 422.393 308.298 422.161C308.052 422.154 307.846 422.342 307.838 422.589C307.827 422.835 308.019 423.042 308.265 423.048C314.667 423.284 321.115 422.578 327.53 422.698C329.565 422.738 331.578 422.88 333.601 423.084C334.793 423.205 335.977 423.365 337.169 423.491C337.204 423.494 337.306 423.516 337.392 423.511C337.495 423.511 337.591 423.486 337.663 423.451C337.816 423.376 337.908 423.252 337.936 423.084C337.975 422.841 337.811 422.614 337.57 422.571C337.478 422.557 337.389 422.571 337.314 422.606L337.311 422.617ZM18.5392 421.986C18.4608 421.947 18.3756 421.93 18.283 421.944C18.0376 421.975 17.867 422.197 17.8989 422.443C17.9204 422.611 18.0092 422.738 18.1587 422.816C18.2262 422.852 18.3223 422.88 18.4253 422.885C18.5143 422.888 18.6174 422.874 18.653 422.869C19.8478 422.793 21.0393 422.67 22.2343 422.597C24.265 422.468 26.2815 422.396 28.3157 422.432C34.7314 422.546 41.1508 423.48 47.5558 423.48C47.8012 423.48 48.0004 423.28 48.0004 423.034C48.0004 422.788 47.8012 422.589 47.5558 422.589C41.1578 422.589 34.7422 421.652 28.33 421.541C26.2708 421.506 24.2293 421.577 22.1774 421.709C20.9824 421.784 19.7911 421.905 18.5925 421.983H18.5428L18.5392 421.986ZM337.062 422.931C337.062 422.931 337.062 422.945 337.057 422.953V422.931H337.062ZM18.7739 422.303V422.325C18.7739 422.325 18.7739 422.311 18.7739 422.303ZM336.312 421.787C336.404 421.877 336.532 421.927 336.67 421.911C336.915 421.888 337.09 421.666 337.065 421.423C337.054 421.335 337.023 421.235 336.937 421.143C336.876 421.078 336.728 420.972 336.454 420.893C335.675 420.664 333.378 420.341 329.61 420.123C326.417 419.941 323.288 420.223 320.108 420.162C316.413 420.095 312.736 419.839 309.048 419.703C308.803 419.692 308.596 419.885 308.589 420.131C308.578 420.376 308.77 420.583 309.016 420.594C312.708 420.728 316.392 420.983 320.091 421.053C323.259 421.114 326.378 420.829 329.56 421.011C332.457 421.179 334.465 421.403 335.558 421.602C335.896 421.662 336.211 421.756 336.312 421.784V421.787ZM336.183 421.535V421.513C336.183 421.513 336.183 421.527 336.183 421.535ZM19.567 421.188C19.67 421.163 19.9901 421.081 20.3279 421.031C21.4269 420.871 23.4435 420.719 26.3418 420.658C29.5249 420.59 32.6331 420.989 35.8019 421.042C39.5006 421.11 43.1921 420.989 46.8873 420.989C47.1326 420.989 47.3319 420.79 47.3319 420.543C47.3319 420.299 47.1326 420.098 46.8873 420.098C43.1957 420.098 39.5112 420.22 35.8197 420.156C32.6403 420.098 29.5213 419.703 26.3242 419.77C22.5508 419.848 20.2461 420.088 19.4567 420.291C19.1829 420.361 19.0263 420.459 18.966 420.523C18.877 420.615 18.8379 420.711 18.8272 420.801C18.7916 421.042 18.9624 421.271 19.2041 421.303C19.3429 421.32 19.4709 421.277 19.567 421.188ZM19.7021 420.943C19.7021 420.943 19.7021 420.929 19.7021 420.921V420.943ZM335.142 420.084C335.268 420.205 335.461 420.244 335.631 420.17C335.86 420.066 335.916 419.916 335.938 419.834C335.98 419.668 335.955 419.486 335.764 419.343C335.709 419.304 335.606 419.251 335.458 419.223C335.22 419.176 334.729 419.158 334.504 419.144C333.808 419.094 333.107 419.055 332.407 419.012C330.095 418.873 327.798 418.909 325.485 418.926C319.472 418.976 313.387 418.517 307.383 418.82C307.137 418.831 306.95 419.041 306.961 419.285C306.975 419.532 307.181 419.721 307.427 419.706C313.415 419.403 319.489 419.863 325.489 419.814C327.779 419.795 330.056 419.764 332.349 419.899C333.043 419.941 333.741 419.977 334.433 420.03C334.576 420.041 334.921 420.07 335.134 420.088L335.142 420.084ZM20.7974 419.532C21.0109 419.521 21.3559 419.507 21.498 419.5C22.1951 419.475 22.8886 419.461 23.5857 419.447C25.8831 419.394 28.1556 419.511 30.4461 419.61C36.4421 419.878 42.5272 419.638 48.5018 420.162C48.7473 420.184 48.9606 420.002 48.9819 419.756C49.0033 419.511 48.8219 419.296 48.5766 419.276C42.5875 418.755 36.4883 418.99 30.4816 418.724C28.1734 418.62 25.8795 418.506 23.5644 418.559C22.8638 418.573 22.1631 418.587 21.4625 418.612C21.2384 418.62 20.7513 418.62 20.5093 418.655C20.36 418.677 20.2533 418.727 20.2 418.766C20.0044 418.904 19.9723 419.083 20.0116 419.251C20.0292 419.332 20.0826 419.489 20.3031 419.599C20.4703 419.682 20.6659 419.649 20.794 419.532H20.7974ZM334.519 417.965C334.313 417.929 333.97 417.867 333.822 417.858C332.733 417.775 332.787 417.736 331.653 417.668C329.537 417.544 327.438 417.281 325.317 417.166C319.497 416.853 313.678 417.066 307.849 416.856C307.603 416.846 307.397 417.038 307.391 417.284C307.38 417.53 307.572 417.736 307.818 417.743C313.643 417.957 319.454 417.74 325.272 418.054C327.388 418.167 329.487 418.431 331.6 418.556C332.726 418.623 332.672 418.663 333.758 418.741C333.978 418.758 334.416 418.876 334.654 418.881C334.813 418.884 334.938 418.848 335.013 418.805C335.142 418.733 335.215 418.631 335.251 418.509C335.284 418.402 335.293 418.253 335.184 418.071C335.056 417.861 334.782 417.794 334.572 417.922C334.554 417.932 334.537 417.943 334.522 417.957L334.519 417.965ZM21.498 417.438C21.498 417.438 21.4661 417.408 21.4483 417.398C21.242 417.262 20.9682 417.32 20.8331 417.522C20.7156 417.701 20.7228 417.85 20.7477 417.957C20.7797 418.078 20.8507 418.186 20.9752 418.26C21.05 418.307 21.1709 418.349 21.3345 418.349C21.5728 418.349 22.0138 418.249 22.2343 418.242C23.319 418.2 23.2691 418.161 24.3965 418.136C26.5126 418.085 28.6215 417.9 30.7376 417.864C36.563 417.761 42.3634 418.192 48.1925 418.192C48.4378 418.192 48.6371 417.993 48.6371 417.747C48.6371 417.502 48.4378 417.301 48.1925 417.301C42.36 417.301 36.5524 416.875 30.7233 416.978C28.6038 417.013 26.4948 417.198 24.3753 417.248C23.2407 417.273 23.2905 417.315 22.1986 417.359C22.0493 417.365 21.7079 417.413 21.5016 417.441L21.498 417.438ZM333.47 417.035H333.487C333.672 417.066 334.313 416.297 333.615 416.155C333.529 416.144 333.448 416.155 333.373 416.186C333.431 416.151 333.509 416.137 333.615 416.155H333.587C333.278 416.098 331.396 415.784 331.044 415.745C328.572 415.449 326.023 415.452 323.533 415.359C317.116 415.124 310.698 415.328 304.279 415.093C304.033 415.082 303.827 415.278 303.82 415.521C303.809 415.766 304.002 415.973 304.246 415.984C310.666 416.219 317.085 416.015 323.5 416.25C325.965 416.34 328.491 416.332 330.938 416.628C331.282 416.671 333.132 416.978 333.437 417.027L333.47 417.035ZM22.469 415.662C22.5579 415.653 22.6112 415.67 22.6326 415.678C22.5827 415.662 22.5258 415.656 22.469 415.662C21.7684 415.777 22.3765 416.567 22.5651 416.547H22.5827L22.6148 416.539C22.9207 416.5 24.7806 416.258 25.1292 416.23C27.5867 416.023 30.1117 416.122 32.5762 416.122C38.9956 416.122 45.4042 416.558 51.8271 416.558C52.0724 416.558 52.2717 416.357 52.2717 416.112C52.2717 415.866 52.0724 415.667 51.8271 415.667C45.4042 415.667 38.9956 415.232 32.5762 415.232C30.0868 415.232 27.5404 415.135 25.0544 415.342C24.7024 415.37 22.8104 415.613 22.4973 415.656H22.469V415.662ZM22.8459 416.404C22.8139 416.44 22.7784 416.468 22.7393 416.493C22.789 416.465 22.8211 416.432 22.8459 416.404ZM22.7108 415.706C22.7962 415.748 22.8638 415.816 22.9099 415.902C22.878 415.833 22.8211 415.759 22.7108 415.706ZM332.591 414.44C330.88 414.434 328.714 413.789 326.911 413.692C323.589 413.515 320.279 413.639 316.957 413.657C312.747 413.678 308.55 413.35 304.349 413.198C304.105 413.187 303.899 413.383 303.891 413.625C303.88 413.871 304.072 414.078 304.318 414.089C308.532 414.241 312.739 414.572 316.965 414.548C320.268 414.53 323.561 414.406 326.866 414.583C328.686 414.683 330.869 415.328 332.591 415.334C332.837 415.334 333.035 415.135 333.035 414.89C333.035 414.644 332.837 414.445 332.591 414.445V414.44ZM23.5217 414.875C25.2429 414.933 27.448 414.366 29.2724 414.334C32.5834 414.277 35.866 414.523 39.1698 414.658C43.3878 414.832 47.6057 414.658 51.8235 414.658C52.069 414.658 52.2681 414.459 52.2681 414.213C52.2681 413.966 52.069 413.767 51.8235 413.767C47.6163 413.767 43.4126 413.941 39.2089 413.767C35.8873 413.628 32.587 413.383 29.2581 413.443C27.448 413.476 25.2643 414.042 23.5537 413.985C23.3082 413.977 23.1019 414.17 23.0949 414.415C23.0877 414.661 23.2798 414.868 23.5253 414.875H23.5217ZM331.606 412.977C331.524 412.905 331.393 412.826 331.212 412.759C330.919 412.649 330.461 412.545 329.917 412.453C328.206 412.161 325.607 411.957 324.941 411.883C319.935 411.32 314.888 411.662 309.862 411.711C307.402 411.736 304.968 411.477 302.515 411.388C302.269 411.38 302.063 411.573 302.056 411.814C302.045 412.061 302.238 412.268 302.483 412.274C304.951 412.363 307.397 412.624 309.873 412.599C314.858 412.545 319.87 412.203 324.842 412.763C325.499 412.837 328.075 413.033 329.767 413.325C330.18 413.397 330.539 413.472 330.796 413.554C330.902 413.585 330.983 413.61 331.026 413.646C331.212 413.806 331.492 413.785 331.653 413.599C331.812 413.414 331.79 413.134 331.606 412.974V412.977ZM25.1469 413.251C25.1896 413.215 25.2749 413.198 25.3816 413.165C25.6412 413.094 26.0004 413.03 26.4166 412.977C28.1165 412.748 30.6985 412.646 31.36 412.596C36.3497 412.218 41.3428 412.741 46.3254 412.977C48.7971 413.094 51.2509 412.923 53.719 412.923C53.9646 412.923 54.1637 412.724 54.1637 412.478C54.1637 412.232 53.9646 412.032 53.719 412.032C51.2652 412.032 48.8219 412.203 46.3644 412.086C41.3464 411.851 36.314 411.327 31.2888 411.708C30.6203 411.758 28.0135 411.865 26.2957 412.097C25.748 412.172 25.2856 412.257 24.9905 412.357C24.8091 412.417 24.674 412.492 24.5886 412.559C24.3965 412.713 24.3681 412.994 24.521 413.187C24.674 413.378 24.9548 413.408 25.1469 413.254V413.251ZM329.699 411.904C329.796 412.011 329.945 412.072 330.098 412.05C330.341 412.015 330.506 411.786 330.472 411.545C330.458 411.447 330.411 411.338 330.3 411.237C330.208 411.156 329.978 411.046 329.632 410.96C328.395 410.654 325.314 410.332 324.756 410.301C318.233 409.923 311.715 409.717 305.189 409.477C304.943 409.471 304.737 409.662 304.731 409.906C304.72 410.152 304.912 410.357 305.158 410.365C311.676 410.604 318.191 410.811 324.706 411.184C325.3 411.22 328.907 411.579 329.699 411.901V411.904ZM26.5339 411.556C27.3413 411.262 30.9545 411.032 31.552 411.021C38.0745 410.881 44.5934 410.909 51.1194 410.909C51.3648 410.909 51.5639 410.71 51.5639 410.464C51.5639 410.219 51.3648 410.02 51.1194 410.02C44.5898 410.02 38.0639 409.99 31.5342 410.13C30.9759 410.141 27.8854 410.348 26.6371 410.611C26.2885 410.685 26.0538 410.785 25.9613 410.864C25.8475 410.96 25.7978 411.071 25.7799 411.167C25.7338 411.408 25.8938 411.64 26.1355 411.687C26.2885 411.716 26.4378 411.662 26.5375 411.559L26.5339 411.556ZM328.882 410.396C328.968 410.489 329.096 410.547 329.233 410.539C329.571 410.519 329.66 410.279 329.682 410.194C329.71 410.083 329.735 409.869 329.493 409.702C329.448 409.67 329.326 409.609 329.116 409.542C328.775 409.432 328.111 409.25 327.061 408.983C324.895 408.434 322.818 408.221 320.595 408.138C314.155 407.903 307.689 407.939 301.238 407.703C300.993 407.692 300.786 407.885 300.779 408.132C300.772 408.376 300.963 408.583 301.206 408.591C307.657 408.826 314.119 408.79 320.563 409.026C322.721 409.104 324.739 409.311 326.844 409.841C327.929 410.116 328.583 410.293 328.885 410.396H328.882ZM27.4053 410.08C27.7112 409.987 28.3691 409.833 29.4644 409.6C31.5875 409.143 33.6076 409.011 35.77 409.011C42.2141 409.011 48.6726 409.281 55.1275 409.281C55.3728 409.281 55.5719 409.082 55.5719 408.836C55.5719 408.591 55.3728 408.392 55.1275 408.392C48.6726 408.392 42.2141 408.121 35.77 408.121C33.5436 408.121 31.4631 408.26 29.2794 408.729C28.2197 408.958 27.551 409.115 27.2062 409.214C26.9927 409.275 26.8682 409.331 26.8219 409.364C26.5731 409.524 26.5908 409.738 26.6158 409.849C26.6371 409.937 26.7153 410.18 27.0532 410.211C27.192 410.225 27.3199 410.172 27.4089 410.083L27.4053 410.08ZM328.203 408.662C328.203 408.662 328.223 408.673 328.234 408.676C328.466 408.762 328.722 408.641 328.803 408.412C328.85 408.288 328.875 408.099 328.683 407.928C328.664 407.91 328.566 407.838 328.365 407.785C327.584 407.583 323.547 406.739 322.352 406.624C317.911 406.201 315.001 406.66 310.777 406.856C307.682 406.997 304.53 406.681 301.437 406.568C301.192 406.557 300.985 406.748 300.974 406.994C300.968 407.241 301.156 407.448 301.401 407.457C304.521 407.572 307.696 407.888 310.816 407.746C314.991 407.554 317.867 407.092 322.263 407.512C323.43 407.622 327.374 408.448 328.139 408.648C328.159 408.651 328.181 408.659 328.195 408.662H328.203ZM328.057 408.555C327.949 408.437 327.91 408.263 327.968 408.103C327.924 408.221 327.899 408.392 328.057 408.555ZM28.1486 408.37C28.1486 408.37 28.1841 408.359 28.2055 408.356C28.9773 408.185 32.9461 407.504 34.1162 407.434C38.5225 407.173 41.3819 407.739 45.55 408.084C48.6619 408.342 51.8485 408.142 54.9673 408.142C55.2129 408.142 55.4119 407.942 55.4119 407.697C55.4119 407.451 55.2129 407.252 54.9673 407.252C51.8734 407.252 48.7117 407.454 45.6247 407.198C41.4104 406.848 38.5225 406.282 34.0664 406.546C32.8679 406.616 28.8029 407.311 28.0135 407.487C27.8142 407.529 27.7112 407.6 27.6933 407.614C27.4942 407.782 27.5155 407.967 27.5546 408.095C27.6294 408.331 27.8818 408.459 28.1165 408.381C28.1271 408.376 28.1379 408.373 28.1522 408.367L28.1486 408.37ZM28.3228 408.235C28.4437 408.088 28.4366 407.939 28.3975 407.818C28.4473 407.964 28.4118 408.121 28.3228 408.235ZM326.858 406.955C326.925 407.098 327.067 407.201 327.235 407.212C327.48 407.226 327.69 407.037 327.704 406.792C327.72 406.568 327.659 406.439 327.591 406.347C327.513 406.243 327.377 406.15 327.089 406.094C325.155 405.697 323.131 405.531 321.172 405.277C313.831 404.326 306.451 405.002 299.09 404.472C298.844 404.455 298.631 404.64 298.613 404.885C298.596 405.131 298.78 405.346 299.026 405.363C306.37 405.893 313.731 405.212 321.057 406.165C322.978 406.414 324.959 406.577 326.858 406.963V406.955ZM29.5534 406.714C31.4631 406.4 33.4512 406.307 35.3787 406.128C42.7334 405.448 50.0666 406.392 57.425 406.128C57.6703 406.122 57.8624 405.915 57.8552 405.669C57.8446 405.423 57.6419 405.231 57.3965 405.238C50.0205 405.501 42.6693 404.558 35.3005 405.238C33.3338 405.42 31.3067 405.517 29.3578 405.84C29.0697 405.89 28.931 405.976 28.8492 406.075C28.7744 406.165 28.7141 406.293 28.7175 406.518C28.7211 406.764 28.9274 406.958 29.1728 406.955C29.3435 406.955 29.4893 406.852 29.5604 406.714H29.5534ZM325.51 405.288C325.602 405.409 325.752 405.484 325.916 405.467C326.16 405.438 326.336 405.22 326.307 404.974C326.289 404.817 326.171 404.604 325.88 404.475C325.468 404.293 324.465 404.177 324.34 404.147C322.634 403.771 320.957 403.446 319.212 403.304C311.846 402.69 304.482 403.468 297.141 402.88C296.896 402.861 296.681 403.043 296.664 403.289C296.642 403.536 296.828 403.749 297.074 403.771C304.413 404.358 311.779 403.581 319.14 404.194C320.848 404.337 322.484 404.654 324.152 405.021C324.231 405.038 324.692 405.092 325.102 405.178C325.244 405.206 325.432 405.267 325.51 405.296V405.288ZM30.9581 405.096C31.0364 405.071 31.2285 405.018 31.3706 404.993C31.7832 404.921 32.2455 404.886 32.3273 404.871C34.0095 404.565 35.6561 404.304 37.3667 404.226C44.7463 403.884 52.0796 404.929 59.4342 404.607C59.6796 404.598 59.8682 404.391 59.8574 404.144C59.8468 403.898 59.6405 403.71 59.3951 403.718C52.0369 404.038 44.7072 402.993 37.3242 403.335C35.5743 403.418 33.8886 403.682 32.1673 403.995C32.0428 404.016 31.0364 404.099 30.6167 404.265C30.318 404.383 30.1935 404.593 30.1721 404.75C30.1366 404.993 30.3037 405.22 30.5455 405.256C30.7091 405.281 30.8621 405.212 30.9581 405.092V405.096ZM325.436 405.128V405.139V405.12V405.131V405.128ZM325.432 405.1V405.114V405.096V405.1ZM31.0399 404.929L31.0328 404.946V404.935L31.0399 404.925V404.929ZM31.0471 404.907V404.925V404.91V404.907ZM324.876 402.872C318.21 401.365 311.832 401.65 305.021 401.644C302.333 401.644 299.659 401.23 296.971 401.134C296.725 401.123 296.519 401.316 296.508 401.561C296.497 401.807 296.689 402.014 296.935 402.021C299.631 402.121 302.316 402.53 305.018 402.533C311.762 402.544 318.074 402.249 324.678 403.741C324.917 403.795 325.155 403.645 325.208 403.404C325.261 403.164 325.113 402.926 324.873 402.872H324.876ZM31.8437 403.578C38.4977 402.328 44.7926 402.852 51.5354 403.086C54.2348 403.183 56.9305 402.869 59.6299 402.869C59.8752 402.869 60.0743 402.67 60.0743 402.424C60.0743 402.177 59.8752 401.978 59.6299 401.978C56.9413 401.978 54.2526 402.292 51.5639 402.196C44.7569 401.956 38.3981 401.44 31.6765 402.701C31.4347 402.748 31.2782 402.979 31.3209 403.222C31.367 403.464 31.5983 403.62 31.8401 403.578H31.8437ZM323.064 401.942C323.181 402.064 323.358 402.113 323.525 402.053C323.771 401.967 323.832 401.804 323.857 401.715C323.893 401.572 323.882 401.398 323.707 401.247C323.664 401.213 323.583 401.159 323.452 401.115C323.245 401.051 322.79 400.97 322.291 400.863C321.15 400.617 321.203 400.614 320.072 400.4C318.149 400.039 316.234 399.82 314.28 399.748C310.822 399.624 307.333 399.986 303.877 400.076C300.901 400.154 297.881 399.912 294.908 399.801C294.662 399.79 294.456 399.983 294.448 400.229C294.439 400.475 294.63 400.681 294.875 400.689C297.87 400.799 300.907 401.042 303.902 400.963C307.341 400.874 310.811 400.51 314.251 400.635C316.164 400.703 318.034 400.916 319.913 401.272C321.032 401.482 320.979 401.49 322.11 401.732C322.459 401.807 322.864 401.897 323.07 401.939L323.064 401.942ZM33.5258 401.843C33.7357 401.804 34.141 401.732 34.4932 401.668C35.6313 401.468 35.5779 401.457 36.7053 401.291C38.5973 401.006 40.475 400.86 42.3884 400.86C45.8274 400.86 49.2842 401.351 52.7197 401.566C55.7106 401.754 58.755 401.622 61.7494 401.622C61.9949 401.622 62.194 401.423 62.194 401.177C62.194 400.93 61.9949 400.731 61.7494 400.731C58.7727 400.731 55.7463 400.863 52.7767 400.678C49.3269 400.46 45.8488 399.972 42.3919 399.972C40.436 399.972 38.5119 400.123 36.5772 400.411C35.4392 400.582 35.4925 400.588 34.3439 400.792C33.8423 400.88 33.3836 400.944 33.1774 401.003C33.0457 401.037 32.9603 401.09 32.9142 401.123C32.7328 401.269 32.7149 401.44 32.747 401.586C32.7683 401.679 32.8216 401.846 33.0635 401.939C33.2307 402.003 33.4121 401.961 33.5294 401.843H33.5258ZM323.192 401.233C323.192 401.233 323.181 401.238 323.177 401.241L323.198 401.23H323.192V401.233ZM323.206 401.227H323.198L323.216 401.224H323.206V401.227ZM323.22 401.219L323.241 401.213C323.241 401.213 323.227 401.216 323.22 401.219ZM33.437 401.134L33.4512 401.145L33.437 401.137C33.437 401.137 33.4262 401.13 33.4227 401.13H33.4156L33.4334 401.137L33.437 401.134ZM33.3979 401.115L33.4156 401.126H33.4085L33.3979 401.115ZM33.3979 401.112C33.3979 401.112 33.3836 401.106 33.3765 401.106L33.3979 401.112ZM322.327 399.352C319.955 399.042 317.59 398.483 315.154 398.316C308.664 397.878 300.616 398.338 294.375 398.523C294.129 398.529 293.937 398.736 293.943 398.982C293.951 399.228 294.157 399.42 294.403 399.414C300.616 399.229 308.631 398.764 315.093 399.203C317.509 399.367 319.855 399.926 322.21 400.232C322.452 400.265 322.676 400.094 322.707 399.848C322.74 399.605 322.57 399.381 322.324 399.349L322.327 399.352ZM34.4363 400.165C36.8013 399.941 39.1628 399.47 41.5846 399.395C48.068 399.192 54.5549 399.941 61.0381 399.941C61.2835 399.941 61.4828 399.741 61.4828 399.495C61.4828 399.249 61.2835 399.05 61.0381 399.05C54.5441 399.05 48.0502 398.301 41.5562 398.509C39.1165 398.582 36.7338 399.058 34.3509 399.282C34.1055 399.302 33.9277 399.52 33.949 399.767C33.974 400.011 34.1909 400.19 34.4327 400.168L34.4363 400.165Z" fill="#525252"/>
<path fill-rule="evenodd" clip-rule="evenodd" d="M303.012 398.24L55.8637 398.769L25.7588 446.699H324.242L303.012 398.24Z" fill="#525252"/>
<path fill-rule="evenodd" clip-rule="evenodd" d="M249.365 394.639C249.365 394.639 247.543 396.951 244.446 398.64C244.446 398.64 242.32 399.919 233.684 402.577C233.684 402.577 220.832 406.417 225.348 410.138C225.348 410.138 223.733 411.245 224.291 412.902C224.291 412.902 224.967 414.762 229.737 414.174C229.737 414.174 237.137 413.504 250.217 409.51C250.217 409.51 246.775 411.444 233.684 417.174C233.684 417.174 214.529 425.001 223.339 428.364C223.339 428.364 222.415 429.657 223.958 431.018C223.958 431.018 225.681 432.433 229.053 430.43C229.053 430.43 226.019 433.241 227.755 434.977C227.755 434.977 228.933 436.006 230.611 434.977C230.611 434.977 229.611 436.555 230.92 437.76C230.92 437.76 232.688 439.466 236.5 437.015C236.5 437.015 236.098 438.15 237.396 439.349C237.396 439.349 239.179 441.201 246.426 438.483C246.426 438.483 267.986 431.183 276.335 427.68C276.335 427.68 286.166 424.057 284.865 416.611C284.865 416.611 282.866 404.304 283.338 399.862L255.724 393.196L249.371 394.639H249.365Z" fill="#F6CEAE"/>
<mask id="mask0_540_497" style="mask-type:luminance" maskUnits="userSpaceOnUse" x="221" y="393" width="64" height="47">
<path d="M249.365 394.639C249.365 394.639 247.543 396.951 244.446 398.64C244.446 398.64 242.32 399.919 233.684 402.577C233.684 402.577 220.832 406.417 225.348 410.138C225.348 410.138 223.733 411.245 224.291 412.902C224.291 412.902 224.967 414.762 229.737 414.174C229.737 414.174 237.137 413.504 250.217 409.51C250.217 409.51 246.775 411.444 233.684 417.174C233.684 417.174 214.529 425.001 223.339 428.364C223.339 428.364 222.415 429.657 223.958 431.018C223.958 431.018 225.681 432.433 229.053 430.43C229.053 430.43 226.019 433.241 227.755 434.977C227.755 434.977 228.933 436.006 230.611 434.977C230.611 434.977 229.611 436.555 230.92 437.76C230.92 437.76 232.688 439.466 236.5 437.015C236.5 437.015 236.098 438.15 237.396 439.349C237.396 439.349 239.179 441.201 246.426 438.483C246.426 438.483 267.986 431.183 276.335 427.68C276.335 427.68 286.166 424.057 284.865 416.611C284.865 416.611 282.866 404.304 283.338 399.862L255.724 393.196L249.371 394.639H249.365Z" fill="white"/>
</mask>
<g mask="url(#mask0_540_497)">
<path fill-rule="evenodd" clip-rule="evenodd" d="M250.186 409.536C250.186 409.536 256.129 405.893 256.709 402.494C256.709 402.494 276.329 403.36 284.715 412.742L288.932 407.628C288.932 407.628 284.288 394.304 283.925 393.888C283.562 393.468 258.177 395.028 258.177 395.028L244.709 383.84L218.691 402.494V419.218L250.189 409.536H250.186Z" fill="#E2BEA0"/>
</g>
<mask id="mask1_540_497" style="mask-type:luminance" maskUnits="userSpaceOnUse" x="221" y="393" width="64" height="27">
<mask id="mask2_540_497" style="mask-type:luminance" maskUnits="userSpaceOnUse" x="218" y="383" width="71" height="37">
<path d="M250.186 409.535C250.186 409.535 256.129 405.893 256.709 402.494C256.709 402.494 276.329 403.36 284.715 412.741L288.932 407.628C288.932 407.628 284.288 394.303 283.925 393.888C283.562 393.467 258.177 395.028 258.177 395.028L244.709 383.84L218.691 402.494V419.218L250.189 409.535H250.186Z" fill="white"/>
</mask>
<g mask="url(#mask2_540_497)">
<path d="M249.365 394.639C249.365 394.639 247.543 396.951 244.446 398.64C244.446 398.64 242.32 399.919 233.684 402.577C233.684 402.577 220.832 406.417 225.348 410.138C225.348 410.138 223.733 411.245 224.291 412.901C224.291 412.901 224.967 414.762 229.737 414.173C229.737 414.173 237.137 413.504 250.217 409.51C250.217 409.51 246.775 411.444 233.684 417.174C233.684 417.174 214.529 425.001 223.339 428.364C223.339 428.364 222.415 429.656 223.958 431.018C223.958 431.018 225.681 432.433 229.053 430.43C229.053 430.43 226.019 433.241 227.755 434.977C227.755 434.977 228.933 436.006 230.611 434.977C230.611 434.977 229.611 436.555 230.92 437.759C230.92 437.759 232.688 439.466 236.5 437.014C236.5 437.014 236.098 438.15 237.396 439.348C237.396 439.348 239.179 441.201 246.426 438.483C246.426 438.483 267.986 431.183 276.335 427.68C276.335 427.68 286.166 424.057 284.865 416.611C284.865 416.611 282.866 404.304 283.338 399.862L255.724 393.196L249.371 394.639H249.365Z" fill="white"/>
</g>
</mask>
<g mask="url(#mask1_540_497)">
<path fill-rule="evenodd" clip-rule="evenodd" d="M233.834 406.097C233.834 406.097 229.21 407.387 226.016 408.762C224.54 409.396 223.37 410.083 222.973 410.646C222.801 410.889 222.862 411.22 223.104 411.391C223.345 411.562 223.677 411.501 223.847 411.259C223.964 411.096 224.182 410.928 224.458 410.746C224.964 410.419 225.658 410.08 226.44 409.741C229.577 408.392 234.122 407.123 234.122 407.123C234.406 407.045 234.574 406.748 234.491 406.464C234.413 406.179 234.119 406.016 233.834 406.092V406.097Z" fill="#A38C79"/>
</g>
<mask id="mask3_540_497" style="mask-type:luminance" maskUnits="userSpaceOnUse" x="221" y="393" width="64" height="47">
<path d="M249.365 394.639C249.365 394.639 247.543 396.951 244.446 398.64C244.446 398.64 242.32 399.919 233.684 402.577C233.684 402.577 220.832 406.417 225.348 410.138C225.348 410.138 223.733 411.245 224.291 412.902C224.291 412.902 224.967 414.762 229.737 414.174C229.737 414.174 237.137 413.504 250.217 409.51C250.217 409.51 246.775 411.444 233.684 417.174C233.684 417.174 214.529 425.001 223.339 428.364C223.339 428.364 222.415 429.657 223.958 431.018C223.958 431.018 225.681 432.433 229.053 430.43C229.053 430.43 226.019 433.241 227.755 434.977C227.755 434.977 228.933 436.006 230.611 434.977C230.611 434.977 229.611 436.555 230.92 437.76C230.92 437.76 232.688 439.466 236.5 437.015C236.5 437.015 236.098 438.15 237.396 439.349C237.396 439.349 239.179 441.201 246.426 438.483C246.426 438.483 267.986 431.183 276.335 427.68C276.335 427.68 286.166 424.057 284.865 416.611C284.865 416.611 282.866 404.304 283.338 399.862L255.724 393.196L249.371 394.639H249.365Z" fill="white"/>
</mask>
<g mask="url(#mask3_540_497)">
<path fill-rule="evenodd" clip-rule="evenodd" d="M240.754 432.96C240.754 432.96 237.934 434.033 236.355 435.558C235.573 436.312 235.099 437.189 235.221 438.088C235.26 438.379 235.529 438.586 235.822 438.547C236.112 438.508 236.319 438.24 236.28 437.945C236.23 437.578 236.372 437.228 236.604 436.897C236.885 436.491 237.298 436.113 237.756 435.771C239.218 434.681 241.131 433.958 241.131 433.958C241.405 433.854 241.547 433.545 241.444 433.271C241.341 432.991 241.031 432.853 240.757 432.957L240.754 432.96ZM235.448 430.629C235.448 430.629 233.393 431.5 231.526 432.828C230.217 433.758 229.017 434.919 228.587 436.146C228.489 436.423 228.637 436.729 228.916 436.825C229.192 436.922 229.499 436.776 229.594 436.497C229.963 435.446 231.027 434.488 232.143 433.694C233.915 432.433 235.864 431.61 235.864 431.61C236.134 431.495 236.263 431.183 236.148 430.908C236.034 430.637 235.721 430.508 235.448 430.623V430.629ZM232.232 427.566C232.232 427.566 226.906 429.743 225.078 432.654C224.921 432.904 224.996 433.235 225.245 433.391C225.494 433.548 225.824 433.473 225.98 433.224C227.674 430.534 232.631 428.56 232.631 428.56C232.905 428.449 233.036 428.14 232.927 427.865C232.816 427.591 232.506 427.459 232.232 427.569V427.566ZM228.783 423.932C228.783 423.932 225.678 424.982 223.673 426.579C222.723 427.338 222.027 428.225 221.891 429.166C221.848 429.458 222.052 429.729 222.343 429.771C222.633 429.814 222.904 429.611 222.948 429.319C223.012 428.869 223.281 428.449 223.644 428.054C224.06 427.602 224.601 427.188 225.176 426.818C226.976 425.666 229.12 424.943 229.12 424.943C229.402 424.851 229.552 424.545 229.455 424.267C229.363 423.985 229.061 423.836 228.779 423.932H228.783Z" fill="#E2BEA0"/>
</g>
<path fill-rule="evenodd" clip-rule="evenodd" d="M238.876 243.421C238.876 243.421 245.446 297.813 248.969 304.387V394.7C248.969 394.7 250.342 395.566 252.255 395.911V398.287C252.255 398.287 268.38 405.722 287.397 399.541C287.397 399.541 289.239 313.839 284.722 294.358L287.397 241.059L245.217 237.593C245.217 237.593 242.404 239.591 241.056 241.059" fill="#5C6248"/>
<mask id="mask4_540_497" style="mask-type:luminance" maskUnits="userSpaceOnUse" x="238" y="237" width="50" height="165">
<path d="M238.876 243.421C238.876 243.421 245.446 297.813 248.969 304.387V394.7C248.969 394.7 250.342 395.566 252.255 395.911V398.287C252.255 398.287 268.38 405.722 287.397 399.541C287.397 399.541 289.239 313.839 284.722 294.358L287.397 241.059L245.217 237.593C245.217 237.593 242.404 239.591 241.056 241.059" fill="white"/>
</mask>
<g mask="url(#mask4_540_497)">
<path fill-rule="evenodd" clip-rule="evenodd" d="M241.409 243.973C241.409 243.973 251.512 302.282 253.273 308.186L252.259 395.911L223.442 408.524C223.442 408.524 220.43 251.508 219.509 248.84C218.588 246.175 235.632 231.508 235.632 231.508L241.405 243.973H241.409Z" fill="#454A34"/>
</g>
<path fill-rule="evenodd" clip-rule="evenodd" d="M206.644 39.1973C206.644 39.1973 211.538 68.9357 221.382 79.41C221.382 79.41 227.824 86.8562 237.223 78.6548C237.223 78.6548 237.451 78.4873 239.733 83.4467C246.292 81.9718 255.816 76.2962 266.669 66.5984L261.069 55.1904L252.522 34.694L228.972 20.981L208.363 35.182L206.641 39.1973H206.644Z" fill="#F6CEAE"/>
<path fill-rule="evenodd" clip-rule="evenodd" d="M226.984 32.5066C226.984 32.5066 228.609 39.2331 234.398 38.9303C234.398 38.9303 242.973 38.0076 243.888 44.1106C243.888 44.1106 246.42 37.0384 250.398 40.4907C250.398 40.4907 254.602 43.936 251.423 54.9912C251.423 54.9912 253.401 58.9921 258.66 57.3569C258.66 57.3569 261.239 56.4341 261.602 54.3392C261.602 54.3392 262.085 51.0793 261.303 43.968C261.303 43.968 259.771 32.9484 258.532 27.9035L245.05 23.386L229.175 29.9912L226.987 32.5066H226.984Z" fill="#7E4210"/>
<path fill-rule="evenodd" clip-rule="evenodd" d="M200.983 11.2441C200.983 11.2441 220.846 -1.74215 250.314 0.195985C250.314 0.195985 255.548 11.6752 258.646 28.1386C258.646 28.1386 235.964 28.5769 206.211 39.5323C206.211 39.5323 201.961 25.1102 200.983 11.2441Z" fill="#5C6248"/>
<mask id="mask5_540_497" style="mask-type:luminance" maskUnits="userSpaceOnUse" x="200" y="-1" width="59" height="41">
<path d="M200.983 11.2441C200.983 11.2441 220.846 -1.74215 250.314 0.195985C250.314 0.195985 255.548 11.6752 258.646 28.1386C258.646 28.1386 235.964 28.5769 206.211 39.5323C206.211 39.5323 201.961 25.1102 200.983 11.2441Z" fill="white"/>
</mask>
<g mask="url(#mask5_540_497)">
<path fill-rule="evenodd" clip-rule="evenodd" d="M204.233 9.21679C204.233 9.21679 205.762 25.5912 208.835 28.3986C208.835 28.3986 210.354 30.116 217.133 29.5031C217.133 29.5031 236.319 26.09 260.393 26.4356L266.602 37.3198L221.539 60.6665C221.539 60.6665 189.684 50.591 188.791 49.5471C187.898 48.5033 188.532 20.4502 188.532 20.4502L194.723 6.13501L204.233 9.21679Z" fill="#454A34"/>
</g>
<mask id="mask6_540_497" style="mask-type:luminance" maskUnits="userSpaceOnUse" x="206" y="20" width="61" height="64">
<path d="M206.644 39.1973C206.644 39.1973 211.538 68.9357 221.382 79.41C221.382 79.41 227.824 86.8562 237.223 78.6548C237.223 78.6548 237.451 78.4873 239.733 83.4467C246.292 81.9718 255.816 76.2962 266.669 66.5984L261.069 55.1904L252.522 34.694L228.972 20.981L208.363 35.182L206.641 39.1973H206.644Z" fill="white"/>
</mask>
<g mask="url(#mask6_540_497)">
<path fill-rule="evenodd" clip-rule="evenodd" d="M228.553 36.0193C228.29 35.7878 227.966 35.5954 227.567 35.4564C227.472 35.4137 226.945 35.2106 226.127 35.4101C225.237 35.6239 223.726 36.397 222.169 39.3826C221.901 39.8458 217.834 47.128 212.162 66.5628C212.047 66.9476 212.162 67.3645 212.452 67.6388C212.745 67.9132 213.164 68.0057 213.541 67.8703C213.541 67.8703 220.53 65.4192 229.058 67.7207L229.705 71.23C229.811 71.8036 230.356 72.1849 230.931 72.0886C230.931 72.0886 234.897 71.4154 237.834 69.7551C240.128 68.4582 241.736 66.5451 241.228 64.0974C241.22 64.0654 241.214 64.0368 241.203 64.0048C241.203 64.0048 241.028 63.2887 240.192 62.74C239.562 62.3267 238.382 61.9099 236.266 62.4835C238.375 56.9078 243.649 42.4074 243.596 37.099C243.596 37.106 243.595 36.5004 243.408 35.9019C243.24 35.3602 242.917 34.8544 242.459 34.5694C242.091 34.3413 241.537 34.1846 240.793 34.4232C240.776 34.1561 240.748 33.8853 240.698 33.6145C240.474 32.389 239.852 31.3129 238.696 30.9069C238.627 30.8819 237.568 30.4865 236.28 31.0921C235.864 31.288 235.409 31.5945 234.964 32.0825C234.634 31.7548 234.197 31.4555 233.624 31.2596C233.605 31.2524 233.585 31.2453 233.566 31.2417C233.566 31.2417 233.133 31.0814 232.422 31.2703C231.738 31.4519 230.59 32.0077 229.441 34.0171C229.435 34.0314 229.424 34.0456 229.416 34.0634C229.416 34.0634 229.069 34.744 228.553 36.0229V36.0193ZM237.991 32.9198C237.764 32.8592 236.729 32.8093 235.878 34.5408C235.676 34.9541 235.235 35.1893 234.78 35.1287C234.325 35.0682 233.962 34.7225 233.873 34.2736C233.873 34.2736 233.727 33.6253 233.055 33.326C232.888 33.3865 232.07 33.7357 231.308 35.0539C231.202 35.2711 230.309 37.0954 229.309 40.2199C229.128 40.7828 228.528 41.0928 227.969 40.911C227.408 40.7293 227.101 40.1272 227.28 39.5678C227.28 39.5678 227.447 39.0477 227.425 38.4634C227.411 38.0857 227.333 37.6298 226.845 37.4658C226.814 37.4658 226.551 37.4765 226.258 37.6404C225.647 37.9825 224.899 38.7698 224.056 40.3872C224.05 40.4015 224.039 40.4194 224.031 40.4337C224.031 40.4337 220.23 46.9784 214.753 65.3337C217.666 64.6817 223.584 63.8695 230.292 65.8468C230.676 65.9608 230.967 66.2814 231.038 66.6768L231.612 69.7694C232.863 69.4808 235.032 68.8858 236.793 67.8918C238.177 67.1079 239.389 66.1175 239.168 64.6674C239.093 64.5927 238.808 64.3611 238.303 64.3361C237.55 64.2969 236.461 64.5392 234.875 65.2838C234.481 65.4691 234.012 65.3943 233.691 65.095C233.376 64.7957 233.268 64.3291 233.432 63.9228C233.432 63.9228 241.533 43.5653 241.469 37.1167L241.334 36.5111C241.121 36.6322 240.72 36.8852 240.377 37.2201C240.042 37.5407 239.542 37.6119 239.132 37.3946C238.724 37.1772 238.504 36.7177 238.585 36.2617C238.585 36.2617 238.802 35.0716 238.607 33.9958C238.524 33.5469 238.421 33.0694 237.995 32.9198H237.991ZM226.842 37.4658L226.778 37.4445L227.176 37.5229C227.062 37.5229 226.948 37.5051 226.839 37.4695L226.842 37.4658ZM237.991 32.9198C238.152 32.9626 238.261 32.9732 238.308 32.9768C238.2 32.9768 238.094 32.9554 237.991 32.9198Z" fill="#E2BEA0"/>
</g>
<path fill-rule="evenodd" clip-rule="evenodd" d="M213.189 66.8587C213.189 66.8587 212.615 67.1046 212.282 67.2899C212.282 67.2899 211.068 94.7943 214.116 105.54C214.116 105.54 218.764 122.213 230.303 120.418L225.497 240.076C225.497 240.076 258.728 254.338 297.959 240.076C297.959 240.076 295.288 200.729 291.728 188.088C291.728 188.088 290.749 111.568 288.691 100.188C288.691 100.188 286.344 87.6012 274.038 70.4393L272.843 62.9968C272.843 62.9968 267.623 63.745 255.528 72.4416L239.766 83.4398C239.766 83.4398 238.984 84.2023 238.716 87.113C238.716 87.113 238.63 88.2531 238.35 92.532L235.484 95.3893L230.758 71.0272L232.528 65.3874L223.037 60.9019L214.795 64.8031L213.192 66.8552L213.189 66.8587Z" fill="#8F9B87"/>
<mask id="mask7_540_497" style="mask-type:luminance" maskUnits="userSpaceOnUse" x="212" y="60" width="86" height="187">
<path d="M213.189 66.8587C213.189 66.8587 212.615 67.1046 212.282 67.2899C212.282 67.2899 211.068 94.7943 214.116 105.54C214.116 105.54 218.764 122.213 230.303 120.418L225.497 240.076C225.497 240.076 258.728 254.338 297.959 240.076C297.959 240.076 295.288 200.729 291.728 188.088C291.728 188.088 290.749 111.568 288.691 100.188C288.691 100.188 286.344 87.6012 274.038 70.4393L272.843 62.9968C272.843 62.9968 267.623 63.745 255.528 72.4416L239.766 83.4398C239.766 83.4398 238.984 84.2023 238.716 87.113C238.716 87.113 238.63 88.2531 238.35 92.532L235.484 95.3893L230.758 71.0272L232.528 65.3874L223.037 60.9019L214.795 64.8031L213.192 66.8552L213.189 66.8587Z" fill="white"/>
</mask>
<g mask="url(#mask7_540_497)">
<path fill-rule="evenodd" clip-rule="evenodd" d="M238.35 92.5319L248.905 82.631C248.905 82.631 255.406 77.2227 261.641 74.9532L274.043 70.4356L279.632 59.1168L270.344 51.1292L240.715 73.1362L234.95 81.1097L236.312 89.5321L238.35 92.5319ZM211.641 75.9508C211.641 75.9508 223.523 73.0829 232.009 75.7335C232.009 75.7335 234.118 62.7865 234.242 62.0846C234.367 61.3827 214.828 60.0824 213.815 60.4707C212.804 60.8589 210.25 65.291 210.25 65.291L211.641 75.9508Z" fill="#E0C389"/>
<path fill-rule="evenodd" clip-rule="evenodd" d="M228.947 122.716C228.947 122.716 242.294 122.366 284.519 103.469C285.055 103.227 285.298 102.597 285.06 102.059C284.818 101.521 284.189 101.278 283.651 101.517C242.016 120.147 228.886 120.578 228.886 120.578C228.299 120.596 227.833 121.087 227.852 121.679C227.869 122.27 228.36 122.733 228.95 122.716H228.947ZM235.205 94.046L237.401 105.632C237.51 106.213 238.069 106.594 238.649 106.484C239.227 106.373 239.609 105.814 239.498 105.233L237.301 93.647C237.19 93.0663 236.631 92.685 236.053 92.7954C235.473 92.906 235.093 93.4653 235.202 94.046H235.205Z" fill="#747F6C"/>
</g>
<path fill-rule="evenodd" clip-rule="evenodd" d="M213.189 66.8622C213.189 66.8622 220.821 64.1687 229.988 66.8728L230.758 71.0342C230.758 71.0342 241.22 69.2777 240.185 64.3183C240.185 64.3183 239.467 61.9492 234.42 64.3183C234.42 64.3183 242.596 43.6508 242.532 37.1097C242.532 37.1097 242.515 33.661 239.634 36.4541C239.634 36.4541 240.33 32.5956 238.339 31.908C238.339 31.908 236.347 31.174 234.926 34.0707C234.926 34.0707 234.669 32.7489 233.285 32.2678C233.285 32.2678 231.903 31.876 230.373 34.548C230.373 34.548 229.399 36.4613 228.299 39.8957C228.299 39.8957 229.195 37.1274 227.186 36.4541C227.186 36.4541 225.309 35.6739 223.115 39.8957C223.115 39.8957 219.01 46.9322 213.195 66.8622H213.189Z" fill="#F6CEAE"/>
<mask id="mask8_540_497" style="mask-type:luminance" maskUnits="userSpaceOnUse" x="213" y="31" width="30" height="41">
<path d="M213.189 66.8622C213.189 66.8622 220.821 64.1687 229.988 66.8728L230.758 71.0342C230.758 71.0342 241.22 69.2777 240.185 64.3183C240.185 64.3183 239.467 61.9492 234.42 64.3183C234.42 64.3183 242.596 43.6508 242.532 37.1097C242.532 37.1097 242.515 33.661 239.634 36.4541C239.634 36.4541 240.33 32.5956 238.339 31.908C238.339 31.908 236.347 31.174 234.926 34.0707C234.926 34.0707 234.669 32.7489 233.285 32.2678C233.285 32.2678 231.903 31.876 230.373 34.548C230.373 34.548 229.399 36.4613 228.299 39.8957C228.299 39.8957 229.195 37.1274 227.186 36.4541C227.186 36.4541 225.309 35.6739 223.115 39.8957C223.115 39.8957 219.01 46.9322 213.195 66.8622H213.189Z" fill="white"/>
</mask>
<g mask="url(#mask8_540_497)">
<path fill-rule="evenodd" clip-rule="evenodd" d="M239.755 32.7204C239.755 32.7204 235.11 47.0355 232.403 54.6884C232.304 54.9662 232.45 55.2727 232.727 55.3724C233.005 55.4722 233.31 55.3262 233.407 55.0482C236.117 47.3847 240.765 33.0553 240.765 33.0553C240.857 32.7739 240.704 32.471 240.423 32.3819C240.143 32.2894 239.844 32.4461 239.752 32.724L239.755 32.7204ZM234.644 31.7691L227.517 52.1089C227.42 52.3869 227.567 52.6932 227.844 52.7894C228.121 52.8857 228.428 52.7395 228.523 52.4617L235.651 32.1219C235.747 31.8439 235.601 31.5376 235.323 31.4414C235.046 31.3453 234.739 31.4913 234.644 31.7691ZM228.478 36.1372L222.926 51.3501C222.826 51.628 222.968 51.9343 223.242 52.0341C223.52 52.1339 223.825 51.9913 223.925 51.717L229.48 36.504C229.58 36.2262 229.438 35.9198 229.164 35.82C228.886 35.7202 228.581 35.8628 228.481 36.1372H228.478Z" fill="#E2BEA0"/>
</g>
</g>
</g>
<defs>
<filter id="filter0_d_540_497" x="2.25464" y="-0.0012207" width="350.491" height="455.037" filterUnits="userSpaceOnUse" color-interpolation-filters="sRGB">
<feFlood flood-opacity="0" result="BackgroundImageFix"/>
<feColorMatrix in="SourceAlpha" type="matrix" values="0 0 0 0 0 0 0 0 0 0 0 0 0 0 0 0 0 0 127 0" result="hardAlpha"/>
<feOffset dy="4"/>
<feGaussianBlur stdDeviation="2"/>
<feComposite in2="hardAlpha" operator="out"/>
<feColorMatrix type="matrix" values="0 0 0 0 0 0 0 0 0 0 0 0 0 0 0 0 0 0 0.25 0"/>
<feBlend mode="normal" in2="BackgroundImageFix" result="effect1_dropShadow_540_497"/>
<feBlend mode="normal" in="SourceGraphic" in2="effect1_dropShadow_540_497" result="shape"/>
</filter>
<clipPath id="clip0_540_497">
<rect width="355" height="459.581" fill="white"/>
</clipPath>
</defs>
</svg>
