<svg width="357" height="251" viewBox="0 0 357 251" fill="none" xmlns="http://www.w3.org/2000/svg">
<g filter="url(#filter0_d_540_624)">
<path fill-rule="evenodd" clip-rule="evenodd" d="M346.803 240.642C345.885 240.761 345.035 240.878 344.395 240.873C338.4 240.863 333.226 241.554 327.289 240.769C327.043 240.737 326.815 240.91 326.783 241.16C326.75 241.405 326.924 241.634 327.169 241.666C333.15 242.454 338.357 241.767 344.391 241.781C345.589 241.781 347.527 241.391 349.265 241.29C350.317 241.228 351.291 241.261 351.927 241.623C352.143 241.746 352.419 241.669 352.542 241.453C352.664 241.235 352.588 240.961 352.372 240.838C352.111 240.689 351.804 240.58 351.461 240.505C351.493 240.447 351.515 240.382 351.518 240.31C351.533 240.06 351.344 239.847 351.095 239.832C347.342 239.605 343.242 239.872 339.395 239.796C335.189 239.717 331.006 239.323 326.812 239.171C326.562 239.16 326.352 239.355 326.346 239.605C326.335 239.854 326.53 240.064 326.779 240.071C330.981 240.223 335.168 240.617 339.38 240.697C341.806 240.744 344.33 240.654 346.803 240.639V240.642ZM5.56146 239.464C5.21796 239.525 4.90701 239.622 4.63944 239.76C4.41887 239.876 4.3321 240.147 4.4478 240.371C4.56351 240.592 4.83469 240.678 5.05887 240.563C5.70609 240.226 6.68235 240.226 7.73092 240.327C9.46287 240.49 11.3864 240.953 12.5833 240.997C18.6143 241.203 23.7958 242.082 29.798 241.51C30.0475 241.485 30.2282 241.264 30.2065 241.019C30.1812 240.769 29.9607 240.588 29.7148 240.61C23.7524 241.178 18.6071 240.303 12.6159 240.093C11.9758 240.071 11.1297 239.927 10.2186 239.771C12.6918 239.876 15.212 240.056 17.6381 240.096C21.8505 240.169 26.0484 239.93 30.2499 239.93C30.4994 239.93 30.7019 239.727 30.7019 239.478C30.7019 239.228 30.4994 239.025 30.2499 239.025C26.052 239.025 21.8578 239.268 17.6526 239.192C13.8054 239.127 9.71956 238.711 5.95919 238.801C5.70971 238.809 5.51084 239.015 5.51807 239.264C5.51807 239.337 5.53615 239.402 5.56869 239.459L5.56146 239.464ZM351.088 238.747C350.998 238.755 350.849 238.766 350.716 238.769C350.061 238.78 349.1 238.747 348.976 238.743C346.992 238.671 345.031 238.433 343.047 238.36C336.6 238.125 330.171 238.284 323.716 238.05C323.467 238.039 323.258 238.237 323.247 238.484C323.239 238.732 323.434 238.942 323.681 238.953C330.134 239.189 336.567 239.03 343.01 239.264C344.992 239.337 346.955 239.576 348.94 239.648C349.085 239.651 350.365 239.698 351.004 239.666C351.229 239.655 351.395 239.623 351.467 239.597C351.706 239.503 351.768 239.326 351.782 239.211C351.797 239.087 351.782 238.932 351.619 238.794C351.467 238.665 351.251 238.653 351.088 238.755V238.747ZM350.903 239.29C350.921 239.347 350.954 239.402 351.012 239.456C350.961 239.409 350.926 239.352 350.903 239.29ZM6.00258 237.724C5.84349 237.616 5.62655 237.619 5.47107 237.746C5.30474 237.88 5.27943 238.035 5.29028 238.157C5.30113 238.274 5.35174 238.455 5.59039 238.556C5.6627 238.585 5.82541 238.625 6.04959 238.642C6.68597 238.697 7.96956 238.7 8.11419 238.7C10.0993 238.7 12.0699 238.534 14.0549 238.534C20.5054 238.534 26.9234 238.924 33.3848 238.924C33.6342 238.924 33.8368 238.722 33.8368 238.473C33.8368 238.223 33.6342 238.021 33.3848 238.021C26.927 238.021 20.5054 237.63 14.0549 237.63C12.0699 237.63 10.0993 237.797 8.11419 237.797C7.99126 237.797 7.02585 237.797 6.37501 237.76C6.24122 237.752 6.09298 237.738 6.00258 237.728V237.724ZM6.16891 238.27C6.1436 238.332 6.10382 238.386 6.05321 238.433C6.11467 238.378 6.14721 238.324 6.16891 238.27ZM350.687 237.177C347.458 237.182 344.113 236.939 340.848 236.878C335.602 236.78 330.352 237.001 325.105 236.809C324.855 236.802 324.646 236.993 324.639 237.243C324.627 237.493 324.826 237.702 325.073 237.709C330.326 237.901 335.58 237.68 340.833 237.778C344.106 237.84 347.458 238.082 350.69 238.079C350.94 238.079 351.142 237.876 351.142 237.626C351.142 237.377 350.94 237.174 350.69 237.174L350.687 237.177ZM6.42202 237.073C9.6545 237.196 13.0136 237.073 16.2859 237.131C21.5395 237.225 26.7824 237.633 32.0361 237.633C32.2856 237.633 32.4881 237.431 32.4881 237.182C32.4881 236.932 32.2856 236.729 32.0361 236.729C26.7861 236.729 21.5467 236.317 16.3003 236.227C13.0352 236.168 9.67981 236.292 6.45455 236.168C6.20507 236.158 5.99535 236.354 5.98451 236.602C5.97366 236.852 6.16891 237.062 6.4184 237.073H6.42202ZM350.104 235.529C346.976 235.5 343.856 235.138 340.725 235.188C336.983 235.25 333.27 235.583 329.516 235.51C326.819 235.456 324.136 235.109 321.438 235.16C321.189 235.164 320.99 235.369 320.994 235.619C320.998 235.869 321.203 236.067 321.453 236.064C324.14 236.013 326.812 236.36 329.495 236.415C333.259 236.49 336.983 236.154 340.736 236.093C343.864 236.042 346.973 236.404 350.093 236.433C350.343 236.433 350.549 236.234 350.549 235.984C350.549 235.734 350.351 235.529 350.101 235.529H350.104ZM7.07286 235.446C10.1896 235.532 13.3136 235.283 16.4377 235.446C20.1872 235.644 23.8971 236.114 27.6611 236.176C30.3475 236.219 33.0268 235.97 35.7097 236.118C35.9592 236.133 36.1726 235.941 36.187 235.691C36.2015 235.441 36.0099 235.228 35.7603 235.214C33.063 235.062 30.3728 235.315 27.6755 235.268C23.9224 235.207 20.2234 234.737 16.4883 234.541C13.357 234.375 10.2294 234.624 7.10178 234.541C6.85229 234.534 6.64258 234.733 6.63896 234.979C6.63173 235.228 6.8306 235.435 7.07647 235.441L7.07286 235.446ZM349.667 233.865C349.168 233.699 348.282 233.612 347.234 233.59C344.923 233.536 341.767 233.745 340.403 233.721C334.611 233.604 328.84 233.355 323.051 233.145C322.802 233.135 322.592 233.33 322.585 233.579C322.574 233.829 322.769 234.038 323.019 234.046C328.811 234.256 334.59 234.509 340.385 234.621C341.748 234.647 344.905 234.437 347.215 234.491C348.148 234.512 348.936 234.57 349.382 234.719C349.616 234.799 349.873 234.671 349.952 234.433C350.032 234.198 349.906 233.941 349.667 233.862V233.865ZM7.85386 233.764C8.30583 233.63 9.09406 233.601 10.0269 233.616C12.3374 233.644 15.4831 233.97 16.8463 233.992C22.6423 234.089 28.4275 234.05 34.2236 234.05C34.4732 234.05 34.6756 233.847 34.6756 233.598C34.6756 233.348 34.4732 233.145 34.2236 233.145C28.4312 233.145 22.6568 233.185 16.8643 233.092C15.4976 233.069 12.3555 232.744 10.0414 232.711C8.99283 232.697 8.10696 232.748 7.60075 232.9C7.36211 232.972 7.22472 233.221 7.29341 233.46C7.36573 233.699 7.61522 233.836 7.85386 233.768V233.764ZM348.369 232.115C347.866 231.926 346.955 231.844 345.871 231.833C343.495 231.814 340.233 232.126 338.928 232.151C333.197 232.267 327.589 231.851 321.872 231.641C321.623 231.634 321.413 231.825 321.403 232.075C321.392 232.325 321.587 232.534 321.837 232.541C327.568 232.751 333.197 233.167 338.942 233.052C340.244 233.026 343.491 232.715 345.86 232.733C346.806 232.741 347.606 232.791 348.047 232.957C348.282 233.044 348.542 232.928 348.629 232.693C348.716 232.458 348.597 232.198 348.365 232.111L348.369 232.115ZM9.24593 232.049C9.69068 231.902 10.4898 231.88 11.4407 231.905C13.809 231.974 17.0451 232.4 18.3432 232.477C24.0814 232.802 29.722 232.589 35.4566 232.589C35.7062 232.589 35.9086 232.386 35.9086 232.136C35.9086 231.887 35.7062 231.684 35.4566 231.684C29.7365 231.684 24.114 231.897 18.3938 231.572C17.0922 231.5 13.8452 231.069 11.466 231.001C10.3813 230.968 9.47011 231.019 8.96028 231.189C8.72526 231.268 8.59509 231.525 8.67464 231.761C8.75419 231.999 9.0109 232.126 9.24593 232.046V232.049ZM347.606 230.946C347.7 231.103 347.884 231.189 348.072 231.156C348.318 231.113 348.481 230.874 348.434 230.629C348.373 230.292 348.159 230.111 347.838 230.054C347.682 230.025 347.487 230.035 347.28 230.064C347.078 230.094 346.865 230.144 346.705 230.14C344.796 230.071 342.898 229.908 340.989 229.876C334.257 229.767 327.549 230.115 320.817 229.873C320.567 229.865 320.357 230.057 320.346 230.307C320.339 230.556 320.531 230.766 320.78 230.773C327.52 231.019 334.231 230.669 340.971 230.781C342.873 230.813 344.771 230.976 346.67 231.044C346.846 231.052 347.074 231.012 347.298 230.979C347.389 230.965 347.522 230.954 347.602 230.95L347.606 230.946ZM9.76296 230.049C9.8281 230.054 9.92211 230.064 9.98717 230.075C10.233 230.122 10.4933 230.18 10.6886 230.18C12.5905 230.18 14.4924 230.086 16.3943 230.122C23.1341 230.256 29.8305 230.849 36.5739 230.849C36.8234 230.849 37.0259 230.646 37.0259 230.397C37.0259 230.147 36.8234 229.945 36.5739 229.945C29.8377 229.945 23.1449 229.352 16.4124 229.218C14.5032 229.178 12.5978 229.276 10.6886 229.276C10.5295 229.276 10.3162 229.215 10.1137 229.181C9.90759 229.146 9.71234 229.128 9.55692 229.153C9.23509 229.2 9.01452 229.37 8.9422 229.706C8.88797 229.948 9.04345 230.19 9.2857 230.245C9.47373 230.285 9.66172 230.206 9.75939 230.054L9.76296 230.049ZM10.3668 228.249C12.9268 228.947 17.8587 228.339 20.7043 228.444C25.6037 228.617 30.4741 229.258 35.3807 229.453C35.6302 229.464 35.8399 229.269 35.8508 229.019C35.8616 228.77 35.6663 228.56 35.4169 228.549C30.5102 228.353 25.6362 227.714 20.7369 227.54C17.9491 227.442 13.1148 228.06 10.6054 227.378C10.3632 227.312 10.1174 227.453 10.0487 227.695C9.98352 227.938 10.1246 228.184 10.3668 228.249ZM346.865 228.241C344.33 228.835 339.525 228.039 336.733 228.036C331.83 228.036 326.938 228.491 322.024 228.509C321.775 228.509 321.573 228.715 321.576 228.965C321.576 229.215 321.778 229.417 322.028 229.413C326.938 229.395 331.83 228.936 336.733 228.939C339.579 228.939 344.485 229.724 347.071 229.12C347.313 229.063 347.465 228.82 347.407 228.578C347.349 228.336 347.107 228.184 346.865 228.241ZM346.008 226.705C345.856 226.697 345.606 226.679 345.509 226.672C344.591 226.596 344.648 226.534 343.734 226.441C341.369 226.191 338.972 225.996 336.592 225.956C330.453 225.847 324.19 225.746 318.062 226.01C317.812 226.021 317.62 226.231 317.631 226.481C317.642 226.73 317.852 226.921 318.102 226.91C324.212 226.646 330.456 226.748 336.578 226.856C338.932 226.896 341.3 227.091 343.64 227.338C344.565 227.435 344.507 227.496 345.437 227.573C345.589 227.583 345.932 227.616 346.098 227.616C346.199 227.616 346.271 227.605 346.305 227.594C346.561 227.525 346.622 227.333 346.641 227.226C346.651 227.16 346.691 226.824 346.286 226.697C346.192 226.668 346.095 226.672 346.008 226.697V226.705ZM11.5166 225.873C11.4298 225.84 11.3323 225.833 11.2382 225.858C10.8297 225.97 10.8585 226.307 10.8658 226.372C10.8803 226.481 10.9309 226.672 11.1876 226.752C11.2202 226.763 11.2924 226.777 11.3937 226.781C11.56 226.784 11.9035 226.769 12.059 226.758C12.9883 226.715 12.934 226.654 13.8633 226.589C16.2099 226.43 18.5855 226.321 20.9393 226.364C27.0608 226.481 33.3017 226.603 39.4015 227.091C39.6509 227.109 39.8679 226.925 39.886 226.675C39.9076 226.426 39.7196 226.209 39.4702 226.188C33.3523 225.699 27.0933 225.573 20.9538 225.456C18.5746 225.413 16.1738 225.522 13.7982 225.681C12.8797 225.743 12.934 225.808 12.0156 225.847C11.918 225.851 11.6685 225.858 11.5166 225.862V225.873ZM344.952 224.593C344.706 224.582 344.298 224.553 344.106 224.545C343.397 224.521 342.688 224.495 341.98 224.47C340.132 224.401 338.266 224.383 336.416 224.379C330.64 224.369 324.877 224.633 319.106 224.423C318.857 224.412 318.647 224.607 318.64 224.857C318.629 225.106 318.824 225.315 319.074 225.323C324.855 225.533 330.63 225.269 336.416 225.28C338.256 225.283 340.107 225.301 341.947 225.37C342.656 225.395 343.364 225.421 344.073 225.446C344.359 225.456 345.097 225.504 345.198 225.493C345.534 225.45 345.589 225.182 345.599 225.102C345.606 225.062 345.628 224.668 345.172 224.578C345.097 224.564 345.02 224.567 344.948 224.593H344.952ZM12.6447 223.8C12.576 223.775 12.5001 223.768 12.4242 223.779C11.965 223.851 11.9758 224.245 11.9794 224.285C11.9867 224.364 12.0337 224.636 12.3663 224.69C12.4712 224.708 13.2088 224.686 13.4944 224.686H15.6241C17.4646 224.686 19.3159 224.734 21.1562 224.798C26.9379 224.998 32.6978 225.471 38.483 225.471C38.7325 225.471 38.935 225.269 38.935 225.019C38.935 224.769 38.7325 224.567 38.483 224.567C32.7086 224.567 26.956 224.093 21.1852 223.895C19.3375 223.829 17.4718 223.783 15.6241 223.783H13.4944C13.3029 223.783 12.8943 223.797 12.6484 223.797L12.6447 223.8ZM344.439 223.001C344.439 223.001 344.243 223.023 344.08 223.023C343.719 223.023 343.202 223.001 342.595 222.958C340.18 222.795 336.404 222.372 335.562 222.329C329.545 222.014 323.453 222.375 317.425 222.397C317.176 222.397 316.973 222.599 316.977 222.849C316.977 223.099 317.183 223.302 317.429 223.302C323.439 223.28 329.516 222.918 335.514 223.229C336.477 223.28 341.267 223.822 343.484 223.909C344.128 223.935 344.583 223.909 344.738 223.848C344.974 223.76 345.093 223.501 345.006 223.269C344.923 223.038 344.67 222.918 344.439 222.998V223.001ZM13.2196 222.228C12.9918 222.141 12.7351 222.253 12.6412 222.481C12.5472 222.712 12.6592 222.976 12.887 223.07C13.0389 223.131 13.4944 223.179 14.138 223.174C16.3581 223.168 21.1635 222.799 22.1253 222.785C28.1347 222.69 34.1911 223.272 40.1969 223.512C40.4464 223.522 40.6561 223.326 40.667 223.078C40.6778 222.828 40.4825 222.618 40.2331 222.607C34.2128 222.365 28.1347 221.782 22.1108 221.877C21.2684 221.891 17.4827 222.173 15.0601 222.249C14.4526 222.267 13.932 222.274 13.5704 222.26C13.4077 222.253 13.2269 222.228 13.2124 222.228H13.2196ZM343.042 221.949C343.162 222.068 343.343 222.119 343.51 222.061C343.755 221.978 343.827 221.826 343.856 221.75C343.925 221.573 343.914 221.371 343.694 221.204C343.643 221.164 343.538 221.11 343.383 221.081C343.116 221.023 342.558 220.983 342.309 220.954C341.484 220.857 341.543 220.893 340.664 220.839C338.343 220.69 336.039 220.503 333.714 220.415C327.904 220.205 322.108 220.329 316.29 220.119C316.04 220.109 315.831 220.303 315.823 220.553C315.813 220.802 316.008 221.012 316.257 221.023C322.075 221.233 327.871 221.11 333.682 221.32C335.999 221.403 338.295 221.595 340.606 221.739C341.459 221.794 341.402 221.757 342.204 221.851C342.374 221.873 342.794 221.92 343.039 221.952L343.042 221.949ZM14.6479 221.225C14.8937 221.204 15.3204 221.171 15.4868 221.157C16.2894 221.092 16.2352 221.124 17.0885 221.103C19.4027 221.041 21.7059 220.937 24.0236 220.937C29.8377 220.937 35.6266 221.273 41.448 221.273C41.6974 221.273 41.9 221.07 41.9 220.82C41.9 220.571 41.6974 220.368 41.448 220.368C35.6266 220.368 29.8377 220.032 24.0236 220.032C21.6986 220.032 19.3881 220.137 17.0632 220.199C16.1846 220.224 16.2425 220.188 15.4144 220.256C15.1649 220.278 14.6081 220.296 14.3369 220.343C14.1814 220.372 14.0766 220.419 14.0224 220.455C13.7946 220.615 13.7765 220.813 13.838 220.994C13.8633 221.07 13.932 221.225 14.1742 221.316C14.3406 221.381 14.525 221.337 14.6479 221.222V221.225ZM342.078 220.303C342.193 220.448 342.392 220.513 342.58 220.448C342.815 220.368 342.887 220.221 342.916 220.133C342.97 219.978 342.959 219.804 342.808 219.645C342.76 219.595 342.663 219.526 342.518 219.475C342.287 219.396 341.81 219.323 341.589 219.298C340.591 219.182 340.631 219.207 339.594 219.06C337.102 218.698 334.633 218.528 332.12 218.394C325.806 218.054 319.518 218.553 313.22 218.322C312.97 218.311 312.76 218.506 312.754 218.756C312.743 219.005 312.938 219.215 313.188 219.222C319.479 219.45 325.76 218.954 332.072 219.291C334.556 219.425 337.001 219.591 339.464 219.949C340.515 220.101 340.476 220.075 341.484 220.191C341.604 220.205 341.893 220.264 342.078 220.3V220.303ZM15.6784 219.62C15.8628 219.587 16.152 219.544 16.275 219.533C17.291 219.45 17.2476 219.479 18.3034 219.363C20.7766 219.095 23.2281 219.016 25.7121 218.972C32.0288 218.864 38.2914 219.591 44.5864 219.591C44.8359 219.591 45.0384 219.388 45.0384 219.139C45.0384 218.889 44.8359 218.687 44.5864 218.687C38.2878 218.687 32.0216 217.96 25.6977 218.072C23.1847 218.115 20.7079 218.195 18.2058 218.466C17.1645 218.578 17.2042 218.553 16.2026 218.632C15.9821 218.65 15.5012 218.709 15.2662 218.777C15.1179 218.821 15.0203 218.889 14.9697 218.937C14.8142 219.092 14.7961 219.262 14.8468 219.421C14.8721 219.508 14.9408 219.659 15.1722 219.75C15.3566 219.822 15.5554 219.765 15.6784 219.624V219.62ZM340.978 217.262L340.928 217.255C339.717 217.128 338.512 216.965 337.297 216.842C335.215 216.632 333.147 216.485 331.053 216.445C324.537 216.322 317.985 217.034 311.481 216.799C311.231 216.788 311.022 216.983 311.011 217.233C311.003 217.483 311.195 217.692 311.445 217.7C317.953 217.939 324.509 217.226 331.031 217.345C333.099 217.385 335.146 217.529 337.204 217.736C338.415 217.859 339.619 218.022 340.83 218.148C340.866 218.152 340.971 218.173 341.058 218.17C341.166 218.17 341.26 218.144 341.333 218.108C341.488 218.032 341.582 217.906 341.611 217.736C341.65 217.49 341.484 217.258 341.239 217.218C341.144 217.204 341.054 217.218 340.978 217.255V217.262ZM16.8861 216.618C16.8101 216.578 16.7197 216.56 16.6258 216.575C16.3798 216.608 16.2026 216.832 16.2352 217.081C16.2569 217.252 16.3473 217.382 16.4991 217.46C16.5678 217.497 16.6655 217.526 16.7703 217.529C16.8607 217.534 16.9656 217.519 17.0017 217.515C18.2166 217.436 19.428 217.313 20.6429 217.236C22.7075 217.106 24.7575 217.034 26.8258 217.071C33.3486 217.186 39.8751 218.134 46.3871 218.134C46.6366 218.134 46.8391 217.931 46.8391 217.681C46.8391 217.432 46.6366 217.229 46.3871 217.229C39.8823 217.229 33.3595 216.278 26.8402 216.166C24.7468 216.13 22.6713 216.203 20.5849 216.336C19.37 216.412 18.1588 216.535 16.9402 216.615L16.8896 216.622L16.8861 216.618ZM340.725 217.577C340.725 217.577 340.725 217.591 340.721 217.598V217.577H340.725ZM17.1247 216.944V216.965C17.1247 216.965 17.1247 216.951 17.1247 216.944ZM339.962 216.416C340.056 216.506 340.186 216.557 340.327 216.542C340.577 216.517 340.758 216.293 340.729 216.047C340.718 215.956 340.686 215.855 340.598 215.761C340.537 215.696 340.385 215.588 340.107 215.508C339.315 215.276 336.979 214.947 333.15 214.727C329.907 214.542 326.721 214.828 323.489 214.767C319.736 214.698 315.994 214.438 312.244 214.3C311.994 214.289 311.785 214.485 311.777 214.734C311.77 214.984 311.961 215.194 312.211 215.201C315.964 215.338 319.71 215.595 323.471 215.667C326.692 215.729 329.863 215.439 333.096 215.623C336.039 215.793 338.082 216.022 339.192 216.224C339.536 216.286 339.858 216.379 339.959 216.408L339.962 216.416ZM339.832 216.163V216.141C339.832 216.141 339.832 216.155 339.832 216.163ZM17.931 215.812C18.0359 215.783 18.3613 215.703 18.7048 215.652C19.822 215.49 21.8722 215.335 24.819 215.273C28.0551 215.204 31.219 215.609 34.437 215.663C38.1973 215.732 41.9506 215.606 45.7073 215.606C45.9568 215.606 46.1593 215.404 46.1593 215.154C46.1593 214.904 45.9568 214.701 45.7073 214.701C41.9542 214.701 38.2082 214.824 34.4551 214.76C31.2225 214.701 28.0516 214.3 24.8009 214.369C20.9646 214.448 18.6217 214.691 17.8189 214.897C17.5405 214.97 17.3814 215.067 17.32 215.132C17.2295 215.226 17.1898 215.324 17.1789 215.414C17.1428 215.66 17.3163 215.891 17.5622 215.924C17.7032 215.942 17.8333 215.899 17.931 215.808V215.812ZM18.0684 215.562C18.0684 215.562 18.0684 215.548 18.0684 215.54V215.562ZM338.772 214.691C338.903 214.813 339.098 214.853 339.272 214.778C339.503 214.672 339.56 214.517 339.582 214.434C339.626 214.264 339.6 214.079 339.405 213.935C339.351 213.895 339.246 213.841 339.094 213.812C338.852 213.765 338.353 213.747 338.125 213.732C337.417 213.682 336.704 213.642 335.992 213.599C333.642 213.461 331.306 213.493 328.955 213.511C322.841 213.562 316.655 213.096 310.551 213.403C310.302 213.418 310.111 213.628 310.121 213.877C310.132 214.126 310.345 214.318 310.595 214.307C316.684 214 322.859 214.467 328.96 214.416C331.288 214.398 333.602 214.365 335.934 214.502C336.639 214.542 337.348 214.582 338.053 214.637C338.197 214.648 338.548 214.677 338.765 214.694L338.772 214.691ZM19.1821 214.13C19.399 214.119 19.7498 214.105 19.8944 214.097C20.603 214.073 21.3081 214.057 22.0168 214.04C24.349 213.985 26.6631 214.105 28.9916 214.206C35.0878 214.477 41.2744 214.235 47.3489 214.767C47.5984 214.789 47.8153 214.604 47.837 214.355C47.8587 214.105 47.6743 213.888 47.4248 213.866C41.3359 213.338 35.1348 213.577 29.0278 213.306C26.6812 213.2 24.349 213.085 21.9951 213.136C21.2828 213.154 20.5705 213.165 19.8582 213.194C19.6304 213.2 19.135 213.2 18.8892 213.237C18.7373 213.258 18.6289 213.309 18.5746 213.349C18.3758 213.49 18.3432 213.671 18.3793 213.844C18.3974 213.927 18.4517 214.087 18.6758 214.195C18.8458 214.278 19.041 214.246 19.1748 214.126L19.1821 214.13ZM338.14 212.539C337.93 212.502 337.583 212.441 337.435 212.43C336.328 212.347 336.379 212.307 335.229 212.239C333.078 212.108 330.944 211.844 328.79 211.729C322.87 211.41 316.955 211.628 311.029 211.414C310.779 211.407 310.569 211.602 310.562 211.848C310.551 212.097 310.747 212.307 310.996 212.318C316.919 212.532 322.827 212.315 328.742 212.633C330.893 212.749 333.027 213.016 335.175 213.143C336.321 213.212 336.267 213.251 337.366 213.335C337.59 213.353 338.035 213.472 338.277 213.476C338.44 213.479 338.567 213.443 338.646 213.399C338.772 213.327 338.849 213.223 338.889 213.099C338.921 212.991 338.932 212.839 338.82 212.654C338.689 212.441 338.411 212.372 338.197 212.502C338.179 212.513 338.162 212.528 338.147 212.539H338.14ZM19.8944 212C19.8944 212 19.8619 211.971 19.8438 211.961C19.634 211.823 19.3556 211.881 19.2182 212.087C19.0989 212.268 19.1062 212.419 19.1315 212.528C19.164 212.651 19.2363 212.76 19.3593 212.835C19.4352 212.883 19.5581 212.922 19.7244 212.926C19.9667 212.926 20.415 212.824 20.6392 212.817C21.742 212.774 21.6914 212.734 22.8376 212.709C24.989 212.659 27.1332 212.47 29.2845 212.434C35.2071 212.329 41.1044 212.766 47.0271 212.766C47.2766 212.766 47.4791 212.564 47.4791 212.315C47.4791 212.065 47.2766 211.863 47.0271 211.863C41.0972 211.863 35.1927 211.429 29.2665 211.53C27.1114 211.566 24.9673 211.754 22.8123 211.805C21.6589 211.834 21.7095 211.873 20.5995 211.917C20.4476 211.924 20.1005 211.971 19.8907 212H19.8944ZM337.073 211.595H337.092C337.279 211.628 337.93 210.846 337.221 210.702C337.135 210.691 337.052 210.702 336.975 210.738C337.034 210.702 337.113 210.687 337.221 210.702L337.193 210.694C336.878 210.64 334.965 210.326 334.607 210.282C332.091 209.982 329.501 209.986 326.971 209.892C320.452 209.653 313.921 209.859 307.395 209.621C307.146 209.613 306.936 209.805 306.925 210.055C306.917 210.304 307.109 210.513 307.359 210.521C313.885 210.76 320.412 210.553 326.935 210.792C329.44 210.883 332.008 210.875 334.495 211.176C334.846 211.219 336.73 211.53 337.037 211.581L337.069 211.588L337.073 211.595ZM20.8815 210.203C20.9682 210.191 21.0261 210.21 21.0478 210.217C20.9935 210.203 20.9393 210.199 20.8815 210.203C20.1656 210.318 20.7875 211.121 20.9791 211.103H20.9972L21.0297 211.096C21.3407 211.056 23.2317 210.811 23.586 210.782C26.0845 210.572 28.6518 210.673 31.1575 210.673C37.684 210.673 44.1996 211.114 50.7296 211.114C50.9791 211.114 51.1816 210.912 51.1816 210.662C51.1816 210.412 50.9791 210.21 50.7296 210.21C44.1996 210.21 37.684 209.769 31.1575 209.769C28.6264 209.769 26.0376 209.671 23.5101 209.881C23.1521 209.91 21.2286 210.156 20.9104 210.199H20.8815V210.203ZM21.2647 210.952C21.2322 210.987 21.1996 211.016 21.1562 211.042C21.2069 211.013 21.2394 210.98 21.2647 210.952ZM21.1274 210.246C21.2141 210.289 21.2828 210.358 21.3298 210.445C21.2973 210.377 21.2394 210.3 21.1274 210.246ZM336.18 208.963C334.441 208.955 332.239 208.3 330.402 208.202C327.025 208.022 323.658 208.148 320.282 208.167C316 208.188 311.738 207.856 307.464 207.7C307.214 207.693 307.005 207.885 306.997 208.134C306.99 208.383 307.182 208.593 307.431 208.604C311.716 208.76 315.994 209.093 320.285 209.07C323.648 209.053 326.993 208.926 330.352 209.107C332.203 209.208 334.423 209.863 336.173 209.87C336.422 209.87 336.624 209.667 336.624 209.418C336.624 209.168 336.422 208.966 336.173 208.966L336.18 208.963ZM21.9518 209.403C23.7054 209.461 25.9436 208.886 27.7984 208.854C31.1611 208.796 34.502 209.046 37.8611 209.183C42.1494 209.36 46.4378 209.183 50.726 209.183C50.9755 209.183 51.178 208.98 51.178 208.731C51.178 208.481 50.9755 208.279 50.726 208.279C46.4522 208.279 42.1747 208.456 37.8973 208.279C34.5201 208.138 31.1647 207.888 27.7804 207.946C25.9399 207.978 23.7198 208.553 21.9806 208.495C21.7312 208.489 21.5214 208.684 21.5142 208.934C21.507 209.183 21.7023 209.392 21.9518 209.4V209.403ZM335.178 207.472C335.096 207.4 334.962 207.32 334.777 207.251C334.481 207.139 334.015 207.035 333.461 206.937C331.722 206.641 329.079 206.434 328.403 206.359C323.312 205.787 318.181 206.134 313.071 206.185C310.569 206.21 308.096 205.949 305.602 205.856C305.352 205.845 305.142 206.04 305.135 206.29C305.128 206.54 305.32 206.749 305.569 206.756C308.078 206.847 310.566 207.11 313.082 207.086C318.155 207.031 323.247 206.684 328.301 207.251C328.97 207.328 331.588 207.526 333.309 207.823C333.728 207.895 334.094 207.971 334.354 208.055C334.463 208.087 334.545 208.112 334.59 208.148C334.777 208.311 335.063 208.29 335.226 208.101C335.388 207.914 335.367 207.627 335.178 207.465V207.472ZM23.6041 207.751C23.6475 207.715 23.7343 207.696 23.8428 207.664C24.1067 207.592 24.4719 207.526 24.895 207.472C26.6233 207.241 29.2484 207.136 29.9209 207.086C34.9938 206.702 40.0704 207.233 45.1361 207.472C47.649 207.592 50.1439 207.418 52.6568 207.418C52.9063 207.418 53.1088 207.216 53.1088 206.966C53.1088 206.716 52.9063 206.514 52.6568 206.514C50.1584 206.514 47.6779 206.687 45.1795 206.568C40.0776 206.33 34.9612 205.798 29.8522 206.185C29.1725 206.236 26.5221 206.344 24.7756 206.579C24.2188 206.655 23.7488 206.742 23.4486 206.843C23.2643 206.905 23.1268 206.977 23.0401 207.049C22.8448 207.205 22.8159 207.491 22.9714 207.685C23.1268 207.881 23.4125 207.909 23.6078 207.754L23.6041 207.751ZM333.24 206.383C333.338 206.495 333.49 206.554 333.645 206.532C333.891 206.495 334.061 206.264 334.025 206.018C334.01 205.92 333.964 205.808 333.852 205.704C333.757 205.621 333.523 205.509 333.172 205.422C331.913 205.111 328.782 204.785 328.215 204.753C321.583 204.37 314.956 204.16 308.32 203.917C308.071 203.907 307.862 204.102 307.851 204.351C307.84 204.601 308.038 204.81 308.285 204.818C314.916 205.06 321.536 205.27 328.16 205.65C328.764 205.686 332.431 206.051 333.237 206.377L333.24 206.383ZM25.0143 206.029C25.8351 205.733 29.5087 205.497 30.1162 205.486C36.7475 205.345 43.3752 205.379 50.0101 205.379C50.2596 205.379 50.4621 205.176 50.4621 204.926C50.4621 204.677 50.2596 204.474 50.0101 204.474C43.368 204.474 36.7366 204.442 30.0981 204.586C29.5304 204.597 26.3883 204.807 25.1192 205.075C24.7648 205.147 24.5262 205.252 24.4322 205.331C24.3164 205.429 24.2658 205.541 24.2477 205.638C24.2008 205.885 24.3635 206.12 24.6093 206.167C24.7648 206.196 24.9167 206.141 25.0179 206.037L25.0143 206.029ZM332.409 204.854C332.499 204.951 332.626 205.006 332.767 204.999C333.11 204.977 333.201 204.735 333.222 204.644C333.251 204.532 333.277 204.315 333.031 204.145C332.984 204.112 332.86 204.051 332.647 203.982C332.301 203.87 331.624 203.686 330.557 203.414C328.356 202.858 326.244 202.641 323.984 202.557C317.436 202.319 310.862 202.355 304.303 202.117C304.054 202.105 303.845 202.301 303.837 202.55C303.826 202.8 304.021 203.01 304.271 203.02C310.83 203.259 317.4 203.223 323.951 203.462C326.146 203.541 328.196 203.751 330.337 204.29C331.44 204.568 332.105 204.749 332.413 204.854H332.409ZM25.9002 204.532C26.2111 204.438 26.8836 204.282 27.9936 204.044C30.1523 203.581 32.2061 203.447 34.4045 203.447C40.9562 203.447 47.5225 203.722 54.085 203.722C54.3346 203.722 54.537 203.52 54.537 203.27C54.537 203.02 54.3346 202.818 54.085 202.818C47.5225 202.818 40.9562 202.543 34.4045 202.543C32.1409 202.543 30.0257 202.684 27.8057 203.158C26.7281 203.39 26.0484 203.548 25.6977 203.649C25.4807 203.711 25.3542 203.769 25.3072 203.798C25.054 203.96 25.0721 204.178 25.0974 204.29C25.1155 204.38 25.1987 204.626 25.5422 204.658C25.6832 204.673 25.8134 204.618 25.9037 204.528L25.9002 204.532ZM331.715 203.092C331.715 203.092 331.736 203.103 331.747 203.108C331.982 203.194 332.242 203.071 332.325 202.839C332.373 202.713 332.398 202.522 332.203 202.348C332.184 202.333 332.083 202.257 331.881 202.207C331.085 201.997 326.982 201.143 325.766 201.028C321.247 200.597 318.293 201.064 313.997 201.263C310.851 201.407 307.648 201.085 304.502 200.97C304.253 200.962 304.043 201.154 304.032 201.404C304.025 201.654 304.217 201.863 304.466 201.87C307.638 201.986 310.866 202.308 314.037 202.163C318.282 201.968 321.207 201.498 325.676 201.925C326.862 202.037 330.872 202.876 331.649 203.078C331.668 203.086 331.693 203.089 331.707 203.092H331.715ZM331.57 202.988C331.462 202.868 331.422 202.691 331.479 202.528C331.436 202.648 331.411 202.821 331.57 202.988ZM26.6559 202.796C26.6559 202.796 26.692 202.786 26.7137 202.781C27.4983 202.608 31.5335 201.918 32.7231 201.845C37.203 201.581 40.1101 202.156 44.3478 202.507C47.5116 202.767 50.7514 202.565 53.9223 202.565C54.1718 202.565 54.3743 202.362 54.3743 202.112C54.3743 201.863 54.1718 201.66 53.9223 201.66C50.7767 201.66 47.5622 201.867 44.4201 201.606C40.1391 201.252 37.1994 200.677 32.6689 200.944C31.4504 201.017 27.3175 201.722 26.5148 201.899C26.3123 201.942 26.2075 202.015 26.1894 202.03C25.987 202.2 26.0086 202.387 26.0484 202.517C26.1243 202.756 26.381 202.887 26.6161 202.807C26.6269 202.804 26.6378 202.8 26.6522 202.793L26.6559 202.796ZM26.833 202.663C26.9596 202.511 26.9487 202.362 26.9089 202.24C26.9596 202.387 26.9234 202.546 26.833 202.663ZM330.352 201.364C330.42 201.508 330.565 201.614 330.735 201.625C330.984 201.639 331.198 201.447 331.212 201.198C331.226 200.97 331.165 200.84 331.096 200.746C331.017 200.64 330.879 200.547 330.587 200.489C328.619 200.088 326.562 199.918 324.57 199.657C317.107 198.691 309.605 199.378 302.12 198.84C301.87 198.821 301.653 199.01 301.635 199.26C301.617 199.509 301.805 199.726 302.054 199.744C309.521 200.283 317.006 199.592 324.454 200.557C326.407 200.811 328.42 200.977 330.352 201.367V201.364ZM28.0841 201.118C30.0257 200.8 32.0469 200.706 34.0067 200.525C41.4842 199.834 48.9398 200.792 56.4208 200.525C56.6703 200.514 56.8656 200.308 56.8547 200.059C56.8475 199.809 56.6378 199.614 56.3883 199.625C48.8892 199.892 41.419 198.93 33.9235 199.625C31.924 199.809 29.863 199.907 27.8816 200.235C27.5887 200.286 27.4477 200.373 27.3645 200.475C27.2886 200.565 27.2272 200.695 27.2307 200.923C27.2344 201.172 27.4405 201.372 27.6899 201.364C27.8635 201.364 28.0117 201.263 28.0841 201.118ZM328.981 199.671C329.075 199.798 329.227 199.87 329.394 199.852C329.642 199.823 329.82 199.603 329.791 199.353C329.773 199.194 329.654 198.978 329.357 198.847C328.938 198.662 327.918 198.544 327.792 198.515C326.056 198.134 324.353 197.802 322.577 197.657C315.089 197.035 307.601 197.823 300.138 197.227C299.889 197.205 299.671 197.393 299.65 197.642C299.632 197.892 299.817 198.11 300.065 198.127C307.529 198.724 315.017 197.935 322.502 198.558C324.237 198.702 325.901 199.024 327.597 199.397C327.676 199.415 328.146 199.469 328.561 199.556C328.707 199.585 328.898 199.646 328.978 199.675L328.981 199.671ZM29.5123 199.476C29.5918 199.451 29.7871 199.397 29.9317 199.372C30.3512 199.299 30.8212 199.263 30.9044 199.248C32.6147 198.938 34.2887 198.674 36.0279 198.594C43.5307 198.243 50.9864 199.306 58.4638 198.981C58.7133 198.97 58.9049 198.76 58.894 198.51C58.8832 198.261 58.6735 198.07 58.424 198.081C50.943 198.406 43.4908 197.346 35.9845 197.693C34.2056 197.777 32.4917 198.044 30.7417 198.363C30.6151 198.384 29.5918 198.467 29.1652 198.637C28.8614 198.757 28.7349 198.973 28.7132 199.129C28.6771 199.375 28.847 199.607 29.0929 199.643C29.2592 199.668 29.4147 199.599 29.5123 199.476ZM328.912 199.538L328.909 199.53V199.538H328.912ZM328.905 199.509V199.519V199.502V199.513V199.509ZM328.902 199.479V199.495V199.473V199.479ZM29.5955 199.306L29.5883 199.324V199.314L29.5955 199.303V199.306ZM29.6027 199.285V199.303V199.288V199.285ZM328.337 197.216C321.558 195.687 315.075 195.975 308.151 195.969C305.417 195.969 302.698 195.549 299.964 195.451C299.715 195.44 299.506 195.636 299.498 195.885C299.491 196.135 299.682 196.345 299.932 196.352C302.673 196.453 305.402 196.869 308.151 196.872C315.006 196.88 321.424 196.583 328.138 198.099C328.38 198.153 328.623 198.001 328.678 197.759C328.731 197.516 328.58 197.274 328.337 197.22V197.216ZM30.4127 197.935C37.1777 196.667 43.5813 197.198 50.4331 197.437C53.1775 197.535 55.9183 197.216 58.6627 197.216C58.9121 197.216 59.1146 197.013 59.1146 196.764C59.1146 196.515 58.9121 196.312 58.6627 196.312C55.9291 196.312 53.1956 196.63 50.4621 196.532C43.5415 196.29 37.0765 195.766 30.2427 197.046C29.9969 197.093 29.8377 197.328 29.8811 197.574C29.9281 197.82 30.1631 197.983 30.409 197.935H30.4127ZM326.493 196.276C326.613 196.398 326.793 196.449 326.964 196.388C327.213 196.301 327.275 196.135 327.3 196.044C327.336 195.9 327.325 195.722 327.148 195.57C327.105 195.535 327.022 195.48 326.887 195.437C326.678 195.371 326.215 195.288 325.709 195.18C324.548 194.931 324.602 194.926 323.453 194.71C321.496 194.345 319.551 194.121 317.562 194.048C314.048 193.922 310.501 194.29 306.986 194.38C303.96 194.46 300.89 194.214 297.867 194.102C297.618 194.095 297.408 194.29 297.401 194.536C297.39 194.786 297.589 194.995 297.835 195.006C300.879 195.118 303.967 195.365 307.012 195.285C310.508 195.194 314.037 194.822 317.533 194.952C319.479 195.024 321.381 195.242 323.29 195.599C324.429 195.813 324.374 195.82 325.524 196.066C325.878 196.142 326.291 196.233 326.501 196.276H326.493ZM32.1229 196.171C32.3362 196.135 32.7484 196.059 33.1064 195.997C34.2634 195.794 34.2092 195.784 35.3554 195.614C37.279 195.325 39.1881 195.176 41.1334 195.176C44.6298 195.176 48.1444 195.676 51.6372 195.892C54.6781 196.084 57.7731 195.946 60.8176 195.946C61.0671 195.946 61.2696 195.744 61.2696 195.495C61.2696 195.245 61.0671 195.043 60.8176 195.043C57.7912 195.043 54.7142 195.176 51.6951 194.988C48.1841 194.768 44.6516 194.273 41.137 194.273C39.1483 194.273 37.1922 194.424 35.2252 194.717C34.0681 194.891 34.1224 194.898 32.9546 195.104C32.4447 195.194 31.9782 195.259 31.7685 195.317C31.6348 195.354 31.548 195.404 31.501 195.44C31.3166 195.589 31.2985 195.762 31.3311 195.907C31.3491 196.001 31.407 196.171 31.6529 196.265C31.8228 196.33 32.0072 196.286 32.1302 196.167L32.1229 196.171ZM326.623 195.552C326.623 195.552 326.613 195.556 326.609 195.56L326.631 195.549H326.623V195.552ZM326.638 195.546H326.631L326.649 195.541H326.638V195.546ZM326.652 195.541L326.674 195.535C326.674 195.535 326.66 195.538 326.652 195.541ZM32.0325 195.455C32.0325 195.455 32.0216 195.448 32.0181 195.448H32.0108L32.0288 195.455H32.0325ZM31.9928 195.433L32.0108 195.44H32.0035L31.9928 195.433ZM31.9891 195.433C31.9891 195.433 31.9747 195.426 31.9674 195.426L31.9891 195.433ZM325.745 193.643C323.333 193.328 320.929 192.761 318.452 192.591C311.853 192.143 303.671 192.612 297.325 192.801C297.076 192.808 296.881 193.017 296.887 193.267C296.895 193.517 297.105 193.712 297.354 193.704C303.671 193.512 311.82 193.046 318.39 193.491C320.849 193.658 323.232 194.225 325.625 194.536C325.872 194.569 326.099 194.395 326.132 194.146C326.165 193.9 325.991 193.672 325.742 193.639L325.745 193.643ZM33.0485 194.471C35.453 194.244 37.8575 193.766 40.3162 193.69C46.9078 193.484 53.5029 194.244 60.0945 194.244C60.344 194.244 60.5465 194.041 60.5465 193.791C60.5465 193.541 60.344 193.339 60.0945 193.339C53.4921 193.339 46.8897 192.583 40.2873 192.79C37.8069 192.865 35.3844 193.347 32.9618 193.574C32.7123 193.596 32.5315 193.816 32.5532 194.066C32.5785 194.316 32.7954 194.497 33.0449 194.475L33.0485 194.471Z" fill="#525252"/>
<path fill-rule="evenodd" clip-rule="evenodd" d="M306.108 192.514L54.8335 193.053L24.2261 241.705H327.687L306.108 192.514Z" fill="#525252"/>
<path fill-rule="evenodd" clip-rule="evenodd" d="M280.906 202.424C280.906 202.424 287.168 204.702 286.138 215.096C286.138 215.096 285.285 223.898 280.103 227.33C280.103 227.33 274.694 222.452 274.336 221.978C273.978 221.504 280.909 202.427 280.909 202.427L280.906 202.424Z" fill="#F6CEAE"/>
<path fill-rule="evenodd" clip-rule="evenodd" d="M181.91 165.434C181.91 165.434 149.99 179.846 156.943 191.137L159.029 194.739C159.029 194.739 150.677 199.914 161.09 215.902C161.09 215.902 166.713 224.492 185.294 226.151C185.294 226.151 258.676 231.934 270.608 226.115L237.072 188.482L216.198 159.829L208.923 148.571L191.014 150.057L181.913 165.434H181.91Z" fill="#5C6248"/>
<mask id="mask0_540_624" style="mask-type:luminance" maskUnits="userSpaceOnUse" x="155" y="148" width="116" height="81">
<path d="M181.91 165.434C181.91 165.434 149.99 179.846 156.943 191.137L159.029 194.739C159.029 194.739 150.677 199.914 161.09 215.902C161.09 215.902 166.713 224.492 185.294 226.151C185.294 226.151 258.676 231.934 270.608 226.115L237.072 188.482L216.198 159.829L208.923 148.571L191.014 150.057L181.913 165.434H181.91Z" fill="white"/>
</mask>
<g mask="url(#mask0_540_624)">
<path fill-rule="evenodd" clip-rule="evenodd" d="M245.666 218.622L181.1 215.248C181.1 215.248 201.392 220.882 222.472 221.782C222.472 221.782 244.723 223.414 254.073 228.817C254.073 228.817 268.992 230.205 270.211 230.516C271.428 230.827 272.336 218.177 272.336 218.177L245.666 218.622ZM156.18 199.056C156.18 199.056 160.103 210.517 176.381 197.133C176.381 197.133 184.838 190.504 191.604 188.062C191.604 188.062 203.857 182.403 209.014 177.438L201.507 145.736C201.507 145.736 155.876 164.827 155.037 165.474C154.199 166.118 148.814 183.669 148.814 183.669L156.177 199.056H156.18Z" fill="#454A34"/>
</g>
<path fill-rule="evenodd" clip-rule="evenodd" d="M177.209 155.359C175.918 155.977 161.321 160.383 158.013 169.879C158.013 169.879 155.442 172.324 157.084 174.082C157.084 174.082 158.411 175.246 159.991 173.919C159.991 173.919 159.315 174.956 160.436 176.027C160.436 176.027 161.936 176.971 164.973 174.599L176.131 166.281L168.712 173.036C168.712 173.036 166.098 175.586 167.385 177.467C167.385 177.467 168.502 178.548 172.682 174.939C172.682 174.939 181.342 167.905 183.674 166.639L183.765 159.377L177.206 155.352L177.209 155.359Z" fill="#F6CEAE"/>
<mask id="mask1_540_624" style="mask-type:luminance" maskUnits="userSpaceOnUse" x="156" y="155" width="28" height="23">
<path d="M177.209 155.359C175.918 155.977 161.321 160.383 158.013 169.879C158.013 169.879 155.442 172.324 157.084 174.082C157.084 174.082 158.411 175.246 159.991 173.919C159.991 173.919 159.315 174.956 160.436 176.027C160.436 176.027 161.936 176.971 164.973 174.599L176.131 166.281L168.712 173.036C168.712 173.036 166.098 175.586 167.385 177.467C167.385 177.467 168.502 178.548 172.682 174.939C172.682 174.939 181.342 167.905 183.674 166.639L183.765 159.377L177.206 155.352L177.209 155.359Z" fill="white"/>
</mask>
<g mask="url(#mask1_540_624)">
<path fill-rule="evenodd" clip-rule="evenodd" d="M173.944 162.216C173.944 162.216 167.277 165.984 162.54 169.969C160.447 171.731 158.736 173.546 158.071 175.101C157.955 175.376 158.082 175.694 158.357 175.814C158.631 175.929 158.95 175.803 159.069 175.528C159.683 174.088 161.299 172.432 163.238 170.801C167.906 166.873 174.479 163.16 174.479 163.16C174.739 163.011 174.834 162.682 174.685 162.422C174.537 162.162 174.208 162.067 173.948 162.216H173.944ZM172.31 159.214C172.31 159.214 160.414 165.93 156.313 170.06C156.104 170.273 156.104 170.616 156.313 170.826C156.527 171.036 156.87 171.036 157.08 170.826C161.115 166.758 172.838 160.162 172.838 160.162C173.098 160.013 173.192 159.684 173.044 159.424C172.896 159.164 172.567 159.069 172.306 159.218L172.31 159.214Z" fill="#E2BEA0"/>
<path fill-rule="evenodd" clip-rule="evenodd" d="M173.594 156.607C173.594 156.607 175.532 157.497 178.42 162.176C178.42 162.176 180.648 166.053 183.714 166.989C186.776 167.93 184.256 166.856 184.256 166.856C184.256 166.856 182.9 157.554 182.781 157.294C182.665 157.034 177.036 152.477 177.036 152.477L173.275 156.093L173.594 156.607Z" fill="#E2BEA0"/>
</g>
<path fill-rule="evenodd" clip-rule="evenodd" d="M179.461 172.696C177.976 173.412 161.256 178.569 157.446 189.589C157.446 189.589 154.484 192.424 156.375 194.463C156.375 194.463 157.905 195.813 159.72 194.276C159.72 194.276 158.942 195.477 160.233 196.721C160.233 196.721 161.961 197.816 165.462 195.064L178.312 185.415L169.273 193.708C169.273 193.708 166.59 196.21 168.073 198.391C168.073 198.391 169.486 200.142 174.302 195.954C174.302 195.954 184.502 187.329 187.294 186.164L187.102 177.412L179.458 172.696H179.461Z" fill="#F6CEAE"/>
<mask id="mask2_540_624" style="mask-type:luminance" maskUnits="userSpaceOnUse" x="155" y="172" width="33" height="27">
<path d="M179.461 172.696C177.976 173.412 161.256 178.569 157.446 189.589C157.446 189.589 154.484 192.424 156.375 194.463C156.375 194.463 157.905 195.813 159.72 194.276C159.72 194.276 158.942 195.477 160.233 196.721C160.233 196.721 161.961 197.816 165.462 195.064L178.312 185.415L169.273 193.708C169.273 193.708 166.59 196.21 168.073 198.391C168.073 198.391 169.486 200.142 174.302 195.954C174.302 195.954 184.502 187.329 187.294 186.164L187.102 177.412L179.458 172.696H179.461Z" fill="white"/>
</mask>
<g mask="url(#mask2_540_624)">
<path fill-rule="evenodd" clip-rule="evenodd" d="M175.832 180.776C175.832 180.776 168.159 185.144 162.71 189.763C160.313 191.795 158.349 193.888 157.586 195.682C157.471 195.957 157.597 196.276 157.875 196.395C158.15 196.51 158.469 196.384 158.588 196.106C159.3 194.423 161.169 192.493 163.412 190.591C168.792 186.03 176.367 181.719 176.367 181.719C176.626 181.571 176.717 181.238 176.569 180.978C176.421 180.718 176.088 180.627 175.832 180.776ZM173.951 177.289C173.951 177.289 160.262 185.068 155.547 189.856C155.337 190.07 155.341 190.413 155.551 190.623C155.764 190.833 156.108 190.829 156.317 190.62C160.971 185.897 174.486 178.233 174.486 178.233C174.747 178.085 174.837 177.752 174.688 177.491C174.541 177.231 174.208 177.141 173.948 177.289H173.951Z" fill="#E2BEA0"/>
<path fill-rule="evenodd" clip-rule="evenodd" d="M175.391 174.194C175.391 174.194 177.625 175.228 180.951 180.656C180.951 180.656 183.518 185.151 187.048 186.24C190.577 187.329 187.67 186.084 187.67 186.084C187.67 186.084 186.108 175.297 185.97 174.993C185.836 174.689 179.353 169.405 179.353 169.405L175.021 173.601L175.386 174.197L175.391 174.194Z" fill="#E2BEA0"/>
</g>
<path fill-rule="evenodd" clip-rule="evenodd" d="M222.696 83.3697C222.696 83.3697 218.346 85.4597 220.15 90.1757C220.15 90.1757 217.301 92.8374 216.006 102.895C216.006 102.895 214.364 108.638 211.458 120.359C211.458 120.359 210.138 125.114 206.695 129.653C206.695 129.653 200.285 138.821 176.959 155.442C176.959 155.442 180.163 163.688 182.528 167.449C187.051 164.559 191.849 161.149 196.915 157.232L178.963 171.611C178.963 171.611 181.024 180.771 186.968 187.216C186.968 187.216 202.281 180.659 207.56 177.506C207.56 177.506 210.64 185.628 222.016 195.606C222.016 195.606 229.186 203.18 236.729 210.737C236.729 210.737 248.494 222.998 254.445 225.149C254.445 225.149 264.411 229.54 280.161 227.384C280.161 227.384 285.798 153.789 275.041 111.668C275.041 111.668 269.856 92.2013 253.274 72.1406L250.526 65.584L248.588 67.2042L222.699 83.3733L222.696 83.3697Z" fill="#8F9B87"/>
<mask id="mask3_540_624" style="mask-type:luminance" maskUnits="userSpaceOnUse" x="176" y="65" width="106" height="163">
<path d="M222.696 83.3697C222.696 83.3697 218.346 85.4597 220.15 90.1757C220.15 90.1757 217.301 92.8374 216.006 102.895C216.006 102.895 214.364 108.638 211.458 120.359C211.458 120.359 210.138 125.114 206.695 129.653C206.695 129.653 200.285 138.821 176.959 155.442C176.959 155.442 180.163 163.688 182.528 167.449C187.051 164.559 191.849 161.149 196.915 157.232L178.963 171.611C178.963 171.611 181.024 180.771 186.968 187.216C186.968 187.216 202.281 180.659 207.56 177.506C207.56 177.506 210.64 185.628 222.016 195.606C222.016 195.606 229.186 203.18 236.729 210.737C236.729 210.737 248.494 222.998 254.445 225.149C254.445 225.149 264.411 229.54 280.161 227.384C280.161 227.384 285.798 153.789 275.041 111.668C275.041 111.668 269.856 92.2013 253.274 72.1406L250.526 65.584L248.588 67.2042L222.699 83.3733L222.696 83.3697Z" fill="white"/>
</mask>
<g mask="url(#mask3_540_624)">
<path fill-rule="evenodd" clip-rule="evenodd" d="M268.414 102.451L253.382 138.897C253.195 139.309 248.27 149.837 233.471 161.655C233.04 161.977 221.347 170.678 203.123 179.875C202.588 180.146 202.375 180.797 202.643 181.333C202.91 181.868 203.564 182.081 204.1 181.813C222.869 172.338 234.783 163.381 234.783 163.381C234.791 163.373 234.801 163.37 234.808 163.362C250.428 150.893 255.368 139.772 255.368 139.772C255.371 139.761 255.375 139.754 255.379 139.743L270.416 103.279C270.644 102.725 270.381 102.089 269.827 101.861C269.274 101.633 268.638 101.897 268.409 102.451H268.414ZM235.864 91.0005L225.053 131.104L226.102 132.47L225.046 131.154C225.046 131.154 224.713 131.845 223.718 132.93C221.929 134.879 218.093 138.296 209.889 143.986C209.397 144.325 209.274 145.001 209.614 145.493C209.953 145.986 210.629 146.108 211.122 145.768C220.505 139.262 224.319 135.62 225.877 133.754C226.93 132.5 227.136 131.82 227.176 131.57L237.962 91.5645C238.117 90.9861 237.773 90.3899 237.198 90.2336C236.62 90.0782 236.023 90.4222 235.867 91.0005H235.864Z" fill="#747F6C"/>
<path fill-rule="evenodd" clip-rule="evenodd" d="M215.79 103.011C215.865 102.957 212.376 144.817 212.376 144.817L196.894 157.243L177.534 172.085C177.534 172.085 171.84 146.806 170.838 147.306C169.837 147.804 206.363 105.26 206.363 105.26C206.363 105.26 215.71 103.066 215.786 103.011H215.79Z" fill="#747F6C"/>
</g>
<mask id="mask4_540_624" style="mask-type:luminance" maskUnits="userSpaceOnUse" x="176" y="103" width="40" height="70">
<mask id="mask5_540_624" style="mask-type:luminance" maskUnits="userSpaceOnUse" x="170" y="103" width="46" height="70">
<path d="M215.79 103.011C215.865 102.956 212.376 144.817 212.376 144.817L196.894 157.243L177.534 172.085C177.534 172.085 171.84 146.806 170.838 147.305C169.837 147.804 206.363 105.26 206.363 105.26C206.363 105.26 215.71 103.065 215.786 103.011H215.79Z" fill="white"/>
</mask>
<g mask="url(#mask5_540_624)">
<path d="M222.696 83.3697C222.696 83.3697 218.346 85.4597 220.15 90.1757C220.15 90.1757 217.301 92.8374 216.006 102.895C216.006 102.895 214.364 108.638 211.458 120.359C211.458 120.359 210.138 125.114 206.695 129.653C206.695 129.653 200.285 138.821 176.959 155.442C176.959 155.442 180.163 163.688 182.528 167.449C187.051 164.559 191.849 161.149 196.915 157.232L178.963 171.611C178.963 171.611 181.024 180.771 186.968 187.216C186.968 187.216 202.281 180.659 207.56 177.506C207.56 177.506 210.64 185.628 222.016 195.606C222.016 195.606 229.186 203.18 236.729 210.737C236.729 210.737 248.494 222.998 254.445 225.149C254.445 225.149 264.411 229.54 280.161 227.384C280.161 227.384 285.798 153.789 275.041 111.668C275.041 111.668 269.856 92.2013 253.274 72.1406L250.526 65.584L248.588 67.2042L222.699 83.3733L222.696 83.3697Z" fill="white"/>
</g>
</mask>
<g mask="url(#mask4_540_624)">
<path fill-rule="evenodd" clip-rule="evenodd" d="M184.672 149.403C184.672 149.403 188.555 159.702 190.471 162.201L180.467 169.756L173.644 153.768L183.537 147.551L184.672 149.403Z" fill="#E0C389"/>
</g>
<mask id="mask6_540_624" style="mask-type:luminance" maskUnits="userSpaceOnUse" x="176" y="65" width="106" height="163">
<path d="M222.696 83.3697C222.696 83.3697 218.346 85.4597 220.15 90.1757C220.15 90.1757 217.301 92.8374 216.006 102.895C216.006 102.895 214.364 108.638 211.458 120.359C211.458 120.359 210.138 125.114 206.695 129.653C206.695 129.653 200.285 138.821 176.959 155.442C176.959 155.442 180.163 163.688 182.528 167.449C187.051 164.559 191.849 161.149 196.915 157.232L178.963 171.611C178.963 171.611 181.024 180.771 186.968 187.216C186.968 187.216 202.281 180.659 207.56 177.506C207.56 177.506 210.64 185.628 222.016 195.606C222.016 195.606 229.186 203.18 236.729 210.737C236.729 210.737 248.494 222.998 254.445 225.149C254.445 225.149 264.411 229.54 280.161 227.384C280.161 227.384 285.798 153.789 275.041 111.668C275.041 111.668 269.856 92.2013 253.274 72.1406L250.526 65.584L248.588 67.2042L222.699 83.3733L222.696 83.3697Z" fill="white"/>
</mask>
<g mask="url(#mask6_540_624)">
<path fill-rule="evenodd" clip-rule="evenodd" d="M176.841 170.725C177.535 170.469 186.795 165.091 186.795 165.091C186.795 165.091 192.573 178.124 196.633 183.734C200.694 189.342 185.193 193.017 185.193 193.017C185.193 193.017 177.491 171.304 176.837 170.725H176.841ZM176.841 170.725C176.841 170.725 176.815 170.711 176.808 170.718C176.79 170.74 176.801 170.74 176.841 170.725ZM220.15 90.1725C220.15 90.1725 220.681 91.9739 230.463 87.127C230.463 87.127 249.586 76.7988 254.229 71.2512C254.229 71.2512 257.331 63.512 257.186 62.7778C257.042 62.0437 246.664 57.9644 246.664 57.9644L216.451 85.1923L220.15 90.1691V90.1725Z" fill="#E0C389"/>
</g>
<path fill-rule="evenodd" clip-rule="evenodd" d="M188.23 39.9939C188.23 39.9939 193.278 70.2239 203.322 80.7875C203.322 80.7875 206.711 84.8271 212.578 83.6843C215.027 83.2106 217.518 81.6699 220.168 79.0589C220.168 79.0589 220.291 79.0372 222.478 83.489C229.276 81.3083 242.065 73.0411 248.28 67.1028L243.284 54.7491L234.714 35.1443L210.757 21.3765L189.951 35.9073L188.23 39.9904V39.9939Z" fill="#F6CEAE"/>
<path fill-rule="evenodd" clip-rule="evenodd" d="M208.811 33.0793C208.811 33.0793 210.499 39.8928 216.368 39.5528C216.368 39.5528 225.053 38.5655 226.018 44.7496C226.018 44.7496 227.226 37.1225 231.283 40.5979C231.283 40.5979 236.117 44.2759 233.684 55.0131C233.684 55.0131 235.752 59.7832 241.074 58.0907C241.074 58.0907 243.681 57.1396 244.039 55.0131C244.039 55.0131 244.51 51.7041 243.674 44.4965C243.674 44.4965 242.054 33.3253 240.767 28.2152L227.07 23.7163L211.016 30.5152L208.814 33.0793H208.811Z" fill="#7E4210"/>
<path fill-rule="evenodd" clip-rule="evenodd" d="M182.322 11.6738C182.322 11.6738 202.378 -1.62387 232.266 0.166272C232.266 0.166272 237.643 11.7787 240.887 28.4614C240.887 28.4614 217.894 29.0436 187.8 40.3378C187.8 40.3378 183.403 25.731 182.325 11.6738H182.322Z" fill="#5C6248"/>
<mask id="mask7_540_624" style="mask-type:luminance" maskUnits="userSpaceOnUse" x="182" y="0" width="59" height="41">
<path d="M182.322 11.6738C182.322 11.6738 202.378 -1.62387 232.266 0.166272C232.266 0.166272 237.643 11.7787 240.887 28.4614C240.887 28.4614 217.894 29.0436 187.8 40.3378C187.8 40.3378 183.403 25.731 182.325 11.6738H182.322Z" fill="white"/>
</mask>
<g mask="url(#mask7_540_624)">
<path fill-rule="evenodd" clip-rule="evenodd" d="M185.605 9.59461C185.605 9.59461 187.253 26.1941 190.385 29.0258C190.385 29.0258 191.932 30.758 198.802 30.0963C198.802 30.0963 218.234 26.516 242.636 26.7221L248.996 37.7269L203.46 61.6824C203.46 61.6824 171.105 51.6575 170.194 50.6015C169.284 49.5491 169.753 21.0877 169.753 21.0877L175.944 6.52783L185.605 9.59817V9.59461Z" fill="#454A34"/>
</g>
</g>
<defs>
<filter id="filter0_d_540_624" x="0.396484" y="0.000488281" width="356.204" height="250.044" filterUnits="userSpaceOnUse" color-interpolation-filters="sRGB">
<feFlood flood-opacity="0" result="BackgroundImageFix"/>
<feColorMatrix in="SourceAlpha" type="matrix" values="0 0 0 0 0 0 0 0 0 0 0 0 0 0 0 0 0 0 127 0" result="hardAlpha"/>
<feOffset dy="4"/>
<feGaussianBlur stdDeviation="2"/>
<feComposite in2="hardAlpha" operator="out"/>
<feColorMatrix type="matrix" values="0 0 0 0 0 0 0 0 0 0 0 0 0 0 0 0 0 0 0.25 0"/>
<feBlend mode="normal" in2="BackgroundImageFix" result="effect1_dropShadow_540_624"/>
<feBlend mode="normal" in="SourceGraphic" in2="effect1_dropShadow_540_624" result="shape"/>
</filter>
</defs>
</svg>
