<svg width="357" height="251" viewBox="0 0 357 251" fill="none" xmlns="http://www.w3.org/2000/svg">
<g filter="url(#filter0_d_540_277)">
<path fill-rule="evenodd" clip-rule="evenodd" d="M346.803 240.641C345.885 240.76 345.035 240.877 344.395 240.872C338.4 240.862 333.226 241.549 327.289 240.764C327.043 240.731 326.815 240.905 326.783 241.155C326.75 241.401 326.924 241.629 327.169 241.661C333.15 242.45 338.357 241.763 344.391 241.778C345.589 241.778 347.527 241.386 349.265 241.285C350.317 241.224 351.291 241.256 351.927 241.618C352.143 241.741 352.419 241.666 352.542 241.448C352.664 241.231 352.588 240.956 352.372 240.833C352.111 240.685 351.804 240.576 351.461 240.5C351.493 240.442 351.515 240.377 351.518 240.304C351.533 240.054 351.344 239.841 351.095 239.827C347.342 239.599 343.245 239.867 339.395 239.79C335.189 239.711 331.006 239.316 326.812 239.164C326.562 239.154 326.352 239.35 326.346 239.599C326.335 239.849 326.53 240.059 326.779 240.066C330.981 240.218 335.168 240.612 339.38 240.691C341.806 240.739 344.33 240.648 346.803 240.634V240.641ZM5.56146 239.462C5.21796 239.523 4.90701 239.621 4.63944 239.758C4.41887 239.874 4.3321 240.145 4.4478 240.37C4.56351 240.59 4.83469 240.677 5.05887 240.562C5.70609 240.225 6.68235 240.225 7.73092 240.326C9.46287 240.493 11.3864 240.952 12.5833 240.995C18.6143 241.202 23.7958 242.082 29.798 241.509C30.0475 241.485 30.2282 241.264 30.2065 241.018C30.1812 240.768 29.9607 240.587 29.7148 240.608C23.7524 241.176 18.6071 240.301 12.6159 240.091C11.9758 240.07 11.1297 239.925 10.2186 239.769C12.6918 239.874 15.212 240.054 17.6345 240.099C21.8469 240.171 26.0448 239.932 30.2499 239.932C30.4994 239.932 30.7019 239.729 30.7019 239.48C30.7019 239.23 30.4994 239.027 30.2499 239.027C26.052 239.027 21.8578 239.27 17.6526 239.198C13.8054 239.132 9.71956 238.716 5.95919 238.806C5.70971 238.814 5.51084 239.02 5.51807 239.27C5.51807 239.342 5.53615 239.407 5.56869 239.465L5.56146 239.462ZM351.088 238.745C350.998 238.753 350.849 238.763 350.716 238.767C350.061 238.781 349.1 238.745 348.976 238.741C346.992 238.669 345.031 238.43 343.047 238.358C336.6 238.122 330.171 238.282 323.716 238.047C323.467 238.039 323.258 238.234 323.247 238.481C323.236 238.73 323.434 238.94 323.681 238.948C330.134 239.183 336.567 239.023 343.01 239.259C344.992 239.331 346.955 239.57 348.94 239.643C349.085 239.646 350.368 239.693 351.004 239.66C351.229 239.649 351.395 239.617 351.467 239.592C351.706 239.497 351.768 239.321 351.782 239.204C351.797 239.081 351.782 238.926 351.619 238.788C351.467 238.658 351.251 238.647 351.088 238.748V238.745ZM350.9 239.288C350.918 239.345 350.95 239.4 351.009 239.454C350.958 239.407 350.921 239.35 350.9 239.288ZM6.00258 237.721C5.84349 237.616 5.62655 237.616 5.47107 237.743C5.30474 237.876 5.27943 238.032 5.29028 238.156C5.30113 238.271 5.35174 238.452 5.59039 238.553C5.6627 238.586 5.82903 238.622 6.05321 238.64C6.68958 238.694 7.97318 238.698 8.11781 238.698C10.1028 238.698 12.0734 238.527 14.0585 238.527C20.509 238.527 26.927 238.919 33.3884 238.919C33.6379 238.919 33.8404 238.716 33.8404 238.466C33.8404 238.217 33.6379 238.014 33.3884 238.014C26.9307 238.014 20.509 237.623 14.0585 237.623C12.0734 237.623 10.1065 237.789 8.11781 237.789C7.99487 237.789 7.02947 237.789 6.37863 237.754C6.24484 237.746 6.0966 237.732 6.0062 237.721H6.00258ZM6.1653 238.268C6.13999 238.329 6.10021 238.383 6.04959 238.43C6.11106 238.38 6.1436 238.322 6.1653 238.268ZM350.687 237.171C347.458 237.175 344.113 236.932 340.848 236.871C335.602 236.773 330.352 236.994 325.105 236.802C324.855 236.791 324.646 236.986 324.639 237.236C324.627 237.485 324.823 237.695 325.073 237.703C330.326 237.895 335.58 237.674 340.833 237.772C344.106 237.833 347.458 238.076 350.69 238.072C350.94 238.072 351.142 237.869 351.142 237.62C351.142 237.37 350.94 237.167 350.69 237.167L350.687 237.171ZM6.42202 237.066C9.6545 237.189 13.0136 237.066 16.2859 237.124C21.5395 237.218 26.7824 237.626 32.0361 237.626C32.2856 237.626 32.4881 237.424 32.4881 237.175C32.4881 236.925 32.2856 236.722 32.0361 236.722C26.7861 236.722 21.5504 236.31 16.3003 236.219C13.0352 236.161 9.67981 236.285 6.45455 236.161C6.20507 236.15 5.99535 236.346 5.98451 236.595C5.97366 236.845 6.16891 237.055 6.4184 237.066H6.42202ZM350.104 235.524C346.976 235.496 343.856 235.134 340.725 235.184C336.983 235.246 333.27 235.579 329.516 235.507C326.819 235.452 324.136 235.105 321.438 235.155C321.189 235.159 320.99 235.365 320.994 235.614C320.998 235.864 321.203 236.064 321.453 236.06C324.14 236.009 326.812 236.357 329.495 236.411C333.259 236.487 336.983 236.15 340.736 236.089C343.864 236.038 346.973 236.4 350.093 236.429C350.343 236.429 350.546 236.23 350.549 235.98C350.549 235.731 350.351 235.528 350.101 235.524H350.104ZM7.07286 235.441C10.1896 235.528 13.3136 235.278 16.4377 235.441C20.1872 235.64 23.8971 236.11 27.6611 236.172C30.3475 236.216 33.0268 235.966 35.7097 236.114C35.9592 236.128 36.1726 235.937 36.187 235.687C36.2015 235.438 36.0099 235.224 35.7603 235.209C33.063 235.061 30.3728 235.311 27.6755 235.264C23.9224 235.203 20.2234 234.732 16.4847 234.537C13.3535 234.37 10.2258 234.62 7.09816 234.537C6.84867 234.529 6.63896 234.724 6.63535 234.974C6.62811 235.224 6.82698 235.434 7.07286 235.438V235.441ZM349.667 233.86C349.168 233.693 348.282 233.607 347.234 233.585C344.923 233.53 341.767 233.74 340.403 233.715C334.611 233.599 328.84 233.349 323.051 233.14C322.802 233.132 322.592 233.324 322.585 233.574C322.577 233.823 322.769 234.033 323.019 234.041C328.811 234.251 334.59 234.504 340.385 234.616C341.748 234.641 344.905 234.431 347.215 234.486C348.148 234.508 348.936 234.566 349.382 234.713C349.616 234.793 349.873 234.667 349.952 234.428C350.032 234.193 349.906 233.935 349.667 233.856V233.86ZM7.85386 233.759C8.30583 233.625 9.09406 233.596 10.0269 233.61C12.3374 233.639 15.4831 233.964 16.8463 233.986C22.6423 234.084 28.424 234.044 34.2236 234.044C34.4732 234.044 34.6756 233.842 34.6756 233.592C34.6756 233.343 34.4732 233.14 34.2236 233.14C28.4312 233.14 22.6568 233.18 16.8643 233.085C15.4976 233.064 12.3519 232.738 10.0414 232.709C8.99283 232.695 8.10696 232.746 7.60075 232.897C7.36211 232.966 7.22472 233.219 7.29703 233.458C7.36935 233.697 7.61883 233.834 7.85747 233.762L7.85386 233.759ZM348.369 232.109C347.866 231.92 346.955 231.837 345.871 231.826C343.495 231.808 340.233 232.119 338.928 232.144C333.197 232.261 327.589 231.844 321.872 231.634C321.623 231.624 321.413 231.819 321.403 232.069C321.395 232.318 321.587 232.528 321.837 232.535C327.568 232.746 333.197 233.162 338.942 233.045C340.244 233.02 343.491 232.709 345.86 232.727C346.806 232.735 347.606 232.785 348.047 232.951C348.282 233.039 348.542 232.922 348.629 232.687C348.716 232.452 348.597 232.192 348.365 232.104L348.369 232.109ZM9.24593 232.043C9.69068 231.895 10.4898 231.873 11.4371 231.899C13.8054 231.967 17.0416 232.394 18.3396 232.47C24.0778 232.796 29.7184 232.583 35.453 232.583C35.7025 232.583 35.905 232.38 35.905 232.13C35.905 231.88 35.7025 231.678 35.453 231.678C29.7329 231.678 24.1104 231.891 18.3902 231.566C17.0885 231.493 13.8416 231.062 11.4624 230.993C10.3777 230.961 9.46287 231.012 8.95667 231.182C8.72164 231.262 8.59147 231.518 8.67102 231.754C8.75057 231.989 9.00729 232.119 9.24231 232.04L9.24593 232.043ZM347.606 230.936C347.7 231.091 347.884 231.179 348.072 231.146C348.318 231.102 348.481 230.864 348.434 230.617C348.373 230.281 348.159 230.103 347.838 230.042C347.682 230.013 347.487 230.024 347.28 230.052C347.078 230.082 346.865 230.132 346.705 230.129C344.796 230.06 342.898 229.897 340.989 229.865C334.257 229.756 327.549 230.103 320.817 229.861C320.567 229.85 320.357 230.046 320.35 230.295C320.339 230.545 320.535 230.755 320.784 230.762C327.524 231.008 334.235 230.657 340.974 230.769C342.877 230.802 344.775 230.965 346.673 231.033C346.851 231.041 347.078 231.005 347.302 230.968C347.392 230.954 347.527 230.943 347.606 230.939V230.936ZM9.76296 230.042C9.8281 230.046 9.92211 230.057 9.98717 230.068C10.233 230.114 10.4933 230.172 10.6886 230.172C12.5905 230.172 14.4924 230.078 16.3943 230.114C23.1341 230.249 29.8305 230.846 36.5739 230.846C36.8234 230.846 37.0259 230.643 37.0259 230.393C37.0259 230.143 36.8234 229.94 36.5739 229.94C29.8377 229.94 23.1449 229.348 16.4124 229.213C14.5032 229.173 12.5978 229.271 10.6886 229.271C10.526 229.271 10.3162 229.21 10.1137 229.177C9.90759 229.141 9.71234 229.127 9.55692 229.148C9.23509 229.196 9.01452 229.365 8.9422 229.702C8.88797 229.945 9.04345 230.187 9.2857 230.241C9.47373 230.284 9.66172 230.201 9.75939 230.049L9.76296 230.042ZM10.3668 228.24C12.9268 228.938 17.8587 228.334 20.7043 228.435C25.6037 228.609 30.4741 229.25 35.3807 229.445C35.6302 229.455 35.8399 229.26 35.8508 229.01C35.8616 228.761 35.6663 228.551 35.4169 228.54C30.5067 228.345 25.6362 227.708 20.7369 227.531C17.9491 227.429 13.1148 228.052 10.6054 227.368C10.3632 227.303 10.1174 227.443 10.0522 227.686C9.98717 227.928 10.1281 228.175 10.3704 228.24H10.3668ZM346.865 228.232C344.33 228.826 339.525 228.03 336.733 228.026C331.83 228.026 326.938 228.482 322.024 228.501C321.775 228.501 321.573 228.703 321.573 228.956C321.573 229.206 321.775 229.409 322.024 229.405C326.935 229.387 331.827 228.927 336.73 228.931C339.576 228.931 344.482 229.716 347.067 229.112C347.309 229.054 347.461 228.812 347.404 228.57C347.346 228.327 347.104 228.175 346.861 228.232H346.865ZM346.008 226.694C345.856 226.684 345.606 226.67 345.509 226.662C344.591 226.587 344.648 226.525 343.734 226.43C341.365 226.181 338.972 225.985 336.592 225.945C330.453 225.838 324.19 225.736 318.062 226C317.812 226.011 317.617 226.221 317.628 226.47C317.639 226.72 317.849 226.912 318.097 226.901C324.208 226.633 330.453 226.739 336.574 226.846C338.928 226.886 341.296 227.082 343.64 227.328C344.565 227.426 344.507 227.488 345.437 227.563C345.589 227.574 345.932 227.607 346.098 227.607C346.199 227.607 346.271 227.596 346.305 227.585C346.561 227.517 346.622 227.325 346.641 227.216C346.651 227.15 346.691 226.814 346.286 226.688C346.192 226.659 346.095 226.662 346.008 226.688V226.694ZM11.5166 225.862C11.4298 225.83 11.3323 225.823 11.2382 225.848C10.8297 225.96 10.8585 226.297 10.8658 226.361C10.8803 226.47 10.9309 226.662 11.1876 226.742C11.2202 226.753 11.2924 226.767 11.3937 226.771C11.56 226.774 11.9071 226.756 12.059 226.753C12.9883 226.709 12.934 226.648 13.8633 226.582C16.2099 226.424 18.5855 226.315 20.9393 226.358C27.0608 226.474 33.3017 226.597 39.4015 227.086C39.6509 227.104 39.8679 226.919 39.886 226.67C39.9041 226.42 39.7196 226.203 39.4702 226.181C33.3523 225.692 27.0933 225.566 20.9538 225.45C18.5746 225.407 16.1738 225.511 13.7982 225.674C12.8797 225.736 12.9377 225.801 12.0156 225.841C11.918 225.844 11.6685 225.852 11.5166 225.855V225.862ZM344.956 224.581C344.706 224.57 344.301 224.541 344.109 224.535C343.401 224.509 342.692 224.484 341.983 224.458C340.135 224.389 338.27 224.372 336.422 224.368C330.648 224.357 324.885 224.621 319.114 224.412C318.864 224.404 318.654 224.596 318.647 224.846C318.637 225.095 318.832 225.305 319.081 225.313C324.863 225.522 330.637 225.258 336.422 225.269C338.263 225.273 340.114 225.291 341.955 225.359C342.663 225.385 343.372 225.41 344.08 225.436C344.366 225.446 345.104 225.494 345.205 225.482C345.541 225.439 345.595 225.172 345.606 225.092C345.613 225.052 345.635 224.658 345.18 224.567C345.104 224.553 345.028 224.556 344.956 224.578V224.581ZM12.6447 223.789C12.576 223.764 12.5001 223.757 12.4205 223.767C11.9614 223.84 11.9722 224.234 11.9758 224.277C11.9831 224.357 12.0265 224.628 12.3627 224.682C12.4676 224.701 13.2052 224.679 13.4909 224.679H15.6205C17.4609 224.679 19.3122 224.727 21.1527 224.791C26.9343 224.991 32.6942 225.465 38.4794 225.465C38.7289 225.465 38.9314 225.262 38.9314 225.012C38.9314 224.762 38.7289 224.559 38.4794 224.559C32.705 224.559 26.9523 224.085 21.1816 223.887C19.3339 223.821 17.4682 223.775 15.6205 223.775H13.4909C13.2992 223.775 12.8906 223.789 12.6447 223.789ZM344.439 222.989C344.439 222.989 344.243 223.011 344.08 223.011C343.719 223.011 343.202 222.989 342.595 222.946C340.18 222.783 336.404 222.36 335.562 222.316C329.545 222.001 323.453 222.363 317.425 222.385C317.176 222.385 316.973 222.587 316.977 222.837C316.977 223.087 317.183 223.29 317.429 223.29C323.439 223.268 329.513 222.906 335.514 223.217C336.477 223.268 341.267 223.81 343.484 223.898C344.128 223.923 344.583 223.898 344.738 223.84C344.974 223.753 345.093 223.493 345.006 223.257C344.923 223.026 344.67 222.906 344.439 222.986V222.989ZM13.2196 222.214C12.9918 222.128 12.7351 222.24 12.6412 222.468C12.5472 222.699 12.6592 222.964 12.887 223.058C13.0389 223.12 13.4944 223.167 14.138 223.163C16.3581 223.155 21.1635 222.787 22.1253 222.772C28.1347 222.678 34.1911 223.261 40.1969 223.499C40.4464 223.51 40.6561 223.315 40.667 223.065C40.6778 222.816 40.4825 222.606 40.2331 222.595C34.2128 222.352 28.1347 221.769 22.1108 221.867C21.2684 221.882 17.4827 222.164 15.0601 222.24C14.4526 222.259 13.932 222.265 13.5704 222.251C13.4077 222.244 13.2269 222.219 13.2124 222.219L13.2196 222.214ZM343.042 221.932C343.162 222.052 343.34 222.102 343.51 222.045C343.755 221.961 343.827 221.809 343.856 221.734C343.925 221.556 343.914 221.353 343.694 221.187C343.643 221.148 343.538 221.093 343.383 221.065C343.116 221.006 342.558 220.966 342.309 220.937C341.484 220.839 341.543 220.876 340.664 220.822C338.343 220.673 336.039 220.485 333.714 220.399C327.904 220.188 322.108 220.311 316.29 220.101C316.04 220.09 315.831 220.286 315.823 220.535C315.816 220.785 316.008 220.996 316.257 221.003C322.075 221.216 327.871 221.089 333.682 221.299C335.996 221.382 338.295 221.574 340.606 221.719C341.459 221.774 341.402 221.737 342.204 221.831C342.374 221.849 342.794 221.9 343.039 221.932H343.042ZM14.6515 221.212C14.8974 221.191 15.3204 221.158 15.4903 221.144C16.2931 221.079 16.2388 221.111 17.0922 221.089C19.4062 221.028 21.7095 220.923 24.0272 220.923C29.8413 220.923 35.6302 221.26 41.4515 221.26C41.7011 221.26 41.9035 221.057 41.9035 220.807C41.9035 220.558 41.7011 220.355 41.4515 220.355C35.6302 220.355 29.8413 220.018 24.0272 220.018C21.7023 220.018 19.3918 220.124 17.0669 220.188C16.1882 220.214 16.246 220.181 15.4181 220.247C15.1686 220.268 14.6118 220.286 14.3405 220.337C14.1851 220.362 14.0802 220.413 14.026 220.449C13.7982 220.608 13.7801 220.807 13.8415 220.988C13.8669 221.065 13.9356 221.22 14.1779 221.31C14.3442 221.375 14.5285 221.332 14.6515 221.216V221.212ZM342.078 220.29C342.193 220.434 342.392 220.5 342.58 220.434C342.815 220.355 342.887 220.207 342.916 220.119C342.97 219.964 342.959 219.791 342.811 219.631C342.765 219.581 342.667 219.512 342.522 219.461C342.291 219.381 341.814 219.309 341.593 219.284C340.595 219.168 340.635 219.194 339.597 219.045C337.106 218.683 334.636 218.513 332.123 218.379C325.806 218.039 319.522 218.538 313.223 218.307C312.974 218.296 312.765 218.491 312.757 218.741C312.746 218.991 312.941 219.2 313.191 219.208C319.483 219.436 325.763 218.94 332.072 219.277C334.556 219.41 337.001 219.577 339.464 219.935C340.515 220.087 340.476 220.058 341.484 220.178C341.604 220.192 341.893 220.25 342.078 220.286V220.29ZM15.6784 219.605C15.8628 219.573 16.1557 219.53 16.275 219.519C17.291 219.436 17.2476 219.464 18.3034 219.349C20.7766 219.081 23.2281 219.002 25.7121 218.958C32.0288 218.85 38.2914 219.573 44.5864 219.573C44.8359 219.573 45.0384 219.37 45.0384 219.121C45.0384 218.871 44.8359 218.669 44.5864 218.669C38.2841 218.669 32.0216 217.941 25.6977 218.053C23.1847 218.097 20.7079 218.176 18.2058 218.448C17.1645 218.56 17.2042 218.535 16.2026 218.614C15.9821 218.632 15.5012 218.69 15.2662 218.759C15.1179 218.802 15.0203 218.871 14.9697 218.918C14.8142 219.074 14.7961 219.244 14.8468 219.403C14.8721 219.49 14.9408 219.642 15.1722 219.729C15.3566 219.801 15.5554 219.743 15.6784 219.602V219.605ZM340.978 217.246L340.928 217.239C339.717 217.113 338.509 216.95 337.297 216.827C335.215 216.617 333.147 216.468 331.053 216.428C324.537 216.306 317.982 217.019 311.481 216.783C311.231 216.776 311.022 216.971 311.014 217.217C311.007 217.467 311.199 217.677 311.448 217.688C317.956 217.923 324.512 217.214 331.034 217.334C333.103 217.373 335.149 217.518 337.207 217.724C338.418 217.847 339.622 218.01 340.833 218.136C340.87 218.14 340.974 218.158 341.061 218.158C341.166 218.158 341.264 218.133 341.336 218.097C341.492 218.021 341.586 217.894 341.611 217.724C341.65 217.478 341.484 217.246 341.239 217.203C341.144 217.188 341.054 217.203 340.974 217.239L340.978 217.246ZM16.8861 216.602C16.8065 216.562 16.7197 216.545 16.6258 216.559C16.3762 216.591 16.2026 216.816 16.2352 217.065C16.2569 217.236 16.3473 217.366 16.4991 217.446C16.5678 217.481 16.6655 217.51 16.7703 217.515C16.8607 217.518 16.9656 217.503 17.0017 217.5C18.2166 217.42 19.428 217.297 20.6429 217.217C22.7075 217.087 24.7575 217.015 26.8258 217.051C33.3486 217.167 39.8751 218.115 46.3871 218.115C46.6366 218.115 46.8391 217.912 46.8391 217.662C46.8391 217.413 46.6366 217.21 46.3871 217.21C39.8823 217.21 33.3595 216.258 26.8402 216.146C24.7468 216.11 22.6713 216.183 20.5849 216.316C19.37 216.396 18.1588 216.516 16.9439 216.599H16.8933L16.8861 216.602ZM340.725 217.561C340.725 217.561 340.725 217.576 340.721 217.583V217.561H340.725ZM17.1247 216.928V216.95C17.1247 216.95 17.1247 216.935 17.1247 216.928ZM339.962 216.399C340.056 216.49 340.186 216.54 340.327 216.526C340.577 216.501 340.758 216.276 340.729 216.031C340.721 215.94 340.686 215.839 340.598 215.745C340.537 215.679 340.385 215.571 340.107 215.492C339.315 215.26 336.979 214.93 333.15 214.709C329.903 214.525 326.721 214.811 323.489 214.749C319.732 214.68 315.994 214.421 312.244 214.283C311.994 214.272 311.785 214.467 311.777 214.717C311.767 214.967 311.961 215.176 312.211 215.184C315.964 215.322 319.71 215.578 323.471 215.65C326.692 215.712 329.863 215.423 333.096 215.607C336.039 215.777 338.082 216.005 339.192 216.207C339.536 216.269 339.858 216.364 339.959 216.393L339.962 216.399ZM339.832 216.143V216.121C339.832 216.121 339.832 216.135 339.832 216.143ZM17.931 215.791C18.0359 215.767 18.3613 215.683 18.7048 215.633C19.822 215.469 21.8722 215.314 24.819 215.253C28.0551 215.184 31.2153 215.589 34.437 215.644C38.1973 215.712 41.9506 215.586 45.7073 215.586C45.9568 215.586 46.1593 215.383 46.1593 215.133C46.1593 214.883 45.9568 214.68 45.7073 214.68C41.9542 214.68 38.2082 214.804 34.4551 214.739C31.2225 214.68 28.0516 214.279 24.8009 214.348C20.9682 214.427 18.6217 214.67 17.8189 214.876C17.5405 214.949 17.3814 215.047 17.32 215.111C17.2295 215.205 17.1898 215.303 17.1789 215.394C17.1428 215.639 17.3163 215.871 17.5622 215.904C17.7032 215.922 17.8333 215.879 17.931 215.788V215.791ZM18.0684 215.542C18.0684 215.542 18.0684 215.527 18.0684 215.52V215.542ZM338.772 214.674C338.903 214.797 339.098 214.837 339.272 214.76C339.503 214.656 339.56 214.5 339.582 214.421C339.626 214.25 339.6 214.066 339.405 213.921C339.351 213.881 339.246 213.827 339.094 213.798C338.849 213.751 338.353 213.736 338.125 213.718C337.417 213.667 336.704 213.627 335.992 213.584C333.642 213.443 331.306 213.48 328.955 213.497C322.841 213.548 316.655 213.081 310.551 213.389C310.302 213.403 310.111 213.613 310.121 213.863C310.132 214.112 310.345 214.304 310.595 214.293C316.684 213.986 322.859 214.453 328.96 214.402C331.288 214.384 333.602 214.352 335.934 214.489C336.639 214.533 337.348 214.568 338.053 214.623C338.197 214.634 338.548 214.663 338.765 214.68L338.772 214.674ZM19.1821 214.109C19.399 214.098 19.7498 214.083 19.8944 214.077C20.603 214.051 21.3081 214.037 22.0168 214.022C24.349 213.968 26.6631 214.088 28.9916 214.189C35.0878 214.46 41.2744 214.218 47.3489 214.749C47.5984 214.771 47.8153 214.587 47.837 214.337C47.8587 214.088 47.6743 213.87 47.4248 213.848C41.3359 213.32 35.1348 213.559 29.0278 213.288C26.6812 213.182 24.349 213.067 21.9951 213.118C21.2828 213.136 20.5705 213.147 19.8582 213.176C19.6304 213.182 19.135 213.182 18.8892 213.219C18.7373 213.241 18.6289 213.291 18.5746 213.331C18.3758 213.472 18.3432 213.653 18.3793 213.824C18.3974 213.907 18.4517 214.066 18.6795 214.178C18.8494 214.261 19.0447 214.229 19.1784 214.109H19.1821ZM338.14 212.517C337.93 212.481 337.583 212.419 337.435 212.409C336.328 212.325 336.379 212.286 335.229 212.217C333.078 212.09 330.944 211.822 328.79 211.706C322.87 211.388 316.955 211.605 311.029 211.391C310.779 211.384 310.569 211.58 310.562 211.826C310.551 212.076 310.747 212.285 310.996 212.292C316.919 212.51 322.827 212.289 328.742 212.607C330.893 212.723 333.027 212.991 335.175 213.118C336.321 213.187 336.267 213.226 337.37 213.309C337.593 213.328 338.038 213.446 338.281 213.451C338.444 213.454 338.57 213.418 338.65 213.374C338.777 213.302 338.852 213.197 338.892 213.074C338.924 212.966 338.935 212.814 338.823 212.629C338.693 212.415 338.415 212.347 338.202 212.477C338.183 212.488 338.165 212.502 338.151 212.513L338.14 212.517ZM19.8944 211.981C19.8944 211.981 19.8619 211.956 19.8438 211.942C19.634 211.804 19.3556 211.862 19.2182 212.068C19.0989 212.249 19.1062 212.401 19.1315 212.51C19.164 212.633 19.2363 212.742 19.3593 212.817C19.4352 212.864 19.5581 212.908 19.7244 212.908C19.9667 212.908 20.415 212.806 20.6392 212.799C21.742 212.756 21.6914 212.716 22.8376 212.691C24.989 212.64 27.1332 212.452 29.2845 212.415C35.2071 212.311 41.1044 212.748 47.0271 212.748C47.2766 212.748 47.4791 212.545 47.4791 212.296C47.4791 212.046 47.2766 211.844 47.0271 211.844C41.0972 211.844 35.1927 211.41 29.2665 211.514C27.1114 211.551 24.9673 211.739 22.8123 211.79C21.6589 211.818 21.7095 211.858 20.5995 211.902C20.4476 211.909 20.1005 211.956 19.8872 211.985L19.8944 211.981ZM337.073 211.576H337.092C337.279 211.609 337.93 210.827 337.221 210.682C337.135 210.671 337.052 210.682 336.975 210.714C337.034 210.679 337.113 210.664 337.221 210.682H337.193C336.878 210.624 334.965 210.306 334.607 210.266C332.091 209.965 329.501 209.97 326.971 209.875C320.452 209.637 313.921 209.843 307.395 209.603C307.146 209.597 306.936 209.789 306.925 210.038C306.914 210.288 307.109 210.498 307.359 210.505C313.885 210.744 320.412 210.538 326.935 210.776C329.44 210.866 332.008 210.86 334.495 211.16C334.846 211.204 336.73 211.514 337.037 211.565L337.069 211.572L337.073 211.576ZM20.8815 210.179C20.9719 210.168 21.0261 210.186 21.0478 210.194C20.9935 210.179 20.9393 210.176 20.8815 210.179C20.1691 210.295 20.7875 211.098 20.9791 211.077H20.9972L21.0297 211.069C21.3407 211.029 23.2317 210.783 23.586 210.754C26.0845 210.544 28.6518 210.646 31.1575 210.646C37.684 210.646 44.1996 211.087 50.7296 211.087C50.9791 211.087 51.1816 210.885 51.1816 210.635C51.1816 210.386 50.9791 210.183 50.7296 210.183C44.1996 210.183 37.684 209.741 31.1575 209.741C28.6264 209.741 26.0339 209.643 23.5101 209.853C23.1521 209.882 21.2286 210.128 20.9104 210.172H20.8815V210.179ZM21.2647 210.932C21.2358 210.968 21.1961 210.997 21.1562 211.023C21.2069 210.994 21.2394 210.961 21.2647 210.932ZM21.1274 210.226C21.2141 210.269 21.2828 210.338 21.3298 210.426C21.2973 210.357 21.2394 210.28 21.1274 210.226ZM336.18 208.938C334.441 208.931 332.239 208.276 330.402 208.178C327.025 207.997 323.658 208.124 320.282 208.142C316 208.164 311.738 207.831 307.464 207.675C307.214 207.665 307.005 207.86 306.997 208.11C306.99 208.359 307.182 208.569 307.431 208.576C311.716 208.732 315.994 209.065 320.285 209.043C323.648 209.025 326.993 208.899 330.352 209.079C332.203 209.181 334.419 209.835 336.173 209.843C336.422 209.843 336.624 209.64 336.624 209.39C336.624 209.141 336.422 208.938 336.173 208.938H336.18ZM21.9518 209.379C23.7054 209.437 25.9436 208.862 27.7984 208.83C31.1647 208.771 34.502 209.021 37.8611 209.158C42.1494 209.339 46.4378 209.158 50.726 209.158C50.9755 209.158 51.178 208.956 51.178 208.707C51.178 208.457 50.9755 208.254 50.726 208.254C46.4486 208.254 42.1747 208.431 37.8973 208.254C34.5201 208.113 31.1647 207.863 27.7804 207.921C25.9399 207.953 23.7198 208.529 21.9806 208.471C21.7312 208.464 21.5214 208.659 21.5142 208.909C21.507 209.158 21.7023 209.368 21.9518 209.376V209.379ZM335.178 207.451C335.096 207.378 334.962 207.299 334.777 207.23C334.481 207.118 334.015 207.013 333.461 206.915C331.722 206.618 329.079 206.412 328.403 206.336C323.312 205.765 318.181 206.112 313.071 206.162C310.569 206.188 308.096 205.927 305.602 205.834C305.352 205.826 305.142 206.018 305.135 206.267C305.128 206.517 305.32 206.727 305.569 206.738C308.078 206.828 310.566 207.092 313.082 207.068C318.152 207.013 323.247 206.666 328.301 207.234C328.97 207.31 331.588 207.508 333.309 207.806C333.728 207.878 334.094 207.953 334.354 208.037C334.463 208.07 334.545 208.095 334.59 208.131C334.777 208.294 335.063 208.272 335.226 208.084C335.388 207.896 335.367 207.61 335.178 207.447V207.451ZM23.6041 207.729C23.6475 207.693 23.7343 207.675 23.8428 207.642C24.1067 207.57 24.4719 207.505 24.895 207.451C26.6233 207.219 29.2484 207.114 29.9209 207.063C34.9938 206.68 40.0704 207.212 45.1361 207.451C47.649 207.57 50.1439 207.396 52.6568 207.396C52.9063 207.396 53.1088 207.194 53.1088 206.944C53.1088 206.695 52.9063 206.492 52.6568 206.492C50.162 206.492 47.6779 206.666 45.1795 206.546C40.0776 206.307 34.9612 205.775 29.8522 206.162C29.1725 206.213 26.5221 206.322 24.7756 206.557C24.2188 206.633 23.7488 206.719 23.4486 206.821C23.2643 206.882 23.1268 206.955 23.0401 207.028C22.8448 207.183 22.8159 207.468 22.9714 207.665C23.1268 207.86 23.4125 207.889 23.6078 207.733L23.6041 207.729ZM333.24 206.362C333.338 206.47 333.49 206.532 333.645 206.506C333.891 206.47 334.061 206.239 334.025 205.992C334.01 205.895 333.964 205.783 333.852 205.681C333.757 205.598 333.523 205.486 333.172 205.399C331.913 205.088 328.782 204.762 328.215 204.729C321.583 204.346 314.956 204.136 308.32 203.894C308.071 203.883 307.862 204.078 307.854 204.328C307.843 204.577 308.038 204.787 308.288 204.798C314.919 205.04 321.539 205.251 328.164 205.631C328.768 205.667 332.434 206.032 333.24 206.358V206.362ZM25.0143 206.007C25.8351 205.71 29.5087 205.475 30.1162 205.464C36.7475 205.323 43.3752 205.355 50.0101 205.355C50.2596 205.355 50.4621 205.153 50.4621 204.904C50.4621 204.654 50.2596 204.451 50.0101 204.451C43.3715 204.451 36.7366 204.419 30.0981 204.56C29.5304 204.571 26.3883 204.78 25.1192 205.048C24.7648 205.12 24.5262 205.225 24.4322 205.304C24.3164 205.403 24.2658 205.511 24.2477 205.613C24.2008 205.858 24.3635 206.093 24.6093 206.141C24.7648 206.17 24.9167 206.115 25.0179 206.01L25.0143 206.007ZM332.409 204.831C332.499 204.925 332.626 204.983 332.767 204.976C333.11 204.954 333.201 204.712 333.222 204.624C333.251 204.512 333.277 204.295 333.031 204.121C332.984 204.089 332.86 204.027 332.647 203.958C332.301 203.846 331.624 203.662 330.557 203.391C328.356 202.833 326.244 202.616 323.984 202.533C317.436 202.294 310.862 202.33 304.303 202.092C304.054 202.084 303.845 202.279 303.837 202.526C303.829 202.775 304.021 202.985 304.271 202.993C310.83 203.231 317.4 203.195 323.951 203.434C326.146 203.513 328.196 203.723 330.337 204.262C331.44 204.541 332.105 204.723 332.413 204.827L332.409 204.831ZM25.9002 204.509C26.2111 204.414 26.8836 204.259 27.9936 204.02C30.1523 203.557 32.2061 203.423 34.4045 203.423C40.9562 203.423 47.5225 203.698 54.085 203.698C54.3346 203.698 54.537 203.495 54.537 203.246C54.537 202.996 54.3346 202.793 54.085 202.793C47.5225 202.793 40.9562 202.519 34.4045 202.519C32.1409 202.519 30.0257 202.66 27.8057 203.134C26.7281 203.365 26.0448 203.524 25.6977 203.625C25.4807 203.687 25.3542 203.745 25.3072 203.774C25.054 203.937 25.0721 204.154 25.0974 204.267C25.1155 204.357 25.1987 204.603 25.5385 204.635C25.6796 204.65 25.8098 204.595 25.9002 204.505V204.509ZM331.715 203.068C331.715 203.068 331.736 203.079 331.747 203.083C331.982 203.17 332.242 203.047 332.325 202.815C332.373 202.689 332.398 202.497 332.203 202.323C332.184 202.309 332.083 202.233 331.881 202.182C331.085 201.975 326.982 201.118 325.766 201.002C321.251 200.571 318.293 201.038 313.997 201.237C310.851 201.382 307.644 201.061 304.502 200.944C304.253 200.933 304.043 201.128 304.032 201.378C304.025 201.628 304.22 201.838 304.466 201.845C307.638 201.961 310.866 202.284 314.037 202.138C318.282 201.943 321.207 201.472 325.676 201.9C326.862 202.012 330.872 202.852 331.649 203.054C331.668 203.061 331.693 203.065 331.707 203.068H331.715ZM331.57 202.96C331.462 202.841 331.422 202.663 331.479 202.5C331.436 202.62 331.411 202.793 331.57 202.96ZM26.6559 202.772C26.6559 202.772 26.692 202.764 26.7137 202.757C27.4983 202.583 31.5335 201.892 32.7231 201.82C37.203 201.556 40.1101 202.131 44.3478 202.482C47.5116 202.743 50.7514 202.54 53.9223 202.54C54.1718 202.54 54.3743 202.338 54.3743 202.088C54.3743 201.838 54.1718 201.636 53.9223 201.636C50.7767 201.636 47.5622 201.842 44.4201 201.581C40.1391 201.227 37.1994 200.651 32.6689 200.919C31.4504 200.992 27.3175 201.697 26.5148 201.874C26.3123 201.917 26.2075 201.991 26.1894 202.005C25.987 202.175 26.0086 202.362 26.0484 202.493C26.1243 202.732 26.381 202.858 26.6197 202.783C26.6306 202.779 26.6414 202.775 26.6559 202.768V202.772ZM26.833 202.634C26.9596 202.482 26.9487 202.334 26.9089 202.21C26.956 202.359 26.9234 202.519 26.833 202.634ZM330.352 201.335C330.42 201.48 330.565 201.585 330.735 201.596C330.984 201.61 331.198 201.418 331.212 201.168C331.226 200.941 331.165 200.811 331.096 200.717C331.017 200.611 330.879 200.517 330.587 200.459C328.619 200.058 326.562 199.888 324.57 199.627C317.107 198.661 309.605 199.348 302.12 198.809C301.87 198.791 301.653 198.98 301.635 199.229C301.617 199.479 301.805 199.696 302.054 199.714C309.521 200.253 317.006 199.562 324.454 200.528C326.407 200.781 328.42 200.948 330.352 201.339V201.335ZM28.0841 201.089C30.0257 200.771 32.0469 200.677 34.0067 200.496C41.4842 199.804 48.9398 200.763 56.4208 200.496C56.6703 200.488 56.8656 200.278 56.8547 200.029C56.8475 199.779 56.6378 199.584 56.3883 199.595C48.8892 199.862 41.4155 198.903 33.9235 199.595C31.924 199.779 29.863 199.877 27.8816 200.206C27.5887 200.257 27.4477 200.344 27.3645 200.445C27.2886 200.536 27.2272 200.666 27.2307 200.894C27.2344 201.144 27.4405 201.343 27.6899 201.335C27.8635 201.335 28.0117 201.234 28.0841 201.089ZM328.981 199.641C329.075 199.768 329.227 199.841 329.394 199.822C329.642 199.793 329.82 199.569 329.791 199.323C329.773 199.164 329.654 198.947 329.357 198.813C328.938 198.628 327.918 198.509 327.792 198.48C326.056 198.1 324.353 197.767 322.577 197.623C315.089 197 307.601 197.789 300.138 197.192C299.889 197.17 299.671 197.359 299.65 197.608C299.632 197.858 299.817 198.074 300.065 198.093C307.529 198.69 315.017 197.901 322.502 198.524C324.237 198.668 325.901 198.99 327.597 199.363C327.676 199.381 328.146 199.435 328.561 199.522C328.707 199.551 328.898 199.613 328.978 199.641H328.981ZM29.5123 199.449C29.5918 199.425 29.7871 199.37 29.9317 199.345C30.3512 199.273 30.8212 199.236 30.9044 199.222C32.6147 198.911 34.2887 198.647 36.0279 198.567C43.5307 198.215 50.9864 199.28 58.4638 198.954C58.7133 198.943 58.9049 198.734 58.894 198.484C58.8832 198.234 58.6735 198.042 58.424 198.053C50.943 198.379 43.4908 197.319 35.9845 197.666C34.2056 197.749 32.4917 198.017 30.7417 198.335C30.6151 198.357 29.5918 198.441 29.1652 198.61C28.8614 198.73 28.7349 198.943 28.7132 199.102C28.6771 199.348 28.847 199.58 29.0929 199.616C29.2592 199.641 29.4147 199.573 29.5123 199.449ZM328.905 199.479V199.489V199.472V199.483V199.479ZM328.898 199.449V199.464V199.443V199.449ZM29.5955 199.28V199.297V199.287V199.276V199.28ZM29.6027 199.254V199.276V199.262V199.254ZM328.337 197.188C321.558 195.657 315.075 195.947 308.151 195.939C305.417 195.939 302.698 195.52 299.964 195.422C299.715 195.411 299.506 195.606 299.498 195.856C299.491 196.106 299.682 196.316 299.932 196.323C302.673 196.424 305.402 196.84 308.151 196.845C315.006 196.851 321.424 196.558 328.138 198.071C328.38 198.125 328.623 197.973 328.678 197.731C328.731 197.488 328.58 197.246 328.337 197.188ZM30.4127 197.905C37.1777 196.635 43.5813 197.167 50.4331 197.405C53.1775 197.503 55.9183 197.184 58.6627 197.184C58.9121 197.184 59.1146 196.982 59.1146 196.733C59.1146 196.483 58.9121 196.28 58.6627 196.28C55.9291 196.28 53.1956 196.598 50.4621 196.501C43.5415 196.258 37.0765 195.734 30.2427 197.015C29.9969 197.061 29.8377 197.297 29.8811 197.543C29.9281 197.789 30.1631 197.948 30.409 197.905H30.4127ZM326.493 196.243C326.613 196.367 326.793 196.418 326.964 196.356C327.213 196.269 327.275 196.102 327.3 196.012C327.336 195.867 327.325 195.69 327.148 195.538C327.105 195.502 327.022 195.448 326.887 195.404C326.678 195.339 326.215 195.256 325.709 195.147C324.548 194.897 324.602 194.894 323.453 194.676C321.496 194.311 319.551 194.087 317.562 194.015C314.048 193.888 310.501 194.257 306.986 194.348C303.96 194.427 300.89 194.181 297.867 194.069C297.618 194.058 297.408 194.254 297.401 194.503C297.39 194.753 297.585 194.963 297.835 194.969C300.879 195.082 303.967 195.328 307.012 195.249C310.508 195.158 314.037 194.785 317.533 194.916C319.479 194.988 321.381 195.201 323.29 195.563C324.429 195.777 324.374 195.784 325.524 196.03C325.878 196.106 326.291 196.197 326.501 196.24L326.493 196.243ZM32.1229 196.142C32.3362 196.106 32.7484 196.03 33.1064 195.968C34.2634 195.766 34.2092 195.755 35.3554 195.585C37.279 195.296 39.1881 195.147 41.1334 195.147C44.6298 195.147 48.1444 195.646 51.6336 195.864C54.6744 196.056 57.7696 195.922 60.814 195.922C61.0635 195.922 61.266 195.719 61.266 195.469C61.266 195.219 61.0635 195.017 60.814 195.017C57.7877 195.017 54.7106 195.151 51.6914 194.963C48.1805 194.742 44.6516 194.246 41.1334 194.246C39.1447 194.246 37.1886 194.398 35.2216 194.691C34.0646 194.865 34.1188 194.872 32.9509 195.078C32.4411 195.169 31.9747 195.234 31.765 195.292C31.6311 195.328 31.5443 195.379 31.4974 195.415C31.313 195.563 31.2949 195.737 31.3274 195.885C31.3455 195.979 31.4033 196.15 31.6492 196.243C31.8192 196.309 32.0035 196.265 32.1265 196.146L32.1229 196.142ZM326.623 195.523C326.623 195.523 326.613 195.527 326.609 195.531L326.631 195.52H326.623V195.523ZM326.638 195.516H326.631L326.649 195.513H326.638V195.516ZM326.652 195.509L326.674 195.502C326.674 195.502 326.66 195.505 326.652 195.509ZM32.0325 195.422L32.0469 195.433L32.0361 195.426C32.0361 195.426 32.0253 195.419 32.0216 195.419H32.0144L32.0325 195.426V195.422ZM31.9928 195.404L32.0108 195.411H32.0035L31.9928 195.404ZM31.9891 195.404C31.9891 195.404 31.9747 195.397 31.9674 195.397L31.9891 195.404ZM325.745 193.613C323.333 193.298 320.929 192.727 318.452 192.56C311.853 192.111 303.671 192.581 297.325 192.77C297.076 192.777 296.881 192.987 296.887 193.237C296.895 193.487 297.105 193.682 297.354 193.674C303.671 193.487 311.82 193.016 318.39 193.461C320.846 193.628 323.232 194.196 325.625 194.507C325.872 194.539 326.099 194.366 326.132 194.116C326.165 193.87 325.991 193.642 325.742 193.609L325.745 193.613ZM33.0485 194.438C35.453 194.21 37.8539 193.732 40.3162 193.657C46.9078 193.45 53.5029 194.21 60.0945 194.21C60.344 194.21 60.5465 194.007 60.5465 193.758C60.5465 193.508 60.344 193.306 60.0945 193.306C53.4921 193.306 46.8897 192.549 40.2873 192.755C37.8069 192.835 35.3844 193.313 32.9618 193.54C32.7123 193.562 32.5315 193.783 32.5532 194.033C32.5749 194.282 32.7991 194.463 33.0449 194.441L33.0485 194.438Z" fill="#525252"/>
<path fill-rule="evenodd" clip-rule="evenodd" d="M306.108 192.484L54.8335 193.02L24.2261 241.701H327.69L306.108 192.484Z" fill="#525252"/>
<path fill-rule="evenodd" clip-rule="evenodd" d="M280.906 202.399C280.906 202.399 287.168 204.678 286.138 215.079C286.138 215.079 285.285 223.887 280.103 227.321C280.103 227.321 274.694 222.439 274.336 221.966C273.978 221.491 280.909 202.402 280.909 202.402L280.906 202.399Z" fill="#F6CEAE"/>
<path fill-rule="evenodd" clip-rule="evenodd" d="M181.91 165.387C181.91 165.387 149.99 179.807 156.943 191.105L159.029 194.71C159.029 194.71 150.677 199.888 161.09 215.886C161.09 215.886 166.713 224.48 185.294 226.141C185.294 226.141 258.676 231.928 270.608 226.105L237.072 188.449L216.198 159.779L208.923 148.514L191.014 150.001L181.913 165.387H181.91Z" fill="#5C6248"/>
<mask id="mask0_540_277" style="mask-type:luminance" maskUnits="userSpaceOnUse" x="155" y="148" width="116" height="81">
<path d="M181.91 165.387C181.91 165.387 149.99 179.807 156.943 191.105L159.029 194.71C159.029 194.71 150.677 199.888 161.09 215.886C161.09 215.886 166.713 224.48 185.294 226.141C185.294 226.141 258.676 231.928 270.608 226.105L237.072 188.449L216.198 159.779L208.923 148.514L191.014 150.001L181.913 165.387H181.91Z" fill="white"/>
</mask>
<g mask="url(#mask0_540_277)">
<path fill-rule="evenodd" clip-rule="evenodd" d="M245.666 218.603L181.1 215.227C181.1 215.227 201.392 220.865 222.467 221.766C222.467 221.766 244.719 223.398 254.069 228.804C254.069 228.804 268.988 230.194 270.206 230.505C271.425 230.816 272.333 218.158 272.333 218.158L245.663 218.603H245.666ZM156.18 199.03C156.18 199.03 160.103 210.498 176.381 197.105C176.381 197.105 184.838 190.472 191.604 188.029C191.604 188.029 203.857 182.366 209.014 177.398L201.507 145.676C201.507 145.676 155.876 164.779 155.037 165.427C154.199 166.071 148.814 183.632 148.814 183.632L156.177 199.03H156.18Z" fill="#454A34"/>
</g>
<path fill-rule="evenodd" clip-rule="evenodd" d="M176.935 155.454C176.935 155.454 173.485 155.595 170.552 155.588C170.552 155.588 168.297 155.48 165.092 156.949L157.514 160.129C157.514 160.129 151.157 162.839 152.578 164.935C152.578 164.935 153.432 166.498 157.489 164.403C157.489 164.403 162.728 162.145 165.555 161.736C165.555 161.736 160.258 165.858 164.485 170.059C164.485 170.059 165.367 171.394 167.371 170.815C167.371 170.815 173.901 172.176 173.741 169.118C173.741 169.118 173.716 168.322 172.65 168.054C172.65 168.054 174.118 167.103 176.823 166.73C176.823 166.73 179.451 166.52 181.913 165.416L184.336 158.751L176.93 155.457L176.935 155.454Z" fill="#F6CEAE"/>
<mask id="mask1_540_277" style="mask-type:luminance" maskUnits="userSpaceOnUse" x="152" y="155" width="33" height="17">
<path d="M176.935 155.454C176.935 155.454 173.485 155.595 170.552 155.588C170.552 155.588 168.297 155.48 165.092 156.949L157.514 160.129C157.514 160.129 151.157 162.839 152.578 164.935C152.578 164.935 153.432 166.498 157.489 164.403C157.489 164.403 162.728 162.145 165.555 161.736C165.555 161.736 160.258 165.858 164.485 170.059C164.485 170.059 165.367 171.394 167.371 170.815C167.371 170.815 173.901 172.176 173.741 169.118C173.741 169.118 173.716 168.322 172.65 168.054C172.65 168.054 174.118 167.103 176.823 166.73C176.823 166.73 179.451 166.52 181.913 165.416L184.336 158.751L176.93 155.457L176.935 155.454Z" fill="white"/>
</mask>
<g mask="url(#mask1_540_277)">
<path fill-rule="evenodd" clip-rule="evenodd" d="M169.692 155.512C169.692 155.512 176.833 155.902 180.684 166.418L185.948 164.91L178.565 151.321L168.944 154.292L169.696 155.515L169.692 155.512ZM170.394 162.365C170.394 162.365 166.785 164.088 166.568 166.14C166.568 166.14 169.942 164.048 170.795 162.962C170.795 162.962 170.733 162.713 170.394 162.365Z" fill="#E2BEA0"/>
<path fill-rule="evenodd" clip-rule="evenodd" d="M167.475 171.572C167.475 171.572 171.406 169.531 173.785 168.304C173.962 168.214 174.034 167.993 173.94 167.815C173.85 167.638 173.629 167.569 173.453 167.66C171.07 168.886 167.139 170.927 167.139 170.927C166.962 171.018 166.894 171.239 166.984 171.416C167.078 171.593 167.295 171.662 167.472 171.572H167.475ZM167.551 164.501C167.551 164.501 165.121 166.4 164.113 168.163C163.61 169.042 163.473 169.896 163.932 170.53C164.048 170.692 164.275 170.728 164.438 170.609C164.601 170.493 164.637 170.266 164.517 170.103C164.381 169.914 164.352 169.693 164.384 169.455C164.424 169.162 164.557 168.843 164.742 168.521C165.696 166.857 168 165.069 168 165.069C168.159 164.946 168.185 164.718 168.061 164.563C167.938 164.406 167.711 164.378 167.555 164.501H167.551ZM164.037 162.782C164.037 162.782 165.791 162.3 167.472 162.282C168.011 162.276 168.542 162.315 169.005 162.442C169.41 162.554 169.758 162.727 169.977 163.017C170.097 163.177 170.325 163.206 170.484 163.086C170.643 162.966 170.676 162.738 170.552 162.58C170.104 161.989 169.29 161.689 168.355 161.595C166.373 161.396 163.849 162.087 163.849 162.087C163.657 162.141 163.542 162.34 163.596 162.532C163.65 162.724 163.849 162.839 164.04 162.785L164.037 162.782Z" fill="#E2BEA0"/>
</g>
<path fill-rule="evenodd" clip-rule="evenodd" d="M179.433 172.719C179.433 172.719 164.572 177.39 157.416 189.622C157.416 189.622 154.455 192.459 156.346 194.5C156.346 194.5 157.876 195.849 159.691 194.311C159.691 194.311 158.914 195.513 160.204 196.757C160.204 196.757 161.932 197.85 165.433 195.1L178.283 185.446L169.407 195.712C169.407 195.712 167.83 197.286 169.186 198.65C169.186 198.65 170.733 199.899 174.508 196.182C174.508 196.182 184.473 187.36 187.264 186.198L187.073 177.441L179.429 172.723L179.433 172.719Z" fill="#F6CEAE"/>
<mask id="mask2_540_277" style="mask-type:luminance" maskUnits="userSpaceOnUse" x="155" y="172" width="33" height="27">
<path d="M179.433 172.719C179.433 172.719 164.572 177.39 157.416 189.622C157.416 189.622 154.455 192.459 156.346 194.5C156.346 194.5 157.876 195.849 159.691 194.311C159.691 194.311 158.914 195.513 160.204 196.757C160.204 196.757 161.932 197.85 165.433 195.1L178.283 185.446L169.407 195.712C169.407 195.712 167.83 197.286 169.186 198.65C169.186 198.65 170.733 199.899 174.508 196.182C174.508 196.182 184.473 187.36 187.264 186.198L187.073 177.441L179.429 172.723L179.433 172.719Z" fill="white"/>
</mask>
<g mask="url(#mask2_540_277)">
<path fill-rule="evenodd" clip-rule="evenodd" d="M175.803 180.803C175.803 180.803 168.13 185.174 162.681 189.796C160.284 191.829 158.32 193.924 157.557 195.719C157.442 195.994 157.568 196.312 157.847 196.432C158.121 196.547 158.44 196.421 158.559 196.142C159.271 194.46 161.141 192.528 163.383 190.624C168.763 186.061 176.341 181.747 176.341 181.747C176.602 181.599 176.692 181.266 176.544 181.009C176.395 180.748 176.063 180.658 175.803 180.807V180.803ZM173.922 177.318C173.922 177.318 160.233 185.106 155.518 189.893C155.308 190.106 155.312 190.45 155.525 190.66C155.739 190.87 156.082 190.867 156.292 190.653C160.945 185.927 174.457 178.259 174.457 178.259C174.718 178.11 174.808 177.777 174.66 177.521C174.512 177.26 174.183 177.169 173.922 177.318Z" fill="#E2BEA0"/>
<path fill-rule="evenodd" clip-rule="evenodd" d="M175.362 174.217C175.362 174.217 177.592 175.252 180.923 180.684C180.923 180.684 183.49 185.182 187.019 186.271C190.548 187.36 187.641 186.115 187.641 186.115C187.641 186.115 186.079 175.321 185.941 175.017C185.807 174.713 179.325 169.422 179.325 169.422L174.992 173.62L175.358 174.217H175.362Z" fill="#E2BEA0"/>
</g>
<path fill-rule="evenodd" clip-rule="evenodd" d="M222.804 83.5403C222.804 83.5403 218.317 85.4333 220.121 90.1519C220.121 90.1519 217.272 92.8152 215.977 102.878C215.977 102.878 214.336 108.625 211.429 120.353C211.429 120.353 210.109 125.112 206.667 129.653C206.667 129.653 200.256 138.826 176.93 155.457C176.93 155.457 179.448 162.858 181.921 165.42L196.886 157.253L178.934 171.641C178.934 171.641 180.995 180.807 186.939 187.255C186.939 187.255 202.252 180.695 207.531 177.539C207.531 177.539 210.608 185.663 221.987 195.651C221.987 195.651 229.154 203.228 236.7 210.791C236.7 210.791 248.461 223.058 254.416 225.212C254.416 225.212 264.382 229.607 280.132 227.448C280.132 227.448 285.769 153.807 275.012 111.661C275.012 111.661 269.827 92.1817 253.245 72.109L250.497 65.5483L248.559 67.1694L222.808 83.5475L222.804 83.5403Z" fill="#8F9B87"/>
<mask id="mask3_540_277" style="mask-type:luminance" maskUnits="userSpaceOnUse" x="176" y="65" width="106" height="164">
<path d="M222.804 83.5403C222.804 83.5403 218.317 85.4333 220.121 90.1519C220.121 90.1519 217.272 92.8152 215.977 102.878C215.977 102.878 214.336 108.625 211.429 120.353C211.429 120.353 210.109 125.112 206.667 129.653C206.667 129.653 200.256 138.826 176.93 155.457C176.93 155.457 179.448 162.858 181.921 165.42L196.886 157.253L178.934 171.641C178.934 171.641 180.995 180.807 186.939 187.255C186.939 187.255 202.252 180.695 207.531 177.539C207.531 177.539 210.608 185.663 221.987 195.651C221.987 195.651 229.154 203.228 236.7 210.791C236.7 210.791 248.461 223.058 254.416 225.212C254.416 225.212 264.382 229.607 280.132 227.448C280.132 227.448 285.769 153.807 275.012 111.661C275.012 111.661 269.827 92.1817 253.245 72.109L250.497 65.5483L248.559 67.1694L222.808 83.5475L222.804 83.5403Z" fill="white"/>
</mask>
<g mask="url(#mask3_540_277)">
<path fill-rule="evenodd" clip-rule="evenodd" d="M268.388 102.43C268.388 102.43 253.734 137.99 253.357 138.899C253.17 139.312 248.245 149.846 233.445 161.671C233.015 161.994 221.322 170.7 203.099 179.902C202.563 180.173 202.35 180.825 202.617 181.361C202.889 181.896 203.539 182.11 204.074 181.841C222.844 172.361 234.762 163.397 234.762 163.397C234.768 163.39 234.779 163.386 234.787 163.379C250.407 150.902 255.346 139.775 255.346 139.775C255.35 139.764 255.353 139.757 255.357 139.746L270.395 103.259C270.622 102.705 270.358 102.068 269.805 101.84C269.253 101.612 268.616 101.876 268.388 102.43ZM235.835 90.9732L225.024 131.101L226.073 132.468L225.017 131.151C225.017 131.151 224.684 131.842 223.69 132.928C221.9 134.879 218.064 138.298 209.86 143.991C209.368 144.33 209.245 145.007 209.585 145.5C209.925 145.991 210.601 146.115 211.096 145.774C220.479 139.264 224.294 135.62 225.853 133.753C226.904 132.497 227.11 131.817 227.15 131.567L237.936 91.538C238.092 90.9588 237.748 90.3618 237.169 90.2063C236.591 90.0509 235.995 90.394 235.839 90.9732H235.835Z" fill="#747F6C"/>
<path fill-rule="evenodd" clip-rule="evenodd" d="M215.76 102.991C215.836 102.936 212.347 144.823 212.347 144.823L196.865 157.256L176.059 169.936C176.059 169.936 171.811 146.809 170.809 147.309C169.807 147.808 206.334 105.238 206.334 105.238C206.334 105.238 215.681 103.042 215.757 102.987L215.76 102.991Z" fill="#747F6C"/>
</g>
<mask id="mask4_540_277" style="mask-type:luminance" maskUnits="userSpaceOnUse" x="176" y="102" width="40" height="68">
<mask id="mask5_540_277" style="mask-type:luminance" maskUnits="userSpaceOnUse" x="170" y="102" width="46" height="68">
<path d="M215.76 102.991C215.836 102.936 212.347 144.823 212.347 144.823L196.865 157.256L176.059 169.936C176.059 169.936 171.811 146.809 170.809 147.309C169.807 147.808 206.334 105.238 206.334 105.238C206.334 105.238 215.681 103.042 215.757 102.987L215.76 102.991Z" fill="white"/>
</mask>
<g mask="url(#mask5_540_277)">
<path d="M222.804 83.5403C222.804 83.5403 218.317 85.4333 220.121 90.1519C220.121 90.1519 217.272 92.8152 215.977 102.878C215.977 102.878 214.336 108.625 211.429 120.353C211.429 120.353 210.109 125.112 206.667 129.653C206.667 129.653 200.256 138.826 176.93 155.457C176.93 155.457 179.448 162.858 181.921 165.42L196.886 157.253L178.934 171.641C178.934 171.641 180.995 180.807 186.939 187.255C186.939 187.255 202.252 180.695 207.531 177.539C207.531 177.539 210.608 185.663 221.987 195.651C221.987 195.651 229.154 203.228 236.7 210.791C236.7 210.791 248.461 223.058 254.416 225.212C254.416 225.212 264.382 229.607 280.132 227.448C280.132 227.448 285.769 153.807 275.012 111.661C275.012 111.661 269.827 92.1817 253.245 72.109L250.497 65.5483L248.559 67.1694L222.808 83.5475L222.804 83.5403Z" fill="white"/>
</g>
</mask>
<g mask="url(#mask4_540_277)">
<path fill-rule="evenodd" clip-rule="evenodd" d="M184.647 149.411C184.647 149.411 188.342 158.697 190.262 161.197L180.377 168.036L173.618 153.775L183.511 147.554L184.647 149.407V149.411Z" fill="#E0C389"/>
</g>
<mask id="mask6_540_277" style="mask-type:luminance" maskUnits="userSpaceOnUse" x="176" y="65" width="106" height="164">
<path d="M222.804 83.5403C222.804 83.5403 218.317 85.4333 220.121 90.1519C220.121 90.1519 217.272 92.8152 215.977 102.878C215.977 102.878 214.336 108.625 211.429 120.353C211.429 120.353 210.109 125.112 206.667 129.653C206.667 129.653 200.256 138.826 176.93 155.457C176.93 155.457 179.448 162.858 181.921 165.42L196.886 157.253L178.934 171.641C178.934 171.641 180.995 180.807 186.939 187.255C186.939 187.255 202.252 180.695 207.531 177.539C207.531 177.539 210.608 185.663 221.987 195.651C221.987 195.651 229.154 203.228 236.7 210.791C236.7 210.791 248.461 223.058 254.416 225.212C254.416 225.212 264.382 229.607 280.132 227.448C280.132 227.448 285.769 153.807 275.012 111.661C275.012 111.661 269.827 92.1817 253.245 72.109L250.497 65.5483L248.559 67.1694L222.808 83.5475L222.804 83.5403Z" fill="white"/>
</mask>
<g mask="url(#mask6_540_277)">
<path fill-rule="evenodd" clip-rule="evenodd" d="M176.815 170.75C177.509 170.493 186.769 165.112 186.769 165.112C186.769 165.112 192.547 178.154 196.607 183.766C200.668 189.379 185.167 193.056 185.167 193.056C185.167 193.056 177.465 171.329 176.811 170.75H176.815ZM176.815 170.75C176.815 170.75 176.789 170.736 176.783 170.743C176.764 170.761 176.775 170.765 176.815 170.75ZM220.121 90.1441C220.121 90.1441 220.652 91.9463 230.437 87.0978C230.437 87.0978 249.561 76.7625 254.203 71.2114C254.203 71.2114 257.306 63.4675 257.161 62.733C257.016 61.9983 246.639 57.9165 246.639 57.9165L216.425 85.1648L220.125 90.1441H220.121Z" fill="#E0C389"/>
</g>
<path fill-rule="evenodd" clip-rule="evenodd" d="M188.555 40.0188C188.555 40.0188 193.603 70.2673 203.647 80.8373C203.647 80.8373 207.032 84.8794 212.903 83.7359C215.352 83.2619 217.843 81.7203 220.494 79.1076C220.494 79.1076 220.617 79.086 222.804 83.5369C229.601 81.3548 242.391 73.0826 248.606 67.1407L243.609 54.7793L235.039 35.1625L211.082 21.3862L190.276 35.9261L188.555 40.0116V40.0188Z" fill="#F6CEAE"/>
<path fill-rule="evenodd" clip-rule="evenodd" d="M209.136 33.1C209.136 33.1 210.825 39.9176 216.693 39.5774C216.693 39.5774 225.379 38.5895 226.344 44.7774C226.344 44.7774 227.551 37.1456 231.608 40.6268C231.608 40.6268 236.442 44.307 234.009 55.0509C234.009 55.0509 236.077 59.8238 241.4 58.1339C241.4 58.1339 244.007 57.1786 244.364 55.0509C244.364 55.0509 244.835 51.7398 243.999 44.5278C243.999 44.5278 242.38 33.3497 241.093 28.2365L227.396 23.7349L211.342 30.538L209.14 33.1072L209.136 33.1Z" fill="#7E4210"/>
<path fill-rule="evenodd" clip-rule="evenodd" d="M182.647 11.681C182.647 11.681 202.704 -1.62487 232.588 0.166375C232.588 0.166375 237.965 11.786 241.208 28.4788C241.208 28.4788 218.216 29.0615 188.121 40.3625C188.121 40.3625 183.725 25.7504 182.647 11.681Z" fill="#5C6248"/>
<mask id="mask7_540_277" style="mask-type:luminance" maskUnits="userSpaceOnUse" x="182" y="0" width="60" height="41">
<path d="M182.647 11.681C182.647 11.681 202.704 -1.62487 232.588 0.166375C232.588 0.166375 237.965 11.786 241.208 28.4788C241.208 28.4788 218.216 29.0615 188.121 40.3625C188.121 40.3625 183.725 25.7504 182.647 11.681Z" fill="white"/>
</mask>
<g mask="url(#mask7_540_277)">
<path fill-rule="evenodd" clip-rule="evenodd" d="M185.93 9.60035C185.93 9.60035 187.58 26.21 190.71 29.0435C190.71 29.0435 192.258 30.7768 199.128 30.1146C199.128 30.1146 218.559 26.5321 242.962 26.7384L249.322 37.75L203.781 61.72C203.781 61.72 171.428 51.6891 170.517 50.6324C169.605 49.5794 170.075 21.1005 170.075 21.1005L176.266 6.53174L185.927 9.604L185.93 9.60035Z" fill="#454A34"/>
</g>
</g>
<defs>
<filter id="filter0_d_540_277" x="0.396484" y="0.000488281" width="356.204" height="250.041" filterUnits="userSpaceOnUse" color-interpolation-filters="sRGB">
<feFlood flood-opacity="0" result="BackgroundImageFix"/>
<feColorMatrix in="SourceAlpha" type="matrix" values="0 0 0 0 0 0 0 0 0 0 0 0 0 0 0 0 0 0 127 0" result="hardAlpha"/>
<feOffset dy="4"/>
<feGaussianBlur stdDeviation="2"/>
<feComposite in2="hardAlpha" operator="out"/>
<feColorMatrix type="matrix" values="0 0 0 0 0 0 0 0 0 0 0 0 0 0 0 0 0 0 0.25 0"/>
<feBlend mode="normal" in2="BackgroundImageFix" result="effect1_dropShadow_540_277"/>
<feBlend mode="normal" in="SourceGraphic" in2="effect1_dropShadow_540_277" result="shape"/>
</filter>
</defs>
</svg>
