<svg width="30" height="30" viewBox="0 0 30 30" fill="none" xmlns="http://www.w3.org/2000/svg">
<mask id="mask0_1062_82" style="mask-type:luminance" maskUnits="userSpaceOnUse" x="0" y="0" width="30" height="30">
<path d="M0 0H30V30H0V0Z" fill="white"/>
</mask>
<g mask="url(#mask0_1062_82)">
<path d="M23.4543 4.46533L4.17926 11.101C2.63333 11.633 2.4613 13.7499 3.90036 14.5247L11.1257 18.4153C11.4487 18.5894 11.7135 18.8544 11.8874 19.1775L15.778 26.4024C16.5529 27.8414 18.6697 27.6694 19.2018 26.1239L25.8374 6.84892C26.346 5.37142 24.9313 3.95673 23.4543 4.46533Z" fill="#5C6248"/>
<path fill-rule="evenodd" clip-rule="evenodd" d="M25.247 6.64501C25.5859 5.66063 24.6423 4.71704 23.6579 5.05594L4.38292 11.692C3.35214 12.0464 3.2373 13.4578 4.19683 13.9744L11.4221 17.865C11.8528 18.0969 12.206 18.4501 12.4379 18.8808L16.3285 26.1061C16.8451 27.0656 18.2565 26.9508 18.6114 25.9205L25.247 6.64501ZM23.251 3.87423C25.2203 3.19594 27.1065 5.08219 26.4292 7.05188L19.7931 26.3269C19.0834 28.3875 16.261 28.6172 15.2279 26.6986L11.3373 19.4733C11.2212 19.258 11.0446 19.0815 10.8292 18.9656L3.6048 15.075C1.68574 14.0419 1.91542 11.2195 3.97605 10.5099L23.251 3.87423Z" fill="#5C6248"/>
<path fill-rule="evenodd" clip-rule="evenodd" d="M18.6918 11.611C18.9356 11.8547 18.9356 12.2508 18.6918 12.495L15.1565 16.0303C15.0393 16.1476 14.8803 16.2134 14.7145 16.2134C14.5487 16.2134 14.3897 16.1476 14.2725 16.0303C14.1552 15.9131 14.0894 15.7541 14.0894 15.5883C14.0894 15.4225 14.1552 15.2635 14.2725 15.1463L17.8078 11.611C18.052 11.3672 18.4476 11.3672 18.6918 11.611Z" fill="#212121"/>
</g>
</svg>
