<svg width="30" height="30" viewBox="0 0 30 30" fill="none" xmlns="http://www.w3.org/2000/svg">
<path d="M23.4543 4.46533L4.17926 11.101C2.63333 11.633 2.4613 13.7499 3.90036 14.5247L11.1257 18.4153C11.4487 18.5894 11.7135 18.8544 11.8874 19.1775L15.778 26.4024C16.5529 27.8414 18.6697 27.6694 19.2018 26.1239L25.8374 6.84892C26.346 5.37142 24.9313 3.95673 23.4543 4.46533Z" fill="currentColor"/>
<path d="M18.6918 11.611C18.9356 11.8547 18.9356 12.2508 18.6918 12.495L15.1565 16.0303C15.0393 16.1476 14.8803 16.2134 14.7145 16.2134C14.5487 16.2134 14.3897 16.1476 14.2725 16.0303C14.1552 15.9131 14.0894 15.7541 14.0894 15.5883C14.0894 15.4225 14.1552 15.2635 14.2725 15.1463L17.8078 11.611C18.052 11.3672 18.4476 11.3672 18.6918 11.611Z" fill="currentColor" fill-opacity="0.4"/>
</svg>
