<svg width="356" height="301" viewBox="0 0 356 301" fill="none" xmlns="http://www.w3.org/2000/svg">
<path d="M4.17003e-10 10C4.17003e-10 4.47716 4.47715 3.34172e-08 10 3.34172e-08H346C351.523 3.34172e-08 356 4.47715 356 10V291C356 296.523 351.523 301 346 301H10C4.47715 301 4.17003e-10 296.523 4.17003e-10 291V10Z" fill="#8F9B87"/>
<path d="M315.511 229.173C315.511 229.173 317.788 226.401 319.156 226.308C320.523 226.214 320.796 226.493 320.431 227.325C320.066 228.156 317.971 230.652 317.333 230.375C316.696 230.099 315.511 229.173 315.511 229.173Z" fill="#6EB8D8"/>
<path d="M303.757 245.163C303.757 245.163 306.946 244.471 308.404 244.725C309.861 244.978 306.081 247.104 306.081 247.104C306.081 247.104 304.761 247.565 303.759 247.104C302.756 246.642 303.759 245.163 303.759 245.163H303.757Z" fill="#6EB8D8"/>
<path d="M337.74 256.347C337.74 256.347 340.565 253.384 342.387 253.617C344.21 253.85 345.667 255.33 345.302 256.347C344.937 257.364 342.535 260.877 341.549 260.23C340.563 259.583 339.288 261.338 337.74 259.307C336.192 257.275 337.74 256.349 337.74 256.349V256.347Z" fill="#6EB8D8"/>
<path d="M295.26 251.123C295.26 251.123 321.433 247.935 325.806 248.861C330.178 249.786 335.252 255.859 335.252 255.859C335.252 255.859 316.362 251.88 308.738 254.715C301.114 257.549 289.434 259.891 286.616 257.647C286.616 257.647 283.077 257.364 281.437 255.979C279.798 254.594 295.26 251.126 295.26 251.126V251.123Z" fill="#6EB8D8"/>
<path d="M238.824 245.646C237.82 243.362 242.752 236.577 244.445 236.901C245.646 237.132 245.259 237.739 244.781 238.567C243.475 240.823 240.86 243.953 238.824 245.646Z" fill="#6EB8D8"/>
<path d="M286.527 225.684C284.225 224.792 282.983 216.452 284.408 215.469C285.418 214.77 285.568 215.477 285.806 216.407C286.456 218.94 286.788 223.028 286.527 225.686V225.684Z" fill="#6EB8D8"/>
<path d="M274.298 232.126C273.418 234.462 265.198 235.722 264.228 234.277C263.54 233.251 264.237 233.1 265.153 232.858C267.65 232.199 271.68 231.862 274.3 232.126H274.298Z" fill="#6EB8D8"/>
<path d="M350.495 259.12C350.495 259.12 350.81 259.24 351.227 259.5C351.905 259.924 352.854 260.725 353.135 261.985C353.59 264.019 354.137 264.572 354.592 264.111C355.048 263.649 356.232 262.322 355.96 261.692C355.687 261.062 354.685 258.335 354.23 258.543C353.775 258.751 351.04 257.92 350.495 257.92C349.949 257.92 350.495 259.122 350.495 259.122V259.12Z" fill="#6EB8D8"/>
<path d="M328.538 244.725C328.538 244.725 330.633 246.486 334.278 244.668C337.923 242.851 330.268 242.389 330.268 242.389C330.268 242.389 328.372 242.903 327.772 243.938C327.171 244.974 328.538 244.722 328.538 244.722V244.725Z" fill="#6EB8D8"/>
<path d="M341.204 265.498C341.204 265.498 342.113 267.623 342.113 268.917C342.113 270.21 344.845 268.917 344.845 268.917C344.845 268.917 344.48 266.144 343.57 265.498C342.66 264.851 341.204 264.942 341.204 264.942V265.498Z" fill="#6EB8D8"/>
<path d="M333.733 275.016C333.733 275.016 335.282 276.124 334.825 279.084C334.368 282.043 337.051 276.218 337.051 276.218C337.051 276.218 335.28 273.631 334.278 273.999C333.276 274.367 333.731 275.016 333.731 275.016H333.733Z" fill="#6EB8D8"/>
<path d="M339.563 287.679C339.563 287.679 342.57 289.157 342.66 291.191C342.75 293.225 339.015 292.946 339.015 292.946C339.015 292.946 338.398 290.912 338.206 288.232C338.013 285.551 339.56 287.677 339.56 287.677L339.563 287.679Z" fill="#6EB8D8"/>
<path d="M321.433 292.485C321.433 292.485 320.158 295.35 320.978 296.274C321.798 297.197 323.165 295.35 323.165 295.35C323.165 295.35 322.436 292.485 321.935 292.485H321.433Z" fill="#6EB8D8"/>
<path d="M294.516 295.327C294.055 296.783 295.512 297.939 295.512 297.939C295.512 297.939 296.97 296.415 296.605 296.045C296.24 295.675 294.516 295.329 294.516 295.329V295.327Z" fill="#6EB8D8"/>
<path d="M261.484 297.476C261.484 297.476 259.479 299.51 260.573 300.341C261.668 301.173 263.124 301.265 263.306 300.341C263.488 299.418 263.853 297.846 263.306 297.476C262.759 297.105 261.484 297.476 261.484 297.476Z" fill="#6EB8D8"/>
<path d="M173.981 118.154C175.283 121.304 176.986 124.201 178.077 127.452C179.463 129.766 183.563 130.159 184.553 127.568L185.744 128.088V124.723C184.618 124.596 185.18 126.241 184.014 126.655C183.009 127.013 181.545 126.641 180.443 126.732C181.41 124.582 179.114 122.968 178.423 121.049C173.506 107.384 178.124 89.0166 174.192 72.9164C172.421 65.6586 171.493 65.6066 163.865 64.8309C162.678 74.2743 165.911 83.2998 167.04 92.2296C167.167 93.2403 167.67 94.0139 166.192 93.7602C161.967 85.1007 160.845 75.0812 160.495 65.5546C136.115 64.2611 111.601 73.1347 90.6976 85.1486C65.2132 99.7973 53.0347 117.231 39.4643 142.855C23.1983 173.569 14.3755 202.178 10.6467 236.762C8.51684 256.518 7.10241 276.434 6.65553 296.307C6.65553 296.307 8.02487 298.802 15.7674 298.802C23.5099 298.802 152.517 298.753 152.517 298.753L100.398 286.918L35.9651 293.37C35.4916 293.05 35.3522 292.682 35.8503 292.275L100.398 286.918L100.845 286.88C99.4999 285.191 97.8026 283.48 95.5764 283.143C90.136 282.315 86.8664 282.671 81.0938 280.348C76.0613 278.323 72.7097 274.143 67.3922 273.398C62.0768 272.654 57.1878 273.331 52.1245 273.456C40.8172 273.735 29.7088 274.332 18.6065 276.792C18.2314 274.989 19.0739 275.634 19.9123 275.122C21.3288 274.259 23.1265 273.107 24.541 272.389C26.6339 271.329 37.4123 266.228 38.8452 266.03C40.1449 265.851 39.8866 266.275 39.8251 267.363L33.1977 271.404H69.0117C67.8637 269.337 66.6256 267.109 65.8425 264.868C65.2685 263.229 65.0922 258.92 64.0119 258.629L51.1549 263.075L49.7774 261.661L64.2784 254.833L64.9939 236.722C65.4756 232.707 69.2085 223.005 67.8945 219.742C67.3512 218.395 65.7031 218.405 65.7687 214.62C68.2491 201.968 69.5569 189.068 71.8569 176.393C74.1549 163.737 79.6056 148.566 78.9537 135.828C78.6954 130.798 76.7767 124.156 77.0985 119.181C77.1313 118.692 77.4655 117.114 78.2895 117.322L80.9565 133.466C81.1 133.678 81.7457 133.123 81.9527 132.8C84.7427 128.452 87.2661 114.515 89.726 108.388C90.3799 106.76 93.4548 99.7078 94.5576 99.1547C95.9474 98.8677 95.6399 99.8305 95.5477 100.829C95.4452 101.933 90.2692 119.959 92.559 120.015C98.7128 110.649 105.281 103.946 115.932 99.9823C119.191 98.7699 126.903 95.6089 129.369 98.4684C114.866 101.879 104.104 108.255 96.7551 121.575C91.2019 131.64 86.809 144.586 83.4266 155.83C79.2653 169.663 76.3237 183.846 73.6567 198.06C80.5465 195.028 88.2972 193.749 95.847 193.327C103.327 192.907 127.01 192.369 133.012 194.706C134.037 195.105 134.926 195.28 134.674 196.715C126.655 195.883 118.525 195.866 110.44 196.018C108.872 196.047 107.421 196.69 105.851 196.746C94.7851 197.143 83.5353 195.925 73.1463 200.916L71.6622 210.176C91.2737 208.864 111.508 204.397 130.843 210.365C135.664 211.852 143.434 214.08 143.306 220.266C149.423 215.371 148.13 205.609 147.173 198.51L139.986 195.365C140.117 191.963 143.878 193.824 145.939 194.39C146.859 194.644 146.609 195.093 146.638 193.683C146.896 180.384 143.173 161.158 141.976 147.258C141.382 140.354 141.507 132.395 140.705 125.68C140.551 124.399 139.377 124.771 139.395 124.428C139.541 121.966 140.094 119.793 140.01 116.952C139.932 114.392 137.477 108.419 141.306 107.899L147.949 163.073C149.259 162.801 149.081 161.697 149.263 160.713C151.475 148.801 152.783 134.799 155.532 123.334C155.768 122.346 156.04 121.34 156.897 120.695C157.535 121.161 157.762 121.573 157.896 122.359C158.638 126.741 157.666 138.384 157.137 143.134C155.725 155.774 151.988 168.834 151.266 181.586C150.165 200.995 159.365 214.312 140.865 228.231L130.7 234.395C136.64 235.181 142.847 235.212 148.325 237.727L148.614 236.425L150.085 237.974L169.828 243.818C166.876 235.366 167.434 226.222 169.162 217.58L154.183 232.964C153.439 233.461 150.725 234.62 151.268 232.731C151.768 230.995 162.192 219.459 164.14 216.852C170.775 207.97 183.845 188.879 185.016 178.144C186.35 165.916 183.132 151.952 183.753 139.526L179.772 150.96C177.71 150.205 178.801 145.856 179.155 144.001C179.887 140.185 181.398 136.521 182.433 132.798C180.775 133.27 179.266 133.364 177.642 132.613C172.76 130.353 168.582 112.685 168.508 107.228C170.324 105.117 173.62 117.283 173.981 118.154ZM155.575 111.934C155.12 111.813 150.596 106.04 149.227 104.913C144.219 100.789 140.545 101.426 135.623 99.1983C134.623 98.745 133.766 98.4975 134.016 97.1333C139.861 96.7735 146.103 98.2875 150.602 102.17C151.381 102.844 154.558 106.094 155.016 106.768C155.708 107.789 155.565 109.694 156.906 110.601C157.453 111.304 156.188 112.096 155.575 111.934ZM165.878 156.71C165.843 158.301 165.21 159.771 165.161 161.364C164.871 170.917 165.275 180.504 163.857 189.994C162.922 191.173 162.682 189.879 162.551 188.975C161.473 181.55 162.477 176.435 162.561 169.495C162.692 158.904 162.164 147.678 163.209 137.18C163.369 135.571 163.623 132.218 165.181 131.449C166.173 139.603 166.067 148.418 165.878 156.71Z" fill="#60615A"/>
<path d="M230.85 58.1054L230.182 62.8178L224.885 62.1336C226.197 60.0915 228.22 57.9204 230.85 58.1054Z" fill="#F6CEAE"/>
<path d="M326.708 266.053C309.667 273.304 291.712 278.566 273.307 280.826C272.969 278.924 273.754 279.722 274.763 279.314C278.297 277.882 300.313 272.502 301.162 271.402C298.062 266.656 302.242 266.184 303.47 270.72L322.645 263.41C323.538 262.686 322.735 260.55 323.364 259.28C323.936 258.119 325.687 258.46 325.701 257.287C315.07 256.865 305.573 262.372 294.891 262.688C283.188 263.033 278.857 260.596 269.261 255.661C267.818 254.921 265.378 255.264 264.686 253.925C273.748 253.045 282.151 251.51 290.545 247.85C290.022 246.517 287.362 246.808 286.533 245.373C285.939 244.34 286.13 241.875 285.541 241.774C277.112 243.425 266.678 242.348 258.575 244.693C250.881 246.921 246.851 255.447 237.744 256.532C222.804 258.313 206.351 258.866 191.596 255.724C172.255 251.604 154.085 241.761 134.555 237.552C132.491 237.107 127.342 235.705 125.669 235.805C123.814 235.913 123.113 239.12 120.751 238.436C121.208 236.529 122.492 235.171 123.24 233.228C124.87 229.003 128.186 218.428 125.439 214.672C122.973 211.299 107.892 211.314 103.803 211.49C93.5593 211.933 83.0822 213.828 72.9762 215.209C72.2526 215.783 70.7008 226.798 70.4322 228.778C67.2631 252.122 64.6167 276.744 94.5473 280.159C97.983 280.55 101.986 279.874 105.492 280.159L102.843 282.168C116.047 284.622 129.506 290.328 142.603 292.641C164.759 296.552 188.372 289.561 210.597 288.205C221.111 287.564 231.569 286.895 241.798 286.273C262.058 285.038 275.935 289.471 295.998 282.656C298.255 281.889 302.904 280.423 304.731 279.346C306.112 278.53 304.913 277.615 306.133 276.809L309.128 277.859C311.282 276.197 327.503 269.582 327.724 268.343C327.915 267.272 327.53 266.66 326.708 266.053ZM81.6083 247.509C80.3025 249.765 77.6869 252.895 75.6513 254.588C74.6448 252.305 79.5789 245.519 81.2721 245.843C82.4734 246.074 82.086 246.681 81.6083 247.509Z" fill="#F6CEAE"/>
<path d="M261.709 76.2583C254.899 72.0387 255.68 66.6276 245.777 65.5047C242.651 65.149 239.027 65.7605 235.829 65.5047L235.118 64.1321C237.899 61.1063 236.214 58.5151 236.221 55.6744C236.225 54.3227 236.893 53.1373 236.852 51.7398C236.643 44.9041 230.712 39.624 224.649 44.7419C218.751 49.7205 219.866 59.1848 217.605 65.9331C218.764 71.4253 224.302 71.1549 228.863 70.895C229.94 71.6956 221.478 74.9211 217.243 70.9012C213.909 67.7361 214.963 63.6933 216.183 59.8357L213.165 58.3009C200.71 61.6137 189.085 67.5531 175.804 66.8543C176.765 71.7019 178.366 76.4849 179.028 81.4073C180.301 90.882 179.211 100.708 181.291 110.064C181.646 111.659 183.671 117.549 184.594 118.485C186.283 120.198 191.299 116.941 194.038 116.64C195.645 116.463 203.289 116.956 203.631 116.615L208.301 102.513V112.942C208.301 115.296 210.789 123.051 212.026 125.314C217.718 135.729 225.444 128.785 233.5 126.393C236.739 125.432 244.063 123.407 247.138 123.355C251.861 123.272 256.168 129.063 259.94 123.611L268.673 105.882L269.999 106.225L269.327 109.239C283.288 106.799 292.765 91.065 294.526 77.6204C284.559 81.0684 271.018 82.0271 261.709 76.2583ZM231.514 69.537C229.073 70.0652 230.817 67.1288 229.866 65.4963C228.033 62.352 222.859 66.1764 222.234 65.5005C221.113 58.9685 227.172 57.4213 230.842 53.7279C229.464 51.3987 227.773 52.9293 225.551 52.7151C225.178 50.6002 227.558 51.4757 228.863 50.361C229.761 49.5957 229.175 48.8491 228.523 48.6849C225.959 48.0339 225.61 50.6626 223.558 50.6937C225.489 44.7253 232.004 46.1602 232.549 52.0101C232.715 53.7986 231.709 55.219 231.824 56.4189C231.875 56.9617 232.693 57.65 232.795 58.459C233.306 62.4892 230.587 65.2842 231.514 69.537Z" fill="#F6CEAE"/>
<path d="M287.237 241.807C289.826 241.218 292.388 240.64 294.518 242.811C292.103 245.34 288.221 245.7 287.237 241.807Z" fill="#F6CEAE"/>
<path d="M312.438 280.837C309.041 284.131 303.771 285.836 299.175 286.206L312.438 280.837Z" fill="#F6CEAE"/>
<path d="M336.648 259.985C336.637 259.35 335.645 256.649 335.551 256.397C335.549 256.391 335.547 256.385 335.545 256.379C335.483 256.196 335.385 256.021 335.252 255.857C335.252 255.857 335.221 255.819 335.161 255.751C335.159 255.746 335.155 255.74 335.149 255.736C332.593 252.966 320.361 252.993 317.389 253.218C315.782 253.34 314.156 253.582 312.518 253.894C312.514 253.896 312.51 253.896 312.506 253.896C311.257 254.135 309.999 254.415 308.738 254.713H308.73C304.569 255.701 300.356 256.899 296.18 257.533C292.956 258.024 289.754 258.18 286.616 257.643H286.611C285.033 257.375 283.471 256.93 281.929 256.264C285.349 254.399 291.103 253.363 295.26 251.121C295.576 250.951 295.883 250.772 296.18 250.587C299.095 248.761 300.944 246.168 300.067 241.952C299.47 239.087 298.052 237.373 296.18 236.367C293.446 234.894 289.746 234.93 286.244 235.079C278.58 235.406 258.116 237.136 252.107 240.821C245.429 244.92 243.84 251.109 234.525 251.918C219.549 253.22 200.69 251.878 186.27 247.665C184.182 247.056 175.947 244.683 175.267 243.352C173.883 240.642 174.168 228.271 174.481 224.65C174.807 220.869 176.035 212.74 177.296 209.336C178.735 205.449 184.112 199.188 186.242 194.86C196.157 174.719 189.477 154.986 187.884 133.672C190.532 130.411 191.377 127.52 189.723 123.38C194.696 120.963 199.972 122.952 204.957 121.359C207.95 131.902 212.889 138.205 224.651 135.585C230.975 134.175 240.732 128.111 247.147 128.044C249.738 128.017 252.751 130.862 256.027 131.145C265.085 131.927 267.125 119.664 270.097 113.392C273.455 113.348 277.213 112.088 280.152 110.468C281.983 109.457 284.418 106.785 285.935 106.24C288.231 105.416 291.423 105.545 294.231 104.564C294.829 104.354 295.483 104.077 296.18 103.74C303.041 100.432 313.998 91.4289 316.962 85.9055C329.987 61.6408 314.287 33.7845 296.287 17.2891C296.252 17.2559 296.215 17.2247 296.18 17.1935C286.866 8.70872 281.015 9.96896 270.62 6.65407C266.631 5.38344 264.257 2.24948 258.202 1.08491C237.463 -2.89961 218.581 4.15856 206.038 21.1489C200.306 28.912 190.11 46.807 187.894 55.9032C187.564 57.2632 187.919 58.6732 187.65 60.027C187.343 60.5365 177.288 62.8241 176.187 62.7783C174.41 62.7076 171.794 61.1167 169.506 60.7861C126.848 54.593 73.3903 78.4314 48.8549 114.026C25.6807 147.649 8.3549 194.018 3.42693 234.817C2.20518 244.935 2.56801 254.353 2.04529 264.371C1.62506 272.456 -0.111216 281.956 0.00562912 289.933C0.075326 294.664 3.42488 294.45 6.65553 296.305C7.10241 276.432 8.51685 256.516 10.6467 236.76C14.3755 202.176 23.1983 173.567 39.4643 142.853C53.0347 117.228 65.2132 99.7952 90.6976 85.1465C111.601 73.1326 136.115 64.259 160.495 65.5525C160.845 75.0791 161.967 85.0986 166.192 93.7581C167.67 94.0118 167.167 93.2382 167.04 92.2275C165.911 83.2977 162.678 74.2723 163.865 64.8288C171.493 65.6045 172.421 65.6565 174.192 72.9143C178.124 89.0145 173.506 107.382 178.423 121.047C179.114 122.966 181.41 124.58 180.443 126.73C181.545 126.639 183.009 127.011 184.014 126.653C185.18 126.239 184.618 124.594 185.744 124.721V128.086L184.553 127.566C183.563 130.157 179.463 129.764 178.077 127.45C176.986 124.199 175.283 121.302 173.981 118.152C173.62 117.28 170.324 105.115 168.508 107.226C168.582 112.682 172.76 130.351 177.642 132.611C179.266 133.362 180.775 133.268 182.433 132.796C181.398 136.519 179.887 140.183 179.155 143.999C178.801 145.854 177.71 150.203 179.772 150.957L183.753 139.524C183.132 151.949 186.35 165.914 185.016 178.142C183.845 188.877 170.775 207.968 164.14 216.85C162.192 219.457 151.768 230.993 151.268 232.729C150.725 234.618 153.439 233.459 154.183 232.962L169.162 217.577C167.434 226.22 166.876 235.364 169.828 243.816L150.086 237.972L148.614 236.423L148.325 237.725C142.847 235.21 136.64 235.179 130.7 234.393L140.865 228.229C159.365 214.31 150.165 200.993 151.266 181.584C151.988 168.832 155.725 155.772 157.137 143.132C157.666 138.382 158.638 126.738 157.896 122.357C157.762 121.571 157.535 121.159 156.897 120.693C156.04 121.338 155.768 122.344 155.532 123.332C152.783 134.797 151.475 148.799 149.264 160.711C149.081 161.694 149.259 162.799 147.949 163.071L141.306 107.897C137.477 108.417 139.932 114.39 140.01 116.95C140.094 119.791 139.541 121.964 139.395 124.426C139.377 124.769 140.551 124.397 140.705 125.678C141.507 132.393 141.382 140.352 141.976 147.256C143.173 161.156 146.896 180.382 146.638 193.681C146.609 195.091 146.859 194.642 145.939 194.388C143.878 193.822 140.117 191.961 139.986 195.363L147.173 198.508C148.13 205.607 149.423 215.369 143.306 220.264C143.434 214.078 135.664 211.85 130.843 210.363C111.508 204.395 91.2737 208.862 71.6622 210.174L73.1463 200.914C83.5353 195.923 94.7851 197.141 105.851 196.744C107.421 196.688 108.872 196.045 110.44 196.016C118.525 195.864 126.655 195.881 134.674 196.713C134.926 195.278 134.037 195.103 133.012 194.704C127.01 192.366 103.327 192.905 95.847 193.325C88.2972 193.747 80.5465 195.026 73.6568 198.058C76.3237 183.844 79.2653 169.661 83.4266 155.828C86.809 144.584 91.2019 131.638 96.7551 121.573C104.104 108.253 114.866 101.877 129.369 98.4663C126.903 95.6069 119.191 98.7679 115.932 99.9803C105.281 103.944 98.7128 110.647 92.5589 120.013C90.2692 119.957 95.4452 101.931 95.5477 100.827C95.6399 99.8284 95.9474 98.8656 94.5576 99.1526C93.4548 99.7058 90.3799 106.758 89.726 108.386C87.2661 114.512 84.7427 128.45 81.9527 132.798C81.7457 133.121 81.1 133.676 80.9565 133.464L78.2895 117.32C77.4655 117.112 77.1313 118.69 77.0985 119.179C76.7767 124.154 78.6954 130.796 78.9537 135.826C79.6056 148.564 74.1549 163.735 71.8569 176.391C69.5569 189.066 68.2491 201.966 65.7687 214.618C65.7031 218.403 67.3512 218.393 67.8945 219.74C69.2085 223.003 65.4756 232.704 64.9938 236.72L64.2784 254.831L49.7774 261.659L51.1549 263.073L64.0119 258.627C65.0922 258.918 65.2685 263.227 65.8425 264.865C66.6256 267.107 67.8637 269.335 69.0117 271.402H33.1977L39.8251 267.361C39.8866 266.273 40.1449 265.849 38.8452 266.028C37.4123 266.226 26.6339 271.327 24.541 272.387C23.1265 273.105 21.3288 274.257 19.9123 275.12C19.0739 275.632 18.2314 274.987 18.6065 276.79C29.7088 274.33 40.8172 273.733 52.1245 273.454C57.1878 273.329 62.0768 272.652 67.3922 273.396C72.7097 274.141 76.0613 278.32 81.0938 280.346C86.8663 282.669 90.136 282.313 95.5764 283.141C97.8026 283.478 99.4999 285.189 100.845 286.878L35.8503 292.273C34.0812 293.718 40.3499 294.666 41.0038 294.776C43.353 295.171 45.5669 295.369 47.7111 295.442C50.7285 295.55 53.6046 295.417 56.5277 295.257C59.1619 295.115 61.8308 294.955 64.672 294.932C67.7448 294.907 70.7848 294.895 73.8002 294.895H73.8043C95.7158 294.893 116.289 295.581 138.477 297.858C144.994 298.526 151.012 298.8 156.758 298.8C175.281 298.8 190.961 295.953 211.294 294.294C215.787 293.926 220.627 294.664 225.135 294.204C229.388 293.772 233.373 291.478 237.229 290.998C250.797 289.305 260.436 293.131 272.943 293.641C277.729 293.836 285.875 293.683 292.862 293.198C296.445 292.95 299.723 292.616 302.086 292.196C313.738 290.128 329.155 277.403 336.338 268.401C338.183 266.088 339.267 262.102 336.648 259.983V259.985ZM184.594 118.485C183.671 117.549 181.646 111.659 181.291 110.064C179.211 100.708 180.301 90.882 179.028 81.4073C178.366 76.4849 176.765 71.7019 175.804 66.8543C189.085 67.5531 200.71 61.6137 213.165 58.3009L216.183 59.8357C214.963 63.6933 213.909 67.7361 217.243 70.9012C221.478 74.9211 229.94 71.6956 228.863 70.895C224.302 71.1549 218.764 71.4253 217.605 65.9331C219.866 59.1848 218.751 49.7205 224.649 44.7419C230.712 39.624 236.643 44.9041 236.852 51.7398C236.893 53.1373 236.225 54.3227 236.221 55.6744C236.214 58.5151 237.899 61.1063 235.118 64.1321L235.829 65.5047C239.027 65.7605 242.651 65.149 245.777 65.5047C255.68 66.6276 254.899 72.0387 261.709 76.2583C271.018 82.0271 284.559 81.0684 294.526 77.6204C292.765 91.065 283.288 106.799 269.327 109.239L269.999 106.225L268.673 105.882L259.94 123.611C256.168 129.063 251.861 123.272 247.138 123.355C244.063 123.407 236.739 125.432 233.5 126.393C225.444 128.785 217.718 135.729 212.026 125.314C210.789 123.051 208.301 115.296 208.301 112.942V102.513L203.631 116.615C203.289 116.956 195.645 116.463 194.038 116.64C191.299 116.941 186.283 120.198 184.594 118.485ZM294.516 242.813C292.103 245.342 288.218 245.7 287.237 241.807C289.826 241.218 292.388 240.64 294.516 242.813ZM299.175 286.206L312.438 280.837C309.041 284.131 303.771 285.836 299.175 286.206ZM327.724 268.343C327.503 269.582 311.282 276.197 309.128 277.859L306.133 276.809C304.913 277.615 306.112 278.53 304.731 279.346C304.616 279.412 304.491 279.481 304.355 279.552C304.294 279.585 304.228 279.616 304.163 279.649C303.941 279.76 303.699 279.872 303.439 279.986C303.369 280.015 303.3 280.047 303.23 280.076C302.976 280.186 302.705 280.296 302.426 280.406C302.353 280.435 302.279 280.465 302.205 280.494C301.9 280.612 301.584 280.731 301.262 280.849C301.071 280.92 300.877 280.991 300.682 281.061C300.631 281.08 300.577 281.099 300.526 281.118C300.264 281.209 300.001 281.303 299.739 281.394C299.639 281.429 299.536 281.465 299.436 281.498C299.186 281.585 298.937 281.671 298.694 281.752C297.667 282.101 296.711 282.413 295.998 282.656C275.935 289.471 262.058 285.038 241.798 286.273C231.569 286.895 221.111 287.564 210.597 288.205C188.372 289.561 164.759 296.552 142.603 292.641C129.506 290.328 116.047 284.622 102.843 282.168L105.492 280.159C101.986 279.874 97.983 280.55 94.5473 280.159C64.6167 276.744 67.2631 252.122 70.4322 228.778C70.7008 226.798 72.2526 215.783 72.9762 215.209C83.0822 213.828 93.5593 211.933 103.803 211.49C107.892 211.314 122.973 211.299 125.439 214.672C128.186 218.428 124.87 229.003 123.24 233.228C122.492 235.171 121.208 236.529 120.751 238.436C123.113 239.12 123.814 235.913 125.669 235.805C127.342 235.705 132.491 237.107 134.555 237.552C154.085 241.761 172.255 251.604 191.596 255.724C206.351 258.866 222.804 258.313 237.744 256.532C246.851 255.447 250.881 246.921 258.575 244.693C266.678 242.348 277.112 243.425 285.541 241.774C286.13 241.875 285.939 244.34 286.533 245.373C287.362 246.808 290.022 246.517 290.545 247.85C282.151 251.51 273.748 253.045 264.686 253.925C265.378 255.264 267.818 254.921 269.261 255.661C278.857 260.596 283.188 263.033 294.891 262.688C295.051 262.684 295.213 262.678 295.373 262.669C295.477 262.665 295.584 262.661 295.688 262.655C295.824 262.649 295.959 262.64 296.092 262.63C296.201 262.624 296.31 262.615 296.418 262.609C296.543 262.599 296.666 262.588 296.789 262.58C296.804 262.578 296.82 262.576 296.834 262.576C296.972 262.563 297.109 262.551 297.246 262.538C297.418 262.52 297.591 262.503 297.763 262.484C297.919 262.466 298.074 262.447 298.23 262.428C298.388 262.409 298.544 262.389 298.702 262.368C298.86 262.347 299.015 262.324 299.171 262.301C299.641 262.233 300.11 262.158 300.575 262.075C300.731 262.048 300.887 262.019 301.043 261.989C301.506 261.904 301.971 261.811 302.435 261.713C302.56 261.686 302.687 261.659 302.814 261.632C303.144 261.559 303.474 261.484 303.804 261.407C303.915 261.382 304.025 261.355 304.136 261.328C304.466 261.251 304.794 261.17 305.124 261.089C305.241 261.06 305.358 261.031 305.475 261.002C306.09 260.846 306.703 260.685 307.315 260.523C307.461 260.484 307.607 260.444 307.752 260.407L309.062 260.051C309.208 260.012 309.351 259.972 309.497 259.933C311.257 259.454 313.016 258.978 314.785 258.562C315.058 258.5 315.335 258.435 315.609 258.375C316.425 258.192 317.243 258.026 318.065 257.88C318.19 257.857 318.315 257.836 318.44 257.816C318.524 257.801 318.608 257.787 318.692 257.774C318.84 257.749 318.988 257.726 319.135 257.703C319.375 257.666 319.617 257.631 319.857 257.597C320.002 257.579 320.148 257.56 320.293 257.541C320.418 257.525 320.546 257.51 320.671 257.495C320.753 257.485 320.835 257.477 320.917 257.468C321.066 257.452 321.216 257.437 321.363 257.423C321.63 257.396 321.896 257.373 322.165 257.354C322.321 257.341 322.477 257.331 322.634 257.323C322.948 257.304 323.264 257.29 323.579 257.279C323.702 257.275 323.825 257.273 323.95 257.271C324.531 257.258 325.115 257.264 325.701 257.287C325.687 258.46 323.936 258.119 323.364 259.28C322.735 260.55 323.538 262.686 322.645 263.41L303.47 270.72C302.242 266.184 298.062 266.656 301.162 271.402C301.139 271.431 301.102 271.464 301.049 271.499C301.03 271.51 301.012 271.522 300.992 271.535C300.889 271.597 300.748 271.668 300.567 271.745C300.532 271.761 300.495 271.776 300.456 271.793C300.438 271.801 300.418 271.809 300.397 271.818C300.346 271.838 300.292 271.859 300.237 271.882C299.913 272.009 299.514 272.15 299.05 272.306C298.907 272.354 298.757 272.404 298.603 272.454C298.404 272.518 298.197 272.585 297.982 272.651C297.874 272.687 297.763 272.72 297.648 272.755C297.628 272.762 297.607 272.768 297.587 272.774C297.476 272.81 297.365 272.843 297.25 272.878C297.148 272.909 297.045 272.941 296.939 272.974C296.857 272.999 296.773 273.024 296.691 273.049C296.525 273.097 296.353 273.149 296.18 273.201C295.994 273.255 295.805 273.311 295.613 273.367C295.58 273.375 295.549 273.386 295.516 273.396C295.403 273.429 295.289 273.463 295.174 273.496C295.059 273.527 294.942 273.56 294.825 273.596C294.518 273.685 294.206 273.774 293.887 273.864C293.374 274.012 292.845 274.161 292.306 274.311C292.281 274.317 292.257 274.324 292.234 274.332C291.976 274.405 291.716 274.475 291.455 274.548C291.283 274.594 291.111 274.644 290.937 274.692C290.582 274.791 290.223 274.889 289.863 274.989C289.848 274.993 289.832 274.997 289.817 275.001C289.629 275.053 289.44 275.105 289.252 275.157C289.157 275.182 289.063 275.207 288.969 275.234C288.78 275.286 288.592 275.338 288.401 275.39C288.348 275.405 288.296 275.419 288.243 275.434C287.973 275.509 287.702 275.584 287.429 275.657C287.374 275.671 287.319 275.686 287.261 275.702C286.976 275.781 286.693 275.858 286.411 275.935C285.937 276.062 285.468 276.191 285.002 276.32C284.816 276.372 284.629 276.422 284.445 276.472C284.168 276.549 283.891 276.624 283.621 276.698C283.557 276.715 283.493 276.732 283.43 276.75C283.313 276.784 283.196 276.815 283.079 276.846C282.721 276.944 282.366 277.042 282.02 277.139C281.735 277.218 281.456 277.295 281.179 277.372C281.118 277.389 281.058 277.405 280.997 277.422C280.831 277.47 280.665 277.516 280.503 277.559C280.49 277.564 280.48 277.566 280.47 277.57C280.318 277.613 280.166 277.655 280.019 277.697C279.781 277.763 279.547 277.83 279.32 277.894C279.146 277.944 278.978 277.992 278.811 278.04C278.707 278.069 278.604 278.098 278.502 278.129C278.41 278.156 278.317 278.183 278.227 278.208C277.881 278.308 277.551 278.406 277.239 278.499C277.122 278.535 277.008 278.57 276.897 278.603C275.946 278.89 275.208 279.134 274.763 279.314C273.754 279.722 272.969 278.924 273.307 280.826C274.189 280.718 275.07 280.604 275.95 280.481C276.128 280.456 276.304 280.431 276.483 280.406C276.686 280.377 276.889 280.348 277.092 280.319C277.483 280.263 277.875 280.205 278.264 280.144C278.383 280.126 278.504 280.107 278.623 280.09C278.859 280.053 279.094 280.015 279.33 279.978C280.474 279.797 281.616 279.604 282.755 279.4C283.04 279.35 283.325 279.298 283.608 279.246C284.076 279.159 284.541 279.071 285.006 278.982C285.31 278.926 285.611 278.865 285.914 278.805C286.121 278.766 286.331 278.724 286.54 278.68C286.917 278.605 287.296 278.528 287.673 278.449C288.022 278.377 288.37 278.304 288.719 278.229C288.866 278.198 289.014 278.167 289.159 278.133C289.58 278.044 289.998 277.952 290.416 277.859C290.486 277.844 290.555 277.828 290.625 277.811C291.047 277.717 291.47 277.62 291.89 277.522C291.964 277.505 292.035 277.489 292.107 277.472C292.523 277.374 292.939 277.277 293.354 277.177C293.827 277.064 294.296 276.948 294.768 276.832C295.569 276.634 296.369 276.43 297.166 276.22C297.49 276.137 297.812 276.052 298.132 275.964C298.37 275.902 298.607 275.837 298.843 275.773C299.081 275.709 299.317 275.644 299.552 275.58C299.897 275.486 300.239 275.39 300.582 275.293C301.051 275.162 301.518 275.028 301.986 274.893C302.709 274.683 303.433 274.471 304.152 274.253C304.608 274.118 305.063 273.978 305.516 273.837C305.963 273.7 306.407 273.56 306.85 273.421C307.031 273.365 307.211 273.307 307.387 273.25C307.848 273.103 308.31 272.953 308.771 272.803C309.41 272.593 310.05 272.381 310.685 272.167C311.165 272.005 311.645 271.843 312.122 271.676C312.67 271.487 313.215 271.296 313.762 271.102C314.205 270.946 314.648 270.786 315.091 270.626C315.255 270.568 315.417 270.507 315.581 270.449C316.608 270.075 317.633 269.692 318.654 269.301C319.16 269.11 319.664 268.914 320.168 268.719C320.213 268.7 320.259 268.684 320.302 268.667C321.372 268.249 322.44 267.823 323.501 267.388C324.037 267.17 324.574 266.949 325.107 266.727C325.642 266.504 326.175 266.28 326.708 266.053C327.53 266.66 327.915 267.272 327.724 268.343Z" fill="black"/>
<path d="M165.878 156.71C165.843 158.301 165.21 159.771 165.161 161.364C164.871 170.917 165.275 180.504 163.857 189.994C162.922 191.173 162.682 189.879 162.551 188.975C161.473 181.55 162.477 176.435 162.561 169.495C162.692 158.904 162.164 147.678 163.209 137.18C163.369 135.571 163.623 132.218 165.181 131.449C166.173 139.603 166.067 148.418 165.878 156.71Z" fill="black"/>
<path d="M155.575 111.934C155.12 111.813 150.596 106.04 149.227 104.913C144.219 100.789 140.545 101.426 135.623 99.1983C134.623 98.745 133.766 98.4975 134.016 97.1333C139.861 96.7735 146.103 98.2875 150.602 102.17C151.381 102.844 154.558 106.094 155.016 106.768C155.708 107.789 155.565 109.694 156.906 110.601C157.453 111.304 156.188 112.096 155.575 111.934Z" fill="black"/>
<path d="M75.6513 254.588C74.6469 252.305 79.5789 245.519 81.2721 245.843C82.4734 246.074 82.086 246.681 81.6083 247.509C80.3025 249.765 77.6869 252.895 75.6513 254.588Z" fill="black"/>
<path d="M232.795 58.459C232.693 57.65 231.875 56.9617 231.824 56.4189C231.709 55.219 232.715 53.7986 232.549 52.0101C232.004 46.1602 225.489 44.7253 223.558 50.6937C225.61 50.6626 225.959 48.0339 228.523 48.6849C229.175 48.8491 229.761 49.5957 228.863 50.361C227.558 51.4757 225.178 50.6002 225.551 52.7151C227.773 52.9293 229.464 51.3987 230.842 53.7279C227.172 57.4213 221.113 58.9685 222.234 65.5005C222.859 66.1764 228.033 62.352 229.866 65.4963C230.817 67.1288 229.073 70.0652 231.514 69.537C230.587 65.2842 233.306 62.4892 232.795 58.459ZM230.182 62.8178L224.885 62.1336C226.197 60.0915 228.22 57.9204 230.85 58.1054L230.182 62.8178Z" fill="black"/>
</svg>
