<svg width="356" height="301" viewBox="0 0 356 301" fill="none" xmlns="http://www.w3.org/2000/svg">
<path d="M0 10C0 4.47716 4.47715 0 10 0H346C351.523 0 356 4.47715 356 10V291C356 296.523 351.523 301 346 301H10C4.47715 301 0 296.523 0 291V10Z" fill="#8F9B87"/>
<path d="M281.214 141.028C276.756 146.04 284.67 144.556 285.723 142.688C286.324 136.186 284.795 139.332 281.214 141.028Z" fill="#6EB8D8"/>
<path d="M282.83 157.454C274.28 156.111 283.975 146.41 287.778 145.788C288.12 147.817 285.295 156.462 282.83 157.454Z" fill="#6EB8D8"/>
<path d="M307.427 120.207C308.166 122.032 314.065 123.315 312.424 126.758C308.948 130.441 301.467 121.99 307.427 120.207Z" fill="#6EB8D8"/>
<path d="M334.033 144.978C336.432 148.663 337.802 147.496 338.321 144.491C337.041 143.51 333.079 140.425 334.033 144.978Z" fill="#6EB8D8"/>
<path d="M351.893 155.479C351.893 155.479 353.947 156.735 354.929 158.17C355.912 159.606 356 156.107 356 156.107C355.536 155.301 352.126 152.26 351.893 155.479Z" fill="#6EB8D8"/>
<path d="M339.57 166.696C341.726 164.596 343.796 169.109 345.196 169.299C350.613 165.551 343.456 159.768 339.57 166.696Z" fill="#6EB8D8"/>
<path d="M331.266 176.66C330.871 177.928 329.522 186.72 333.991 184.198C336.016 181.193 332.85 177.96 331.266 176.66Z" fill="#6EB8D8"/>
<path d="M321.353 195.237C320.885 196.051 319.243 205.203 323.229 202.327C324.821 199.593 323.501 195.892 321.353 195.237Z" fill="#6EB8D8"/>
<path d="M312.572 182.762C313.527 185.973 310.051 194.129 310.278 198.737C311.228 204.064 310.093 207.818 307.957 202.978C308.226 201.788 307.875 199.028 307.425 199.106C305.405 201.475 307.893 204.646 308.315 207.711C308.094 210.79 311.65 227.834 305.681 222.341C304.616 220.598 306.991 199.623 302.689 206.184C301.805 209.74 303.776 216.727 303.493 219.738C302.866 220.098 302.956 224.584 300.097 221.354C299.974 217.975 301.767 200.682 295.186 214.892C290.364 217.489 292.034 227.331 291.345 231.406C286.499 238.558 286.716 226.919 287.829 220.637C288.132 214.264 282.826 216.327 282.826 216.327C287.531 197.705 297.115 191.714 312.57 182.762H312.572Z" fill="#6EB8D8"/>
<path d="M219.296 205.318L219.892 213.331C219.502 214.526 208.156 217.451 207.269 220.918C189.09 214.598 168.729 214.303 149.976 218.289V208.887C149.976 207.939 151.297 206.996 148.688 205.972C146.868 211.49 146.73 217.04 147.309 222.757C145.377 223.064 133.823 224.971 133.094 223.703L133.777 207.911C138.083 207.661 143.291 205.587 141.803 205.399C139.092 205.058 136.39 205.27 133.781 205.964C136.233 193.088 134.642 179.785 135.048 166.718C135.344 157.206 135.27 140.697 137.166 131.881C137.286 131.326 138.914 127.25 139.124 127.028C139.557 126.571 148.694 121.457 150.046 120.782C159.778 115.907 168.449 114.188 178.489 110.966C179.616 110.603 180.031 110.907 179.771 109.369C168.847 109.503 158.875 114.142 148.74 117.53L138.322 123.627C141.515 116.47 145.889 109.823 148.032 102.239L146.05 102.672L137.026 119.087C137.535 111.583 138.482 103.778 136.698 96.4003C135.547 98.2077 135.27 101.698 135.082 103.86C134.285 113.039 134.56 122.545 133.773 131.727C133.473 135.249 132.594 138.87 132.477 142.429L127.616 129.448L126.011 128.17L131.831 153.784L131.082 178.955C131.082 178.955 114.187 190.661 113.055 193.336C112.439 194.791 122.759 188.878 124.655 187.437C126.904 185.73 128.952 183.7 131.182 181.981L130.594 204.393C130.836 205.355 128.964 208.715 128.135 209.198C106.477 221.829 83.5067 232.285 60.0984 241.154C58.765 241.661 57.4316 242.16 56.0962 242.654L37.2607 252.016C37.0485 253.575 37.2607 253.04 38.1516 253.373C40.7923 254.354 65.7562 257.835 65.7562 257.835L64.3368 256.376L43.7394 251.363L97.5272 228.057C108.2 223.068 118.891 217.557 128.796 211.163C129.402 210.773 128.025 220.333 130.403 225.234C133.793 232.227 150.891 235.279 157.746 237.413C152.13 241.025 146.728 245.037 141.12 248.652C131.418 254.903 120.759 260.814 110.851 266.93C108.827 268.18 106.833 269.439 104.885 270.709C102.486 272.274 98.1258 273.306 97.5052 276.638C98.1879 277.293 106.617 272.957 114.391 268.727C120.421 265.447 126.059 262.233 127.386 261.46C129.064 260.484 129.933 259.797 131.318 258.957C137.521 255.196 143.937 251.862 149.321 246.816C149.89 248.265 147.249 251.377 147.085 252.002C144.28 262.722 143.357 273.512 145.323 284.437H10.7712C6.12636 284.437 0 271.979 0 271.979V210.632C3.68382 202.183 7.36965 193.733 11.0555 185.285C13.9725 180.294 16.6533 176.158 18.7975 172.994C23.6025 165.905 27.941 161.256 31.0983 157.699C46.6184 140.208 46.0238 139.936 52.2542 133.319C60.2065 124.874 72.6214 113.166 90.9604 100.724C109.075 90.7958 125.048 83.7165 137.367 78.7792C147.575 74.6856 170.257 66.0574 193.533 67.4059C198.42 67.6884 204.264 68.9869 209.924 73.0204C216.276 77.5469 215.38 85.7463 218.323 91.8558L219.286 84.0812C219.816 98.7326 221.015 113.388 221.152 128.086L218 128.813C218.403 119.58 220.245 108.397 217.021 99.6424L216.046 126.22C209.592 120.019 198.512 109.551 189.188 109.339C188.353 109.32 186.433 108.89 186.896 110.33C199.731 114.989 209.155 124.467 218.206 134.173L217.988 136.592L216.058 134.65C216.212 141.717 215.305 148.668 215.378 155.75C215.43 160.823 216.429 166.404 216.733 171.245C217.374 181.44 217.566 191.627 219.318 201.736C219.268 202.255 219.137 202.774 218.685 203.094C217.608 203.854 207.017 202.227 204.708 202.086C196.394 201.579 187.741 200.996 179.478 200.756C172.777 200.562 161.758 199.98 155.469 200.782C154.574 200.896 153.549 201.163 154.51 202.072L219.296 205.318Z" fill="#60615A"/>
<path d="M325.296 70.5471C316.214 78.1585 305.788 80.8897 293.968 79.6151C291.001 79.295 287.708 77.4341 284.874 77.074C277.681 76.1576 271.914 78.4006 265.222 80.2534C264.815 79.8632 268.14 71.1833 268.312 69.3885C269.268 59.29 253.79 51.5405 251.803 63.9021C251.4 66.4072 251.921 68.9463 251.569 71.4374C250.888 76.2636 246.749 82.6445 253.57 84.4853C255.941 85.1256 257.378 84.7914 259.397 83.4949C257.438 90.3799 246.483 86.036 246.525 80.0193C246.535 78.5646 248.758 71.4935 248.418 71.1973C243.833 70.5511 241.249 74.5268 239.382 78.0304L238.434 78.3185C232.431 76.4417 228.649 70.8432 221.927 73.7905C228.219 91.4084 222.764 110.679 226.57 128.691C231.746 129.78 237.581 131.436 242.493 128.707C242.146 120.149 244.145 111.91 246.393 103.768C246.697 102.667 245.922 101.965 247.769 102.273C247.534 111.727 247.168 120.704 249.542 129.954C251.11 136.054 252.128 141.483 258.581 143.556C265.558 145.799 266.275 141.919 271.8 140.264L282.671 138.207C282.248 140.773 281.355 142.169 280.159 143.005C280.88 142.623 282.134 142.113 283.314 141.661C284.339 141.271 285.313 140.899 286.25 140.592C285.89 140.436 285.347 140.372 285.261 140.028C284.718 137.879 285.223 136.829 286.066 136.26H286.07C286.092 136.244 286.114 136.228 286.138 136.214L286.198 136.178C286.212 136.17 286.226 136.162 286.24 136.154C286.266 136.138 286.292 136.124 286.318 136.11C286.36 136.086 286.404 136.064 286.448 136.044C286.492 136.022 286.533 136.004 286.577 135.984C286.623 135.964 286.667 135.946 286.713 135.928C286.867 135.868 287.027 135.816 287.188 135.77C287.258 135.75 287.326 135.732 287.394 135.714C287.466 135.696 287.538 135.68 287.61 135.664C287.644 135.656 287.68 135.648 287.714 135.64C288.468 135.472 289.187 135.376 289.573 135.09C289.597 135.074 289.617 135.056 289.637 135.038C289.703 134.98 289.754 134.914 289.792 134.84C290.541 133.371 291.486 126.044 290.409 124.931L288.484 126.224C288.203 123.113 288.325 117.528 292.173 116.65C298.767 115.147 299.362 121.138 302.687 124.929C301.908 115.175 311.377 111.737 316.889 105.165C324.621 95.9464 332.081 82.2323 325.294 70.5471H325.296ZM261.84 69.7467C261.336 70.2569 260.138 70.437 259.405 70.5531C262.491 73.5984 260.212 75.0451 260.128 77.3081C260.078 78.6347 261.185 80.5735 260.693 82.1963C258.099 82.7485 260.528 79.1329 258.341 78.3946L251.953 78.9848C249.85 75.3172 255.733 69.1744 259.401 68.5942L259.034 67.2696L254.882 65.3747C257.075 64.4743 258.507 64.7565 260.695 65.3607L258.303 62.8416L255.21 64.0782C253.95 62.6235 257.41 61.533 258.515 61.493C261.993 61.3649 263.996 67.5657 261.84 69.7467Z" fill="#F6CEAE"/>
<path d="M296.215 125.546L292.366 126.874C291.494 124.387 291.476 122.24 292.366 119.753C294.529 118.326 296.468 123.941 296.215 125.546Z" fill="#F6CEAE"/>
<path d="M322.732 152.77C322.971 151.263 323.636 150.575 323.055 148.924C321.989 145.899 315.119 134.59 312.605 132.805C310.307 131.176 306.64 130.074 304.306 128.183C302.864 128.261 303.811 135.334 304.114 136.138C304.5 137.163 306.109 137.949 307.216 137.881L308.504 134.642C309.36 141.467 312.292 144.478 303.623 146.253C302.754 147.498 304.39 150.067 302.05 149.532V138.201C302.05 135.91 300.793 130.3 300.075 127.879C299.567 126.17 298.515 124.743 298.164 122.993L296.889 126.556L292.366 127.531C293.98 135.49 291.588 143.298 289.589 150.967C287.676 158.302 286.905 160.775 285.817 168.551C282.516 192.152 246.497 208.741 226.298 215.74C223.099 216.851 219.291 217.279 216.126 218.497C210.187 220.786 206.088 224.92 202.217 229.81C202.707 226.647 201.535 225.584 198.885 224.092C191.426 219.89 179.023 220.29 170.532 220.722C169.041 220.798 161.121 221.579 160.825 222.003C160.466 241.74 160.606 264.628 174.428 280.321C180.11 286.772 185.2 289.953 193.507 285.827C208.031 278.612 229.398 263.369 242.264 253.103C256.62 241.648 266.842 228.45 280.071 216.532C289.165 208.339 299.34 202.766 305.273 191.279L303.993 189.68C309.424 186.991 310.269 179.394 313.408 174.185C315.784 170.246 325.739 160.619 326.009 157.63C326.202 155.483 325.242 151.701 322.732 152.77ZM182.516 255.07C185.026 254.231 189.703 253.483 190.264 257.003C187.896 255.768 182.75 258.519 182.516 255.07Z" fill="#F6CEAE"/>
<path d="M307.07 140.6C308.488 143.032 305.672 143.51 303.995 144.352L303.991 139.176C304.288 138.842 306.964 140.42 307.07 140.6Z" fill="#F6CEAE"/>
<path d="M254.237 76.3697C253.403 75.6293 257.261 72.5199 257.788 71.8536C260.542 75.4052 257.846 77.062 254.237 76.3697Z" fill="#F6CEAE"/>
<path d="M299.57 13.1411C295.002 12.4748 290.628 14.3215 288.155 14.1154C286.559 13.9814 282.712 11.6366 280.772 11.1944C250.509 4.31408 234.325 28.3102 226.962 53.6348C226.306 55.8936 224.359 67.6196 223.779 68.0817C223.196 68.5479 220.88 70.2084 218.158 69.8463C215.964 69.5542 214.517 68.0777 214.162 67.7456C210.2 64.0363 187.841 58.3704 157.454 65.7389C148.965 67.7976 143.033 70.2024 132.204 74.5419C125.502 77.2268 115.927 81.0981 104.282 87.4803C87.3696 96.7454 75.7142 106.033 68.0208 112.219C62.5117 116.65 55.5778 122.262 47.3673 130.695C45.5777 132.532 43.9545 134.27 33.3392 146.3C22.9543 158.068 17.7619 163.95 16.5675 165.439C16.5675 165.439 -0.372502 186.596 0.00625814 199.784C0.00625814 199.852 0.0663788 201.483 0.106459 203.72C0.15656 206.555 0.154556 208.905 0.140528 210.556C3.82793 202.119 7.51733 193.682 11.2067 185.247C14.1266 180.264 16.81 176.134 18.9563 172.975C23.794 165.857 28.3411 160.925 31.269 157.704C53.8343 132.884 66.4717 118.987 87.1812 105.086C94.2554 100.339 104.454 94.1265 117.642 88.1465C123.893 85.4116 168.607 66.107 193.861 67.5495C204.044 68.1297 208.773 72.0931 210.268 73.1554C216.627 77.675 215.729 85.8617 218.675 91.9618L219.639 84.1992C220.17 98.8281 221.371 113.461 221.507 128.136L218.353 128.862C218.755 119.643 220.599 108.477 217.373 99.7364L216.397 126.273C209.936 120.081 198.845 109.63 189.513 109.418C188.677 109.4 186.755 108.97 187.218 110.408C200.066 115.06 209.499 124.523 218.559 134.214L218.341 136.629L216.409 134.69C216.563 141.747 215.655 148.687 215.727 155.757C215.779 160.823 216.779 166.395 217.084 171.229C217.725 181.408 217.918 191.58 219.671 201.673C219.621 202.191 219.491 202.709 219.038 203.029C217.96 203.788 207.358 202.163 205.048 202.023C196.725 201.517 188.064 200.935 179.793 200.695C173.086 200.501 162.056 199.92 155.761 200.721C154.865 200.835 153.839 201.101 154.801 202.009L219.649 205.25L220.246 213.251C219.856 214.443 208.499 217.364 207.611 220.826C189.414 214.515 169.034 214.221 150.262 218.201V208.813C150.262 207.867 151.585 206.925 148.973 205.902C147.152 211.412 147.013 216.954 147.593 222.662C145.659 222.968 134.093 224.873 133.364 223.606L134.047 207.839C138.358 207.589 143.57 205.518 142.081 205.33C139.368 204.99 136.663 205.202 134.051 205.894C136.506 193.038 134.913 179.756 135.32 166.709C135.616 157.212 135.542 140.728 137.44 131.925C137.56 131.371 139.19 127.302 139.4 127.08C139.833 126.624 148.979 121.518 150.332 120.844C160.074 115.976 168.753 114.259 178.803 111.042C179.931 110.68 180.346 110.984 180.086 109.448C169.152 109.582 159.17 114.213 149.025 117.597L138.596 123.685C141.793 116.538 146.172 109.902 148.316 102.329L146.332 102.761L137.3 119.151C137.809 111.658 138.757 103.866 136.971 96.4993C135.819 98.304 135.542 101.789 135.354 103.948C134.556 113.113 134.831 122.604 134.043 131.771C133.743 135.289 132.863 138.904 132.747 142.457L127.881 129.497L126.274 128.22L132.099 153.795L131.35 178.927C131.35 178.927 114.438 190.615 113.306 193.286C112.688 194.739 123.019 188.835 124.917 187.396C127.168 185.692 129.218 183.665 131.45 181.948L130.861 204.326C131.103 205.286 129.23 208.641 128.4 209.124C106.72 221.736 83.7283 232.175 60.2973 241.03C58.9626 241.537 57.6279 242.035 56.2912 242.529L37.4374 251.876C37.225 253.433 37.4374 252.898 38.3292 253.23C40.9725 254.211 65.9606 257.686 65.9606 257.686L64.5398 256.229L43.9224 251.224L97.7625 227.954C108.446 222.972 119.147 217.47 129.061 211.086C129.669 210.696 128.29 220.241 130.671 225.135C134.063 232.117 151.178 235.164 158.039 237.295C152.418 240.902 147.011 244.908 141.398 248.517C131.687 254.759 121.017 260.661 111.099 266.767C109.073 268.015 107.077 269.272 105.127 270.54C102.726 272.103 98.3617 273.133 97.7404 276.46C98.4238 277.115 106.861 272.785 114.642 268.562C120.678 265.287 126.322 262.077 127.65 261.305C129.33 260.331 130.2 259.645 131.586 258.806C137.795 255.051 144.218 251.722 149.607 246.684C150.176 248.131 147.532 251.238 147.368 251.862C144.56 262.566 143.637 273.339 145.605 284.247C145.641 284.459 145.681 284.669 145.721 284.881L150.913 284.877C149.356 274.05 147.885 253.881 155.464 245.082C155.759 244.74 157.132 243.173 157.39 243.449C157.074 259.169 163.781 280.09 177.539 289.045C189.15 296.603 199.082 287.984 209.216 281.912C237.122 265.185 255.489 249.217 277.339 225.627C281.455 221.184 283.131 220.037 286.716 214.921C288.85 211.876 292.99 210.762 295.822 208.473C301.654 203.76 306.407 193.248 310.514 186.89C311.199 185.832 312.558 185.588 313.311 184.505C314.908 182.21 316.105 177.949 318.061 175.004C320.991 170.596 329.796 162.854 330.49 158.274C331.233 153.359 328.967 153.355 327.656 150.182C325.123 144.047 321.802 132.872 315.942 128.862C312.822 126.728 307.612 127.63 306.704 123.855C305.932 120.642 307.299 122.32 308.303 121.612C308.738 121.306 309.002 119.653 309.77 118.823C316.027 112.069 323.011 114.107 330.999 108.944C340.626 102.719 340.331 97.3676 345.167 88.7767C347.359 84.8814 350.474 83.721 351.223 77.9911C355.406 46.0202 330.606 17.6706 299.572 13.1411H299.57ZM221.092 147.467C221.878 142.841 226.022 138.205 224.188 132.75C230.798 134.426 237.305 136.447 243.8 133.364C244.547 133.01 243.868 131.583 245.575 132.101C246.635 141.253 251.73 148.265 261.479 148.933C267.367 149.335 268.331 146.668 272.814 144.848C273.002 144.772 273.193 144.7 273.381 144.634C273.445 144.612 273.511 144.59 273.575 144.568C273.686 144.53 273.796 144.496 273.906 144.462C273.98 144.438 274.052 144.416 274.124 144.396C274.269 144.354 274.413 144.314 274.555 144.276C274.628 144.256 274.7 144.238 274.772 144.22C274.958 144.172 275.143 144.127 275.327 144.085C275.409 144.067 275.491 144.049 275.571 144.031C275.66 144.011 275.746 143.993 275.832 143.973C276.07 143.923 276.305 143.875 276.537 143.827C276.577 143.819 276.619 143.811 276.66 143.801C276.856 143.761 277.05 143.721 277.241 143.681C277.249 143.679 277.257 143.677 277.265 143.675C277.397 143.647 277.529 143.619 277.66 143.587C277.674 143.587 277.686 143.583 277.698 143.579C277.816 143.553 277.932 143.525 278.046 143.495C278.119 143.479 278.189 143.461 278.257 143.441C278.375 143.409 278.493 143.377 278.612 143.343C278.734 143.307 278.856 143.269 278.976 143.229C279.096 143.189 279.215 143.147 279.331 143.103C279.457 143.057 279.579 143.007 279.7 142.953C279.75 142.931 279.798 142.909 279.844 142.887C279.962 142.831 280.078 142.773 280.193 142.709C280.193 142.709 280.197 142.709 280.199 142.705C280.199 142.705 280.2 142.704 280.203 142.703C280.309 142.617 280.469 142.517 280.674 142.409C281.397 142.027 282.656 141.517 283.84 141.064C284.868 140.674 285.846 140.302 286.786 139.996C286.822 140.012 286.856 140.028 286.886 140.046C286.898 140.052 286.91 140.058 286.92 140.066C286.99 140.11 287.044 140.16 287.077 140.226C287.082 140.236 287.086 140.246 287.091 140.258C287.097 140.272 287.101 140.286 287.103 140.3C288.241 146.35 284.195 152.97 282.595 158.388C281.716 161.371 282.369 165.727 281.463 169.546C278.287 182.945 260.525 193.118 249.138 199.422C241.23 203.802 232.946 208.015 224.18 210.428C224.789 209.26 224.902 208.185 224.892 206.875C224.757 189.195 221.425 171.471 220.908 153.823C220.85 151.834 220.763 149.397 221.09 147.469L221.092 147.467ZM313.237 132.207C315.76 133.992 322.654 145.3 323.724 148.325C324.307 149.975 323.64 150.664 323.399 152.17C325.918 151.102 326.882 154.883 326.688 157.03C326.417 160.019 316.427 169.644 314.043 173.583C310.892 178.791 310.045 186.388 304.594 189.077L305.878 190.675C299.924 202.161 289.714 207.733 280.587 215.926C267.311 227.842 257.052 241.038 242.645 252.492C229.733 262.758 208.29 277.999 193.715 285.213C185.378 289.339 180.27 286.158 174.569 279.707C160.697 264.016 160.557 241.13 160.917 221.396C161.214 220.972 169.162 220.191 170.659 220.115C179.18 219.683 191.627 219.283 199.112 223.484C201.771 224.977 202.948 226.039 202.457 229.202C206.34 224.313 210.455 220.179 216.415 217.891C219.591 216.672 223.413 216.244 226.623 215.134C246.894 208.135 283.04 191.548 286.353 167.95C287.445 160.175 288.219 157.702 290.139 150.368C292.145 142.699 294.545 134.892 292.926 126.934L297.465 125.959L298.744 122.396C299.097 124.147 300.153 125.573 300.662 127.282C301.383 129.703 302.644 135.313 302.644 137.603V148.933C304.992 149.467 303.351 146.898 304.223 145.654C312.922 143.879 309.98 140.868 309.121 134.044L307.828 137.283C306.718 137.351 305.103 136.565 304.716 135.541C304.411 134.736 303.461 127.664 304.908 127.586C307.251 129.477 310.93 130.579 313.237 132.207ZM292.926 119.157C295.097 117.731 297.042 123.342 296.788 124.949L292.926 126.275C292.05 123.791 292.032 121.642 292.926 119.157ZM304.592 138.578C304.892 138.244 307.578 139.822 307.682 140.002C309.105 142.433 306.279 142.911 304.596 143.753L304.592 138.578ZM317.538 104.57C312.007 111.142 302.503 114.579 303.285 124.333C299.948 120.541 299.351 114.551 292.734 116.054C288.872 116.932 288.75 122.516 289.032 125.627L290.964 124.335C292.044 125.447 291.097 132.774 290.345 134.242C290.307 134.316 290.255 134.382 290.189 134.44C290.169 134.458 290.149 134.476 290.125 134.492C289.738 134.778 289.016 134.874 288.259 135.042C288.225 135.05 288.189 135.058 288.155 135.066C288.082 135.082 288.01 135.098 287.938 135.116C287.87 135.134 287.802 135.152 287.732 135.172C287.569 135.218 287.409 135.271 287.255 135.331C287.209 135.349 287.163 135.367 287.119 135.387C287.074 135.407 287.03 135.427 286.988 135.447C286.944 135.469 286.9 135.489 286.858 135.513C286.832 135.527 286.806 135.541 286.78 135.557C286.766 135.565 286.752 135.573 286.738 135.581L286.678 135.617C286.654 135.631 286.632 135.647 286.61 135.661H286.606L283.199 137.609L272.289 139.666C266.744 141.321 266.024 145.2 259.022 142.957C252.547 140.884 251.525 135.457 249.952 129.356C247.569 120.107 247.936 111.132 248.172 101.679C246.319 101.371 247.096 102.073 246.792 103.174C244.535 111.314 242.529 119.553 242.878 128.11C237.948 130.839 232.092 129.182 226.898 128.094C223.078 110.084 228.553 90.8154 222.238 73.1994C228.984 70.2524 232.779 75.8503 238.804 77.727L239.755 77.4389C241.629 73.9357 244.222 69.9603 248.824 70.6066C249.164 70.9027 246.934 77.9731 246.924 79.4276C246.882 85.4436 257.876 89.7871 259.842 82.9027C257.816 84.1992 256.373 84.5333 253.994 83.8931C247.148 82.0524 251.303 75.6723 251.986 70.8466C252.339 68.3558 251.816 65.8169 252.221 63.3121C254.215 50.9519 269.748 58.7005 268.788 68.798C268.615 70.5926 265.279 79.2715 265.688 79.6616C272.403 77.809 278.191 75.5662 285.409 76.4826C288.253 76.8427 291.558 78.7033 294.535 79.0234C306.397 80.2979 316.86 77.5669 325.975 69.9563C332.786 81.6403 325.299 95.3529 317.54 104.57H317.538Z" fill="black"/>
<path d="M152.178 180.95C151.875 185.027 153.763 191.89 150.266 194.249C149.983 180.086 150.703 165.927 152.21 151.852C152.997 144.508 154.194 131.041 156.579 124.461C156.953 123.43 156.228 122.724 158.037 123.042C156.947 137.001 154.721 150.86 153.508 164.801C153.043 170.138 152.575 175.606 152.178 180.95Z" fill="black"/>
<path d="M70.6881 284.689C57.5858 282.332 26.1928 276.634 24.291 275.662C23.9623 275.494 23.0325 275.016 23.0645 274.458C23.0746 274.268 23.2008 274.07 23.4994 273.863C31.7019 275.932 40.0887 277.949 48.6599 279.902C56.1089 281.598 63.4536 283.193 70.6901 284.691L70.6881 284.689Z" fill="black"/>
<path d="M91.039 206.661C79.6842 214.801 63.9185 220.491 53.163 229.839L45.8643 233.734C44.4214 232.301 52.3593 227.952 52.9445 227.536C65.3214 218.679 78.7082 211.01 92.544 204.61C92.8406 205.98 91.8466 206.083 91.039 206.661Z" fill="black"/>
<path d="M258.954 60.9033C257.846 60.9433 254.373 62.0337 255.637 63.4881L258.742 62.2517L261.142 64.7706C258.946 64.1664 257.509 63.8843 255.309 64.7846L259.475 66.6792L259.844 68.0037C256.162 68.5839 250.259 74.726 252.369 78.3932L258.78 77.803C260.974 78.5413 258.537 82.1565 261.14 81.6043C261.633 79.9817 260.523 78.0431 260.573 76.7166C260.657 74.4539 262.944 73.0074 259.848 69.9623C260.583 69.8463 261.786 69.6662 262.291 69.1561C264.455 66.9753 262.445 60.7752 258.954 60.9033ZM254.661 75.7783C253.824 75.0381 257.696 71.929 258.225 71.2628C260.988 74.814 258.283 76.4706 254.661 75.7783Z" fill="black"/>
<path d="M190.459 256.392C188.082 255.157 182.917 257.908 182.683 254.459C185.202 253.621 189.895 252.87 190.459 256.392Z" fill="black"/>
</svg>
