<svg width="356" height="301" viewBox="0 0 356 301" fill="none" xmlns="http://www.w3.org/2000/svg">
<path d="M1.06957e-09 10C1.06957e-09 4.47716 4.47715 0 10 0H346C351.523 0 356 4.47715 356 10V291C356 296.523 351.523 301 346 301H10C4.47715 301 1.06957e-09 296.523 1.06957e-09 291V10Z" fill="#8F9B87"/>
<path d="M318.065 138.615C318.316 144.131 318.61 149.715 318.947 155.366C319.263 160.643 319.611 165.856 319.989 171.007C316.751 172.985 318.077 166.574 318.069 165.83C317.945 165.101 318.484 161.126 316.654 162.958C316.743 167.135 315.63 170.241 314.811 174.416C314.815 178.675 314.629 182.651 314.779 186.607C312.776 192.163 310.672 185.675 311.325 183.134C311.815 176.584 309.188 182.23 309.679 185.172C309.926 188.421 309.798 193.109 309.975 196.33C311.007 198.959 308.852 201.286 306.125 199.871C303.561 196.764 307.244 191.123 306.322 187.88C306.553 183.988 304.595 180.721 304.084 186.343C303.555 189.181 306.109 197.831 300.762 196.229C301.133 193.788 301.358 190.576 300.914 186.87C300.658 184.721 300.224 182.823 299.75 181.214C302.424 169.211 304.583 162.601 306.142 158.723C308.049 153.979 309.506 152.208 310.784 147.318C311.037 146.354 311.392 144.846 312.484 143.187C314.086 140.75 316.346 139.395 318.061 138.619L318.065 138.615Z" fill="#6EB8D8"/>
<path d="M323.497 153.538C323.694 153.673 324.714 154.841 325.47 154.575C326.226 154.308 327.28 153.506 326.951 152.971C326.621 152.436 325.208 151.234 324.878 151.234C324.549 151.234 323.793 151.835 323.497 151.969C323.201 152.103 323.497 153.538 323.497 153.538Z" fill="#6EB8D8"/>
<path d="M333.99 157.547C334.32 157.547 337.281 157.581 338.135 158.549C338.99 159.517 338.826 160.988 338.332 160.82C337.839 160.651 337.806 161.421 337.148 160.986C336.491 160.551 335.076 159.517 334.746 159.082C334.417 158.647 333.99 157.545 333.99 157.545V157.547Z" fill="#6EB8D8"/>
<path d="M325.188 162.289C325.188 162.289 327.213 163.124 327.673 163.958C328.133 164.792 326.429 165.527 326.429 165.527C326.429 165.527 323.726 163.824 323.955 163.289C324.184 162.754 325.186 162.287 325.186 162.287L325.188 162.289Z" fill="#6EB8D8"/>
<path d="M326.325 176.753C326.325 176.753 326.654 179.725 327.278 180.26C327.902 180.795 329.416 179.525 329.153 179.058C328.891 178.591 328.725 177.019 328.265 176.753C327.805 176.486 326.686 175.785 326.325 175.751C325.964 175.717 326.325 176.753 326.325 176.753Z" fill="#6EB8D8"/>
<path d="M320.767 175.751C320.767 175.751 320.931 178.256 320.767 178.591C320.603 178.925 318.926 179.092 318.926 178.591C318.926 178.09 318.793 176.552 319.222 175.985C319.65 175.418 320.355 175.318 320.84 174.849C321.326 174.38 320.767 175.751 320.767 175.751Z" fill="#6EB8D8"/>
<path d="M318.004 184.168C318.004 184.168 317.643 185.705 318.464 186.473C319.285 187.241 319.747 187.241 320.24 186.639C320.734 186.038 321.292 185.202 320.668 184.501C320.045 183.8 319.413 183.699 318.906 182.998C318.399 182.296 317.582 182.363 317.925 182.797C318.268 183.232 318.004 184.166 318.004 184.166V184.168Z" fill="#6EB8D8"/>
<path d="M315.109 193.353C315.109 193.353 314.353 195.123 315.306 195.993C316.259 196.863 317.082 197.095 317.147 195.993C317.213 194.891 317.706 194.524 317.444 193.353C317.181 192.183 316.808 192.552 316.172 192.051C315.537 191.55 314.649 191.616 315.075 192.051C315.501 192.486 315.109 193.353 315.109 193.353Z" fill="#6EB8D8"/>
<path d="M301.722 204.444C302.971 205.447 301.787 206.182 302.248 207.25C302.71 208.319 301.854 209.054 300.932 208.319C300.01 207.583 298.84 207.451 299.754 205.914C300.668 204.376 301.722 204.444 301.722 204.444Z" fill="#6EB8D8"/>
<path d="M292.643 194.217C292.643 194.217 291.853 195.358 292.874 195.726C293.894 196.095 296.361 196.528 296.065 195.726C295.769 194.925 296.756 194.524 295.901 193.957C295.047 193.389 293.829 193.923 293.566 193.79C293.304 193.658 292.645 194.219 292.645 194.219L292.643 194.217Z" fill="#6EB8D8"/>
<path d="M216.421 134.045C216.809 136.612 218.205 139.149 218.066 141.845L215.121 134.703C214.218 130.95 214.046 125.574 212.699 122.12C212.402 121.353 211.755 120.517 210.927 120.317C210.101 129.278 212.746 137.296 216.143 145.39C213.975 149.534 211.118 153.426 210.264 158.157C209.147 158.28 209.549 155.9 209.595 155.2C210.041 148.528 211.532 141.696 210.945 134.973C210.222 126.693 200.51 113.449 194.203 108.087C191.492 105.784 191.96 107.782 193.105 109.811C197.408 117.429 206.006 126.181 206.95 135.066C207.63 141.46 205.435 149.215 206.37 155.884L205.727 158.157C205.789 151.793 201.822 139.897 201.822 139.897L200.522 134.676C200.002 134.027 200.904 128.907 198.571 129.454C200.773 150.389 205.952 170.945 206.366 192.086C205.457 192.472 204.424 191.437 204.093 191.437H191.09C190.742 191.437 189.746 192.865 190.117 193.387L206.086 194.657L205.715 209.705C189.338 207.071 171.932 205.708 155.302 206.418C150.178 206.636 143.652 207.132 138.604 207.928C135.3 208.45 131.657 208.928 128.997 211.011V198.941C128.997 198.755 129.853 196.063 130.036 195.932C133.066 195.466 136.124 194.534 139.152 194.125C151.593 192.447 163.931 193.026 176.17 192.125C177.281 192.042 178.32 192.193 179.058 191.106C171.253 189.195 162.711 188.949 154.653 189.453C147.65 189.888 139.185 192.978 133.04 193.238C132.007 193.28 131.259 192.984 130.311 192.714C133.054 170.597 139.476 149.334 144.606 127.824L143.314 127.5C139.181 135.064 136.361 143.267 133.735 151.496L129.654 166.64C129.668 155.588 129.371 144.146 131.127 133.221C131.882 128.526 132.423 124.527 136.57 121.718C144.588 116.284 155.648 112.136 164.415 107.903L183.609 102.37C179.91 101.473 176.09 102.295 172.424 102.89C160.724 104.79 147.875 110.94 138.029 116.629C135.361 118.169 132.704 119.676 130.303 121.622C129.069 119.936 135.421 99.9824 135.982 96.3326C136.096 95.5844 136.785 92.9166 135.507 92.9166C122.261 119.397 126.352 149.056 125.74 177.731L114.738 156.612L112.745 156.207C112.274 156.622 116.565 166.388 117.179 167.737C118.899 171.51 124.998 181.165 125.599 184.081C127.259 192.155 125.388 203.847 126.379 212.007C126.692 214.575 129.061 216.079 128.261 218.404C127.98 219.223 115.829 228.061 114.382 228.72C113.012 229.345 112.387 229.761 111.66 230.626C109.72 232.929 97.1837 240.676 97.1837 240.676C91.5151 243.818 85.8425 246.879 79.4686 248.414L56.1814 253.106C55.874 254.693 57.4413 254.025 58.444 254.072C75.7974 254.868 94.059 247.3 107.96 237.526L127.691 221.451C125.838 230.541 126.634 239.823 126.262 249.047C126.035 249.878 125.32 250.259 124.763 250.805C123.877 251.68 112.799 259.952 112.065 260.248C110.046 261.061 100.246 260.761 97.473 260.589C94.6478 260.416 73.4122 256.482 73.0766 257.671C72.6346 259.242 77.0794 258.801 77.626 259.629C85.4788 261.753 102.704 264.913 110.408 263.803C115.492 263.072 121.825 254.846 126.391 252.118C126.853 254.808 118.52 261.581 118.019 262.243C114.859 266.405 94.3182 268.201 88.3764 269.105C87.5103 269.238 85.6235 268.472 86.0816 270.055C86.2383 270.597 93.0865 270.464 94.2379 270.414C105.294 269.944 119.741 268.484 130.647 269.71C131.619 269.821 132.652 269.847 132.897 271.033C132.897 271.041 133.235 271.468 133.815 272.154H28.1379C0.363705 272.154 2.14004e-09 258.68 2.14004e-09 258.68V202.306C0.460158 201.82 1.18757 201.052 2.07774 200.112C106.178 90.2588 131.121 80.1521 145.118 77.446C165.99 73.4109 188.313 74.8043 208.952 79.5552C215.143 88.1859 210.023 99.6699 212.229 109.222C213.547 108.956 213.306 107.863 213.515 106.933C215.287 99.0206 215.08 88.3956 213.527 80.5151L219.943 82.5518C220.912 83.9754 216.143 100.021 215.647 103.201C213.941 114.114 214.797 123.342 216.421 134.045Z" fill="#60615A"/>
<path d="M349.799 53.3018C345.902 48.5358 333.939 38.325 328.768 34.0671C317.73 24.9809 303.712 20.474 289.466 20.7271C287.713 20.7592 286.167 21.6148 284.364 21.3959C281.505 21.0504 277.536 18.4917 273.292 18.1322C251.777 16.3125 233.857 33.5569 227.499 52.9102C224.691 61.4561 224.582 69.7167 225.563 78.594C195.709 68.5458 171.823 68.7989 157.749 70.1506C151.689 70.733 144.111 71.5043 134.67 74.4928C120.346 79.0279 110.315 85.9529 86.9314 106.427C68.1449 122.874 54.2165 136.473 26.3557 163.667C19.7205 170.144 14.9386 178.933 6.89934 183.551C5.43309 184.392 0.853814 186.818 0.0956165 190.982C-0.0788893 191.946 0.025413 192.589 0.0956165 195.579C0.163814 198.501 0.133727 200.894 0.0956165 202.496C0.554948 202.012 1.28105 201.247 2.16963 200.311C106.083 90.8977 130.981 80.8314 144.954 78.1361C165.788 74.1172 188.071 75.505 208.672 80.2369C214.852 88.833 209.741 100.271 211.944 109.785C213.26 109.52 213.019 108.431 213.227 107.505C214.997 99.6243 214.79 89.0419 213.24 81.1929L219.644 83.2215C220.611 84.6394 215.851 100.62 215.356 103.788C213.653 114.657 214.507 123.848 216.128 134.509C216.515 137.066 217.909 139.592 217.771 142.277L214.83 135.164C213.93 131.426 213.757 126.071 212.413 122.631C212.116 121.868 211.47 121.034 210.644 120.835C209.82 129.761 212.459 137.746 215.851 145.808C213.687 149.936 210.835 153.812 209.982 158.524C208.867 158.646 209.268 156.276 209.314 155.579C209.759 148.933 211.248 142.129 210.662 135.433C209.94 127.186 200.246 113.995 193.95 108.654C191.244 106.361 191.711 108.351 192.854 110.371C197.149 117.959 205.732 126.676 206.674 135.525C207.352 141.894 205.162 149.618 206.095 156.26L205.453 158.524C205.515 152.185 201.556 140.337 201.556 140.337L200.258 135.137C199.738 134.491 200.639 129.391 198.31 129.936C200.509 150.787 205.678 171.261 206.091 192.318C205.184 192.701 204.153 191.671 203.822 191.671H190.843C190.496 191.671 189.501 193.093 189.872 193.613L205.812 194.878L205.441 209.865C189.094 207.242 171.719 205.884 155.119 206.591C150.004 206.808 143.489 207.302 138.451 208.096C135.153 208.616 131.517 209.092 128.861 211.167V199.144C128.861 198.959 129.715 196.278 129.898 196.148C132.923 195.684 135.976 194.756 138.998 194.348C151.416 192.677 163.732 193.253 175.949 192.356C177.059 192.273 178.096 192.424 178.832 191.341C171.041 189.437 162.514 189.192 154.471 189.695C147.481 190.128 139.03 193.205 132.897 193.464C131.866 193.507 131.119 193.211 130.173 192.942C132.911 170.914 139.321 149.737 144.442 128.313L143.152 127.989C139.026 135.523 136.212 143.693 133.591 151.89L129.517 166.973C129.531 155.965 129.234 144.569 130.987 133.687C131.741 129.012 132.281 125.029 136.421 122.231C144.424 116.819 155.464 112.687 164.215 108.471L183.375 102.96C179.682 102.067 175.869 102.886 172.211 103.479C160.531 105.37 147.706 111.496 137.877 117.162C135.213 118.696 132.562 120.197 130.165 122.135C128.933 120.456 135.273 100.582 135.833 96.9471C135.947 96.202 136.635 93.5448 135.36 93.5448C122.137 119.92 126.221 149.46 125.609 178.019L114.628 156.985L112.638 156.581C112.169 156.995 116.451 166.722 117.065 168.066C118.782 171.823 124.869 181.44 125.469 184.344C127.126 192.386 125.258 204.031 126.247 212.159C126.56 214.716 128.925 216.214 128.127 218.53C127.846 219.345 115.717 228.148 114.273 228.805C112.905 229.427 112.281 229.841 111.555 230.703C109.619 232.996 97.1048 240.713 97.1048 240.713C91.4464 243.842 85.784 246.891 79.4216 248.419L56.1762 253.093C55.8693 254.673 57.4338 254.009 58.4347 254.055C75.7569 254.848 93.9858 247.31 107.862 237.576L127.557 221.564C125.708 230.618 126.502 239.863 126.131 249.05C125.904 249.877 125.19 250.257 124.635 250.801C123.75 251.673 112.692 259.911 111.96 260.207C109.944 261.016 100.162 260.717 97.3937 260.546C94.5735 260.373 73.376 256.455 73.0411 257.64C72.5998 259.204 77.0367 258.765 77.5822 259.59C85.421 261.705 102.615 264.852 110.305 263.747C115.38 263.018 121.702 254.826 126.259 252.109C126.721 254.788 118.403 261.534 117.903 262.193C114.748 266.338 94.2446 268.128 88.3134 269.028C87.4488 269.16 85.5654 268.397 86.0227 269.974C86.1792 270.514 93.015 270.381 94.1643 270.331C105.2 269.863 119.622 268.409 130.508 269.63C131.478 269.741 132.509 269.767 132.754 270.948C132.754 270.956 133.091 271.381 133.671 272.064C135.546 274.282 139.949 279.208 143.562 281.361C148.123 284.079 155.013 285.406 167.29 281.815C203.106 271.341 248.179 226.871 268.799 207.654C272.594 204.117 276.894 198.309 280.773 195.286C287.507 190.042 293.157 187.813 299.379 181.247C301.409 179.104 306.065 177.684 308.253 175.362C311.873 171.52 310.57 167.238 311.318 162.832C312.455 156.132 315.448 150.363 311.851 143.96C311.891 143.44 315.668 141.966 316.397 141.275C319.453 138.375 317.989 123.378 320.426 118.664C322.863 116.995 325.308 116.154 327.772 114.32C337.873 106.8 344.135 99.1403 350.698 88.5378C357.54 77.4834 358.294 63.6915 349.799 53.3018ZM213.976 162.193C216.078 156.989 222.027 149.142 223.325 144.912C223.726 143.605 223.662 142.318 223.624 140.982C225.519 142.075 227.639 141.378 229.633 141.783C233.045 142.476 237.241 145.033 240.799 144.91C243.361 144.822 251.103 140.618 252.208 141.279L265.026 158.937C263.369 164.84 260.055 170.154 255.691 174.394C253.735 176.296 251.607 177.861 249.398 179.468C237.957 187.78 225.874 194.44 211.938 197.515C212.732 185.7 209.384 173.559 213.976 162.193ZM308.632 162.036C308.205 165.601 304.039 167.192 304.418 170.223L307.984 167.626L307.198 173.004C306.307 175.493 293.851 179.695 290.925 182.532C290.235 183.199 290.421 184.428 289.864 184.854C289.547 185.097 288.548 184.555 287.908 184.854C285.826 185.828 282.282 190.243 279.225 191.785C277.777 192.514 276.625 193.183 274.89 192.974L276.148 194.593C256.403 210.946 238.206 229.202 217.331 244.187C201.965 255.222 182.222 267.66 165.22 275.84C155.037 280.739 145.858 279.821 137.965 271.259C130.891 263.585 129.93 251.456 129.483 241.41C129.061 231.96 130.111 222.544 130.165 213.121L149.928 211.139L178.832 211.169C179.349 211.621 173.256 218.879 174.299 220.914L181.879 213.235L208.085 213.482L209.978 203.03C216.878 200.458 224.354 199.729 231.2 196.985C241.004 193.053 258.737 180.765 264.759 172.101C269.609 165.117 271.24 156.698 276.824 150.387C284.638 146.18 292.423 140.072 300.19 136.091C302.661 134.826 305.872 132.561 308.556 133.92C310.838 144.105 298.585 145.802 293.719 152.36C293.446 153.832 294.359 153.251 295.325 153.326C298.938 153.605 304.799 152.906 306.692 149.433C305.607 148.984 301.756 150.815 301.517 149.106C301.323 147.712 307.425 144.669 308.634 143.579C311.051 149.325 308.821 152.878 308.233 158.309C308.117 159.393 308.798 160.643 308.632 162.034V162.036ZM324.221 110.116C321.598 112.336 317.305 113.035 315.951 116.134C314.8 118.775 314.146 126.389 313.839 129.614C313.51 133.065 315.462 140.416 310.588 140.325C312.918 133.553 310.283 129.558 303.082 131.844C296.844 133.826 292.156 141.384 285.298 140.355C285.836 144.539 282.145 143.77 279.403 145.174C275.191 147.331 271.135 150.819 269.751 155.531L268.101 155.953C264.578 149.389 259.61 143.298 255.957 136.869C253.235 132.079 251.25 126.967 248.606 122.147C247.162 123.093 247.93 123.493 248.06 124.619C248.598 129.277 249.388 132.8 248.211 137.664C245.726 137.845 242.747 139.755 240.318 139.54C235.901 139.15 230.261 134.501 225.004 135.694C220.079 123.274 218.316 109.887 220.549 96.6418C221.235 92.5808 223.257 88.6462 222.97 84.4386L244.729 87.5938L246.331 86.3988L241.792 85.0853C240.829 84.1654 248.542 82.2715 250.393 82.627C256.282 83.7617 254.04 87.6822 255.201 91.4861C256.926 97.1399 265.613 98.0798 268.401 92.8961C264.183 94.8202 259.672 95.1515 257.777 90.1506C258.8 84.533 256.306 74.2317 259.945 69.8011C262.607 66.5615 269.322 66.6499 272.066 69.7208C273.207 70.9961 273.962 73.0066 274.25 74.6916L274.896 71.446C280.797 75.9027 280.055 84.065 277.49 90.2871C278.306 91.0664 294.97 82.9523 298.727 82.635C300.781 82.4623 303.593 83.6934 305.73 83.7818C311.986 84.0389 317.839 83.9465 323.746 81.695C326.45 80.6647 332.91 75.2058 334.93 78.588C335.408 87.2202 330.989 104.396 324.221 110.116Z" fill="black"/>
<path d="M269.912 84.776C269.912 84.3341 271.183 83.2978 271.079 81.5203C270.997 80.1385 269.687 79.0881 269.795 78.3851C269.934 77.4974 271.659 76.692 271.36 75.2881C270.626 71.8356 263.573 69.6746 262.56 74.0389C265.072 73.3841 268.59 72.3217 269.045 75.9911C265.619 74.1494 260.729 75.2419 266.45 77.6159C262.911 80.2088 259.921 82.8358 260.619 87.6922C265.567 84.314 271.344 85.4388 269.705 92.2413C273.889 89.8573 269.91 85.5894 269.912 84.776ZM263.86 83.7898C262.853 82.8961 267.886 79.305 268.397 79.8955L268.403 83.7959L263.86 83.7898Z" fill="black"/>
<path d="M309.032 134.298C311.32 144.518 299.038 146.219 294.161 152.802C293.89 154.279 294.805 153.697 295.772 153.771C299.392 154.051 305.266 153.35 307.164 149.865C306.077 149.414 302.217 151.252 301.977 149.537C301.782 148.138 307.896 145.085 309.108 143.99C311.533 149.756 309.295 153.322 308.708 158.771C308.591 159.86 309.273 161.113 309.106 162.51C308.678 166.087 304.502 167.684 304.882 170.725L308.457 168.119L307.669 173.516C306.776 176.013 294.292 180.23 291.359 183.075C290.667 183.747 290.854 184.98 290.295 185.407C289.978 185.651 288.977 185.107 288.335 185.407C286.249 186.387 282.696 190.815 279.634 192.363C278.183 193.096 277.029 193.765 275.29 193.558L276.551 195.182C256.761 211.592 238.521 229.912 217.601 244.949C202.198 256.02 182.41 268.503 165.371 276.712C155.164 281.628 145.965 280.707 138.056 272.115C130.966 264.414 130.003 252.243 129.554 242.162C129.132 232.679 130.183 223.231 130.238 213.772L150.046 211.783L179.017 211.813C179.535 212.267 173.426 219.551 174.473 221.592L182.068 213.889L208.334 214.137L210.231 203.649C217.147 201.067 224.64 200.336 231.501 197.583C241.327 193.638 259.101 181.306 265.136 172.611C269.999 165.606 271.631 157.157 277.228 150.823C285.06 146.6 292.863 140.471 300.647 136.477C303.123 135.207 306.342 132.934 309.032 134.298Z" fill="#F6CEAE"/>
<path d="M335.468 78.771C333.443 75.377 326.968 80.8549 324.258 81.8888C318.338 84.1481 312.471 84.2408 306.201 83.9829C304.06 83.8942 301.242 82.6587 299.183 82.832C295.418 83.1505 278.716 91.2928 277.898 90.5108C280.469 84.267 281.213 76.0763 275.298 71.6041L274.651 74.861C274.361 73.1701 273.605 71.1526 272.462 69.8728C269.711 66.7912 262.981 66.7026 260.313 69.9535C256.666 74.3995 259.165 84.7366 258.14 90.3738C260.04 95.3922 264.561 95.0597 268.789 93.1289C265.994 98.3307 257.288 97.3875 255.559 91.714C254.395 87.8968 256.642 83.9627 250.74 82.824C248.884 82.4673 241.154 84.3678 242.119 85.2909L246.669 86.609L245.063 87.8081L223.254 84.6419C223.542 88.8642 221.515 92.8125 220.828 96.8877C218.59 110.179 220.357 123.612 225.293 136.076C230.562 134.878 236.215 139.544 240.642 139.935C243.076 140.151 246.062 138.234 248.553 138.053C249.733 133.171 248.941 129.636 248.402 124.963C248.271 123.832 247.501 123.431 248.949 122.482C251.598 127.319 253.588 132.448 256.316 137.255C259.977 143.706 264.957 149.819 268.487 156.405L270.142 155.982C271.529 151.254 275.594 147.753 279.815 145.588C282.564 144.18 286.263 144.952 285.724 140.753C292.597 141.785 297.295 134.201 303.547 132.212C310.765 129.919 313.406 133.927 311.07 140.723C315.955 140.814 313.999 133.437 314.329 129.975C314.637 126.738 315.292 119.098 316.446 116.447C317.803 113.338 322.105 112.636 324.735 110.409C331.517 104.669 335.946 87.4333 335.468 78.771ZM270.095 92.4718C271.738 85.6456 265.948 84.5169 260.989 87.9069C260.289 83.0336 263.286 80.3974 266.833 77.7955C261.099 75.4132 266 74.3169 269.434 76.165C268.978 72.4828 265.451 73.549 262.935 74.206C263.95 69.8265 271.018 71.9951 271.754 75.4596C272.053 76.8684 270.325 77.6766 270.186 78.5674C270.077 79.2728 271.39 80.3269 271.472 81.7135C271.577 83.4971 270.304 84.5371 270.302 84.9805C270.302 85.7967 274.289 90.0795 270.095 92.4718Z" fill="#F6CEAE"/>
<path d="M268.785 80.083L268.791 83.997L264.237 83.9909C263.226 83.0961 268.272 79.4905 268.785 80.085V80.083Z" fill="#F6CEAE"/>
</svg>
