<svg width="356" height="301" viewBox="0 0 356 301" fill="none" xmlns="http://www.w3.org/2000/svg">
<path d="M0 10C0 4.47716 4.47715 0 10 0H346C351.523 0 356 4.47715 356 10V291C356 296.523 351.523 301 346 301H10C4.47715 301 0 296.523 0 291V10Z" fill="#8F9B87"/>
<path d="M178 32.9384C177.305 34.4828 173.933 35.0534 173.442 35.4324C172.816 35.9183 170.806 39.3801 169.419 39.6886C165.5 36.8558 160.318 36.3598 157.184 32.6501C152.823 27.4907 151.002 20.6336 148.351 14.4218C147.947 13.4782 147.04 10.7241 145.781 11.089C146.196 19.4421 149.613 28.3354 154.565 34.5654L150.466 35.2187L149.282 28.0491L147.538 28.0451L148.706 36.505C142.529 37.3538 138.001 51.2594 134.249 39.3801L135.225 18.9158C132.947 21.3453 133.347 26.2749 132.731 29.5109C132.612 30.1399 132.521 31.4686 131.721 31.3073C130.982 20.2707 124.348 9.63131 115.314 5.21788C115.205 6.73607 116.538 7.37117 117.277 8.49216C118.662 10.593 121.467 13.0145 123.182 15.696C129.755 25.9805 129.597 41.9971 131.127 54.1406C126.472 51.6788 121.871 51.1606 116.748 51.5014C114.952 51.6223 109.914 51.6546 110.037 54.1426H122.635C123.419 54.1426 131.382 56.4088 131.632 56.8443L132.297 67.1873L126.995 62.3363C111.825 55.7636 91.6058 55.443 80.725 70.9414C79.8233 72.2257 79.7798 74.2984 78.4037 75.0201L77.8079 68.8768C83.2728 62.3807 90.2568 57.0015 98.3164 55.4329L98.32 53.4954C94.8199 53.5196 91.3903 54.6648 88.2324 56.2858C85.4891 57.6911 82.9595 60.6085 80.1547 61.3424L80.6418 62.5158L76.6418 65.8808C76.9026 65.1509 77.0348 64.7719 76.9533 63.9473C75.4069 48.2755 70.4183 20.0671 79.8559 7.16551L86.0124 0.651227C84.5294 0.266136 83.4719 1.33673 82.2099 1.63311C81.7843 1.73392 81.2701 2.29643 80.812 2.94564C80.1746 3.84889 78.6155 4.48601 77.5635 5.91548C72.5061 12.7967 71.4377 21.0913 70.7877 29.6863L71.3617 41.7451L69.4713 32.9444C66.7063 27.9887 66.6538 20.3675 65.0078 14.579C64.7615 13.7121 64.8068 12.5931 63.7566 12.3915C63.7855 19.1457 64.7652 26.8435 66.2536 33.4182C67.5555 39.1744 70.2553 44.5778 71.6641 50.2271C72.7451 54.5619 75.7201 78.365 77.7934 79.9739L83.1514 79.9679C85.5344 83.6897 75.8523 99.3595 74.8546 101.269C73.5237 103.815 54.1506 123.657 51.1701 125.923C40.8434 133.782 31.4801 139.76 22.7233 150.353L17.4703 157.867C16.8927 152.627 18.3576 148.149 19.9456 143.347C21.6803 138.094 27.9183 122.304 31.1433 118.955C36.3618 113.537 53.1565 112.646 60.2365 110.241C61.0531 109.38 60.1749 109.009 59.3474 108.918C56.6168 108.62 51.3059 110.126 48.2494 110.275C43.9778 110.483 39.116 110.666 35.0346 109.269C37.106 108.767 44.8053 64.915 50.1072 45.8016C54.3715 30.4323 60.1894 15.5307 63.7493 4.7606e-09H149.311C148.793 0.149198 148.507 0.44356 148.713 0.965752C149.046 1.81255 150.341 2.20772 150.846 2.83274C159.396 13.4116 167.119 25.0995 178 32.9384Z" fill="#60615A"/>
<path d="M325.372 183.19C322.721 183.787 319.835 183.579 317.245 184.293C314.435 185.068 311.309 187.841 308.319 188.791C307.215 189.141 304.985 188.984 304.778 189.114C304.725 189.149 305.275 190.024 305.042 190.441C304.68 191.092 293.513 196.145 293.011 195.685C294.808 194.178 295.239 191.244 293.026 190.054C292.24 189.633 288.494 193.728 286.542 193.059L287.13 189.774C281.863 188.398 278.966 184.018 273.494 182.308C266.186 180.021 263.224 181.008 256.122 176.723C252.814 174.728 249.644 172.358 246.529 170.02C246.021 170.738 250.126 180.973 250.926 182.539C254.582 189.698 255.42 187.391 261.045 190.311C263.404 191.533 269.694 197.175 271.59 193.714C271.59 193.714 278.7 196.825 279.801 197.022C283.774 197.734 288.979 192.105 292.4 195.386C295.312 198.18 291.771 202.745 289.769 204.903C288.652 206.107 285.408 208.876 284.187 208.532C286.342 206.225 290.029 203.064 291.289 200.015C291.811 198.755 292.184 198.741 290.949 197.671C290.402 200.407 288.601 202.041 286.055 201.5L284.416 199.126L278.3 200.308C278.3 200.308 271.99 199.632 268.303 197.988C265.186 196.599 262.265 193.952 259.034 192.559C254.603 190.65 249.88 190.237 245.346 188.781C226.831 182.832 187.697 147.754 174.428 131.192C160.006 113.193 150.269 88.0968 128.245 79.8312C128.091 78.6736 129.58 79.1843 130.162 79.3307C131.968 79.7864 133.414 81.2146 135.3 81.1535C135.76 80.6714 130.084 71.883 131.475 69.9687L133.532 73.2541C134.234 67.3138 128.543 63.7476 124.133 62.3846C114.636 59.447 97.0244 59.5813 89.2733 67.3301C83.2099 73.3904 87.1618 76.3342 89.2551 82.9682C91.8812 91.3009 94.551 99.8777 94.7056 108.802L97.6354 105.513C96.1805 109.405 95.3058 111.677 96.1369 116.083C98.101 126.499 120.292 142.335 128.523 148.312C158.875 170.348 190.569 188.817 219.638 213.588C226.905 219.778 230.386 226.762 236.511 233.551C241.642 239.235 260.316 256.85 266.115 260.337C269.736 262.516 274.929 263.639 276.531 258.23C273.545 258.681 270.968 257.534 268.591 255.593C266.892 254.206 256.702 241.141 257.71 239.796C266.017 244.756 271.462 262.992 282.416 251.968L275.361 246.703C274.698 244.569 265.101 235.719 266.535 233.872C273.257 238.224 279.264 251.435 288.314 247.374C292.515 245.488 291.273 240.897 290.058 237.16C282.811 239.259 274.976 229.151 274.772 221.367L276.924 224.028C280.63 224.25 286.395 224.168 289.636 226.125C291.795 227.429 296.37 234.995 298.831 230.143C300.368 227.11 295.434 221.28 293.292 219.406C289.96 216.493 285.915 215.771 282.229 213.35C281.363 212.782 273.71 206.777 274.774 205.566L280.956 209.545C282.616 209.336 282.469 210.827 283.405 211.35C288.918 214.424 294.715 215.014 298.602 221.353C301.31 216.285 303.22 217.522 301.252 222.677C304.254 223.249 305.462 221.686 305.38 218.405L304.034 218.073L303.614 216.767C307.599 215.223 307.195 209.354 311.253 208.191C311.149 207.302 310.452 207.041 309.758 206.911C308.695 206.71 306.248 207.544 305.962 206.234C308.461 204.911 311.698 206.232 314.057 205.131C314.346 204.995 318.094 200.171 318.192 199.836C318.503 198.776 318.918 195.683 317.141 196.347C317.934 202.383 309.974 204.274 312.411 197.327C312.402 196.239 309.847 197.553 310.669 196.031C311.731 194.062 317.551 193.289 319.24 194.992C320.173 195.934 319.738 198.192 320.955 197.663C323.157 195.488 325.269 193.352 324.192 189.774C322.919 190.325 321.948 194.487 320.368 194.213C318.007 193.806 319.64 189.959 319.487 189.77C318.309 190.396 317.119 190.947 316.55 189.119L324.72 187.058L325.372 183.19ZM272.126 205.56C270.713 205.373 258.863 195.651 259.468 195.041L272.41 204.262L272.126 205.56Z" fill="#F6CEAE"/>
<path d="M238.205 121.07C236.229 106.026 232.994 90.2328 228.571 75.8927L227.986 75.2437L225.927 76.5416C232.498 65.9 220.171 48.3964 212.989 41.323C200.187 28.7161 188.308 28.3865 174.73 40.0373C179.604 46.9093 184.094 54.1821 187.19 62.2829C187.619 63.4058 190.878 75.5692 191.789 74.5744L192.969 72.6031C192.131 87.1508 187.866 101.019 189.525 115.622C190.621 125.254 196.405 144.686 200.769 153.07C202.966 157.289 218.338 169.094 222.799 172.533C230.783 178.688 238.959 185.847 248.876 187.129C239.983 166.694 241.102 143.13 238.205 121.07ZM207.093 82.4698L200.046 80.1689C199.978 77.7033 208.782 80.824 207.093 82.4698Z" fill="#F6CEAE"/>
<path d="M259.472 267.441C261.485 266.937 263.187 263.509 263.598 261.519C267.214 264.031 270.595 264.849 274.769 263.503C268.72 273.215 262.045 284.825 249.911 279.785C247.05 278.597 246.165 277.194 244.828 274.274C241.316 266.595 239.85 257.375 237.113 249.335C237.155 249.274 237.222 249.158 237.246 248.996C237.259 248.914 237.257 248.845 237.25 248.79C236.977 248.129 236.571 247.157 236.069 245.985C234.353 241.983 233.456 240.238 232.701 238.472C231.867 236.523 230.834 233.685 230.05 229.926C239.485 242.01 251.646 250.824 262.74 260.856L259.47 267.443L259.472 267.441Z" fill="#F6CEAE"/>
<path d="M278.306 225.973C280.776 227.788 289.039 226.528 288.883 230.827C288.809 232.857 288.032 235.089 285.977 234.186C284.631 233.594 277.382 227.232 278.306 225.973Z" fill="#F6CEAE"/>
<path d="M331.259 184.509C330.699 187.953 330.647 191.908 326.562 191.741L325.962 188.461C326.975 188.447 328.331 187.896 329.072 187.174C330.208 186.067 329.43 184.106 331.259 184.509Z" fill="#F6CEAE"/>
<path d="M316.547 195.698C316.652 197.929 315.335 200.68 313.022 200.299L313.275 196.31L316.547 195.698Z" fill="#F6CEAE"/>
<path d="M330.083 182.535C329.248 184.621 328.424 187.123 325.967 187.133C326.02 183.719 326.813 182.216 330.083 182.535Z" fill="#F6CEAE"/>
<path d="M301.049 176.207C301.49 174.259 304.528 169.082 305.88 174.01C305.552 174.449 301.049 176.207 301.049 176.207Z" fill="#6EB8D8"/>
<path d="M325.124 170.757C325.061 169.343 332.629 166.622 329.381 170.055C329.145 171.402 325.647 171.329 325.124 170.757Z" fill="#6EB8D8"/>
<path d="M341.336 198.62C341.825 198.97 347.483 198.3 343.711 200.817L341.336 198.62Z" fill="#6EB8D8"/>
<path d="M324.796 207.587C324.941 207.078 331.723 206.695 328.071 209.345L324.796 207.587Z" fill="#6EB8D8"/>
<path d="M318.082 221.474C318.082 221.474 322.012 221.65 322.504 223.495C322.996 225.34 318.082 221.474 318.082 221.474Z" fill="#6EB8D8"/>
<path d="M308.419 233.866C307.997 234.31 309.555 240.216 310.958 236.502L308.419 233.866Z" fill="#6EB8D8"/>
<path d="M304.489 245.468C304.014 245.801 303.778 251.01 305.928 249.072C306.274 247.861 306.217 245.538 304.489 245.468Z" fill="#6EB8D8"/>
<path d="M305.928 259.005C305.377 259.784 306.493 264.232 308.411 262.961C308.538 261.511 307.785 258.881 305.928 259.005Z" fill="#6EB8D8"/>
<path d="M275.256 278.341C274.477 278.981 271.899 284.175 275.665 282.911C276.494 282.088 276.459 279.001 275.256 278.341Z" fill="#6EB8D8"/>
<path d="M256.138 269.661C254.774 270.343 253.291 273.064 255.585 273.946C257.667 274.306 256.372 270.023 256.138 269.661Z" fill="#6EB8D8"/>
<path d="M251.163 253.577C249.947 253.972 247.329 256.62 249.923 257.73C251.994 257.799 251.598 254.52 251.163 253.577Z" fill="#6EB8D8"/>
<path d="M264.613 227.011C262.424 227.252 260.93 230.65 263.26 232.022C264.979 231.74 265.795 228.055 264.613 227.011Z" fill="#6EB8D8"/>
<path d="M285.616 228.198C285.616 228.198 285.984 230.703 286.966 231.494C290.371 233.148 288.178 224.782 285.616 228.198Z" fill="#6EB8D8"/>
<path d="M303.547 215.276C302.129 216.069 303.969 220.692 304.408 218.638C305.069 216.037 304.728 216.872 303.547 215.276Z" fill="#6EB8D8"/>
<path d="M310.958 201.169C310.355 202.433 314.721 203.046 314.561 201.828C313.948 200.928 311.846 199.799 310.958 201.169Z" fill="#6EB8D8"/>
<path d="M305.513 188.973C305.572 190.737 309.66 191.413 308.769 188.973C308.153 188.908 305.513 188.973 305.513 188.973Z" fill="#6EB8D8"/>
<path d="M284.448 185.481C284.448 185.481 284.324 185.283 286.598 185.15C288.871 185.018 287.167 182.579 287.167 182.579C285.678 180.983 284.643 185.057 284.448 185.481Z" fill="#6EB8D8"/>
<path d="M293.672 195.432C293.683 195.258 293.774 195.1 293.912 195.007C295.065 194.238 295.968 194.182 296.486 194.222C299.012 194.423 301.443 197.659 302.227 202.484C302.337 203.171 302.678 203.784 303.168 204.238C303.971 204.986 303.015 205.192 302.039 205.229C301.173 205.263 300.336 204.875 299.78 204.163C295.049 198.122 300.616 213.067 299.067 212.903C295.321 211.376 299.538 217.03 299.128 217.649C298.534 220.914 296.15 215.762 294.38 215.307C294.196 215.26 294.01 215.21 293.836 215.129C290.155 213.438 287.569 212.26 285.863 211.485C284.133 210.699 282.537 209.978 282.581 209.121C282.616 208.429 283.698 208.093 284.945 207.478C288.269 205.842 290.723 203.25 291.911 201.331C292.569 200.269 293.477 198.385 293.674 195.428L293.672 195.432Z" fill="#6EB8D8"/>
<path d="M295.439 234.449C295.985 234.067 296.718 234.398 296.845 235.084C297.479 238.543 299.037 248.488 296.978 253.183C296.493 252.89 300.52 273.571 295.872 268.28C295.119 267.357 295.015 262.516 294.474 259.049C294.277 257.791 292.523 258.066 292.659 259.332C294.273 274.289 294.109 279.598 289.101 257.346C289.028 257.02 288.807 256.753 288.51 256.646C285.758 255.633 288.009 262.187 288.07 264.25C288.07 264.292 288.073 264.331 288.079 264.371C288.239 265.379 288.517 274.285 288.256 277.352C288.177 278.277 287.064 278.586 286.581 277.817C285.387 275.912 284.967 270.452 284.328 266.611C284.142 265.49 282.607 265.547 282.513 266.683C282.474 267.139 282.375 267.474 282.178 267.555C279.219 268.545 279.676 263.344 277.911 264.835C277.848 264.889 277.798 264.956 277.752 265.025C277.725 265.067 277.695 265.104 277.666 265.14C277.439 265.409 277.082 265.516 276.759 265.409C276.555 265.342 276.304 265.201 276.039 264.918C274.845 263.645 277.238 255.489 283.552 250.503C287.206 247.618 288.195 248.935 290.104 246.461C293.23 242.407 292.289 236.658 295.445 234.451L295.439 234.449Z" fill="#6EB8D8"/>
<path d="M339.524 181.526C338.111 173.194 326.274 177.523 321.397 178.483C320.072 178.745 318.646 178.362 317.365 178.616C310.502 179.978 303.303 186.445 296.619 188.937C294.991 186.387 293.115 184.785 290.109 185.101C289.066 185.211 287.902 186.153 287.072 186.121C286.189 186.087 285.296 185.016 284.402 184.71C283.645 184.451 282.65 183.527 281.765 182.444C277.579 177.332 268.303 177.776 262.893 175.814C260.06 174.788 247.938 167.715 246.135 165.563C244.813 163.99 244.441 158.994 244.157 156.665C240.983 130.655 241.544 108.304 233.212 82.7187C232.481 80.4706 229.851 76.1674 229.571 74.4365C229.197 72.1239 230.764 68.4668 229.688 63.7953C226.464 49.795 211.566 31.6022 198.539 28.3195C192.048 26.6832 186.9 27.8304 180.646 29.7908L153.339 0.459724C153.135 0.359089 152.587 0.224238 151.931 0.125616C151.024 -0.00923476 149.913 -0.0716284 149.217 0.125616C148.693 0.274556 148.403 0.56841 148.612 1.0897C148.949 1.93503 150.26 2.32952 150.771 2.95346C159.425 13.5141 167.242 25.1817 178.255 33.0071C177.551 34.5488 174.138 35.1184 173.642 35.4968C173.008 35.9818 170.973 39.4377 169.569 39.7456C165.603 36.9178 160.358 36.4226 157.186 32.7193C152.772 27.5688 150.929 20.7236 148.246 14.5225C147.837 13.5805 146.919 10.8312 145.645 11.1955C146.065 19.5341 149.523 28.4121 154.536 34.6313L150.386 35.2834L149.188 28.1263L147.423 28.1223L148.605 36.5675C142.354 37.4149 137.77 51.2965 133.972 39.4377L134.96 19.0088C132.655 21.4341 133.06 26.3551 132.437 29.5855C132.316 30.2135 132.224 31.5398 131.414 31.3788C130.666 20.3613 123.951 9.74028 114.808 5.33448C114.698 6.85004 116.047 7.48404 116.794 8.6031C118.196 10.7003 121.035 13.1176 122.771 15.7945C129.424 26.0613 129.264 42.0501 130.813 54.1726C126.101 51.7151 121.444 51.1979 116.259 51.538C114.441 51.6588 109.343 51.691 109.467 54.1746H122.217C123.011 54.1746 131.071 56.4369 131.324 56.8717L131.997 67.1968L126.631 62.3542C111.276 55.7928 90.812 55.4728 79.7992 70.9445C78.8865 72.2265 78.8425 74.2956 77.4497 75.0161L76.8467 68.8834C82.3779 62.3985 89.4466 57.0286 97.6041 55.4628L97.6077 53.5286C94.0651 53.5527 90.5939 54.6959 87.3977 56.3141C84.6211 57.717 82.0608 60.6294 79.2219 61.362L79.7149 62.5334L75.6665 65.8926C75.9304 65.164 76.0642 64.7856 75.9817 63.9624C74.4165 48.3177 69.3674 20.158 78.9195 7.27875L85.1508 0.775718C83.6498 0.391292 82.5795 1.46004 81.3021 1.7559C80.8714 1.85654 80.3509 2.41808 79.8872 3.06617C79.2421 3.96786 77.6641 4.60387 76.5993 6.03088C71.4805 12.9002 70.3992 21.1805 69.7413 29.7606L70.3223 41.7985L68.4089 33.0131C65.6103 28.0659 65.5572 20.4579 63.8912 14.6794C63.642 13.814 63.6878 12.6969 62.6248 12.4957C62.6542 19.2382 63.6457 26.9227 65.1522 33.4861C66.4699 39.2324 69.2025 44.6264 70.6283 50.266C71.7224 54.5933 74.7336 78.3552 76.8321 79.9613L82.2551 79.9553C84.6669 83.6707 74.8674 99.3134 73.8576 101.219C72.5105 103.761 52.9023 123.568 49.8856 125.831C39.4337 133.676 29.9567 139.644 21.0937 150.219L15.7769 157.72C15.1923 152.489 16.675 148.019 18.2823 143.224C20.038 137.981 26.3517 122.218 29.6158 118.875C34.8977 113.467 51.8961 112.577 59.062 110.176C59.8886 109.317 58.9997 108.946 58.1622 108.856C55.3984 108.558 50.0231 110.061 46.9295 110.21C42.6061 110.417 37.6852 110.601 33.5543 109.206C35.6509 108.705 43.4436 64.9285 48.8098 45.8481C53.1259 30.5053 59.0144 15.6294 62.6175 0.125616L57.9331 0.185997C52.3671 20.0091 45.412 39.2203 40.2529 59.2446C35.7114 76.8799 31.5127 94.8774 28.8131 112.96C20.3899 120.875 9.91593 146.085 11.0907 157.982C11.5251 162.383 13.2753 170.744 14.1788 175.428C20.1242 206.196 28.5107 221.315 54.4931 234.718C55.3398 235.155 56.5494 234.998 57.1249 235.398C57.7883 235.859 60.2185 241.645 61.177 242.994C64.54 247.726 69.7651 248.752 74.4312 251.232C75.6793 255.12 76.9897 259.075 77.8639 263.093C78.9397 268.04 80.4004 276.848 80.4663 281.831C80.4847 283.288 78.0361 285.359 77.3141 287.501C75.8277 291.915 77.1839 296.604 78.038 301H156.612C158.575 301 161.833 297.669 162.215 295.435C162.95 291.122 159.995 280.68 157.514 277.21C156.678 276.041 155.175 275.867 154.79 274.36C154.18 271.971 152.29 260.565 152.219 258.286C152.1 254.543 154.085 249.29 153.942 244.681C153.669 235.909 150.518 223.024 148.863 214.08C147.3 205.63 147.905 196.311 146.767 187.423C146.189 182.923 144.681 177.901 143.4 173.562L147.188 168.178C153.967 171.692 160.688 176.281 167.17 180.645C175.196 186.049 183.157 191.751 191.023 197.433C198.266 202.666 221.723 218.272 224.391 225.912C225.614 229.412 226.156 234.17 227.467 238.166C228.596 241.613 230.417 244.824 231.486 248.078C234.235 256.467 236.192 270.328 240.543 277.687C243.164 282.119 252.174 284.566 256.766 283.993C263.208 283.188 270.642 274.662 273.614 268.634C276.42 262.942 278.282 254.33 283.973 250.379C284.653 249.908 286.977 249.722 288.364 249.01C293.666 246.289 293.463 240.856 293.307 235.227L294.165 236.515C298.693 234.645 302.859 232.26 302.221 226.132C306.202 225.826 308.145 224.962 309.497 220.774C309.871 219.621 309.719 217.737 310.19 216.974C310.634 216.251 313.934 215.666 315.51 213.047C317.532 209.692 316.243 207.434 316.749 205.882C316.874 205.501 320.95 200.087 321.371 199.622C323.963 196.76 327.438 197.823 330.823 196.65C336.601 194.647 340.659 188.224 339.524 181.526ZM329.476 181.828C328.633 183.889 327.802 186.367 325.326 186.377C325.38 182.997 326.179 181.512 329.476 181.828ZM287.14 188.891C287.609 188.341 288.08 187.79 288.549 187.24C288.712 187.049 288.951 186.96 289.185 187.001L290.433 187.22C291.045 187.329 291.254 188.18 290.772 188.609C290.023 189.279 289.051 190.076 288.271 190.495C287.167 191.086 286.971 190.056 286.946 189.472C286.936 189.257 287.004 189.048 287.14 188.891ZM211.474 42.1186C218.712 49.1167 231.134 66.434 224.512 76.9624L226.587 75.6783L227.177 76.3204C231.634 90.5079 234.895 106.132 236.885 121.016C239.805 142.842 238.677 166.155 247.639 186.373C237.646 185.105 229.406 178.022 221.36 171.932C216.864 168.53 201.374 156.85 199.16 152.676C194.762 144.382 188.934 125.156 187.829 115.626C186.157 101.179 190.455 87.4586 191.3 73.0658L190.11 75.0161C189.192 76.0003 185.908 63.9664 185.475 62.8554C182.356 54.8408 177.831 47.6454 172.92 40.8465C186.603 29.3198 198.574 29.6459 211.474 42.1186ZM195.449 149.909L177.675 132.966L178.031 131.633L187.149 125.817C187.449 134.715 192.312 142.057 195.449 149.909ZM248.682 278.039C245.799 276.864 244.907 275.477 243.56 272.587C240.021 264.989 238.544 255.867 235.785 247.913C235.861 247.833 235.905 247.72 235.919 247.581C235.919 247.563 235.923 247.545 235.925 247.525C235.927 247.488 235.926 247.452 235.926 247.412C235.926 247.4 235.925 247.386 235.925 247.374C235.864 246.196 234.471 243.668 233.13 241.032C233.126 241.026 233.122 241.018 233.119 241.011C232.457 239.705 231.808 238.375 231.341 237.167C230.306 234.496 229.437 231.495 228.669 228.71C238.177 240.665 250.432 249.388 261.612 259.311L258.317 265.828C260.344 265.329 262.059 261.938 262.475 259.969C266.117 262.455 269.526 263.264 273.732 261.931C267.634 271.54 260.91 283.025 248.682 278.039ZM324.069 186.302L315.837 188.341C316.41 190.151 317.609 189.605 318.796 188.985C318.95 189.172 317.305 192.978 319.683 193.381C321.276 193.653 322.255 189.535 323.538 188.989C324.623 192.53 322.495 194.643 320.275 196.794C319.049 197.318 319.487 195.084 318.547 194.152C316.845 192.467 310.98 193.232 309.91 195.18C309.081 196.686 311.656 195.386 311.665 196.462C309.21 203.336 317.231 201.464 316.432 195.492C318.223 194.836 317.805 197.895 317.492 198.944C317.393 199.276 313.615 204.048 313.324 204.183C310.947 205.272 307.685 203.966 305.167 205.274C305.454 206.57 307.921 205.745 308.991 205.944C309.692 206.073 310.393 206.331 310.498 207.21C306.409 208.361 306.816 214.168 302.801 215.696L303.224 216.988L304.58 217.316C304.663 220.562 303.446 222.108 300.42 221.543C302.403 216.442 300.478 215.219 297.75 220.232C293.833 213.961 287.99 213.377 282.435 210.336C281.491 209.819 281.64 208.343 279.967 208.551L273.737 204.614C272.665 205.811 280.377 211.753 281.25 212.314C284.965 214.71 289.04 215.424 292.398 218.306C294.557 220.16 299.529 225.928 297.98 228.929C295.501 233.73 290.89 226.244 288.714 224.954C285.448 223.018 279.639 223.098 275.904 222.879L273.735 220.246C273.941 227.947 281.836 237.948 289.139 235.871C290.364 239.568 291.615 244.111 287.382 245.977C278.262 249.994 272.209 236.924 265.435 232.619C263.989 234.446 273.66 243.201 274.329 245.313L281.438 250.521C270.4 261.428 264.913 243.386 256.541 238.479C255.526 239.81 265.794 252.735 267.506 254.108C269.901 256.028 272.498 257.163 275.508 256.717C273.893 262.068 268.661 260.957 265.012 258.802C259.167 255.352 240.349 237.924 235.179 232.301C229.006 225.584 225.498 218.675 218.175 212.55C188.881 188.043 156.942 169.77 126.356 147.968C118.061 142.055 95.698 126.388 93.7187 116.083C92.8812 111.724 93.7627 109.476 95.2289 105.625L92.2764 108.88C92.1206 100.05 89.4301 91.5645 86.7837 83.3205C84.6743 76.7571 80.6918 73.8447 86.802 67.8489C94.6131 60.1825 112.361 60.0497 121.932 62.956C126.376 64.3046 132.11 67.8328 131.403 73.7099L129.33 70.4594C127.928 72.3533 133.648 81.0482 133.184 81.5252C131.284 81.5856 129.827 80.1727 128.007 79.7218C127.421 79.5769 125.92 79.0717 126.075 80.2169C148.27 88.3945 158.082 113.223 172.615 131.032C185.987 147.417 225.423 182.122 244.082 188.007C248.651 189.448 253.411 189.857 257.875 191.745C261.132 193.123 264.075 195.742 267.216 197.117C270.931 198.743 277.291 199.411 277.291 199.411L283.454 198.242L285.106 200.59C287.671 201.126 289.486 199.51 290.037 196.803C291.282 197.861 290.906 197.875 290.38 199.121C289.11 202.138 285.395 205.266 283.223 207.548C284.453 207.888 287.723 205.149 288.848 203.958C290.866 201.822 294.434 197.306 291.5 194.542C288.053 191.296 282.807 196.865 278.803 196.16C277.694 195.965 270.528 192.888 270.528 192.888C268.619 196.311 262.279 190.73 259.902 189.521C254.234 186.632 253.389 188.915 249.705 181.832C248.898 180.282 244.762 170.156 245.273 169.446C248.413 171.759 251.607 174.103 254.941 176.078C262.098 180.317 265.083 179.34 272.447 181.603C277.962 183.295 280.881 187.629 286.189 188.989L285.597 192.24C287.563 192.902 291.339 188.85 292.13 189.267C294.361 190.444 293.926 193.347 292.116 194.838C292.622 195.293 303.874 190.293 304.239 189.649C304.474 189.237 303.92 188.371 303.973 188.337C304.182 188.208 306.429 188.363 307.542 188.017C310.555 187.077 313.705 184.334 316.537 183.567C319.146 182.861 322.055 183.066 324.727 182.476L324.069 186.302ZM322.704 188.468C322.704 188.468 321.524 190.704 320.587 191.688C319.65 192.672 319.365 190.942 319.365 190.942L320.017 188.468H322.704ZM312.281 199.401L312.536 195.454L315.833 194.848C315.937 197.058 314.611 199.779 312.281 199.401ZM287.954 229.606C287.88 231.614 287.096 233.824 285.027 232.928C283.669 232.343 276.365 226.049 277.296 224.803C279.785 226.599 288.111 225.353 287.954 229.606ZM284.695 197.612L285.611 195.297C285.782 194.866 286.321 194.57 286.935 194.57H288.802C288.945 194.629 289.541 194.892 289.634 195.422C289.691 195.744 289.537 196.018 289.207 196.497C288.331 197.763 287.893 198.397 287.041 198.87C286.53 199.153 286.117 199.375 285.644 199.22C285.129 199.053 284.836 198.521 284.697 198.177C284.622 197.994 284.622 197.797 284.695 197.612ZM325.926 190.936L325.321 187.691C326.342 187.675 327.709 187.13 328.455 186.415C329.6 185.32 328.816 183.382 330.66 183.78C330.097 187.188 330.044 191.101 325.926 190.936Z" fill="black"/>
<path d="M322.704 188.468C322.704 188.468 321.524 190.704 320.587 191.688C319.65 192.672 319.365 190.942 319.365 190.942L320.017 188.468H322.704Z" fill="#F6CEAE"/>
<path d="M290.772 188.609C290.023 189.279 289.051 190.076 288.271 190.495C287.167 191.086 286.971 190.056 286.946 189.472C286.936 189.257 287.004 189.048 287.14 188.891C287.609 188.341 288.08 187.79 288.549 187.24C288.712 187.049 288.951 186.96 289.185 187.001L290.433 187.22C291.045 187.329 291.254 188.18 290.772 188.609Z" fill="#F6CEAE"/>
<path d="M289.207 196.497C288.331 197.763 287.893 198.397 287.041 198.87C286.53 199.153 286.117 199.375 285.644 199.22C285.129 199.053 284.836 198.521 284.697 198.177C284.622 197.994 284.622 197.797 284.695 197.612L285.611 195.297C285.782 194.866 286.321 194.57 286.935 194.57H288.802C288.945 194.629 289.541 194.892 289.634 195.422C289.691 195.744 289.537 196.018 289.207 196.497Z" fill="#F6CEAE"/>
<path d="M59.6503 103.673L59.6577 105.621L49.5796 108.23C48.8355 102.188 55.1785 100.322 57.4602 96.0549L73.0053 82.7791L75.069 82.8395L53.1332 104.651L59.6503 103.673Z" fill="black"/>
<path d="M271.355 203.326L271.069 204.61C269.645 204.425 257.703 194.806 258.313 194.202L271.355 203.326Z" fill="black"/>
<path d="M205.533 82.8274L198.431 80.5511C198.363 78.1117 207.234 81.1991 205.533 82.8274Z" fill="black"/>
</svg>
