<svg width="356" height="301" viewBox="0 0 356 301" fill="none" xmlns="http://www.w3.org/2000/svg">
<path d="M0 10C0 4.47716 4.47715 0 10 0H346C351.523 0 356 4.47715 356 10V291C356 296.523 351.523 301 346 301H10C4.47715 301 0 296.523 0 291V10Z" fill="#8F9B87"/>
<path d="M216.704 138.541L206.36 178.099L206.38 180.749L207.677 181.074L213.582 162.671C215.31 162.795 213.576 182.066 213.576 182.066C213.576 183.219 214.946 186.363 215.506 187.611L209.66 192.913C209.175 186.808 204.612 180.042 203.824 174.12C203.262 169.904 204.462 161.021 205.242 156.588C206.754 148.003 212.386 138.065 209.949 129.817C209.096 126.931 201.528 115.426 200.181 113.993C197.754 111.416 195.123 108.927 192.298 106.797C190.083 105.128 187.703 102.581 184.807 102.829C191.738 109.506 200.041 115.898 204.675 124.598C211.292 137.028 204.359 143.595 202.63 155.928C202.216 158.883 202.563 161.476 202.369 164.222C202.294 165.275 202.454 167.569 201.159 167.927C197.915 157.497 194.45 147.05 190.526 136.858C188.974 132.832 187.402 127.686 184.813 124.525C184.219 129.628 186.652 133.762 187.889 138.193C191.69 151.796 196.552 165.191 201.496 178.432C202.725 181.723 208.32 192.545 207.58 195.074C207.253 196.2 198.534 204.443 197.174 205.045C193.658 206.601 186.497 202.955 182.51 206.069C182.051 207.351 183.704 207.319 184.456 207.41C187.78 207.809 191.261 208.018 194.614 208.048C190.762 212.388 185.49 215.928 182.833 221.19L181.568 221.141C181.568 221.141 176.223 219.739 174.035 219.538C159.751 218.227 130.825 219.513 129.235 219.218L128.574 206.725L173.035 207.382C173.405 205.768 172.437 205.939 171.226 205.618C162.283 203.254 128.746 205.61 128.564 204.376C127.838 193.921 129.144 184.56 130.728 174.368C133.46 156.8 137.067 139.191 142.318 122.222L141.009 121.239L136.139 134.728L129.237 164.636C129.275 153.822 129.525 142.872 130.544 132.094C130.972 127.551 131.57 118.19 133.102 114.28C133.955 112.101 137.731 109.654 139.778 108.5C141.702 107.416 147.239 105.122 148.035 104.852C155.481 102.331 161.891 102.401 169.454 101.51C170.374 101.403 171.372 101.104 170.422 100.199C157.789 97.6549 145.6 101.748 134.466 107.423C133.27 106.52 136.515 94.9619 136.244 92.4336C136.145 91.5109 136.517 90.6411 135.123 90.3301C131.385 104.26 128.01 118.308 126.622 132.75C125.898 140.264 125.939 147.926 125.3 155.43L119.42 108.738H117.464C118.46 125.753 120.271 142.79 122.768 159.612C123.304 163.216 124.975 166.925 125.298 170.898C125.547 173.975 125.783 181.9 125.276 184.666C124.827 187.121 117.327 194.112 117.327 194.112C116.702 195.131 108.401 199.982 106.762 201.557C105.845 202.439 105.403 202.502 105.696 204.093C110.123 203.11 113.202 200.272 116.716 197.74C117.49 197.181 123.564 190.568 125.304 192.263L124.985 216.591L33.7835 263.612C34.6646 265.049 35.1879 264.246 36.172 264.252C38.7867 264.275 42.3977 264.049 45.0933 263.876C59.4017 262.956 95.871 261.061 107.462 254.869C108.163 254.495 109.727 253.702 108.642 252.769C104.988 253.954 101.099 255.147 97.3259 255.854C81.993 258.734 64.1908 259.7 48.5022 260.679C47.7929 260.724 46.0228 261.1 46.1986 260.002C68.2887 249.899 89.7807 238.498 111.362 227.226L125.304 218.568C125.565 219.93 124.848 222.655 125.45 223.69C125.947 224.545 132.419 228.466 132.522 228.895C131.821 237.677 131.14 246.56 131.746 255.295C122.972 258.454 115.233 264.224 106.793 268.006C101.507 270.376 95.8367 271.841 90.4798 273.993C89.6089 274.343 88.3844 274.095 88.6895 275.443C88.9401 276.495 94.8122 275.042 95.8912 274.798C103.509 273.085 111.044 269.085 117.901 265.37C122.593 262.827 127.741 259.866 131.839 256.71C130.982 260.474 133.945 266.157 133.666 269.378C133.482 271.49 129.045 284.958 127.955 287.32C127.529 288.245 127.147 288.982 126.288 289.588H25.2704C5.79304 289.588 1.07879 262.699 1.07879 262.699V204.427C28.067 154.064 57.8741 95.6469 112.641 71.3394C131.36 63.031 159.417 56.2164 179.794 58.3504C190.675 59.4906 201.87 66.5857 212.925 67.9738C209.389 81.9445 203.905 98.1284 209.983 112.026C210.878 106.083 209.888 99.921 210.314 93.9539C210.923 85.4341 213.954 77.1114 214.232 68.6303C217.649 68.0896 216.926 71.4675 216.344 73.7295C215.514 76.957 213.806 79.9913 212.97 83.4708C209.866 96.3562 211.763 112.278 214.222 125.182C211.727 125.32 210.771 115.331 209.001 117.294C208.439 125.218 213.353 131.866 216.704 138.541Z" fill="#60615A"/>
<path d="M344.091 42.597C333.142 27.7447 319.913 17.6442 301.431 14.3661C299.592 14.0393 297.487 14.6563 295.733 14.159C294.597 13.8363 290.965 10.487 289.146 9.5858C264.486 -2.62164 238.14 18.6754 225.183 38.3973C220.437 45.6174 215.739 54.9161 215.212 63.5551C198.504 58.2105 182.612 49.2468 164.441 51.8125C148.812 54.0189 131.764 57.1895 116.935 62.7127C58.9998 84.2899 26.9215 140.533 0 192.618L0.65499 203.784C27.7387 153.485 57.6512 95.1414 112.612 70.8645C131.397 62.5666 159.554 55.7605 180.002 57.8919C190.922 59.0306 202.157 66.1168 213.251 67.5031C209.702 81.4562 204.199 97.6198 210.298 111.5C211.197 105.565 210.203 99.4101 210.631 93.4505C211.241 84.9415 214.283 76.6293 214.563 68.1588C217.992 67.6188 217.266 70.9924 216.682 73.2516C215.848 76.475 214.135 79.5055 213.295 82.9806C210.181 95.8498 212.085 111.752 214.553 124.639C212.048 124.777 211.089 114.8 209.313 116.761C208.749 124.676 213.681 131.315 217.043 137.981L206.662 177.49L206.683 180.137L207.985 180.462L213.91 162.081C215.644 162.205 213.904 181.452 213.904 181.452C213.904 182.603 215.279 185.743 215.84 186.989L209.974 192.285C209.487 186.188 204.908 179.43 204.117 173.515C203.554 169.306 204.758 160.433 205.541 156.006C207.058 147.432 212.709 137.506 210.264 129.269C209.408 126.387 201.814 114.896 200.461 113.465C198.026 110.891 195.386 108.404 192.551 106.277C190.328 104.611 187.939 102.067 185.034 102.315C191.989 108.983 200.321 115.367 204.971 124.056C211.612 136.471 204.655 143.029 202.919 155.346C202.503 158.298 202.852 160.888 202.657 163.63C202.582 164.682 202.743 166.973 201.443 167.33C198.188 156.913 194.71 146.48 190.772 136.3C189.215 132.279 187.637 127.14 185.04 123.983C184.443 129.08 186.885 133.209 188.126 137.634C191.94 151.22 196.819 164.598 201.781 177.823C203.014 181.109 208.629 191.918 207.887 194.443C207.559 195.568 198.809 203.801 197.444 204.401C193.915 205.956 186.729 202.315 182.728 205.424C182.268 206.705 183.926 206.673 184.681 206.764C188.016 207.162 191.51 207.371 194.875 207.402C191.01 211.735 185.719 215.271 183.052 220.526L181.783 220.478C181.783 220.478 176.419 219.077 174.223 218.876C159.888 217.567 130.86 218.852 129.264 218.557L128.601 206.08L173.219 206.736C173.59 205.124 172.619 205.295 171.404 204.974C162.429 202.613 128.773 204.966 128.591 203.734C127.863 193.292 129.173 183.943 130.763 173.763C133.504 156.217 137.124 138.631 142.394 121.684L141.08 120.701L136.193 134.173L129.266 164.044C129.305 153.243 129.556 142.307 130.578 131.542C131.008 127.006 131.608 117.656 133.145 113.751C134.001 111.575 137.791 109.131 139.845 107.978C141.776 106.896 147.332 104.604 148.131 104.335C155.604 101.818 162.036 101.887 169.626 100.997C170.549 100.89 171.55 100.591 170.597 99.6882C157.919 97.1469 145.688 101.235 134.514 106.902C133.314 106.001 136.57 94.4573 136.299 91.9322C136.199 91.0107 136.572 90.1419 135.173 89.8313C131.422 103.744 128.035 117.774 126.642 132.198C125.916 139.702 125.957 147.355 125.316 154.849L119.415 108.216H117.452C118.452 125.209 120.269 142.225 122.775 159.026C123.312 162.625 124.989 166.33 125.314 170.298C125.563 173.371 125.801 181.286 125.292 184.048C124.841 186.5 117.314 193.483 117.314 193.483C116.688 194.5 108.357 199.345 106.713 200.918C105.792 201.799 105.348 201.862 105.642 203.451C110.085 202.469 113.175 199.635 116.702 197.106C117.478 196.548 123.574 189.943 125.32 191.636L125 215.933L33.4754 262.895C34.3596 264.33 34.8848 263.528 35.8723 263.535C38.4964 263.557 42.1201 263.332 44.8252 263.159C59.1843 262.24 95.7826 260.348 107.414 254.163C108.118 253.789 109.687 252.998 108.598 252.066C104.932 253.249 101.029 254.441 97.2426 255.147C81.8554 258.024 63.9902 258.988 48.2462 259.966C47.5344 260.011 45.758 260.386 45.9344 259.29C68.1027 249.2 89.6707 237.813 111.328 226.555L125.32 217.908C125.582 219.268 124.862 221.99 125.466 223.023C125.965 223.878 132.46 227.793 132.563 228.222C131.86 236.992 131.176 245.865 131.785 254.589C122.98 257.743 115.213 263.506 106.743 267.284C101.438 269.65 95.7481 271.114 90.3723 273.264C89.4983 273.613 88.2695 273.365 88.5757 274.711C88.8271 275.762 94.72 274.311 95.8029 274.067C103.448 272.356 111.01 268.362 117.89 264.651C122.599 262.112 127.766 259.154 131.878 256.002C131.018 259.761 133.991 265.437 133.711 268.654C133.527 270.763 129.073 284.215 127.98 286.573C127.553 287.497 127.169 288.234 126.308 288.839H24.9322C24.7862 289.996 97.0398 288.096 131.564 289.896C133.967 288.997 134.526 277.695 135.494 277.666C140.233 288.944 154.458 297.218 166.54 293.645C167.979 293.219 171.575 290.998 172.234 291.037C172.796 291.069 176.054 293.789 177.93 294.305C184.677 296.16 190.448 294.124 196.006 290.3C209.236 281.198 231.994 243.565 239.836 228.427C250.354 208.116 253.98 188.402 273.668 173.627C277.853 170.489 287.068 166.334 290.029 163.074C300.634 151.396 310.313 136.518 320.588 124.702C324.416 120.301 328.531 119.112 332.674 115.781C357.908 95.4783 364.136 69.7887 344.091 42.597ZM234.356 226.884C226.478 241.267 217.968 255.854 208.268 269.076C200.542 279.609 189.641 295.837 174.537 288.171C174.126 286.652 174.902 287.079 175.367 286.677C181.093 281.732 187.134 277.029 192.595 271.78C211.036 254.057 226.456 233.294 241.454 212.651C239.495 217.522 236.877 222.284 234.356 226.884ZM331.198 94.5994C330.97 95.7118 329.109 101.513 328.383 101.657C322.656 97.563 315.522 105.408 311.99 109.527L304.451 114.782C306.243 112.919 308.005 110.39 309.767 108.615C312.252 106.117 318.688 101.87 319.42 98.5474C320.904 91.8023 312.58 90.9559 308.792 94.3985C308.322 94.8268 308.989 95.5331 308.405 96.0244C297.039 105.591 282.897 114.719 269.679 121.365C269.547 122.601 271.012 121.909 271.654 121.7C286.697 116.806 299.659 103.159 313.367 95.7382L316.916 96.406C317.374 97.0433 315.155 99.7024 314.628 100.346C310.303 105.64 301.723 114.532 296.587 119.067C292.213 122.928 286.936 125.743 282.799 129.888C289.177 128.747 294.141 123.11 299.245 119.757C300.873 118.687 302.78 118.119 304.398 117.033C311.203 112.474 317.631 107.414 324.56 103.044L326.098 103.975C326.412 105.571 322.399 110.093 321.192 111.514C313.298 120.809 304.298 128.782 294.611 136.136C295.078 137.08 296.218 136.008 296.808 135.708C306.46 130.812 313.594 124.32 320.884 116.459C321.503 115.793 322.121 115.097 322.176 114.137C323.419 114.023 322.766 115.462 322.472 116.077C321.31 118.503 317.745 121.635 315.989 124.038C308.948 133.682 300.954 143.555 294.638 153.231C289.672 160.841 276.986 165.759 269.468 171.394C256.73 180.945 250.111 195.253 241.073 207.992C224.7 231.073 195.236 270.832 171.853 285.826C151.655 298.777 133.853 275.308 133.853 256.327V221.846L176.068 221.951C179.99 225.333 177.79 229.748 177.567 233.814C177.516 234.743 177.086 235.291 178.463 235.637C179.244 229.697 182.606 224.653 186.362 220.222C202.67 200.983 228.585 183.464 241.081 160.711C247.219 149.531 242.788 142.252 243.084 130.528L263.133 101.343C264.51 100.123 268.075 94.9303 269.858 97.8756C275.15 106.622 263.093 116.205 261.248 125.084L262.446 125.948C262.503 124.292 263.537 123.896 265.078 123.975L263.721 122.962C266.252 113.645 279.165 107.596 272.583 96.4425C268.578 89.6568 262.701 97.1956 259.861 100.695C253.278 108.804 249.168 119.436 241.786 127.264C241.014 121.576 240.489 115.888 241.458 110.193C239.789 109.87 240.302 110.519 239.809 111.467C237.719 115.505 236.518 129.074 230.062 128.567C229.358 128.512 221.644 126.076 221.287 125.788C219.797 124.58 217.828 116.487 217.392 114.25C214.747 100.65 213.33 85.8082 220.886 73.5033C224.972 66.8475 227.914 72.0479 232.696 75.2794C237.644 73.9276 241.43 68.9524 246.884 71.5932C251.769 73.956 245.716 79.5644 249.131 85.045C250.251 86.8414 255.501 89.332 256.551 86.5531C247.217 85.6275 251.443 78.5393 252.449 72.9147C253.438 67.3752 253.404 57.2301 262.115 57.5996C273.295 58.0725 269.241 73.4201 267.053 79.9744C269.651 79.1828 272.2 78.1517 274.891 77.6462C292.174 74.3964 303.968 83.5612 322.34 76.5379C323.944 75.9249 327.568 73.4648 328.448 73.3876C330.851 73.1745 332.599 76.1401 332.725 78.3161C332.911 81.5658 331.883 91.2441 331.198 94.5994ZM218.503 180.468L222.433 131.214C227.732 132.728 232.128 133.66 237.489 131.885C238.1 132.308 239.479 144.864 239.519 146.616C239.805 158.919 226.819 172.389 218.503 180.468Z" fill="black"/>
<path d="M261.854 76.6049C261.675 76.3552 263.239 72.2123 261.144 70.7935C264.387 70.15 267.66 67.1763 266.049 63.5713C264.239 59.5218 254.894 62.1525 256.559 64.2148C259.029 62.3453 265.5 62.2276 264.421 66.5065C263.904 68.5668 262.012 65.725 260.789 65.524C259.457 65.3048 257.575 65.4022 257.208 66.8353C257.717 67.1763 262.077 66.2406 262.452 68.1466C255.326 69.7461 252.347 73.9194 253.278 81.2918C255.148 79.7349 261.136 76.6049 262.813 79.3147C264.237 81.6166 261.353 83.3501 260.824 85.2378C262.795 84.5558 264.664 82.3311 265.036 80.3073C265.038 77.5082 262.284 77.2037 261.854 76.6049ZM259.745 75.9493L255.243 77.3478C254.736 76.8444 257.571 70.9173 259.83 72.0987L259.745 75.9493Z" fill="black"/>
<path d="M332.244 78.6944C332.119 76.5171 330.374 73.5496 327.976 73.7629C327.098 73.8401 323.481 76.3018 321.881 76.9152C303.545 83.9428 291.775 74.7724 274.526 78.0242C271.84 78.5299 269.297 79.5617 266.704 80.3539C268.888 73.7954 272.933 58.4381 261.776 57.9649C253.082 57.5952 253.116 67.7467 252.129 73.2896C251.125 78.9179 246.907 86.0105 256.223 86.9367C255.175 89.7173 249.935 87.2251 248.818 85.4276C245.41 79.9436 251.451 74.3316 246.576 71.9674C241.132 69.3249 237.353 74.3032 232.415 75.6559C227.643 72.4224 224.707 67.2186 220.629 73.8787C213.088 86.1913 214.503 101.043 217.142 114.651C217.577 116.89 219.542 124.988 221.029 126.196C221.385 126.485 229.084 128.922 229.786 128.977C236.23 129.484 237.428 115.906 239.515 111.867C240.006 110.918 239.494 110.268 241.16 110.591C240.193 116.29 240.717 121.982 241.488 127.673C248.854 119.841 252.957 109.202 259.526 101.087C262.361 97.5858 268.226 90.0423 272.223 96.8323C278.792 107.993 265.905 114.046 263.379 123.369L264.733 124.382C263.195 124.303 262.163 124.699 262.106 126.357L260.91 125.491C262.752 116.607 274.785 107.018 269.503 98.2663C267.724 95.3191 264.166 100.515 262.792 101.735L242.783 130.939C242.488 142.67 246.909 149.954 240.783 161.141C228.313 183.908 202.449 201.439 186.174 220.69C182.426 225.124 179.07 230.171 178.291 236.114C176.917 235.769 177.346 235.22 177.396 234.29C177.619 230.222 179.815 225.804 175.901 222.42L133.77 222.315V256.817C133.77 275.81 151.537 299.294 171.693 286.335C195.03 271.331 224.435 231.548 240.775 208.452C249.795 195.705 256.401 181.388 269.114 171.831C276.617 166.193 289.277 161.271 294.234 153.657C300.538 143.974 308.516 134.095 315.542 124.445C317.295 122.04 320.853 118.906 322.012 116.479C322.306 115.864 322.957 114.424 321.717 114.538C321.662 115.498 321.045 116.195 320.428 116.861C313.152 124.728 306.032 131.223 296.399 136.122C295.81 136.423 294.673 137.495 294.207 136.551C303.875 129.192 312.857 121.214 320.735 111.913C321.939 110.492 325.944 105.966 325.631 104.37L324.097 103.437C317.181 107.81 310.766 112.874 303.974 117.436C302.359 118.523 300.457 119.091 298.832 120.162C293.738 123.517 288.784 129.157 282.419 130.299C286.547 126.151 291.813 123.334 296.179 119.471C301.305 114.934 309.867 106.035 314.184 100.738C314.71 100.094 316.924 97.4335 316.467 96.7957L312.925 96.1275C299.245 103.553 286.309 117.208 271.296 122.105C270.655 122.315 269.193 123.007 269.325 121.77C282.516 115.12 296.63 105.987 307.973 96.4139C308.556 95.9223 307.89 95.2155 308.36 94.7869C312.14 91.3422 320.448 92.1892 318.966 98.9386C318.236 102.263 311.812 106.513 309.333 109.013C307.575 110.788 305.816 113.319 304.027 115.183L311.551 109.925C315.077 105.804 322.196 97.9535 327.912 102.05C328.636 101.906 330.494 96.1011 330.721 94.988C331.405 91.6306 332.431 81.9462 332.244 78.6944ZM261.515 76.9822C261.944 77.5814 264.692 77.886 264.69 80.687C264.32 82.712 262.454 84.9381 260.487 85.6205C261.015 83.7316 263.893 81.997 262.472 79.6937C260.799 76.9822 254.822 80.1142 252.957 81.672C252.028 74.295 255.001 70.1191 262.112 68.5185C261.738 66.6113 257.387 67.5477 256.879 67.2065C257.245 65.7725 259.123 65.675 260.453 65.8943C261.673 66.0954 263.561 68.939 264.077 66.8774C265.154 62.5958 258.696 62.7136 256.231 64.5843C254.569 62.5207 263.895 59.8883 265.702 63.9404C267.309 67.5477 264.043 70.5233 260.807 71.1671C262.897 72.5869 261.337 76.7324 261.515 76.9822Z" fill="#F6CEAE"/>
<path d="M174.373 288.681C173.962 287.162 174.739 287.586 175.203 287.186C180.918 282.238 186.945 277.53 192.397 272.278C210.799 254.544 226.19 233.768 241.158 213.112C239.201 217.986 236.588 222.751 234.075 227.354C226.212 241.746 217.718 256.34 208.039 269.572C200.328 280.112 189.448 296.351 174.375 288.679L174.373 288.681Z" fill="#F6CEAE"/>
<path d="M259.495 72.4711L259.41 76.3241L254.918 77.7236C254.41 77.2198 257.239 71.291 259.495 72.4711Z" fill="#F6CEAE"/>
<path d="M322.476 123.191C324.186 139.902 323.922 148.528 321.687 149.071C321.141 149.203 320.477 148.853 319.696 148.019C319.775 147.075 319.896 136.816 318.536 141.154C320.444 149.016 314.345 146.106 316.289 138.912C311.619 138.846 315.705 153.254 314.584 155.968C314.382 157.26 314.615 159.026 314.089 159.095C308.702 159.646 312.676 149.054 310.973 146.251C311.597 141.843 305.614 150.732 304.635 151.415C304.363 152.435 303.886 152.367 303.749 155.629C303.046 162.104 303.304 170.396 300.684 174.997C297.221 174.955 297.149 169.603 298.501 166.91C300.026 164.292 299.421 162.551 298.433 160.724C297.258 158.818 293.324 164.031 293.526 165.005C293.596 166.636 292.164 166.977 291.005 165.958C290.003 165.686 288.756 165.242 288.729 164.628C288.709 164.17 289.38 163.803 289.529 163.715C291.261 162.706 296.051 156.467 305.633 143.988C311.762 136.004 313.034 133.821 317.995 128.139C319.841 126.025 321.413 124.324 322.481 123.189L322.476 123.191Z" fill="#6EB8D8"/>
<path d="M336.325 123.213C336.505 124.502 343.258 128.19 343.05 124.119C343.111 119.099 337.386 122.078 336.325 123.213Z" fill="#6EB8D8"/>
<path d="M331.872 135.446C335.139 139.904 340.267 139.964 338.507 134.449C335.814 131.747 333.289 134.714 331.872 135.446Z" fill="#6EB8D8"/>
<path d="M336.824 150.488C337.56 153.682 342.952 156.602 341.369 150.848C340.551 150.532 336.824 150.488 336.824 150.488Z" fill="#6EB8D8"/>
<path d="M323.601 153.432C324.084 153.317 327.482 157.236 325.963 157.827C325.19 158.053 323.736 158.416 323.601 157.056C323.466 155.697 323.601 153.432 323.601 153.432Z" fill="#6EB8D8"/>
<path d="M310.652 170.013C310.652 170.013 309.061 173.185 309.515 174.588C313.151 177.792 311.883 171.018 310.652 170.013Z" fill="#6EB8D8"/>
<path d="M321.102 174.227C320.599 180.247 325.233 181.613 324.194 176.174C323.329 175.903 321.102 174.227 321.102 174.227Z" fill="#6EB8D8"/>
<path d="M294.579 188.011C292.062 188.657 290.251 194.414 293.285 195.419C296.879 194.282 294.759 189.968 294.579 188.011Z" fill="#6EB8D8"/>
<path d="M285.311 172.347C283.616 174.661 286.096 179.939 288.515 177.546C289.416 173.746 287.251 174.045 285.311 172.347Z" fill="#6EB8D8"/>
<path d="M315.095 106.394C315.054 106 314.206 105.586 313.47 105.725C312.959 105.821 312.869 106.114 311.697 107.152C310.99 107.78 310.957 107.731 310.298 108.335C310.159 108.463 309.677 108.91 308.971 109.666C308.174 110.522 307.628 111.205 306.745 112.304C305.984 113.252 305.737 113.599 305.144 114.206C304.481 114.885 304.214 115.04 304.246 115.089C304.406 115.336 310.671 111.348 311.897 109.874C311.942 109.819 312.335 109.342 312.893 108.734C313.294 108.298 313.492 108.08 313.697 107.896C314.059 107.572 314.308 107.409 314.684 107.001C314.968 106.693 315.11 106.536 315.093 106.39L315.095 106.394Z" fill="#6EB8D8"/>
<path d="M308.542 94.7566C306.577 95.5231 303.756 96.6485 300.382 98.0695C285.607 104.296 287.954 104.559 281.559 106.667C278.684 107.615 272.294 109.511 269.904 112.485C269.708 112.73 268.692 114.035 267.575 115.513C265.938 117.678 265.576 118.235 265.304 118.685C264.819 119.486 264.159 120.698 263.564 122.31C263.451 122.665 263.337 123.02 263.224 123.374C263.263 123.403 263.711 123.737 263.75 123.764C263.807 123.807 264.238 124.127 264.24 124.129C264.592 124.39 264.592 124.39 264.592 124.39C265.138 124.748 266.931 123.04 269.231 121.768C269.43 121.658 269.25 121.764 270.389 121.183C271.45 120.642 272.703 120.004 274.194 119.191C274.838 118.84 275.697 118.363 276.707 117.778C280.189 115.866 283.806 113.743 287.517 111.387C290.21 109.676 292.765 107.961 295.188 106.259C297.591 104.585 300.047 102.806 302.543 100.914C304.672 99.2989 306.714 97.6923 308.669 96.098C308.626 95.6516 308.583 95.203 308.538 94.7566H308.542Z" fill="#6EB8D8"/>
</svg>
