<svg width="356" height="301" viewBox="0 0 356 301" fill="none" xmlns="http://www.w3.org/2000/svg">
<path d="M0 10C0 4.47716 4.47715 0 10 0H346C351.523 0 356 4.47715 356 10V291C356 296.523 351.523 301 346 301H10C4.47715 301 0 296.523 0 291V10Z" fill="#8F9B87"/>
<path d="M208.432 126.13C209.834 130.026 212.728 132.425 212.31 136.778C208.304 134.331 207.273 127.573 204.642 124.248C204.048 123.497 203.436 123.896 202.673 123.846C202.154 124.298 205.616 132.295 206.278 133.475C207.38 135.44 210.931 138.837 211.315 139.949C211.46 140.366 211.14 147.484 211.027 148.002C210.919 148.497 210.554 151.346 210.423 153.302C210.274 155.559 209.687 157.708 209.656 159.973C209.348 160.463 208.855 161.183 208.141 161.972C207.808 162.34 207.547 162.592 207.466 162.672C206.816 163.306 205.566 164.681 202.989 167.828C201.171 169.876 199.335 171.927 197.477 173.984C194.913 176.825 192.356 179.628 189.807 182.391L184.67 186.587C185.872 180.174 188.461 174.106 190.142 167.84C193.187 156.51 194.89 145.293 197.84 133.861L200.098 112.848L198.186 113.3C197.165 116.259 197.262 119.458 196.432 122.433C196.247 123.099 196.557 124.028 195.605 123.838C195.627 122.973 195.577 122.119 195.227 121.305C192.891 115.873 183.553 102.88 178.053 101.063C177.026 100.723 176.155 100.349 175.027 100.557C174.091 101.365 179.611 104.981 180.171 105.585C184.869 110.625 194.77 124.438 194.832 131.274L187.247 163.946C185.201 151.816 184.879 139.107 182.431 127.061C181.616 123.047 180.839 117.443 177.602 114.786C179.436 123.201 180.495 131.772 181.447 140.344C182.81 152.632 185.022 168.832 183.219 180.928C182.758 184.016 180.805 187.643 181.455 190.468L135.164 192.421C135.005 193.303 136.312 193.401 136.932 193.535C144.662 195.196 160.183 194.814 168.267 194.345C171.339 194.165 174.464 192.943 177.594 193.065L160.322 209.545L149.308 208.579L113.942 206.644V193.059C118.8 193.147 123.607 193.837 128.352 192.469L128.73 190.472H114.585C116.696 177.265 122.049 164.819 125.477 151.944C126.085 149.661 127.454 145.712 127.47 143.589C127.482 142.258 127.843 141.694 126.166 141.954L113.948 180.766C113.729 164.707 114.21 148.611 113.969 132.547C113.908 128.427 112.296 124.938 114.12 120.462C115.782 116.385 129.23 105.927 133.542 105.707C135.714 105.595 133.538 108.066 133.2 109.254C132.181 112.836 130.691 116.865 131.621 120.604C134.687 115.635 135.464 109.698 137.016 104.176L146.731 100.559C140.447 100.033 134.58 102.518 128.72 104.222L117.157 111.543C121.882 103.634 127.645 96.3205 134.14 89.8449C134.709 89.2791 141.721 83.6871 140.946 83.0933C137.103 83.3053 134.327 87.1818 131.611 89.5709C124.511 95.8047 117.602 103.908 114.071 112.639C113.795 113.322 113.514 114.866 112.662 114.782C111.561 108.916 112.726 101.944 112.014 96.3365C111.901 95.4428 111.637 94.4192 110.734 95.3768C110.591 97.662 109.638 99.9112 109.453 102.18C108.946 108.346 110.033 114.052 110.111 119.61C110.301 133.237 110.299 146.81 110.754 160.365C110.88 164.134 110.613 167.942 110.721 171.709L93.9058 141.09L91.4419 139.371C90.5735 140.33 101.272 160.247 102.621 162.722C104.1 165.433 105.137 167.934 106.971 170.639C107.909 172.021 110.22 173.922 110.595 175.44C111.283 178.223 106.492 184.218 104.841 186.841C104.422 187.507 102.776 191.134 102.373 191.764C103.011 192.473 105.393 189.714 105.926 189.195C106.603 188.537 109.6 183.153 110.721 183.361C111.287 190.172 111.372 196.914 111.4 203.759C111.404 205.035 110.677 206.372 110.842 207.484C111.337 210.785 117.371 213.844 117.783 216.041C117.582 225.463 116.664 235.831 117.54 245.63C118.562 257.078 122.031 267.746 131.945 275.209C131.945 275.209 80.0777 277.158 80.187 277.158H182.739L181.381 278H20.9579C-3.02027 278 0.137212 260.452 0.137212 260.452V188.855C29.4388 147.61 62.5993 107.262 105.634 79.5786C137.161 59.298 156.237 59.8658 191.454 70.1061C194.945 71.1217 198.613 71.3216 202.011 72.7691L201.377 90.8465L196.225 81.4839C194.019 79.6486 192.457 76.1159 189.169 76.6237C194.192 82.0697 196.753 87.8976 200.11 94.2712C200.41 94.841 202.182 94.959 201.387 97.3241H203.309L205.246 75.3262L213.6 77.2675C207.565 93.0517 202.395 109.35 208.432 126.13Z" fill="#60615A"/>
<path d="M183.382 249.98C186.999 245.408 190.615 240.834 194.232 236.261C196.336 234.46 197.169 233.472 197.526 232.897C197.624 232.741 197.95 232.189 198.586 231.713C198.925 231.459 199.243 231.311 199.448 231.227L198.498 244.172C193.854 246.999 188.589 248.567 183.38 249.98H183.382Z" fill="#60615A"/>
<path d="M320.577 121.891C312.86 128.34 304.035 127.074 298.088 136.279C298.025 136.375 297.963 136.473 297.901 136.572C296.485 138.841 294.078 145.516 292.61 146.762C288.814 149.992 286.115 145.954 283.714 145.52C282.043 145.219 273.127 146.912 272.05 148.061C272.05 148.061 271.001 148.318 269.406 148.698C268.044 149.019 266.282 149.433 264.433 149.848C260.041 150.837 255.165 151.845 254.011 151.74H254.009C257.634 145.54 268.308 139.349 273.037 134.192C277.393 129.442 283.479 116.61 281.421 110.235C281.04 109.052 279.35 107.906 279.312 107.371C279.223 106.11 281.292 103.696 280.132 99.8968C279.004 96.2079 275.534 97.0008 274.156 95.8923C273.405 95.2892 273.333 92.7866 271.669 91.6062C269.867 90.33 266.34 89.6968 264.359 90.8832C265.263 86.6231 266.522 83.8708 262.431 80.859C262.21 79.4909 262.649 80.098 263.311 79.8344C267.164 78.3125 271.681 77.943 269.849 72.111C268.63 68.2263 261.304 67.5133 260.504 72.143C263.98 69.6803 268.521 70.5272 268.203 75.3745C265.936 73.4152 264.633 73.2714 261.781 74.0883C260.075 75.6801 266.181 75.6302 266.278 76.3392L254.72 83.1279C255.612 76.1375 254.384 68.6637 263.386 67.6212C277.004 66.0433 276.074 78.9556 276.569 88.9439C283.753 87.1484 290.908 88.1869 298.088 89.577C306.707 91.2467 315.361 93.4197 324.152 91.8039C335.204 99.3476 329.026 114.828 320.577 121.891Z" fill="#F6CEAE"/>
<path d="M263.058 83.777C263.464 84.1505 263.593 86.2336 263.462 87.0165C262.468 92.9004 254.931 101.259 254.076 107.686L264.165 92.1655L269.49 92.8325C269.758 93.212 270.026 93.5915 270.294 93.969C270.429 94.4743 270.566 94.9796 270.702 95.4849C272.382 97.8956 263.823 109.05 263.066 112.206C264.336 112.432 264.788 112.044 265.65 111.255C268.27 108.855 272.438 101.563 273.379 98.0114L275.284 97.9974C275.739 98.341 276.196 98.6845 276.65 99.03C276.95 99.5273 277.25 100.023 277.55 100.52C279.96 104.592 270.572 113.38 270.785 118.03C273.536 117.714 275.987 109.991 278.853 110.181C279.094 110.197 279.475 110.281 279.82 110.554C282.607 112.761 277.143 124 276.915 124.463C271.405 135.636 264.343 137.12 254.845 148.252C252.003 151.584 248.141 156.719 244.56 163.965C242.588 166.855 240.614 169.745 238.641 172.635C223.349 195.314 207.495 217.693 189.785 238.54C181.963 247.748 159.637 274.177 148.294 275.659C138.978 276.876 130.803 271.449 126.3 263.634C117.578 248.503 120.291 228.562 119.745 211.733L157.895 213.123C160.009 214.05 157.532 215.366 157.182 216.74C156.839 218.088 155.86 223.503 157.663 224.014C157.127 215.628 166.035 208.362 171.799 203.003C187.074 188.803 204.32 175.91 215.388 157.649C217.227 154.616 217.976 151.037 219.732 148.446C221.583 145.714 225.049 143.289 226.795 140.038C230.499 133.135 230.69 123.806 234.524 116.79C236.718 112.777 240.246 110.291 243.039 106.612C247.683 100.496 251.23 90.9991 256.309 85.7043C257.119 84.8575 258.16 83.8169 259.708 83.4015C260.621 83.1558 261.41 83.1898 261.845 83.2317C261.839 83.2677 261.833 83.3196 261.857 83.3336C261.888 83.3536 261.954 83.2996 261.964 83.2916C262.109 83.1818 262.782 83.5233 263.062 83.781L263.058 83.777Z" fill="#F6CEAE"/>
<path d="M227.717 130.303C226.074 130.283 224.974 128.961 223.393 128.518C219.017 127.291 218.854 128.843 215.181 124.497C203.776 111 212.117 92.3133 217.188 77.919C223.599 77.3798 229.739 79.2332 235.777 81.1686C237.106 81.594 242.451 84.2823 242.834 84.2523C243.982 84.1604 244.874 80.3417 248.008 82.4408C248.543 82.7983 249.806 84.4161 249.933 85.0153C250.028 85.4647 248.13 92.9384 247.778 93.927C247.079 95.8983 242.409 104.355 241.118 105.97C239.235 108.329 235.858 110.261 233.821 112.851C230.076 117.614 228.245 124.273 227.719 130.305L227.717 130.303Z" fill="#F6CEAE"/>
<path d="M184.013 255.036L178.247 272.819L163.449 274.423C163.523 273.285 163.248 271.976 163.467 270.882C163.995 268.234 176.398 259.783 177.726 255.823L184.015 255.038L184.013 255.036Z" fill="#F6CEAE"/>
<path d="M355.944 81.0419C354.539 57.3361 327.851 32.6979 304.431 32.0516C302.102 30.2929 299.694 28.8103 297.228 27.5857C265.833 11.9973 225.148 38.3382 223.164 73.6328C221.426 75.4396 189.04 64.1689 184.186 62.8063C147.939 52.6241 126.198 58.7606 95.9797 79.5633C57.7309 105.896 25.6003 143.504 0 182.07L0.640155 188.542C29.8653 147.265 62.9394 106.887 105.861 79.1811C137.306 58.8847 156.333 59.4529 191.458 69.7012C194.94 70.7176 198.599 70.9177 201.988 72.3663L201.356 90.4578L196.216 81.0879C194.017 79.2511 192.459 75.7157 189.179 76.2239C194.189 81.6741 196.744 87.5065 200.091 93.8852C200.39 94.4554 202.158 94.5735 201.366 96.9405H203.282L205.214 74.9253L213.546 76.8681C207.527 92.6647 202.37 108.975 208.391 125.768C209.791 129.668 212.676 132.069 212.26 136.425C208.265 133.976 207.236 127.213 204.612 123.886C204.019 123.133 203.409 123.533 202.648 123.483C202.131 123.936 205.583 131.939 206.243 133.119C207.343 135.086 210.885 138.486 211.267 139.598C211.412 140.016 211.093 147.139 210.98 147.657C210.873 148.154 210.508 151.005 210.377 152.962C210.229 155.221 209.644 157.371 209.612 159.638C209.305 160.129 208.814 160.849 208.102 161.639C207.769 162.007 207.509 162.259 207.428 162.34C206.78 162.974 205.533 164.35 202.963 167.5C201.149 169.548 199.318 171.601 197.465 173.66C194.908 176.503 192.358 179.309 189.815 182.074L184.692 186.273C185.891 179.855 188.473 173.782 190.15 167.512C193.186 156.173 194.885 144.946 197.828 133.506L200.079 112.477L198.173 112.929C197.154 115.89 197.251 119.092 196.423 122.069C196.238 122.735 196.547 123.666 195.598 123.475C195.62 122.609 195.57 121.755 195.222 120.94C192.891 115.504 183.578 102.501 178.092 100.682C177.067 100.342 176.199 99.9677 175.074 100.176C174.14 100.984 179.646 104.604 180.205 105.208C184.89 110.252 194.766 124.076 194.827 130.917L187.262 163.614C185.221 151.475 184.9 138.756 182.458 126.701C181.646 122.683 180.871 117.075 177.642 114.416C179.471 122.837 180.528 131.415 181.477 139.994C182.837 152.291 185.043 168.504 183.245 180.609C182.785 183.7 180.837 187.33 181.485 190.157L135.315 192.112C135.156 192.994 136.46 193.092 137.078 193.226C144.788 194.889 160.269 194.507 168.331 194.037C171.395 193.857 174.513 192.634 177.634 192.756L160.407 209.249L149.422 208.283L114.148 206.346V192.75C118.994 192.838 123.788 193.528 128.521 192.16L128.897 190.161H114.79C116.895 176.944 122.234 164.488 125.653 151.603C126.259 149.318 127.625 145.366 127.641 143.242C127.653 141.909 128.013 141.345 126.34 141.605L114.154 180.447C113.936 164.376 114.415 148.268 114.176 132.191C114.114 128.067 112.507 124.576 114.326 120.096C115.983 116.016 129.397 105.55 133.697 105.33C135.864 105.218 133.693 107.691 133.356 108.879C132.34 112.465 130.853 116.497 131.781 120.238C134.839 115.266 135.614 109.324 137.162 103.797L146.851 100.178C140.584 99.6516 134.732 102.139 128.887 103.843L117.355 111.17C122.068 103.255 127.815 95.936 134.294 89.4554C134.861 88.8891 141.855 83.2928 141.082 82.6986C137.249 82.9106 134.48 86.7902 131.771 89.1812C124.69 95.4198 117.798 103.529 114.277 112.267C114.001 112.951 113.722 114.496 112.871 114.412C111.773 108.541 112.935 101.564 112.225 95.952C112.112 95.0577 111.849 94.0332 110.949 94.9916C110.806 97.2786 109.855 99.5295 109.671 101.8C109.165 107.971 110.249 113.681 110.327 119.244C110.517 132.881 110.515 146.465 110.969 160.031C111.094 163.802 110.828 167.614 110.935 171.383L94.1643 140.741L91.7067 139.02C90.8406 139.98 101.511 159.913 102.857 162.39C104.331 165.103 105.366 167.606 107.195 170.313C108.131 171.695 110.436 173.598 110.81 175.117C111.496 177.902 106.718 183.902 105.071 186.528C104.653 187.194 103.011 190.823 102.609 191.454C103.245 192.164 105.622 189.403 106.153 188.883C106.829 188.224 109.817 182.836 110.935 183.044C111.5 189.861 111.585 196.608 111.613 203.459C111.617 204.735 110.892 206.074 111.056 207.186C111.55 210.489 117.569 213.551 117.979 215.75C117.779 225.18 116.863 235.556 117.737 245.362C118.756 256.819 122.216 267.495 132.104 274.964C132.104 274.964 80.3722 276.915 80.4812 276.915H182.765L188.043 254.408C191.751 253.165 202.46 250.794 204.089 246.971C205.999 242.489 203.942 233.191 204.554 228.021C204.988 224.355 209.777 220.285 211.905 217.314C222.83 202.068 232.361 184.829 243.685 170.413C246.299 167.087 250.18 161.057 251.73 157.169C251.922 156.689 252.003 156.195 252.059 155.679C252.059 155.679 268.289 154.316 272.789 152.167C272.789 152.167 272.795 152.167 272.797 152.163C275.657 151.195 279.353 149.572 281.266 149.376C285.345 148.956 289.259 154.466 294.598 149.302C295.734 148.206 296.539 146.921 297.228 145.551C299.119 141.805 300.165 137.403 304.773 134.324C314.084 128.103 318.518 131.909 327.718 129.65C335.612 127.711 342.824 120.924 346.81 113.965C351.98 104.938 356.561 91.4502 355.944 81.0419ZM216.503 77.4724C222.901 76.9322 229.027 78.7889 235.052 80.7277C236.378 81.1539 241.711 83.847 242.094 83.815C243.241 83.725 244.131 79.8974 247.257 82.0003C247.79 82.3604 249.05 83.9811 249.177 84.5793C249.272 85.0295 247.377 92.5166 247.027 93.507C246.329 95.4818 241.67 103.953 240.381 105.572C238.502 107.935 235.131 109.87 233.1 112.465C229.362 117.237 227.535 123.908 227.011 129.95C225.372 129.93 224.274 128.606 222.697 128.161C218.331 126.933 218.168 128.488 214.504 124.132C203.123 110.612 211.444 91.8924 216.503 77.4724ZM214.256 133.612C216.162 130.684 225.279 129.086 225.733 133.524C226.429 140.308 214.28 147.173 213.538 154.548C212.333 154.682 213.021 153.192 213.092 152.481C213.715 146.243 215.699 139.87 214.256 133.612ZM177.65 272.721L162.885 274.326C162.958 273.187 162.685 271.875 162.901 270.778C163.02 270.178 163.745 269.28 164.813 268.203C168.462 264.526 176.102 258.763 177.129 255.692L183.403 254.906L177.65 272.721ZM198.486 243.903C193.852 246.734 188.6 248.301 183.407 249.716C183.576 249.502 183.744 249.287 183.915 249.073C185.778 246.73 192.314 238.543 196.397 233.979C196.397 233.975 196.401 233.973 196.401 233.973C196.613 233.737 196.819 233.509 197.017 233.293C197.025 233.283 197.035 233.273 197.043 233.263C197.745 232.499 198.347 231.876 198.809 231.454L198.811 231.45C199.035 231.246 199.223 231.09 199.376 230.986C199.394 230.972 199.413 230.96 199.433 230.948L198.486 243.903ZM250.114 151.655C244.987 158.14 238.13 171.915 237.918 172.344C237.918 172.348 237.914 172.35 237.912 172.354C222.653 195.073 206.836 217.492 189.163 238.377C184.03 244.443 172.64 257.971 162.221 266.945C156.798 271.617 151.64 275.054 147.763 275.562C138.468 276.783 130.31 271.345 125.815 263.517C122.842 258.337 121.201 252.597 120.308 246.608C118.583 235.072 119.634 222.62 119.275 211.522L157.341 212.914C159.448 213.843 156.977 215.161 156.628 216.54C156.287 217.891 155.31 223.315 157.108 223.827C156.572 215.425 165.461 208.146 171.213 202.776C186.454 188.55 203.665 175.635 214.706 157.341C216.541 154.302 217.288 150.719 219.04 148.122C220.887 145.386 224.346 142.955 226.088 139.698C229.784 132.783 229.972 123.437 233.799 116.409C235.989 112.389 239.509 109.9 242.298 106.212C246.931 100.086 250.471 90.5718 255.539 85.2676C255.563 85.2436 255.586 85.2176 255.612 85.1916C256.399 84.4153 257.87 83.6189 259.265 83.2148C260.149 82.9567 261.005 82.8546 261.635 83.0167C261.826 83.0627 261.996 83.1347 262.141 83.2328C262.158 83.2468 262.178 83.2608 262.196 83.2748C262.226 83.2968 262.252 83.3188 262.275 83.3408C262.68 83.715 262.811 85.8018 262.678 86.5862C261.687 92.4806 254.165 100.854 253.313 107.293L263.379 91.7443L268.693 92.4106L269.904 95.0677C271.58 97.4827 263.04 108.657 262.285 111.819C263.552 112.045 264.004 111.657 264.864 110.866C267.476 108.461 271.636 101.156 272.573 97.5987L274.474 97.5847L276.737 100.112C279.141 104.191 269.773 112.995 269.987 117.651C270.029 117.647 270.072 117.639 270.114 117.631C270.167 117.621 270.223 117.607 270.276 117.589C270.318 117.577 270.358 117.563 270.399 117.547C270.419 117.541 270.439 117.533 270.459 117.525C270.5 117.509 270.544 117.489 270.586 117.467C270.629 117.447 270.671 117.425 270.714 117.401C270.766 117.373 270.817 117.341 270.867 117.309C270.95 117.255 271.033 117.195 271.115 117.131C271.156 117.099 271.198 117.067 271.24 117.031C271.279 116.999 271.319 116.963 271.358 116.929C271.442 116.853 271.527 116.773 271.608 116.689C271.65 116.649 271.691 116.605 271.731 116.563C271.923 116.358 272.114 116.134 272.304 115.894C272.355 115.83 272.409 115.762 272.458 115.694C273.233 114.686 273.998 113.445 274.775 112.361C274.847 112.259 274.92 112.159 274.993 112.061C275.001 112.049 275.011 112.037 275.019 112.025C275.069 111.961 275.118 111.897 275.166 111.833C275.338 111.609 275.511 111.394 275.685 111.194C275.731 111.14 275.778 111.088 275.826 111.036C275.877 110.98 275.929 110.924 275.98 110.87C276.032 110.816 276.083 110.764 276.137 110.714C276.299 110.556 276.462 110.416 276.624 110.294L276.672 110.258C276.725 110.22 276.779 110.182 276.833 110.15C276.878 110.12 276.924 110.092 276.969 110.068C276.997 110.05 277.027 110.036 277.054 110.02C277.082 110.006 277.108 109.992 277.134 109.98C277.16 109.968 277.185 109.956 277.211 109.946C277.251 109.928 277.29 109.912 277.33 109.898C277.453 109.852 277.574 109.82 277.697 109.804C277.726 109.798 277.756 109.794 277.788 109.792C277.871 109.784 277.954 109.782 278.037 109.788C278.069 109.79 278.101 109.794 278.137 109.798C278.166 109.798 278.196 109.806 278.228 109.812C278.261 109.818 278.297 109.826 278.335 109.836C278.345 109.836 278.355 109.84 278.366 109.844C278.398 109.852 278.43 109.862 278.464 109.874C278.642 109.936 278.822 110.032 279.003 110.162C279.038 110.188 279.072 110.216 279.104 110.25C279.116 110.262 279.129 110.274 279.139 110.286C280.691 112.027 276.783 121.249 275.863 123.267C270.484 135.084 258.153 141.489 250.114 151.655ZM319.667 121.523C311.968 127.983 303.162 126.715 297.228 135.937C297.165 136.033 297.103 136.131 297.042 136.231C295.629 138.504 293.227 145.19 291.762 146.439C287.975 149.674 285.281 145.629 282.885 145.194C281.218 144.892 272.322 146.589 271.247 147.739C271.247 147.739 270.201 147.998 268.61 148.378C267.25 148.7 265.492 149.114 263.647 149.53C259.265 150.521 254.399 151.531 253.248 151.425H253.246C256.863 145.214 267.514 139.012 272.232 133.846C276.579 129.088 282.651 116.232 280.598 109.846C280.218 108.661 278.531 107.513 278.493 106.977C278.404 105.714 280.469 103.295 279.312 99.4895C278.186 95.794 274.724 96.5883 273.348 95.4778C272.599 94.8736 272.528 92.3665 270.867 91.1841C269.069 89.9055 265.55 89.2713 263.574 90.4598C264.475 86.192 265.732 83.4349 261.649 80.4176C261.429 79.047 261.867 79.6553 262.527 79.3912C266.372 77.8666 270.879 77.4964 269.052 71.654C267.835 67.7624 260.525 67.0481 259.727 71.686C263.195 69.219 267.726 70.0673 267.409 74.9233C265.147 72.9605 263.847 72.8165 261.001 73.6348C259.299 75.2295 265.391 75.1794 265.488 75.8897L253.955 82.6906C254.845 75.6877 253.62 68.2006 262.602 67.1561C276.19 65.5755 275.263 78.5108 275.756 88.517C282.925 86.7182 290.064 87.7586 297.228 89.1512C305.828 90.8239 314.463 93.0008 323.235 91.3821C334.262 98.9393 328.098 114.448 319.667 121.523Z" fill="black"/>
<path d="M109.007 218.961C94.4477 225.856 69.0198 229.99 52.7207 233.351C45.7027 234.798 38.5817 236.556 31.4251 236.78C31.2745 237.713 32.5369 237.659 33.2108 237.877C48.2634 242.759 71.2396 246.825 86.9204 245.866C93.8967 245.438 100.806 243.385 107.734 242.609C107.072 244.253 104.724 244.317 103.249 244.552L104.526 245.832C99.6383 244.898 94.4021 247.115 89.376 247.699C82.7762 248.465 75.5661 248.367 68.9445 247.775C59.4631 246.927 50.2869 245.028 41.3941 242.869C33.1256 240.864 24.978 238.017 16.6718 236.12C15.7185 235.216 16.7372 234.946 17.6231 234.832C22.7582 234.171 28.5632 234.852 34.2216 234.097C46.8582 232.415 61.9801 228.987 74.6465 226.34C87.3644 223.685 100.09 220.846 112.221 216.06C112.416 217.84 110.238 218.379 109.007 218.961Z" fill="black"/>
<path d="M96.8557 257.193C80.828 260.87 62.6837 260.13 46.8146 256.188C46.7631 255.038 46.4955 254.816 47.7679 254.898C52.6691 255.212 58.1471 256.605 63.1395 256.871C75.8753 257.551 88.7358 256.557 101.319 254.906C101.801 256.645 98.025 256.925 96.8557 257.193Z" fill="black"/>
<path d="M253.239 151.823C253.05 153.151 251.927 161.216 252.681 162.201C252.703 162.231 252.764 162.301 252.83 162.299C253.472 162.293 253.869 156.607 253.939 155.489C253.947 155.358 253.991 155.234 254.069 155.127C256.251 152.16 254.95 164.969 254.954 164.478C257.427 172.265 257.657 158.279 257.539 155.399C257.529 155.155 257.649 154.932 257.85 154.796C258.115 154.617 258.307 154.225 258.48 153.764C258.72 153.117 259.657 153.198 259.803 153.873C259.856 154.112 259.93 154.309 260.036 154.428C260.519 154.972 260.949 151.959 261.027 151.376C261.035 151.312 261.053 151.246 261.081 151.187C263.059 146.753 261.077 160.191 263.267 159.555C263.46 159.499 263.61 159.344 263.68 159.157C264.579 156.729 263.795 147.684 263.839 144.934C263.843 144.735 263.931 144.548 264.083 144.419C264.37 144.176 264.894 143.838 265.602 143.845C265.81 143.845 265.999 143.877 266.169 143.923C266.59 144.037 267.014 143.76 267.058 143.326C267.15 142.397 267.357 141.376 267.824 141.29C267.824 141.29 267.904 141.27 267.992 141.3C268.779 141.563 269.051 148.699 268.937 150.506C268.933 150.578 268.937 150.651 268.957 150.721C271.607 161.153 271.161 138.799 271.671 139.826C273.456 138.005 272.258 145.175 274.435 142.393C274.557 142.238 274.603 142.035 274.565 141.842C273.959 138.847 274.934 133.529 273.676 133.275C273.532 133.247 273.335 133.275 273.189 133.326C272.68 133.497 272.465 133.999 272.23 134.375C272.116 134.562 271.695 134.95 270.852 135.73C269.116 137.338 266.392 139.422 266.392 139.422C266.392 139.422 264.396 140.95 261.729 143.107C257.483 146.54 256.35 147.786 255.896 148.299C254.667 149.69 253.796 150.956 253.245 151.823H253.239Z" fill="#6EB8D8"/>
<path d="M263.01 81.5957C263.506 81.9314 264.001 82.2651 264.499 82.6008C265.251 83.9214 266.099 85.2963 267.056 86.7054C267.551 87.4351 268.049 88.1326 268.544 88.7999C270.217 90.2613 271.003 91.0593 270.905 91.1899C270.838 91.2804 270.357 91.0573 269.463 90.5246C268.72 90.2673 267.497 89.9557 265.987 90.0723C265.048 90.1447 264.27 90.3618 263.692 90.5749C263.839 89.9015 263.985 89.2261 264.132 88.5487C264.254 87.9798 264.374 87.411 264.493 86.8441C264.615 86.1466 264.799 84.4923 263.913 82.84C263.636 82.3214 263.311 81.9133 263.01 81.5978V81.5957Z" fill="#6EB8D8"/>
<path d="M274.81 92.9206C274.81 92.9206 277.351 93.59 277.618 94.8865C278.933 97.2645 280.54 90.9186 274.81 92.9206Z" fill="#6EB8D8"/>
<path d="M242.585 92.2493C240.714 94.3136 243.457 95.0413 244.591 93.7669C245.511 91.994 243.347 92.1608 242.585 92.2493Z" fill="#6EB8D8"/>
<path d="M236.769 99.353C233.802 100.366 234.434 104.258 237.505 103.241C239.34 100.917 239.159 100.394 236.769 99.353Z" fill="#6EB8D8"/>
<path d="M224.133 120.258C222.364 121.617 223.686 124.646 225.806 122.937C228.058 120.288 226.67 119.591 224.133 120.258Z" fill="#6EB8D8"/>
<path d="M282.096 122.2C281.717 122.503 281.406 128.479 284.102 125.818C284.098 124.702 285.127 120.067 282.096 122.2Z" fill="#6EB8D8"/>
<path d="M292.459 120.049C294.296 120.192 295.412 124.536 297.808 123.374C301.38 117.784 294.545 120.009 292.459 120.049Z" fill="#6EB8D8"/>
<path d="M285.706 136.741C285.706 136.741 286.843 136.741 286.775 138.751C286.719 140.665 284.172 139.266 285.706 136.741Z" fill="#6EB8D8"/>
<path d="M288.761 159.566C287.215 161.686 291.487 165.839 293.486 163.228C293.827 161.276 291.053 158.004 288.761 159.566Z" fill="#6EB8D8"/>
<path d="M272.804 162.603C271.015 165.288 274.108 168.778 276.883 166.824C279.096 162.561 276.191 161.67 272.804 162.603Z" fill="#6EB8D8"/>
<path d="M265.405 178.149C263.827 179.23 266.049 183.944 268.169 182.079C268.863 180.294 269.043 175.516 265.405 178.149Z" fill="#6EB8D8"/>
<path d="M251.678 171.001C249.496 171.899 246.773 178.72 252.214 176.987C258.235 176.641 251.554 172.203 251.678 171.001Z" fill="#6EB8D8"/>
</svg>
