<svg width="356" height="301" viewBox="0 0 356 301" fill="none" xmlns="http://www.w3.org/2000/svg">
<path d="M3.13867e-09 10C3.13867e-09 4.47716 4.47715 0 10 0H346C351.523 0 356 4.47715 356 10V291C356 296.523 351.523 301 346 301H10C4.47715 301 3.13867e-09 296.523 3.13867e-09 291V10Z" fill="#8F9B87"/>
<path d="M231.939 146.093C229.015 145.844 225.903 151.6 223.681 152.326C221.54 153.028 217.851 152.203 215.371 152.476C203.304 153.81 190.835 158.764 180.419 164.696L139.64 187.133L138.643 172.291L174.736 150.336C175.254 148.332 172.145 149.631 172.145 149.631C167.062 150.744 162.745 153.371 158.3 156.192L156.544 157.406C155.049 157.766 152.458 158.805 151.207 159.603C148.414 161.388 145.154 164.543 142.484 166.503C141.735 167.054 138.157 169.908 137.693 169.448L126.631 105.066C125.684 104.915 125.443 106.881 125.451 107.515C125.552 115.491 127.729 124.485 128.4 132.513C128.465 133.294 129.176 134.916 127.946 134.774C126.13 127.794 123.72 120.851 121.235 114.126C120.108 111.071 116.721 105.632 116.84 102.599C117.135 95.14 134.511 78.5354 140.616 74.6363L144.835 69.6853C142.028 69.366 139.228 72.7294 137.052 73.5057C136.289 73.779 135.672 74.2951 135.164 75.0015C134.019 76.5957 129.429 79.2986 127.633 81.024C122.665 85.7913 117.93 90.9238 114.614 97.2634C113.457 97.2962 108.33 77.7678 107.432 75.3426C107.012 74.2098 107.5 73.6128 105.841 73.9299C106.528 81.422 108.489 89.5155 110.58 96.7145C111.337 99.3212 112.492 103.277 113.312 105.768C114.738 110.096 117.384 113.899 118.181 118.504C111.373 114.161 104.447 109.315 96.3374 108.672C95.3651 108.596 94.5335 108.086 94.7946 109.65C98.742 112.084 115.423 118.161 117.155 122.029C117.34 122.445 118.073 122.655 119.18 123.389C121.649 125.032 123.989 130.943 124.031 134.072C120.349 133.248 116.396 132.355 112.655 131.957C102.667 130.895 90.094 129.845 80.1704 130.54C78.0993 130.685 74.4432 131.094 72.6915 132.305L124.688 135.791C132.165 151.274 133.573 168.41 137.354 185.027C138.945 192.016 138.091 193.882 145.244 194.838C156.142 196.296 164.497 194.805 175.043 194.192C178.358 194 179.105 193.899 179.627 197.823L158.511 269.601C155.238 275.63 144.037 281.169 135.086 284.911C131.89 286.249 128.981 287.356 126.821 288.176C124.421 289.085 121.968 289.862 119.489 290.459C119.815 291.874 120.437 291.62 121.434 291.576C126.576 291.358 132.635 289.446 138.44 287.012C143.244 284.994 147.874 282.619 151.667 280.546L153.282 279.84C153.336 285.025 152.641 290.126 151.237 295.023C151.066 295.624 150.881 296.223 150.688 296.818H23.9392V297.527H155.238C155.238 297.527 15.9421 298.592 10.5845 297.527C5.22898 296.462 3.14685e-09 283.122 3.14685e-09 283.122V200.351C7.11527 183.313 13.9473 169.864 18.8649 160.745C18.8649 160.745 55.4477 92.9029 107.679 50.4434C109.985 48.5671 113.479 45.8335 118.023 42.8113C130.311 34.6413 143.736 23.8625 160.682 25.1964C169.3 25.8744 196.829 35.223 201.261 43.2837C202.038 44.6986 206.359 57.6949 205.931 58.34C203.181 59.7833 201.154 57.4281 198.645 56.7458C189.316 54.2047 181.004 54.0801 171.779 57.614C171.188 57.8414 164.909 60.6143 166.291 61.8936L188.581 59.2148L203.022 75.3361C204.214 75.8784 204.141 74.4876 203.962 73.6041C203.631 71.9924 199.979 66.5734 198.784 65.0842C197.544 63.5403 194.704 61.7493 193.591 59.7811L206.905 64.028L208.561 86.2986C208.155 89.3055 213.543 100.57 214.117 102.916C214.394 104.056 214.732 105.243 215.053 105.449C215.855 105.969 220.72 117.955 219.266 119.917C217.281 117.041 215.373 113.667 213.105 111.058C212.389 110.236 209.794 106.916 209.846 109.645L226.084 136.191C217.572 135.773 208.966 137.002 200.736 139.375C199.603 139.703 194.298 141.151 194.252 142.209C195.176 143.768 195.694 143.032 196.851 142.942C204.686 142.336 213.39 139.045 221.297 138.409C228.261 137.847 229.673 138.651 231.939 146.093Z" fill="#60615A"/>
<path d="M211.138 62.9586C210.604 57.6949 207.679 50.9704 205.933 45.9822L209.73 46.4437C211.982 58.117 212.245 70.8159 211.789 82.7778C211.755 83.6482 212.283 85.4064 211.138 85.2468C210.616 78.1396 211.845 69.9237 211.138 62.9586Z" fill="#60615A"/>
<path d="M310.329 123.618C309.334 120.566 315.929 167.084 307.959 153.662L307.139 142.902C306.829 141.995 305.98 138.995 305.407 142.418C303.984 146.724 308.975 187.563 301.672 179.242C298.047 175.165 303.776 146.591 298.024 150.442C297.322 154.142 299.485 157.746 295.014 156.468C290.614 151.429 308.934 127.861 310.333 123.616L310.329 123.618Z" fill="#6EB8D8"/>
<path d="M317.259 134.084C317.259 134.084 318.717 139.801 320.451 139.801C326.195 136.62 317.866 126.135 317.259 134.084Z" fill="#6EB8D8"/>
<path d="M317.255 151.041C317.255 151.041 319.173 153.464 319.173 155.984C319.173 158.505 322.545 155.5 322.545 155.5C322.82 151.643 320.248 150.433 317.253 151.043L317.255 151.041Z" fill="#6EB8D8"/>
<path d="M312.425 172.845C312.325 174.151 314.807 178.316 315.89 174.395C316.151 173.665 312.951 171.386 312.425 172.845Z" fill="#6EB8D8"/>
<path d="M325.192 169.843C327.157 169.603 325.863 173.911 328.019 173.137C329.295 173.137 331.849 172.322 331.028 171.519C330.208 170.717 328.384 167.015 327.656 167.752C325.699 168.338 323.748 166.557 325.194 169.845L325.192 169.843Z" fill="#6EB8D8"/>
<path d="M306.864 188.448C306.864 188.448 306.226 188.254 306.864 190.87C307.502 193.487 309.326 192.324 309.326 192.324C312.021 191.079 306.893 188.751 306.864 188.448Z" fill="#6EB8D8"/>
<path d="M292.276 177.304C292.276 177.304 291.272 176.722 291.272 178.952C291.787 182.814 297.987 181.488 292.276 177.304Z" fill="#6EB8D8"/>
<path d="M293.113 164.317C291.849 166.69 292.374 168.909 294.953 166.546L293.113 164.317Z" fill="#6EB8D8"/>
<path d="M275.83 54.7855C278.575 59.2017 280.14 62.6512 280.515 68.0955L281.804 65.276C281.596 66.6365 286.416 72.9361 286.844 73.0673C287.624 73.3057 288.764 72.9405 289.641 73.052L288.984 70.939C296.491 69.8191 301.857 60.5973 309.874 63.8608C305.179 77.2364 306.145 86.1258 313.789 97.489C314.176 98.0665 313.987 98.9415 314.215 99.2433C315.158 100.499 317.462 101.356 318.242 103.13C302.876 127.48 288.587 152.674 272.294 176.33C263.965 188.424 241.096 222.032 230.459 228.629C215.98 237.608 206.247 229.738 196.994 217.776L171.527 176.402C181.825 170.203 191.47 164.238 202.853 160.469C207.905 158.796 217.027 155.987 222.089 155.841C224.372 155.775 220.956 158.757 223.071 159.398C227.863 146.884 242.141 147.249 251.594 141.138C257.209 137.507 265.01 128.261 269.033 122.541C271.04 119.688 279.353 106.47 279.864 103.85C279.94 103.458 280.025 102.682 279.531 102.785L277.903 104.198C277.7 96.811 272.668 92.3466 272.03 84.7303C271.526 78.7063 273.557 73.822 273.357 67.7127C273.218 63.4824 269.606 53.8712 275.83 54.7877V54.7855Z" fill="#F6CEAE"/>
<path d="M270.036 91.8479C268.396 87.0379 269.945 80.3227 264.55 78.0435L257.015 80.1281C262.448 72.6714 272.238 46.3248 254.867 50.5595C250.708 51.5723 248.931 57.3009 246.465 60.5557C244.974 62.5221 242.076 63.5699 241.479 66.4921C240.568 70.9521 243.758 74.7603 247.879 74.4803C246.473 77.6192 241.711 74.85 240.332 73.1045C238.282 70.5103 238.337 66.5818 239.46 63.572C240.674 60.3129 244.567 59.2652 243.288 56.0913C240.576 55.7523 238.289 57.7581 235.749 58.1343C227.995 59.2827 220.331 55.4789 218.445 46.946L211.989 46.1673C214.885 60.9122 215.797 76.298 212.9 91.1348C213.336 92.5041 214.568 93.1297 215.871 92.8453C216.652 90.3692 217.61 87.1451 219.81 85.7977C219.824 90.1658 216.156 97.5087 216.684 101.573C217.007 104.064 220.514 110.515 221.442 114.115C223.067 120.415 222.212 126.649 226.954 131.437L246.822 131.975L250.811 137.388C258.322 131.235 272.877 116.276 273.934 105.902C274.624 99.1164 271.796 97.0144 270.036 91.8479ZM250.626 68.966C249.875 70.1472 250.585 73.2029 247.231 73.7651L248.923 68.7932C248.193 66.5687 246.374 65.8491 244.619 64.9216C246.997 59.182 255.728 63.5961 256.952 61.6669C258.4 59.3855 253.493 56.3647 254.407 55.3673L258.969 58.8999C259.108 58.7118 258.578 55.597 258.344 55.1136C257.808 54.0068 255.823 55.5751 256.365 53.2434C257.301 53.2237 258.81 53.3943 259.467 54.1227C260.208 54.9408 260.395 57.4015 260.347 58.5652C260.135 63.6311 257.194 63.3621 254.456 65.6828C253.832 66.2122 250.769 68.7408 250.626 68.966Z" fill="#F6CEAE"/>
<path d="M201.544 227.356C204.682 228.419 206.781 231.374 209.78 232.923C224.515 240.539 236.639 228.883 245.9 217.773C258.917 202.162 269.259 183.867 281.804 167.895L269.941 189.349C261.793 202.72 241.649 233.984 230.469 242.797C217.402 253.099 206.836 239.671 201.542 227.354L201.544 227.356Z" fill="#F6CEAE"/>
<path d="M355.897 79.5709C354.324 58.9191 345.154 38.0286 328.591 27.1226C324.58 24.4804 319.106 22.959 315.682 20.6276C308.293 15.5927 303.643 10.1966 294.49 6.85387C270.282 -1.97909 244.051 10.7745 227.412 30.2421C225.529 32.4465 219.546 41.9734 217.624 42.3083C214.341 41.9537 210.543 41.0736 207.423 39.9725C201.037 37.7156 198.356 33.9263 192.793 30.3909C159.179 9.02325 135.872 23.2873 107.378 44.8367C92.8206 56.5527 81.6754 67.2464 74.1977 74.8381C74.1977 74.8381 46.7592 102.699 9.56571 166.482C6.70297 171.392 1.05997 181.379 0.132548 195.087C-0.0364399 197.569 -0.00827515 199.581 0.0259249 200.724C7.15159 183.668 13.9936 170.206 18.9184 161.077C18.9184 161.077 55.5546 93.1651 107.863 50.6618C110.172 48.7836 113.67 46.0472 118.221 43.0219C130.527 34.8435 143.972 24.0535 160.943 25.3889C169.573 26.0675 197.143 35.4258 201.581 43.4948C202.359 44.9111 206.686 57.9208 206.258 58.5666C203.504 60.0114 201.474 57.6538 198.961 56.9708C189.619 54.4271 181.294 54.3023 172.056 57.8399C171.464 58.0675 165.176 60.8433 166.56 62.1239L188.882 59.4423L203.345 75.5802C204.538 76.1231 204.465 74.7308 204.286 73.8465C203.954 72.2331 200.297 66.8085 199.1 65.3178C197.859 63.7723 195.014 61.9794 193.9 60.0092L207.234 64.2604L208.891 86.5541C208.485 89.5641 213.881 100.84 214.456 103.189C214.733 104.329 215.071 105.518 215.393 105.724C216.196 106.245 221.069 118.243 219.612 120.207C217.624 117.328 215.713 113.95 213.442 111.339C212.726 110.516 210.127 107.193 210.179 109.925L226.44 136.498C217.916 136.08 209.298 137.31 201.055 139.685C199.921 140.014 194.608 141.463 194.562 142.522C195.487 144.083 196.006 143.346 197.165 143.256C205.011 142.649 213.728 139.355 221.646 138.718C228.621 138.155 230.035 138.961 232.304 146.41C229.375 146.161 226.259 151.922 224.034 152.649C221.889 153.352 218.196 152.527 215.711 152.8C203.627 154.136 191.14 159.094 180.708 165.033L139.87 187.493L138.872 172.635L175.017 150.657C175.536 148.652 172.422 149.952 172.422 149.952C167.332 151.066 163.009 153.696 158.557 156.519L156.799 157.734C155.302 158.096 152.707 159.135 151.453 159.934C148.657 161.721 145.392 164.88 142.718 166.841C141.968 167.393 138.385 170.249 137.92 169.79L126.841 105.341C125.894 105.19 125.653 107.158 125.661 107.793C125.761 115.776 127.942 124.78 128.614 132.816C128.678 133.598 129.39 135.222 128.159 135.08C126.341 128.092 123.926 121.142 121.438 114.41C120.309 111.352 116.917 105.908 117.036 102.872C117.332 95.4046 134.734 78.7828 140.847 74.8797L145.072 69.9236C142.262 69.604 139.457 72.9708 137.279 73.7479C136.514 74.0216 135.896 74.5382 135.387 75.2453C134.241 76.8411 129.644 79.5468 127.845 81.274C122.87 86.0462 118.129 91.184 114.807 97.5302C113.648 97.563 108.514 78.0145 107.615 75.5868C107.195 74.4528 107.683 73.8552 106.022 74.1726C106.71 81.6724 108.673 89.7742 110.768 96.9807C111.526 99.5901 112.683 103.55 113.504 106.044C114.932 110.376 117.581 114.183 118.38 118.793C111.562 114.445 104.626 109.594 96.5041 108.951C95.5304 108.874 94.6975 108.364 94.9591 109.929C98.9122 112.366 115.618 118.449 117.352 122.322C117.537 122.737 118.271 122.948 119.38 123.683C121.852 125.327 124.196 131.244 124.238 134.377C120.551 133.552 116.592 132.658 112.846 132.26C102.843 131.196 90.2515 130.145 80.3134 130.841C78.2393 130.986 74.5779 131.395 72.8236 132.608L124.896 136.097C132.384 151.596 133.794 168.75 137.58 185.385C139.174 192.381 138.319 194.248 145.483 195.205C156.396 196.665 164.763 195.172 175.325 194.559C178.644 194.367 179.393 194.266 179.916 198.193L158.768 270.045C155.491 276.081 144.273 281.626 135.309 285.371C132.108 286.711 129.195 287.819 127.033 288.639C124.629 289.55 122.172 290.327 119.69 290.925C120.016 292.341 120.639 292.087 121.637 292.044C126.787 291.825 132.855 289.911 138.669 287.475C143.479 285.454 148.116 283.077 151.914 281.002L153.532 280.295C153.586 285.485 152.89 290.592 151.484 295.493C151.313 296.096 151.128 296.695 150.934 297.291H24.0001V298H155.491C155.372 295.408 156.569 293.081 156.787 290.555C157.018 287.865 156.241 282.845 156.899 280.761C157.111 280.089 163.637 274.257 165.27 270.037C170.925 255.431 175.756 232.43 179.9 216.54C180.851 212.899 182.01 208.926 182.185 205.209C185.661 210.509 189.102 215.844 192.614 221.124C193.568 222.558 195.175 223.608 196.135 225.086C201.558 233.457 201.589 241.583 210.609 248.292C223.939 258.207 233.379 248.921 242.401 238.509C259.033 219.32 275.698 192.392 287.507 169.299C293.14 158.284 295.451 149.633 301.831 138.847C303.336 136.301 307.468 127.477 309.443 126.588C309.9 128.832 314.511 128.199 316.589 127.991C337.039 125.929 357.637 102.421 355.897 79.5709ZM211.472 85.5011C210.949 78.3866 212.181 70.1622 211.472 63.19C210.937 57.9209 208.008 51.1894 206.258 46.1961L210.06 46.658C212.315 58.3433 212.581 71.0554 212.122 83.0297C212.09 83.9009 212.619 85.6609 211.472 85.5011ZM227.054 131.886C222.324 127.094 223.177 120.855 221.555 114.55C220.63 110.947 217.132 104.491 216.81 101.998C216.283 97.9308 219.942 90.582 219.928 86.2104C217.733 87.5589 216.777 90.7856 215.999 93.2636C214.699 93.5482 213.47 92.9221 213.036 91.5518C215.924 76.7032 215.015 61.3052 212.126 46.5485L218.566 47.3279C220.447 55.8675 228.092 59.6743 235.827 58.525C238.36 58.1485 240.641 56.1411 243.347 56.4804C244.622 59.6568 240.74 60.7054 239.529 63.9671C238.408 66.9793 238.354 70.9109 240.398 73.5071C241.774 75.254 246.523 78.0254 247.926 74.8841C243.816 75.1643 240.633 71.3531 241.542 66.8895C242.138 63.9649 245.029 62.9163 246.515 60.9484C248.976 57.691 250.748 51.9578 254.896 50.9442C272.224 46.7062 262.459 73.0737 257.039 80.5363L264.555 78.4501C269.936 80.7311 268.391 87.4516 270.027 92.2654C271.783 97.436 274.604 99.5398 273.916 106.33C272.861 116.713 258.343 131.684 250.851 137.842L246.871 132.424L227.054 131.886ZM232.302 136.509C236.551 138.383 240.627 135.89 244.667 137.216C246.051 139.243 236.927 141.426 235.95 142.113L232.302 136.509ZM269.934 189.846C261.807 203.228 241.713 234.517 230.564 243.336C217.53 253.647 206.988 240.208 201.707 227.881C204.838 228.945 206.934 231.903 209.925 233.455C224.623 241.077 236.716 229.409 245.954 218.293C258.938 202.67 269.256 184.36 281.767 168.376L269.934 189.846ZM272.28 176.814C263.971 188.918 241.16 222.553 230.55 229.155C216.105 238.142 206.399 230.265 197.169 218.293L171.766 176.887C182.036 170.683 191.657 164.713 203.013 160.941C208.052 159.269 217.152 156.456 222.201 156.309C224.478 156.244 221.071 159.227 223.181 159.871C227.961 147.347 242.202 147.713 251.631 141.596C257.234 137.963 265.014 128.709 269.029 122.985C271.031 120.13 279.323 106.904 279.832 104.281C279.909 103.887 279.993 103.112 279.5 103.213L277.875 104.627C277.672 97.2346 272.652 92.7645 272.016 85.1421C271.514 79.1156 273.541 74.2273 273.342 68.111C273.203 63.8774 269.598 54.2585 275.807 55.1757C278.545 59.5955 280.108 63.0477 280.48 68.4963L281.765 65.6746C281.558 67.0362 286.366 73.3408 286.795 73.4721C287.573 73.7085 288.71 73.3452 289.585 73.4546L288.927 71.3421C296.417 70.2191 301.768 60.9921 309.767 64.2583C305.082 77.6423 306.045 86.5388 313.672 97.9111C314.058 98.489 313.869 99.3668 314.095 99.6689C315.036 100.925 317.333 101.784 318.112 103.557C302.784 127.928 288.531 153.139 272.28 176.814Z" fill="black"/>
<path d="M155.491 298H24.0001V297.291H150.934C151.128 296.695 151.313 296.096 151.484 295.493L155.491 298Z" fill="black"/>
<path d="M111.934 268.625L110.508 270.297C106.631 240.136 106.279 209.311 109.281 179.001C112.129 181.344 109.977 186.768 109.898 189.951C109.249 216.174 110.17 242.507 111.934 268.625Z" fill="black"/>
<path d="M109.921 291.621C108.78 291.873 108.313 290.982 107.637 290.218C97.8279 279.159 83.492 265.739 69.5606 261.447C67.4442 260.794 67.6554 260.799 66.1647 260.238C62.5475 258.877 58.3591 257.767 54.5971 256.909C54.7922 255.652 57.9808 256.121 58.8539 256.178C60.6826 256.298 63.485 256.648 65.2956 256.952C66.9171 257.224 69.5606 259.034 69.5606 259.034C70.9205 259.163 72.3167 259.463 73.6062 259.958C84.7333 264.236 101.644 276.956 108.623 287.729C109.416 288.955 110.142 289.995 109.921 291.621Z" fill="black"/>
<path d="M174.19 203.243C168.077 208.425 161.726 212.932 156.016 218.722C151.274 223.53 146.754 230.375 142.052 234.841C141.393 235.467 141.258 236.758 139.872 236.371C139.713 236.189 141.089 232.069 141.368 231.629C141.668 231.161 142.686 230.983 143.109 230.37C151.518 218.206 162.206 206.091 175.667 200.962C175.955 202.425 174.983 202.571 174.19 203.243Z" fill="black"/>
<path d="M33.1134 278.158C30.2185 277.983 26.9091 276.12 24.2174 274.743C17.997 271.56 9.33235 266.512 3.59882 262.471C1.41404 260.932 0.555019 255.512 0.555019 255.512L33.1134 278.158Z" fill="black"/>
<path d="M27.9029 283.116C22.952 284.625 18.0171 286.334 13.0742 287.891C12.0201 288.224 9.76287 291.076 6.42736 287.017C11.2777 285.349 21.5518 280.7 26.3378 281.041C27.4624 281.122 28.082 281.888 27.9029 283.116Z" fill="black"/>
<path d="M153.214 251.944C148.762 249.304 144.585 246.519 141.175 242.382C142.119 238.65 144.507 241.791 146.104 243.047C147.573 244.205 153.355 248.704 153.878 249.823C154.455 251.064 154 251.167 153.214 251.944Z" fill="black"/>
<path d="M259.485 54.5081C260.224 55.3268 260.413 57.7917 260.362 58.9563C260.151 64.024 257.218 63.7548 254.486 66.0796C253.864 66.6093 250.808 69.1377 250.666 69.3632C249.917 70.5475 250.625 73.6056 247.28 74.1682L248.966 69.1903C248.239 66.9662 246.423 66.2459 244.673 65.3178C247.044 59.5736 255.753 63.989 256.975 62.0582C258.419 59.775 253.524 56.7519 254.436 55.7537L258.986 59.2868C259.125 59.0986 258.596 55.9813 258.363 55.4997C257.826 54.3899 255.846 55.9616 256.389 53.6281C257.323 53.6062 258.827 53.7791 259.483 54.5059L259.485 54.5081Z" fill="black"/>
</svg>
