<svg width="23" height="26" viewBox="0 0 23 26" fill="none" xmlns="http://www.w3.org/2000/svg">
<path d="M7.72504 23.528C7.9865 24.9335 9.25887 26 10.7894 26C12.3199 26 13.5923 24.9335 13.8538 23.528H7.72504Z" fill="#E0C389"/>
<path d="M18.6682 15.7278C18.2004 15.8251 17.7149 15.877 17.217 15.877C13.4299 15.877 10.3598 12.9129 10.3598 9.25648C10.3598 6.90198 11.633 4.83484 13.5504 3.66116C13.1755 3.50755 12.7976 3.3853 12.424 3.29282C12.713 2.94591 12.886 2.50534 12.886 2.02507C12.886 0.906557 11.9471 0 10.7886 0C9.63009 0 8.69113 0.906557 8.69113 2.02507C8.69113 2.50494 8.86421 2.94552 9.15322 3.29242C6.27056 4.0033 3.14288 6.53721 3.14288 10.9243C3.14288 12.0968 3.10013 12.9557 3.10013 14.6799C3.10013 17.1305 0 18.5618 0 21.3382C0 22.5488 1.01666 22.5202 2.27052 22.5202H19.3054C20.5593 22.5202 21.5759 22.5488 21.5759 21.3382C21.5759 18.9805 19.3412 17.5929 18.667 15.7274L18.6682 15.7278Z" fill="#E0C389"/>
<path d="M17.217 3.67267C14.0231 3.67267 11.434 6.17244 11.434 9.25609C11.434 12.3397 14.0231 14.8395 17.217 14.8395C20.4109 14.8395 23 12.3397 23 9.25609C23 6.17244 20.4109 3.67267 17.217 3.67267ZM16.7167 12.9057V7.08734H16.6933L15.3029 7.73907L15.0213 6.49712L16.944 5.60724H18.366V12.9057H16.7167Z" fill="white"/>
</svg>
