<svg width="21" height="26" viewBox="0 0 21 26" fill="none" xmlns="http://www.w3.org/2000/svg">
<path d="M16.0466 5.50443C15.0024 4.3629 13.6804 3.62662 12.4093 3.29242C12.6806 2.94552 12.8431 2.50494 12.8431 2.02507C12.8431 0.906557 11.9617 0 10.8743 0C9.78695 0 8.90563 0.906557 8.90563 2.02507C8.90563 2.50494 9.06808 2.94552 9.33935 3.29242C6.63362 4.0033 3.6979 6.53721 3.6979 10.9243C3.6979 12.0968 3.65778 12.9557 3.65778 14.6799C3.65778 17.1011 0.818142 18.5273 0.749843 21.2386L16.0462 5.50443H16.0466Z" fill="#C90000"/>
<path d="M7.99806 23.528C8.24347 24.9335 9.43735 26 10.8743 26C12.3113 26 13.5052 24.9335 13.7506 23.528H7.99767H7.99806Z" fill="#C90000"/>
<path d="M18.0508 10.9243C18.0508 9.86734 17.8802 8.91871 17.5835 8.07645L3.54124 22.5206H18.8688C20.0457 22.5206 21 22.5492 21 21.3386C21 18.5618 18.0901 17.1309 18.0901 14.6803C18.0901 12.9561 18.05 12.0972 18.05 10.9247L18.0508 10.9243Z" fill="#C90000"/>
<path d="M20.125 4.34523L19.1976 3.39126L0 23.1384L0.927425 24.0923L20.125 4.34523Z" fill="#E0C389"/>
</svg>
