<svg width="25" height="26" viewBox="0 0 25 26" fill="none" xmlns="http://www.w3.org/2000/svg">
<path d="M9.59886 23.6272C9.8464 24.9763 11.0506 26 12.5 26C13.9495 26 15.1537 24.9763 15.4012 23.6272H9.59847H9.59886Z" fill="#E0C389"/>
<path d="M19.7386 11.5292C19.7386 7.31812 16.7775 4.88588 14.0483 4.20352C14.3219 3.87054 14.4858 3.44764 14.4858 2.98702C14.4858 1.91339 13.5968 1.0432 12.5 1.0432C11.4032 1.0432 10.5143 1.91339 10.5143 2.98702C10.5143 3.44764 10.6781 3.87054 10.9518 4.20352C8.22261 4.88588 5.26149 7.31812 5.26149 11.5292C5.26149 12.6547 5.22102 13.4791 5.22102 15.1341C5.22102 17.4864 2.28598 18.8602 2.28598 21.5253C2.28598 22.6873 3.2485 22.6599 4.43559 22.6599H20.5633C21.7504 22.6599 22.7129 22.6873 22.7129 21.5253C22.7129 18.8599 19.7779 17.4864 19.7779 15.1341C19.7779 13.4791 19.7374 12.6547 19.7374 11.5292H19.7386Z" fill="#E0C389"/>
<path d="M16.2244 3.40649C19.2279 4.80091 21.1351 7.6854 21.2012 10.9349C21.2075 11.2465 21.4678 11.4949 21.7847 11.4949C21.7885 11.4949 21.7924 11.4949 21.7967 11.4949C22.119 11.4884 22.3751 11.2278 22.3689 10.912C22.3315 9.08668 21.771 7.3185 20.7478 5.79873C19.7503 4.31706 18.3592 3.13256 16.7249 2.374C16.4334 2.23875 16.0854 2.36029 15.9473 2.64565C15.8091 2.93101 15.9333 3.27162 16.2248 3.40687L16.2244 3.40649Z" fill="#E0C389"/>
<path d="M22.9671 4.41459C21.7068 2.52983 19.9452 1.02263 17.8727 0.0556748C17.5816 -0.0799579 17.2332 0.0408162 17.0947 0.325797C16.9561 0.610778 17.0795 0.951765 17.3706 1.0874C21.2892 2.91577 23.7654 6.68796 23.8327 10.9318C23.8377 11.2442 24.0981 11.4945 24.4161 11.4945C24.4192 11.4945 24.4223 11.4945 24.4255 11.4945C24.7477 11.4896 25.005 11.2298 24.9999 10.9143C24.963 8.59596 24.26 6.34812 22.9671 4.41459Z" fill="#E0C389"/>
<path d="M4.25227 5.79835C3.22903 7.31812 2.66857 9.0863 2.63121 10.9116C2.62459 11.2271 2.88069 11.4881 3.20335 11.4945C3.20724 11.4945 3.21113 11.4945 3.21541 11.4945C3.53223 11.4945 3.79261 11.2461 3.79884 10.9345C3.86539 7.68501 5.77253 4.80053 8.77568 3.40611C9.0672 3.27086 9.19135 2.92987 9.05318 2.64489C8.91501 2.35991 8.56706 2.23837 8.27554 2.37324C6.64124 3.13179 5.24982 4.31629 4.25266 5.79797L4.25227 5.79835Z" fill="#E0C389"/>
<path d="M7.62977 1.08737C7.9209 0.951741 8.04428 0.610373 7.90572 0.325773C7.76716 0.0407916 7.41843 -0.0799824 7.12769 0.0556503C5.05514 1.0226 3.29357 2.5298 2.03331 4.41457C0.739963 6.34809 0.0370484 8.59594 7.33715e-05 10.9143C-0.00498637 11.2297 0.252282 11.4896 0.574548 11.4945C0.577662 11.4945 0.580776 11.4945 0.58389 11.4945C0.901875 11.4945 1.16265 11.2446 1.16732 10.9318C1.23504 6.68794 3.7112 2.91575 7.62938 1.08737H7.62977Z" fill="#E0C389"/>
</svg>
