<svg width="43" height="43" viewBox="0 0 43 43" fill="none" xmlns="http://www.w3.org/2000/svg">
<path d="M25.4475 36.0722C24.4422 38.288 23.5211 40.5856 22.3364 42.7027L21.8349 43H21.1628L20.6625 42.7027C19.4844 40.5699 18.5218 38.2745 17.5525 36.0296C19.4081 36.4312 21.2245 36.6433 23.1262 36.4379C23.9026 36.3549 24.6969 36.1025 25.4475 36.0722Z" fill="#E0C389"/>
<path d="M6.97051 25.4477C6.92002 25.5038 5.72966 24.9451 5.57035 24.8744C4.81193 24.5367 0.580034 22.6856 0.29731 22.3378C0.179508 22.193 0.164923 21.9563 0 21.8363V21.1654L0.29731 20.6639C2.41438 19.4791 4.71208 18.5581 6.92788 17.5528C7.02212 17.5506 6.67095 19.1291 6.64852 19.2895C6.35569 21.4178 6.48472 23.361 6.97051 25.4477Z" fill="#E0C389"/>
<path d="M21.4983 34.009C28.4071 34.009 34.0077 28.4084 34.0077 21.4997C34.0077 14.591 28.4071 8.99039 21.4983 8.99039C14.5895 8.99039 8.98885 14.591 8.98885 21.4997C8.98885 28.4084 14.5895 34.009 21.4983 34.009Z" fill="#E0C389"/>
<path d="M14.1082 8.40139L11.4616 10.3288L9.82805 12.0555L8.39984 14.1097L5.98209 7.5824C5.74537 6.5839 6.49369 5.77275 7.51127 5.97021L14.1082 8.40139Z" fill="#E0C389"/>
<path d="M14.1082 34.5184L7.58083 37.0168C6.51725 37.2199 5.7521 36.4873 5.98209 35.4193L8.39984 28.892L9.82805 30.9462C11.0364 32.3665 12.4365 33.6646 14.1082 34.5184Z" fill="#E0C389"/>
<path d="M37.0156 7.5824L34.5171 14.1097C33.6633 12.438 32.3641 11.0379 30.9449 9.82958L28.8906 8.40139L35.418 5.98479C35.8735 5.92421 36.32 5.91524 36.6701 6.2462C37.028 6.58389 37.0998 7.11568 37.0156 7.5824Z" fill="#E0C389"/>
<path d="M36.6701 36.7554C36.3548 37.0427 35.823 37.0943 35.4169 37.0168L28.8906 34.6003L30.9449 33.1721C32.3641 31.9638 33.6633 30.5636 34.5171 28.892L37.0156 35.4193C37.102 35.8725 37.0246 36.4346 36.6701 36.7554Z" fill="#E0C389"/>
<path d="M42.5747 22.4634L36.0283 25.4477C36.6622 22.8146 36.6622 20.1871 36.0283 17.5539C36.1484 17.5293 36.2348 17.582 36.3402 17.6201C37.8885 18.1822 39.9954 19.2559 41.5168 20.0008C41.8152 20.1478 42.5142 20.4384 42.7015 20.6639C43.1604 21.217 43.0684 21.9687 42.5747 22.4634Z" fill="#E0C389"/>
<path d="M25.4463 6.97208C22.8098 6.33371 20.189 6.33371 17.5525 6.97208C18.3535 5.14336 19.1209 3.2765 19.9994 1.48369C20.1464 1.18526 20.437 0.486309 20.6625 0.298949C21.2156 -0.159912 21.9673 -0.0690374 22.462 0.424603L25.4463 6.97208Z" fill="#E0C389"/>
</svg>
