<svg width="50" height="50" viewBox="0 0 50 50" fill="none" xmlns="http://www.w3.org/2000/svg">
<circle cx="25" cy="25" r="25" fill="#5C6248"/>
<path fill-rule="evenodd" clip-rule="evenodd" d="M26.4847 23.1282H22.5155C22.4451 23.1282 22.3877 23.071 22.3877 23.0007V22.0389C22.3877 21.9688 22.4451 21.9116 22.5155 21.9116H26.4847C26.5551 21.9116 26.6125 21.9688 26.6125 22.0389V23.0007C26.6125 23.071 26.5551 23.1282 26.4847 23.1282ZM12 18.0943L24.4999 15.682L36.9999 18.0943V15.4548L24.4999 11L12 15.4548V18.0943ZM37 19.894L24.5 18.4017L12 19.894V34.5448L24.4999 39L36.9999 34.5448V19.894H37ZM19.1269 23.1282H15.1581C15.0877 23.1282 15.03 23.071 15.03 23.0007V22.0389C15.03 21.9688 15.0877 21.9116 15.1581 21.9116H19.1269C19.1973 21.9116 19.255 21.9688 19.255 22.0389V23.0007C19.255 23.071 19.1973 23.1282 19.1269 23.1282ZM13.4636 21.2865C13.7006 21.2865 13.8926 21.4779 13.8926 21.7138C13.8926 21.832 13.8446 21.9387 13.7669 22.0161L13.9034 22.152C14.1451 22.3929 14.1451 22.7871 13.9034 23.0282L13.498 23.4325C13.4791 23.4511 13.4485 23.4511 13.4297 23.4325L13.0241 23.0282C12.7823 22.7871 12.7823 22.3929 13.0241 22.152L13.1605 22.0161C13.0828 21.9387 13.0348 21.832 13.0348 21.7138C13.0348 21.4779 13.2268 21.2865 13.4636 21.2865ZM29.8731 23.1282C29.8026 23.1282 29.7452 23.071 29.7452 23.0007V22.0389C29.7452 21.9688 29.8026 21.9116 29.8731 21.9116H33.8419C33.9123 21.9116 33.9697 21.9688 33.9697 22.0389V23.0007C33.9697 23.071 33.9123 23.1282 33.8419 23.1282H29.8731ZM35.2333 22.0161C35.1556 21.9387 35.1076 21.832 35.1076 21.7138C35.1076 21.4779 35.2998 21.2865 35.5366 21.2865C35.7733 21.2865 35.9652 21.4779 35.9652 21.7138C35.9652 21.832 35.9175 21.9387 35.8395 22.0161L35.9759 22.152C36.2179 22.3929 36.2179 22.7871 35.9759 23.0282L35.5705 23.4325C35.5516 23.4511 35.5212 23.4511 35.5023 23.4325L35.0968 23.0282C34.8553 22.7871 34.8553 22.3929 35.0968 22.152L35.2333 22.0161ZM27.8755 22.0161C27.7979 21.9387 27.7499 21.832 27.7499 21.7138C27.7499 21.4779 27.942 21.2865 28.1789 21.2865C28.4157 21.2865 28.6077 21.4779 28.6077 21.7138C28.6077 21.832 28.5597 21.9387 28.4817 22.0161L28.6186 22.152C28.8601 22.3929 28.8601 22.7871 28.6186 23.0282L28.2131 23.4325C28.1943 23.4511 28.1634 23.4511 28.1446 23.4325L27.7396 23.0282C27.4976 22.7871 27.4976 22.3929 27.7396 22.152L27.8755 22.0161ZM21.2609 23.0282L20.8555 23.4325C20.8366 23.4511 20.806 23.4511 20.7873 23.4325L20.3816 23.0282C20.1399 22.7871 20.1399 22.3929 20.3816 22.152L20.518 22.0161C20.4404 21.9387 20.3924 21.832 20.3924 21.7138C20.3924 21.4779 20.5846 21.2865 20.8213 21.2865C21.0581 21.2865 21.2503 21.4779 21.2503 21.7138C21.2503 21.832 21.2021 21.9387 21.1246 22.0161L21.2609 22.152C21.5026 22.3929 21.5026 22.7871 21.2609 23.0282Z" fill="white"/>
</svg>
