<svg width="50" height="50" viewBox="0 0 50 50" fill="none" xmlns="http://www.w3.org/2000/svg">
<circle cx="25" cy="25" r="25" fill="#5C6248"/>
<path d="M17.3881 19.2062V18.0327C17.3881 17.6889 17.2503 17.3767 17.0263 17.1513C16.8019 16.926 16.4909 16.788 16.1486 16.788C15.4639 16.788 14.909 17.3451 14.909 18.0327V35.0929H17.3886V23.506H22.0407C22.0368 23.4544 22.0326 23.4033 22.0326 23.348V19.3642C22.0326 19.3088 22.0364 19.2578 22.0407 19.2062H17.3881Z" fill="white"/>
<path d="M28.1757 23.506H30.7024C31.1469 23.506 31.5054 23.8655 31.5054 24.3124V25.7232H35.7875V24.3124C35.7875 21.4988 33.5048 19.2067 30.7028 19.2067H28.1762C28.18 19.2582 28.1842 19.3093 28.1842 19.3647V23.3484C28.1842 23.4038 28.1804 23.4554 28.1762 23.5065L28.1757 23.506ZM33.9218 22.5616C34.0673 22.4943 34.2446 22.5616 34.3074 22.712C34.5318 23.2176 34.6459 23.7552 34.6459 24.3124C34.6459 24.4742 34.5123 24.6089 34.3507 24.6089C34.189 24.6089 34.0554 24.4747 34.0554 24.3124C34.0554 23.8383 33.957 23.3838 33.7682 22.9531C33.7054 22.8027 33.772 22.6289 33.9218 22.5621V22.5616ZM30.7024 20.3525C31.5444 20.3525 32.3475 20.6175 33.0284 21.1155C33.1582 21.2143 33.1896 21.4 33.0911 21.5304C33.036 21.6096 32.9456 21.6531 32.8548 21.6531C32.7921 21.6531 32.7326 21.6335 32.6779 21.5939C32.1036 21.1708 31.4184 20.946 30.7024 20.946C30.5412 20.946 30.4071 20.8118 30.4071 20.6495C30.4071 20.4872 30.5407 20.353 30.7024 20.353V20.3525Z" fill="white"/>
<path d="M18.4489 35.6859H13.8478C13.3794 35.6859 13 36.0669 13 36.5371V38H19.2962V36.5371C19.2962 36.0669 18.9168 35.6859 18.4485 35.6859H18.4489Z" fill="white"/>
<path d="M27.2552 18.5449C27.046 18.3349 26.7573 18.205 26.4383 18.205H25.7983V15.8847C26.1012 15.7285 26.3465 15.4755 26.4887 15.1628H28.6012C28.8223 15.5509 29.2365 15.8097 29.7105 15.8097C30.4147 15.8097 30.9853 15.2368 30.9853 14.5297C30.9853 13.8226 30.4147 13.2497 29.7105 13.2497C29.2365 13.2497 28.8271 13.5085 28.606 13.8919H26.4887C26.2495 13.3652 25.7203 13 25.1079 13C24.4955 13 23.962 13.3652 23.7224 13.8919H21.6099C21.3888 13.5085 20.9794 13.2497 20.5053 13.2497C19.8012 13.2497 19.2306 13.8226 19.2306 14.5297C19.2306 15.2368 19.8012 15.8097 20.5053 15.8097C20.9794 15.8097 21.3935 15.5509 21.6146 15.1628H23.7224C23.865 15.4765 24.1113 15.7305 24.4166 15.8866V18.205H23.7771C23.458 18.205 23.1694 18.3349 22.9602 18.5449C22.751 18.7545 22.6217 19.0439 22.6217 19.3642V23.348C22.6217 23.6225 22.7206 23.8707 22.8789 24.0689C23.0905 24.3343 23.4119 24.5076 23.7766 24.5076H26.4374C26.8363 24.5076 27.1877 24.3047 27.3954 23.9958C27.403 23.9849 27.4073 23.972 27.4145 23.961C27.4468 23.9089 27.4777 23.8564 27.5019 23.7991C27.51 23.7796 27.5138 23.7576 27.521 23.7375C27.5647 23.6153 27.5928 23.4855 27.5928 23.348V19.3647C27.5928 19.3017 27.5837 19.2406 27.5742 19.1799C27.5347 18.9341 27.4225 18.713 27.2547 18.5449H27.2552Z" fill="white"/>
<path d="M30.8279 26.3157H36.4651C36.7604 26.3157 37 26.5563 37 26.8528V28.6504C37 28.9469 36.7604 29.1875 36.4651 29.1875H30.8279C30.5326 29.1875 30.293 28.9469 30.293 28.6504V26.8533C30.293 26.5568 30.5326 26.3162 30.8279 26.3162V26.3157Z" fill="white"/>
<path d="M33.3507 31.2753C32.831 32.1251 31.8159 33.8874 31.8159 34.6422C31.8159 35.6577 32.6347 36.4798 33.646 36.4798C34.6573 36.4798 35.4761 35.6577 35.4761 34.6422C35.4761 33.8874 34.4605 32.1247 33.9451 31.2753C33.8072 31.05 33.4848 31.05 33.3507 31.2753Z" fill="white"/>
<path d="M18.4332 31.6329C18.4332 31.7967 18.5654 31.9294 18.7285 31.9294C18.8916 31.9294 19.0238 31.7967 19.0238 31.6329V29.1875C19.0238 29.0237 18.8916 28.891 18.7285 28.891C18.5654 28.891 18.4332 29.0237 18.4332 29.1875V31.6329Z" fill="white"/>
<path d="M18.7285 28.2479C18.8916 28.2479 19.0238 28.1152 19.0238 27.9514V27.674C19.0238 27.5102 18.8916 27.3775 18.7285 27.3775C18.5654 27.3775 18.4332 27.5102 18.4332 27.674V27.9514C18.4332 28.1152 18.5654 28.2479 18.7285 28.2479Z" fill="white"/>
</svg>
