<svg width="50" height="50" viewBox="0 0 50 50" fill="none" xmlns="http://www.w3.org/2000/svg">
<circle cx="25" cy="25" r="25" fill="#5C6248"/>
<path d="M28.2441 24.3503C28.1901 24.5624 27.4376 24.7825 27.4509 25.0896L27.4554 42H23.4672V25.1588C23.5346 24.7479 22.7121 24.6299 22.7458 24.3139C22.7573 24.2039 22.986 23.6679 23.0533 23.5498C23.0853 23.4939 23.0347 23.4371 23.1606 23.4726L25.2238 24.9325L25.5552 24.9928L27.9198 23.3999L28.2441 24.3503Z" fill="white"/>
<path d="M34.572 36.394L34.5675 42H28.1865L28.2202 25.3265L28.5516 25.0621L32.6718 34.8933C33.0955 35.605 33.7788 36.149 34.572 36.394Z" fill="white"/>
<path d="M22.7396 25.4889L22.7361 42H16.3551L16.3639 36.4623C16.4011 36.3531 16.8416 36.2502 16.9985 36.1668C17.6321 35.8286 18.07 35.3539 18.4271 34.738L22.4365 25.1286C22.5854 25.2236 22.7494 25.2813 22.7396 25.4889Z" fill="white"/>
<path d="M22.5349 22.9011L17.6047 34.6466C16.4313 36.5173 13.5173 35.9857 13.0485 33.8452C12.8163 32.7856 13.473 31.6283 13.8647 30.6424C15.1577 27.3916 16.6138 24.2012 17.8847 20.9416L22.5349 22.9011Z" fill="white"/>
<path d="M37.9096 33.9472C37.3273 36.0727 34.4567 36.4153 33.3179 34.5134L28.4542 22.9011L33.1043 20.9416C34.4594 24.4755 36.1087 27.9046 37.4567 31.4402C37.7952 32.3268 38.1781 32.9666 37.9096 33.9472Z" fill="white"/>
<path d="M21.6061 12.2392V16.9898C21.6061 18.841 23.8909 20.4127 25.6306 20.347C27.2462 20.2858 29.3165 18.6893 29.3165 16.9898V12.2392H21.6061ZM24.1683 18.4141C23.6852 17.674 24.3597 16.8931 25.1121 16.7732C25.8114 16.6614 26.858 16.9241 26.9759 17.737C27.1656 19.0505 24.8657 19.4835 24.1683 18.4141Z" fill="white"/>
<path d="M29.2172 11.5089H21.6061C21.9092 8.71961 24.9216 7.09823 27.4093 8.53235C28.1874 8.9814 28.8636 9.8023 29.1357 10.6596C29.2048 10.8779 29.3723 11.3509 29.2172 11.5089Z" fill="white"/>
<path d="M28.8893 21.8752C28.4364 22.1521 27.6787 22.1486 27.5413 22.7396L25.4826 24.1861L23.4451 22.8079C23.3742 22.1415 22.5677 22.1423 22.0714 21.8708L22.8034 20.1447C24.2622 21.0712 25.923 21.2141 27.5006 20.489C27.6494 20.4207 28.0802 20.0772 28.183 20.1482L28.8893 21.8752Z" fill="white"/>
<path d="M32.0426 20.5751L29.733 21.5291L29.5496 21.4732L28.7289 19.59C29.2057 19.1055 29.5886 18.5286 29.8119 17.8835C29.8615 17.7423 30.0476 17.1531 30.0476 17.0555V14.4321C31.6323 15.0977 30.9472 17.0972 31.128 18.4337C31.229 19.1756 31.7811 19.8829 32.0426 20.5751Z" fill="white"/>
<path d="M22.2602 19.6557L21.3633 21.5344L18.9465 20.5751C19.3532 19.6628 19.8753 18.9555 19.947 17.9225C20.0339 16.6747 19.5172 15.127 20.8749 14.4321C20.9414 15.2451 20.7854 16.1929 20.8749 16.9898C20.9813 17.9323 21.6034 18.991 22.2602 19.6557Z" fill="white"/>
<path d="M16.2877 22.8017L13.2966 30.1747C13.1787 30.1871 13.2266 29.951 13.2319 29.8783C13.2558 29.5748 13.3338 29.2091 13.3852 28.9012C13.7663 26.5956 14.127 24.1258 16.2877 22.8017Z" fill="white"/>
<path d="M37.6907 30.0424L34.7013 22.8683C37.1394 24.4036 37.2431 27.4786 37.6907 30.0424Z" fill="white"/>
<path d="M25.6775 18.2695C24.8391 18.3991 24.3615 17.6518 25.1777 17.5036C26.2456 17.3093 26.6294 18.1222 25.6775 18.2695Z" fill="white"/>
</svg>
