<svg width="195" height="203" viewBox="0 0 195 203" fill="none" xmlns="http://www.w3.org/2000/svg">
<path fill-rule="evenodd" clip-rule="evenodd" d="M129.563 64.1435L100.129 47.2219L129.637 64.2904L129.563 64.1435ZM64.6964 64.1185L64.6093 64.2904L97.1267 45.4954L97.1074 45.4847L64.6964 64.1185ZM129.563 64.1435L100.129 47.2219L129.637 64.2904L129.563 64.1435ZM64.6964 64.1185L64.6093 64.2904L97.1267 45.4954L97.1074 45.4847L64.6964 64.1185ZM110.523 10.4676L114.55 18.4356C155.862 26.5078 187.029 62.7543 187.029 106.265C187.029 155.713 146.789 195.787 97.136 195.787C47.4825 195.787 7.24267 155.713 7.24267 106.265C7.24267 62.7543 38.4101 26.5078 79.7222 18.4356L83.7486 10.4676C36.4225 16.9516 0 57.3643 0 106.265C0 159.697 43.4824 203 97.136 203C150.789 203 194.272 159.697 194.272 106.265C194.272 57.3643 157.823 16.9516 110.523 10.4676Z" fill="#5C6248"/>
<path fill-rule="evenodd" clip-rule="evenodd" d="M129.768 55.9316L129.78 55.9558L123.639 52.425L97.1361 0L70.6141 52.4186L59.1929 58.9846L59.1965 58.9781L37.6256 71.3727V139.804L97.1361 173.993L156.621 139.804V71.3727L129.768 55.9316ZM64.6964 64.1185L97.1074 45.4847L97.1267 45.4954L97.1361 45.4903L100.129 47.2219L129.563 64.1435L142.998 71.8676L143.001 71.8619L145.769 73.4558C135.415 79.4191 135.546 79.315 123.257 86.3973L97.1361 101.422L71.0154 86.3973C58.6996 79.315 58.8567 79.4191 48.5028 73.4558L53.261 70.7223L53.2817 70.6809L64.6964 64.1185ZM149.377 100.537L97.1361 130.585L44.8682 100.537V88.0382L97.1361 118.087L149.377 88.0382V100.537Z" fill="white"/>
</svg>
