<svg width="50" height="50" viewBox="0 0 50 50" fill="none" xmlns="http://www.w3.org/2000/svg">
<circle cx="25" cy="25" r="25" fill="#8F9B87"/>
<path d="M25.5003 13C18.5965 13 13 18.5965 13 25.4997C13 32.4028 18.5965 38 25.5003 38C32.4042 38 38 32.4035 38 25.4997C38 18.5958 32.4035 13 25.5003 13ZM31.9958 19.8343C30.8637 22.2634 30.044 24.952 28.8945 27.3582C28.4924 28.1994 28.1994 28.4924 27.3582 28.8945C24.9632 30.0385 22.2905 30.8554 19.874 31.9833C19.2957 32.2386 18.7607 31.7077 19.0174 31.1267C20.1474 28.7115 20.9615 26.0361 22.1055 23.6418C22.4993 22.8173 22.8124 22.4972 23.6418 22.1055L31.3744 18.9478C31.8518 18.9061 32.1899 19.4071 31.9958 19.8343Z" fill="#E0C389"/>
<path d="M27.1654 25.4983C27.1654 26.4195 26.4188 27.1661 25.4983 27.1661C24.5777 27.1661 23.8304 26.4195 23.8304 25.4983C23.8304 24.577 24.577 23.8311 25.4983 23.8311C26.4195 23.8311 27.1654 24.5777 27.1654 25.4983Z" fill="#E0C389"/>
</svg>
