<svg width="25" height="25" viewBox="0 0 25 25" fill="none" xmlns="http://www.w3.org/2000/svg">
<path d="M12.4996 0C5.59658 0 0 5.5964 0 12.5C0 19.4036 5.59658 25 12.4996 25C19.4026 25 25 19.4036 25 12.5C25 5.5964 19.4034 0 12.4996 0ZM18.4488 13.2426C17.5224 14.4101 16.0222 15.5094 15.0567 16.6977C14.4139 17.2906 13.337 16.6636 13.4493 15.8412C13.5382 15.1884 15.0376 14.1365 15.4293 13.5528H7.05685C6.68513 13.5528 6.22526 12.8867 6.21362 12.5233C6.20114 12.1416 6.66268 11.4364 7.05685 11.4364H15.3669C15.001 10.861 13.4942 9.8257 13.3886 9.21201C13.2655 8.49438 13.9399 7.92975 14.6376 8.08858C14.7748 8.11934 14.9752 8.29148 15.0883 8.38461C15.9249 9.08229 17.7852 10.9101 18.4488 11.7466C18.9011 12.3179 18.902 12.6705 18.4488 13.2426Z" fill="#525252"/>
</svg>
