<svg width="43" height="43" viewBox="0 0 43 43" fill="none" xmlns="http://www.w3.org/2000/svg">
<path d="M42.8767 27.4807C40.8599 35.4643 32.3533 42.3693 24.2072 43H19.5876C18.8909 42.8387 18.1741 42.7811 17.4717 42.6371C8.64329 40.8169 1.67223 33.5231 0.281748 24.5805L0.0160094 22.4463C0.053357 21.5823 -0.0342662 20.6952 0.0160094 19.8341C0.505837 11.4488 5.98587 3.9116 13.7111 0.756472C14.7166 0.346061 16.6788 -0.628851 17.3912 0.598062C18.029 1.69393 16.8195 2.5018 16.2421 3.29526C7.42806 15.4089 17.2203 32.0125 31.9654 30.0152C35.1112 29.5889 37.7126 28.2914 40.2063 26.4021C40.8929 25.8837 41.4215 25.0355 42.4314 25.6936C43.1338 26.1501 43.0562 26.7736 42.8767 27.4807Z" fill="#E0C389"/>
<path d="M29.7131 18.5755C29.1198 19.4899 28.7435 20.8464 28.1416 21.7162C27.6417 22.4377 26.6118 22.514 26.0559 21.8141C25.4052 20.9919 25.0216 19.4208 24.3724 18.5323C23.5838 17.9606 21.2151 17.2752 20.8014 16.4702C20.5169 15.9186 20.5931 15.2173 21.1045 14.8271C21.9477 14.1819 23.489 13.8133 24.3781 13.1394C24.9398 12.4121 25.6092 10.1167 26.2943 9.6703C26.4164 9.5911 26.5615 9.5191 26.7052 9.49318C27.1447 9.4111 27.7006 9.48022 28.0296 9.80999C28.6286 10.4105 29.1471 12.3373 29.7131 13.0918C30.5132 13.7096 32.8704 14.3706 33.3257 15.1972C34.3873 17.1225 30.7516 17.7158 29.7131 18.5755Z" fill="#E0C389"/>
<path d="M41.2391 5.703C41.163 7.05375 39.6447 7.00623 38.6549 6.94575C38.7943 8.15683 38.6205 9.83879 36.9686 9.43702C35.8998 9.17637 36.0262 7.79106 36.0521 6.94575C34.8297 7.07248 33.2094 6.89247 33.5512 5.23787C33.7739 4.1564 35.2333 4.31624 36.0521 4.33496C35.8812 3.17573 36.1713 1.3368 37.75 1.83217C38.9221 2.19938 38.6276 3.3615 38.6549 4.33496C39.6719 4.23704 41.3195 4.25432 41.2391 5.703Z" fill="#E0C389"/>
</svg>
