<svg width="53" height="43" viewBox="0 0 53 43" fill="none" xmlns="http://www.w3.org/2000/svg">
<path d="M52.5 36.6397V43H0.5V36.7557C0.921217 36.9021 1.28661 37.1733 1.69768 37.3537C2.9017 37.8835 4.46096 38.3074 5.78678 38.2645C9.79722 38.1333 11.0165 34.3438 15.6334 36.4227C18.4233 37.6791 19.7516 38.4991 22.9615 37.336C24.7073 36.704 26.3351 34.861 28.3536 35.5447C29.4117 35.903 29.9471 37.0408 31.1017 37.5492C35.3494 39.42 37.6496 34.8648 41.5217 35.3782C42.6801 35.5309 43.284 36.4379 44.1746 37.0131C46.7019 38.6467 49.9955 38.0134 52.5 36.6397Z" fill="#E0C389"/>
<path d="M52.5 28.777V34.5015C50.7517 35.5624 48.3145 36.6018 46.2553 35.9812C44.9029 35.5738 44.0528 34.2618 42.6661 33.7749C41.0256 33.2009 38.9919 33.5844 37.4466 34.306C35.8239 35.0641 34.1314 36.6624 32.1915 36.0014C30.787 35.522 30.3772 34.1332 28.5896 33.6904C25.4558 32.9159 23.8966 35.4274 21.1891 35.9169C17.0861 36.6574 15.372 32.4617 10.2514 34.5028C9.26817 34.8951 8.48409 35.6797 7.49576 36.0355C4.99256 36.9374 2.5934 35.9131 0.5 34.5583V28.893C0.921217 29.0394 1.28661 29.3106 1.69768 29.491C2.9017 30.0195 4.46096 30.4446 5.78678 30.4005C9.79722 30.2693 11.0152 26.4799 15.6334 28.56C18.4233 29.8164 19.7516 30.6364 22.9615 29.4733C24.7187 28.8375 26.3135 26.9908 28.3536 27.682C29.4117 28.0403 29.9471 29.1781 31.1017 29.6852C35.3354 31.551 37.5861 27.0652 41.4151 27.5042C42.7714 27.6606 43.7395 29.0533 44.993 29.607C47.3439 30.6452 50.3165 29.9678 52.5 28.777Z" fill="#E0C389"/>
<path d="M37.8741 25.7684C37.0583 25.9551 36.2946 26.4508 35.6691 26.9832C35.1679 27.4096 35.1096 27.8208 34.4181 28.0504C33.36 28.4023 32.4833 28.3405 31.4912 27.8511C36.0662 23.9039 34.5374 16.1775 28.5883 14.6133C20.4279 12.4662 15.3872 22.5554 21.6243 27.9659C20.7552 28.1311 19.8227 28.2219 18.9498 28.0315C17.5428 27.7249 16.7042 25.9589 15.1259 25.7684C15.2705 25.12 15.7552 24.5637 15.9696 23.8951C16.6027 21.9234 16.1954 20.0312 15.1233 18.3144C17.6443 17.2787 19.4611 15.0384 19.4205 12.2417C21.9174 13.1966 24.9369 12.2064 26.4429 10.043C26.5952 10.043 27.2029 10.8339 27.4274 11.0282C29.0907 12.4738 31.481 13.0326 33.5795 12.2417C33.5579 15.0182 35.3481 17.3191 37.8754 18.3144C36.5014 20.4601 36.3542 22.6614 37.4808 24.9484C37.6178 25.2247 37.9312 25.4253 37.8741 25.7684Z" fill="#E0C389"/>
<path d="M30.6246 26.1216C29.9218 26.794 29.7111 26.1708 28.9639 25.9172C27.043 25.2676 25.263 26.1115 23.5883 26.9895C18.7963 24.2849 20.2693 16.8259 25.7781 16.2052C31.3047 15.5808 34.5539 22.3599 30.6246 26.1216Z" fill="#E0C389"/>
<path d="M16.453 5.64297L4.84919 5.65307C3.94713 5.59126 3.56778 4.35881 4.13363 3.7205C4.62082 3.17051 5.62946 3.5111 5.96313 2.94092C6.16359 2.5978 6.07098 1.83966 6.24479 1.37039C6.73579 0.0420714 8.39401 -0.399445 9.54602 0.396539C10.0167 0.720735 10.1004 1.12693 10.4202 1.49023C11.2918 2.47796 11.9883 1.16856 12.8688 1.03232C13.6389 0.912483 14.6285 1.29597 15.0612 1.95445C15.3568 2.40353 15.3276 3.05949 15.9353 3.28151C16.3806 3.4455 16.7016 3.29917 17.1051 3.73564C17.78 4.46224 17.3233 5.40077 16.453 5.64297Z" fill="#E0C389"/>
<path d="M50.2391 6.92462C46.5751 6.66854 42.4669 7.25639 38.8561 6.92715C37.9401 6.84389 37.4897 6.08322 37.8665 5.23678C38.2497 4.3752 39.2837 4.82681 39.7354 4.32348C40.0982 3.91729 39.9054 3.44298 39.9916 2.95984C40.1312 2.18782 41.0231 1.40446 41.792 1.28335C42.4314 1.18118 43.2967 1.47257 43.7293 1.95697C44.0884 2.35812 44.1328 3.01913 44.7912 3.10365C45.5347 3.19826 45.9826 2.39723 46.7666 2.3064C47.4479 2.22567 48.2612 2.47796 48.7205 2.99768C49.0681 3.39126 49.2064 4.20113 49.4868 4.43197C49.7672 4.66282 50.1046 4.56569 50.4129 4.66534C51.6157 5.05009 51.4838 6.77829 50.2391 6.92462Z" fill="#E0C389"/>
</svg>
