<svg width="50" height="50" viewBox="0 0 50 50" fill="none" xmlns="http://www.w3.org/2000/svg">
<circle cx="25" cy="25" r="25" fill="#8F9B87"/>
<path d="M19.0079 13.0338C19.3332 12.9562 19.6943 13.0305 19.9554 13.2392C20.2056 13.4331 20.3599 13.7425 20.3574 14.0576C20.3599 14.9783 20.3599 15.8998 20.3574 16.8205C20.3524 17.0572 20.2673 17.2924 20.118 17.478C19.8861 17.7667 19.4942 17.9202 19.1247 17.8624C18.8553 17.8278 18.6034 17.6867 18.4274 17.4838C18.2565 17.2816 18.1722 17.0152 18.1781 16.7528C18.1806 15.8544 18.1739 14.956 18.1797 14.0576C18.1822 13.5832 18.5359 13.1353 19.0071 13.0346L19.0079 13.0338Z" fill="#E0C389"/>
<path d="M30.4757 13.0338C30.7601 12.9604 31.0737 13.0082 31.323 13.1617C31.6333 13.3465 31.8268 13.6996 31.8285 14.0559C31.831 14.8496 31.8335 15.6432 31.831 16.436C31.8276 16.6654 31.8618 16.9038 31.7801 17.1249C31.6725 17.4689 31.3789 17.7478 31.0245 17.836C30.5949 17.9524 30.1079 17.7783 29.8518 17.4178C29.7042 17.2173 29.6408 16.9657 29.65 16.7198C29.65 15.8206 29.6467 14.9214 29.6517 14.0221C29.6625 13.5593 30.0161 13.1311 30.474 13.0338H30.4757Z" fill="#E0C389"/>
<path d="M14.1514 15.993C14.6877 15.5805 15.3699 15.366 16.0472 15.3767C16.6785 15.3751 17.3099 15.3767 17.9404 15.3734C17.9354 15.5665 17.942 15.7595 17.9387 15.9518C17.7911 16.1951 17.6802 16.4674 17.6643 16.7536C17.6193 17.3394 17.922 17.9425 18.4341 18.2436C18.8061 18.4729 19.2748 18.543 19.6977 18.4267C20.2173 18.2889 20.6443 17.8723 20.8061 17.3666C20.9687 16.9005 20.8695 16.3775 20.6009 15.9691C20.5901 15.7711 20.6009 15.5731 20.5959 15.3751C23.5316 15.3792 26.4682 15.3759 29.404 15.3767C29.4065 15.5681 29.4115 15.7604 29.4048 15.9518C29.2055 16.2983 29.0837 16.7058 29.1554 17.1059C29.2221 17.5877 29.5207 18.0299 29.9494 18.2691C30.3406 18.501 30.836 18.5439 31.2647 18.3937C31.6567 18.2601 31.9886 17.9722 32.1796 17.6083C32.4531 17.101 32.4148 16.4476 32.0837 15.9757C32.0495 15.7826 32.0862 15.5764 32.0762 15.3776C32.5624 15.3776 33.0486 15.3726 33.5357 15.3767C33.8535 15.38 34.1737 15.3611 34.4898 15.4106C35.1345 15.5104 35.7533 15.814 36.1962 16.2917C36.6299 16.738 36.906 17.3287 36.9785 17.9425C37.0002 18.1281 36.9969 18.3153 36.9969 18.5026C37.0019 23.9071 36.9994 29.3108 36.9994 34.7152C36.9969 34.9941 37.0127 35.2762 36.956 35.551C36.8251 36.3281 36.3664 37.0499 35.7025 37.488C35.2654 37.7891 34.7434 37.9649 34.2121 37.9929C33.8685 38.0069 33.5249 37.9954 33.1812 37.9979C30.7276 38.0003 28.273 37.9995 25.8194 37.9987C22.6459 37.9962 19.4716 38.0036 16.2982 37.997C16.1314 37.9954 15.9646 38.002 15.7986 37.9921C15.1531 37.9401 14.5159 37.7009 14.0263 37.276C13.3866 36.7447 13.0047 35.9271 13.0122 35.1005C13.0088 31.0267 13.0155 26.9529 13.008 22.8783C12.9963 21.4569 13.0022 20.0321 13.0005 18.6074C12.998 18.3038 13.003 17.9977 13.0664 17.7007C13.2048 17.0275 13.596 16.408 14.1514 15.993ZM14.0964 19.7203C14.0989 24.8129 14.0964 29.9048 14.0964 34.9974C14.0897 35.513 14.3032 36.0286 14.6827 36.3834C15.0405 36.7332 15.5459 36.9213 16.0463 36.9147C21.7235 36.9171 27.3998 36.9138 33.077 36.9163C33.4982 36.9023 33.9227 36.9419 34.3422 36.8866C35.1687 36.7637 35.8376 36.0303 35.8985 35.2094C35.9168 34.7887 35.9185 34.3671 35.906 33.9464C35.9076 31.1101 35.896 28.2729 35.9126 25.4366C35.896 23.5309 35.9101 21.6244 35.9026 19.7178C28.6333 19.7203 21.3649 19.7195 14.0964 19.7203Z" fill="#E0C389"/>
<path d="M24.2856 30.4814C24.2856 31.0457 24.138 31.5415 23.8436 31.9689C23.5492 32.397 23.128 32.7204 22.5809 32.939C22.0329 33.1577 21.3774 33.2657 20.6134 33.2657C20.1347 33.2657 19.6451 33.2113 19.143 33.1024C18.6418 32.9935 18.2064 32.8343 17.8386 32.6247C17.5993 32.4969 17.4333 32.3467 17.3407 32.1743C17.249 32.0019 17.2165 31.8261 17.2448 31.6488C17.2723 31.4714 17.3457 31.3171 17.465 31.1843C17.5851 31.0523 17.7394 30.9682 17.9279 30.9319C18.1164 30.8956 18.3257 30.9319 18.5559 31.0408C18.9145 31.2132 19.2523 31.3344 19.5701 31.4021C19.887 31.4706 20.2164 31.5052 20.5567 31.5052C20.9153 31.5052 21.2222 31.4623 21.475 31.3749C21.7277 31.2891 21.9161 31.1513 22.0404 30.9649C22.1647 30.7792 22.2264 30.5482 22.2264 30.276C22.2264 29.8849 22.093 29.5979 21.8261 29.4164C21.5592 29.2349 21.168 29.1425 20.6526 29.1425H19.8378C19.5342 29.1425 19.3023 29.0657 19.1414 28.9106C18.9804 28.7564 18.8995 28.5468 18.8995 28.2828C18.8995 28.0188 18.9804 27.7977 19.1414 27.6476C19.3023 27.4974 19.535 27.4224 19.8378 27.4224H20.4449C20.7494 27.4224 21.0137 27.3745 21.2389 27.2788C21.4641 27.1831 21.6342 27.047 21.7493 26.8696C21.8644 26.6914 21.922 26.4753 21.922 26.2212C21.922 25.8664 21.8002 25.595 21.5559 25.4086C21.3123 25.2221 20.9462 25.1289 20.4591 25.1289C20.1639 25.1289 19.8745 25.1611 19.5892 25.2246C19.304 25.2881 18.9904 25.4069 18.6501 25.5793C18.4575 25.6882 18.2723 25.7254 18.0988 25.6882C17.9237 25.6519 17.7811 25.5678 17.671 25.435C17.5609 25.303 17.4892 25.1537 17.4575 24.9854C17.425 24.8171 17.4458 24.6488 17.5192 24.4796C17.5926 24.3113 17.7352 24.1637 17.9471 24.0358C18.3432 23.8172 18.7727 23.6514 19.2381 23.5375C19.7027 23.4245 20.1747 23.3667 20.6526 23.3667C21.3515 23.3667 21.9503 23.4699 22.4474 23.6736C22.9445 23.8791 23.324 24.1719 23.5859 24.5547C23.8486 24.9375 23.9795 25.4069 23.9795 25.9613C23.9795 26.335 23.9086 26.6758 23.766 26.9859C23.6234 27.2953 23.4182 27.5568 23.1513 27.7713C22.9695 27.9174 22.7652 28.0345 22.5367 28.122C23.0312 28.254 23.4291 28.4965 23.731 28.8504C24.0988 29.2835 24.2831 29.8272 24.2831 30.4822L24.2856 30.4814Z" fill="#E0C389"/>
<path d="M29.1446 33.2666C27.9761 33.2666 27.0787 32.8343 26.4532 31.9697C25.8269 31.1051 25.5141 29.8808 25.5141 28.2969C25.5141 27.2136 25.6526 26.3078 25.9286 25.5793C26.2047 24.8509 26.6167 24.3006 27.1638 23.9269C27.7109 23.554 28.3715 23.3667 29.1446 23.3667C30.3222 23.3667 31.2221 23.7858 31.8435 24.6232C32.4648 25.4605 32.7751 26.6807 32.7751 28.2828C32.7751 29.3479 32.6366 30.2512 32.3606 30.9929C32.0845 31.7346 31.675 32.2997 31.1321 32.6858C30.5891 33.0727 29.9261 33.2657 29.1446 33.2657V33.2666ZM29.1446 31.5597C29.6784 31.5597 30.0737 31.2981 30.3314 30.7743C30.5891 30.2512 30.7175 29.4205 30.7175 28.282C30.7175 27.1435 30.5908 26.3251 30.3381 25.8244C30.0845 25.3236 29.6867 25.0736 29.1438 25.0736C28.6008 25.0736 28.2138 25.3244 27.9569 25.8244C27.6992 26.3251 27.5708 27.1443 27.5708 28.282C27.5708 29.4197 27.6992 30.2504 27.9569 30.7743C28.2147 31.2981 28.61 31.5597 29.1438 31.5597H29.1446Z" fill="#E0C389"/>
</svg>
