<svg width="50" height="50" viewBox="0 0 50 50" fill="none" xmlns="http://www.w3.org/2000/svg">
<circle cx="25" cy="25" r="25" fill="#5C6248"/>
<path d="M19.0079 13.0338C19.3332 12.9562 19.6943 13.0305 19.9554 13.2392C20.2056 13.4331 20.3599 13.7425 20.3574 14.0576C20.3599 14.9783 20.3599 15.8998 20.3574 16.8205C20.3524 17.0572 20.2673 17.2924 20.118 17.478C19.8861 17.7667 19.4942 17.9202 19.1247 17.8624C18.8553 17.8278 18.6034 17.6867 18.4274 17.4838C18.2565 17.2816 18.1722 17.0152 18.1781 16.7528C18.1806 15.8544 18.1739 14.956 18.1797 14.0576C18.1822 13.5832 18.5359 13.1353 19.0071 13.0346L19.0079 13.0338Z" fill="white"/>
<path d="M30.4757 13.0338C30.7601 12.9604 31.0737 13.0082 31.323 13.1617C31.6333 13.3465 31.8268 13.6996 31.8285 14.0559C31.831 14.8496 31.8335 15.6432 31.831 16.436C31.8276 16.6654 31.8618 16.9038 31.7801 17.1249C31.6725 17.4689 31.3789 17.7478 31.0245 17.836C30.5949 17.9524 30.1079 17.7783 29.8518 17.4178C29.7042 17.2173 29.6408 16.9657 29.65 16.7198C29.65 15.8206 29.6467 14.9214 29.6517 14.0221C29.6625 13.5593 30.0161 13.1311 30.474 13.0338H30.4757Z" fill="white"/>
<path d="M14.1514 15.993C14.6877 15.5805 15.3699 15.366 16.0472 15.3767C16.6785 15.3751 17.3099 15.3767 17.9404 15.3734C17.9354 15.5665 17.942 15.7595 17.9387 15.9518C17.7911 16.1951 17.6802 16.4674 17.6643 16.7536C17.6193 17.3394 17.922 17.9425 18.4341 18.2436C18.8061 18.4729 19.2748 18.543 19.6977 18.4267C20.2173 18.2889 20.6443 17.8723 20.8061 17.3666C20.9687 16.9005 20.8695 16.3775 20.6009 15.9691C20.5901 15.7711 20.6009 15.5731 20.5959 15.3751C23.5316 15.3792 26.4682 15.3759 29.404 15.3767C29.4065 15.5681 29.4115 15.7604 29.4048 15.9518C29.2055 16.2983 29.0837 16.7058 29.1554 17.1059C29.2221 17.5877 29.5207 18.0299 29.9494 18.2691C30.3406 18.501 30.836 18.5439 31.2647 18.3937C31.6567 18.2601 31.9886 17.9722 32.1796 17.6083C32.4531 17.101 32.4148 16.4476 32.0837 15.9757C32.0495 15.7826 32.0862 15.5764 32.0762 15.3776C32.5624 15.3776 33.0486 15.3726 33.5357 15.3767C33.8535 15.38 34.1737 15.3611 34.4898 15.4106C35.1345 15.5104 35.7533 15.814 36.1962 16.2917C36.6299 16.738 36.906 17.3287 36.9785 17.9425C37.0002 18.1281 36.9969 18.3153 36.9969 18.5026C37.0019 23.9071 36.9994 29.3108 36.9994 34.7152C36.9969 34.9941 37.0127 35.2762 36.956 35.551C36.8251 36.3281 36.3664 37.0499 35.7025 37.488C35.2654 37.7891 34.7434 37.9649 34.2121 37.9929C33.8685 38.0069 33.5249 37.9954 33.1812 37.9979C30.7276 38.0003 28.273 37.9995 25.8194 37.9987C22.6459 37.9962 19.4716 38.0036 16.2982 37.997C16.1314 37.9954 15.9646 38.002 15.7986 37.9921C15.1531 37.9401 14.5159 37.7009 14.0263 37.276C13.3866 36.7447 13.0047 35.9271 13.0122 35.1005C13.0088 31.0267 13.0155 26.9529 13.008 22.8783C12.9963 21.4569 13.0022 20.0321 13.0005 18.6074C12.998 18.3038 13.003 17.9977 13.0664 17.7007C13.2048 17.0275 13.596 16.408 14.1514 15.993ZM14.0964 19.7203C14.0989 24.8129 14.0964 29.9048 14.0964 34.9974C14.0897 35.513 14.3032 36.0286 14.6827 36.3834C15.0405 36.7332 15.5459 36.9213 16.0463 36.9147C21.7235 36.9171 27.3998 36.9138 33.077 36.9163C33.4982 36.9023 33.9227 36.9419 34.3422 36.8866C35.1687 36.7637 35.8376 36.0303 35.8985 35.2094C35.9168 34.7887 35.9185 34.3671 35.906 33.9464C35.9076 31.1101 35.896 28.2729 35.9126 25.4366C35.896 23.5309 35.9101 21.6244 35.9026 19.7178C28.6333 19.7203 21.3649 19.7195 14.0964 19.7203Z" fill="white"/>
<path d="M24.0379 25.6008C23.726 24.8806 23.2756 24.3287 22.6851 23.9442C22.0946 23.559 21.374 23.3667 20.5233 23.3667C19.8728 23.3667 19.2965 23.5119 18.7927 23.8015C18.2898 24.0911 17.8937 24.4854 17.6059 24.9829C17.3174 25.4812 17.1731 26.0512 17.1731 26.6939C17.1731 27.3003 17.2965 27.839 17.5442 28.3101C17.7911 28.7811 18.1297 29.1515 18.5601 29.4238C18.9896 29.6952 19.4658 29.8305 19.9879 29.8305C20.3899 29.8305 20.756 29.7538 21.0855 29.6003C21.4149 29.4461 21.6901 29.2316 21.9095 28.9552C21.9987 28.8422 22.0771 28.7201 22.143 28.5889V28.6904C22.143 29.2423 22.0671 29.7068 21.9161 30.0821C21.7652 30.4575 21.5367 30.7405 21.2297 30.931C20.9228 31.1208 20.5409 31.2157 20.0838 31.2157C19.8636 31.2157 19.6351 31.1893 19.3974 31.1348C19.1589 31.0804 18.9078 30.9946 18.6418 30.8766C18.3766 30.7677 18.1455 30.7454 17.9487 30.8089C17.7519 30.8725 17.5943 30.983 17.475 31.1414C17.3557 31.2998 17.2873 31.4805 17.269 31.6842C17.2506 31.888 17.2848 32.0827 17.3724 32.2683C17.4592 32.454 17.6076 32.6008 17.8186 32.7097C18.1572 32.8912 18.5184 33.029 18.9028 33.1238C19.2873 33.2187 19.6718 33.2666 20.0563 33.2666C20.761 33.2666 21.3857 33.1535 21.9303 32.9275C22.4749 32.7006 22.9395 32.3706 23.324 31.9359C23.7076 31.5011 24.0012 30.9715 24.2022 30.3469C24.4032 29.7224 24.5041 29.0113 24.5041 28.2152C24.5041 27.1922 24.3481 26.3202 24.0379 25.6008ZM21.6901 27.2846C21.5984 27.4793 21.4633 27.6336 21.2848 27.7466C21.1063 27.8596 20.8978 27.9157 20.6601 27.9157C20.4224 27.9157 20.2139 27.8596 20.0354 27.7466C19.857 27.6336 19.7202 27.4793 19.6234 27.2846C19.5275 27.0899 19.48 26.8614 19.48 26.599C19.48 26.3367 19.5275 26.1032 19.6234 25.8994C19.7202 25.6957 19.857 25.5422 20.0354 25.4374C20.2139 25.3335 20.4224 25.2815 20.6601 25.2815C20.8978 25.2815 21.1063 25.3335 21.2848 25.4374C21.4633 25.5422 21.5984 25.6957 21.6901 25.8994C21.781 26.1032 21.8269 26.3367 21.8269 26.599C21.8269 26.8614 21.781 27.0899 21.6901 27.2846Z" fill="white"/>
<path d="M29.1446 33.2666C27.9544 33.2666 27.042 32.8318 26.4057 31.9631C25.7693 31.0944 25.4516 29.8627 25.4516 28.2696C25.4516 27.2194 25.5933 26.3276 25.8769 25.5942C26.1605 24.8608 26.5775 24.3064 27.1263 23.931C27.675 23.5557 28.3481 23.3676 29.1446 23.3676C30.3439 23.3676 31.2588 23.7867 31.8902 24.624C32.5215 25.4614 32.8376 26.6766 32.8376 28.2705C32.8376 29.3297 32.6958 30.2306 32.4123 30.9731C32.1287 31.7156 31.7117 32.2832 31.1629 32.6775C30.6141 33.071 29.9411 33.2682 29.1446 33.2682V33.2666ZM29.1446 31.2709C29.5841 31.2709 29.9085 31.0333 30.1196 30.5581C30.3297 30.0829 30.4356 29.3198 30.4356 28.2696C30.4356 27.2194 30.3306 26.4835 30.1196 26.0356C29.9085 25.5876 29.5841 25.3632 29.1446 25.3632C28.7051 25.3632 28.3806 25.5876 28.1696 26.0356C27.9586 26.4835 27.8535 27.2285 27.8535 28.2696C27.8535 29.3108 27.9586 30.0829 28.1696 30.5581C28.3798 31.0333 28.7051 31.2709 29.1446 31.2709Z" fill="white"/>
</svg>
