<svg width="43" height="43" viewBox="0 0 43 43" fill="none" xmlns="http://www.w3.org/2000/svg">
<path d="M21.0237 14.9502C16.2761 16.6946 14.4431 23.3612 12.1681 27.3991C9.79967 31.6041 6.65252 35.4101 2.94111 38.4881C2.01745 39.2534 1.03749 39.9514 0.0635195 40.6506L0.384583 42.1764C1.83656 41.7223 3.03576 40.5822 4.51649 40.1545C5.78278 39.788 7.23595 39.9454 8.57771 39.7232C14.0047 38.8233 18.3726 34.64 19.6556 29.319C19.8329 28.5861 19.7826 26.945 20.6452 26.8837C21.9007 26.7948 21.4215 28.4047 21.2753 29.1412C20.0066 35.5182 14.9882 40.116 8.66876 41.2537C8.40999 41.3006 8.1081 41.1961 7.93199 41.4135C10.7832 43.4199 15.132 43.3442 18.3091 42.18C24.4944 39.913 27.7086 33.4374 26.6939 27.0387C26.5885 26.3719 26.0721 24.9639 26.1931 24.4377C26.2147 24.3452 26.3153 24.2106 26.38 24.1337C26.531 23.9547 26.864 23.7529 27.0653 23.515C30.7216 19.1851 26.3453 12.9955 21.0237 14.9502ZM23.7983 21.4894C22.5296 21.4894 21.5006 20.4598 21.5006 19.1899C21.5006 17.9201 22.5296 16.8904 23.7983 16.8904C25.067 16.8904 26.0961 17.9201 26.0961 19.1899C26.0961 20.4598 25.0682 21.4894 23.7983 21.4894Z" fill="#E0C389"/>
<path d="M36.0527 19.1551H34.3C34.2557 19.1551 33.8531 18.6866 33.6279 18.57C32.3664 17.9189 30.5718 17.5825 29.2504 16.9709C28.3519 15.1544 26.7143 13.762 24.7328 13.2646C20.2978 12.1497 16.5241 15.5184 14.5785 19.1551H6.94124C7.60014 7.82464 20.4595 1.38992 29.8818 8.02047C33.5309 10.5903 35.7472 14.6883 36.0527 19.1551Z" fill="#E0C389"/>
<path d="M40.8147 19.1551H37.5801C37.3872 16.3642 36.5954 13.7007 35.1015 11.3388C30.1417 3.49598 19.6377 1.44999 12.0723 6.88995C8.11409 9.73608 5.69532 14.2726 5.41379 19.1551H2.17919C3.12561 17.9873 4.56321 17.3169 4.2062 15.5533C4.04926 14.7736 2.8908 12.9607 3.09446 12.2939C3.21187 11.9106 5.72407 11.1369 6.25239 10.7777C7.76187 9.74929 7.03349 7.84867 7.20839 6.3385C7.25751 5.92282 7.46956 5.71137 7.88287 5.66452C9.39115 5.48911 11.3691 6.22197 12.3502 4.64933C12.7288 4.04142 13.3853 1.78398 13.8369 1.5461C13.9711 1.47642 14.0574 1.47762 14.1987 1.50165C15.4674 1.7155 16.6894 2.9181 18.1066 2.67662C19.3094 2.47238 20.8273 0.0419394 21.4586 0.00109166C21.6539 -0.0109224 21.7569 0.0779816 21.9019 0.181302C22.786 0.806033 23.7552 2.4844 24.8873 2.67662C26.3441 2.92411 27.5145 1.7179 28.7952 1.50165C29.2852 1.41875 29.3906 1.77316 29.5703 2.12638C30.0747 3.12114 30.337 4.70339 31.3134 5.32812C32.3257 5.97688 33.9478 5.52996 35.111 5.66452C35.5244 5.71137 35.7364 5.92282 35.7855 6.3385C35.9784 8.00966 35.1494 9.88025 36.9799 10.899C37.7131 11.3063 39.0057 11.5886 39.6383 12.0139C40.0923 12.3191 39.9558 12.5834 39.8276 12.9967C39.485 14.1068 38.5912 15.2974 38.7566 16.4952C38.9015 17.5488 40.2181 18.349 40.8147 19.1551Z" fill="#E0C389"/>
<path d="M13.0415 22.1586C12.9528 22.2739 12.8965 22.3196 12.742 22.3088L0.884145 22.2956C0.230037 22.2655 -0.305473 21.5483 0.200084 20.9969C0.277954 20.9116 0.710434 20.6845 0.785908 20.6845H13.68C13.7399 20.7386 13.0918 22.0961 13.0415 22.1586Z" fill="#E0C389"/>
<path d="M39.0645 25.3628L27.8871 25.3507C27.4762 24.9819 28.6323 24.2382 28.7041 23.8514L39.2442 23.8298C40.151 23.9367 40.1546 25.2318 39.0645 25.3628Z" fill="#E0C389"/>
<path d="M42.7938 21.9904C42.716 22.0757 42.2835 22.3028 42.2068 22.3028H30.8414C30.9839 22.1094 31.3373 21.994 31.5614 21.8991C32.6276 21.451 33.7453 21.0401 34.8355 20.6797C37.0662 20.9332 40.0444 20.3469 42.1864 20.7061C42.819 20.8118 43.2874 21.4522 42.7938 21.9904Z" fill="#E0C389"/>
<path d="M11.6039 25.2162C11.5152 25.3327 11.4601 25.3772 11.3044 25.3664L3.77253 25.3399C2.72428 25.1513 3.12321 23.8322 3.57127 23.8322H12.2424C12.2987 23.8826 11.6733 25.1273 11.6039 25.2162Z" fill="#E0C389"/>
<path d="M36.1665 28.3963L28.4094 28.3795L28.2357 26.8897H36.3666C36.3929 26.8897 36.6804 27.1901 36.7188 27.2562C37.0027 27.7475 36.7092 28.299 36.1665 28.3963Z" fill="#E0C389"/>
<path d="M10.6251 26.8897L9.6643 28.4011C8.87721 28.2786 6.02117 28.9213 6.15176 27.5854C6.16853 27.41 6.50876 26.8897 6.62617 26.8897H10.6251Z" fill="#E0C389"/>
<path d="M29.853 21.0437C29.9872 20.276 29.9429 19.5636 29.8542 18.7959L32.9978 19.8759L29.853 21.0437Z" fill="#E0C389"/>
<path d="M23.8031 19.9588C24.2292 19.9588 24.5746 19.6135 24.5746 19.1875C24.5746 18.7616 24.2292 18.4162 23.8031 18.4162C23.377 18.4162 23.0316 18.7616 23.0316 19.1875C23.0316 19.6135 23.377 19.9588 23.8031 19.9588Z" fill="#E0C389"/>
</svg>
