<svg width="50" height="50" viewBox="0 0 50 50" fill="none" xmlns="http://www.w3.org/2000/svg">
<circle cx="25" cy="25" r="25" fill="#5C6248"/>
<path d="M19.0079 13.0338C19.3332 12.9562 19.6943 13.0305 19.9554 13.2392C20.2056 13.4331 20.3599 13.7425 20.3574 14.0576C20.3599 14.9783 20.3599 15.8998 20.3574 16.8205C20.3524 17.0572 20.2673 17.2924 20.118 17.478C19.8861 17.7667 19.4942 17.9202 19.1247 17.8624C18.8553 17.8278 18.6034 17.6867 18.4274 17.4838C18.2565 17.2816 18.1722 17.0152 18.1781 16.7528C18.1806 15.8544 18.1739 14.956 18.1797 14.0576C18.1822 13.5832 18.5359 13.1353 19.0071 13.0346L19.0079 13.0338Z" fill="white"/>
<path d="M30.4757 13.0338C30.7601 12.9604 31.0737 13.0082 31.323 13.1617C31.6333 13.3465 31.8268 13.6996 31.8285 14.0559C31.831 14.8496 31.8335 15.6432 31.831 16.436C31.8276 16.6654 31.8618 16.9038 31.7801 17.1249C31.6725 17.4689 31.3789 17.7478 31.0245 17.836C30.5949 17.9524 30.1079 17.7783 29.8518 17.4178C29.7042 17.2173 29.6408 16.9657 29.65 16.7198C29.65 15.8206 29.6467 14.9214 29.6517 14.0221C29.6625 13.5593 30.0161 13.1311 30.474 13.0338H30.4757Z" fill="white"/>
<path d="M14.1514 15.993C14.6877 15.5805 15.3699 15.366 16.0472 15.3767C16.6785 15.3751 17.3099 15.3767 17.9404 15.3734C17.9354 15.5665 17.942 15.7595 17.9387 15.9518C17.7911 16.1951 17.6802 16.4674 17.6643 16.7536C17.6193 17.3394 17.922 17.9425 18.4341 18.2436C18.8061 18.4729 19.2748 18.543 19.6977 18.4267C20.2173 18.2889 20.6443 17.8723 20.8061 17.3666C20.9687 16.9005 20.8695 16.3775 20.6009 15.9691C20.5901 15.7711 20.6009 15.5731 20.5959 15.3751C23.5316 15.3792 26.4682 15.3759 29.404 15.3767C29.4065 15.5681 29.4115 15.7604 29.4048 15.9518C29.2055 16.2983 29.0837 16.7058 29.1554 17.1059C29.2221 17.5877 29.5207 18.0299 29.9494 18.2691C30.3406 18.501 30.836 18.5439 31.2647 18.3937C31.6567 18.2601 31.9886 17.9722 32.1796 17.6083C32.4531 17.101 32.4148 16.4476 32.0837 15.9757C32.0495 15.7826 32.0862 15.5764 32.0762 15.3776C32.5624 15.3776 33.0486 15.3726 33.5357 15.3767C33.8535 15.38 34.1737 15.3611 34.4898 15.4106C35.1345 15.5104 35.7533 15.814 36.1962 16.2917C36.6299 16.738 36.906 17.3287 36.9785 17.9425C37.0002 18.1281 36.9969 18.3153 36.9969 18.5026C37.0019 23.9071 36.9994 29.3108 36.9994 34.7152C36.9969 34.9941 37.0127 35.2762 36.956 35.551C36.8251 36.3281 36.3664 37.0499 35.7025 37.488C35.2654 37.7891 34.7434 37.9649 34.2121 37.9929C33.8685 38.0069 33.5249 37.9954 33.1812 37.9979C30.7276 38.0003 28.273 37.9995 25.8194 37.9987C22.6459 37.9962 19.4716 38.0036 16.2982 37.997C16.1314 37.9954 15.9646 38.002 15.7986 37.9921C15.1531 37.9401 14.5159 37.7009 14.0263 37.276C13.3866 36.7447 13.0047 35.9271 13.0122 35.1005C13.0088 31.0267 13.0155 26.9529 13.008 22.8783C12.9963 21.4569 13.0022 20.0321 13.0005 18.6074C12.998 18.3038 13.003 17.9977 13.0664 17.7007C13.2048 17.0275 13.596 16.408 14.1514 15.993ZM14.0964 19.7203C14.0989 24.8129 14.0964 29.9048 14.0964 34.9974C14.0897 35.513 14.3032 36.0286 14.6827 36.3834C15.0405 36.7332 15.5459 36.9213 16.0463 36.9147C21.7235 36.9171 27.3998 36.9138 33.077 36.9163C33.4982 36.9023 33.9227 36.9419 34.3422 36.8866C35.1687 36.7637 35.8376 36.0303 35.8985 35.2094C35.9168 34.7887 35.9185 34.3671 35.906 33.9464C35.9076 31.1101 35.896 28.2729 35.9126 25.4366C35.896 23.5309 35.9101 21.6244 35.9026 19.7178C28.6333 19.7203 21.3649 19.7195 14.0964 19.7203Z" fill="white"/>
<path d="M28.6567 24.2693C28.6567 24.5192 28.6217 24.7362 28.5516 24.921C28.4815 25.1066 28.3898 25.3055 28.278 25.5183L24.4883 32.5851C24.3565 32.826 24.193 32.9993 23.997 33.1057C23.8002 33.2113 23.5483 33.2657 23.2389 33.2657C22.977 33.2657 22.7618 33.2047 22.5934 33.0851C22.4249 32.9646 22.3265 32.8004 22.2981 32.5926C22.2698 32.3838 22.3265 32.1594 22.4666 31.9194L26.1596 25.1429H22.2698C21.9795 25.1429 21.7527 25.067 21.5892 24.9136C21.4257 24.761 21.344 24.5415 21.344 24.2544C21.344 23.9673 21.4257 23.7479 21.5892 23.5953C21.7527 23.4418 21.9804 23.3659 22.2698 23.3659H27.6317C27.9311 23.3659 28.1771 23.4443 28.3689 23.6019C28.5608 23.7603 28.6567 23.9822 28.6567 24.2693Z" fill="white"/>
</svg>
