<svg width="30" height="30" viewBox="0 0 30 30" fill="none" xmlns="http://www.w3.org/2000/svg">
<rect width="30" height="30" rx="15" fill="#212121"/>
<path d="M20.3333 15C20.3333 18.2217 17.7217 20.8333 14.5 20.8333M20.3333 15C20.3333 11.7783 17.7217 9.16667 14.5 9.16667M20.3333 15L22 15M14.5 20.8333C11.2783 20.8333 8.66667 18.2217 8.66667 15M14.5 20.8333L14.5 22.5M8.66667 15C8.66667 11.7783 11.2783 9.16667 14.5 9.16667M8.66667 15L7 15M14.5 9.16667L14.5 7.5M17.8333 15C17.8333 16.841 16.341 18.3333 14.5 18.3333C12.6591 18.3333 11.1667 16.841 11.1667 15C11.1667 13.1591 12.6591 11.6667 14.5 11.6667C16.341 11.6667 17.8333 13.1591 17.8333 15Z" stroke="#5C6248" stroke-linecap="round"/>
</svg>
