<?xml version="1.0" encoding="UTF-8"?>
<svg version="1.1" xmlns="http://www.w3.org/2000/svg" width="512" height="512">
<path d="M0 0 C2.4375 1.5625 2.4375 1.5625 4 4 C5.1296503 9.85364247 3.87625778 12.62113118 0.625 17.5625 C-0.00148437 18.43003906 -0.62796875 19.29757813 -1.2734375 20.19140625 C-6.43621245 28.58967591 -6.34133884 39.75058039 -4.3125 49.203125 C-0.98707395 59.12397939 5.42526095 67.5591889 14.76171875 72.4453125 C26.37047083 77.64769819 35.82227491 77.90133069 48 74 C51.537907 72.25426111 54.73228347 70.19683565 58 68 C60.75340455 66.43251876 61.75283044 65.99485063 65 66.0625 C68 67 68 67 70.4375 69 C73.13848344 74.18588821 71.82158353 78.38919012 70.12109375 83.79296875 C64.07021428 99.75295397 53.30015775 112.3173676 38 120 C30.28041129 123.3328446 23.1718394 126.17562453 14.6875 126.0625 C13.36298828 126.04896484 13.36298828 126.04896484 12.01171875 126.03515625 C11.34785156 126.02355469 10.68398438 126.01195312 10 126 C9.48336931 134.68660447 9.8954771 141.07826002 15.75 147.75 C17.75793286 149.91949821 19.84781215 151.97429458 22 154 C22.95132813 154.91136719 23.90265625 155.82273438 24.8828125 156.76171875 C39.12796706 169.77186739 56.48847732 179.48271516 73.02490234 189.24365234 C160.78481852 241.05268213 160.78481852 241.05268213 175.00390625 291.56640625 C183.51139747 327.03483581 175.07233451 365.90178237 157 397 C155.33544852 398.66455148 153.34188266 398.13867738 151.05232716 398.15098095 C149.97418367 398.15913899 148.89604019 398.16729702 147.78522569 398.17570227 C146.58603728 398.17961063 145.38684887 398.18351899 144.15132141 398.18754578 C142.88879915 398.19545586 141.62627689 398.20336594 140.32549638 398.21151572 C136.80486522 398.23326719 133.28423083 398.2485389 129.76356184 398.26265609 C126.74776466 398.27553434 123.73199207 398.29209398 120.71621308 398.30863335 C92.13504533 398.46475652 63.55330928 398.53965276 34.9717989 398.60025311 C31.25048606 398.60828224 27.52917356 398.61645049 23.80786133 398.62475586 C22.42043451 398.62784226 22.42043451 398.62784226 21.00497886 398.63099102 C6.01946943 398.66541505 -8.96561246 398.73806822 -23.95089521 398.82566347 C-39.32589417 398.91479459 -54.70067128 398.96617333 -70.07592326 398.98155528 C-78.71277442 398.99122096 -87.3488557 399.01805219 -95.98544884 399.08786583 C-103.34089182 399.14729756 -110.69546282 399.17308782 -118.05114021 399.15452697 C-121.80543762 399.14612438 -125.55785332 399.15402943 -129.31184769 399.205513 C-133.38130615 399.26088792 -137.44667756 399.23890788 -141.5164032 399.20927429 C-142.704438 399.23772059 -143.8924728 399.26616688 -145.11650866 399.29547518 C-148.37415232 399.2341928 -150.92842353 399.09188532 -154 398 C-156.82614894 394.98698356 -158.39946316 391.77733182 -160 388 C-160.71420725 386.58167708 -161.43312452 385.16569829 -162.16015625 383.75390625 C-165.7141062 376.08838202 -168.70717561 368.42372312 -170.875 360.25 C-171.16129272 359.17214233 -171.16129272 359.17214233 -171.45336914 358.07250977 C-174.56542355 345.47059301 -175.4413614 332.85896892 -175.4375 319.9375 C-175.4385675 319.17297516 -175.43963501 318.40845032 -175.44073486 317.62075806 C-175.41515875 304.88501408 -174.26269373 293.09721154 -170 281 C-169.76474609 280.32759277 -169.52949219 279.65518555 -169.28710938 278.96240234 C-164.75796308 266.50101155 -157.49516499 256.06049289 -149 246 C-148.33871094 245.21496094 -147.67742187 244.42992187 -146.99609375 243.62109375 C-128.27434542 221.96834764 -101.95504179 207.58386358 -77.5859375 193.28515625 C-37.74860321 171.87299214 -37.74860321 171.87299214 -8 139 C-6.75730482 134.04348944 -6.76076487 129.0872646 -7 124 C-8.258125 123.79375 -9.51625 123.5875 -10.8125 123.375 C-25.11459017 120.12961178 -38.17915971 109.14375201 -46 97 C-55.18462124 80.43309152 -58.31481967 61.96323976 -53.4375 43.375 C-47.59731813 26.46492637 -37.21146806 12.75893659 -21.13671875 4.53515625 C-18.44959291 3.28067937 -15.74670033 2.11693352 -13 1 C-11.9275 0.54625 -10.855 0.0925 -9.75 -0.375 C-6.13784695 -1.19594387 -3.57924379 -0.92795209 0 0 Z " fill="#000000" transform="translate(255,18)"/>
<path d="M0 0 C1.11274144 -0.00644889 2.22548289 -0.01289778 3.37194377 -0.0195421 C5.19789436 -0.01489629 5.19789436 -0.01489629 7.06073284 -0.01015663 C9.00652871 -0.0169533 9.00652871 -0.0169533 10.99163359 -0.02388728 C14.590618 -0.03612307 18.1895095 -0.03585614 21.78850996 -0.03349853 C25.6706982 -0.0330905 29.55285659 -0.04412811 33.43503094 -0.05361366 C41.0404224 -0.07022786 48.64578285 -0.0757234 56.25119094 -0.07683842 C62.43331168 -0.0777887 68.6154222 -0.08189803 74.79753971 -0.08823967 C92.32481289 -0.10585331 109.85206157 -0.11507836 127.37934367 -0.11357872 C128.32427946 -0.11349881 129.26921525 -0.1134189 130.24278545 -0.11333656 C131.18887496 -0.1132548 132.13496447 -0.11317304 133.10972335 -0.1130888 C148.44264392 -0.11227589 163.77546626 -0.1314145 179.10835842 -0.1596133 C194.85189512 -0.18833884 210.5953839 -0.20215377 226.33894747 -0.20042574 C235.17782914 -0.19976172 244.01660783 -0.20525929 252.85546589 -0.22678185 C260.38113367 -0.24498932 267.90665181 -0.24934458 275.43233208 -0.235763 C279.27134284 -0.22923108 283.11006646 -0.22912394 286.94904995 -0.2464695 C291.11287855 -0.26508914 295.2760418 -0.25265164 299.43988323 -0.23720741 C300.65049146 -0.24749454 301.86109969 -0.25778167 303.10839301 -0.26838052 C311.06377952 -0.20308273 316.5315253 0.83156007 322.682971 6.22211266 C329.22428036 14.12489071 330.5812928 20.84590066 330.6439085 31.06976891 C330.64960857 31.80171471 330.65530865 32.53366051 330.66118145 33.28778648 C330.67057937 34.82740416 330.67714456 36.36704148 330.68101788 37.90668297 C330.69075523 40.25046425 330.72183928 42.59337915 330.7532835 44.93695641 C330.75981201 46.43955542 330.76506308 47.94216063 330.7689085 49.44476891 C330.7812553 50.13868736 330.7936021 50.83260582 330.80632305 51.54755211 C330.78531306 56.17426151 329.88681861 59.33289365 327.4407835 63.25726891 C324.79118427 64.58206852 322.80228211 64.38639441 319.8334856 64.39148998 C318.63368222 64.39594783 317.43387884 64.40040567 316.19771779 64.4049986 C314.85435207 64.4049093 313.51098635 64.40471943 312.16762066 64.40443993 C310.74981296 64.40773762 309.33200621 64.41146299 307.91420066 64.41558141 C304.00429901 64.42562004 300.0944127 64.42932118 296.18449998 64.43197072 C291.97309701 64.43586818 287.76170627 64.44544681 283.55031109 64.45418358 C273.37380727 64.47396241 263.19730244 64.48401539 253.0207842 64.49291137 C248.23257972 64.49729141 243.44437635 64.5026589 238.65617275 64.50790024 C222.74667687 64.52491293 206.83718169 64.53940863 190.92767811 64.54664898 C186.7974437 64.54855898 182.6672093 64.5504793 178.53697491 64.55243492 C177.51038367 64.55291866 176.48379243 64.5534024 175.42609237 64.5539008 C158.78404832 64.56220681 142.14207601 64.58755316 125.50006332 64.6200156 C108.42775188 64.65304691 91.35547696 64.67109412 74.28313339 64.67429322 C64.6920339 64.67646182 55.10103908 64.68526164 45.50997066 64.71075439 C37.34439705 64.73240771 29.17895351 64.74053835 21.01335444 64.73078761 C16.84474478 64.72622742 12.67640382 64.72822825 8.50783062 64.74754906 C4.69444211 64.76507157 0.88152045 64.76427287 -2.93187226 64.74865177 C-4.31411431 64.74625897 -5.69638777 64.75068509 -7.07858156 64.76248042 C-8.9524095 64.77748546 -10.82639581 64.76559708 -12.70023632 64.75225353 C-14.2638173 64.75371875 -14.2638173 64.75371875 -15.85898578 64.75521356 C-19.25633213 64.12871507 -20.43881344 62.92793953 -22.5592165 60.25726891 C-23.06715107 58.19763756 -23.06715107 58.19763756 -23.07679462 55.98285484 C-23.08940327 55.14808617 -23.10201191 54.31331749 -23.11500263 53.45325279 C-23.10690571 52.55842186 -23.09880878 51.66359093 -23.0904665 50.74164391 C-23.0942934 49.81184715 -23.09812031 48.8820504 -23.10206318 47.92407799 C-23.10478326 45.95716838 -23.09741532 43.99022266 -23.08070087 42.02338219 C-23.0593891 39.03149904 -23.08044886 36.04204376 -23.1060915 33.05023766 C-23.10344635 31.13486782 -23.0983175 29.21949948 -23.0904665 27.30414391 C-23.09856342 26.4174099 -23.10666035 25.53067589 -23.11500263 24.61707115 C-23.01075033 17.61068327 -21.24662373 12.32401195 -16.59437275 7.01508141 C-15.94339619 6.47625328 -15.29241962 5.93742516 -14.6217165 5.38226891 C-13.97331806 4.82797203 -13.32491962 4.27367516 -12.65687275 3.70258141 C-8.55249783 0.87461358 -4.94678844 0.00726138 0 0 Z " fill="#000000" transform="translate(102.55921649932861,431.74273109436035)"/>
</svg>
