<svg width="22" height="21" viewBox="0 0 22 21" fill="none" xmlns="http://www.w3.org/2000/svg">
<path d="M12.1484 14.0795L12.1127 14.1431C11.622 15.015 10.3707 15.0152 9.87992 14.1431L9.83794 14.0687L9.83461 14.0583L9.81799 14.0272C9.63969 13.6938 9.09647 12.6805 8.47053 11.4075C8.27142 11.0063 8.04714 10.5433 7.8168 10.0525V19.121L14.2482 20.99V9.89526C13.2484 12.0387 12.2365 13.9084 12.1484 14.0795ZM5.85499 4.2903C5.85499 4.11906 5.86414 3.97161 5.8777 3.83092L0 5.44366V21L6.89107 19.115V7.9664C6.71781 7.54683 6.55488 7.13042 6.41152 6.73085C6.03122 5.65147 5.85499 4.87757 5.85499 4.2903ZM16.0343 5.16456C15.856 6.04323 15.5177 6.94068 15.1739 7.7856V20.9783L21.1451 19.1272V3.57636L16.0343 5.16456Z" fill="white"/>
<path d="M10.9964 0C8.82578 0 6.99571 1.62156 6.74035 3.76235C6.71482 3.92828 6.7063 4.1028 6.7063 4.29009C6.7063 5.85757 8.53419 9.62165 9.23436 11.0315C9.97917 12.5467 10.6176 13.7128 10.6218 13.7256C10.7889 14.0227 11.2064 14.0181 11.3709 13.7256C11.4089 13.6115 15.2864 6.58375 15.2864 4.29009C15.2864 1.92798 13.3627 0 10.9964 0ZM8.79172 4.21345V4.15813C8.81726 2.97068 9.80465 2.00456 10.9964 2.00456C12.2136 2.00456 13.201 2.99624 13.201 4.21345C13.201 4.61775 13.0903 5.01358 12.8775 5.35408C12.4945 6.00948 11.7709 6.42235 10.9964 6.42235C9.77912 6.42235 8.79172 5.43067 8.79172 4.21345Z" fill="white"/>
</svg>
