<svg width="30" height="30" viewBox="0 0 30 30" fill="none" xmlns="http://www.w3.org/2000/svg">
<rect width="30" height="30" rx="15" fill="#212121"/>
<path d="M22.6001 21.0834L19.4224 17.9056C20.2168 16.75 20.7222 15.3778 20.7222 13.8611C20.7222 10.1056 17.6167 7 13.8611 7C10.1056 7 7 10.1056 7 13.8611C7 17.6167 10.1056 20.7223 13.8611 20.7223C15.3778 20.7223 16.7501 20.2167 17.9056 19.4222L21.0834 22.6L22.6001 21.0834ZM9.16667 13.9333C9.16667 11.3333 11.2611 9.2389 13.8611 9.2389C16.4611 9.2389 18.5556 11.3333 18.5556 13.9333C18.5556 16.5334 16.4611 18.6278 13.8611 18.6278C11.2611 18.6278 9.16667 16.5334 9.16667 13.9333Z" fill="#5C6248"/>
</svg>
