<svg width="25" height="25" viewBox="0 0 25 25" fill="none" xmlns="http://www.w3.org/2000/svg">
<path d="M12.5 1.5C8.358 1.5 5 4.96252 5 9.23345C5 12.6388 9.7685 20.1185 11.701 23.0109C12.137 23.663 12.863 23.663 13.299 23.0109C15.2315 20.118 20 12.6393 20 9.23345C20 4.96252 16.642 1.5 12.5 1.5ZM12.5 5.10894C13.5609 5.10894 14.5783 5.54349 15.3284 6.31699C16.0786 7.09048 16.5 8.13957 16.5 9.23345C16.5 9.77509 16.3965 10.3114 16.1955 10.8118C15.9945 11.3122 15.6999 11.7669 15.3284 12.1499C14.957 12.5329 14.516 12.8367 14.0307 13.044C13.5454 13.2513 13.0253 13.358 12.5 13.358C11.4391 13.358 10.4217 12.9234 9.67157 12.1499C8.92143 11.3764 8.5 10.3273 8.5 9.23345C8.5 8.13957 8.92143 7.09048 9.67157 6.31699C10.4217 5.54349 11.4391 5.10894 12.5 5.10894Z" fill="white"/>
</svg>
