<svg width="25" height="25" viewBox="0 0 25 25" fill="none" xmlns="http://www.w3.org/2000/svg">
<path d="M0 12.3352C0.196715 11.9882 0.493427 11.8805 0.886037 11.8945C1.56716 11.9192 2.25075 11.8978 2.93269 11.9027C3.39579 11.906 3.65644 12.1214 3.66381 12.4922C3.67201 12.8819 3.40972 13.1105 2.92204 13.1154C2.22616 13.122 1.53028 13.1072 0.834399 13.122C0.456542 13.1302 0.172125 13.011 0 12.6632V12.3352Z" fill="white"/>
<path d="M24.9992 12.664C24.8418 13.0011 24.5746 13.1286 24.2082 13.122C23.5 13.1097 22.7919 13.122 22.0837 13.1162C21.6026 13.1121 21.337 12.8803 21.3436 12.4922C21.3493 12.1222 21.6099 11.9068 22.073 11.9035C22.7673 11.8986 23.4632 11.9192 24.1566 11.8953C24.5385 11.8822 24.8164 11.9997 25 12.336V12.6649L24.9992 12.664Z" fill="white"/>
<path d="M12.7045 0C13.0037 0.197323 13.116 0.47111 13.1061 0.832047C13.0873 1.5161 13.1061 2.2018 13.0988 2.88585C13.0938 3.35203 12.8725 3.61595 12.5061 3.6176C12.1389 3.61924 11.9135 3.35779 11.9078 2.88997C11.8988 2.20509 11.916 1.52021 11.8996 0.836158C11.8906 0.478509 12.0037 0.203079 12.2955 0H12.7045Z" fill="white"/>
<path d="M12.5889 5.53985C16.4273 5.56452 19.4731 8.65756 19.4395 12.4955C19.4051 16.3195 16.3191 19.3574 12.5053 19.3212C8.71857 19.2851 5.67932 16.1838 5.71375 12.3911C5.74817 8.58028 8.82348 5.51601 12.5889 5.53985ZM12.5496 6.38506V18.4473C14.402 18.5813 16.5699 17.3455 17.6232 15.4833C18.8346 13.3407 18.7797 11.1718 17.4494 9.10812C16.3232 7.36181 14.6561 6.48783 12.5496 6.38506Z" fill="white"/>
<path d="M13.1217 23.1954C13.1217 23.5777 13.1283 23.96 13.1192 24.3415C13.1102 24.7123 12.8611 24.9844 12.5365 24.9992C12.1848 25.0148 11.9258 24.7937 11.916 24.3925C11.8955 23.6015 11.8963 22.8089 11.916 22.018C11.9258 21.625 12.2029 21.3718 12.5275 21.3874C12.8578 21.4038 13.1143 21.7048 13.1217 22.0895C13.1258 22.2803 13.1217 22.4718 13.1217 22.6626C13.1217 22.8402 13.1217 23.0186 13.1217 23.1954Z" fill="white"/>
<path d="M21.5837 4.02293C21.4649 4.24328 21.4124 4.42087 21.2985 4.53926C20.7608 5.10081 20.2116 5.65249 19.6551 6.19513C19.3584 6.48454 18.9953 6.48536 18.7477 6.22802C18.5002 5.9715 18.515 5.62701 18.8125 5.32033C19.3444 4.77194 19.869 4.2145 20.4379 3.70639C20.5977 3.56333 20.9157 3.50167 21.1296 3.54853C21.3009 3.58635 21.4247 3.84616 21.5837 4.02293Z" fill="white"/>
<path d="M4.03429 21.602C3.87856 21.4696 3.65316 21.3652 3.58431 21.1966C3.51382 21.024 3.51628 20.7148 3.62693 20.5932C4.21462 19.9478 4.83263 19.3278 5.46949 18.7309C5.71948 18.4966 6.04079 18.5451 6.2752 18.8033C6.49487 19.0458 6.51126 19.3517 6.28996 19.5868C5.70965 20.2034 5.10721 20.7979 4.49985 21.3882C4.4015 21.4836 4.23757 21.5115 4.03429 21.602Z" fill="white"/>
<path d="M4.0556 3.39972C4.27445 3.52304 4.46215 3.58553 4.59165 3.70968C5.14163 4.23999 5.67932 4.78345 6.21045 5.33266C6.49405 5.62536 6.49815 6.00192 6.24898 6.24364C6.008 6.47714 5.649 6.47879 5.37032 6.20829C4.8023 5.65743 4.22937 5.10903 3.70644 4.51706C3.56956 4.36167 3.53677 4.03362 3.58923 3.81656C3.62857 3.65542 3.88102 3.54607 4.0556 3.39972Z" fill="white"/>
<path d="M21.5665 20.9895C21.4386 21.1498 21.3403 21.3866 21.1755 21.4491C20.9903 21.5189 20.6698 21.5148 20.5403 21.3973C19.9051 20.8201 19.2985 20.2092 18.7141 19.5794C18.4863 19.3336 18.515 19.0096 18.7699 18.7687C19.024 18.5287 19.3338 18.5213 19.5813 18.7581C20.1829 19.3328 20.7649 19.928 21.3419 20.5274C21.4378 20.6269 21.4706 20.7872 21.5665 20.9895Z" fill="white"/>
</svg>
