<svg width="25" height="25" viewBox="0 0 25 25" fill="none" xmlns="http://www.w3.org/2000/svg">
<path d="M10.2236 20.4507C10.7823 20.3344 14.1868 20.3344 14.7456 20.4507C15.2232 20.5593 15.7397 20.813 15.7397 21.3669C15.7119 21.8943 15.3976 22.3618 14.9633 22.6587C14.4001 23.0908 13.7392 23.3644 13.0483 23.463C12.6662 23.5118 12.2907 23.5129 11.9219 23.463C11.2299 23.3644 10.569 23.0908 10.007 22.6576C9.57152 22.3618 9.25717 21.8943 9.2294 21.3669C9.2294 20.813 9.74592 20.5593 10.2236 20.4507ZM12.5505 1.5C14.8754 1.5 17.2503 2.58572 18.661 4.38713C19.5763 5.54708 19.9961 6.70592 19.9961 8.50733V8.97596C19.9961 10.3575 20.3671 11.1718 21.1836 12.1102C21.8023 12.8015 22 13.6889 22 14.6516C22 15.6133 21.679 16.5262 21.0358 17.2673C20.1939 18.1558 19.0064 18.7231 17.7946 18.8217C16.0384 18.969 14.2811 19.0931 12.5006 19.0931C10.7189 19.0931 8.9627 19.0189 7.20655 18.8217C5.99357 18.7231 4.80614 18.1558 3.96527 17.2673C3.32213 16.5262 3 15.6133 3 14.6516C3 13.6889 3.19883 12.8015 3.81643 12.1102C4.6584 11.1718 5.00497 10.3575 5.00497 8.97596V8.50733C5.00497 6.65717 5.47372 5.44737 6.43899 4.26305C7.87413 2.53587 10.1746 1.5 12.4506 1.5H12.5505Z" fill="white"/>
</svg>
