<svg width="16" height="15" viewBox="0 0 16 15" fill="none" xmlns="http://www.w3.org/2000/svg">
<path d="M12.8631 14.9573C12.2939 15.3564 8.64148 12.8265 7.94196 12.821C7.24244 12.8155 3.54891 15.2871 2.98632 14.8791C2.42373 14.471 3.74635 10.2797 3.53557 9.62505C3.3248 8.97037 -0.211535 6.28623 0.00998295 5.63495C0.23155 4.98368 4.70138 4.92318 5.27061 4.52409C5.83984 4.12504 7.34783 -0.00550687 8.0474 5.51235e-06C8.74687 0.00556583 10.1867 4.15946 10.7493 4.56752C11.3119 4.97553 15.7802 5.10687 15.991 5.76155C16.2018 6.41622 12.6219 9.044 12.4003 9.69527C12.1788 10.3465 13.4324 14.5582 12.8631 14.9573Z" fill="#212121"/>
</svg>
